<?xml version="1.0" encoding="utf-8"?>
<!-- Generator: Adobe Illustrator 27.6.1, SVG Export Plug-In . SVG Version: 6.00 Build 0)  -->
<svg version="1.1" id="Layer_1" xmlns="http://www.w3.org/2000/svg" xmlns:xlink="http://www.w3.org/1999/xlink" x="0px" y="0px"
	 viewBox="0 0 90 90" style="enable-background:new 0 0 90 90;" xml:space="preserve">
<style type="text/css">
	.st0{fill:#FFFFFF;}
	.st1{fill:#FCFEFC;}
	.st2{fill:#1D465C;}
	.st3{fill:#FF9D28;}
	.st4{fill:#68C5ED;}
	.st5{fill:#044D80;}
	.st6{fill:#E54747;}
	.st7{fill:#FDFEFE;}
	.st8{fill:#FFA840;}
</style>
<g>
	<circle class="st0" cx="45" cy="43.45" r="38.7"/>
</g>
<g>
	<g>
		<path class="st1" d="M44.82,74.99c-0.38-0.11-9.36-2.81-14.03-7.21c-7.47-7.05-8.95-15.87-9.44-18.76
			c-0.2-1.19-0.38-2.7-0.46-8.11c-0.09-6.11,0.04-12.26,0.37-18.28l0.01-0.15c0.04-0.71,0.46-1.35,1.11-1.66l0.14-0.07
			c6.96-3.35,14.59-5.09,22.31-5.09h0.34c7.73,0,15.35,1.74,22.31,5.09l0.14,0.07c0.64,0.31,1.07,0.95,1.11,1.66l0.01,0.15
			c0.33,6.01,0.46,12.17,0.37,18.28c-0.08,5.41-0.26,6.92-0.46,8.11c-0.49,2.9-1.96,11.71-9.44,18.76
			c-3.61,3.41-8.17,5.91-13.19,7.23l-0.6,0.16L44.82,74.99z"/>
	</g>
	<g>
		<path class="st2" d="M45.41,75.69l-0.73-0.22c-0.39-0.12-9.5-2.87-14.23-7.33c-7.6-7.16-9.09-16.1-9.59-19.04
			c-0.2-1.21-0.39-2.75-0.47-8.18c-0.09-6.13,0.04-12.29,0.37-18.32l0.01-0.15c0.05-0.9,0.58-1.7,1.39-2.08l0.14-0.06
			c6.99-3.36,14.78-5.14,22.53-5.14h0.34c7.75,0,15.54,1.78,22.53,5.14l0.13,0.07c0.81,0.39,1.34,1.19,1.39,2.08l0.01,0.15
			c0.33,6.02,0.46,12.19,0.37,18.32c-0.08,5.44-0.26,6.97-0.47,8.18c-0.49,2.94-1.99,11.88-9.59,19.05c-3.67,3.46-8.3,6-13.4,7.35
			L45.41,75.69z M44.96,74.51l0.46,0.14l0.47-0.12c4.94-1.31,9.42-3.76,12.97-7.11c7.35-6.93,8.81-15.62,9.29-18.48
			c0.2-1.17,0.38-2.66,0.45-8.03c0.09-6.11-0.04-12.25-0.37-18.25l-0.01-0.15c-0.03-0.53-0.35-1.01-0.83-1.24l-0.13-0.07
			c-6.85-3.3-14.49-5.04-22.1-5.04h-0.34c-7.6,0-15.24,1.74-22.1,5.04l-0.14,0.06c-0.48,0.23-0.8,0.71-0.83,1.24l-0.01,0.15
			c-0.33,6-0.46,12.14-0.37,18.25c0.08,5.37,0.26,6.86,0.45,8.03c0.48,2.86,1.94,11.55,9.29,18.48
			C35.69,71.71,44.58,74.4,44.96,74.51L44.96,74.51z"/>
	</g>
</g>
<g>
	<path class="st2" d="M31.95,66.75c-6.99-6.59-8.49-14.88-9.02-18.01c-0.18-1.05-0.36-2.48-0.44-7.99
		c-0.11-7.52,0.11-13.87,0.38-18.64C26.88,20.18,34.7,17.06,45,17.1c10.3-0.04,18.12,3.08,22.13,5.01
		c0.26,4.77,0.48,11.12,0.38,18.64c-0.08,5.52-0.27,6.94-0.44,7.99c-0.53,3.14-2.03,11.42-9.02,18.01
		c-4.46,4.21-9.38,6.05-12.58,6.89C45.47,73.65,36.41,70.96,31.95,66.75z"/>
</g>
<g>
	<path class="st3" d="M26.97,25.36h3.16h1.92v-1.9L26.97,25.36z"/>
</g>
<g>
	<path class="st4" d="M32.06,23.45v6.73l2.4-7.63L32.06,23.45z"/>
</g>
<g>
	<path class="st5" d="M32.06,25.36h-1.92l1.92,4.82V25.36z"/>
</g>
<g>
	<path class="st6" d="M26.97,25.36l3.66,1.24l-0.49-1.24H26.97z"/>
</g>
<g>
	<g>
		<path class="st0" d="M38.63,28.41c-0.03,0.03-0.07,0.06-0.14,0.1c-0.06,0.04-0.15,0.09-0.25,0.13c-0.1,0.04-0.23,0.08-0.39,0.11
			c-0.15,0.03-0.32,0.05-0.52,0.05c-0.37,0-0.7-0.06-0.98-0.18c-0.28-0.12-0.5-0.29-0.68-0.51c-0.18-0.22-0.31-0.47-0.39-0.77
			c-0.09-0.29-0.13-0.62-0.13-0.97c0-0.35,0.05-0.68,0.14-0.98c0.09-0.3,0.22-0.56,0.41-0.78c0.18-0.22,0.41-0.39,0.68-0.51
			c0.27-0.12,0.59-0.18,0.96-0.18c0.18,0,0.35,0.02,0.49,0.05c0.14,0.03,0.28,0.07,0.39,0.12c0.11,0.05,0.2,0.09,0.27,0.14
			c0.07,0.05,0.13,0.09,0.16,0.12c0.04,0.03,0.08,0.08,0.11,0.13c0.03,0.05,0.05,0.11,0.05,0.17c0,0.09-0.03,0.18-0.1,0.28
			c-0.07,0.09-0.14,0.18-0.23,0.26c-0.06-0.06-0.12-0.12-0.19-0.17c-0.07-0.06-0.15-0.11-0.24-0.16c-0.09-0.05-0.18-0.08-0.29-0.11
			c-0.11-0.03-0.23-0.05-0.37-0.05c-0.24,0-0.44,0.05-0.6,0.14s-0.29,0.22-0.39,0.37c-0.1,0.16-0.17,0.33-0.21,0.52
			c-0.04,0.2-0.06,0.4-0.06,0.6c0,0.22,0.02,0.43,0.06,0.63c0.04,0.2,0.12,0.37,0.22,0.53s0.24,0.28,0.4,0.37
			c0.17,0.09,0.37,0.14,0.62,0.14c0.13,0,0.25-0.02,0.36-0.05c0.11-0.03,0.21-0.07,0.29-0.12c0.09-0.05,0.16-0.1,0.22-0.14
			c0.06-0.05,0.12-0.1,0.16-0.13c0.03,0.03,0.06,0.07,0.1,0.12c0.04,0.05,0.07,0.1,0.1,0.14c0.03,0.05,0.06,0.1,0.09,0.16
			c0.02,0.05,0.03,0.1,0.03,0.14c0,0.06-0.01,0.11-0.03,0.16C38.72,28.31,38.68,28.36,38.63,28.41L38.63,28.41z M42.22,27.87
			c0,0.37,0.05,0.64,0.16,0.81c-0.09,0.03-0.16,0.06-0.24,0.07s-0.15,0.02-0.23,0.02c-0.17,0-0.29-0.03-0.38-0.1
			c-0.09-0.06-0.14-0.16-0.17-0.28c-0.1,0.11-0.24,0.2-0.41,0.28c-0.17,0.07-0.37,0.11-0.62,0.11c-0.13,0-0.25-0.02-0.38-0.05
			s-0.24-0.09-0.35-0.17s-0.18-0.18-0.25-0.32c-0.06-0.13-0.1-0.29-0.1-0.48c0-0.24,0.06-0.43,0.17-0.58
			c0.12-0.15,0.26-0.26,0.43-0.35c0.17-0.09,0.36-0.14,0.56-0.18c0.2-0.03,0.39-0.05,0.55-0.06c0.06-0.01,0.11-0.01,0.17-0.01h0.15
			v-0.13c0-0.18-0.05-0.3-0.14-0.39c-0.1-0.07-0.25-0.12-0.47-0.12c-0.2,0-0.38,0.03-0.54,0.1s-0.31,0.14-0.46,0.22
			c-0.06-0.08-0.12-0.17-0.16-0.26c-0.04-0.1-0.06-0.17-0.06-0.21c0-0.06,0.03-0.13,0.11-0.19c0.07-0.06,0.17-0.12,0.3-0.17
			s0.27-0.09,0.44-0.12c0.16-0.03,0.33-0.05,0.52-0.05c0.25,0,0.47,0.02,0.64,0.07c0.17,0.05,0.32,0.13,0.43,0.24
			c0.11,0.11,0.19,0.24,0.24,0.4s0.07,0.35,0.07,0.56L42.22,27.87L42.22,27.87z M41.32,27.06h-0.1c-0.03,0-0.06,0-0.1,0.01
			c-0.12,0.01-0.23,0.02-0.35,0.04c-0.12,0.02-0.22,0.05-0.3,0.1c-0.09,0.05-0.16,0.11-0.22,0.18c-0.06,0.07-0.09,0.17-0.09,0.29
			c0,0.13,0.03,0.24,0.11,0.33c0.07,0.09,0.2,0.14,0.38,0.14c0.09,0,0.17-0.01,0.25-0.03c0.08-0.02,0.15-0.05,0.21-0.09
			c0.06-0.04,0.11-0.08,0.14-0.12c0.03-0.05,0.05-0.09,0.05-0.12V27.06L41.32,27.06z M43.96,25.68c0.07-0.09,0.19-0.18,0.35-0.27
			c0.16-0.09,0.36-0.14,0.6-0.14c0.17,0,0.34,0.03,0.49,0.09c0.16,0.06,0.29,0.16,0.41,0.28c0.12,0.13,0.22,0.3,0.29,0.52
			c0.07,0.21,0.11,0.48,0.11,0.79c0,0.36-0.04,0.67-0.13,0.9c-0.09,0.24-0.19,0.43-0.32,0.56c-0.13,0.14-0.28,0.24-0.44,0.29
			c-0.16,0.06-0.33,0.09-0.49,0.09c-0.13,0-0.25-0.02-0.35-0.05s-0.18-0.06-0.25-0.1c-0.07-0.03-0.12-0.07-0.16-0.11
			c-0.03-0.03-0.06-0.06-0.07-0.07v1.73h-0.96v-4.81c0.02-0.01,0.05-0.01,0.09-0.01c0.03-0.01,0.06-0.01,0.1-0.01
			c0.04,0,0.08-0.01,0.13-0.01c0.16,0,0.29,0.02,0.4,0.07C43.87,25.47,43.93,25.56,43.96,25.68L43.96,25.68z M45.23,26.98
			c0-0.14-0.01-0.27-0.03-0.39c-0.02-0.12-0.06-0.22-0.12-0.32c-0.05-0.09-0.13-0.16-0.22-0.21c-0.09-0.05-0.2-0.07-0.33-0.07
			c-0.2,0-0.33,0.04-0.41,0.11C44.04,26.17,44,26.25,44,26.34v1.49c0.03,0.04,0.1,0.08,0.2,0.13s0.21,0.07,0.33,0.07
			c0.24,0,0.41-0.09,0.52-0.28C45.17,27.57,45.23,27.32,45.23,26.98z M46.96,28.18c-0.03-0.09-0.05-0.19-0.06-0.29
			c-0.01-0.1-0.01-0.21-0.01-0.31v-3.25c0.03-0.01,0.07-0.01,0.1-0.01c0.03-0.01,0.07-0.01,0.1-0.01c0.03,0,0.07-0.01,0.11-0.01
			c0.07,0,0.15,0.01,0.22,0.02c0.07,0.01,0.14,0.04,0.2,0.09c0.06,0.04,0.11,0.1,0.15,0.17c0.03,0.07,0.06,0.17,0.06,0.28v0.5h0.98
			v0.71h-0.98v1.5c0,0.33,0.13,0.49,0.4,0.49c0.06,0,0.13-0.01,0.18-0.03c0.06-0.02,0.11-0.05,0.16-0.07
			c0.05-0.02,0.09-0.05,0.12-0.08c0.03-0.03,0.06-0.05,0.07-0.06c0.07,0.1,0.13,0.19,0.16,0.26c0.03,0.07,0.06,0.14,0.06,0.21
			c0,0.06-0.02,0.12-0.07,0.18s-0.12,0.12-0.21,0.16c-0.09,0.05-0.2,0.09-0.32,0.12c-0.13,0.03-0.26,0.05-0.41,0.05
			c-0.29,0-0.52-0.06-0.68-0.17C47.14,28.51,47.02,28.37,46.96,28.18L46.96,28.18z M51.23,28.09c0.12,0,0.22-0.01,0.31-0.04
			c0.09-0.02,0.17-0.06,0.24-0.09c0.07-0.03,0.13-0.08,0.18-0.12c0.05-0.05,0.1-0.09,0.14-0.12c0.06,0.07,0.12,0.16,0.18,0.27
			c0.06,0.11,0.09,0.2,0.09,0.27c0,0.1-0.06,0.2-0.17,0.28c-0.1,0.07-0.24,0.14-0.42,0.2c-0.18,0.05-0.39,0.08-0.63,0.08
			c-0.22,0-0.44-0.03-0.65-0.09c-0.21-0.06-0.4-0.16-0.57-0.29c-0.17-0.14-0.3-0.33-0.4-0.56c-0.1-0.24-0.16-0.54-0.16-0.89
			c0-0.29,0.05-0.55,0.14-0.76c0.09-0.21,0.21-0.39,0.36-0.53c0.15-0.14,0.32-0.24,0.52-0.31c0.19-0.06,0.39-0.1,0.59-0.1
			c0.26,0,0.48,0.04,0.67,0.12c0.18,0.08,0.33,0.19,0.44,0.33c0.12,0.14,0.2,0.29,0.25,0.47s0.07,0.36,0.07,0.56v0.1
			c0,0.04,0,0.07-0.01,0.12c0,0.04-0.01,0.08-0.01,0.12c0,0.04-0.01,0.07-0.01,0.09h-2.07c0.02,0.26,0.1,0.47,0.24,0.64
			C50.7,28.01,50.93,28.09,51.23,28.09L51.23,28.09z M51.55,26.67c0-0.22-0.05-0.41-0.13-0.55c-0.09-0.14-0.24-0.21-0.47-0.21
			c-0.2,0-0.35,0.07-0.46,0.2c-0.12,0.13-0.17,0.32-0.17,0.56H51.55L51.55,26.67z M54.07,25.7c0.03-0.04,0.06-0.09,0.11-0.14
			s0.1-0.1,0.17-0.14s0.14-0.07,0.22-0.1c0.08-0.03,0.17-0.04,0.26-0.04c0.06,0,0.12,0.01,0.18,0.01c0.06,0.01,0.12,0.03,0.17,0.05
			c0.05,0.02,0.1,0.06,0.13,0.1c0.03,0.05,0.05,0.1,0.05,0.16c0,0.1-0.02,0.22-0.07,0.35c-0.05,0.13-0.1,0.25-0.16,0.34
			c-0.08-0.06-0.16-0.12-0.24-0.15c-0.08-0.03-0.17-0.05-0.28-0.05c-0.14,0-0.26,0.04-0.36,0.13s-0.15,0.18-0.15,0.3v2.27h-0.96
			v-3.42c0.02-0.01,0.05-0.01,0.09-0.01c0.03-0.01,0.06-0.01,0.1-0.01c0.03,0,0.08-0.01,0.13-0.01c0.15,0,0.28,0.03,0.39,0.09
			C53.97,25.49,54.04,25.58,54.07,25.7L54.07,25.7z M56.78,25.7c0.03-0.04,0.06-0.09,0.11-0.14c0.05-0.05,0.1-0.1,0.17-0.14
			c0.07-0.04,0.14-0.07,0.22-0.1c0.08-0.03,0.17-0.04,0.26-0.04c0.06,0,0.12,0.01,0.18,0.01c0.06,0.01,0.12,0.03,0.17,0.05
			c0.05,0.02,0.1,0.06,0.13,0.1s0.05,0.1,0.05,0.16c0,0.1-0.02,0.22-0.07,0.35s-0.1,0.25-0.16,0.34c-0.08-0.06-0.16-0.12-0.24-0.15
			c-0.08-0.03-0.17-0.05-0.28-0.05c-0.14,0-0.26,0.04-0.36,0.13s-0.15,0.18-0.15,0.3v2.27h-0.96v-3.42
			c0.02-0.01,0.05-0.01,0.09-0.01c0.03-0.01,0.06-0.01,0.1-0.01c0.03,0,0.08-0.01,0.13-0.01c0.15,0,0.28,0.03,0.39,0.09
			C56.68,25.49,56.75,25.58,56.78,25.7L56.78,25.7z M61.33,27.87c0,0.37,0.05,0.64,0.16,0.81c-0.09,0.03-0.16,0.06-0.24,0.07
			c-0.07,0.01-0.15,0.02-0.23,0.02c-0.17,0-0.29-0.03-0.38-0.1c-0.09-0.06-0.14-0.16-0.17-0.28c-0.1,0.11-0.24,0.2-0.41,0.28
			c-0.17,0.07-0.37,0.11-0.62,0.11c-0.13,0-0.25-0.02-0.38-0.05c-0.13-0.03-0.24-0.09-0.35-0.17s-0.18-0.18-0.25-0.32
			c-0.06-0.13-0.1-0.29-0.1-0.48c0-0.24,0.06-0.43,0.17-0.58c0.12-0.15,0.26-0.26,0.43-0.35c0.17-0.09,0.36-0.14,0.56-0.18
			c0.2-0.03,0.39-0.05,0.55-0.06c0.06-0.01,0.11-0.01,0.17-0.01h0.15v-0.13c0-0.18-0.05-0.3-0.14-0.39
			c-0.1-0.07-0.25-0.12-0.47-0.12c-0.2,0-0.38,0.03-0.54,0.1s-0.31,0.14-0.46,0.22c-0.06-0.08-0.12-0.17-0.16-0.26
			c-0.04-0.1-0.06-0.17-0.06-0.21c0-0.06,0.03-0.13,0.11-0.19c0.07-0.06,0.17-0.12,0.3-0.17s0.27-0.09,0.44-0.12
			c0.16-0.03,0.33-0.05,0.52-0.05c0.25,0,0.47,0.02,0.64,0.07c0.17,0.05,0.32,0.13,0.43,0.24c0.11,0.11,0.19,0.24,0.24,0.4
			c0.05,0.16,0.07,0.35,0.07,0.56L61.33,27.87L61.33,27.87z M60.44,27.06h-0.1c-0.03,0-0.06,0-0.1,0.01
			c-0.12,0.01-0.23,0.02-0.35,0.04c-0.12,0.02-0.22,0.05-0.3,0.1c-0.09,0.05-0.16,0.11-0.22,0.18c-0.06,0.07-0.09,0.17-0.09,0.29
			c0,0.13,0.03,0.24,0.11,0.33c0.07,0.09,0.2,0.14,0.38,0.14c0.09,0,0.17-0.01,0.25-0.03c0.08-0.02,0.15-0.05,0.21-0.09
			c0.06-0.04,0.11-0.08,0.14-0.12c0.03-0.05,0.05-0.09,0.05-0.12L60.44,27.06L60.44,27.06z"/>
	</g>
</g>
<g>
	<path class="st7" d="M27.21,38.89h3.36v1.14h-1.11v4.93h-1.17v-4.93h-1.08V38.89z"/>
	<path class="st7" d="M33.02,38.74c0.44,0,0.83,0.11,1.15,0.33s0.57,0.55,0.74,1c0.17,0.45,0.26,1.07,0.26,1.87
		c0,0.81-0.09,1.43-0.27,1.88c-0.18,0.45-0.42,0.78-0.72,0.99c-0.3,0.21-0.68,0.32-1.14,0.32c-0.46,0-0.84-0.11-1.15-0.32
		s-0.55-0.53-0.73-0.97s-0.26-1.05-0.26-1.85c0-1.12,0.17-1.92,0.52-2.42C31.8,39.01,32.33,38.74,33.02,38.74z M33.04,39.84
		c-0.2,0-0.37,0.06-0.52,0.19c-0.15,0.13-0.27,0.34-0.35,0.65s-0.12,0.75-0.12,1.34c0,0.77,0.09,1.3,0.27,1.59
		c0.18,0.29,0.42,0.44,0.71,0.44c0.28,0,0.5-0.14,0.67-0.42c0.2-0.34,0.3-0.9,0.3-1.68c0-0.8-0.09-1.35-0.27-1.65
		C33.56,39.99,33.33,39.84,33.04,39.84z"/>
	<path class="st7" d="M36.09,38.89h1.23c0.66,0,1.14,0.06,1.44,0.18c0.29,0.12,0.52,0.32,0.69,0.59c0.17,0.27,0.25,0.6,0.25,0.98
		c0,0.42-0.11,0.78-0.33,1.06s-0.52,0.48-0.9,0.59c-0.22,0.06-0.63,0.09-1.22,0.09v2.57h-1.16V38.89z M37.25,41.27h0.37
		c0.29,0,0.49-0.02,0.6-0.06c0.11-0.04,0.2-0.11,0.27-0.21c0.06-0.1,0.1-0.21,0.1-0.35c0-0.23-0.09-0.41-0.27-0.51
		c-0.13-0.08-0.38-0.12-0.74-0.12h-0.33V41.27z"/>
</g>
<g>
	<path class="st7" d="M51.3,61.98H41.16c-1.45,0-2.62-1.17-2.62-2.62v-0.32c0-1.45,1.17-2.62,2.62-2.62H51.3
		c1.45,0,2.62,1.17,2.62,2.62v0.32C53.92,60.81,52.75,61.98,51.3,61.98z"/>
</g>
<g>
	<path class="st2" d="M43.06,58.71h-0.49c0.01-0.29,0.1-0.51,0.27-0.67c0.17-0.16,0.38-0.25,0.64-0.25c0.16,0,0.3,0.03,0.43,0.1
		c0.12,0.07,0.22,0.17,0.29,0.29c0.07,0.13,0.11,0.26,0.11,0.39c0,0.16-0.04,0.33-0.13,0.51s-0.25,0.39-0.49,0.64l-0.3,0.31h0.94
		v0.47H42.5v-0.24l0.82-0.83c0.2-0.2,0.33-0.36,0.39-0.48s0.1-0.23,0.1-0.33c0-0.1-0.03-0.19-0.1-0.25c-0.07-0.07-0.15-0.1-0.26-0.1
		c-0.11,0-0.2,0.04-0.27,0.12S43.06,58.57,43.06,58.71z"/>
	<path class="st2" d="M45.5,57.79c0.19,0,0.36,0.05,0.5,0.14s0.25,0.24,0.32,0.43c0.08,0.2,0.12,0.47,0.12,0.81
		c0,0.35-0.04,0.62-0.12,0.82c-0.08,0.2-0.18,0.34-0.31,0.43c-0.13,0.09-0.3,0.14-0.5,0.14c-0.2,0-0.37-0.05-0.5-0.14
		c-0.14-0.09-0.24-0.23-0.32-0.42c-0.08-0.19-0.11-0.46-0.11-0.8c0-0.49,0.07-0.84,0.22-1.06C44.97,57.91,45.21,57.79,45.5,57.79z
		 M45.51,58.27c-0.08,0-0.16,0.03-0.23,0.08c-0.07,0.05-0.12,0.15-0.15,0.28c-0.03,0.13-0.05,0.33-0.05,0.58
		c0,0.33,0.04,0.57,0.12,0.69c0.08,0.13,0.18,0.19,0.31,0.19c0.12,0,0.22-0.06,0.29-0.18c0.09-0.15,0.13-0.39,0.13-0.73
		c0-0.35-0.04-0.59-0.12-0.72C45.74,58.33,45.64,58.27,45.51,58.27z"/>
	<path class="st2" d="M47.18,58.71h-0.49c0.01-0.29,0.1-0.51,0.27-0.67c0.17-0.16,0.38-0.25,0.64-0.25c0.16,0,0.3,0.03,0.43,0.1
		c0.12,0.07,0.22,0.17,0.29,0.29c0.07,0.13,0.11,0.26,0.11,0.39c0,0.16-0.04,0.33-0.13,0.51c-0.09,0.18-0.25,0.39-0.49,0.64
		l-0.3,0.31h0.94v0.47h-1.83v-0.24l0.82-0.83c0.2-0.2,0.33-0.36,0.39-0.48c0.06-0.12,0.1-0.23,0.1-0.33c0-0.1-0.03-0.19-0.1-0.25
		s-0.16-0.1-0.26-0.1c-0.11,0-0.2,0.04-0.27,0.12S47.19,58.57,47.18,58.71z"/>
	<path class="st2" d="M49.62,57.79c0.19,0,0.36,0.05,0.5,0.14s0.25,0.24,0.32,0.43c0.08,0.2,0.11,0.47,0.11,0.81
		c0,0.35-0.04,0.62-0.12,0.82c-0.08,0.2-0.18,0.34-0.31,0.43c-0.13,0.09-0.29,0.14-0.49,0.14s-0.37-0.05-0.5-0.14
		c-0.14-0.09-0.24-0.23-0.32-0.42c-0.08-0.19-0.12-0.46-0.12-0.8c0-0.49,0.08-0.84,0.22-1.06C49.1,57.91,49.33,57.79,49.62,57.79z
		 M49.64,58.27c-0.08,0-0.16,0.03-0.23,0.08c-0.07,0.05-0.12,0.15-0.15,0.28c-0.04,0.13-0.05,0.33-0.05,0.58
		c0,0.33,0.04,0.57,0.12,0.69c0.08,0.13,0.18,0.19,0.31,0.19c0.12,0,0.22-0.06,0.29-0.18c0.09-0.15,0.13-0.39,0.13-0.73
		c0-0.35-0.04-0.59-0.12-0.72C49.86,58.33,49.76,58.27,49.64,58.27z"/>
</g>
<g>
	<path class="st8" d="M39.38,38.42h-3.28c0.09-1.91,0.69-3.41,1.8-4.51c1.11-1.09,2.54-1.64,4.28-1.64c1.07,0,2.02,0.23,2.85,0.68
		s1.48,1.11,1.97,1.96c0.49,0.85,0.74,1.72,0.74,2.6c0,1.05-0.3,2.18-0.9,3.39c-0.6,1.21-1.69,2.64-3.28,4.3l-1.99,2.09h6.31v3.12
		H35.61v-1.61l5.47-5.58c1.32-1.34,2.2-2.42,2.64-3.23c0.44-0.81,0.66-1.55,0.66-2.21c0-0.68-0.23-1.25-0.68-1.69
		c-0.45-0.44-1.04-0.67-1.75-0.67c-0.72,0-1.32,0.27-1.8,0.81S39.41,37.5,39.38,38.42z"/>
	<path class="st8" d="M55.73,32.27c1.29,0,2.4,0.32,3.34,0.95c0.93,0.63,1.66,1.6,2.17,2.91c0.51,1.3,0.76,3.12,0.76,5.44
		c0,2.35-0.26,4.18-0.78,5.49c-0.52,1.31-1.21,2.27-2.09,2.88c-0.87,0.61-1.98,0.92-3.31,0.92c-1.33,0-2.45-0.31-3.36-0.93
		c-0.91-0.62-1.62-1.56-2.13-2.82c-0.51-1.26-0.77-3.05-0.77-5.38c0-3.25,0.5-5.6,1.5-7.06C52.19,33.08,53.74,32.27,55.73,32.27z
		 M55.81,35.47c-0.57,0-1.07,0.18-1.51,0.55c-0.44,0.36-0.78,0.99-1.01,1.88c-0.23,0.89-0.35,2.19-0.35,3.91
		c0,2.24,0.27,3.78,0.8,4.64c0.53,0.85,1.22,1.28,2.07,1.28c0.82,0,1.46-0.4,1.94-1.21c0.58-0.98,0.88-2.61,0.88-4.91
		c0-2.33-0.26-3.93-0.79-4.81C57.32,35.92,56.64,35.47,55.81,35.47z"/>
</g>
</svg>
