<?xml version="1.0" encoding="utf-8"?>
<!-- Generator: Adobe Illustrator 27.6.1, SVG Export Plug-In . SVG Version: 6.00 Build 0)  -->
<svg version="1.1" id="Layer_1" xmlns="http://www.w3.org/2000/svg" xmlns:xlink="http://www.w3.org/1999/xlink" x="0px" y="0px"
	 viewBox="0 0 90 90" style="enable-background:new 0 0 90 90;" xml:space="preserve">
<style type="text/css">
	.st0{fill:#1F89C7;}
	.st1{fill:#FFFFFF;}
</style>
<g>
	<circle class="st0" cx="45" cy="43.45" r="38.7"/>
</g>
<g>
	<g>
		<circle class="st0" cx="45" cy="43.45" r="35.54"/>
	</g>
	<g>
		<path class="st1" d="M45,79.24c-19.74,0-35.79-16.06-35.79-35.79S25.26,7.65,45,7.65c19.74,0,35.79,16.06,35.79,35.79
			S64.74,79.24,45,79.24z M45,8.15c-19.46,0-35.29,15.83-35.29,35.29S25.54,78.74,45,78.74c19.46,0,35.29-15.83,35.29-35.29
			S64.46,8.15,45,8.15z"/>
	</g>
</g>
<g>
	<path class="st1" d="M22.74,33.73c-0.47,0-0.92-0.08-1.32-0.23c-0.41-0.16-0.76-0.38-1.06-0.66c-0.3-0.29-0.53-0.62-0.7-1.01
		c-0.17-0.39-0.25-0.81-0.25-1.27c0-0.46,0.08-0.89,0.25-1.27c0.17-0.39,0.4-0.72,0.7-1.01c0.3-0.29,0.65-0.51,1.06-0.66
		c0.4-0.15,0.85-0.23,1.33-0.23c0.53,0,1.01,0.09,1.45,0.28c0.43,0.18,0.79,0.46,1.08,0.81l-0.91,0.84
		c-0.21-0.24-0.44-0.42-0.7-0.54s-0.54-0.18-0.84-0.18c-0.29,0-0.55,0.05-0.79,0.14s-0.45,0.23-0.62,0.4
		c-0.18,0.18-0.31,0.38-0.41,0.62s-0.15,0.51-0.15,0.8c0,0.29,0.05,0.56,0.15,0.8c0.1,0.24,0.23,0.45,0.41,0.62
		c0.18,0.18,0.38,0.31,0.62,0.4c0.24,0.09,0.5,0.14,0.79,0.14c0.3,0,0.59-0.06,0.84-0.18c0.26-0.12,0.49-0.3,0.7-0.55l0.91,0.84
		c-0.29,0.36-0.65,0.63-1.08,0.82C23.77,33.64,23.28,33.73,22.74,33.73z"/>
	<path class="st1" d="M28.94,33.73c-0.87,0-1.55-0.24-2.05-0.73c-0.49-0.49-0.74-1.18-0.74-2.08v-3.44h1.42v3.39
		c0,0.59,0.12,1.01,0.36,1.27c0.24,0.26,0.58,0.39,1.01,0.39c0.43,0,0.77-0.13,1.01-0.39c0.24-0.26,0.36-0.68,0.36-1.27v-3.39h1.41
		v3.44c0,0.9-0.25,1.6-0.74,2.08C30.49,33.49,29.81,33.73,28.94,33.73z"/>
	<path class="st1" d="M35.15,33.73c-0.49,0-0.96-0.07-1.41-0.2c-0.45-0.13-0.81-0.3-1.09-0.51l0.48-1.07
		c0.26,0.19,0.58,0.34,0.94,0.46c0.36,0.12,0.72,0.18,1.09,0.18c0.28,0,0.51-0.03,0.68-0.08s0.3-0.13,0.38-0.23
		c0.08-0.1,0.12-0.21,0.12-0.34c0-0.16-0.06-0.29-0.19-0.39s-0.3-0.18-0.51-0.24c-0.21-0.06-0.44-0.12-0.7-0.18
		c-0.25-0.06-0.51-0.12-0.76-0.21s-0.49-0.19-0.7-0.32s-0.38-0.3-0.51-0.51c-0.13-0.21-0.2-0.48-0.2-0.81
		c0-0.35,0.09-0.67,0.29-0.96c0.19-0.29,0.48-0.52,0.86-0.69c0.38-0.17,0.87-0.26,1.45-0.26c0.39,0,0.77,0.05,1.14,0.14
		c0.37,0.09,0.71,0.23,0.99,0.41l-0.44,1.08c-0.29-0.16-0.57-0.29-0.86-0.36s-0.57-0.12-0.84-0.12s-0.5,0.03-0.68,0.1
		c-0.18,0.06-0.3,0.15-0.38,0.25s-0.11,0.22-0.11,0.36c0,0.16,0.06,0.29,0.19,0.38s0.3,0.17,0.51,0.23c0.21,0.06,0.44,0.12,0.7,0.18
		c0.25,0.06,0.51,0.13,0.76,0.2s0.49,0.18,0.7,0.31c0.21,0.13,0.38,0.3,0.51,0.51c0.13,0.21,0.2,0.48,0.2,0.8
		c0,0.35-0.1,0.66-0.29,0.95c-0.19,0.29-0.48,0.52-0.87,0.69C36.22,33.64,35.73,33.73,35.15,33.73z"/>
	<path class="st1" d="M39.92,33.62v-4.99h-1.97v-1.16h5.36v1.16h-1.97v4.99H39.92z"/>
	<path class="st1" d="M46.97,33.73c-0.49,0-0.94-0.08-1.35-0.24c-0.41-0.16-0.77-0.38-1.07-0.67s-0.54-0.62-0.7-1.01
		c-0.17-0.39-0.25-0.81-0.25-1.27c0-0.46,0.08-0.88,0.25-1.26c0.17-0.39,0.4-0.72,0.71-1.01c0.3-0.29,0.66-0.51,1.07-0.67
		c0.41-0.16,0.85-0.24,1.34-0.24c0.49,0,0.93,0.08,1.34,0.24s0.76,0.38,1.06,0.67c0.3,0.29,0.54,0.62,0.71,1.01
		c0.17,0.38,0.25,0.81,0.25,1.27c0,0.46-0.08,0.88-0.25,1.27s-0.41,0.73-0.71,1.01s-0.66,0.5-1.06,0.66S47.45,33.73,46.97,33.73z
		 M46.96,32.52c0.28,0,0.53-0.05,0.76-0.14c0.23-0.09,0.43-0.23,0.61-0.4s0.31-0.38,0.41-0.62c0.1-0.24,0.14-0.51,0.14-0.8
		c0-0.29-0.05-0.56-0.14-0.8s-0.23-0.45-0.4-0.62s-0.38-0.31-0.61-0.4c-0.23-0.09-0.49-0.14-0.76-0.14s-0.53,0.05-0.76,0.14
		c-0.23,0.09-0.44,0.23-0.61,0.4s-0.31,0.38-0.41,0.62c-0.1,0.24-0.14,0.51-0.14,0.8c0,0.29,0.05,0.55,0.14,0.79
		c0.1,0.24,0.23,0.45,0.4,0.63s0.38,0.31,0.61,0.4C46.43,32.47,46.69,32.52,46.96,32.52z"/>
	<path class="st1" d="M51.4,33.62v-6.15h1.18l2.62,4.34h-0.62l2.57-4.34h1.17l0.02,6.15H57l-0.01-4.1h0.25l-2.06,3.45h-0.64
		l-2.1-3.45h0.3v4.1H51.4z"/>
	<path class="st1" d="M61.2,32.48h3.35v1.14h-4.76v-6.15h4.65v1.14H61.2V32.48z M61.1,29.95h2.96v1.11H61.1V29.95z"/>
	<path class="st1" d="M65.68,33.62v-6.15h2.66c0.55,0,1.03,0.09,1.42,0.27c0.4,0.18,0.71,0.44,0.92,0.77
		c0.22,0.33,0.33,0.73,0.33,1.19c0,0.46-0.11,0.85-0.33,1.18s-0.52,0.58-0.92,0.76c-0.4,0.18-0.87,0.26-1.42,0.26h-1.87l0.63-0.62
		v2.34H65.68z M67.11,31.44l-0.63-0.67h1.79c0.44,0,0.77-0.1,0.98-0.29c0.22-0.19,0.33-0.45,0.33-0.79c0-0.34-0.11-0.6-0.33-0.79
		s-0.54-0.28-0.98-0.28h-1.79l0.63-0.68V31.44z M69.59,33.62l-1.54-2.23h1.52l1.55,2.23H69.59z"/>
</g>
<g>
	<path class="st1" d="M30.39,63.11c-0.23,0-0.45-0.03-0.65-0.1s-0.37-0.15-0.5-0.25l0.19-0.42c0.12,0.09,0.26,0.17,0.43,0.23
		c0.17,0.06,0.35,0.09,0.53,0.09c0.15,0,0.28-0.02,0.37-0.05c0.09-0.03,0.16-0.08,0.21-0.14c0.04-0.06,0.07-0.12,0.07-0.19
		c0-0.09-0.03-0.16-0.1-0.22c-0.06-0.05-0.15-0.1-0.25-0.13s-0.21-0.06-0.34-0.09c-0.12-0.03-0.25-0.06-0.37-0.1
		c-0.12-0.04-0.24-0.09-0.34-0.15c-0.1-0.06-0.18-0.14-0.25-0.24c-0.06-0.1-0.1-0.23-0.1-0.38c0-0.16,0.04-0.3,0.13-0.44
		s0.21-0.24,0.39-0.32c0.17-0.08,0.39-0.12,0.66-0.12c0.18,0,0.35,0.02,0.52,0.07s0.32,0.11,0.45,0.19l-0.17,0.42
		c-0.13-0.08-0.27-0.14-0.4-0.17c-0.14-0.04-0.27-0.06-0.4-0.06c-0.15,0-0.27,0.02-0.36,0.05c-0.09,0.04-0.16,0.08-0.2,0.14
		s-0.06,0.12-0.06,0.2c0,0.09,0.03,0.16,0.09,0.21c0.06,0.05,0.14,0.1,0.25,0.13c0.1,0.03,0.21,0.06,0.34,0.09
		c0.13,0.03,0.25,0.06,0.37,0.1s0.24,0.08,0.34,0.14s0.18,0.14,0.25,0.24c0.06,0.1,0.09,0.23,0.09,0.38c0,0.16-0.04,0.3-0.13,0.43
		c-0.08,0.13-0.21,0.24-0.39,0.32S30.66,63.11,30.39,63.11z"/>
	<path class="st1" d="M33.06,63.1c-0.23,0-0.43-0.05-0.61-0.15c-0.18-0.1-0.32-0.23-0.42-0.41c-0.1-0.17-0.15-0.37-0.15-0.59
		c0-0.22,0.05-0.42,0.15-0.59s0.24-0.31,0.42-0.4c0.18-0.1,0.38-0.15,0.61-0.15c0.23,0,0.44,0.05,0.62,0.15
		c0.18,0.1,0.32,0.23,0.42,0.4c0.1,0.17,0.15,0.37,0.15,0.59c0,0.22-0.05,0.42-0.15,0.59c-0.1,0.17-0.24,0.31-0.42,0.41
		C33.5,63.05,33.29,63.1,33.06,63.1z M33.06,62.65c0.13,0,0.24-0.03,0.34-0.08s0.18-0.14,0.24-0.24c0.06-0.11,0.09-0.23,0.09-0.37
		c0-0.14-0.03-0.27-0.09-0.37s-0.14-0.18-0.24-0.24s-0.21-0.08-0.34-0.08c-0.13,0-0.24,0.03-0.34,0.08
		c-0.1,0.06-0.18,0.14-0.24,0.24c-0.06,0.1-0.09,0.23-0.09,0.37c0,0.14,0.03,0.27,0.09,0.37c0.06,0.11,0.14,0.19,0.24,0.24
		C32.83,62.62,32.94,62.65,33.06,62.65z"/>
	<path class="st1" d="M34.46,61.28v-0.42h1.49v0.42H34.46z M34.82,63.07v-2.35c0-0.23,0.07-0.42,0.21-0.56s0.33-0.21,0.59-0.21
		c0.09,0,0.18,0.01,0.26,0.03s0.15,0.05,0.21,0.09l-0.14,0.39c-0.04-0.03-0.08-0.05-0.13-0.07s-0.1-0.02-0.15-0.02
		c-0.11,0-0.19,0.03-0.25,0.09c-0.06,0.06-0.08,0.15-0.08,0.27v0.25l0.02,0.23v1.86H34.82z"/>
	<path class="st1" d="M36,61.28v-0.42h1.49v0.42H36z M37.13,63.1c-0.24,0-0.43-0.06-0.57-0.19c-0.13-0.13-0.2-0.31-0.2-0.56v-2h0.52
		v1.99c0,0.11,0.03,0.19,0.08,0.25s0.13,0.09,0.23,0.09c0.12,0,0.21-0.03,0.29-0.09l0.15,0.37c-0.06,0.05-0.14,0.09-0.23,0.11
		C37.32,63.09,37.23,63.1,37.13,63.1z"/>
	<path class="st1" d="M38.51,63.07l-0.82-2.23h0.49l0.7,1.96h-0.23l0.73-1.96h0.44l0.71,1.96h-0.23l0.72-1.96h0.46l-0.82,2.23h-0.5
		l-0.65-1.74h0.15l-0.66,1.74H38.51z"/>
	<path class="st1" d="M42.45,63.1c-0.17,0-0.31-0.03-0.44-0.09c-0.12-0.06-0.22-0.14-0.29-0.24c-0.07-0.1-0.1-0.22-0.1-0.34
		c0-0.12,0.03-0.24,0.09-0.34c0.06-0.1,0.16-0.18,0.29-0.24s0.32-0.09,0.54-0.09h0.65v0.35h-0.61c-0.18,0-0.3,0.03-0.36,0.08
		c-0.06,0.06-0.09,0.13-0.09,0.21c0,0.09,0.04,0.17,0.11,0.23c0.07,0.06,0.18,0.08,0.31,0.08c0.13,0,0.24-0.03,0.34-0.09
		c0.1-0.06,0.17-0.14,0.22-0.26l0.09,0.31c-0.05,0.13-0.14,0.23-0.27,0.3S42.65,63.1,42.45,63.1z M43.16,63.07v-0.45l-0.03-0.1
		v-0.79c0-0.15-0.05-0.27-0.14-0.36c-0.09-0.08-0.23-0.13-0.42-0.13c-0.13,0-0.25,0.02-0.37,0.06c-0.12,0.04-0.22,0.09-0.31,0.16
		l-0.2-0.38c0.12-0.09,0.26-0.16,0.43-0.21c0.17-0.05,0.34-0.07,0.52-0.07c0.32,0,0.57,0.08,0.75,0.23
		c0.18,0.15,0.26,0.39,0.26,0.72v1.31H43.16z"/>
	<path class="st1" d="M44.31,63.07v-2.23h0.5v0.61l-0.06-0.18c0.07-0.15,0.17-0.26,0.31-0.34c0.14-0.08,0.32-0.12,0.54-0.12v0.5
		c-0.02,0-0.04-0.01-0.06-0.01c-0.02,0-0.04,0-0.06,0c-0.2,0-0.35,0.06-0.47,0.17c-0.12,0.12-0.18,0.29-0.18,0.51v1.08H44.31z"/>
	<path class="st1" d="M47.07,63.1c-0.25,0-0.46-0.05-0.65-0.15c-0.19-0.1-0.33-0.23-0.43-0.41c-0.1-0.17-0.15-0.37-0.15-0.59
		c0-0.22,0.05-0.42,0.15-0.59c0.1-0.17,0.23-0.31,0.41-0.4c0.17-0.1,0.37-0.15,0.6-0.15c0.22,0,0.41,0.05,0.58,0.14
		c0.17,0.09,0.3,0.23,0.4,0.4c0.1,0.17,0.14,0.38,0.14,0.61c0,0.02,0,0.05,0,0.08c0,0.03,0,0.05-0.01,0.08h-1.86v-0.35h1.58
		l-0.21,0.11c0-0.13-0.02-0.24-0.08-0.34c-0.06-0.1-0.13-0.17-0.23-0.23s-0.21-0.08-0.33-0.08c-0.13,0-0.24,0.03-0.34,0.08
		c-0.1,0.06-0.17,0.13-0.23,0.23c-0.05,0.1-0.08,0.21-0.08,0.35v0.08c0,0.13,0.03,0.25,0.09,0.35s0.15,0.18,0.26,0.24
		s0.24,0.08,0.38,0.08c0.12,0,0.24-0.02,0.34-0.06c0.1-0.04,0.19-0.1,0.27-0.18l0.28,0.32c-0.1,0.12-0.22,0.21-0.38,0.27
		S47.27,63.1,47.07,63.1z"/>
	<path class="st1" d="M49.41,63.07l1.31-2.92h0.53l1.32,2.92h-0.57l-1.13-2.63h0.22l-1.13,2.63H49.41z M50.01,62.39l0.15-0.43h1.58
		l0.15,0.43H50.01z"/>
	<path class="st1" d="M53.82,63.1c-0.21,0-0.41-0.05-0.58-0.14c-0.17-0.1-0.3-0.23-0.4-0.4c-0.1-0.17-0.15-0.37-0.15-0.6
		c0-0.23,0.05-0.43,0.15-0.6s0.23-0.3,0.4-0.4s0.36-0.14,0.58-0.14c0.19,0,0.35,0.04,0.5,0.12s0.26,0.21,0.35,0.37
		c0.09,0.17,0.13,0.38,0.13,0.64c0,0.26-0.04,0.47-0.12,0.64c-0.08,0.17-0.2,0.29-0.35,0.38C54.18,63.06,54.01,63.1,53.82,63.1z
		 M53.88,62.65c0.12,0,0.24-0.03,0.34-0.08s0.18-0.14,0.24-0.24c0.06-0.11,0.09-0.23,0.09-0.37c0-0.14-0.03-0.27-0.09-0.37
		c-0.06-0.1-0.14-0.18-0.24-0.24s-0.21-0.08-0.34-0.08s-0.24,0.03-0.34,0.08s-0.18,0.14-0.24,0.24c-0.06,0.1-0.09,0.23-0.09,0.37
		c0,0.14,0.03,0.27,0.09,0.37c0.06,0.11,0.14,0.19,0.24,0.24S53.76,62.65,53.88,62.65z M54.56,63.07v-0.53l0.02-0.59l-0.04-0.59
		v-1.38h0.52v3.1H54.56z"/>
	<path class="st1" d="M56.33,63.07l-0.96-2.23h0.54l0.82,1.96h-0.27l0.85-1.96h0.5l-0.96,2.23H56.33z"/>
	<path class="st1" d="M58.42,60.47c-0.1,0-0.18-0.03-0.24-0.09c-0.06-0.06-0.09-0.14-0.09-0.22c0-0.09,0.03-0.16,0.09-0.22
		c0.06-0.06,0.14-0.09,0.24-0.09c0.1,0,0.18,0.03,0.24,0.08c0.06,0.06,0.09,0.13,0.09,0.21c0,0.09-0.03,0.17-0.09,0.23
		C58.6,60.44,58.52,60.47,58.42,60.47z M58.15,63.07v-2.23h0.52v2.23H58.15z"/>
	<path class="st1" d="M60.05,63.1c-0.19,0-0.37-0.02-0.54-0.07s-0.31-0.11-0.41-0.18l0.2-0.4c0.1,0.06,0.22,0.12,0.36,0.16
		c0.14,0.04,0.28,0.06,0.42,0.06c0.16,0,0.28-0.02,0.36-0.07c0.07-0.04,0.11-0.1,0.11-0.18c0-0.06-0.03-0.11-0.08-0.14
		s-0.12-0.06-0.2-0.07c-0.08-0.02-0.17-0.03-0.27-0.05s-0.2-0.03-0.3-0.06c-0.1-0.02-0.19-0.06-0.27-0.1
		c-0.08-0.05-0.15-0.11-0.2-0.19c-0.05-0.08-0.08-0.18-0.08-0.31c0-0.14,0.04-0.26,0.12-0.37s0.19-0.18,0.34-0.24
		c0.15-0.06,0.32-0.09,0.52-0.09c0.15,0,0.3,0.02,0.46,0.05c0.15,0.03,0.28,0.08,0.38,0.14l-0.2,0.4c-0.11-0.06-0.21-0.11-0.32-0.13
		c-0.11-0.02-0.21-0.04-0.32-0.04c-0.16,0-0.28,0.02-0.35,0.07c-0.08,0.05-0.12,0.11-0.12,0.18c0,0.07,0.03,0.12,0.08,0.15
		c0.05,0.03,0.12,0.06,0.2,0.08s0.17,0.04,0.27,0.05c0.1,0.01,0.2,0.03,0.29,0.06c0.1,0.02,0.19,0.06,0.27,0.1s0.15,0.1,0.2,0.18
		c0.05,0.08,0.08,0.18,0.08,0.3c0,0.14-0.04,0.26-0.12,0.36c-0.08,0.1-0.2,0.18-0.35,0.24C60.44,63.07,60.26,63.1,60.05,63.1z"/>
	<path class="st1" d="M62.56,63.1c-0.25,0-0.46-0.05-0.65-0.15c-0.18-0.1-0.33-0.23-0.43-0.41c-0.1-0.17-0.15-0.37-0.15-0.59
		c0-0.22,0.05-0.42,0.15-0.59s0.24-0.31,0.41-0.4c0.17-0.1,0.37-0.15,0.59-0.15c0.22,0,0.41,0.05,0.58,0.14
		c0.17,0.09,0.3,0.23,0.4,0.4c0.1,0.17,0.15,0.38,0.15,0.61c0,0.02,0,0.05,0,0.08c0,0.03,0,0.05-0.01,0.08h-1.86v-0.35h1.58
		l-0.21,0.11c0-0.13-0.02-0.24-0.08-0.34c-0.06-0.1-0.13-0.17-0.23-0.23s-0.21-0.08-0.33-0.08c-0.13,0-0.24,0.03-0.34,0.08
		c-0.1,0.06-0.17,0.13-0.23,0.23c-0.05,0.1-0.08,0.21-0.08,0.35v0.08c0,0.13,0.03,0.25,0.09,0.35c0.06,0.1,0.15,0.18,0.26,0.24
		c0.11,0.06,0.24,0.08,0.38,0.08c0.12,0,0.24-0.02,0.34-0.06c0.1-0.04,0.19-0.1,0.27-0.18l0.28,0.32c-0.1,0.12-0.23,0.21-0.38,0.27
		C62.92,63.07,62.75,63.1,62.56,63.1z"/>
</g>
<g>
	<path class="st1" d="M25.74,42.19c-0.49,0-0.96-0.07-1.41-0.2c-0.45-0.13-0.81-0.3-1.09-0.51l0.48-1.07
		c0.26,0.19,0.58,0.34,0.94,0.46c0.36,0.12,0.72,0.18,1.09,0.18c0.28,0,0.51-0.03,0.68-0.08s0.3-0.13,0.38-0.23
		c0.08-0.1,0.12-0.21,0.12-0.34c0-0.16-0.06-0.29-0.19-0.39s-0.3-0.18-0.51-0.24c-0.21-0.06-0.44-0.12-0.7-0.18
		c-0.25-0.06-0.51-0.12-0.76-0.21s-0.49-0.19-0.7-0.32s-0.38-0.3-0.51-0.51c-0.13-0.21-0.2-0.48-0.2-0.81
		c0-0.35,0.09-0.67,0.29-0.96c0.19-0.29,0.48-0.52,0.86-0.69c0.38-0.17,0.87-0.26,1.45-0.26c0.39,0,0.77,0.05,1.14,0.14
		c0.37,0.09,0.71,0.23,0.99,0.41l-0.44,1.08c-0.29-0.16-0.57-0.29-0.86-0.36s-0.57-0.12-0.84-0.12s-0.5,0.03-0.68,0.1
		c-0.18,0.06-0.3,0.15-0.38,0.25s-0.11,0.22-0.11,0.36c0,0.16,0.06,0.29,0.19,0.38s0.3,0.17,0.51,0.23c0.21,0.06,0.44,0.12,0.7,0.18
		c0.25,0.06,0.51,0.13,0.76,0.2s0.49,0.18,0.7,0.31c0.21,0.13,0.38,0.3,0.51,0.51c0.13,0.21,0.2,0.48,0.2,0.8
		c0,0.35-0.1,0.66-0.29,0.95c-0.19,0.29-0.48,0.52-0.87,0.69C26.81,42.11,26.32,42.19,25.74,42.19z"/>
	<path class="st1" d="M32.05,42.19c-0.87,0-1.55-0.24-2.05-0.73c-0.49-0.49-0.74-1.18-0.74-2.08v-3.44h1.42v3.39
		c0,0.59,0.12,1.01,0.36,1.27c0.24,0.26,0.58,0.39,1.01,0.39c0.43,0,0.77-0.13,1.01-0.39c0.24-0.26,0.36-0.68,0.36-1.27v-3.39h1.41
		v3.44c0,0.9-0.25,1.6-0.74,2.08C33.61,41.95,32.92,42.19,32.05,42.19z"/>
	<path class="st1" d="M36.24,42.09v-6.15h2.66c0.55,0,1.02,0.09,1.42,0.27c0.4,0.18,0.71,0.44,0.92,0.77
		c0.22,0.33,0.33,0.73,0.33,1.19c0,0.46-0.11,0.85-0.33,1.19s-0.52,0.59-0.92,0.77c-0.4,0.18-0.87,0.27-1.42,0.27h-1.87l0.63-0.64
		v2.34H36.24z M37.67,39.91l-0.63-0.68h1.79c0.44,0,0.77-0.09,0.98-0.28c0.22-0.19,0.33-0.45,0.33-0.78c0-0.34-0.11-0.6-0.33-0.79
		c-0.22-0.19-0.54-0.28-0.98-0.28h-1.79l0.63-0.68V39.91z"/>
	<path class="st1" d="M42.58,42.09v-6.15h2.66c0.55,0,1.03,0.09,1.42,0.27c0.4,0.18,0.71,0.44,0.92,0.77
		c0.22,0.33,0.33,0.73,0.33,1.19c0,0.46-0.11,0.85-0.33,1.19s-0.52,0.59-0.92,0.77c-0.4,0.18-0.87,0.27-1.42,0.27h-1.87l0.63-0.64
		v2.34H42.58z M44.01,39.91l-0.63-0.68h1.79c0.44,0,0.77-0.09,0.98-0.28c0.22-0.19,0.33-0.45,0.33-0.78c0-0.34-0.11-0.6-0.33-0.79
		s-0.54-0.28-0.98-0.28h-1.79l0.63-0.68V39.91z"/>
	<path class="st1" d="M52,42.19c-0.49,0-0.94-0.08-1.35-0.24s-0.77-0.38-1.07-0.67s-0.54-0.62-0.7-1.01
		c-0.17-0.39-0.25-0.81-0.25-1.27c0-0.46,0.08-0.88,0.25-1.26c0.17-0.39,0.4-0.72,0.71-1.01c0.3-0.29,0.66-0.51,1.07-0.67
		c0.41-0.16,0.85-0.24,1.33-0.24c0.49,0,0.93,0.08,1.34,0.24s0.76,0.38,1.06,0.67c0.3,0.29,0.54,0.62,0.71,1.01
		c0.17,0.38,0.25,0.81,0.25,1.27c0,0.46-0.08,0.88-0.25,1.27s-0.41,0.73-0.71,1.01s-0.66,0.5-1.06,0.66S52.48,42.19,52,42.19z
		 M51.99,40.98c0.28,0,0.53-0.05,0.76-0.14c0.23-0.09,0.43-0.23,0.61-0.4s0.31-0.38,0.41-0.62c0.1-0.24,0.14-0.51,0.14-0.8
		c0-0.29-0.05-0.56-0.14-0.8s-0.23-0.45-0.4-0.62s-0.38-0.31-0.61-0.4c-0.23-0.09-0.49-0.14-0.76-0.14s-0.53,0.05-0.76,0.14
		s-0.43,0.23-0.61,0.4s-0.31,0.38-0.41,0.62c-0.1,0.24-0.14,0.51-0.14,0.8c0,0.29,0.05,0.55,0.14,0.79c0.1,0.24,0.23,0.45,0.4,0.63
		s0.38,0.31,0.61,0.4C51.46,40.93,51.72,40.98,51.99,40.98z"/>
	<path class="st1" d="M56.43,42.09v-6.15h2.66c0.55,0,1.03,0.09,1.42,0.27c0.4,0.18,0.71,0.44,0.92,0.77
		c0.22,0.33,0.33,0.73,0.33,1.19c0,0.46-0.11,0.85-0.33,1.18s-0.52,0.58-0.92,0.76c-0.4,0.18-0.87,0.26-1.42,0.26h-1.87l0.63-0.62
		v2.34H56.43z M57.85,39.91l-0.63-0.67h1.79c0.44,0,0.77-0.1,0.98-0.29c0.22-0.19,0.33-0.45,0.33-0.79c0-0.34-0.11-0.6-0.33-0.79
		s-0.54-0.28-0.98-0.28h-1.79l0.63-0.68V39.91z M60.34,42.09l-1.54-2.23h1.52l1.55,2.23H60.34z"/>
	<path class="st1" d="M64.07,42.09V37.1H62.1v-1.16h5.36v1.16h-1.97v4.99H64.07z"/>
</g>
<g>
	<path class="st1" d="M65.52,53.91l-0.09-0.05l-2.44-1.3l-2.55,1.32l0.02-0.1l0.48-2.72l-2.04-2.02l0.1-0.01l2.74-0.38l1.29-2.57
		l0.04,0.09l1.21,2.49l2.84,0.43l-0.07,0.07l-2,1.92L65.52,53.91z M62.99,52.44l0.02,0.01l2.38,1.27l-0.44-2.68l0.02-0.02l1.94-1.87
		l-2.69-0.41l-0.01-0.02l-1.18-2.42l-1.22,2.43l-0.03,0l-2.67,0.37l1.94,1.91l0,0.03l-0.47,2.65L62.99,52.44z"/>
</g>
<g>
	<polygon class="st1" points="29.43,53.81 26.97,52.5 24.49,53.78 24.98,51.03 22.99,49.07 25.75,48.68 27.01,46.19 28.23,48.7 
		30.99,49.12 28.98,51.06 	"/>
</g>
<g>
	<polygon class="st1" points="38.56,53.81 36.1,52.5 33.61,53.78 34.1,51.03 32.11,49.07 34.88,48.68 36.13,46.19 37.36,48.7 
		40.12,49.12 38.11,51.06 	"/>
</g>
<g>
	<polygon class="st1" points="47.69,53.81 45.22,52.5 42.74,53.78 43.23,51.03 41.24,49.07 44.01,48.68 45.26,46.19 46.48,48.7 
		49.25,49.12 47.23,51.06 	"/>
</g>
<g>
	<polygon class="st1" points="56.81,53.81 54.35,52.5 51.87,53.78 52.36,51.03 50.37,49.07 53.14,48.68 54.39,46.19 55.61,48.7 
		58.37,49.12 56.36,51.06 	"/>
</g>
<g>
	<polygon class="st1" points="63.03,46.17 62.99,52.5 60.5,53.78 60.98,51.03 59.01,49.07 61.78,48.68 	"/>
</g>
<g>
	<path class="st1" d="M67.01,58.79v1.6c0,0.17-0.14,0.32-0.31,0.32H66l-1.73,0.76l0.43-0.76h-1.06c-0.17,0-0.31-0.15-0.31-0.32v-1.6
		c0-0.18,0.14-0.32,0.31-0.32h3.06C66.87,58.47,67.01,58.61,67.01,58.79z"/>
</g>
</svg>
