<?xml version="1.0" encoding="utf-8"?>
<!-- Generator: Adobe Illustrator 27.6.1, SVG Export Plug-In . SVG Version: 6.00 Build 0)  -->
<svg version="1.1" id="Layer_1" xmlns="http://www.w3.org/2000/svg" xmlns:xlink="http://www.w3.org/1999/xlink" x="0px" y="0px"
	 viewBox="0 0 90 90" style="enable-background:new 0 0 90 90;" xml:space="preserve">
<style type="text/css">
	.st0{fill:#FCBC50;}
	.st1{fill:#FFFFFF;}
</style>
<g>
	<circle class="st0" cx="45" cy="43.45" r="38.7"/>
</g>
<g>
	<g>
		<circle class="st0" cx="45" cy="43.45" r="35.54"/>
	</g>
	<g>
		<path class="st1" d="M45,79.24c-19.74,0-35.79-16.06-35.79-35.79S25.26,7.65,45,7.65c19.74,0,35.79,16.06,35.79,35.79
			S64.74,79.24,45,79.24z M45,8.15c-19.46,0-35.29,15.83-35.29,35.29S25.54,78.74,45,78.74c19.46,0,35.29-15.83,35.29-35.29
			S64.46,8.15,45,8.15z"/>
	</g>
</g>
<g>
	<path class="st1" d="M17.9,34.21h-1.09V29.5h3.56v0.87H17.9V34.21z M17.82,31.62h2.26v0.87h-2.26V31.62z"/>
	<path class="st1" d="M23.2,34.29c-0.67,0-1.19-0.19-1.57-0.56c-0.38-0.37-0.56-0.9-0.56-1.59V29.5h1.09v2.59
		c0,0.45,0.09,0.77,0.28,0.97c0.18,0.2,0.44,0.3,0.77,0.3c0.33,0,0.59-0.1,0.77-0.3c0.18-0.2,0.28-0.52,0.28-0.97V29.5h1.08v2.63
		c0,0.69-0.19,1.22-0.56,1.59C24.39,34.1,23.87,34.29,23.2,34.29z"/>
	<path class="st1" d="M26.4,34.21V29.5h0.9l2.78,3.39h-0.44V29.5h1.08v4.71h-0.89l-2.78-3.39h0.44v3.39H26.4z"/>
	<path class="st1" d="M34.09,34.29c-0.36,0-0.7-0.06-1.01-0.18s-0.58-0.29-0.81-0.51c-0.23-0.22-0.41-0.48-0.53-0.77
		c-0.13-0.3-0.19-0.62-0.19-0.97s0.06-0.68,0.19-0.97c0.13-0.3,0.31-0.55,0.54-0.77c0.23-0.22,0.5-0.39,0.81-0.51
		c0.31-0.12,0.65-0.18,1.02-0.18c0.41,0,0.78,0.07,1.11,0.21c0.33,0.14,0.61,0.35,0.83,0.62l-0.7,0.65
		c-0.16-0.18-0.34-0.32-0.54-0.41c-0.2-0.09-0.41-0.14-0.65-0.14c-0.22,0-0.42,0.04-0.6,0.11c-0.18,0.07-0.34,0.17-0.48,0.31
		c-0.13,0.13-0.24,0.29-0.31,0.48c-0.07,0.18-0.11,0.39-0.11,0.61s0.04,0.43,0.11,0.61c0.07,0.18,0.18,0.34,0.31,0.48
		c0.13,0.13,0.29,0.24,0.48,0.31c0.18,0.07,0.39,0.11,0.6,0.11c0.23,0,0.45-0.05,0.65-0.14c0.2-0.09,0.38-0.23,0.54-0.42l0.7,0.65
		c-0.22,0.27-0.5,0.48-0.83,0.63C34.87,34.21,34.5,34.29,34.09,34.29z"/>
	<path class="st1" d="M37.69,34.21v-3.82h-1.51V29.5h4.1v0.89h-1.51v3.82H37.69z"/>
	<path class="st1" d="M40.87,34.21V29.5h1.09v4.71H40.87z"/>
	<path class="st1" d="M45.36,34.29c-0.37,0-0.72-0.06-1.03-0.18c-0.32-0.12-0.59-0.29-0.82-0.51c-0.23-0.22-0.41-0.48-0.54-0.77
		c-0.13-0.3-0.19-0.62-0.19-0.97s0.06-0.67,0.19-0.97c0.13-0.3,0.31-0.55,0.54-0.77c0.23-0.22,0.51-0.39,0.82-0.51
		c0.31-0.12,0.65-0.18,1.02-0.18c0.37,0,0.71,0.06,1.03,0.18s0.58,0.29,0.81,0.51c0.23,0.22,0.41,0.48,0.54,0.77
		c0.13,0.29,0.2,0.62,0.2,0.97c0,0.35-0.07,0.67-0.2,0.97c-0.13,0.3-0.31,0.56-0.54,0.77s-0.5,0.39-0.81,0.51
		C46.07,34.23,45.73,34.29,45.36,34.29z M45.35,33.36c0.21,0,0.4-0.04,0.58-0.11c0.18-0.07,0.33-0.17,0.47-0.31
		c0.13-0.13,0.24-0.29,0.31-0.48c0.07-0.18,0.11-0.39,0.11-0.61s-0.04-0.43-0.11-0.61c-0.07-0.18-0.18-0.34-0.31-0.48
		c-0.13-0.13-0.29-0.24-0.47-0.31c-0.18-0.07-0.37-0.11-0.58-0.11c-0.21,0-0.4,0.04-0.58,0.11c-0.18,0.07-0.33,0.17-0.47,0.31
		c-0.13,0.13-0.24,0.29-0.31,0.48c-0.07,0.18-0.11,0.39-0.11,0.61c0,0.22,0.04,0.42,0.11,0.61c0.07,0.19,0.18,0.35,0.31,0.48
		c0.13,0.13,0.29,0.24,0.47,0.31C44.95,33.32,45.14,33.36,45.35,33.36z"/>
	<path class="st1" d="M48.75,34.21V29.5h0.9l2.78,3.39h-0.44V29.5h1.08v4.71h-0.89l-2.78-3.39h0.44v3.39H48.75z"/>
	<path class="st1" d="M53.56,34.21l2.1-4.71h1.08l2.1,4.71h-1.14l-1.72-4.15h0.43l-1.73,4.15H53.56z M54.61,33.2l0.29-0.83h2.42
		l0.3,0.83H54.61z"/>
	<path class="st1" d="M59.33,34.21V29.5h1.09v3.82h2.36v0.89H59.33z"/>
	<path class="st1" d="M63.39,34.21V29.5h1.09v4.71H63.39z"/>
	<path class="st1" d="M66.57,34.21v-3.82h-1.5V29.5h4.1v0.89h-1.51v3.82H66.57z"/>
	<path class="st1" d="M70.83,34.21v-1.92l0.25,0.66l-2.07-3.44h1.16l1.59,2.64h-0.67l1.59-2.64h1.07l-2.07,3.44l0.24-0.66v1.92
		H70.83z"/>
</g>
<g>
	<path class="st1" d="M30.39,56.98c-0.23,0-0.45-0.03-0.65-0.1s-0.37-0.15-0.5-0.25l0.19-0.42c0.12,0.09,0.26,0.17,0.43,0.23
		c0.17,0.06,0.35,0.09,0.53,0.09c0.15,0,0.28-0.02,0.37-0.05c0.09-0.03,0.16-0.08,0.21-0.14c0.04-0.06,0.07-0.12,0.07-0.19
		c0-0.09-0.03-0.16-0.1-0.22c-0.06-0.05-0.15-0.1-0.25-0.13s-0.21-0.06-0.34-0.09c-0.12-0.03-0.25-0.06-0.37-0.1
		c-0.12-0.04-0.24-0.09-0.34-0.15c-0.1-0.06-0.18-0.14-0.25-0.24c-0.06-0.1-0.1-0.23-0.1-0.38c0-0.16,0.04-0.3,0.13-0.44
		s0.21-0.24,0.39-0.32c0.17-0.08,0.39-0.12,0.66-0.12c0.18,0,0.35,0.02,0.52,0.07s0.32,0.11,0.45,0.19l-0.17,0.42
		c-0.13-0.08-0.27-0.14-0.4-0.17c-0.14-0.04-0.27-0.06-0.4-0.06c-0.15,0-0.27,0.02-0.36,0.05c-0.09,0.04-0.16,0.08-0.2,0.14
		s-0.06,0.12-0.06,0.2c0,0.09,0.03,0.16,0.09,0.21c0.06,0.05,0.14,0.1,0.25,0.13c0.1,0.03,0.21,0.06,0.34,0.09
		c0.13,0.03,0.25,0.06,0.37,0.1s0.24,0.08,0.34,0.14s0.18,0.14,0.25,0.24c0.06,0.1,0.09,0.23,0.09,0.38c0,0.16-0.04,0.3-0.13,0.43
		c-0.08,0.13-0.21,0.24-0.39,0.32S30.66,56.98,30.39,56.98z"/>
	<path class="st1" d="M33.06,56.97c-0.23,0-0.43-0.05-0.61-0.15c-0.18-0.1-0.32-0.23-0.42-0.41c-0.1-0.17-0.15-0.37-0.15-0.59
		c0-0.22,0.05-0.42,0.15-0.59s0.24-0.31,0.42-0.4c0.18-0.1,0.38-0.15,0.61-0.15c0.23,0,0.44,0.05,0.62,0.15
		c0.18,0.1,0.32,0.23,0.42,0.4c0.1,0.17,0.15,0.37,0.15,0.59c0,0.22-0.05,0.42-0.15,0.59c-0.1,0.17-0.24,0.31-0.42,0.41
		C33.5,56.92,33.29,56.97,33.06,56.97z M33.06,56.52c0.13,0,0.24-0.03,0.34-0.08s0.18-0.14,0.24-0.24c0.06-0.11,0.09-0.23,0.09-0.37
		c0-0.14-0.03-0.27-0.09-0.37s-0.14-0.18-0.24-0.24s-0.21-0.08-0.34-0.08c-0.13,0-0.24,0.03-0.34,0.08
		c-0.1,0.06-0.18,0.14-0.24,0.24c-0.06,0.1-0.09,0.23-0.09,0.37c0,0.14,0.03,0.27,0.09,0.37c0.06,0.11,0.14,0.19,0.24,0.24
		C32.83,56.5,32.94,56.52,33.06,56.52z"/>
	<path class="st1" d="M34.46,55.15v-0.42h1.49v0.42H34.46z M34.82,56.94v-2.35c0-0.23,0.07-0.42,0.21-0.56s0.33-0.21,0.59-0.21
		c0.09,0,0.18,0.01,0.26,0.03s0.15,0.05,0.21,0.09l-0.14,0.39c-0.04-0.03-0.08-0.05-0.13-0.07s-0.1-0.02-0.15-0.02
		c-0.11,0-0.19,0.03-0.25,0.09c-0.06,0.06-0.08,0.15-0.08,0.27v0.25l0.02,0.23v1.86H34.82z"/>
	<path class="st1" d="M36,55.15v-0.42h1.49v0.42H36z M37.13,56.97c-0.24,0-0.43-0.06-0.57-0.19c-0.13-0.13-0.2-0.31-0.2-0.56v-2
		h0.52v1.99c0,0.11,0.03,0.19,0.08,0.25s0.13,0.09,0.23,0.09c0.12,0,0.21-0.03,0.29-0.09l0.15,0.37c-0.06,0.05-0.14,0.09-0.23,0.11
		C37.32,56.96,37.23,56.97,37.13,56.97z"/>
	<path class="st1" d="M38.51,56.94l-0.82-2.23h0.49l0.7,1.96h-0.23l0.73-1.96h0.44l0.71,1.96h-0.23l0.72-1.96h0.46l-0.82,2.23h-0.5
		l-0.65-1.74h0.15l-0.66,1.74H38.51z"/>
	<path class="st1" d="M42.45,56.97c-0.17,0-0.31-0.03-0.44-0.09c-0.12-0.06-0.22-0.14-0.29-0.24c-0.07-0.1-0.1-0.22-0.1-0.34
		c0-0.12,0.03-0.24,0.09-0.34c0.06-0.1,0.16-0.18,0.29-0.24s0.32-0.09,0.54-0.09h0.65v0.35h-0.61c-0.18,0-0.3,0.03-0.36,0.08
		c-0.06,0.06-0.09,0.13-0.09,0.21c0,0.09,0.04,0.17,0.11,0.23c0.07,0.06,0.18,0.08,0.31,0.08c0.13,0,0.24-0.03,0.34-0.09
		c0.1-0.06,0.17-0.14,0.22-0.26l0.09,0.31c-0.05,0.13-0.14,0.23-0.27,0.3S42.65,56.97,42.45,56.97z M43.16,56.94v-0.45l-0.03-0.1
		v-0.79c0-0.15-0.05-0.27-0.14-0.36c-0.09-0.08-0.23-0.13-0.42-0.13c-0.13,0-0.25,0.02-0.37,0.06c-0.12,0.04-0.22,0.09-0.31,0.16
		l-0.2-0.38c0.12-0.09,0.26-0.16,0.43-0.21c0.17-0.05,0.34-0.07,0.52-0.07c0.32,0,0.57,0.08,0.75,0.23
		c0.18,0.15,0.26,0.39,0.26,0.72v1.31H43.16z"/>
	<path class="st1" d="M44.31,56.94v-2.23h0.5v0.61l-0.06-0.18c0.07-0.15,0.17-0.26,0.31-0.34c0.14-0.08,0.32-0.12,0.54-0.12v0.5
		c-0.02,0-0.04-0.01-0.06-0.01c-0.02,0-0.04,0-0.06,0c-0.2,0-0.35,0.06-0.47,0.17c-0.12,0.12-0.18,0.29-0.18,0.51v1.08H44.31z"/>
	<path class="st1" d="M47.07,56.97c-0.25,0-0.46-0.05-0.65-0.15c-0.19-0.1-0.33-0.23-0.43-0.41c-0.1-0.17-0.15-0.37-0.15-0.59
		c0-0.22,0.05-0.42,0.15-0.59c0.1-0.17,0.23-0.31,0.41-0.4c0.17-0.1,0.37-0.15,0.6-0.15c0.22,0,0.41,0.05,0.58,0.14
		c0.17,0.09,0.3,0.23,0.4,0.4c0.1,0.17,0.14,0.38,0.14,0.61c0,0.02,0,0.05,0,0.08c0,0.03,0,0.05-0.01,0.08h-1.86v-0.35h1.58
		l-0.21,0.11c0-0.13-0.02-0.24-0.08-0.34c-0.06-0.1-0.13-0.17-0.23-0.23s-0.21-0.08-0.33-0.08c-0.13,0-0.24,0.03-0.34,0.08
		c-0.1,0.06-0.17,0.13-0.23,0.23c-0.05,0.1-0.08,0.21-0.08,0.35v0.08c0,0.13,0.03,0.25,0.09,0.35s0.15,0.18,0.26,0.24
		s0.24,0.08,0.38,0.08c0.12,0,0.24-0.02,0.34-0.06c0.1-0.04,0.19-0.1,0.27-0.18l0.28,0.32c-0.1,0.12-0.22,0.21-0.38,0.27
		S47.27,56.97,47.07,56.97z"/>
	<path class="st1" d="M49.41,56.94l1.31-2.92h0.53l1.32,2.92h-0.57l-1.13-2.63h0.22l-1.13,2.63H49.41z M50.01,56.27l0.15-0.43h1.58
		l0.15,0.43H50.01z"/>
	<path class="st1" d="M53.82,56.97c-0.21,0-0.41-0.05-0.58-0.14c-0.17-0.1-0.3-0.23-0.4-0.4c-0.1-0.17-0.15-0.37-0.15-0.6
		c0-0.23,0.05-0.43,0.15-0.6s0.23-0.3,0.4-0.4s0.36-0.14,0.58-0.14c0.19,0,0.35,0.04,0.5,0.12s0.26,0.21,0.35,0.37
		c0.09,0.17,0.13,0.38,0.13,0.64c0,0.26-0.04,0.47-0.12,0.64c-0.08,0.17-0.2,0.29-0.35,0.38C54.18,56.93,54.01,56.97,53.82,56.97z
		 M53.88,56.52c0.12,0,0.24-0.03,0.34-0.08s0.18-0.14,0.24-0.24c0.06-0.11,0.09-0.23,0.09-0.37c0-0.14-0.03-0.27-0.09-0.37
		c-0.06-0.1-0.14-0.18-0.24-0.24s-0.21-0.08-0.34-0.08s-0.24,0.03-0.34,0.08s-0.18,0.14-0.24,0.24c-0.06,0.1-0.09,0.23-0.09,0.37
		c0,0.14,0.03,0.27,0.09,0.37c0.06,0.11,0.14,0.19,0.24,0.24S53.76,56.52,53.88,56.52z M54.56,56.94v-0.53l0.02-0.59l-0.04-0.59
		v-1.38h0.52v3.1H54.56z"/>
	<path class="st1" d="M56.33,56.94l-0.96-2.23h0.54l0.82,1.96h-0.27l0.85-1.96h0.5l-0.96,2.23H56.33z"/>
	<path class="st1" d="M58.42,54.35c-0.1,0-0.18-0.03-0.24-0.09c-0.06-0.06-0.09-0.14-0.09-0.22c0-0.09,0.03-0.16,0.09-0.22
		c0.06-0.06,0.14-0.09,0.24-0.09c0.1,0,0.18,0.03,0.24,0.08c0.06,0.06,0.09,0.13,0.09,0.21c0,0.09-0.03,0.17-0.09,0.23
		C58.6,54.32,58.52,54.35,58.42,54.35z M58.15,56.94v-2.23h0.52v2.23H58.15z"/>
	<path class="st1" d="M60.05,56.97c-0.19,0-0.37-0.02-0.54-0.07s-0.31-0.11-0.41-0.18l0.2-0.4c0.1,0.06,0.22,0.12,0.36,0.16
		c0.14,0.04,0.28,0.06,0.42,0.06c0.16,0,0.28-0.02,0.36-0.07c0.07-0.04,0.11-0.1,0.11-0.18c0-0.06-0.03-0.11-0.08-0.14
		s-0.12-0.06-0.2-0.07c-0.08-0.02-0.17-0.03-0.27-0.05s-0.2-0.03-0.3-0.06c-0.1-0.02-0.19-0.06-0.27-0.1
		c-0.08-0.05-0.15-0.11-0.2-0.19c-0.05-0.08-0.08-0.18-0.08-0.31c0-0.14,0.04-0.26,0.12-0.37s0.19-0.18,0.34-0.24
		c0.15-0.06,0.32-0.09,0.52-0.09c0.15,0,0.3,0.02,0.46,0.05c0.15,0.03,0.28,0.08,0.38,0.14l-0.2,0.4c-0.11-0.06-0.21-0.11-0.32-0.13
		c-0.11-0.02-0.21-0.04-0.32-0.04c-0.16,0-0.28,0.02-0.35,0.07c-0.08,0.05-0.12,0.11-0.12,0.18c0,0.07,0.03,0.12,0.08,0.15
		c0.05,0.03,0.12,0.06,0.2,0.08s0.17,0.04,0.27,0.05c0.1,0.01,0.2,0.03,0.29,0.06c0.1,0.02,0.19,0.06,0.27,0.1s0.15,0.1,0.2,0.18
		c0.05,0.08,0.08,0.18,0.08,0.3c0,0.14-0.04,0.26-0.12,0.36c-0.08,0.1-0.2,0.18-0.35,0.24C60.44,56.94,60.26,56.97,60.05,56.97z"/>
	<path class="st1" d="M62.56,56.97c-0.25,0-0.46-0.05-0.65-0.15c-0.18-0.1-0.33-0.23-0.43-0.41c-0.1-0.17-0.15-0.37-0.15-0.59
		c0-0.22,0.05-0.42,0.15-0.59s0.24-0.31,0.41-0.4c0.17-0.1,0.37-0.15,0.59-0.15c0.22,0,0.41,0.05,0.58,0.14
		c0.17,0.09,0.3,0.23,0.4,0.4c0.1,0.17,0.15,0.38,0.15,0.61c0,0.02,0,0.05,0,0.08c0,0.03,0,0.05-0.01,0.08h-1.86v-0.35h1.58
		l-0.21,0.11c0-0.13-0.02-0.24-0.08-0.34c-0.06-0.1-0.13-0.17-0.23-0.23s-0.21-0.08-0.33-0.08c-0.13,0-0.24,0.03-0.34,0.08
		c-0.1,0.06-0.17,0.13-0.23,0.23c-0.05,0.1-0.08,0.21-0.08,0.35v0.08c0,0.13,0.03,0.25,0.09,0.35c0.06,0.1,0.15,0.18,0.26,0.24
		c0.11,0.06,0.24,0.08,0.38,0.08c0.12,0,0.24-0.02,0.34-0.06c0.1-0.04,0.19-0.1,0.27-0.18l0.28,0.32c-0.1,0.12-0.23,0.21-0.38,0.27
		C62.92,56.94,62.75,56.97,62.56,56.97z"/>
</g>
<g>
	<path class="st1" d="M65.52,47.78l-0.09-0.05l-2.44-1.3l-2.55,1.32l0.02-0.1l0.48-2.73l-2.04-2.02l0.1-0.01l2.74-0.38l1.29-2.57
		l1.25,2.58l2.84,0.43l-0.07,0.07l-2,1.92L65.52,47.78z M62.99,46.31l0.02,0.01l2.38,1.27l-0.44-2.68l0.02-0.02l1.94-1.87
		l-2.69-0.41l-0.01-0.02l-1.18-2.42l-1.22,2.43l-0.03,0l-2.67,0.37l1.94,1.91l0,0.03l-0.47,2.65L62.99,46.31z"/>
</g>
<g>
	<polygon class="st1" points="29.43,47.69 26.97,46.37 24.49,47.66 24.98,44.9 22.99,42.94 25.75,42.56 27.01,40.06 28.23,42.57 
		30.99,42.99 28.98,44.93 	"/>
</g>
<g>
	<polygon class="st1" points="38.56,47.69 36.1,46.37 33.61,47.66 34.1,44.9 32.11,42.94 34.88,42.56 36.13,40.06 37.36,42.57 
		40.12,42.99 38.11,44.93 	"/>
</g>
<g>
	<polygon class="st1" points="47.69,47.69 45.22,46.37 42.74,47.66 43.23,44.9 41.24,42.94 44.01,42.56 45.26,40.06 46.48,42.57 
		49.25,42.99 47.23,44.93 	"/>
</g>
<g>
	<polygon class="st1" points="56.81,47.69 54.35,46.37 51.87,47.66 52.36,44.9 50.37,42.94 53.14,42.56 54.39,40.06 55.61,42.57 
		58.37,42.99 56.36,44.93 	"/>
</g>
<g>
	<polygon class="st1" points="63.03,40.04 62.99,46.37 60.5,47.66 60.98,44.9 59.01,42.94 61.78,42.56 	"/>
</g>
<g>
	<path class="st1" d="M67.01,52.67v1.6c0,0.17-0.14,0.32-0.31,0.32H66l-1.73,0.76l0.43-0.76h-1.06c-0.17,0-0.31-0.15-0.31-0.32v-1.6
		c0-0.18,0.14-0.32,0.31-0.32h3.06C66.87,52.35,67.01,52.49,67.01,52.67z"/>
</g>
</svg>
