<?xml version="1.0" encoding="utf-8"?>
<!-- Generator: Adobe Illustrator 27.6.1, SVG Export Plug-In . SVG Version: 6.00 Build 0)  -->
<svg version="1.1" id="Layer_1" xmlns="http://www.w3.org/2000/svg" xmlns:xlink="http://www.w3.org/1999/xlink" x="0px" y="0px"
	 viewBox="0 0 90 90" style="enable-background:new 0 0 90 90;" xml:space="preserve">
<style type="text/css">
	.st0{fill:#FFFFFF;}
	.st1{fill:#DCDFDC;}
	.st2{fill:none;stroke:#FCBC50;stroke-miterlimit:10;}
	.st3{fill:#F2F3F2;}
	.st4{fill:#FE583E;}
	.st5{fill:#FCFDFC;}
	.st6{fill:#FF492C;}
</style>
<g>
	<circle class="st0" cx="45" cy="43.45" r="38.7"/>
</g>
<g>
	<polygon class="st1" points="21.21,63.49 21.21,16.71 68.79,16.71 68.79,63.55 45.47,76.28 	"/>
</g>
<g>
	<polygon class="st0" points="66.79,18.71 66.79,62.36 45.46,74.01 23.21,62.28 23.21,18.71 	"/>
</g>
<g>
	<polygon class="st3" points="66.79,18.71 66.79,62.36 45.46,74.01 23.21,62.28 	"/>
</g>
<g>
	<polygon class="st4" points="73.51,54.97 20.12,54.97 16.77,50.23 20.05,45.5 73.24,45.5 76.17,50.23 	"/>
</g>
<g>
	<path d="M28.87,41.21v-6.59h1.53v5.35h3.31v1.24H28.87z"/>
	<path d="M36.93,41.28c-0.58,0-1.08-0.11-1.52-0.34s-0.77-0.54-1.01-0.93c-0.24-0.39-0.36-0.84-0.36-1.34
		c0-0.51,0.12-0.96,0.35-1.35s0.56-0.7,0.97-0.92c0.41-0.22,0.87-0.33,1.38-0.33c0.5,0,0.94,0.11,1.34,0.32s0.71,0.51,0.95,0.9
		s0.35,0.86,0.35,1.41c0,0.06,0,0.12-0.01,0.19s-0.01,0.14-0.02,0.2h-4.12v-0.86h3.34l-0.56,0.25c0-0.26-0.05-0.49-0.16-0.69
		c-0.11-0.19-0.25-0.35-0.44-0.46s-0.41-0.17-0.66-0.17s-0.47,0.06-0.66,0.17c-0.19,0.11-0.34,0.26-0.45,0.46
		c-0.11,0.2-0.16,0.43-0.16,0.7v0.23c0,0.28,0.06,0.52,0.18,0.73c0.12,0.21,0.29,0.37,0.52,0.48c0.22,0.11,0.48,0.17,0.79,0.17
		c0.27,0,0.51-0.04,0.71-0.12c0.2-0.08,0.39-0.2,0.56-0.37l0.78,0.85c-0.23,0.26-0.52,0.47-0.88,0.61
		C37.79,41.21,37.39,41.28,36.93,41.28z"/>
	<path d="M41.78,41.28c-0.4,0-0.73-0.07-1.02-0.2c-0.28-0.14-0.5-0.32-0.65-0.55s-0.23-0.49-0.23-0.78c0-0.3,0.07-0.56,0.22-0.79
		s0.38-0.4,0.7-0.53c0.32-0.13,0.74-0.19,1.25-0.19h1.35v0.86h-1.19c-0.35,0-0.58,0.06-0.71,0.17c-0.13,0.11-0.19,0.25-0.19,0.42
		c0,0.19,0.07,0.34,0.22,0.45s0.35,0.16,0.61,0.16c0.25,0,0.46-0.06,0.66-0.17s0.34-0.29,0.42-0.51l0.23,0.68
		c-0.11,0.33-0.3,0.57-0.58,0.74C42.59,41.2,42.23,41.28,41.78,41.28z M43.33,41.21v-0.99L43.23,40v-1.77c0-0.31-0.1-0.56-0.29-0.73
		c-0.19-0.18-0.49-0.26-0.88-0.26c-0.27,0-0.54,0.04-0.8,0.13c-0.26,0.08-0.48,0.2-0.66,0.34l-0.53-1.03c0.28-0.19,0.61-0.35,1-0.45
		c0.39-0.11,0.79-0.16,1.19-0.16c0.77,0,1.37,0.18,1.8,0.55c0.43,0.36,0.64,0.93,0.64,1.71v2.89H43.33z"/>
	<path d="M48.25,41.28c-0.48,0-0.91-0.11-1.29-0.32c-0.38-0.22-0.69-0.52-0.91-0.91c-0.22-0.39-0.33-0.85-0.33-1.38
		c0-0.53,0.11-1,0.33-1.38c0.22-0.39,0.53-0.69,0.91-0.9c0.38-0.21,0.81-0.32,1.29-0.32c0.43,0,0.8,0.09,1.12,0.28
		c0.32,0.19,0.57,0.47,0.75,0.86c0.18,0.38,0.26,0.87,0.26,1.47c0,0.59-0.08,1.08-0.25,1.46c-0.17,0.39-0.41,0.67-0.73,0.86
		C49.07,41.19,48.69,41.28,48.25,41.28z M48.5,40.08c0.24,0,0.46-0.06,0.65-0.17c0.2-0.11,0.35-0.27,0.47-0.48s0.17-0.46,0.17-0.75
		c0-0.3-0.06-0.55-0.17-0.75c-0.12-0.21-0.27-0.37-0.47-0.48c-0.19-0.11-0.41-0.17-0.65-0.17c-0.25,0-0.46,0.06-0.66,0.17
		c-0.19,0.11-0.35,0.27-0.47,0.48c-0.12,0.21-0.17,0.46-0.17,0.75c0,0.29,0.06,0.54,0.17,0.75s0.27,0.37,0.47,0.48
		C48.04,40.02,48.25,40.08,48.5,40.08z M49.83,41.21v-1.04l0.03-1.51l-0.09-1.5v-2.95h1.47v6.99H49.83z"/>
	<path d="M55.1,41.28c-0.58,0-1.08-0.11-1.52-0.34s-0.77-0.54-1.01-0.93c-0.24-0.39-0.36-0.84-0.36-1.34c0-0.51,0.12-0.96,0.35-1.35
		c0.24-0.39,0.56-0.7,0.97-0.92c0.41-0.22,0.87-0.33,1.38-0.33c0.5,0,0.94,0.11,1.34,0.32s0.71,0.51,0.95,0.9s0.35,0.86,0.35,1.41
		c0,0.06,0,0.12-0.01,0.19c-0.01,0.07-0.01,0.14-0.02,0.2h-4.12v-0.86h3.34l-0.57,0.25c0-0.26-0.05-0.49-0.16-0.69
		c-0.11-0.19-0.25-0.35-0.44-0.46s-0.41-0.17-0.66-0.17s-0.47,0.06-0.66,0.17s-0.34,0.26-0.45,0.46c-0.11,0.2-0.16,0.43-0.16,0.7
		v0.23c0,0.28,0.06,0.52,0.18,0.73c0.12,0.21,0.29,0.37,0.52,0.48c0.22,0.11,0.49,0.17,0.79,0.17c0.27,0,0.51-0.04,0.71-0.12
		s0.39-0.2,0.56-0.37l0.78,0.85c-0.23,0.26-0.52,0.47-0.88,0.61C55.97,41.21,55.56,41.28,55.1,41.28z"/>
	<path d="M58.53,41.21v-5.07h1.4v1.43l-0.2-0.41c0.15-0.36,0.39-0.63,0.73-0.81c0.33-0.19,0.74-0.28,1.22-0.28v1.36
		c-0.06-0.01-0.12-0.01-0.17-0.01c-0.05,0-0.1,0-0.16,0c-0.4,0-0.73,0.11-0.97,0.34C60.13,37.98,60,38.33,60,38.82v2.39H58.53z"/>
</g>
<g>
	<path class="st5" d="M31.83,52.28c-0.33,0-0.65-0.05-0.95-0.16s-0.54-0.25-0.71-0.42l0.19-0.36c0.16,0.15,0.37,0.28,0.63,0.39
		c0.27,0.1,0.55,0.16,0.84,0.16c0.28,0,0.51-0.04,0.69-0.11c0.18-0.07,0.31-0.17,0.39-0.28s0.12-0.25,0.12-0.4
		c0-0.17-0.05-0.31-0.15-0.42c-0.1-0.11-0.23-0.19-0.39-0.25s-0.34-0.12-0.54-0.16c-0.2-0.05-0.39-0.1-0.59-0.15
		c-0.2-0.05-0.38-0.12-0.54-0.21c-0.16-0.09-0.3-0.21-0.4-0.35c-0.1-0.15-0.15-0.34-0.15-0.58c0-0.22,0.06-0.42,0.18-0.61
		c0.12-0.18,0.3-0.33,0.54-0.45c0.24-0.11,0.55-0.17,0.93-0.17c0.25,0,0.5,0.04,0.75,0.1c0.25,0.07,0.46,0.17,0.64,0.29l-0.16,0.38
		c-0.19-0.13-0.39-0.22-0.61-0.28s-0.42-0.09-0.62-0.09c-0.27,0-0.49,0.04-0.66,0.11s-0.3,0.17-0.39,0.29
		c-0.08,0.12-0.12,0.26-0.12,0.41c0,0.17,0.05,0.31,0.15,0.42s0.23,0.19,0.4,0.25s0.34,0.11,0.54,0.16c0.2,0.05,0.39,0.1,0.58,0.15
		c0.19,0.06,0.37,0.13,0.54,0.21c0.16,0.09,0.3,0.2,0.4,0.35c0.1,0.14,0.15,0.33,0.15,0.57c0,0.22-0.06,0.42-0.18,0.6
		c-0.12,0.18-0.3,0.33-0.55,0.45C32.53,52.23,32.21,52.28,31.83,52.28z"/>
	<path class="st5" d="M36.32,52.28c-0.57,0-1.02-0.16-1.35-0.49c-0.33-0.33-0.49-0.81-0.49-1.45v-2.56h0.47v2.54
		c0,0.53,0.12,0.92,0.36,1.17c0.24,0.25,0.57,0.38,1.01,0.38c0.44,0,0.78-0.12,1.01-0.38c0.24-0.25,0.36-0.64,0.36-1.17v-2.54h0.46
		v2.56c0,0.64-0.16,1.13-0.49,1.45C37.34,52.12,36.89,52.28,36.32,52.28z"/>
	<path class="st5" d="M39.58,52.25v-4.47h0.39l2.04,3.48h-0.2l2.02-3.48h0.39v4.47h-0.45v-3.76h0.11l-1.86,3.19h-0.22l-1.88-3.19
		h0.12v3.76H39.58z"/>
	<path class="st5" d="M45.67,52.25v-4.47h0.39l2.04,3.48H47.9l2.02-3.48h0.39v4.47h-0.45v-3.76h0.11l-1.86,3.19h-0.22L46,48.49h0.12
		v3.76H45.67z"/>
	<path class="st5" d="M52.23,51.84h2.69v0.41h-3.16v-4.47h3.06v0.41h-2.59V51.84z M52.18,49.78h2.36v0.4h-2.36V49.78z"/>
	<path class="st5" d="M56.03,52.25v-4.47h1.67c0.38,0,0.71,0.06,0.98,0.18c0.27,0.12,0.48,0.3,0.63,0.52s0.22,0.5,0.22,0.83
		c0,0.31-0.07,0.59-0.22,0.81s-0.36,0.4-0.63,0.52c-0.27,0.12-0.6,0.18-0.98,0.18h-1.41l0.21-0.22v1.63H56.03z M56.5,50.65
		l-0.21-0.22h1.4c0.45,0,0.79-0.1,1.02-0.29c0.23-0.2,0.35-0.47,0.35-0.82c0-0.36-0.12-0.63-0.35-0.83
		c-0.23-0.2-0.57-0.29-1.02-0.29h-1.4l0.21-0.22V50.65z M59.08,52.25l-1.15-1.62h0.51l1.16,1.62H59.08z"/>
</g>
<g>
	<path d="M33.78,64v-0.99l2.54-2.4c0.2-0.18,0.35-0.34,0.44-0.49s0.16-0.28,0.19-0.4c0.03-0.12,0.05-0.23,0.05-0.33
		c0-0.26-0.09-0.47-0.27-0.61c-0.18-0.14-0.44-0.21-0.79-0.21c-0.28,0-0.53,0.05-0.77,0.16c-0.24,0.11-0.44,0.27-0.6,0.5l-1.11-0.72
		c0.25-0.38,0.6-0.68,1.06-0.9s0.97-0.33,1.56-0.33c0.49,0,0.92,0.08,1.29,0.24c0.37,0.16,0.65,0.38,0.86,0.67
		c0.2,0.29,0.31,0.63,0.31,1.04c0,0.21-0.03,0.43-0.08,0.64c-0.05,0.21-0.16,0.43-0.32,0.66s-0.39,0.49-0.7,0.78l-2.11,1.99
		l-0.29-0.56h3.72V64H33.78z"/>
	<path d="M42.23,64.11c-0.54,0-1.02-0.13-1.45-0.4c-0.43-0.27-0.76-0.65-1.01-1.16s-0.37-1.12-0.37-1.85c0-0.72,0.12-1.34,0.37-1.85
		s0.58-0.9,1.01-1.16c0.43-0.27,0.91-0.4,1.45-0.4c0.55,0,1.03,0.13,1.46,0.4c0.42,0.27,0.76,0.65,1,1.16
		c0.25,0.51,0.37,1.12,0.37,1.85c0,0.72-0.12,1.34-0.37,1.85c-0.24,0.51-0.58,0.9-1,1.16C43.26,63.98,42.77,64.11,42.23,64.11z
		 M42.23,62.82c0.26,0,0.48-0.07,0.67-0.22c0.19-0.14,0.34-0.37,0.45-0.69c0.11-0.31,0.17-0.72,0.17-1.21s-0.06-0.9-0.17-1.22
		c-0.11-0.31-0.26-0.54-0.45-0.69s-0.42-0.22-0.67-0.22c-0.25,0-0.47,0.07-0.66,0.22c-0.19,0.14-0.34,0.37-0.45,0.69
		C41,59.8,40.94,60.2,40.94,60.7s0.05,0.9,0.16,1.21c0.11,0.31,0.26,0.54,0.45,0.69C41.75,62.75,41.97,62.82,42.23,62.82z"/>
	<path d="M45.7,64v-0.99l2.54-2.4c0.2-0.18,0.35-0.34,0.44-0.49c0.09-0.14,0.16-0.28,0.19-0.4c0.04-0.12,0.05-0.23,0.05-0.33
		c0-0.26-0.09-0.47-0.27-0.61c-0.18-0.14-0.44-0.21-0.79-0.21c-0.28,0-0.53,0.05-0.77,0.16c-0.24,0.11-0.44,0.27-0.6,0.5l-1.11-0.72
		c0.25-0.38,0.6-0.68,1.05-0.9s0.97-0.33,1.56-0.33c0.49,0,0.92,0.08,1.29,0.24c0.37,0.16,0.65,0.38,0.86,0.67
		c0.2,0.29,0.31,0.63,0.31,1.04c0,0.21-0.03,0.43-0.08,0.64c-0.05,0.21-0.16,0.43-0.32,0.66s-0.39,0.49-0.7,0.78l-2.11,1.99
		l-0.29-0.56h3.72V64H45.7z"/>
	<path d="M53.46,64.11c-0.46,0-0.91-0.06-1.37-0.18c-0.45-0.12-0.83-0.3-1.15-0.52l0.59-1.17c0.25,0.18,0.54,0.33,0.88,0.43
		s0.67,0.16,1.01,0.16c0.38,0,0.68-0.08,0.9-0.23c0.22-0.15,0.33-0.36,0.33-0.62c0-0.25-0.1-0.45-0.29-0.59s-0.51-0.22-0.94-0.22
		h-0.7v-1.01l1.84-2.08l0.17,0.55h-3.46V57.4h4.62v0.99l-1.83,2.08l-0.77-0.44h0.44c0.81,0,1.42,0.18,1.84,0.55s0.62,0.83,0.62,1.4
		c0,0.37-0.1,0.72-0.29,1.04c-0.19,0.32-0.49,0.59-0.89,0.79C54.6,64.01,54.08,64.11,53.46,64.11z"/>
</g>
<g>
	<g>
		<polygon class="st6" points="49.9,21.98 46.49,23.88 43.08,21.93 43.08,16.71 49.9,16.71 		"/>
	</g>
	<g>
		<g>
			<path class="st0" d="M47.07,21c-0.2,0.16-0.45,0.25-0.73,0.25c-0.65,0-1.17-0.52-1.17-1.17c0-0.64,0.52-1.17,1.17-1.17
				c0.03,0,0.07,0,0.1,0.01l0.43-0.82c-0.17-0.04-0.35-0.07-0.53-0.07c-1.14,0-2.05,0.92-2.05,2.05c0,1.14,0.92,2.05,2.05,2.05
				c0.52,0,0.99-0.2,1.35-0.51L47.07,21z"/>
		</g>
	</g>
	<g>
		<polygon class="st0" points="46.33,20.67 47.37,20.67 47.82,21.51 48.37,20.67 47.84,19.81 46.86,19.81 		"/>
	</g>
	<g>
		<path class="st0" d="M47.26,19.01c0.07-0.06,0.13-0.13,0.18-0.2c0.05-0.07,0.07-0.13,0.07-0.19c0-0.04-0.01-0.07-0.03-0.09
			c-0.02-0.02-0.04-0.03-0.07-0.03c-0.03,0-0.06,0.01-0.08,0.04s-0.03,0.07-0.03,0.12h-0.33c0-0.1,0.03-0.19,0.07-0.25
			c0.04-0.07,0.1-0.12,0.16-0.15c0.07-0.03,0.14-0.05,0.22-0.05c0.14,0,0.25,0.04,0.32,0.11s0.1,0.16,0.1,0.27
			c0,0.12-0.04,0.23-0.12,0.34s-0.18,0.2-0.3,0.28h0.43v0.28h-0.88v-0.25C47.1,19.15,47.19,19.07,47.26,19.01z"/>
	</g>
</g>
</svg>
