<svg width="500" height="100" viewBox="0 0 500 100" fill="none" xmlns="http://www.w3.org/2000/svg">
<rect width="500" height="100" fill="white"/>
<path d="M343.098 27.7282C340.831 25.3616 338.431 22.9916 336.031 20.7513C338.431 18.5774 340.831 16.274 343.098 13.9672C345.564 16.018 348.031 18.3215 350.364 20.7513C348.031 23.3107 345.564 25.6807 343.098 27.7282ZM193.768 40.6549L211.035 29.583C215.3 34.3195 218.966 39.1824 222.367 44.3046L204.102 56.8491V61.3929C207.366 63.2476 211.966 65.1024 215.702 66.1926L221.034 61.8416L221.366 62.6061L209.566 72.4649C203.434 71.1187 198.434 69.0711 193.768 66.5117V40.6549ZM204.102 55.822L213.302 49.4234C210.567 45.2619 207.565 41.0405 204.102 37.5836V55.822ZM223.769 40.6549L241.034 29.583C245.298 34.3195 248.968 39.1824 252.368 44.3046L234.1 56.8491V61.3929C237.367 63.2476 241.968 65.1024 245.7 66.1926L251.032 61.8416L251.368 62.6061L239.568 72.4649C233.435 71.1187 228.433 69.0711 223.769 66.5117V40.6549ZM234.1 55.822L243.301 49.4234C240.568 45.2619 237.567 41.0405 234.1 37.5836V55.822ZM342.965 29.7758C345.431 32.0792 347.698 34.5755 349.43 37.5836V63.374C351.165 64.5273 353.03 65.4248 355.5 66.1926L348.499 72.4649C345.631 71.2483 340.499 68.4329 338.966 66.638V40.399C338.165 38.9265 336.301 37.3908 334.366 35.4065L342.965 29.7758ZM412.166 40.6549L429.43 29.583C433.698 34.3195 437.364 39.1824 440.765 44.3046L422.496 56.8491V61.3929C425.764 63.2476 430.364 65.1024 434.097 66.1926L439.432 61.8416L439.764 62.6061L427.964 72.4649C421.832 71.1187 416.833 69.0711 412.166 66.5117V40.6549ZM422.496 55.822L431.697 49.4866C428.965 45.3284 425.963 41.0405 422.496 37.5836V55.822ZM314.034 63.7595C317.032 63.7595 319.166 63.1845 320.033 62.9917V23.6963C318.567 23.6963 316.633 23.3107 315.765 23.3107V44.7533C315.765 54.991 304.634 58.4479 301.699 60.1132C305.099 62.1607 309.364 63.7595 314.034 63.7595ZM301.233 59.6644C303.164 57.8728 305.099 54.5423 305.099 49.4234V21.0072C304.431 20.8177 303.164 20.625 302.766 20.4322V49.4234C302.766 55.1838 300.834 57.4241 299.767 58.6407C300.166 58.8966 300.834 59.4717 301.233 59.6644ZM337.966 11.6005C337.766 13.0099 336.031 23.6963 323.231 23.6963H320.898V62.7357C327.499 60.6882 333.033 55.3766 335.433 48.0174H335.832C334.765 61.712 323.434 72.4017 309.566 72.4017C294.632 72.4017 283.5 61.3264 283.5 46.1594C283.5 36.1111 288.832 26.9604 296.965 22.6725L297.165 22.8621C293.365 27.1532 291.232 32.6577 291.232 39.1825C291.232 47.376 294.432 53.9673 299.299 58.2552C300.366 56.8492 301.898 54.3529 301.898 49.2307V20.2395C301.433 20.2395 299.767 19.7941 297.833 19.7941C292.501 19.7941 288.034 21.2632 283.965 25.5511L283.633 25.4878C284.899 16.6562 291.434 10.3839 303.164 10.3839C313.831 10.3839 319.365 14.2895 327.698 14.2895C333.299 14.2895 336.5 12.2386 337.567 11.4077L337.966 11.6005ZM473.229 33.2326L461.699 46.5416C463.763 47.3759 468.031 49.6162 470.298 51.2782V66.1926L457.963 72.6577C455.899 70.6733 443.431 68.3033 438.564 72.465L437.963 71.9531L449.563 57.7434C447.429 56.5933 445.432 55.9518 442.633 55.5695V37.5838L456.364 29.5831C459.296 32.3353 469.031 35.4066 472.428 32.7209L473.229 33.2326ZM468.097 37.8396C464.165 40.0799 455.164 39.5048 453.03 37.5837V47.6319C454.629 48.0174 456.962 48.6556 458.029 49.1675L468.097 37.8396ZM459.897 56.8491C458.963 56.0148 455.031 54.9278 453.628 54.5423L444.029 66.1926C448.629 63.3739 455.496 62.0942 459.897 64.3345V56.8491ZM356.965 40.399C355.832 38.6074 354.363 37.0086 352.897 35.5361L360.831 29.583C363.231 32.0792 365.631 34.8314 367.432 37.5836L379.365 29.583C381.832 32.0792 384.231 34.5755 386.033 37.5836L398.029 29.583C400.366 31.9529 402.699 34.3827 404.697 37.5836V63.374C406.1 64.2714 408.23 65.3583 410.697 66.1926L403.696 72.4649C398.767 70.0317 395.433 68.1105 394.23 66.5749V41.6787C393.698 39.8871 391.431 37.7764 389.433 36.3039L386.033 38.6074V63.374C387.23 64.2082 388.699 65.2951 391.032 66.1926L385.033 72.4649C381.433 70.9292 376.965 68.3033 375.5 66.638V41.6787C374.964 39.6943 372.565 37.5205 370.766 36.3039L367.432 38.6074V63.374C368.566 64.2082 370.696 65.5511 372.565 66.1926L366.565 72.4649C363.098 70.9292 359.432 69.008 356.965 66.638V40.399ZM175.769 22.9916C175.769 20.7513 175.3 17.8728 172.966 15.8252L173.169 15.4397C175.702 16.2075 177.836 18.7037 178.501 20.5585C180.166 14.9942 185.9 12.6243 191.168 12.6243C191.966 12.6243 192.701 12.6876 193.435 12.817V13.0729C189.167 14.0966 186.236 16.8488 186.236 23.8224V63.3738C187.366 64.208 190.168 65.5509 192.302 66.1924L185.302 72.4647C180.967 70.4803 177.633 68.4959 175.769 66.6378V22.9916ZM139.903 40.6549L156.769 29.583C161.436 31.9529 165.434 34.3827 168.303 36.7526V63.374C169.569 64.401 173.236 65.9367 174.369 66.1926L167.369 72.4649C163.703 70.8627 159.435 68.3664 157.836 66.638L150.367 72.4017C146.634 71.1187 143.101 69.1343 139.903 66.638V40.6549ZM131.504 72.4649C128.17 71.5674 124.57 69.2008 121.968 66.638V41.6787C121.303 39.5048 119.97 37.7764 117.902 36.1111L114.502 38.6074V63.374C116.101 64.5905 118.368 65.488 120.502 66.1926L113.568 72.4649C110.304 70.9924 106.767 69.3271 104.035 66.638L95.7019 72.4649C91.5703 71.6306 82.5026 65.5511 80.1027 62.0311C76.237 65.1024 72.1685 68.9448 68.3028 72.4017C65.1019 70.3508 59.5709 67.6618 50.3703 67.6618C39.1687 67.6618 27.638 73.2958 27.638 80.4622C27.638 85.1988 31.035 86.6713 35.303 86.6713C35.6353 86.9272 35.436 87.5688 35.1036 87.6319C29.5692 87.6319 26.7705 84.5573 26.7705 80.2727C26.7705 68.1737 43.8355 58.8966 53.7042 58.8966C55.2366 57.1682 56.6359 54.16 56.6359 47.8213V29.9685C56.6359 27.0867 57.437 25.8701 57.9024 25.4879C57.703 25.8701 57.5035 26.8972 57.5035 30.1613V48.3997C57.5035 54.16 56.0376 57.1682 54.5684 58.8966C55.0371 58.7672 56.1706 58.7039 56.9018 58.7039C59.5709 55.8221 59.5709 51.0889 59.5709 47.376V29.5831C59.5709 23.6333 61.7049 21.3929 65.5706 17.6801L68.1699 15.1838H67.9039C63.2371 18.5144 59.368 21.137 53.4349 21.137C48.5022 21.137 44.437 19.0895 39.9696 19.0895C36.5693 19.0895 34.6381 20.7514 33.97 21.137C35.9045 17.8729 41.0366 10.5138 48.901 10.5138C54.904 10.5138 57.7028 12.9435 63.4365 12.9435C66.6375 12.9435 69.6356 12.4948 72.1685 11.2816L72.4376 11.5375C70.9019 14.1601 70.0377 17.6801 70.0377 22.4167V34.4493L86.3017 11.3447C88.2362 12.3685 90.3701 13.7778 93.9699 13.7778C98.434 13.7778 100.302 12.4316 101.834 11.6007L102.103 11.7269C101.236 14.6088 96.7686 21.5823 89.7019 21.5823C85.8362 21.5823 82.9045 19.9836 81.7012 19.2789L73.9033 30.3542C77.0378 32.4649 81.2359 36.1112 83.9682 38.6075C83.9682 38.6075 84.8357 43.025 86.9032 49.1011C87.7009 51.4079 89.569 57.8064 91.1013 59.7908C92.9693 62.1608 96.835 65.744 104.035 65.744V22.7989C104.035 18.8966 102.768 17.0419 101.502 15.8253V15.4397C102.968 15.8253 105.77 17.4906 107.036 20.5586C108.037 16.5932 112.567 12.6244 119.704 12.6244C120.235 12.6244 120.767 12.6877 121.768 12.754V13.1363C117.3 13.9673 114.502 17.2347 114.502 24.0155V37.5837L125.969 29.5831C128.768 32.0793 131.234 35.4731 132.434 37.5837V63.3741C134.169 64.5274 136.503 65.6143 138.5 66.1927L131.504 72.4649ZM254.968 40.399C254.167 38.993 252.033 37.0717 250.367 35.4065L258.966 29.7758C261.366 32.0161 263.567 34.5123 265.435 37.5836V76.1112C254.565 76.1112 249.433 89.6163 230.833 89.6163C219.967 89.6163 214.436 84.6869 214.436 78.7371C214.436 74.0637 218.7 70.5436 223.832 70.5436C229.566 70.5436 232.368 73.2327 233.834 75.2802L233.435 75.4695C232.568 74.6385 231.301 73.6147 228.901 73.6147C226.365 73.6147 224.035 75.4695 224.035 78.3513C224.035 82.8319 229.367 86.7342 236.836 86.7342C243.899 86.7342 254.968 82.0641 254.968 72.591V40.399ZM150.367 63.3108C151.102 64.6536 154.236 66.3189 156.769 66.3189C157.101 66.3189 157.5 66.2557 157.836 66.1924V41.6785C156.433 40.4653 153.834 38.3513 150.367 37.7762V63.3108ZM75.5689 64.6536L79.7039 61.2001C77.6364 55.6957 75.9013 50.64 74.5684 45.0093C73.7042 43.919 71.4373 41.6155 70.0379 40.6549V44.1118C70.0379 51.471 66.7705 55.822 59.3017 58.8966C69.7687 59.2788 74.0366 63.5667 75.5689 64.6536ZM259.166 27.7282C256.902 25.3616 254.499 22.9916 252.099 20.7513C254.499 18.5774 256.902 16.274 259.166 13.9672C261.632 16.018 264.102 18.3215 266.432 20.7513C264.102 23.3107 261.632 25.6807 259.166 27.7282Z" fill="#211E1E"/>
</svg>
