<svg width="500" height="100" viewBox="0 0 500 100" fill="none" xmlns="http://www.w3.org/2000/svg">
<g clip-path="url(#clip0_29_13)">
<rect width="500" height="100" fill="white"/>
<path d="M44.7643 88.3685V7.02616H63.0083L71.1425 65.2441H71.3749L79.5091 7.02616H97.7531V88.3685H85.6679V26.7807H85.4355L76.1393 88.3685H65.4485L56.1523 26.7807H55.9199V88.3685H44.7643ZM107.292 88.3685V7.02616H142.153V18.6465H120.074V40.1441H137.621V51.7645H120.074V76.7482H142.153V88.3685H107.292ZM149.506 88.3685V7.02616H169.028C181.811 7.02616 188.086 14.1146 188.086 27.1293V68.2653C188.086 81.2801 181.811 88.3685 169.028 88.3685H149.506ZM162.289 76.7482H168.796C172.863 76.7482 175.303 74.6565 175.303 68.8464V26.5483C175.303 20.7382 172.863 18.6465 168.796 18.6465H162.289V76.7482ZM196.714 88.3685V7.02616H209.496V88.3685H196.714ZM215.7 88.3685L228.947 7.02616H246.261L259.508 88.3685H246.726L244.402 72.2163V72.4487H229.876L227.552 88.3685H215.7ZM231.387 61.4093H242.891L237.197 21.203H236.965L231.387 61.4093Z" fill="#236393"/>
<path d="M265.71 88.3685V7.02616H284.999C298.247 7.02616 303.941 13.1849 303.941 25.7349V28.9886C303.941 37.3552 301.384 42.5844 295.69 44.9085V45.1409C302.546 47.4649 305.219 53.5075 305.219 62.1066V69.0788C305.219 81.6287 298.595 88.3685 285.813 88.3685H265.71ZM278.492 40.1441H283.489C288.253 40.1441 291.158 38.0525 291.158 31.5451V27.0131C291.158 21.203 289.183 18.6465 284.651 18.6465H278.492V40.1441ZM278.492 76.7482H285.813C290.112 76.7482 292.436 74.7727 292.436 68.7302V61.6418C292.436 54.0885 289.996 51.7645 284.186 51.7645H278.492V76.7482ZM312.69 88.3685V7.02616H331.631C344.879 7.02616 350.573 13.1849 350.573 25.7349V30.7317C350.573 39.0983 347.9 44.4437 342.206 46.7677V47.0001C348.597 48.9756 350.689 55.0182 350.689 64.1982V78.4912C350.689 82.4422 350.805 85.3472 352.083 88.3685H339.068C338.371 86.2769 337.906 84.9986 337.906 78.375V63.501C337.906 55.9478 335.699 53.5075 329.888 53.5075H325.473V88.3685H312.69ZM325.473 41.8872H330.121C334.885 41.8872 337.79 39.7955 337.79 33.2881V27.0131C337.79 21.203 335.815 18.6465 331.283 18.6465H325.473V41.8872ZM359.557 88.3685V7.02616H372.34V88.3685H359.557ZM381.913 88.3685V7.02616H416.774V18.6465H394.695V40.1441H412.242V51.7645H394.695V76.7482H416.774V88.3685H381.913ZM424.127 88.3685V7.02616H457.943V18.6465H436.91V41.3062H453.411V52.9265H436.91V88.3685H424.127Z" fill="#A5A5A5"/>
</g>
<defs>
<clipPath id="clip0_29_13">
<rect width="500" height="100" fill="white"/>
</clipPath>
</defs>
</svg>
