<svg width="68" height="41" viewBox="0 0 68 41" fill="none" xmlns="http://www.w3.org/2000/svg">
<mask id="mask0_180_8618" style="mask-type:luminance" maskUnits="userSpaceOnUse" x="22" y="0" width="24" height="23">
<path d="M22.8564 0.931152H45.4725V22.1256H22.8564V0.931152Z" fill="white"/>
</mask>
<g mask="url(#mask0_180_8618)">
<path d="M24.2227 10.8818C24.2227 5.4125 28.6559 0.979248 34.1172 0.979248C39.5784 0.979248 44.0117 5.4125 44.0117 10.8818C44.0117 16.3591 39.5784 20.7923 34.1172 20.7923C28.6559 20.7923 24.2227 16.3591 24.2227 10.8818Z" fill="#7BADAA"/>
</g>
<mask id="mask1_180_8618" style="mask-type:luminance" maskUnits="userSpaceOnUse" x="16" y="20" width="36" height="21">
<path d="M16.9219 20.23H51.4161V40.9667H16.9219V20.23Z" fill="white"/>
</mask>
<g mask="url(#mask1_180_8618)">
<path d="M51.1185 35.5455L49.713 30.1003C48.5646 25.6671 45.4565 22.1414 41.4649 20.3665C39.4411 21.9486 36.8871 22.8963 34.1163 22.8963C31.3456 22.8963 28.7916 21.9486 26.7677 20.3665C22.7762 22.1414 19.6681 25.6671 18.5196 30.1003L17.1142 35.5455C16.3994 38.2922 18.4634 40.9666 21.2985 40.9666H46.9342C49.7692 40.9666 51.8333 38.2922 51.1185 35.5455Z" fill="#7BADAA"/>
</g>
<path d="M6.24902 9.61288C6.24902 5.23585 9.79081 1.68604 14.1678 1.68604C18.5449 1.68604 22.0867 5.23585 22.0867 9.61288C22.0867 13.9979 18.5449 17.5478 14.1678 17.5478C9.79081 17.5478 6.24902 13.9979 6.24902 9.61288Z" fill="#7BADAA"/>
<path d="M16.7055 30.0281C17.8058 25.7876 20.432 22.2538 23.9015 19.9649C22.8173 18.8004 21.5082 17.8527 20.0546 17.2021C18.4242 18.4711 16.3843 19.226 14.1677 19.226C11.951 19.226 9.91109 18.4711 8.28075 17.2021C5.09234 18.6237 2.60265 21.4426 1.68709 25.0005L0.554684 29.3615C-0.0155353 31.554 1.6389 33.6903 3.90371 33.6903H15.7578L16.7055 30.0281Z" fill="#7BADAA"/>
<path d="M62.0329 9.61288C62.0329 5.23585 58.4912 1.68604 54.1141 1.68604C49.7371 1.68604 46.1953 5.23585 46.1953 9.61288C46.1953 13.9979 49.7371 17.5478 54.1141 17.5478C58.4912 17.5478 62.0329 13.9979 62.0329 9.61288Z" fill="#7BADAA"/>
<mask id="mask2_180_8618" style="mask-type:luminance" maskUnits="userSpaceOnUse" x="44" y="17" width="24" height="17">
<path d="M44.3818 17.1299H67.8251V33.8028H44.3818V17.1299Z" fill="white"/>
</mask>
<g mask="url(#mask2_180_8618)">
<path d="M51.5778 30.0281C50.4776 25.7876 47.8513 22.2538 44.3818 19.9649C45.4661 18.8004 46.7751 17.8527 48.2288 17.2021C49.8591 18.4711 51.8991 19.226 54.1157 19.226C56.3323 19.226 58.3723 18.4711 60.0026 17.2021C63.191 18.6237 65.6807 21.4426 66.5963 25.0005L67.7287 29.3615C68.2989 31.554 66.6445 33.6903 64.3797 33.6903H52.5255L51.5778 30.0281Z" fill="#7BADAA"/>
</g>
</svg>
