<svg width="67" height="67" viewBox="0 0 67 67" fill="none" xmlns="http://www.w3.org/2000/svg">
<mask id="mask0_1045_654" style="mask-type:luminance" maskUnits="userSpaceOnUse" x="16" y="10" width="34" height="47">
<path d="M16.9443 10.3533H49.8634V56.44H16.9443V10.3533Z" fill="white"/>
</mask>
<g mask="url(#mask0_1045_654)">
<path d="M42.0618 22.4978C38.2842 16.6226 34.4493 11.6962 34.415 11.6448L33.4092 10.3589L32.4033 11.6448C32.3633 11.6962 28.5285 16.6226 24.7508 22.4978C19.8815 30.0703 17.2754 35.7854 16.9954 39.5059C16.9839 39.6659 16.9725 39.8203 16.9725 39.9688C16.9668 40.0317 16.9668 40.0946 16.9668 40.1574C16.9668 40.3861 16.9725 40.6089 16.9839 40.8375C16.9897 40.969 16.9954 41.1062 17.0011 41.2376C17.0354 41.6834 17.0811 42.1292 17.1497 42.5692C17.184 42.8035 17.224 43.0379 17.2697 43.2665C17.8012 46.004 19.0357 48.4958 20.7616 50.5532C21.1274 50.9876 21.5103 51.3991 21.9161 51.7934C24.8822 54.6681 28.94 56.4455 33.4092 56.4455C39.5929 56.4455 44.988 53.045 47.7941 48.0329C48.0627 47.5585 48.3028 47.067 48.5199 46.5641C48.8 45.9183 49.04 45.2496 49.24 44.5581C49.2972 44.3466 49.3543 44.1294 49.4058 43.9123C49.4972 43.5294 49.5772 43.1465 49.6401 42.7578C49.6744 42.5464 49.703 42.3406 49.7258 42.1292C49.8058 41.4834 49.8458 40.8261 49.8458 40.1574C49.8458 36.4769 47.2283 30.5332 42.0618 22.4978ZM19.51 40.3118C20.1044 40.4032 20.6988 40.5061 21.2874 40.6204C22.1218 40.769 22.9448 40.9633 23.7735 41.1462C24.185 41.2376 24.5908 41.3462 25.0022 41.4491L25.2823 41.5176L25.6138 41.6034L26.071 41.7291L26.2253 41.7748C27.7284 42.1806 29.2143 42.6549 30.6773 43.1693C30.7974 43.2093 30.9117 43.255 31.0317 43.295C31.426 43.4379 31.8204 43.5751 32.2147 43.7294L32.7977 43.9523L33.3863 44.1809C33.9235 44.3981 34.455 44.6095 34.9923 44.8324L34.4436 44.9981C33.6206 45.2553 32.7977 45.5125 31.9804 45.7925C31.6946 45.8897 31.4089 45.9869 31.1231 46.0897C29.8201 45.4268 28.4999 44.7924 27.1511 44.2152L26.5625 43.958L26.551 43.9523L25.9681 43.718C25.7395 43.6208 25.5109 43.5294 25.2823 43.4379C25.1165 43.3693 24.9451 43.3008 24.7794 43.2379C23.9792 42.9407 23.1791 42.6321 22.3619 42.3692C21.4417 42.0491 20.5102 41.7577 19.5729 41.4948C19.5386 41.1062 19.5157 40.7118 19.51 40.3118ZM41.8675 43.1465C41.8275 43.1579 41.7875 43.1636 41.7418 43.175C40.6216 43.3865 39.5072 43.638 38.3985 43.9123C37.7755 43.6837 37.1526 43.4608 36.5296 43.2493C36.4553 43.2207 36.3753 43.1979 36.301 43.175C35.7238 42.975 35.1409 42.7921 34.5579 42.6035C34.5808 42.5521 34.6151 42.4949 34.6494 42.4378C35.1637 41.5634 36.0038 40.9518 37.1411 40.6089C37.6726 40.849 38.2556 40.8661 38.7528 40.6089C39.3129 40.3175 39.6501 39.7345 39.7072 39.0601C39.1186 38.723 38.4442 38.6601 37.8784 38.9516C37.3926 39.1973 37.084 39.6602 36.964 40.2089C36.3467 40.4032 35.8095 40.6718 35.3523 41.0147C34.9008 41.3576 34.535 41.7691 34.2607 42.2435C34.2321 42.2835 34.2093 42.3235 34.1921 42.3635V38.8315C34.6379 38.4715 34.918 37.9743 34.918 37.4313C34.918 37.3685 34.9122 37.3113 34.9065 37.2485C34.8665 36.6655 34.5065 36.1454 33.9693 35.8082C33.392 36.1683 33.0205 36.7284 33.0205 37.3628C33.0205 37.4256 33.0263 37.4828 33.032 37.5456C33.0663 38.0429 33.3349 38.4944 33.7464 38.8258V42.3578L33.7006 42.3463C33.6949 42.3349 33.6892 42.3235 33.6778 42.3063C33.4035 41.8377 33.0377 41.4262 32.5862 41.0833C32.129 40.7404 31.5918 40.4718 30.9745 40.2775C30.8545 39.7288 30.5459 39.2659 30.0601 39.0144C29.4943 38.7287 28.8257 38.7915 28.2313 39.1287C28.2941 39.8031 28.6256 40.3861 29.1914 40.6775C29.6829 40.9347 30.2659 40.9176 30.7974 40.6775C31.7804 40.969 32.5348 41.4662 33.0548 42.152L32.8262 42.0892C32.4147 41.9634 31.9918 41.8605 31.5803 41.7462C29.9115 41.3005 28.2313 40.9004 26.5396 40.5861L26.071 40.4946V34.0537L28.357 29.0644L33.9693 25.4182L39.5872 29.0644L41.8675 34.0537V43.1465ZM20.0815 44.078C19.8986 43.4551 19.7501 42.815 19.6586 42.1577C20.4587 42.4606 21.2531 42.7864 22.0361 43.1236C22.8076 43.4493 23.562 43.8151 24.3221 44.1695C24.6993 44.3466 25.0708 44.5409 25.448 44.7295L26.0081 45.0096L26.5568 45.3068C27.454 45.7811 28.3342 46.2783 29.1971 46.7984C28.5113 47.0613 27.8255 47.3299 27.1454 47.61C26.8482 47.73 26.5568 47.85 26.2653 47.9757C25.7223 47.5871 25.168 47.2042 24.6136 46.8327L24.0821 46.4784L23.5449 46.1355C23.1906 45.9126 22.8362 45.6782 22.4704 45.4554C21.7389 45.0267 21.0188 44.5809 20.2701 44.1809C20.2073 44.1409 20.1444 44.1066 20.0815 44.078ZM23.1105 49.3931C22.0361 48.2215 21.1617 46.8613 20.5445 45.3696C20.9788 45.6725 21.4074 45.9811 21.8418 46.2898C22.1733 46.5355 22.5047 46.787 22.8305 47.0384L23.3277 47.4156L23.8078 47.7985C24.1507 48.0672 24.4822 48.3358 24.8079 48.6101C24.2421 48.8673 23.6763 49.1302 23.1105 49.3931ZM43.4163 49.696C42.4333 50.3646 41.4732 51.0676 40.5302 51.7934C40.2787 51.982 40.0387 52.1706 39.793 52.3592C39.7644 52.3821 39.7358 52.4049 39.7072 52.4278C37.8155 53.3879 35.6724 53.9251 33.4092 53.9251C33.1234 53.9251 32.8434 53.9137 32.5633 53.8966C32.7348 53.7708 32.9005 53.6451 33.072 53.5194C33.2263 53.4051 33.3863 53.2851 33.5463 53.1708C34.2093 52.6793 34.8894 52.2049 35.5638 51.7305L36.0267 51.4219L36.5982 51.039C36.9411 50.8104 37.2954 50.5932 37.6384 50.3703C37.7755 50.2846 37.9127 50.1989 38.0498 50.1132C39.2214 49.3759 40.4216 48.673 41.6446 48.0157C41.7475 47.9586 41.8504 47.9071 41.9475 47.85L42.5019 47.5528L43.062 47.2728C43.4335 47.0842 43.805 46.8898 44.1879 46.7127C44.3365 46.6384 44.4908 46.5698 44.6451 46.4955C45.1137 46.2726 45.5824 46.0554 46.0624 45.844C45.4052 47.2785 44.5079 48.5815 43.4163 49.696ZM46.4911 44.7924C46.3768 44.8324 46.2625 44.8724 46.1424 44.9124C45.3309 45.1753 44.5308 45.4839 43.7307 45.7811C43.6106 45.8268 43.4906 45.8726 43.3763 45.924C43.0963 46.0326 42.8162 46.1469 42.5362 46.2612L41.9475 46.5012L41.3589 46.7584C40.976 46.9241 40.5931 47.0899 40.2102 47.267C39.0328 47.7985 37.8727 48.3758 36.7297 48.9759C36.6439 49.0216 36.5582 49.0673 36.4725 49.113C36.181 49.2616 35.8895 49.4159 35.6038 49.576L34.4836 50.1989C34.4665 50.2103 34.4436 50.2218 34.4265 50.2332C33.7064 50.6447 32.9863 51.0676 32.2833 51.5019C31.9918 51.6791 31.7004 51.862 31.4146 52.0449C30.8431 52.4049 30.283 52.7707 29.7229 53.1422C29.6201 53.2108 29.5172 53.2793 29.42 53.3422C27.9512 52.9136 26.5853 52.2449 25.368 51.3819C25.8995 51.079 26.4367 50.7876 26.974 50.5018C27.4083 50.2675 27.8484 50.0389 28.2884 49.816C28.3742 49.7703 28.4599 49.7245 28.5513 49.6845C29.5343 49.1873 30.5288 48.7073 31.5403 48.25C31.9575 48.0557 32.3805 47.8728 32.8091 47.6842C33.0491 47.5814 33.2834 47.4785 33.5292 47.3756C34.055 47.1527 34.5922 46.9413 35.1237 46.7241L36.2953 46.2726C36.6496 46.1355 37.004 46.0097 37.3583 45.884C37.3983 45.8726 37.4383 45.8554 37.4783 45.8383C38.5356 45.4668 39.5986 45.1124 40.6731 44.781C41.2103 44.6209 41.7418 44.4666 42.2847 44.318L42.8905 44.1466L43.5078 43.9923C43.9135 43.8951 44.325 43.7865 44.7365 43.6894C45.4738 43.5294 46.2167 43.3522 46.9597 43.215C46.834 43.7523 46.6797 44.2838 46.4911 44.7924ZM47.1312 42.352C47.114 42.3578 47.0969 42.3578 47.0797 42.3578C46.2225 42.4435 45.3709 42.5692 44.5193 42.6892C44.0907 42.7521 43.6678 42.8264 43.2449 42.895L42.6562 42.9921V33.8823L40.2102 28.5329L33.9693 24.4809L27.7284 28.5329L25.2823 33.8823V40.3575L25.2651 40.3518C24.8422 40.2832 24.4136 40.2089 23.9907 40.1403C23.1334 40.026 22.2819 39.8946 21.4246 39.8145C20.7959 39.746 20.1615 39.6831 19.5329 39.6374C20.0244 33.425 28.8885 20.4975 33.4092 14.4966C38.0613 20.6746 47.3083 34.1737 47.3083 40.1574C47.3083 40.9061 47.2455 41.6377 47.1312 42.352Z" fill="black"/>
</g>
</svg>
