<svg width="50" height="50" viewBox="0 0 50 50" fill="none" xmlns="http://www.w3.org/2000/svg">
<mask id="mask0_205_1322" style="mask-type:luminance" maskUnits="userSpaceOnUse" x="8" y="1" width="34" height="48">
<path d="M8.53906 1.95703H41.4581V48.0437H8.53906V1.95703Z" fill="white"/>
</mask>
<g mask="url(#mask0_205_1322)">
<path d="M33.6576 14.1013C29.8799 8.22616 26.045 3.29974 26.0107 3.2483L25.0049 1.9624L23.999 3.2483C23.959 3.29974 20.1242 8.22616 16.3465 14.1013C11.4772 21.6738 8.87112 27.3889 8.59108 31.1095C8.57965 31.2695 8.56822 31.4238 8.56822 31.5724C8.5625 31.6353 8.5625 31.6981 8.5625 31.761C8.5625 31.9896 8.56821 32.2125 8.57965 32.4411C8.58536 32.5725 8.59107 32.7097 8.59679 32.8411C8.63108 33.2869 8.6768 33.7327 8.74538 34.1728C8.77967 34.4071 8.81968 34.6414 8.8654 34.87C9.39691 37.6076 10.6314 40.0993 12.3573 42.1568C12.7231 42.5911 13.106 43.0026 13.5118 43.397C16.4779 46.2717 20.5357 48.0491 25.0049 48.0491C31.1886 48.0491 36.5837 44.6486 39.3898 39.6364C39.6584 39.1621 39.8985 38.6706 40.1156 38.1676C40.3957 37.5218 40.6357 36.8532 40.8357 36.1616C40.8929 35.9502 40.95 35.733 41.0015 35.5158C41.0929 35.1329 41.1729 34.75 41.2358 34.3614C41.2701 34.1499 41.2987 33.9442 41.3215 33.7327C41.4015 33.0869 41.4415 32.4297 41.4415 31.761C41.4415 28.0805 38.824 22.1367 33.6576 14.1013ZM11.1057 31.9153C11.7001 32.0067 12.2945 32.1096 12.8831 32.2239C13.7175 32.3725 14.5405 32.5668 15.3692 32.7497C15.7807 32.8411 16.1865 32.9497 16.5979 33.0526L16.878 33.1212L17.2095 33.2069L17.6667 33.3326L17.821 33.3784C19.3241 33.7841 20.81 34.2585 22.2731 34.7729C22.3931 34.8129 22.5074 34.8586 22.6274 34.8986C23.0217 35.0415 23.4161 35.1786 23.8104 35.3329L24.3934 35.5558L24.982 35.7844C25.5192 36.0016 26.0507 36.2131 26.588 36.436L26.0393 36.6017C25.2163 36.8589 24.3934 37.1161 23.5761 37.3961C23.2903 37.4932 23.0046 37.5904 22.7188 37.6933C21.4158 37.0303 20.0956 36.3959 18.7468 35.8187L18.1582 35.5615L18.1467 35.5558L17.5638 35.3215C17.3352 35.2244 17.1066 35.1329 16.878 35.0415C16.7122 34.9729 16.5408 34.9043 16.3751 34.8414C15.5749 34.5443 14.7748 34.2356 13.9576 33.9727C13.0374 33.6527 12.1059 33.3612 11.1686 33.0983C11.1343 32.7097 11.1114 32.3154 11.1057 31.9153ZM33.4632 34.75C33.4232 34.7614 33.3832 34.7671 33.3375 34.7786C32.2173 34.99 31.1029 35.2415 29.9942 35.5158C29.3712 35.2872 28.7483 35.0643 28.1253 34.8529C28.051 34.8243 27.971 34.8014 27.8967 34.7786C27.3195 34.5785 26.7366 34.3957 26.1536 34.2071C26.1765 34.1556 26.2108 34.0985 26.2451 34.0413C26.7594 33.1669 27.5995 32.5554 28.7368 32.2125C29.2683 32.4525 29.8513 32.4697 30.3485 32.2125C30.9086 31.921 31.2458 31.3381 31.3029 30.6637C30.7143 30.3265 30.0399 30.2636 29.4741 30.5551C28.9883 30.8009 28.6797 31.2638 28.5597 31.8124C27.9424 32.0067 27.4052 32.2754 26.948 32.6183C26.4965 32.9612 26.1308 33.3727 25.8564 33.847C25.8279 33.887 25.805 33.927 25.7878 33.967V30.4351C26.2336 30.075 26.5137 29.5778 26.5137 29.0349C26.5137 28.972 26.5079 28.9149 26.5022 28.852C26.4622 28.2691 26.1022 27.749 25.565 27.4118C24.9877 27.7718 24.6162 28.3319 24.6162 28.9663C24.6162 29.0292 24.622 29.0863 24.6277 29.1492C24.662 29.6464 24.9306 30.0979 25.3421 30.4294V33.9613L25.2963 33.9499C25.2906 33.9385 25.2849 33.927 25.2735 33.9099C24.9992 33.4412 24.6334 33.0297 24.1819 32.6868C23.7247 32.3439 23.1875 32.0753 22.5702 31.881C22.4502 31.3324 22.1416 30.8694 21.6558 30.618C21.09 30.3322 20.4214 30.3951 19.827 30.7323C19.8898 31.4067 20.2213 31.9896 20.7871 32.2811C21.2786 32.5382 21.8616 32.5211 22.3931 32.2811C23.3761 32.5725 24.1305 33.0698 24.6505 33.7556L24.4219 33.6927C24.0104 33.567 23.5875 33.4641 23.176 33.3498C21.5072 32.904 19.827 32.504 18.1353 32.1896L17.6667 32.0982V25.6573L19.9527 20.668L25.565 17.0217L31.1829 20.668L33.4632 25.6573V34.75ZM11.6772 35.6816C11.4944 35.0586 11.3458 34.4185 11.2543 33.7613C12.0544 34.0642 12.8488 34.3899 13.6318 34.7271C14.4033 35.0529 15.1577 35.4187 15.9178 35.773C16.295 35.9502 16.6665 36.1445 17.0437 36.3331L17.6038 36.6131L18.1525 36.9103C19.0497 37.3847 19.9299 37.8819 20.7928 38.402C20.107 38.6648 19.4212 38.9335 18.7411 39.2135C18.4439 39.3335 18.1525 39.4535 17.861 39.5793C17.3181 39.1906 16.7637 38.8077 16.2093 38.4362L15.6778 38.0819L15.1406 37.739C14.7863 37.5161 14.4319 37.2818 14.0662 37.0589C13.3346 36.6303 12.6145 36.1845 11.8658 35.7844C11.803 35.7444 11.7401 35.7101 11.6772 35.6816ZM14.7062 40.9966C13.6318 39.825 12.7574 38.4648 12.1402 36.9732C12.5745 37.2761 13.0031 37.5847 13.4375 37.8933C13.769 38.1391 14.1004 38.3905 14.4262 38.642L14.9234 39.0192L15.4035 39.4021C15.7464 39.6707 16.0779 39.9393 16.4036 40.2136C15.8378 40.4708 15.272 40.7337 14.7062 40.9966ZM35.012 41.2995C34.029 41.9682 33.0689 42.6711 32.1259 43.397C31.8744 43.5856 31.6344 43.7742 31.3887 43.9628C31.3601 43.9856 31.3315 44.0085 31.3029 44.0313C29.4112 44.9915 27.2681 45.5287 25.0049 45.5287C24.7191 45.5287 24.4391 45.5173 24.159 45.5001C24.3305 45.3744 24.4962 45.2487 24.6677 45.1229C24.822 45.0086 24.982 44.8886 25.142 44.7743C25.805 44.2828 26.4851 43.8084 27.1595 43.3341L27.6224 43.0255L28.1939 42.6426C28.5368 42.414 28.8912 42.1968 29.2341 41.9739C29.3712 41.8882 29.5084 41.8024 29.6455 41.7167C30.8171 40.9795 32.0173 40.2765 33.2404 39.6193C33.3432 39.5621 33.4461 39.5107 33.5433 39.4535L34.0976 39.1563L34.6577 38.8763C35.0292 38.6877 35.4007 38.4934 35.7836 38.3162C35.9322 38.2419 36.0865 38.1733 36.2408 38.0991C36.7094 37.8762 37.1781 37.659 37.6581 37.4475C37.0009 38.882 36.1036 40.1851 35.012 41.2995ZM38.0868 36.3959C37.9725 36.436 37.8582 36.476 37.7381 36.516C36.9266 36.7789 36.1265 37.0875 35.3264 37.3847C35.2063 37.4304 35.0863 37.4761 34.972 37.5275C34.692 37.6361 34.4119 37.7504 34.1319 37.8647L33.5433 38.1048L32.9546 38.3619C32.5717 38.5277 32.1888 38.6934 31.8059 38.8706C30.6285 39.4021 29.4684 39.9793 28.3254 40.5794C28.2396 40.6251 28.1539 40.6709 28.0682 40.7166C27.7767 40.8652 27.4852 41.0195 27.1995 41.1795L26.0793 41.8024C26.0622 41.8139 26.0393 41.8253 26.0222 41.8367C25.3021 42.2482 24.582 42.6711 23.879 43.1055C23.5875 43.2827 23.2961 43.4655 23.0103 43.6484C22.4388 44.0085 21.8787 44.3742 21.3186 44.7457C21.2158 44.8143 21.1129 44.8829 21.0157 44.9458C19.5469 44.5171 18.181 43.8485 16.9637 42.9855C17.4952 42.6826 18.0324 42.3911 18.5697 42.1053C19.004 41.871 19.4441 41.6424 19.8841 41.4195C19.9699 41.3738 20.0556 41.3281 20.147 41.2881C21.13 40.7909 22.1245 40.3108 23.136 39.8536C23.5532 39.6593 23.9762 39.4764 24.4048 39.2878C24.6448 39.1849 24.8791 39.0821 25.1249 38.9792C25.6507 38.7563 26.1879 38.5448 26.7194 38.3277L27.891 37.8762C28.2453 37.739 28.5997 37.6133 28.954 37.4875C28.994 37.4761 29.034 37.459 29.074 37.4418C30.1313 37.0703 31.1943 36.716 32.2688 36.3845C32.806 36.2245 33.3375 36.0702 33.8804 35.9216L34.4862 35.7501L35.1035 35.5958C35.5092 35.4987 35.9207 35.3901 36.3322 35.2929C37.0695 35.1329 37.8124 34.9557 38.5554 34.8186C38.4297 35.3558 38.2754 35.8873 38.0868 36.3959ZM38.7269 33.9556C38.7097 33.9613 38.6926 33.9613 38.6754 33.9613C37.8182 34.047 36.9666 34.1728 36.1151 34.2928C35.6864 34.3557 35.2635 34.4299 34.8406 34.4985L34.2519 34.5957V25.4858L31.8059 20.1365L25.565 16.0844L19.3241 20.1365L16.878 25.4858V31.961L16.8608 31.9553C16.4379 31.8867 16.0093 31.8124 15.5864 31.7438C14.7291 31.6295 13.8776 31.4981 13.0203 31.4181C12.3916 31.3495 11.7572 31.2866 11.1286 31.2409C11.6201 25.0286 20.4842 12.101 25.0049 6.10014C29.657 12.2782 38.904 25.7773 38.904 31.761C38.904 32.5097 38.8412 33.2412 38.7269 33.9556Z" fill="black"/>
</g>
</svg>
