<?xml version="1.0" encoding="utf-8"?>
<!-- Generator: Adobe Illustrator 26.0.1, SVG Export Plug-In . SVG Version: 6.00 Build 0)  -->
<svg version="1.1" id="Layer_1" xmlns="http://www.w3.org/2000/svg" xmlns:xlink="http://www.w3.org/1999/xlink" x="0px" y="0px"
	 viewBox="0 0 90 90" style="enable-background:new 0 0 90 90;" xml:space="preserve">
<style type="text/css">
	.st0{fill:#818181;}
</style>
<g id="air_conditioner-heating-machine-duct-air_conditioning">
	<path class="st0" d="M60.58,49.15h2.76v2.76h-2.76V49.15z"/>
	<path class="st0" d="M59.2,65.73h2.76v2.76H59.2V65.73z"/>
	<path class="st0" d="M16.37,35.33h2.76v2.76h-2.76V35.33z"/>
	<path class="st0" d="M16.37,24.27h2.76v2.76h-2.76V24.27z"/>
	<path class="st0" d="M71.63,49.15h2.76v2.76h-2.76V49.15z"/>
	<path class="st0" d="M61.96,71.25v9.67c0,3.05-2.47,5.53-5.53,5.53c-2.29,0-4.15-1.86-4.15-4.15c0-2.29,1.86-4.15,4.15-4.15v2.76
		c-0.76,0-1.38,0.62-1.38,1.38c0,0.76,0.62,1.38,1.38,1.38c1.52,0,2.76-1.24,2.76-2.76v-9.67H61.96z"/>
	<path class="st0" d="M81.31,75.4c-2.29,0.01-4.14,1.86-4.15,4.15h2.76c0-0.76,0.62-1.38,1.38-1.38c0.76,0,1.38,0.62,1.38,1.38
		c-0.01,2.29-1.86,4.14-4.15,4.15c-1.52,0-2.76-1.24-2.76-2.76V62.96h4.15c1.52,0,2.76-1.24,2.76-2.76v-0.82
		c0-0.73-0.29-1.43-0.82-1.95l-1.95-1.95V33.95c-0.01-8.39-6.81-15.19-15.2-15.2h-1.38v-1.38c-0.01-1.75-1.11-3.31-2.76-3.9V3.55
		h-2.76v9.92c-1.65,0.59-2.75,2.15-2.76,3.9v1.38H27.42v-1.38c-0.01-1.75-1.11-3.31-2.76-3.9V3.55h-2.76v9.92
		c-1.65,0.59-2.75,2.15-2.76,3.9v1.38H13.6c0-1.52-1.24-2.76-2.76-2.76H5.31c-1.52,0-2.76,1.24-2.76,2.76v24.87
		c0,1.52,1.24,2.76,2.76,2.76h5.53c1.52,0,2.76-1.24,2.76-2.76V21.51h19.34v19.34H16.37v2.76h38.69v11.87l-1.95,1.95
		c-0.52,0.51-0.81,1.22-0.82,1.95v0.82c0,1.52,1.24,2.76,2.76,2.76h11.05v17.96h2.76V62.96h4.15v17.96c0,3.05,2.47,5.53,5.53,5.53
		c3.82,0,6.91-3.09,6.91-6.91C85.44,77.26,83.59,75.4,81.31,75.4z M10.84,43.62H5.31V18.75h5.53V43.62z M24.66,18.75h-2.76v-1.38
		c0-0.76,0.62-1.38,1.38-1.38c0.76,0,1.38,0.62,1.38,1.38V18.75z M77.16,33.95v6.91H61.7l15.32-8.66
		C77.11,32.77,77.16,33.36,77.16,33.95z M57.82,17.37c0-0.76,0.62-1.38,1.38-1.38s1.38,0.62,1.38,1.38v1.38h-2.76V17.37z
		 M57.82,21.51h6.91c5.12,0.01,9.72,3.15,11.58,7.92l-16.22,9.16l7.72-13.68l-2.4-1.35l-7.59,13.43V21.51z M35.71,40.85V21.51h19.34
		v19.34H35.71z M55.05,60.2v-0.82L57,57.44h17.4v-2.76H57.82V43.62h19.34v12.44c0,0.37,0.15,0.72,0.4,0.98l2.36,2.35v0.82H55.05z"/>
</g>
</svg>
