<svg width="132" height="132" viewBox="0 0 132 132" fill="none" xmlns="http://www.w3.org/2000/svg">
<path d="M91.875 72.9175H96.25V77.2925H91.875V72.9175Z" fill="#818181"/>
<path d="M89.6875 99.1675H94.0625V103.542H89.6875V99.1675Z" fill="#818181"/>
<path d="M21.875 51.0425H26.25V55.4175H21.875V51.0425Z" fill="#818181"/>
<path d="M21.875 33.5425H26.25V37.9175H21.875V33.5425Z" fill="#818181"/>
<path d="M109.375 72.9175H113.75V77.2925H109.375V72.9175Z" fill="#818181"/>
<path d="M94.0625 107.917V123.23C94.0625 125.551 93.1406 127.776 91.4997 129.417C89.8587 131.058 87.6331 131.98 85.3125 131.98C83.572 131.98 81.9028 131.289 80.6721 130.058C79.4414 128.827 78.75 127.158 78.75 125.417C78.75 123.677 79.4414 122.008 80.6721 120.777C81.9028 119.546 83.572 118.855 85.3125 118.855V123.23C84.7323 123.23 84.1759 123.46 83.7657 123.871C83.3555 124.281 83.125 124.837 83.125 125.417C83.125 125.998 83.3555 126.554 83.7657 126.964C84.1759 127.375 84.7323 127.605 85.3125 127.605C86.4718 127.602 87.5825 127.139 88.4023 126.32C89.222 125.5 89.684 124.389 89.6875 123.23V107.917H94.0625Z" fill="#818181"/>
<path d="M124.688 114.48C122.949 114.485 121.282 115.178 120.053 116.408C118.823 117.637 118.13 119.304 118.125 121.042H122.5C122.5 120.462 122.73 119.906 123.141 119.496C123.551 119.085 124.107 118.855 124.688 118.855C125.268 118.855 125.824 119.085 126.234 119.496C126.645 119.906 126.875 120.462 126.875 121.042C126.87 122.781 126.177 124.448 124.947 125.677C123.718 126.907 122.051 127.6 120.312 127.605C119.153 127.602 118.042 127.139 117.223 126.32C116.403 125.5 115.941 124.389 115.938 123.23V94.7925H122.5C123.659 94.789 124.77 94.327 125.59 93.5072C126.409 92.6875 126.872 91.5767 126.875 90.4175V89.1269C126.875 88.5529 126.76 87.9848 126.539 87.4553C126.317 86.9259 125.993 86.4456 125.584 86.0425L122.5 82.9581V48.855C122.496 42.4745 119.959 36.3564 115.448 31.8447C110.936 27.333 104.818 24.7965 98.4375 24.7925H96.25V22.605C96.243 21.2518 95.8193 19.9336 95.0365 18.8298C94.2537 17.7261 93.1497 16.8903 91.875 16.4362V0.72998H87.5V16.4362C86.2253 16.8903 85.1213 17.7261 84.3385 18.8298C83.5557 19.9336 83.132 21.2518 83.125 22.605V24.7925H39.375V22.605C39.368 21.2518 38.9443 19.9336 38.1615 18.8298C37.3787 17.7261 36.2748 16.8903 35 16.4362V0.72998H30.625V16.4362C29.3502 16.8903 28.2463 17.7261 27.4635 18.8298C26.6807 19.9336 26.257 21.2518 26.25 22.605V24.7925H17.5C17.4965 23.6332 17.0345 22.5224 16.2148 21.7027C15.395 20.883 14.2843 20.4209 13.125 20.4175H4.375C3.21574 20.4209 2.10495 20.883 1.28523 21.7027C0.46551 22.5224 0.00346222 23.6332 0 24.7925V64.1675C0.00346222 65.3267 0.46551 66.4375 1.28523 67.2572C2.10495 68.077 3.21574 68.539 4.375 68.5425H13.125C14.2843 68.539 15.395 68.077 16.2148 67.2572C17.0345 66.4375 17.4965 65.3267 17.5 64.1675V29.1675H48.125V59.7925H21.875V64.1675H83.125V82.9581L80.0406 86.0425C79.6321 86.4456 79.3077 86.9259 79.0862 87.4553C78.8647 87.9848 78.7504 88.5529 78.75 89.1269V90.4175C78.7535 91.5767 79.2155 92.6875 80.0352 93.5072C80.855 94.327 81.9657 94.789 83.125 94.7925H100.625V123.23H105V94.7925H111.562V123.23C111.562 125.551 112.484 127.776 114.125 129.417C115.766 131.058 117.992 131.98 120.312 131.98C123.213 131.98 125.995 130.828 128.046 128.776C130.098 126.725 131.25 123.943 131.25 121.042C131.245 119.304 130.552 117.637 129.322 116.408C128.093 115.178 126.426 114.485 124.688 114.48ZM13.125 64.1675H4.375V24.7925H13.125V64.1675ZM35 24.7925H30.625V22.605C30.625 22.0248 30.8555 21.4684 31.2657 21.0582C31.6759 20.6479 32.2323 20.4175 32.8125 20.4175C33.3927 20.4175 33.9491 20.6479 34.3593 21.0582C34.7695 21.4684 35 22.0248 35 22.605V24.7925ZM118.125 48.855V59.7925H93.6469L117.906 46.0769C118.045 46.9965 118.118 47.9249 118.125 48.855ZM87.5 22.605C87.5 22.0248 87.7305 21.4684 88.1407 21.0582C88.5509 20.6479 89.1073 20.4175 89.6875 20.4175C90.2677 20.4175 90.8241 20.6479 91.2343 21.0582C91.6445 21.4684 91.875 22.0248 91.875 22.605V24.7925H87.5V22.605ZM87.5 29.1675H98.4375C102.399 29.1718 106.267 30.3701 109.537 32.6061C112.807 34.8421 115.327 38.0119 116.769 41.7019L91.0875 56.205L103.316 34.5487L99.5094 32.405L87.5 53.6675V29.1675ZM52.5 59.7925V29.1675H83.125V59.7925H52.5ZM83.125 90.4175V89.1269L86.2094 86.0425H113.75V81.6675H87.5V64.1675H118.125V83.855C118.129 84.4349 118.356 84.991 118.759 85.4081L122.5 89.1269V90.4175H83.125Z" fill="#818181"/>
</svg>
