<?xml version="1.0" encoding="utf-8"?>
<!-- Generator: Adobe Illustrator 26.0.1, SVG Export Plug-In . SVG Version: 6.00 Build 0)  -->
<svg version="1.1" id="Layer_1" xmlns="http://www.w3.org/2000/svg" xmlns:xlink="http://www.w3.org/1999/xlink" x="0px" y="0px"
	 width="70" height="70" viewBox="0 0 70 70" style="enable-background:new 0 0 70 70;" xml:space="preserve">
<style type="text/css">
	.st0{fill:none;stroke:#F79448;stroke-width:1.5;stroke-miterlimit:10;}
</style>
<path class="st0" d="M65.1,30.5h-1.5c-0.7,0-1.4-0.5-1.6-1.2c-0.4-1.6-0.9-3.1-1.5-4.6c-0.1-0.3,0-0.7,0.3-0.9l2.7-1.6
	c0.4-0.2,0.5-0.7,0.3-1l-3-5.2c-0.2-0.4-0.7-0.5-1-0.3l-2.4,1.4c-0.6,0.4-1.5,0.3-2-0.3c-0.9-1-1.9-1.9-2.9-2.7
	c-0.6-0.5-0.7-1.3-0.4-2l1.3-2.3c0.2-0.4,0.1-0.8-0.3-1l-5.2-3c-0.4-0.2-0.8-0.1-1,0.3l-1.8,3.1c-0.2,0.3-0.6,0.4-0.9,0.3
	c-1.4-0.5-2.9-0.9-4.4-1.2c-0.7-0.1-1.3-0.8-1.3-1.6l0-2.7c0-0.5-0.4-0.9-0.9-0.9H32c-0.5,0-0.9,0.4-0.9,0.9v3.4
	c0,0.4-0.3,0.7-0.6,0.7c-1.8,0.3-3.5,0.7-5.1,1.3c-0.3,0.1-0.7,0-0.9-0.3l-1.6-2.9c-0.2-0.4-0.7-0.5-1-0.3l-5.2,3
	c-0.4,0.2-0.5,0.7-0.3,1l1.6,2.8c0.2,0.3,0.1,0.7-0.2,0.9c-1.4,1.1-2.8,2.4-4,3.8c-0.2,0.3-0.6,0.3-0.9,0.2l-2.5-1.4
	c-0.4-0.2-0.8-0.1-1,0.3l-3,5.2c-0.2,0.4-0.1,0.8,0.3,1l2.3,1.3c0.3,0.2,0.5,0.6,0.3,0.9c-0.7,1.8-1.3,3.6-1.6,5.5
	c-0.1,0.4-0.4,0.6-0.7,0.6H5.3c-0.9,0-1.6,0.7-1.6,1.6V38c0,0.4,0.3,0.7,0.7,0.7h2.1c0.4,0,0.7,0.3,0.7,0.6c0.2,1.8,0.7,3.6,1.2,5.2
	c0.2,0.7-0.1,1.5-0.7,1.9l-1,0.6c-0.4,0.2-0.5,0.7-0.3,1l3,5.2c0.2,0.4,0.7,0.5,1,0.3l1.5-0.9c0.3-0.2,0.7-0.1,0.9,0.2
	c1.3,1.6,2.8,3.1,4.4,4.4c0.3,0.2,0.4,0.6,0.2,0.9l-0.7,1.3c-0.2,0.4-0.1,0.8,0.3,1l5.2,3c0.4,0.2,0.8,0.1,1-0.3l0.4-0.7
	c0.4-0.7,1.2-1,1.9-0.7c1.7,0.6,3.6,1.1,5.5,1.3c0.4,0.1,0.6,0.4,0.6,0.7v0.6c0,0.9,0.7,1.6,1.6,1.6h4.3c0.9,0,1.6-0.7,1.6-1.6v-0.8
	c0-0.4,0.3-0.7,0.6-0.7c2.1-0.4,4.1-1,5.9-1.8c0.3-0.2,0.7,0,0.9,0.3l0.8,1.4c0.2,0.4,0.7,0.5,1,0.3l5.2-3c0.4-0.2,0.5-0.7,0.3-1
	l-0.7-1.1c-0.4-0.6-0.3-1.4,0.3-1.9c1.3-1.2,2.5-2.6,3.6-4c0.2-0.3,0.6-0.4,1-0.2l1.8,1c0.4,0.2,0.8,0.1,1-0.3l3-5.2
	c0.2-0.4,0.1-0.8-0.3-1l-1.6-0.9c-0.6-0.4-0.9-1.1-0.7-1.8c0.5-1.6,0.8-3.3,1-5c0-0.4,0.4-0.7,0.7-0.7h2.6c0.4,0,0.7-0.3,0.7-0.7
	v-5.2C66.7,31.2,66,30.5,65.1,30.5z M35.2,53.8c-1.5,0-3-0.2-4.4-0.5c-0.4-0.1-0.7-0.4-0.7-0.8v-8.8c0-0.3-0.2-0.6-0.4-0.7
	c-2.8-1.7-4.7-4.6-5.1-7.9c-0.4-3.9,1.3-7.4,4.1-9.6c0.6-0.4,1.4,0,1.4,0.7v7.9c0,1.4,1.1,2.4,2.4,2.4h5.6c1.1,0,2-0.9,2-2v-8.3
	c0-0.7,0.8-1.1,1.4-0.7c2.5,1.9,4.2,5,4.2,8.5c0,3.9-2.1,7.2-5.1,9.1c-0.3,0.2-0.4,0.4-0.4,0.7v8.8c0,0.4-0.3,0.7-0.6,0.8
	C38.2,53.7,36.7,53.8,35.2,53.8z"/>
<path class="st0" d="M54.4,34.6c0,8.9-6,16.3-14.1,18.5v-10c3.3-1.8,5.5-5.3,5.5-9.3c0-4-2.3-7.6-5.6-9.4v10.7
	c0,0.7-0.5,1.2-1.2,1.2h-6.5c-1.3,0-2.4-1.1-2.4-2.4v-9.5c-3.6,2-6,6-5.5,10.5c0.4,3.5,2.5,6.6,5.5,8.2v10C22,50.9,16,43.5,16,34.6
	c0-10.6,8.6-19.2,19.2-19.2C45.8,15.4,54.4,24,54.4,34.6z"/>
<path class="st0" d="M45.8,33.8c0,4-2.2,7.5-5.5,9.3v10c-1.6,0.5-3.3,0.7-5.1,0.7c-1.8,0-3.5-0.2-5.1-0.7v-10
	c-3-1.6-5.1-4.7-5.5-8.2c-0.5-4.5,1.9-8.5,5.5-10.5v9.5c0,1.4,1.1,2.4,2.4,2.4h6.5c0.7,0,1.2-0.5,1.2-1.2V24.5
	C43.6,26.3,45.8,29.8,45.8,33.8z"/>
<path class="st0" d="M40.3,53.2c-1.6,0.5-3.3,0.7-5.1,0.7c-1.8,0-3.5-0.2-5.1-0.7"/>
</svg>
