<?xml version="1.0" encoding="utf-8"?>
<!-- Generator: Adobe Illustrator 26.0.1, SVG Export Plug-In . SVG Version: 6.00 Build 0)  -->
<svg version="1.1" id="Layer_1" xmlns="http://www.w3.org/2000/svg" xmlns:xlink="http://www.w3.org/1999/xlink" x="0px" y="0px"
	 width="70" height="70" viewBox="0 0 70 70" style="enable-background:new 0 0 70 70;" xml:space="preserve">
<style type="text/css">
	.st0{fill:#FFFFFF;filter:url(#Adobe_OpacityMaskFilter);}
	.st1{fill:#FFFFFF;}
	.st2{mask:url(#mask0_1528_4669_00000055694577316218355450000017722530224031595140_);}
	.st3{fill:#FFFFFF;filter:url(#Adobe_OpacityMaskFilter_00000111878740572503197670000008408576545766622594_);}
	.st4{mask:url(#mask1_1528_4669_00000181797600243083663100000014995634598587917458_);}
	.st5{fill:none;stroke:#719AD1;stroke-width:1.5;stroke-linecap:round;stroke-linejoin:round;stroke-miterlimit:10;}
	.st6{fill:#719AD1;}
</style>
<g>
	<g>
		<defs>
			<filter id="Adobe_OpacityMaskFilter" filterUnits="userSpaceOnUse" x="5.2" y="2.8" width="59.5" height="59.5">
				<feColorMatrix  type="matrix" values="1 0 0 0 0  0 1 0 0 0  0 0 1 0 0  0 0 0 1 0"/>
			</filter>
		</defs>
		
			<mask maskUnits="userSpaceOnUse" x="5.2" y="2.8" width="59.5" height="59.5" id="mask0_1528_4669_00000055694577316218355450000017722530224031595140_">
			<path class="st0" d="M66.5,1.1H3.5V64h62.9V1.1z"/>
			<path class="st1" d="M18.9,24.4c-1.4,0-2.5,1.1-2.5,2.5c0,1.4,1.1,2.5,2.5,2.5s2.5-1.1,2.5-2.5C21.4,25.5,20.3,24.4,18.9,24.4z"
				/>
			<path class="st1" d="M29.6,24.4c-1.4,0-2.5,1.1-2.5,2.5c0,1.4,1.1,2.5,2.5,2.5c1.4,0,2.5-1.1,2.5-2.5
				C32.1,25.5,31,24.4,29.6,24.4z"/>
			<path class="st1" d="M40.3,24.4c-1.4,0-2.5,1.1-2.5,2.5c0,1.4,1.1,2.5,2.5,2.5s2.5-1.1,2.5-2.5C42.7,25.5,41.6,24.4,40.3,24.4z"
				/>
			<path class="st1" d="M51,24.4c-1.4,0-2.5,1.1-2.5,2.5c0,1.4,1.1,2.5,2.5,2.5c1.4,0,2.5-1.1,2.5-2.5C53.4,25.5,52.3,24.4,51,24.4z
				"/>
			<path class="st1" d="M21.4,37.6c0-1.4-1.1-2.5-2.5-2.5s-2.5,1.1-2.5,2.5c0,1.4,1.1,2.5,2.5,2.5S21.4,38.9,21.4,37.6z"/>
			<path class="st1" d="M21.4,48.2c0-1.4-1.1-2.5-2.5-2.5s-2.5,1.1-2.5,2.5c0,1.4,1.1,2.5,2.5,2.5S21.4,49.6,21.4,48.2z"/>
			<path class="st1" d="M32.1,37.6c0-1.4-1.1-2.5-2.5-2.5c-1.4,0-2.5,1.1-2.5,2.5c0,1.4,1.1,2.5,2.5,2.5C31,40,32.1,38.9,32.1,37.6z
				"/>
			<path class="st1" d="M32.1,48.2c0-1.4-1.1-2.5-2.5-2.5c-1.4,0-2.5,1.1-2.5,2.5c0,1.4,1.1,2.5,2.5,2.5
				C31,50.7,32.1,49.6,32.1,48.2z"/>
			<path class="st1" d="M29.6,24.4c-1.4,0-2.5,1.1-2.5,2.5c0,1.4,1.1,2.5,2.5,2.5c1.4,0,2.5-1.1,2.5-2.5
				C32.1,25.5,31,24.4,29.6,24.4z"/>
			<path class="st1" d="M32.1,37.6c0-1.4-1.1-2.5-2.5-2.5c-1.4,0-2.5,1.1-2.5,2.5c0,1.4,1.1,2.5,2.5,2.5C31,40,32.1,38.9,32.1,37.6z
				"/>
			<path class="st1" d="M32.1,48.2c0-1.4-1.1-2.5-2.5-2.5c-1.4,0-2.5,1.1-2.5,2.5c0,1.4,1.1,2.5,2.5,2.5
				C31,50.7,32.1,49.6,32.1,48.2z"/>
			<path class="st1" d="M42.7,37.6c0-1.4-1.1-2.5-2.5-2.5s-2.5,1.1-2.5,2.5c0,1.4,1.1,2.5,2.5,2.5S42.7,38.9,42.7,37.6z"/>
			<path class="st1" d="M53.4,37.6c0-1.4-1.1-2.5-2.5-2.5c-1.4,0-2.5,1.1-2.5,2.5c0,1.4,1.1,2.5,2.5,2.5
				C52.3,40,53.4,38.9,53.4,37.6z"/>
		</mask>
		<g class="st2">
			<defs>
				
					<filter id="Adobe_OpacityMaskFilter_00000165225844614238002360000012521492380977524911_" filterUnits="userSpaceOnUse" x="5.2" y="2.8" width="59.5" height="59.5">
					<feColorMatrix  type="matrix" values="1 0 0 0 0  0 1 0 0 0  0 0 1 0 0  0 0 0 1 0"/>
				</filter>
			</defs>
			
				<mask maskUnits="userSpaceOnUse" x="5.2" y="2.8" width="59.5" height="59.5" id="mask1_1528_4669_00000181797600243083663100000014995634598587917458_">
				<path style="fill:#FFFFFF;filter:url(#Adobe_OpacityMaskFilter_00000165225844614238002360000012521492380977524911_);" d="
					M3.5,1.1h62.9V64H3.5V1.1z"/>
			</mask>
			<g class="st4">
				<path class="st5" d="M34,61.5H13.4c-4.1,0-7.4-3.3-7.4-7.4V15.8c0-4.1,3.3-7.4,7.4-7.4h43.3c4.1,0,7.4,3.3,7.4,7.4v17.4"/>
				<path class="st6" d="M18.9,24.4c-1.4,0-2.5,1.1-2.5,2.5c0,1.4,1.1,2.5,2.5,2.5c1.4,0,2.5-1.1,2.5-2.5
					C21.4,25.5,20.3,24.4,18.9,24.4z"/>
				<path class="st6" d="M29.6,24.4c-1.4,0-2.5,1.1-2.5,2.5c0,1.4,1.1,2.5,2.5,2.5s2.5-1.1,2.5-2.5C32.1,25.5,31,24.4,29.6,24.4z"/>
				<path class="st6" d="M40.3,24.4c-1.4,0-2.5,1.1-2.5,2.5c0,1.4,1.1,2.5,2.5,2.5c1.4,0,2.5-1.1,2.5-2.5
					C42.7,25.5,41.6,24.4,40.3,24.4z"/>
				<path class="st6" d="M51,24.4c-1.4,0-2.5,1.1-2.5,2.5c0,1.4,1.1,2.5,2.5,2.5c1.4,0,2.5-1.1,2.5-2.5C53.4,25.5,52.3,24.4,51,24.4
					z"/>
				<path class="st6" d="M21.4,37.6c0-1.4-1.1-2.5-2.5-2.5c-1.4,0-2.5,1.1-2.5,2.5s1.1,2.5,2.5,2.5C20.3,40,21.4,38.9,21.4,37.6z"/>
				<path class="st6" d="M21.4,48.2c0-1.4-1.1-2.5-2.5-2.5c-1.4,0-2.5,1.1-2.5,2.5s1.1,2.5,2.5,2.5C20.3,50.7,21.4,49.6,21.4,48.2z"
					/>
				<path class="st6" d="M32.1,37.6c0-1.4-1.1-2.5-2.5-2.5s-2.5,1.1-2.5,2.5s1.1,2.5,2.5,2.5S32.1,38.9,32.1,37.6z"/>
				<path class="st6" d="M32.1,48.2c0-1.4-1.1-2.5-2.5-2.5s-2.5,1.1-2.5,2.5s1.1,2.5,2.5,2.5S32.1,49.6,32.1,48.2z"/>
				<path class="st6" d="M29.6,24.4c-1.4,0-2.5,1.1-2.5,2.5c0,1.4,1.1,2.5,2.5,2.5s2.5-1.1,2.5-2.5C32.1,25.5,31,24.4,29.6,24.4z"/>
				<path class="st6" d="M32.1,37.6c0-1.4-1.1-2.5-2.5-2.5s-2.5,1.1-2.5,2.5s1.1,2.5,2.5,2.5S32.1,38.9,32.1,37.6z"/>
				<path class="st6" d="M32.1,48.2c0-1.4-1.1-2.5-2.5-2.5s-2.5,1.1-2.5,2.5s1.1,2.5,2.5,2.5S32.1,49.6,32.1,48.2z"/>
				<path class="st5" d="M18.9,3.5v9.8"/>
				<path class="st5" d="M50.1,3.5v9.8"/>
			</g>
		</g>
		<path class="st6" d="M52.7,56.9c-0.3,0-0.5,0.2-0.5,0.5c0,0.3,0.2,0.5,0.5,0.5c0.3,0,0.5-0.2,0.5-0.5C53.2,57.1,53,56.9,52.7,56.9
			z"/>
	</g>
	<g>
		<path class="st6" d="M53.4,47.9c-0.3,0-0.5,0.2-0.5,0.5c0,0.3,0.2,0.5,0.5,0.5c0.3,0,0.5-0.2,0.5-0.5
			C53.9,48.1,53.7,47.9,53.4,47.9z"/>
		<path class="st6" d="M61.4,43c-0.2,0-0.4,0-0.5,0.1l-2.2,2.2h-1l-1.1-1.2v-1.1l2.1-2.2c0.1-0.1,0.2-0.3,0.1-0.5
			c0-0.2-0.2-0.3-0.3-0.4c-0.5-0.2-1.1-0.3-1.7-0.3c-1.7,0-3.2,0.8-4.2,2.2c-0.9,1.3-1.2,2.9-0.8,4.4l-3.8,3.8l-6.4-6.4v-1.3
			c0-0.2-0.1-0.4-0.3-0.4l-3.7-2.2c-0.2-0.1-0.5-0.1-0.6,0.1l-1.5,1.5c-0.2,0.2-0.2,0.4-0.1,0.6l2.2,3.7c0.1,0.2,0.3,0.3,0.4,0.3
			l1.3,0l6.4,6.4l-3.8,3.8c-1.5-0.4-3.1-0.1-4.4,0.8c-1.4,1-2.2,2.5-2.2,4.2c0,0.6,0.1,1.1,0.3,1.7c0.1,0.2,0.2,0.3,0.4,0.3
			c0.2,0,0.4,0,0.5-0.1l2.2-2.2h1l1.2,1.2v1l-2.2,2.2c-0.1,0.1-0.2,0.3-0.1,0.5c0,0.2,0.2,0.3,0.3,0.4c0.5,0.2,1.1,0.3,1.7,0.3
			c1.7,0,3.2-0.8,4.2-2.2c0.9-1.3,1.2-2.9,0.8-4.4l3.1-3.1l0.7,0.8L49,57.9c-0.2,0.2-0.2,0.5,0,0.7c0.2,0.2,0.5,0.2,0.7,0l0.3-0.3
			l6.6,7.2c0,0,0,0,0,0c1.2,1.2,3.2,1.2,4.4,0c1.2-1.2,1.2-3.2,0-4.4c0,0,0,0,0,0l-7.2-6.6l0.3-0.3c0.2-0.2,0.2-0.5,0-0.7
			c-0.2-0.2-0.5-0.2-0.7,0l-0.3,0.3l-0.8-0.7l3.1-3.1c0.4,0.1,0.9,0.2,1.3,0.2c2.9,0,5.2-2.3,5.2-5.2c0-0.6-0.1-1.1-0.3-1.7
			C61.7,43.2,61.5,43.1,61.4,43z M39.9,45.1C39.8,45,39.7,45,39.5,45l-1.2,0l-1.8-3.1l0.9-0.9l3.1,1.8V44c0,0.1,0.1,0.3,0.2,0.4
			l6.5,6.6l-0.7,0.7L39.9,45.1z M53.1,55.3l7.2,6.6c0.8,0.8,0.8,2.1,0,2.9c-0.8,0.8-2.1,0.8-2.9,0l-6.6-7.2L53.1,55.3z M52.4,54.6
			l-2.3,2.3l-0.7-0.8l2.2-2.2L52.4,54.6z M56.8,49.2c-0.5,0-0.9-0.1-1.3-0.2c-0.2-0.1-0.4,0-0.5,0.1c-2.6,2.6-8.2,8.2-10.3,10.3
			c-0.1,0.1-0.2,0.3-0.1,0.5c0.4,1.3,0.2,2.7-0.6,3.8c-0.8,1.1-2,1.7-3.4,1.7c-0.2,0-0.3,0-0.5,0l1.7-1.6c0.1-0.1,0.2-0.2,0.2-0.4
			v-1.5c0-0.1-0.1-0.3-0.2-0.4l-1.5-1.5c-0.1-0.1-0.2-0.2-0.4-0.2h-1.5c-0.1,0-0.3,0.1-0.4,0.2l-1.6,1.7c0-0.2,0-0.3,0-0.5
			c0-1.4,0.6-2.6,1.7-3.4c1.1-0.8,2.5-1,3.8-0.6c0.2,0.1,0.4,0,0.5-0.1c0,0,10.3-10.3,10.3-10.3c0.1-0.1,0.2-0.3,0.1-0.5
			c-0.4-1.3-0.2-2.7,0.6-3.8c0.8-1.1,2-1.7,3.4-1.7c0.2,0,0.3,0,0.5,0l-1.6,1.6c-0.1,0.1-0.1,0.2-0.1,0.4v1.5c0,0.1,0.1,0.3,0.1,0.4
			l1.4,1.5c0.1,0.1,0.2,0.2,0.4,0.2h1.5c0.1,0,0.3-0.1,0.4-0.2l1.6-1.7c0,0.2,0,0.3,0,0.5C61,47.3,59.1,49.2,56.8,49.2z"/>
		<path class="st6" d="M51.6,49.5L45,56c-0.2,0.2-0.2,0.5,0,0.7c0.2,0.2,0.5,0.2,0.7,0l6.5-6.5c0.2-0.2,0.2-0.5,0-0.7
			C52.1,49.3,51.8,49.3,51.6,49.5z"/>
		<path class="st6" d="M58.1,63.4c0.2,0.2,0.5,0.2,0.7,0c0.2-0.2,0.2-0.5,0-0.7l-4.7-4.7c-0.2-0.2-0.5-0.2-0.7,0
			c-0.2,0.2-0.2,0.5,0,0.7L58.1,63.4z"/>
	</g>
</g>
</svg>
