<svg width="65" height="64" viewBox="0 0 65 64" fill="none" xmlns="http://www.w3.org/2000/svg">
<path d="M32.5025 12.6045C21.8391 12.6095 13.196 21.2526 13.1909 31.916C14.1002 57.4284 50.8987 57.4375 51.7988 31.916C51.7955 21.2579 43.1605 12.6162 32.5025 12.6045ZM28.0352 48.6697V40.311C28.0256 39.98 27.8457 39.6775 27.5594 39.5109C23.0762 36.7234 21.7015 30.8293 24.4892 26.346C25.1565 25.2727 26.0301 24.3423 27.0594 23.6089V33.0344C27.0607 33.3749 27.2401 33.6898 27.5322 33.8647C30.5835 35.7287 34.4214 35.7287 37.4728 33.8647C37.7615 33.688 37.9364 33.3728 37.9335 33.0344V23.6089C42.2327 26.6726 43.2343 32.6415 40.1705 36.9407C39.437 37.97 38.5067 38.8436 37.4334 39.5109C37.1508 39.6791 36.9762 39.9822 36.9727 40.311V48.6788C34.0457 49.4668 30.9622 49.4668 28.0352 48.6788V48.6697ZM38.9093 48.0392V40.8565C44.1309 37.2246 45.4195 30.0475 41.7876 24.8259C40.6679 23.2161 39.1555 21.9188 37.394 21.0571C37.0968 20.9038 36.7395 20.9258 36.4636 21.1147C36.1813 21.2846 36.0071 21.5885 36.0028 21.9178V32.4858C33.8021 33.6039 31.1997 33.6039 28.999 32.4858V21.9178C28.9941 21.5925 28.827 21.2911 28.5534 21.1147C28.276 20.9236 27.9156 20.9013 27.6169 21.0571C21.9053 23.8291 19.5221 30.7064 22.2941 36.4179C23.1594 38.2009 24.471 39.73 26.1016 40.8565V48.0483C17.1834 44.5107 12.8215 34.4133 16.3591 25.4951C19.8967 16.5769 29.9941 12.2151 38.9123 15.7527C47.8305 19.2903 52.1924 29.3877 48.6548 38.3059C46.889 42.7574 43.3638 46.2826 38.9123 48.0484L38.9093 48.0392Z" fill="#FA9445"/>
<path d="M61.8424 27.0761H58.5087C58.2605 25.7199 57.8996 24.3869 57.4298 23.0907L60.3211 21.4026C61.5099 20.7266 61.9254 19.215 61.2495 18.0262C61.2432 18.0152 61.2368 18.0041 61.2303 17.9931L58.927 13.9805C58.2272 12.7808 56.6883 12.3741 55.4872 13.0712L52.5959 14.7351C51.692 13.6918 50.7147 12.7143 49.6712 11.8104L51.3473 8.9191C52.0253 7.71539 51.6223 6.19071 50.438 5.47934L46.4072 3.1487C45.2098 2.45811 43.6797 2.86445 42.9825 4.05795L41.3217 6.95224C40.017 6.48741 38.6759 6.13259 37.312 5.89153V2.54871C37.3104 1.17474 36.1979 0.0608857 34.8238 0.0575254H30.1838C28.8063 0.050805 27.6842 1.16205 27.6775 2.53962V2.54871V5.90061C26.3167 6.14218 24.9786 6.49699 23.6769 6.96133L22.004 4.06704C21.2911 2.89432 19.7799 2.4932 18.5793 3.15778L14.5667 5.47934C13.3669 6.17914 12.9602 7.718 13.6574 8.9191L15.3212 11.8104C14.2811 12.7167 13.3048 13.6939 12.3997 14.7351L9.50541 13.0712C8.31252 12.3755 6.78162 12.7787 6.08593 13.9714C6.08418 13.9744 6.08244 13.9774 6.0807 13.9804L3.75006 17.993C3.0627 19.186 3.46917 20.7102 4.65932 21.4025L7.5536 23.0906C7.10022 24.3916 6.74067 25.7235 6.47771 27.076H3.1502C1.76428 27.0776 0.642087 28.2025 0.643829 29.5884V29.5975V34.2072C0.637108 35.5947 1.75657 36.725 3.1441 36.7317H3.1502H6.48393C6.74677 38.0921 7.10632 39.4321 7.55983 40.7413L4.66554 42.4022C3.4744 43.1084 3.06967 44.6395 3.75628 45.8419L6.07784 49.8212C6.77341 51.0136 8.29261 51.4344 9.50254 50.7698L12.3968 49.0787C13.2943 50.1271 14.271 51.1048 15.3184 52.0034L13.6546 54.8947C12.9556 56.0953 13.3625 57.6353 14.5631 58.3341C14.5633 58.3342 14.5636 58.3343 14.5637 58.3344L18.5763 60.6529C19.7737 61.3435 21.3038 60.9371 22.001 59.7436L23.6739 56.8523C24.9752 57.3172 26.3135 57.671 27.6745 57.91V61.2651C27.6745 62.6517 28.7942 63.7783 30.1808 63.7866H34.8208C36.2035 63.7733 37.3169 62.6477 37.3151 61.2651V57.901C38.6791 57.6623 40.0205 57.3084 41.3248 56.8432L42.9856 59.7345C43.6817 60.9294 45.2132 61.336 46.4103 60.6438L50.435 58.3253C51.6276 57.6202 52.0326 56.0879 51.3443 54.8856L49.6683 51.9943C50.7189 51.0982 51.6968 50.1203 52.5929 49.0696L55.4842 50.7607C56.6905 51.4171 58.1995 51.0182 58.924 49.8514L61.2274 45.8418C61.928 44.648 61.5284 43.1123 60.3345 42.4115C60.329 42.4083 60.3236 42.4051 60.3181 42.4019L57.4268 40.7411C57.8947 39.4366 58.2535 38.0953 58.4997 36.7314H61.8334C63.2227 36.7281 64.3462 35.5992 64.3429 34.2099C64.3429 34.2089 64.3429 34.2079 64.3429 34.2068V29.5972C64.3478 28.2112 63.2288 27.0828 61.8424 27.0761ZM62.4303 34.2073C62.4304 34.5351 62.17 34.8035 61.8424 34.8134H57.6873C57.2173 34.8119 56.8162 35.1525 56.7417 35.6165C56.4629 37.3907 55.9925 39.1293 55.3385 40.8019C55.1683 41.2533 55.3426 41.7618 55.7536 42.0142L59.3632 44.0782C59.6392 44.2393 59.7324 44.5939 59.5711 44.8699C59.5695 44.8727 59.5679 44.8755 59.5662 44.8783L57.2598 48.8909C57.0863 49.1585 56.7353 49.2458 56.4567 49.0909L52.8623 46.9997C52.448 46.7782 51.9353 46.8739 51.6289 47.2301C50.501 48.6303 49.2281 49.9072 47.8314 51.0396C47.4612 51.3367 47.3645 51.8602 47.6042 52.2701L49.6802 55.8827C49.8389 56.1388 49.7598 56.4751 49.5036 56.6338C49.491 56.6416 49.4781 56.6488 49.465 56.6556L45.4524 58.9771C45.18 59.1379 44.8288 59.0474 44.668 58.775C44.6678 58.7747 44.6676 58.7744 44.6675 58.7741L42.5885 55.1646C42.3399 54.7615 41.839 54.5932 41.3975 54.7646C39.7242 55.4134 37.9871 55.8837 36.215 56.1678C35.7409 56.2281 35.3882 56.6356 35.3967 57.1134V61.2685C35.3967 61.5849 35.1402 61.8414 34.8238 61.8414H30.1838C29.8675 61.8414 29.611 61.5849 29.611 61.2685V57.1013C29.6146 56.621 29.2574 56.2142 28.7806 56.1558C26.8965 55.8248 25.0455 55.3268 23.2497 54.6677C22.908 54.6764 22.5947 54.8593 22.4193 55.1525L20.3433 58.7621C20.1707 59.0324 19.8172 59.1213 19.5371 58.9652L15.5275 56.6436C15.2554 56.4923 15.1575 56.149 15.3088 55.877C15.3099 55.8749 15.3112 55.8729 15.3123 55.8708L17.4065 52.2581C17.6368 51.8456 17.5385 51.3272 17.1731 51.0276C15.7708 49.9006 14.4962 48.6231 13.3727 47.2181C13.0661 46.8619 12.5535 46.7662 12.1392 46.9878L8.54176 49.079C8.26884 49.2335 7.92248 49.1453 7.75684 48.879L5.43528 44.8663C5.273 44.5889 5.36621 44.2325 5.64362 44.0702C5.64586 44.0688 5.64822 44.0676 5.65046 44.0662L9.24181 42.0023C9.66122 41.7567 9.83882 41.242 9.6601 40.79C9.00299 39.1192 8.53641 37.3797 8.26896 35.6045C8.18894 35.1387 7.78384 34.7991 7.31129 34.8014H3.1502C2.82886 34.7967 2.57223 34.5324 2.57696 34.211C2.57709 34.2058 2.57721 34.2006 2.57746 34.1953V29.5978C2.57696 29.2756 2.82861 29.0094 3.15032 28.9917H7.31142C7.78409 28.9941 8.18906 28.6544 8.26909 28.1886C8.53641 26.4133 9.00311 24.6738 9.66023 23.0031C9.83359 22.5511 9.65724 22.0398 9.24194 21.7908L5.64449 19.7572C5.37206 19.6067 5.27312 19.2637 5.42371 18.9912C5.42558 18.988 5.42744 18.9846 5.42931 18.9814L7.75086 14.9718C7.87992 14.6959 8.20823 14.5768 8.48414 14.7058C8.49758 14.712 8.51078 14.7189 8.52359 14.7262L12.121 16.8174C12.5419 17.0692 13.0854 16.9573 13.3727 16.5598C14.5028 15.1715 15.7767 13.9068 17.1731 12.7866C17.5407 12.4884 17.6394 11.9683 17.4065 11.5561L15.3123 7.93754C15.157 7.66972 15.2481 7.3266 15.5159 7.17128C15.5197 7.16904 15.5236 7.16692 15.5275 7.16481L19.5371 4.84326C19.7971 4.67201 20.1467 4.74394 20.3179 5.00392C20.327 5.01761 20.3355 5.0318 20.3432 5.04624L22.4192 8.65277C22.6578 9.05737 23.1552 9.22837 23.592 9.05588C25.2672 8.40225 27.0062 7.92584 28.7806 7.6345C29.2569 7.57737 29.6145 7.17165 29.611 6.69201V2.54883C29.611 2.23247 29.8675 1.97597 30.1837 1.97597H34.8237C35.1401 1.97597 35.3966 2.23247 35.3966 2.54883V6.70396C35.3882 7.18111 35.7413 7.5877 36.2148 7.64644C37.9871 7.93119 39.7242 8.4025 41.3973 9.05264C41.8395 9.226 42.3424 9.05588 42.5883 8.64954L44.6673 5.043C44.8112 4.77456 45.1456 4.6735 45.4141 4.81749C45.4271 4.82446 45.4398 4.83193 45.4523 4.84002L49.4649 7.16157C49.7351 7.30594 49.837 7.64196 49.6926 7.91215C49.6887 7.91962 49.6844 7.92708 49.6801 7.93443L47.6192 11.5471C47.3768 11.9564 47.4739 12.4818 47.8465 12.7775C49.2411 13.902 50.5139 15.1697 51.6439 16.5598C51.9297 16.9471 52.4606 17.058 52.8774 16.8174L56.4717 14.7262C56.748 14.5654 57.1025 14.6591 57.2631 14.9354C57.2671 14.9424 57.2711 14.9494 57.2748 14.9565L59.5964 18.9661C59.7403 19.2418 59.6446 19.5818 59.3782 19.7419L55.7687 21.8028C55.3625 22.059 55.1896 22.5635 55.3535 23.0151C56.0075 24.6877 56.478 26.4263 56.7567 28.2005C56.8313 28.6645 57.2324 29.0051 57.7023 29.0036H61.8575C62.1851 29.0135 62.4455 29.282 62.4454 29.6097L62.4303 34.2073Z" fill="#FA9445"/>
</svg>
