<svg width="54" height="53" viewBox="0 0 54 53" fill="none" xmlns="http://www.w3.org/2000/svg">
<mask id="mask0_1528_4669" style="mask-type:luminance" maskUnits="userSpaceOnUse" x="0" y="0" width="52" height="52">
<path d="M51.3333 0H0V51.3333H51.3333V0Z" fill="white"/>
<path d="M12.5323 19.0496C11.4248 19.0496 10.5271 19.9474 10.5271 21.0549C10.5271 22.1623 11.4248 23.0601 12.5323 23.0601C13.6398 23.0601 14.5375 22.1623 14.5375 21.0549C14.5375 19.9474 13.6398 19.0496 12.5323 19.0496Z" fill="white"/>
<path d="M21.255 19.0496C20.1475 19.0496 19.2498 19.9474 19.2498 21.0549C19.2498 22.1623 20.1475 23.0601 21.255 23.0601C22.3624 23.0601 23.2602 22.1623 23.2602 21.0549C23.2602 19.9474 22.3624 19.0496 21.255 19.0496Z" fill="white"/>
<path d="M29.9776 19.0496C28.8701 19.0496 27.9724 19.9474 27.9724 21.0549C27.9724 22.1623 28.8701 23.0601 29.9776 23.0601C31.0851 23.0601 31.9828 22.1623 31.9828 21.0549C31.9828 19.9474 31.0851 19.0496 29.9776 19.0496Z" fill="white"/>
<path d="M38.7003 19.0496C37.5928 19.0496 36.6951 19.9474 36.6951 21.0549C36.6951 22.1623 37.5928 23.0601 38.7003 23.0601C39.8078 23.0601 40.7055 22.1623 40.7055 21.0549C40.7055 19.9474 39.8078 19.0496 38.7003 19.0496Z" fill="white"/>
<path d="M14.5375 29.7775C14.5375 28.67 13.6398 27.7723 12.5323 27.7723C11.4248 27.7723 10.5271 28.67 10.5271 29.7775C10.5271 30.885 11.4248 31.7827 12.5323 31.7827C13.6398 31.7827 14.5375 30.885 14.5375 29.7775Z" fill="white"/>
<path d="M14.5375 38.5002C14.5375 37.3927 13.6398 36.495 12.5323 36.495C11.4248 36.495 10.5271 37.3927 10.5271 38.5002C10.5271 39.6076 11.4248 40.5054 12.5323 40.5054C13.6398 40.5054 14.5375 39.6076 14.5375 38.5002Z" fill="white"/>
<path d="M23.2602 29.7775C23.2602 28.67 22.3624 27.7723 21.255 27.7723C20.1475 27.7723 19.2498 28.67 19.2498 29.7775C19.2498 30.885 20.1475 31.7827 21.255 31.7827C22.3624 31.7827 23.2602 30.885 23.2602 29.7775Z" fill="white"/>
<path d="M23.2602 38.5002C23.2602 37.3927 22.3624 36.495 21.255 36.495C20.1475 36.495 19.2498 37.3927 19.2498 38.5002C19.2498 39.6076 20.1475 40.5054 21.255 40.5054C22.3624 40.5054 23.2602 39.6076 23.2602 38.5002Z" fill="white"/>
<path d="M21.255 19.0496C20.1475 19.0496 19.2498 19.9474 19.2498 21.0549C19.2498 22.1623 20.1475 23.0601 21.255 23.0601C22.3624 23.0601 23.2602 22.1623 23.2602 21.0549C23.2602 19.9474 22.3624 19.0496 21.255 19.0496Z" fill="white"/>
<path d="M23.2602 29.7775C23.2602 28.67 22.3624 27.7723 21.255 27.7723C20.1475 27.7723 19.2498 28.67 19.2498 29.7775C19.2498 30.885 20.1475 31.7827 21.255 31.7827C22.3624 31.7827 23.2602 30.885 23.2602 29.7775Z" fill="white"/>
<path d="M23.2602 38.5002C23.2602 37.3927 22.3624 36.495 21.255 36.495C20.1475 36.495 19.2498 37.3927 19.2498 38.5002C19.2498 39.6076 20.1475 40.5054 21.255 40.5054C22.3624 40.5054 23.2602 39.6076 23.2602 38.5002Z" fill="white"/>
<path d="M31.9828 29.7775C31.9828 28.67 31.0851 27.7723 29.9776 27.7723C28.8701 27.7723 27.9724 28.67 27.9724 29.7775C27.9724 30.885 28.8701 31.7827 29.9776 31.7827C31.0851 31.7827 31.9828 30.885 31.9828 29.7775Z" fill="white"/>
<path d="M40.7055 29.7775C40.7055 28.67 39.8078 27.7723 38.7003 27.7723C37.5928 27.7723 36.6951 28.67 36.6951 29.7775C36.6951 30.885 37.5928 31.7827 38.7003 31.7827C39.8078 31.7827 40.7055 30.885 40.7055 29.7775Z" fill="white"/>
</mask>
<g mask="url(#mask0_1528_4669)">
<mask id="mask1_1528_4669" style="mask-type:luminance" maskUnits="userSpaceOnUse" x="-1" y="0" width="53" height="52">
<path d="M-0.0012207 0.00018692H51.3321V51.3335H-0.0012207V0.00018692Z" fill="white"/>
</mask>
<g mask="url(#mask1_1528_4669)">
<path d="M24.8638 49.3276H8.02002C4.69769 49.3276 2.00439 46.6343 2.00439 43.312V12.0308C2.00439 8.70845 4.69769 6.01516 8.02002 6.01516H43.3117C46.634 6.01516 49.3273 8.70845 49.3273 12.0308V26.2678" stroke="#6A9BE6" stroke-width="4.01041" stroke-miterlimit="10" stroke-linecap="round" stroke-linejoin="round"/>
<path d="M12.5313 19.0492C11.4239 19.0492 10.5261 19.9469 10.5261 21.0544C10.5261 22.1618 11.4239 23.0596 12.5313 23.0596C13.6388 23.0596 14.5365 22.1618 14.5365 21.0544C14.5365 19.9469 13.6388 19.0492 12.5313 19.0492Z" fill="#6A9BE6"/>
<path d="M21.254 19.0492C20.1465 19.0492 19.2488 19.9469 19.2488 21.0544C19.2488 22.1618 20.1465 23.0596 21.254 23.0596C22.3615 23.0596 23.2592 22.1618 23.2592 21.0544C23.2592 19.9469 22.3615 19.0492 21.254 19.0492Z" fill="#6A9BE6"/>
<path d="M29.9766 19.0492C28.8692 19.0492 27.9714 19.9469 27.9714 21.0544C27.9714 22.1618 28.8692 23.0596 29.9766 23.0596C31.0841 23.0596 31.9819 22.1618 31.9819 21.0544C31.9819 19.9469 31.0841 19.0492 29.9766 19.0492Z" fill="#6A9BE6"/>
<path d="M38.6993 19.0492C37.5918 19.0492 36.6941 19.9469 36.6941 21.0544C36.6941 22.1618 37.5918 23.0596 38.6993 23.0596C39.8068 23.0596 40.7045 22.1618 40.7045 21.0544C40.7045 19.9469 39.8068 19.0492 38.6993 19.0492Z" fill="#6A9BE6"/>
<path d="M14.5365 29.777C14.5365 28.6695 13.6388 27.7718 12.5313 27.7718C11.4239 27.7718 10.5261 28.6695 10.5261 29.777C10.5261 30.8845 11.4239 31.7822 12.5313 31.7822C13.6388 31.7822 14.5365 30.8845 14.5365 29.777Z" fill="#6A9BE6"/>
<path d="M14.5365 38.4997C14.5365 37.3922 13.6388 36.4945 12.5313 36.4945C11.4239 36.4945 10.5261 37.3922 10.5261 38.4997C10.5261 39.6072 11.4239 40.5049 12.5313 40.5049C13.6388 40.5049 14.5365 39.6072 14.5365 38.4997Z" fill="#6A9BE6"/>
<path d="M23.2592 29.777C23.2592 28.6695 22.3615 27.7718 21.254 27.7718C20.1465 27.7718 19.2488 28.6695 19.2488 29.777C19.2488 30.8845 20.1465 31.7822 21.254 31.7822C22.3615 31.7822 23.2592 30.8845 23.2592 29.777Z" fill="#6A9BE6"/>
<path d="M23.2592 38.4997C23.2592 37.3922 22.3615 36.4945 21.254 36.4945C20.1465 36.4945 19.2488 37.3922 19.2488 38.4997C19.2488 39.6072 20.1465 40.5049 21.254 40.5049C22.3615 40.5049 23.2592 39.6072 23.2592 38.4997Z" fill="#6A9BE6"/>
<path d="M21.254 19.0492C20.1465 19.0492 19.2488 19.9469 19.2488 21.0544C19.2488 22.1618 20.1465 23.0596 21.254 23.0596C22.3615 23.0596 23.2592 22.1618 23.2592 21.0544C23.2592 19.9469 22.3615 19.0492 21.254 19.0492Z" fill="#6A9BE6"/>
<path d="M23.2592 29.777C23.2592 28.6695 22.3615 27.7718 21.254 27.7718C20.1465 27.7718 19.2488 28.6695 19.2488 29.777C19.2488 30.8845 20.1465 31.7822 21.254 31.7822C22.3615 31.7822 23.2592 30.8845 23.2592 29.777Z" fill="#6A9BE6"/>
<path d="M23.2592 38.4997C23.2592 37.3922 22.3615 36.4945 21.254 36.4945C20.1465 36.4945 19.2488 37.3922 19.2488 38.4997C19.2488 39.6072 20.1465 40.5049 21.254 40.5049C22.3615 40.5049 23.2592 39.6072 23.2592 38.4997Z" fill="#6A9BE6"/>
<path d="M12.5317 2.00554V10.0264" stroke="#6A9BE6" stroke-width="4.01041" stroke-miterlimit="10" stroke-linecap="round" stroke-linejoin="round"/>
<path d="M38.0007 2.00554V10.0264" stroke="#6A9BE6" stroke-width="4.01041" stroke-miterlimit="10" stroke-linecap="round" stroke-linejoin="round"/>
</g>
</g>
<path d="M46.9013 38.7725C46.696 38.7725 46.5293 38.9387 46.5293 39.1443C46.5293 39.3497 46.696 39.5163 46.9013 39.5163C47.107 39.5163 47.2732 39.3497 47.2732 39.1443C47.2732 38.9387 47.107 38.7725 46.9013 38.7725Z" fill="#6A9BE5"/>
<path d="M40.1415 45.5303C39.9358 45.5303 39.7695 45.6969 39.7695 45.9022C39.7695 46.108 39.9358 46.2742 40.1415 46.2742C40.3468 46.2742 40.5135 46.108 40.5135 45.9022C40.5135 45.6969 40.3468 45.5303 40.1415 45.5303Z" fill="#6A9BE5"/>
<path d="M52.5822 35.2894C52.4567 35.2602 52.3247 35.2981 52.2341 35.3896L50.692 36.9439H49.9527L49.1389 36.1007V35.3511L50.6589 33.8085C50.7488 33.7172 50.7854 33.586 50.7556 33.4612C50.726 33.3365 50.6342 33.236 50.5127 33.195C50.1308 33.0663 49.7313 33.001 49.3248 33.001C48.1133 33.001 47.0127 33.5659 46.305 34.5509C45.6427 35.473 45.4386 36.603 45.7311 37.6845L42.9911 40.4245L38.4263 35.8492V34.9513C38.4263 34.8206 38.3577 34.6994 38.2457 34.6323L35.6156 33.054C35.4691 32.9661 35.2819 32.9892 35.1613 33.11L34.1093 34.1618C33.9887 34.2826 33.9656 34.4699 34.0533 34.6163L35.6313 37.2464C35.6984 37.3585 35.8195 37.4269 35.9501 37.4271L36.8478 37.4273L41.413 42.0026L38.6835 44.7321C37.602 44.4398 36.4714 44.6442 35.5489 45.3069C34.5645 46.0141 34 47.1145 34 48.326C34 48.7323 34.0652 49.132 34.194 49.5137C34.2351 49.6359 34.3367 49.7282 34.4622 49.7572C34.5879 49.7864 34.7197 49.7485 34.8105 49.657L36.3524 48.1028H37.0958L37.9428 48.9498V49.6931L36.3886 51.2351C36.2971 51.3259 36.2592 51.4577 36.2884 51.5834C36.3174 51.7089 36.4097 51.8105 36.5319 51.8516C36.9136 51.9803 37.3133 52.0456 37.7196 52.0456C38.9311 52.0456 40.0313 51.4809 40.7387 50.4965C41.4014 49.574 41.6058 48.4436 41.3135 47.3621L43.5056 45.1699L44.0078 45.7154L43.7774 45.9457C43.6321 46.091 43.6321 46.3265 43.7774 46.4718C43.9227 46.617 44.1581 46.617 44.3035 46.4718L44.5122 46.2632L49.2237 51.381C49.2272 51.3848 49.2308 51.3884 49.2345 51.392C50.1063 52.2638 51.5188 52.2641 52.391 51.3919C53.2608 50.5217 53.2608 49.1057 52.391 48.2355C52.3872 48.2317 52.3833 48.2281 52.3794 48.2244L47.2536 43.5219L47.4599 43.3156C47.6052 43.1704 47.6052 42.9349 47.4599 42.7896C47.3146 42.6443 47.0792 42.6443 46.9338 42.7896L46.7049 43.0186L46.1584 42.517L48.3612 40.3142C48.6743 40.3979 48.9975 40.4403 49.3248 40.4403C51.3759 40.4403 53.0444 38.7717 53.0444 36.7207C53.0444 36.3143 52.9792 35.9148 52.8504 35.5329C52.8093 35.4107 52.7078 35.3184 52.5822 35.2894ZM37.2654 36.7927C37.1956 36.7228 37.101 36.6872 37.0022 36.6872L36.1609 36.6869L34.8407 34.4827L35.4819 33.8414L37.6824 35.1619V36.0032C37.6824 36.1018 37.7215 36.1962 37.7911 36.2659L42.4651 40.9506L41.939 41.4766L37.2654 36.7927ZM46.727 44.0485L51.8702 48.7668C52.4448 49.3475 52.443 50.2876 51.8649 50.866C51.2854 51.4455 50.3473 51.4472 49.7655 50.8711L45.0386 45.7366L46.727 44.0485ZM46.1783 43.545L44.5342 45.1888L44.0321 44.6433L45.6319 43.0434L46.1783 43.545ZM49.3248 39.6964C48.9995 39.6964 48.6796 39.6442 48.3741 39.5413C48.2403 39.4964 48.0924 39.531 47.9924 39.6308C46.1276 41.4957 42.1094 45.5137 40.6298 46.9934C40.5299 47.0934 40.4951 47.2413 40.5403 47.3753C40.8495 48.2935 40.7016 49.2728 40.1344 50.0625C39.5687 50.8499 38.6885 51.3016 37.7196 51.3016C37.6108 51.3016 37.5025 51.2957 37.3953 51.2842L38.5767 50.1119C38.647 50.0422 38.6867 49.9471 38.6867 49.8479V48.7956C38.6867 48.697 38.6475 48.6024 38.5777 48.5326L37.5128 47.4677C37.4431 47.398 37.3485 47.3587 37.2498 47.3587H36.1975C36.0983 47.3587 36.0033 47.3984 35.9334 47.4687L34.7612 48.6502C34.7496 48.5429 34.7438 48.4347 34.7438 48.3259C34.7438 47.3568 35.1954 46.4767 35.9829 45.9111C36.7725 45.3438 37.752 45.1958 38.6703 45.5051C38.8041 45.5503 38.952 45.5156 39.052 45.4156C39.0725 45.3953 46.4094 38.0582 46.4146 38.053C46.5146 37.953 46.5491 37.8053 46.5041 37.6713C46.1948 36.7531 46.3424 35.7741 46.9092 34.985C47.4753 34.1968 48.3557 33.745 49.3247 33.745C49.4369 33.745 49.5483 33.7512 49.6587 33.7634L48.5019 34.9376C48.4333 35.0072 48.3949 35.1009 48.3949 35.1986V36.2508C48.3949 36.3473 48.4323 36.4399 48.4992 36.5092L49.527 37.5741C49.597 37.6467 49.6936 37.6877 49.7946 37.6877H50.8469C50.946 37.6877 51.041 37.6482 51.1109 37.5777L52.283 36.3964C52.2947 36.5037 52.3005 36.6119 52.3005 36.7207C52.3005 38.3615 50.9656 39.6964 49.3248 39.6964Z" fill="#6A9BE5" stroke="#6A9BE5"/>
<path d="M45.5859 39.9332L40.9311 44.5879C40.786 44.7331 40.786 44.9686 40.9311 45.1139C41.0764 45.2592 41.312 45.2592 41.4573 45.1139L46.112 40.4592C46.2573 40.314 46.2573 40.0785 46.112 39.9332C45.9667 39.7879 45.7312 39.7879 45.5859 39.9332Z" fill="#6A9BE5"/>
<path d="M50.2864 49.8134C50.4317 49.9582 50.6672 49.9582 50.8125 49.8125C50.9575 49.6671 50.9571 49.4315 50.8117 49.2865L47.4588 45.9444C47.3134 45.7994 47.0777 45.7998 46.9328 45.9453C46.7877 46.0909 46.7881 46.3263 46.9336 46.4713L50.2864 49.8134Z" fill="#6A9BE5"/>
</svg>
