<svg width="42" height="42" viewBox="0 0 42 42" fill="none" xmlns="http://www.w3.org/2000/svg">
<path d="M38.3198 15.8812C36.7383 15.8812 35.4444 17.0415 35.4444 18.4597V28.7736C35.4444 30.1917 36.7383 31.3521 38.3198 31.3521C39.9013 31.3521 41.1952 30.1917 41.1952 28.7736V18.4597C41.1952 17.0415 39.9013 15.8812 38.3198 15.8812ZM3.81475 15.8812C2.23327 15.8812 0.939331 17.0415 0.939331 18.4597V28.7736C0.939331 30.1917 2.23327 31.3521 3.81475 31.3521C5.39623 31.3521 6.69017 30.1917 6.69017 28.7736V18.4597C6.69017 17.0415 5.39623 15.8812 3.81475 15.8812ZM8.12788 30.0628C8.12788 31.0886 8.5823 32.0724 9.39117 32.7977C10.2 33.5231 11.2971 33.9305 12.441 33.9305V39.0875C12.441 40.5057 13.7349 41.666 15.3164 41.666C16.8979 41.666 18.1919 40.5057 18.1919 39.0875V33.9305H23.9427V39.0875C23.9427 40.5057 25.2366 41.666 26.8181 41.666C28.3996 41.666 29.6935 40.5057 29.6935 39.0875V33.9305C30.8374 33.9305 31.9345 33.5231 32.7434 32.7977C33.5522 32.0724 34.0067 31.0886 34.0067 30.0628V15.8812H8.12788V30.0628ZM33.9261 13.3027C33.7132 11.596 33.0804 9.95307 32.0735 8.49231C31.0665 7.03156 29.7106 5.78944 28.1034 4.85558L29.5411 2.27452C29.7116 1.96849 29.7395 1.61428 29.6187 1.28982C29.4979 0.965348 29.2383 0.697198 28.897 0.544356C28.5558 0.391514 28.1608 0.366501 27.7989 0.474818C27.4371 0.583135 27.1381 0.815911 26.9676 1.12194L25.5242 3.71073L25.1504 3.57665C22.4995 2.78694 19.635 2.78694 16.9842 3.57665L16.6104 3.71073L15.1669 1.12194C14.9965 0.815911 14.6974 0.583135 14.3356 0.474818C13.9738 0.366501 13.5788 0.391514 13.2375 0.544356C12.8962 0.697198 12.6367 0.965348 12.5159 1.28982C12.3951 1.61428 12.423 1.96849 12.5934 2.27452L14.0311 4.85558C12.4238 5.7893 11.0678 7.03139 10.0608 8.49217C9.05389 9.95295 8.42118 11.596 8.20839 13.3027V14.5919H34.0067V13.3027H33.9261ZM16.7541 10.7242C16.3728 10.7245 16.007 10.589 15.7371 10.3475C15.4672 10.106 15.3154 9.77818 15.315 9.43625C15.3146 9.09432 15.4657 8.76626 15.7351 8.52424C16.0044 8.28222 16.37 8.14606 16.7513 8.14572H16.757C17.1383 8.14606 17.5039 8.28222 17.7732 8.52424C18.0426 8.76626 18.1937 9.09432 18.1933 9.43625C18.1929 9.77818 18.0411 10.106 17.7712 10.3475C17.5013 10.589 17.1354 10.7245 16.7541 10.7242ZM25.3804 10.7242C24.9991 10.7245 24.6333 10.589 24.3634 10.3475C24.0935 10.106 23.9416 9.77818 23.9413 9.43625C23.9409 9.09432 24.092 8.76626 24.3613 8.52424C24.6307 8.28222 24.9962 8.14606 25.3775 8.14572H25.3862C25.7675 8.14606 26.133 8.28222 26.4023 8.52424C26.6717 8.76626 26.8228 9.09432 26.8224 9.43625C26.822 9.77818 26.6702 10.106 26.4003 10.3475C26.1304 10.589 25.7646 10.7245 25.3833 10.7242H25.3804Z" fill="#AAC148"/>
</svg>
