<svg width="46" height="41" viewBox="0 0 46 41" fill="none" xmlns="http://www.w3.org/2000/svg">
<path d="M10.2098 0.522705H35.2988C40.6984 0.522705 45.0754 4.44774 45.0754 9.28976V31.7879C45.0754 36.6299 40.6984 40.5549 35.2988 40.5549H10.2098C4.81015 40.5549 0.433105 36.6299 0.433105 31.7879V9.28976C0.433105 4.44774 4.81015 0.522705 10.2098 0.522705Z" fill="url(#paint0_linear_4583_2000)"/>
<path d="M14.7397 29.5791L14.7439 29.5803L13.2175 31.951C12.6604 32.8163 11.4264 33.1128 10.4614 32.6132C9.49652 32.1136 9.16571 31.0071 9.72287 30.1417L10.8473 28.3953L10.9552 28.2277C11.1479 27.9793 11.6235 27.5505 12.5747 27.6312C12.5747 27.6312 14.8133 27.8491 14.9753 28.8924C14.9753 28.8924 14.9973 29.2357 14.7397 29.5791ZM36.3883 23.5242H31.6287C31.3045 23.5046 31.163 23.4008 31.1072 23.3404L31.1038 23.335L26.0088 15.4214L26.0021 15.4253L25.6966 15.0325C25.1958 14.3457 24.4006 16.1021 24.4006 16.1021C23.4511 18.0593 24.5354 20.2844 24.9133 20.957L31.9901 31.9486C32.5471 32.8138 33.7811 33.1105 34.7463 32.6107C35.7112 32.1111 36.042 31.0046 35.4846 30.1392L33.7152 27.3907C33.6808 27.3241 33.6212 27.1433 33.9841 27.1426H36.3883C37.5026 27.1426 38.4059 26.3325 38.4059 25.3333C38.4059 24.3341 37.5026 23.5242 36.3883 23.5242ZM27.1435 25.9837C27.1435 25.9837 27.3976 27.1426 26.4146 27.1426H8.81938C7.70507 27.1426 6.80176 26.3325 6.80176 25.3333C6.80176 24.3341 7.70507 23.524 8.81938 23.524H13.3429C14.0732 23.4862 14.2462 23.1081 14.2462 23.1081L14.2504 23.1099L20.155 13.9388L20.1533 13.9385C20.2609 13.7613 20.1713 13.5938 20.1557 13.5674L18.2056 10.5386C17.6485 9.67334 17.9791 8.56667 18.9441 8.0672C19.9092 7.56758 21.1431 7.86392 21.7003 8.7293L22.6046 10.134L23.5074 8.7318C24.0646 7.86657 25.2985 7.56993 26.2635 8.06971C27.2286 8.56933 27.5592 9.67569 27.0021 10.5411L18.7854 23.3029C18.7495 23.3806 18.7385 23.5026 19.0059 23.524H23.9172L23.9183 23.567C23.9183 23.567 26.7569 23.6066 27.1435 25.9837Z" fill="white"/>
<defs>
<linearGradient id="paint0_linear_4583_2000" x1="2232.55" y1="0.522705" x2="2232.55" y2="4003.75" gradientUnits="userSpaceOnUse">
<stop stop-color="#17C9FB"/>
<stop offset="1" stop-color="#1A74E8"/>
</linearGradient>
</defs>
</svg>
