<svg width="41" height="46" viewBox="0 0 41 46" fill="none" xmlns="http://www.w3.org/2000/svg">
<path d="M4.01203 40.7638H1.54152L1.08643 42.0234H0.306266L2.35419 36.3917H3.20749L5.24728 42.0234H4.46712L4.01203 40.7638ZM3.80073 40.1624L2.77677 37.3018L1.75281 40.1624H3.80073ZM6.87934 38.3908C7.02562 38.1362 7.24233 37.9249 7.52948 37.7569C7.82204 37.5836 8.16065 37.4969 8.54531 37.4969C8.94081 37.4969 9.29838 37.5917 9.61803 37.7813C9.9431 37.9709 10.1977 38.2391 10.3819 38.5859C10.5661 38.9272 10.6582 39.3254 10.6582 39.7805C10.6582 40.2302 10.5661 40.6311 10.3819 40.9832C10.1977 41.3354 9.9431 41.609 9.61803 41.804C9.29838 41.9991 8.94081 42.0966 8.54531 42.0966C8.16607 42.0966 7.83016 42.0126 7.5376 41.8447C7.25046 41.6713 7.03104 41.4573 6.87934 41.2026V44.1364H6.13982V37.57H6.87934V38.3908ZM9.90246 39.7805C9.90246 39.4446 9.83474 39.152 9.6993 38.9028C9.56385 38.6536 9.37965 38.464 9.14668 38.3339C8.91914 38.2039 8.66721 38.1389 8.3909 38.1389C8.12001 38.1389 7.86809 38.2066 7.63512 38.3421C7.40758 38.4721 7.22337 38.6644 7.08251 38.9191C6.94707 39.1683 6.87934 39.4581 6.87934 39.7886C6.87934 40.1245 6.94707 40.4198 7.08251 40.6744C7.22337 40.9236 7.40758 41.116 7.63512 41.2514C7.86809 41.3814 8.12001 41.4464 8.3909 41.4464C8.66721 41.4464 8.91914 41.3814 9.14668 41.2514C9.37965 41.116 9.56385 40.9236 9.6993 40.6744C9.83474 40.4198 9.90246 40.1218 9.90246 39.7805ZM12.3712 38.3908C12.5175 38.1362 12.7342 37.9249 13.0213 37.7569C13.3139 37.5836 13.6525 37.4969 14.0372 37.4969C14.4327 37.4969 14.7902 37.5917 15.1099 37.7813C15.4349 37.9709 15.6896 38.2391 15.8738 38.5859C16.058 38.9272 16.1501 39.3254 16.1501 39.7805C16.1501 40.2302 16.058 40.6311 15.8738 40.9832C15.6896 41.3354 15.4349 41.609 15.1099 41.804C14.7902 41.9991 14.4327 42.0966 14.0372 42.0966C13.6579 42.0966 13.322 42.0126 13.0295 41.8447C12.7423 41.6713 12.5229 41.4573 12.3712 41.2026V44.1364H11.6317V37.57H12.3712V38.3908ZM15.3943 39.7805C15.3943 39.4446 15.3266 39.152 15.1911 38.9028C15.0557 38.6536 14.8715 38.464 14.6385 38.3339C14.411 38.2039 14.1591 38.1389 13.8828 38.1389C13.6119 38.1389 13.3599 38.2066 13.127 38.3421C12.8994 38.4721 12.7152 38.6644 12.5744 38.9191C12.4389 39.1683 12.3712 39.4581 12.3712 39.7886C12.3712 40.1245 12.4389 40.4198 12.5744 40.6744C12.7152 40.9236 12.8994 41.116 13.127 41.2514C13.3599 41.3814 13.6119 41.4464 13.8828 41.4464C14.1591 41.4464 14.411 41.3814 14.6385 41.2514C14.8715 41.116 15.0557 40.9236 15.1911 40.6744C15.3266 40.4198 15.3943 40.1218 15.3943 39.7805ZM21.0861 42.0803C20.7123 42.0803 20.3764 42.0153 20.0784 41.8853C19.7858 41.7498 19.5556 41.5656 19.3876 41.3327C19.2197 41.0943 19.133 40.8207 19.1276 40.5119H19.9159C19.9429 40.7773 20.0513 41.0022 20.2409 41.1864C20.436 41.3652 20.7177 41.4546 21.0861 41.4546C21.4382 41.4546 21.7146 41.3679 21.915 41.1945C22.1209 41.0157 22.2238 40.7882 22.2238 40.5119C22.2238 40.2952 22.1642 40.1191 22.045 39.9836C21.9258 39.8482 21.7769 39.7453 21.5981 39.6748C21.4193 39.6044 21.1782 39.5286 20.8748 39.4473C20.501 39.3498 20.2003 39.2522 19.9727 39.1547C19.7506 39.0572 19.5583 38.9055 19.3957 38.6996C19.2386 38.4883 19.1601 38.2066 19.1601 37.8545C19.1601 37.5456 19.2386 37.272 19.3957 37.0337C19.5529 36.7953 19.7723 36.6111 20.054 36.4811C20.3411 36.351 20.6689 36.286 21.0373 36.286C21.5683 36.286 22.0017 36.4187 22.3376 36.6842C22.6789 36.9497 22.8712 37.3018 22.9146 37.7407H22.1019C22.0748 37.524 21.9611 37.3344 21.7606 37.1718C21.5601 37.0039 21.2947 36.9199 20.9642 36.9199C20.6554 36.9199 20.4035 37.0012 20.2084 37.1637C20.0134 37.3208 19.9159 37.5429 19.9159 37.8301C19.9159 38.036 19.9727 38.2039 20.0865 38.3339C20.2057 38.464 20.3493 38.5642 20.5172 38.6346C20.6906 38.6996 20.9317 38.7755 21.2405 38.8622C21.6143 38.9651 21.915 39.068 22.1426 39.171C22.3701 39.2685 22.5651 39.4229 22.7277 39.6342C22.8902 39.8401 22.9715 40.1218 22.9715 40.4794C22.9715 40.7557 22.8983 41.0157 22.7521 41.2595C22.6058 41.5033 22.3891 41.7011 22.1019 41.8528C21.8148 42.0045 21.4762 42.0803 21.0861 42.0803ZM24.9618 38.1795V40.8044C24.9618 41.0211 25.0079 41.1756 25.1 41.2677C25.1921 41.3543 25.3519 41.3977 25.5794 41.3977H26.1239V42.0234H25.4575C25.0458 42.0234 24.737 41.9286 24.5311 41.739C24.3252 41.5494 24.2223 41.2379 24.2223 40.8044V38.1795H23.6453V37.57H24.2223V36.4485H24.9618V37.57H26.1239V38.1795H24.9618ZM28.9622 42.0966C28.5451 42.0966 28.1658 42.0018 27.8245 41.8121C27.4886 41.6225 27.2231 41.3543 27.0281 41.0076C26.8385 40.6554 26.7436 40.2491 26.7436 39.7886C26.7436 39.3335 26.8412 38.9326 27.0362 38.5859C27.2367 38.2337 27.5076 37.9655 27.8489 37.7813C28.1902 37.5917 28.5721 37.4969 28.9947 37.4969C29.4173 37.4969 29.7993 37.5917 30.1406 37.7813C30.4819 37.9655 30.7501 38.231 30.9451 38.5777C31.1456 38.9245 31.2458 39.3281 31.2458 39.7886C31.2458 40.2491 31.1429 40.6554 30.937 41.0076C30.7366 41.3543 30.463 41.6225 30.1162 41.8121C29.7695 42.0018 29.3848 42.0966 28.9622 42.0966ZM28.9622 41.4464C29.2277 41.4464 29.4769 41.3841 29.7099 41.2595C29.9428 41.1349 30.1298 40.948 30.2706 40.6988C30.4169 40.4496 30.49 40.1462 30.49 39.7886C30.49 39.431 30.4196 39.1276 30.2787 38.8784C30.1379 38.6292 29.9537 38.445 29.7261 38.3258C29.4986 38.2012 29.2521 38.1389 28.9866 38.1389C28.7157 38.1389 28.4665 38.2012 28.239 38.3258C28.0168 38.445 27.838 38.6292 27.7026 38.8784C27.5672 39.1276 27.4994 39.431 27.4994 39.7886C27.4994 40.1516 27.5644 40.4577 27.6945 40.7069C27.8299 40.9561 28.0087 41.143 28.2308 41.2677C28.453 41.3868 28.6968 41.4464 28.9622 41.4464ZM32.9577 38.2933C33.0877 38.0387 33.2719 37.8409 33.5103 37.7001C33.7541 37.5592 34.0494 37.4888 34.3961 37.4888V38.2527H34.2011C33.3722 38.2527 32.9577 38.7023 32.9577 39.6017V42.0234H32.2182V37.57H32.9577V38.2933ZM39.3131 39.6261C39.3131 39.7669 39.305 39.9159 39.2887 40.073H35.7293C35.7564 40.5119 35.9053 40.8559 36.1762 41.1051C36.4525 41.3489 36.7857 41.4708 37.1758 41.4708C37.4955 41.4708 37.7609 41.3977 37.9722 41.2514C38.1889 41.0997 38.3406 40.8992 38.4273 40.65H39.2237C39.1045 41.078 38.8662 41.4275 38.5086 41.6984C38.151 41.9638 37.7068 42.0966 37.1758 42.0966C36.7532 42.0966 36.374 42.0018 36.0381 41.8121C35.7076 41.6225 35.4475 41.3543 35.2579 41.0076C35.0683 40.6554 34.9735 40.2491 34.9735 39.7886C34.9735 39.3281 35.0656 38.9245 35.2498 38.5777C35.434 38.231 35.6913 37.9655 36.0218 37.7813C36.3577 37.5917 36.7424 37.4969 37.1758 37.4969C37.5984 37.4969 37.9722 37.589 38.2973 37.7732C38.6224 37.9574 38.8716 38.212 39.0449 38.5371C39.2237 38.8567 39.3131 39.2197 39.3131 39.6261ZM38.5492 39.4717C38.5492 39.1899 38.4869 38.9488 38.3623 38.7484C38.2377 38.5425 38.067 38.3881 37.8503 38.2852C37.639 38.1768 37.4034 38.1226 37.1433 38.1226C36.7695 38.1226 36.4498 38.2418 36.1844 38.4802C35.9243 38.7186 35.7753 39.0491 35.7374 39.4717H38.5492Z" fill="#9A9FAA"/>
<path d="M11.0417 0.956543H28.8314C32.6601 0.956543 35.7637 4.01401 35.7637 7.78577V25.311C35.7637 29.0828 32.6601 32.1402 28.8314 32.1402H11.0417C7.21299 32.1402 4.10938 29.0828 4.10938 25.311V7.78577C4.10938 4.01401 7.21299 0.956543 11.0417 0.956543Z" fill="url(#paint0_linear_177_1222)"/>
<path d="M14.2555 23.5913L14.2585 23.5923L13.1762 25.439C12.7811 26.1131 11.9061 26.344 11.2219 25.9548C10.5377 25.5656 10.3032 24.7037 10.6982 24.0296L11.4955 22.6692L11.572 22.5386C11.7087 22.3452 12.0459 22.0112 12.7204 22.074C12.7204 22.074 14.3077 22.2437 14.4225 23.0565C14.4225 23.0565 14.4381 23.3238 14.2555 23.5913ZM29.6058 18.8748H26.2309C26.001 18.8596 25.9007 18.7787 25.8612 18.7317L25.8587 18.7274L22.246 12.563L22.2413 12.5661L22.0247 12.2601C21.6695 11.7251 21.1057 13.0933 21.1057 13.0933C20.4324 14.6179 21.2013 16.3511 21.4692 16.875L26.4872 25.4371C26.8821 26.1111 27.7571 26.3422 28.4415 25.9529C29.1256 25.5637 29.3602 24.7018 28.965 24.0277L27.7103 21.8867C27.686 21.8348 27.6437 21.694 27.901 21.6934H29.6058C30.3959 21.6934 31.0364 21.0624 31.0364 20.284C31.0364 19.5057 30.3959 18.8748 29.6058 18.8748ZM23.0506 20.7906C23.0506 20.7906 23.2307 21.6934 22.5337 21.6934H10.0576C9.26746 21.6934 8.62695 21.0624 8.62695 20.284C8.62695 19.5057 9.26746 18.8747 10.0576 18.8747H13.2651C13.7829 18.8452 13.9056 18.5506 13.9056 18.5506L13.9085 18.5521L18.0953 11.4081L18.0941 11.4079C18.1704 11.2699 18.1068 11.1394 18.0958 11.1188L16.713 8.75946C16.318 8.08548 16.5524 7.22342 17.2367 6.83435C17.921 6.44516 18.7959 6.676 19.191 7.3501L19.8322 8.44433L20.4724 7.35205C20.8674 6.67807 21.7424 6.44699 22.4267 6.8363C23.1109 7.22549 23.3454 8.0873 22.9503 8.76141L17.1242 18.7024C17.0987 18.763 17.0909 18.858 17.2805 18.8747H20.7629L20.7637 18.9082C20.7637 18.9082 22.7765 18.939 23.0506 20.7906Z" fill="white"/>
<defs>
<linearGradient id="paint0_linear_177_1222" x1="1586.83" y1="0.956543" x2="1586.83" y2="3119.32" gradientUnits="userSpaceOnUse">
<stop stop-color="#17C9FB"/>
<stop offset="1" stop-color="#1A74E8"/>
</linearGradient>
</defs>
</svg>
