<svg width="24" height="20" viewBox="0 0 24 20" fill="none" xmlns="http://www.w3.org/2000/svg">
<path d="M9.61 0.295607L0 9.95561L9.61 19.6156C9.69679 19.7296 9.80706 19.8236 9.93333 19.8912C10.0596 19.9589 10.1989 19.9986 10.3419 20.0077C10.4849 20.0169 10.6281 19.9952 10.762 19.9441C10.8958 19.893 11.0172 19.8138 11.1177 19.7118C11.2183 19.6098 11.2958 19.4873 11.3449 19.3528C11.3941 19.2182 11.4137 19.0747 11.4025 18.9318C11.3914 18.789 11.3497 18.6503 11.2802 18.525C11.2108 18.3997 11.1152 18.2908 11 18.2056L3.81 10.9556L22.94 10.9556C23.2052 10.9556 23.4596 10.8503 23.6471 10.6627C23.8346 10.4752 23.94 10.2208 23.94 9.95561C23.94 9.69039 23.8346 9.43604 23.6471 9.2485C23.4596 9.06096 23.2052 8.95561 22.94 8.95561L3.81 8.95561L11 1.70561C11.187 1.5173 11.2915 1.26243 11.2906 0.99707C11.2896 0.731707 11.1833 0.477583 10.995 0.290606C10.8067 0.103628 10.5518 -0.000888824 10.2865 4.95911e-05C10.0211 0.000988007 9.76698 0.107304 9.58 0.295607H9.61Z" fill="#656565"/>
</svg>
