<svg width="37" height="36" viewBox="0 0 37 36" fill="none" xmlns="http://www.w3.org/2000/svg">
<g clip-path="url(#clip0_2667_2303)">
<path d="M31.5754 19.5904C31.9967 19.1685 32.2334 18.5967 32.2334 18.0004C32.2334 17.4042 31.9967 16.8323 31.5754 16.4104L23.0914 7.92192C22.6693 7.49982 22.0968 7.26269 21.4999 7.26269C20.903 7.26269 20.3305 7.49982 19.9084 7.92192C19.4863 8.34401 19.2492 8.91649 19.2492 9.51342C19.2492 10.1103 19.4863 10.6828 19.9084 11.1049L24.5524 15.7504L7.24988 15.7504C6.65314 15.7504 6.08085 15.9875 5.65889 16.4094C5.23693 16.8314 4.99988 17.4037 4.99988 18.0004C4.99988 18.5972 5.23693 19.1694 5.65889 19.5914C6.08085 20.0134 6.65314 20.2504 7.24988 20.2504L24.5524 20.2504L19.9084 24.8944C19.6994 25.1034 19.5336 25.3515 19.4205 25.6246C19.3074 25.8977 19.2492 26.1903 19.2492 26.4859C19.2492 26.7815 19.3074 27.0742 19.4205 27.3472C19.5336 27.6203 19.6994 27.8684 19.9084 28.0774C20.1174 28.2864 20.3655 28.4522 20.6386 28.5653C20.9116 28.6784 21.2043 28.7366 21.4999 28.7366C21.7954 28.7366 22.0881 28.6784 22.3612 28.5653C22.6343 28.4522 22.8824 28.2864 23.0914 28.0774L31.5754 19.5904Z" fill="black"/>
</g>
<defs>
<clipPath id="clip0_2667_2303">
<rect width="36" height="36" fill="white" transform="translate(36.5) rotate(90)"/>
</clipPath>
</defs>
</svg>
