<svg width="20" height="14" viewBox="0 0 20 14" fill="none" xmlns="http://www.w3.org/2000/svg">
<path d="M1.74158 5.94627C1.24335 5.94627 0.839462 6.35016 0.839462 6.84839C0.839462 7.34661 1.24335 7.7505 1.74158 7.7505V5.94627ZM18.762 7.48628C19.1143 7.13398 19.1143 6.56279 18.762 6.2105L13.0209 0.469474C12.6686 0.117177 12.0974 0.117177 11.7452 0.469474C11.3929 0.821772 11.3929 1.39296 11.7452 1.74526L16.8483 6.84839L11.7452 11.9515C11.3929 12.3038 11.3929 12.875 11.7452 13.2273C12.0974 13.5796 12.6686 13.5796 13.0209 13.2273L18.762 7.48628ZM1.74158 7.7505H18.1241V5.94627H1.74158V7.7505Z" fill="#C22032"/>
</svg>
