<svg width="25" height="20" viewBox="0 0 25 20" fill="none" xmlns="http://www.w3.org/2000/svg">
<path d="M14.89 0.295607L24.5 9.95561L14.89 19.6156C14.8032 19.7296 14.6929 19.8236 14.5667 19.8912C14.4404 19.9589 14.3011 19.9986 14.1581 20.0077C14.0151 20.0169 13.8719 19.9952 13.738 19.9441C13.6042 19.893 13.4828 19.8138 13.3823 19.7118C13.2817 19.6098 13.2042 19.4873 13.1551 19.3528C13.1059 19.2182 13.0863 19.0747 13.0975 18.9318C13.1086 18.789 13.1503 18.6503 13.2198 18.525C13.2892 18.3997 13.3848 18.2908 13.5 18.2056L20.69 10.9556L1.56 10.9556C1.29478 10.9556 1.04043 10.8503 0.852894 10.6627C0.665358 10.4752 0.559999 10.2208 0.559999 9.95561C0.559999 9.69039 0.665358 9.43604 0.852894 9.2485C1.04043 9.06096 1.29478 8.95561 1.56 8.95561L20.69 8.95561L13.5 1.70561C13.313 1.5173 13.2085 1.26243 13.2094 0.99707C13.2104 0.731707 13.3167 0.477583 13.505 0.290606C13.6933 0.103628 13.9482 -0.000888824 14.2135 4.95911e-05C14.4789 0.000988007 14.733 0.107304 14.92 0.295607H14.89Z" fill="#656565"/>
</svg>
