<svg width="29" height="20" viewBox="0 0 29 20" fill="none" xmlns="http://www.w3.org/2000/svg">
<path d="M2 8.64683C1.25266 8.64683 0.646828 9.25266 0.646828 10C0.646828 10.7473 1.25266 11.3532 2 11.3532L2 8.64683ZM27.9568 10.9568C28.4853 10.4284 28.4853 9.57161 27.9568 9.04316L19.3453 0.431628C18.8169 -0.096818 17.9601 -0.096818 17.4316 0.431628C16.9032 0.960075 16.9032 1.81686 17.4316 2.3453L25.0863 10L17.4316 17.6547C16.9032 18.1831 16.9032 19.0399 17.4316 19.5684C17.9601 20.0968 18.8169 20.0968 19.3453 19.5684L27.9568 10.9568ZM2 11.3532L27 11.3532V8.64683L2 8.64683L2 11.3532Z" fill="#A5A5A5"/>
</svg>
