<svg width="34" height="14" viewBox="0 0 34 14" fill="none" xmlns="http://www.w3.org/2000/svg">
<path fill-rule="evenodd" clip-rule="evenodd" d="M33.7288 6.45189C33.9025 6.59732 34 6.79446 34 7C34 7.20554 33.9025 7.40268 33.7288 7.54811L26.3104 13.7531C26.2256 13.8293 26.1232 13.8905 26.0094 13.9329C25.8957 13.9752 25.7729 13.998 25.6484 13.9999C25.5239 14.0017 25.4002 13.9826 25.2847 13.9436C25.1693 13.9045 25.0644 13.8465 24.9763 13.7728C24.8883 13.6992 24.8189 13.6114 24.7722 13.5149C24.7256 13.4183 24.7027 13.3148 24.7049 13.2107C24.7071 13.1065 24.7343 13.0038 24.785 12.9087C24.8357 12.8136 24.9088 12.7279 24.9999 12.6569L30.8356 7.77563L0.927295 7.77563C0.681362 7.77563 0.445499 7.69391 0.271598 7.54845C0.097694 7.40299 -3.81083e-07 7.20571 -3.70203e-07 7C-3.59324e-07 6.79429 0.097694 6.59701 0.271598 6.45155C0.445499 6.30609 0.681362 6.22437 0.927295 6.22437L30.8356 6.22437L24.9999 1.34309C24.9088 1.27208 24.8357 1.18645 24.785 1.0913C24.7343 0.996162 24.7071 0.893455 24.7049 0.789311C24.7027 0.685167 24.7256 0.581719 24.7722 0.48514C24.8189 0.388561 24.8883 0.300828 24.9763 0.227176C25.0644 0.153523 25.1693 0.0954602 25.2847 0.0564503C25.4002 0.0174403 25.5239 -0.00171709 25.6484 0.000120409C25.7729 0.00195791 25.8957 0.0247526 26.0094 0.0671453C26.1232 0.109538 26.2256 0.17066 26.3104 0.246864L33.7288 6.45189Z" fill="#C22032"/>
</svg>
