<svg width="21" height="25" viewBox="0 0 21 25" fill="none" xmlns="http://www.w3.org/2000/svg">
<path d="M19.8641 9.9601L10.2041 0.350098L0.544062 9.9601C0.430088 10.0469 0.336093 10.1572 0.268439 10.2834C0.200786 10.4097 0.161053 10.549 0.151932 10.692C0.14281 10.835 0.164513 10.9782 0.215569 11.1121C0.266626 11.2459 0.345845 11.3673 0.447864 11.4678C0.549883 11.5684 0.67232 11.6459 0.806886 11.695C0.941451 11.7442 1.085 11.7638 1.22783 11.7526C1.37065 11.7415 1.5094 11.6998 1.6347 11.6303C1.76 11.5609 1.86891 11.4653 1.95406 11.3501L9.20406 4.1601V23.2901C9.20406 23.5553 9.30942 23.8097 9.49695 23.9972C9.68449 24.1847 9.93884 24.2901 10.2041 24.2901C10.4693 24.2901 10.7236 24.1847 10.9112 23.9972C11.0987 23.8097 11.2041 23.5553 11.2041 23.2901V4.1601L18.4541 11.3501C18.6424 11.5371 18.8972 11.6416 19.1626 11.6407C19.428 11.6397 19.6821 11.5334 19.8691 11.3451C20.056 11.1568 20.1606 10.9019 20.1596 10.6366C20.1587 10.3712 20.0524 10.1171 19.8641 9.9301V9.9601Z" fill="white"/>
</svg>
