<?xml version="1.0" encoding="utf-8"?>
<!-- Generator: Adobe Illustrator 26.0.1, SVG Export Plug-In . SVG Version: 6.00 Build 0)  -->
<svg version="1.1" id="Layer_1" xmlns="http://www.w3.org/2000/svg" xmlns:xlink="http://www.w3.org/1999/xlink" x="0px" y="0px"
	 width="70" height="70"  viewBox="0 0 70 70" style="enable-background:new 0 0 70 70;" xml:space="preserve">
<style type="text/css">
	.st0{fill:none;stroke:#6F68AF;stroke-width:1.5;stroke-miterlimit:10;}
	.st1{fill:#6F68AF;}
</style>
<path class="st0" d="M19.1,9.3l27,14.8"/>
<path class="st0" d="M32.2,31.5L4,17.4"/>
<path class="st0" d="M61.3,43.5V16.4"/>
<path class="st0" d="M4,17.4v36.1l28.2,13.4V31.5l28.4-15L32.3,2.8L4,17.4z"/>
<path class="st1" d="M66.7,49.7H47.1v2.4h19.6V49.7z"/>
<path class="st1" d="M45.1,49.7h-2.9v2.4h2.9V49.7z"/>
<path class="st1" d="M66.7,55.1H47.1v2.4h19.6V55.1z"/>
<path class="st1" d="M45.1,55.1h-2.9v2.4h2.9V55.1z"/>
<path class="st1" d="M66.7,60.4H47.1v2.4h19.6V60.4z"/>
<path class="st1" d="M45.1,60.4h-2.9v2.4h2.9V60.4z"/>
</svg>
