<svg width="82" height="82" viewBox="0 0 82 82" fill="none" xmlns="http://www.w3.org/2000/svg">
<path d="M29.5017 19.8895L50.8946 31.5609" stroke="#C94967" stroke-width="2.73333" stroke-miterlimit="10"/>
<path d="M40.1163 37.8021L17.3203 26.4041" stroke="#C94967" stroke-width="2.73333" stroke-miterlimit="10"/>
<path d="M64.6797 47.4962V25.6022" stroke="#C94967" stroke-width="2.73333" stroke-miterlimit="10"/>
<path d="M17.3203 26.404V55.5596L40.1163 66.4109V37.802L63.0308 25.666L40.1983 14.6143L17.3203 26.404Z" stroke="#C94967" stroke-width="2.73333" stroke-miterlimit="10"/>
<path d="M69.9823 51.8787H50.1292V55.0584H69.9823V51.8787Z" fill="#C94967"/>
<path d="M47.2229 51.8787H43.9065V55.0584H47.2229V51.8787Z" fill="#C94967"/>
<path d="M69.9823 58.2747H50.1292V61.4544H69.9823V58.2747Z" fill="#C94967"/>
<path d="M47.2229 58.2747H43.9065V61.4544H47.2229V58.2747Z" fill="#C94967"/>
<path d="M69.9823 64.6707H50.1292V67.8504H69.9823V64.6707Z" fill="#C94967"/>
<path d="M47.2229 64.6707H43.9065V67.8504H47.2229V64.6707Z" fill="#C94967"/>
</svg>
