<svg width="65" height="58" viewBox="0 0 65 58" fill="none" xmlns="http://www.w3.org/2000/svg">
<path d="M55.4738 36.334H39.7366V39.2984H55.4738V36.334Z" fill="#7B67EF"/>
<path d="M55.4738 41.6567H39.7366V44.6212H55.4738V41.6567Z" fill="#7B67EF"/>
<path d="M55.4738 46.9736H39.7366V49.9381H55.4738V46.9736Z" fill="#7B67EF"/>
<path d="M37.4327 36.334H33.7422V39.2984H37.4327V36.334Z" fill="#7B67EF"/>
<path d="M37.4327 41.6567H33.7422V44.6212H37.4327V41.6567Z" fill="#7B67EF"/>
<path d="M37.4327 46.9736H33.7422V49.9381H37.4327V46.9736Z" fill="#7B67EF"/>
<path d="M10.8479 18.676V39.2982L28.9179 46.9736V26.738L47.0818 18.154L28.9829 10.3369L10.8479 18.676Z" stroke="#7B67EF" stroke-width="3.05556" stroke-miterlimit="10"/>
<path d="M28.9179 26.7378L10.8479 18.6758" stroke="#7B67EF" stroke-width="3.05556" stroke-miterlimit="10"/>
<path d="M20.5039 14.0684L37.4617 22.3237" stroke="#7B67EF" stroke-width="3.05556" stroke-miterlimit="10"/>
<path d="M49.2483 33.5949V18.1089" stroke="#7B67EF" stroke-width="3.05556" stroke-miterlimit="10"/>
</svg>
