<?xml version="1.0" encoding="utf-8"?>
<!-- Generator: Adobe Illustrator 26.0.1, SVG Export Plug-In . SVG Version: 6.00 Build 0)  -->
<svg version="1.1" id="Layer_1" xmlns="http://www.w3.org/2000/svg" xmlns:xlink="http://www.w3.org/1999/xlink" x="0px" y="0px"
	 width="70" height="70" viewBox="0 0 70 70" style="enable-background:new 0 0 70 70;" xml:space="preserve">
<style type="text/css">
	.st0{fill:none;stroke:#709AD1;stroke-width:1.5;stroke-linecap:round;stroke-miterlimit:10;}
	.st1{fill:#709AD1;}
</style>
<g>
	<path class="st0" d="M35.7,62.5H13.5c-2.8,0-5-2.3-5-5V16.2c0-2.8,2.3-5,5-5h41.3c2.8,0,5,2.3,5,5v21.6"/>
	<circle class="st1" cx="17.8" cy="26.9" r="2.2"/>
	<circle class="st1" cx="28.7" cy="26.9" r="2.2"/>
	<circle class="st1" cx="39.6" cy="26.9" r="2.2"/>
	<circle class="st1" cx="50.5" cy="26.9" r="2.2"/>
	<circle class="st1" cx="17.8" cy="38.1" r="2.2"/>
	<circle class="st1" cx="28.7" cy="38.1" r="2.2"/>
	<circle class="st1" cx="39.6" cy="38.1" r="2.2"/>
	<circle class="st1" cx="50.5" cy="38.1" r="2.2"/>
	<circle class="st1" cx="17.8" cy="49.3" r="2.2"/>
	<circle class="st1" cx="28.7" cy="49.3" r="2.2"/>
	<line class="st0" x1="17.8" y1="7.5" x2="17.8" y2="14.8"/>
	<line class="st0" x1="33.3" y1="7.5" x2="33.3" y2="14.8"/>
	<line class="st0" x1="48.7" y1="7.5" x2="48.7" y2="14.8"/>
	<g>
		<path class="st0" d="M55,57.9l2.2,2.3c0.3,0.3,0.7,0.2,0.9-0.1l3.4-5"/>
		<circle class="st0" cx="51.1" cy="46.5" r="4.9"/>
		<path class="st0" d="M55.9,62.5H41.3v-2.8c0-3.6,2.9-6.5,6.5-6.5H54c1.6,0,3.1,0.6,4.3,1.6"/>
	</g>
</g>
</svg>
