<svg width="52" height="52" viewBox="0 0 52 52" fill="none" xmlns="http://www.w3.org/2000/svg">
<mask id="mask0_1137_1492" style="mask-type:luminance" maskUnits="userSpaceOnUse" x="-1" y="-1" width="53" height="53">
<path d="M51.3323 -0.000976562H-0.000976562V51.3323H51.3323V-0.000976562Z" fill="white"/>
<path d="M12.5313 19.0487C11.4239 19.0487 10.5261 19.9464 10.5261 21.0539C10.5261 22.1614 11.4239 23.0591 12.5313 23.0591C13.6388 23.0591 14.5365 22.1614 14.5365 21.0539C14.5365 19.9464 13.6388 19.0487 12.5313 19.0487Z" fill="white"/>
<path d="M21.254 19.0487C20.1465 19.0487 19.2488 19.9464 19.2488 21.0539C19.2488 22.1614 20.1465 23.0591 21.254 23.0591C22.3615 23.0591 23.2592 22.1614 23.2592 21.0539C23.2592 19.9464 22.3615 19.0487 21.254 19.0487Z" fill="white"/>
<path d="M29.9766 19.0487C28.8692 19.0487 27.9714 19.9464 27.9714 21.0539C27.9714 22.1614 28.8692 23.0591 29.9766 23.0591C31.0841 23.0591 31.9819 22.1614 31.9819 21.0539C31.9819 19.9464 31.0841 19.0487 29.9766 19.0487Z" fill="white"/>
<path d="M38.6993 19.0487C37.5918 19.0487 36.6941 19.9464 36.6941 21.0539C36.6941 22.1614 37.5918 23.0591 38.6993 23.0591C39.8068 23.0591 40.7045 22.1614 40.7045 21.0539C40.7045 19.9464 39.8068 19.0487 38.6993 19.0487Z" fill="white"/>
<path d="M14.5365 29.7765C14.5365 28.6691 13.6388 27.7713 12.5313 27.7713C11.4239 27.7713 10.5261 28.6691 10.5261 29.7765C10.5261 30.884 11.4239 31.7817 12.5313 31.7817C13.6388 31.7817 14.5365 30.884 14.5365 29.7765Z" fill="white"/>
<path d="M14.5365 38.4992C14.5365 37.3917 13.6388 36.494 12.5313 36.494C11.4239 36.494 10.5261 37.3917 10.5261 38.4992C10.5261 39.6067 11.4239 40.5044 12.5313 40.5044C13.6388 40.5044 14.5365 39.6067 14.5365 38.4992Z" fill="white"/>
<path d="M23.2592 29.7765C23.2592 28.6691 22.3615 27.7713 21.254 27.7713C20.1465 27.7713 19.2488 28.6691 19.2488 29.7765C19.2488 30.884 20.1465 31.7817 21.254 31.7817C22.3615 31.7817 23.2592 30.884 23.2592 29.7765Z" fill="white"/>
<path d="M23.2592 38.4992C23.2592 37.3917 22.3615 36.494 21.254 36.494C20.1465 36.494 19.2488 37.3917 19.2488 38.4992C19.2488 39.6067 20.1465 40.5044 21.254 40.5044C22.3615 40.5044 23.2592 39.6067 23.2592 38.4992Z" fill="white"/>
<path d="M21.254 19.0487C20.1465 19.0487 19.2488 19.9464 19.2488 21.0539C19.2488 22.1614 20.1465 23.0591 21.254 23.0591C22.3615 23.0591 23.2592 22.1614 23.2592 21.0539C23.2592 19.9464 22.3615 19.0487 21.254 19.0487Z" fill="white"/>
<path d="M23.2592 29.7765C23.2592 28.6691 22.3615 27.7713 21.254 27.7713C20.1465 27.7713 19.2488 28.6691 19.2488 29.7765C19.2488 30.884 20.1465 31.7817 21.254 31.7817C22.3615 31.7817 23.2592 30.884 23.2592 29.7765Z" fill="white"/>
<path d="M23.2592 38.4992C23.2592 37.3917 22.3615 36.494 21.254 36.494C20.1465 36.494 19.2488 37.3917 19.2488 38.4992C19.2488 39.6067 20.1465 40.5044 21.254 40.5044C22.3615 40.5044 23.2592 39.6067 23.2592 38.4992Z" fill="white"/>
<path d="M31.9819 29.7765C31.9819 28.6691 31.0841 27.7713 29.9766 27.7713C28.8692 27.7713 27.9714 28.6691 27.9714 29.7765C27.9714 30.884 28.8692 31.7817 29.9766 31.7817C31.0841 31.7817 31.9819 30.884 31.9819 29.7765Z" fill="white"/>
<path d="M40.7045 29.7765C40.7045 28.6691 39.8068 27.7713 38.6993 27.7713C37.5918 27.7713 36.6941 28.6691 36.6941 29.7765C36.6941 30.884 37.5918 31.7817 38.6993 31.7817C39.8068 31.7817 40.7045 30.884 40.7045 29.7765Z" fill="white"/>
</mask>
<g mask="url(#mask0_1137_1492)">
<mask id="mask1_1137_1492" style="mask-type:luminance" maskUnits="userSpaceOnUse" x="-1" y="-1" width="53" height="53">
<path d="M-0.00219727 -0.000789642H51.3311V51.3325H-0.00219727V-0.000789642Z" fill="white"/>
</mask>
<g mask="url(#mask1_1137_1492)">
<path d="M24.8628 49.3267H8.01904C4.69671 49.3267 2.00342 46.6334 2.00342 43.311V12.0298C2.00342 8.70747 4.69671 6.01418 8.01904 6.01418H43.3107C46.633 6.01418 49.3263 8.70747 49.3263 12.0298V26.2668" stroke="#6A9BE6" stroke-width="4.01041" stroke-miterlimit="10" stroke-linecap="round" stroke-linejoin="round"/>
<path d="M12.5304 19.0482C11.4229 19.0482 10.5251 19.9459 10.5251 21.0534C10.5251 22.1609 11.4229 23.0586 12.5304 23.0586C13.6378 23.0586 14.5356 22.1609 14.5356 21.0534C14.5356 19.9459 13.6378 19.0482 12.5304 19.0482Z" fill="#6A9BE6"/>
<path d="M21.253 19.0482C20.1455 19.0482 19.2478 19.9459 19.2478 21.0534C19.2478 22.1609 20.1455 23.0586 21.253 23.0586C22.3605 23.0586 23.2582 22.1609 23.2582 21.0534C23.2582 19.9459 22.3605 19.0482 21.253 19.0482Z" fill="#6A9BE6"/>
<path d="M29.9757 19.0482C28.8682 19.0482 27.9705 19.9459 27.9705 21.0534C27.9705 22.1609 28.8682 23.0586 29.9757 23.0586C31.0831 23.0586 31.9809 22.1609 31.9809 21.0534C31.9809 19.9459 31.0831 19.0482 29.9757 19.0482Z" fill="#6A9BE6"/>
<path d="M38.6983 19.0482C37.5908 19.0482 36.6931 19.9459 36.6931 21.0534C36.6931 22.1609 37.5908 23.0586 38.6983 23.0586C39.8058 23.0586 40.7035 22.1609 40.7035 21.0534C40.7035 19.9459 39.8058 19.0482 38.6983 19.0482Z" fill="#6A9BE6"/>
<path d="M14.5356 29.776C14.5356 28.6686 13.6378 27.7708 12.5304 27.7708C11.4229 27.7708 10.5251 28.6686 10.5251 29.776C10.5251 30.8835 11.4229 31.7812 12.5304 31.7812C13.6378 31.7812 14.5356 30.8835 14.5356 29.776Z" fill="#6A9BE6"/>
<path d="M14.5356 38.4987C14.5356 37.3912 13.6378 36.4935 12.5304 36.4935C11.4229 36.4935 10.5251 37.3912 10.5251 38.4987C10.5251 39.6062 11.4229 40.5039 12.5304 40.5039C13.6378 40.5039 14.5356 39.6062 14.5356 38.4987Z" fill="#6A9BE6"/>
<path d="M23.2582 29.776C23.2582 28.6686 22.3605 27.7708 21.253 27.7708C20.1455 27.7708 19.2478 28.6686 19.2478 29.776C19.2478 30.8835 20.1455 31.7812 21.253 31.7812C22.3605 31.7812 23.2582 30.8835 23.2582 29.776Z" fill="#6A9BE6"/>
<path d="M23.2582 38.4987C23.2582 37.3912 22.3605 36.4935 21.253 36.4935C20.1455 36.4935 19.2478 37.3912 19.2478 38.4987C19.2478 39.6062 20.1455 40.5039 21.253 40.5039C22.3605 40.5039 23.2582 39.6062 23.2582 38.4987Z" fill="#6A9BE6"/>
<path d="M21.253 19.0482C20.1455 19.0482 19.2478 19.9459 19.2478 21.0534C19.2478 22.1609 20.1455 23.0586 21.253 23.0586C22.3605 23.0586 23.2582 22.1609 23.2582 21.0534C23.2582 19.9459 22.3605 19.0482 21.253 19.0482Z" fill="#6A9BE6"/>
<path d="M23.2582 29.776C23.2582 28.6686 22.3605 27.7708 21.253 27.7708C20.1455 27.7708 19.2478 28.6686 19.2478 29.776C19.2478 30.8835 20.1455 31.7812 21.253 31.7812C22.3605 31.7812 23.2582 30.8835 23.2582 29.776Z" fill="#6A9BE6"/>
<path d="M23.2582 38.4987C23.2582 37.3912 22.3605 36.4935 21.253 36.4935C20.1455 36.4935 19.2478 37.3912 19.2478 38.4987C19.2478 39.6062 20.1455 40.5039 21.253 40.5039C22.3605 40.5039 23.2582 39.6062 23.2582 38.4987Z" fill="#6A9BE6"/>
<path d="M12.5308 2.00456V10.0254" stroke="#6A9BE6" stroke-width="4.01041" stroke-miterlimit="10" stroke-linecap="round" stroke-linejoin="round"/>
<path d="M38.6985 10.0254V2.00456" stroke="#6A9BE6" stroke-width="4.01041" stroke-miterlimit="10" stroke-linecap="round" stroke-linejoin="round"/>
<path d="M31.9809 29.776C31.9809 28.6686 31.0831 27.7708 29.9757 27.7708C28.8682 27.7708 27.9705 28.6686 27.9705 29.776C27.9705 30.8835 28.8682 31.7812 29.9757 31.7812C31.0831 31.7812 31.9809 30.8835 31.9809 29.776Z" fill="#6A9BE6"/>
<path d="M40.7035 29.776C40.7035 28.6686 39.8058 27.7708 38.6983 27.7708C37.5908 27.7708 36.6931 28.6686 36.6931 29.776C36.6931 30.8835 37.5908 31.7812 38.6983 31.7812C39.8058 31.7812 40.7035 30.8835 40.7035 29.776Z" fill="#6A9BE6"/>
<path d="M25.5642 2.00456V10.0254" stroke="#6A9BE6" stroke-width="4.01041" stroke-miterlimit="10" stroke-linecap="round" stroke-linejoin="round"/>
<path d="M28.376 42.2137L34.7747 48.4581C36.1104 49.7295 38.2475 49.587 39.4025 48.1497L49.3265 34.2876" stroke="#6A9BE6" stroke-width="4.01041" stroke-miterlimit="10" stroke-linecap="round" stroke-linejoin="round"/>
</g>
</g>
</svg>
