<svg width="72" height="72" viewBox="0 0 72 72" fill="none" xmlns="http://www.w3.org/2000/svg">
<path d="M58.3814 3.31567C62.0251 3.31567 64.9571 6.25719 64.9571 9.90088C64.9571 13.5541 62.0251 16.4766 58.3814 16.4766C54.7377 16.4766 51.8057 13.5541 51.8057 9.90088C51.8057 9.67315 51.8152 9.44542 51.8436 9.22718C52.1757 5.89662 54.9559 3.31567 58.3814 3.31567Z" fill="#C22032"/>
<mask id="mask0_755_6265" style="mask-type:luminance" maskUnits="userSpaceOnUse" x="25" y="0" width="23" height="21">
<path d="M25.4453 0.687012H47.3074V20.7842H25.4453V0.687012Z" fill="white"/>
</mask>
<g mask="url(#mask0_755_6265)">
<path d="M36.0154 0.687012C41.1108 0.687012 45.2195 4.79565 45.2195 9.90061C45.2195 15.0056 41.1108 19.1047 36.0154 19.1047C30.9104 19.1047 26.8018 15.0056 26.8018 9.90061C26.8018 9.58748 26.8207 9.26486 26.8492 8.95173C27.3236 4.30224 31.2235 0.687012 36.0154 0.687012Z" fill="#C22032"/>
</g>
<path d="M13.6434 3.31567C17.2966 3.31567 20.2191 6.25719 20.2191 9.90088C20.2191 13.5541 17.2966 16.4766 13.6434 16.4766C9.99969 16.4766 7.07715 13.5541 7.07715 9.90088C7.07715 9.67315 7.07715 9.44542 7.10561 9.22718C7.43772 5.89662 10.2274 3.31567 13.6434 3.31567Z" fill="#C22032"/>
<mask id="mask1_755_6265" style="mask-type:luminance" maskUnits="userSpaceOnUse" x="20" y="45" width="30" height="27">
<path d="M20.5879 45.0757H49.7374V71.7391H20.5879V45.0757Z" fill="white"/>
</mask>
<g mask="url(#mask1_755_6265)">
<path d="M42.0892 52.4484C42.4593 52.4294 42.8104 52.5813 43.0666 52.8375C43.5789 53.3499 43.5789 54.1849 43.0666 54.6878L35.6179 62.1365C35.4281 62.3357 35.1624 62.4686 34.8872 62.5065C34.8493 62.516 34.8113 62.516 34.7734 62.516C34.3938 62.5445 34.0332 62.4021 33.7676 62.1365L29.1181 57.487C28.5962 56.9746 28.5962 56.1395 29.1086 55.6272C29.1181 55.6272 29.1181 55.6272 29.1181 55.6272C29.3553 55.3899 29.6684 55.2476 30.0005 55.2381C30.3706 55.2286 30.7122 55.371 30.9684 55.6272L34.6975 59.3468L41.2068 52.8375C41.444 52.6002 41.7571 52.4674 42.0892 52.4484ZM36.0164 45.4172C35.5704 45.4172 35.1434 45.4457 34.7164 45.4837C34.5456 45.5026 34.3748 45.5311 34.204 45.5501C33.9478 45.588 33.7011 45.6165 33.4544 45.6734C33.2267 45.7114 33.0179 45.7683 32.7997 45.8253C32.6099 45.8727 32.4296 45.9201 32.2494 45.9676C32.0026 46.0435 31.7654 46.1289 31.5377 46.2143C31.3859 46.2617 31.2246 46.3187 31.0727 46.3756C30.8545 46.4705 30.6458 46.5654 30.437 46.6603C30.2662 46.7457 30.0954 46.8216 29.9341 46.8975C29.7253 47.0113 29.5356 47.1252 29.3363 47.2391C29.1845 47.334 29.0327 47.4289 28.8808 47.5237C28.6816 47.6471 28.4918 47.7799 28.2925 47.9223C28.1597 48.0172 28.0268 48.1215 27.9035 48.2164C27.7042 48.3682 27.505 48.539 27.3247 48.6909C27.2108 48.7952 27.097 48.8996 26.9831 49.004C26.8028 49.1748 26.6225 49.3551 26.4517 49.5354C26.3473 49.6587 26.243 49.7726 26.1386 49.8864C25.9678 50.0762 25.8065 50.2755 25.6452 50.4748C25.5598 50.5886 25.4744 50.693 25.3985 50.8069C25.2371 51.0346 25.0758 51.2623 24.924 51.4901C24.8576 51.5944 24.8007 51.6988 24.7342 51.8032C24.5919 52.0499 24.4496 52.2966 24.3167 52.5433C24.2503 52.6667 24.2029 52.79 24.1459 52.9039C24.0321 53.1506 23.9182 53.4068 23.8043 53.6535C23.7569 53.7863 23.7095 53.9287 23.662 54.0615C23.5671 54.3272 23.4722 54.5834 23.3963 54.8491C23.3679 54.9535 23.3394 55.0673 23.3109 55.1717C23.235 55.4753 23.1496 55.7885 23.0927 56.1111C23.0832 56.1585 23.0737 56.1965 23.0642 56.2344C23.0073 56.614 22.9504 56.9935 22.9124 57.3826C22.8744 57.7716 22.8555 58.1701 22.8555 58.5782C22.8555 65.8561 28.729 71.7391 36.0164 71.7391C43.2943 71.7391 49.1678 65.8561 49.1678 58.5782C49.1678 58.1607 49.1489 57.7526 49.1109 57.3541C49.0729 56.9935 49.016 56.6425 48.9591 56.2914C48.9496 56.2249 48.9401 56.168 48.9401 56.1016C48.8642 55.7505 48.7788 55.4089 48.6839 55.0673C48.6744 55.0104 48.6554 54.944 48.6365 54.887C48.5511 54.5739 48.4467 54.2703 48.3328 53.9666C48.2949 53.8812 48.2664 53.7863 48.2284 53.6914C48.1146 53.4068 47.9817 53.1411 47.8584 52.8659C47.8109 52.771 47.7635 52.6572 47.7066 52.5528C47.5832 52.3156 47.4504 52.0784 47.308 51.8506C47.2321 51.7178 47.1657 51.5849 47.0803 51.4616C46.9475 51.2528 46.7956 51.0346 46.6438 50.8353C46.5584 50.712 46.4635 50.5886 46.3781 50.4748C46.2168 50.266 46.046 50.0572 45.8657 49.8675C45.7803 49.7631 45.6855 49.6682 45.5906 49.5638C45.4198 49.3741 45.23 49.1843 45.0497 49.004C44.9264 48.8901 44.803 48.7858 44.6796 48.6814C44.4994 48.5201 44.3096 48.3682 44.1198 48.2164C44.0059 48.1215 43.8731 48.0266 43.7497 47.9412C43.541 47.7894 43.3322 47.6471 43.1235 47.5048C42.9906 47.4194 42.8578 47.3435 42.725 47.2581C42.5067 47.1347 42.298 47.0113 42.0702 46.8975C41.9184 46.8216 41.7666 46.7457 41.6148 46.6698C41.3965 46.5749 41.1783 46.4705 40.9506 46.3756C40.7892 46.3187 40.6279 46.2617 40.4761 46.2048C40.2484 46.1289 40.0207 46.0435 39.7834 45.9676C39.5937 45.9201 39.4039 45.8632 39.2046 45.8253C38.9959 45.7683 38.7871 45.7114 38.5784 45.6734C38.3317 45.6165 38.0755 45.588 37.8193 45.5501C37.6485 45.5311 37.4777 45.5026 37.3164 45.4837C36.8799 45.4457 36.4434 45.4172 36.0164 45.4172Z" fill="#C22032"/>
</g>
<path d="M36.0146 26.6677C39.1839 26.6677 42.3436 27.2181 44.972 28.2239C45.399 28.3852 45.8165 28.5655 46.2056 28.7553C46.3289 28.8027 46.4333 28.8691 46.5377 28.9166C46.8698 29.0969 47.2019 29.2677 47.5055 29.4574C47.6194 29.5238 47.7333 29.5903 47.8281 29.6662C48.1982 29.8939 48.5493 30.1311 48.8624 30.3968C48.8814 30.4158 48.9004 30.4253 48.9194 30.4348C49.2799 30.7384 49.6215 31.061 49.9157 31.3931C50.2193 31.7252 50.485 32.0763 50.7127 32.4274C50.7222 32.4464 50.7317 32.4559 50.7412 32.4654C50.931 32.788 51.1018 33.1106 51.2441 33.4427C51.2821 33.5376 51.32 33.6325 51.3485 33.7179C51.4624 34.012 51.5477 34.3157 51.6142 34.6193C51.6331 34.7237 51.6711 34.8281 51.6901 34.9324C51.766 35.3405 51.8039 35.758 51.8039 36.2134V55.9406H51.4718C50.3711 49.4218 45.3041 44.2314 38.8138 43.0453C38.7759 43.0453 38.7189 43.0359 38.681 43.0264C38.2824 42.9599 37.8839 42.8935 37.4759 42.8556C37.0015 42.8176 36.508 42.7797 36.0146 42.7797C35.5022 42.7797 35.0183 42.8176 34.5249 42.8556C34.1264 42.8935 33.7373 42.9599 33.3388 43.0264C33.2913 43.0359 33.2439 43.0453 33.187 43.0453C26.6777 44.2314 21.5632 49.4028 20.453 55.9406H20.2158V36.2134C20.2158 35.758 20.2633 35.3405 20.3297 34.9324C20.3487 34.8186 20.3866 34.7237 20.4056 34.6098C20.472 34.3062 20.5669 34.0025 20.6713 33.7084C20.6997 33.6325 20.7377 33.5471 20.7757 33.4617C20.918 33.1106 21.0888 32.769 21.2975 32.4464C21.5348 32.0763 21.8004 31.7347 22.1041 31.3931C22.4077 31.061 22.7398 30.7384 23.1004 30.4348C23.1194 30.4253 23.1384 30.4158 23.1573 30.3968C23.4705 30.1406 23.8121 29.9034 24.1726 29.6662C24.2865 29.5903 24.4099 29.5144 24.5332 29.4384C24.8084 29.2771 25.0931 29.1158 25.3872 28.964C25.5485 28.8881 25.7003 28.7932 25.8711 28.7268C26.1748 28.5845 26.4879 28.4516 26.8105 28.3188C29.4864 27.2465 32.741 26.6677 36.0146 26.6677Z" fill="#C22032"/>
<mask id="mask2_755_6265" style="mask-type:luminance" maskUnits="userSpaceOnUse" x="47" y="23" width="25" height="30">
<path d="M47.3076 23.2139H71.5419V52.3634H47.3076V23.2139Z" fill="white"/>
</mask>
<g mask="url(#mask2_755_6265)">
<path d="M58.3803 23.3757C61.8153 23.3757 65.2502 24.1064 67.6888 25.4443C70.1369 26.7727 71.5412 28.5186 71.5412 30.9478V50.6844H54.4235V36.214C54.4235 35.7396 54.3761 35.2841 54.3191 34.8382C54.3096 34.7623 54.3001 34.6769 54.2812 34.5915C54.2053 34.155 54.1104 33.7185 53.968 33.2915C53.968 33.2915 53.968 33.282 53.968 33.2725C53.5316 31.9156 52.8199 30.6821 51.871 29.6383C51.7856 29.5339 51.6718 29.458 51.5769 29.3631C50.6754 28.4238 49.6032 27.5982 48.4171 26.9245C48.2463 26.8296 48.0565 26.7442 47.8857 26.6494C50.2864 24.7137 54.1294 23.3757 58.3803 23.3757Z" fill="#C22032"/>
</g>
<mask id="mask3_755_6265" style="mask-type:luminance" maskUnits="userSpaceOnUse" x="0" y="23" width="26" height="30">
<path d="M0.490234 23.2139H25.4457V52.3634H0.490234V23.2139Z" fill="white"/>
</mask>
<g mask="url(#mask3_755_6265)">
<path d="M13.6417 23.3752C17.8926 23.3752 21.7356 24.7037 24.1363 26.6489C23.9655 26.7438 23.7852 26.8292 23.6144 26.924C22.4093 27.5977 21.3371 28.4328 20.4261 29.3816C20.3407 29.4765 20.2269 29.5429 20.151 29.6378C19.2211 30.6721 18.4999 31.8867 18.0634 33.2246C18.054 33.2531 18.0445 33.291 18.0255 33.3195C17.9021 33.737 17.7978 34.164 17.7313 34.591C17.7218 34.6764 17.7029 34.7618 17.6934 34.8472C17.627 35.2931 17.589 35.7391 17.589 36.2136V50.6839H0.490234V30.9473C0.490234 28.5182 1.88509 26.7722 4.3237 25.4438C6.7718 24.1059 10.2067 23.3752 13.6417 23.3752Z" fill="#C22032"/>
</g>
</svg>
