<svg width="154" height="105" viewBox="0 0 154 105" fill="none" xmlns="http://www.w3.org/2000/svg">
<path d="M149.663 86.9166V93.7313C149.663 95.3186 149.167 96.7888 148.312 97.9926C147.954 98.504 147.532 98.9656 147.057 99.3634C145.773 100.461 144.106 101.118 142.287 101.118H136.063C137.879 103.11 140.514 104.385 143.397 104.385C143.972 104.385 144.535 104.335 145.082 104.236C149.72 103 153.139 98.7668 153.139 93.7313V93.3264C152.844 90.6737 151.568 88.4152 149.663 86.9166ZM142.287 0.798096H11.5001C5.50685 0.798096 0.648438 5.66315 0.648438 11.6646V93.7668C0.648438 99.7682 5.50685 104.633 11.5001 104.633C11.6065 104.633 11.7483 104.633 11.8192 104.598H131.134C131.134 104.598 131.113 104.576 131.102 104.566C130.471 103.927 129.73 103.6 128.815 103.692C127.779 103.802 126.744 103.863 125.712 103.994C124.953 104.09 124.435 103.866 124.183 103.113C124.116 102.907 123.992 102.719 123.896 102.524C123.478 101.668 123.527 101.593 124.446 101.388C124.673 101.334 124.914 101.249 125.105 101.118H11.5001C11.3937 101.118 11.2873 101.118 11.1809 101.153C7.24453 100.976 4.1238 97.744 4.1238 93.7668V11.6646C4.1238 7.58076 7.42184 4.27821 11.5001 4.27821H142.287C146.365 4.27821 149.663 7.58076 149.663 11.6646V74.8463C149.734 74.7611 149.805 74.6723 149.876 74.5835C150.248 74.1219 150.571 74.0402 151.192 74.2604C152.564 74.7469 153.128 75.5601 152.862 77.0019C152.699 77.9039 152.582 78.8236 152.55 79.7362C152.536 80.1624 152.646 80.7093 152.915 81.004C152.99 81.0857 153.061 81.1674 153.139 81.2455V11.6646C153.139 5.66315 148.28 0.798096 142.287 0.798096Z" fill="black"/>
<path d="M19.2305 12.3394C14.9041 12.3394 11.4287 15.855 11.4287 20.1518C11.4287 23.8521 14.0317 26.97 17.4929 27.7655C18.0532 27.8969 18.6348 27.9643 19.2305 27.9643C19.8263 27.9643 20.4079 27.8969 20.9682 27.7655C24.4294 26.97 27.0324 23.8521 27.0324 20.1518C27.0324 15.855 23.557 12.3394 19.2305 12.3394ZM19.2305 24.4842C16.8545 24.4842 14.9041 22.5311 14.9041 20.1518C14.9041 17.7726 16.8545 15.8195 19.2305 15.8195C21.6066 15.8195 23.557 17.7726 23.557 20.1518C23.557 22.5311 21.6066 24.4842 19.2305 24.4842Z" fill="black"/>
<path d="M56.4305 87.5524H32.3158C31.3583 87.5524 30.5781 86.7711 30.5781 85.8123C30.5781 84.8535 31.3583 84.0723 32.3158 84.0723H56.4305C57.388 84.0723 58.1682 84.8535 58.1682 85.8123C58.1682 86.7711 57.4235 87.5524 56.4305 87.5524Z" fill="black"/>
<path d="M33.8525 84.0722C33.0865 80.9082 30.2353 78.5325 26.8202 78.5325H19.834C15.8622 78.5325 12.5996 81.764 12.5996 85.7768V85.8123C12.5996 89.7896 15.8267 93.0566 19.834 93.0566H26.8202C30.2282 93.0566 33.0723 90.72 33.8454 87.5524C33.9837 86.9948 34.0546 86.4124 34.0546 85.8123V85.7768C34.0546 85.1909 33.9837 84.6191 33.8525 84.0722ZM26.8202 89.6475H19.834C17.7417 89.6475 16.0395 87.9075 16.0395 85.8478V85.8123C16.0395 83.7171 17.7772 82.0126 19.834 82.0126H26.8202C28.8203 82.0126 30.4587 83.5964 30.6041 85.5353C30.6112 85.6276 30.6147 85.72 30.6147 85.8123V85.8478C30.6147 85.9295 30.6112 86.0147 30.6041 86.0928V86.0999C30.4729 88.0779 28.7955 89.6475 26.8202 89.6475Z" fill="black"/>
<path d="M93.6677 53.6746C90.0505 53.6746 87.1426 56.622 87.1426 60.2087C87.1426 63.7953 90.086 66.7427 93.6677 66.7427C97.2495 66.7427 100.193 63.7953 100.193 60.2087C100.193 56.622 97.2495 53.6746 93.6677 53.6746ZM93.6677 63.2626C92.001 63.2626 90.6179 61.8777 90.6179 60.2087C90.6179 58.5396 91.9655 57.1547 93.6677 57.1547C95.37 57.1547 96.7175 58.5396 96.7175 60.2087C96.7175 61.8777 95.3345 63.2626 93.6677 63.2626Z" fill="black"/>
<path d="M93.6674 27.3607C75.5813 27.3607 60.8643 42.0979 60.8643 60.2087C60.8643 78.3195 75.5813 93.0567 93.6674 93.0567C110.083 93.0567 123.722 80.9154 126.102 65.1341C126.286 63.909 126.403 62.6625 126.446 61.3983C126.463 61.0042 126.471 60.6064 126.471 60.2087C126.471 42.0979 111.753 27.3607 93.6674 27.3607ZM122.396 66.1036C119.647 79.463 107.81 89.5411 93.6674 89.5411C77.4963 89.5411 64.3396 76.3664 64.3396 60.1732C64.3396 43.98 77.4963 30.8053 93.6674 30.8053C109.838 30.8053 122.995 43.98 122.995 60.1732C122.995 60.8941 122.97 61.6079 122.917 62.3145C122.825 63.6036 122.648 64.8678 122.396 66.1036Z" fill="black"/>
<path d="M114.166 55.4856C113.457 55.4856 112.783 55.024 112.535 54.3137C110.797 49.2001 107.144 45.0808 102.286 42.666C97.4275 40.2868 91.9308 39.8961 86.7887 41.6362C85.8666 41.9558 84.9091 41.4586 84.59 40.5353C84.2708 39.612 84.7673 38.6532 85.6893 38.3336C91.6826 36.274 98.1013 36.7001 103.811 39.5055C109.485 42.3109 113.776 47.176 115.833 53.1419C116.152 54.0651 115.655 55.024 114.733 55.3436C114.556 55.4856 114.379 55.4856 114.166 55.4856Z" fill="black"/>
<path d="M107.781 57.6872C107.072 57.6872 106.398 57.2256 106.15 56.5154C103.703 49.4486 96.0073 45.6844 89.0211 48.0992C88.0991 48.4188 87.1416 47.9216 86.8224 46.9983C86.5032 46.075 86.9997 45.1162 87.9218 44.7966C96.752 41.7782 106.433 46.5367 109.448 55.379C109.767 56.3023 109.27 57.2611 108.384 57.5807C108.136 57.6517 107.958 57.6872 107.781 57.6872Z" fill="black"/>
<path d="M94.0236 83.3621C84.1295 83.3621 74.9091 77.1476 71.5402 67.2399C71.221 66.3166 71.7175 65.3578 72.6395 65.0382C73.5616 64.7186 74.5191 65.2158 74.8382 66.1391C78.4554 76.7215 89.9809 82.4033 100.584 78.7811C101.506 78.4615 102.464 78.9587 102.783 79.882C103.102 80.8053 102.606 81.7641 101.684 82.0837C99.1657 82.9359 96.5769 83.3621 94.0236 83.3621Z" fill="black"/>
<path d="M94.0241 76.5793C86.967 76.5793 80.3354 72.1404 77.924 65.0737C77.6048 64.1504 78.1013 63.1916 79.0233 62.872C79.9453 62.5524 80.9028 63.0495 81.222 63.9728C83.598 71.0396 91.2935 74.8038 98.3506 72.389C99.2726 72.0694 100.23 72.5666 100.549 73.4899C100.868 74.4132 100.372 75.372 99.4499 75.6916C97.6768 76.2953 95.8327 76.5793 94.0241 76.5793Z" fill="black"/>
<path d="M19.2318 35.1022C18.2743 35.1022 17.4941 34.3209 17.4941 33.3621V26.2954C17.4941 25.3365 18.2743 24.5553 19.2318 24.5553C20.1893 24.5553 20.9695 25.3365 20.9695 26.2954V33.3621C20.9695 34.3209 20.1893 35.1022 19.2318 35.1022Z" fill="black"/>
<path d="M21.2525 45.9686C16.4651 45.9686 12.5996 49.8394 12.5996 54.6334C12.5996 59.4274 16.4651 63.2982 21.2525 63.2982C26.04 63.2982 29.9055 59.3919 29.9055 54.6334C29.9055 49.8749 26.04 45.9686 21.2525 45.9686ZM21.2525 59.8536C18.3801 59.8536 16.0395 57.5098 16.0395 54.6334C16.0395 51.757 18.3801 49.4132 21.2525 49.4132C24.125 49.4132 26.4301 51.757 26.4656 54.6334C26.4656 57.5098 24.125 59.8536 21.2525 59.8536Z" fill="black"/>
<path d="M21.2523 56.5155C20.2948 56.5155 19.5146 55.7342 19.5146 54.7754V54.5978C19.5146 53.639 20.2948 52.8578 21.2523 52.8578C22.2098 52.8578 22.99 53.639 22.99 54.5978V54.7754C22.99 55.7697 22.2098 56.5155 21.2523 56.5155Z" fill="black"/>
<path d="M44.941 45.9686C40.1535 45.9686 36.2881 49.8394 36.2881 54.6334C36.2881 59.4274 40.1535 63.2982 44.941 63.2982C49.7285 63.2982 53.594 59.3919 53.594 54.6334C53.594 49.8749 49.7285 45.9686 44.941 45.9686ZM44.941 59.8536C42.0685 59.8536 39.728 57.5098 39.728 54.6334C39.728 51.757 42.0685 49.4132 44.941 49.4132C47.8135 49.4132 50.1541 51.757 50.1541 54.6334C50.1541 57.5098 47.8135 59.8536 44.941 59.8536Z" fill="black"/>
<path d="M44.9418 56.5155C43.9843 56.5155 43.2041 55.7342 43.2041 54.7754V54.5978C43.2041 53.639 43.9843 52.8578 44.9418 52.8578C45.8993 52.8578 46.6795 53.639 46.6795 54.5978V54.7754C46.6795 55.7697 45.8993 56.5155 44.9418 56.5155Z" fill="black"/>
<path d="M55.5097 14.5411H36.1116C34.6576 14.5411 33.4873 15.713 33.4873 17.169V23.2414C33.4873 24.6974 34.6576 25.8693 36.1116 25.8693H55.5097C56.9637 25.8693 58.134 24.6974 58.134 23.2414V17.169C58.134 15.713 56.9637 14.5411 55.5097 14.5411ZM54.6586 22.3891H36.9272V17.9857H54.6586V22.3891Z" fill="black"/>
<path d="M134.556 12.3394C130.265 12.3394 126.754 15.855 126.754 20.1518C126.754 23.8379 129.339 26.9487 132.783 27.7548C133.354 27.8933 133.946 27.9643 134.556 27.9643C135.166 27.9643 135.712 27.9004 136.258 27.7726C139.737 26.9913 142.358 23.8628 142.358 20.1518C142.358 15.855 138.847 12.3394 134.556 12.3394ZM134.556 24.4842C132.18 24.4842 130.229 22.5311 130.229 20.1518C130.229 17.7726 132.18 15.8195 134.556 15.8195C136.932 15.8195 138.882 17.7726 138.882 20.1518C138.882 22.5311 136.932 24.4842 134.556 24.4842Z" fill="black"/>
<path d="M115.193 67.8791C114.413 67.8791 113.739 67.382 113.491 66.5652C113.243 65.6419 113.81 64.6831 114.732 64.4345L130.761 60.2797C131.932 59.9601 132.783 58.8948 132.783 57.6519V26.2598C132.783 25.301 133.563 24.5198 134.52 24.5198C135.478 24.5198 136.258 25.301 136.258 26.2598V57.6874C136.258 60.4928 134.343 62.943 131.648 63.6888L115.583 67.8791C115.512 67.8436 115.371 67.8791 115.193 67.8791Z" fill="black"/>
<path d="M117.641 67.4176L117.613 67.3501L116.187 64.0582L115.584 62.6591C115.336 62.0199 114.804 61.5227 114.166 61.2742C113.563 61.0611 112.889 61.0611 112.251 61.3097L104.414 64.6832C103.101 65.2159 102.499 66.7429 103.066 68.0568L105.123 72.8153C105.371 73.4545 105.903 73.9517 106.541 74.2003C106.825 74.3423 107.109 74.3778 107.428 74.3778C107.783 74.3778 108.137 74.3068 108.456 74.2003L116.329 70.7912C117.606 70.2585 118.209 68.7315 117.641 67.4176ZM107.924 70.6136L106.577 67.5241L112.747 64.8608L113.492 66.5653L113.499 66.5795L113.68 67.0057H113.684L114.095 67.9503L107.924 70.6136Z" fill="black"/>
<path d="M109.165 13.7597H78.1351C75.7946 13.7597 73.915 11.8421 73.915 9.53389V2.53815C73.915 1.57935 74.6952 0.798096 75.6527 0.798096C76.6102 0.798096 77.3904 1.57935 77.3904 2.53815V9.53389C77.3904 9.96002 77.745 10.3151 78.1706 10.3151H109.236C109.662 10.3151 110.016 9.96002 110.016 9.53389V2.53815C110.016 1.57935 110.796 0.798096 111.754 0.798096C112.711 0.798096 113.492 1.57935 113.492 2.53815V9.53389C113.421 11.8421 111.506 13.7597 109.165 13.7597Z" fill="black"/>
</svg>
