<?xml version="1.0" encoding="utf-8"?>
<!-- Generator: Adobe Illustrator 26.0.1, SVG Export Plug-In . SVG Version: 6.00 Build 0)  -->
<svg version="1.1" id="Layer_1" xmlns="http://www.w3.org/2000/svg" xmlns:xlink="http://www.w3.org/1999/xlink" x="0px" y="0px"
	 viewBox="0 0 90 90" style="enable-background:new 0 0 90 90;" xml:space="preserve">
<style type="text/css">
	.st0{fill:#010101;}
</style>
<g>
	<g>
		<g>
			<g>
				<path class="st0" d="M78.79,59v3.5c0,0.81-0.26,1.57-0.69,2.19c-0.18,0.26-0.4,0.5-0.65,0.7c-0.66,0.56-1.52,0.9-2.45,0.9h-3.2
					c0.93,1.02,2.29,1.68,3.77,1.68c0.3,0,0.59-0.03,0.87-0.08c2.38-0.63,4.14-2.81,4.14-5.39v-0.21
					C80.42,60.93,79.77,59.77,78.79,59z M75,14.8H7.78c-3.08,0-5.58,2.5-5.58,5.58v42.14c0,3.08,2.5,5.58,5.58,5.58
					c0.05,0,0.13,0,0.16-0.02h61.32c-0.01-0.01-0.01-0.01-0.02-0.02c-0.32-0.33-0.71-0.5-1.18-0.45c-0.53,0.06-1.06,0.09-1.59,0.15
					c-0.39,0.05-0.66-0.07-0.79-0.45c-0.03-0.11-0.1-0.2-0.15-0.3c-0.22-0.44-0.19-0.48,0.28-0.58c0.12-0.03,0.24-0.07,0.34-0.14
					H7.78c-0.05,0-0.11,0-0.16,0.02c-2.02-0.09-3.63-1.75-3.63-3.79V20.37c0-2.1,1.7-3.79,3.79-3.79H75c2.1,0,3.79,1.7,3.79,3.79
					V52.8c0.04-0.04,0.07-0.09,0.11-0.13c0.19-0.24,0.36-0.28,0.68-0.17c0.71,0.25,1,0.67,0.86,1.41c-0.08,0.46-0.14,0.94-0.16,1.4
					c-0.01,0.22,0.05,0.5,0.19,0.65c0.04,0.04,0.07,0.08,0.11,0.12V20.37C80.57,17.29,78.08,14.8,75,14.8z"/>
			</g>
			<g>
				<g>
					<path class="st0" d="M11.75,20.72c-2.22,0-4.01,1.8-4.01,4.01c0,1.9,1.34,3.5,3.12,3.91c0.29,0.07,0.59,0.1,0.89,0.1
						c0.31,0,0.61-0.03,0.89-0.1c1.78-0.41,3.12-2.01,3.12-3.91C15.76,22.52,13.97,20.72,11.75,20.72z M11.75,26.95
						c-1.22,0-2.22-1-2.22-2.22c0-1.22,1-2.22,2.22-2.22c1.24,0,2.22,1,2.22,2.22C13.97,25.95,12.97,26.95,11.75,26.95z"/>
				</g>
				<g>
					<path class="st0" d="M30.87,59.32H18.47c-0.49,0-0.89-0.4-0.89-0.89c0-0.49,0.4-0.89,0.89-0.89h12.39
						c0.49,0,0.89,0.4,0.89,0.89C31.76,58.92,31.38,59.32,30.87,59.32z"/>
				</g>
				<g>
					<path class="st0" d="M19.26,57.54c-0.39-1.62-1.86-2.84-3.61-2.84h-3.59c-2.04,0-3.72,1.66-3.72,3.72v0.02
						c0,2.04,1.66,3.72,3.72,3.72h3.59c1.75,0,3.21-1.2,3.61-2.83c0.07-0.29,0.11-0.59,0.11-0.89v-0.02
						C19.37,58.11,19.33,57.82,19.26,57.54z M15.65,60.4h-3.59c-1.08,0-1.95-0.89-1.95-1.95v-0.02c0-1.08,0.89-1.95,1.95-1.95h3.59
						c1.03,0,1.87,0.81,1.94,1.81v0c0,0.05,0.01,0.09,0.01,0.14v0.02c0,0.04,0,0.09-0.01,0.13c0,0,0,0,0,0
						C17.53,59.59,16.66,60.4,15.65,60.4z"/>
				</g>
				<g>
					<path class="st0" d="M50.01,41.94c-1.86,0-3.35,1.51-3.35,3.35c0,1.86,1.51,3.35,3.35,3.35c1.86,0,3.35-1.51,3.35-3.35
						C53.36,43.43,51.85,41.94,50.01,41.94z M50.01,46.86c-0.86,0-1.57-0.71-1.57-1.57c0-0.86,0.69-1.57,1.57-1.57
						c0.86,0,1.57,0.71,1.57,1.57C51.57,46.15,50.86,46.86,50.01,46.86z"/>
				</g>
				<g>
					<path class="st0" d="M50.01,28.43c-9.3,0-16.86,7.56-16.86,16.86s7.56,16.86,16.86,16.86c8.44,0,15.45-6.23,16.67-14.33
						c0.09-0.63,0.15-1.27,0.18-1.92c0.01-0.2,0.01-0.41,0.01-0.61C66.87,35.99,59.3,28.43,50.01,28.43z M64.77,48.32
						c-1.41,6.86-7.5,12.03-14.77,12.03c-8.31,0-15.07-6.76-15.07-15.07S41.7,30.2,50.01,30.2c8.31,0,15.07,6.76,15.07,15.07
						c0,0.37-0.01,0.74-0.04,1.1C64.99,47.03,64.9,47.68,64.77,48.32z"/>
				</g>
				<g>
					<g>
						<g>
							<path class="st0" d="M60.54,42.87c-0.36,0-0.71-0.24-0.84-0.6c-0.89-2.62-2.77-4.74-5.27-5.98c-2.5-1.22-5.32-1.42-7.97-0.53
								c-0.47,0.16-0.97-0.09-1.13-0.57c-0.16-0.47,0.09-0.97,0.57-1.13c3.08-1.06,6.38-0.84,9.31,0.6c2.92,1.44,5.12,3.94,6.18,7
								c0.16,0.47-0.09,0.97-0.57,1.13C60.74,42.87,60.65,42.87,60.54,42.87L60.54,42.87z"/>
						</g>
						<g>
							<path class="st0" d="M57.26,44c-0.36,0-0.71-0.24-0.84-0.6c-1.26-3.63-5.21-5.56-8.8-4.32c-0.47,0.16-0.97-0.09-1.13-0.57
								c-0.16-0.47,0.09-0.97,0.57-1.13c4.54-1.55,9.51,0.89,11.06,5.43c0.16,0.47-0.09,0.97-0.55,1.13
								C57.44,43.98,57.35,44,57.26,44z"/>
						</g>
					</g>
					<g>
						<g>
							<path class="st0" d="M50.19,57.17c-5.09,0-9.82-3.19-11.56-8.27c-0.16-0.47,0.09-0.97,0.57-1.13
								c0.47-0.16,0.97,0.09,1.13,0.57c1.86,5.43,7.78,8.35,13.23,6.49c0.47-0.16,0.97,0.09,1.13,0.57
								c0.16,0.47-0.09,0.97-0.57,1.13C52.83,56.95,51.5,57.17,50.19,57.17L50.19,57.17z"/>
						</g>
						<g>
							<path class="st0" d="M50.19,53.69c-3.63,0-7.04-2.28-8.27-5.91c-0.16-0.47,0.09-0.97,0.57-1.13
								c0.47-0.16,0.97,0.09,1.13,0.57c1.22,3.63,5.18,5.56,8.8,4.32c0.47-0.16,0.97,0.09,1.13,0.57c0.16,0.47-0.09,0.97-0.57,1.13
								C52.07,53.55,51.12,53.69,50.19,53.69L50.19,53.69z"/>
						</g>
					</g>
				</g>
				<g>
					<path class="st0" d="M11.75,32.4c-0.49,0-0.89-0.4-0.89-0.89v-3.63c0-0.49,0.4-0.89,0.89-0.89s0.89,0.4,0.89,0.89v3.63
						C12.64,32,12.24,32.4,11.75,32.4z"/>
				</g>
				<g>
					<path class="st0" d="M12.79,37.98c-2.46,0-4.45,1.99-4.45,4.45c0,2.46,1.99,4.45,4.45,4.45c2.44,0,4.45-2,4.45-4.45
						C17.23,39.97,15.25,37.98,12.79,37.98z M12.79,45.11c-1.48,0-2.68-1.2-2.68-2.68c0-1.48,1.2-2.68,2.68-2.68
						c1.48,0,2.66,1.2,2.68,2.68C15.47,43.9,14.26,45.11,12.79,45.11z"/>
				</g>
				<g>
					<path class="st0" d="M12.79,43.39c-0.49,0-0.89-0.4-0.89-0.89v-0.09c0-0.49,0.4-0.89,0.89-0.89s0.89,0.4,0.89,0.89v0.09
						C13.68,43.01,13.28,43.39,12.79,43.39z"/>
				</g>
				<g>
					<path class="st0" d="M24.96,37.98c-2.46,0-4.45,1.99-4.45,4.45c0,2.46,1.99,4.45,4.45,4.45s4.45-2,4.45-4.45
						C29.41,39.97,27.42,37.98,24.96,37.98z M24.96,45.11c-1.48,0-2.68-1.2-2.68-2.68c0-1.48,1.2-2.68,2.68-2.68
						c1.48,0,2.68,1.2,2.68,2.68C27.64,43.9,26.44,45.11,24.96,45.11z"/>
				</g>
				<g>
					<path class="st0" d="M24.96,43.39c-0.49,0-0.89-0.4-0.89-0.89v-0.09c0-0.49,0.4-0.89,0.89-0.89c0.49,0,0.89,0.4,0.89,0.89v0.09
						C25.86,43.01,25.46,43.39,24.96,43.39z"/>
				</g>
				<g>
					<path class="st0" d="M30.39,21.85h-9.97c-0.75,0-1.35,0.6-1.35,1.35v3.12c0,0.75,0.6,1.35,1.35,1.35h9.97
						c0.75,0,1.35-0.6,1.35-1.35V23.2C31.74,22.45,31.14,21.85,30.39,21.85z M29.96,25.88h-9.11v-2.26h9.11V25.88z"/>
				</g>
				<g>
					<g>
						<path class="st0" d="M71.02,20.72c-2.21,0-4.01,1.8-4.01,4.01c0,1.89,1.33,3.49,3.1,3.9c0.29,0.07,0.6,0.11,0.91,0.11
							c0.3,0,0.59-0.03,0.87-0.1c1.79-0.4,3.13-2.01,3.13-3.91C75.03,22.52,73.23,20.72,71.02,20.72z M71.02,26.95
							c-1.22,0-2.22-1-2.22-2.22c0-1.22,1-2.22,2.22-2.22c1.24,0,2.22,1,2.22,2.22C73.25,25.95,72.24,26.95,71.02,26.95z"/>
					</g>
				</g>
				<g>
					<path class="st0" d="M61.07,49.23c-0.4,0-0.75-0.26-0.87-0.67c-0.13-0.47,0.16-0.97,0.64-1.09l8.24-2.13
						c0.6-0.16,1.04-0.71,1.04-1.35V27.86c0-0.49,0.4-0.89,0.89-0.89c0.49,0,0.89,0.4,0.89,0.89V44c0,1.44-0.98,2.7-2.37,3.08
						l-8.26,2.15C61.23,49.21,61.16,49.23,61.07,49.23L61.07,49.23z"/>
				</g>
				<g>
					<path class="st0" d="M62.33,48.99l-0.01-0.03l-0.73-1.69l-0.31-0.72c-0.13-0.33-0.4-0.58-0.73-0.71
						c-0.31-0.11-0.66-0.11-0.98,0.02l-4.03,1.73c-0.67,0.27-0.98,1.06-0.69,1.73l1.06,2.44c0.13,0.33,0.4,0.58,0.73,0.71
						c0.15,0.07,0.29,0.09,0.46,0.09c0.18,0,0.36-0.04,0.53-0.09l4.05-1.75C62.31,50.45,62.62,49.66,62.33,48.99z M57.33,50.63
						l-0.69-1.59l3.17-1.37l0.38,0.87l0,0.01l0.09,0.22l0,0l0.21,0.48L57.33,50.63z"/>
				</g>
			</g>
		</g>
		<g>
			<path class="st0" d="M57.97,21.45H42.02c-1.2,0-2.17-0.98-2.17-2.17v-3.59c0-0.49,0.4-0.89,0.89-0.89s0.89,0.4,0.89,0.89v3.59
				c0,0.22,0.18,0.4,0.4,0.4h15.97c0.22,0,0.4-0.18,0.4-0.4v-3.59c0-0.49,0.4-0.89,0.89-0.89c0.49,0,0.89,0.4,0.89,0.89v3.59
				C60.16,20.46,59.17,21.45,57.97,21.45z"/>
		</g>
	</g>
	<path d="M87.94,65.08c-0.48-0.42-0.92-0.86-1.37-1.31c-0.46-0.46-0.39-1.63,0.1-2.05c0.48-0.41,0.94-0.85,1.39-1.28
		c0.34-0.33,0.5-0.75,0.33-1.19c-0.35-0.89-0.74-1.76-1.15-2.62c-0.24-0.5-0.73-0.71-1.27-0.64c-0.58,0.07-1.17,0.15-1.76,0.18
		c-1.02,0.06-1.77-0.82-1.65-1.83c0.07-0.61,0.06-1.23,0.07-1.85c0.01-0.57-0.26-0.97-0.79-1.18c-0.42-0.17-0.85-0.33-1.27-0.49
		c-0.39-0.15-0.78-0.29-1.17-0.43c-0.22-0.08-0.43-0.09-0.62-0.05c-0.23,0.05-0.44,0.2-0.63,0.41c-0.37,0.44-0.75,0.88-1.1,1.33
		c-0.48,0.61-1.77,0.77-2.35,0.24c-0.5-0.45-0.96-0.95-1.42-1.44c-0.36-0.38-0.76-0.52-1.25-0.32c-0.87,0.36-1.74,0.71-2.59,1.1
		c-0.48,0.22-0.7,0.64-0.66,1.17c0.04,0.59,0.11,1.17,0.15,1.76c0.05,0.85-0.73,1.66-1.58,1.67c-0.65,0.01-1.29,0.01-1.94,0
		c-0.47-0.01-0.79,0.17-1.04,0.57c-0.55,0.86-0.89,1.81-1.17,2.79c-0.16,0.56-0.02,0.98,0.44,1.34c0.48,0.37,0.94,0.77,1.4,1.15
		c0.32,0.27,0.54,1.63,0.32,1.97c-0.02,0.03-0.06,0.05-0.09,0.08c-0.43,0.4-0.85,0.82-1.29,1.21c-0.35,0.31-0.53,0.58-0.55,0.9
		c-0.01,0.19,0.03,0.41,0.13,0.66c0.14,0.38,0.3,0.75,0.45,1.12c0.12,0.29,0.24,0.58,0.35,0.87c0.34,0.88,0.59,1.06,1.55,1.02
		c0.65-0.03,1.29-0.1,1.93-0.13c0.15-0.01,0.35,0.03,0.46,0.12c0.57,0.45,0.96,0.99,0.82,1.77c-0.05,0.28-0.08,0.55-0.13,0.83
		c-0.15,0.74-0.05,1.11,0.62,1.43c0.92,0.44,1.87,0.81,2.83,1.16c0.41,0.15,0.8-0.03,1.1-0.36c0.31-0.33,0.67-0.62,0.91-0.99
		c0.49-0.77,1.21-0.81,1.99-0.73c0.04,0.01,0.09,0,0.12,0.01c0.12,0.05,0.27,0.09,0.36,0.18c0.43,0.44,0.85,0.89,1.27,1.35
		c0.48,0.54,1.02,0.7,1.7,0.44c0.75-0.29,1.48-0.61,2.22-0.91c0.48-0.19,0.7-0.55,0.67-1.06c-0.03-0.65-0.1-1.29-0.13-1.93
		c-0.01-0.18,0.01-0.42,0.12-0.55c0.52-0.6,1.07-1.17,1.99-0.93c0.09,0.02,0.2,0,0.29,0c0.37,0,0.73,0.01,1.1,0
		c0.5-0.01,0.9-0.16,1.11-0.67c0.34-0.81,0.69-1.62,1.04-2.43C88.56,65.99,88.43,65.5,87.94,65.08z M85.7,66.39
		c-0.42,1.06-0.4,1.06-1.54,1.06H84c-1.09-0.24-1.82,0.28-2.55,1.03c-1.29,1.34-1.24,1.28-1.06,3.17c0,0.04,0.01,0.08,0.01,0.13
		c0.09,0.89-0.06,1.13-0.92,1.37c-0.11,0.03-0.29-0.01-0.37-0.09c-0.43-0.38-0.86-0.77-1.24-1.2c-0.42-0.48-0.91-0.72-1.54-0.72
		c-0.59,0-1.18-0.07-1.76-0.04c-0.26,0.01-0.57,0.13-0.75,0.3c-0.52,0.51-0.98,1.08-1.47,1.63c-0.03,0.03-0.05,0.11-0.06,0.11
		c-0.41-0.11-0.82-0.2-1.21-0.35c-0.11-0.04-0.19-0.28-0.19-0.43c0.01-0.63,0.07-1.26,0.1-1.89c0.03-0.45-0.14-0.82-0.46-1.13
		c-0.42-0.42-0.85-0.84-1.27-1.26c-0.01-0.01-0.01-0.01-0.02-0.02c-0.32-0.33-0.71-0.5-1.18-0.45c-0.53,0.06-1.06,0.09-1.59,0.15
		c-0.39,0.05-0.66-0.07-0.79-0.45c-0.03-0.11-0.1-0.2-0.15-0.3c-0.22-0.44-0.19-0.48,0.28-0.58c0.12-0.03,0.24-0.07,0.34-0.14
		c0.02-0.01,0.04-0.03,0.06-0.05c0.45-0.4,0.94-0.78,1.31-1.25c0.22-0.27,0.32-0.69,0.35-1.05c0.05-0.64,0.01-1.29,0.02-1.94
		c0-0.44-0.16-0.79-0.5-1.07c-0.45-0.38-0.89-0.79-1.37-1.12c-0.37-0.26-0.41-0.54-0.29-0.93c0.21-0.68,0.27-0.71,0.96-0.64
		c0.59,0.06,1.18,0.11,1.76,0.06c0.31-0.02,0.65-0.2,0.89-0.4c0.48-0.41,0.91-0.88,1.35-1.33c0.29-0.29,0.45-0.64,0.42-1.06
		c-0.04-0.57-0.06-1.15-0.13-1.72c-0.05-0.4,0.07-0.65,0.42-0.83c0.14-0.07,0.28-0.14,0.41-0.22c0.33-0.2,0.62-0.14,0.86,0.15
		c0.35,0.42,0.71,0.84,1.06,1.26c0.29,0.35,0.66,0.5,1.11,0.49c0.59-0.01,1.18-0.02,1.77,0c0.46,0.01,0.8-0.19,1.09-0.54
		c0.36-0.43,0.72-0.86,1.07-1.3c0.04-0.04,0.07-0.09,0.11-0.13c0.19-0.24,0.36-0.28,0.68-0.17c0.71,0.25,1,0.67,0.86,1.41
		c-0.08,0.46-0.14,0.94-0.16,1.4c-0.01,0.22,0.05,0.5,0.19,0.65c0.04,0.04,0.07,0.08,0.11,0.12c0.49,0.54,1.01,1.06,1.55,1.55
		c0.18,0.16,0.48,0.24,0.73,0.24c0.6-0.01,1.2-0.09,1.8-0.13c0.61-0.05,0.58,0.06,0.85,0.58c0.39,0.76,0.03,1.17-0.49,1.59
		c-0.21,0.17-0.39,0.38-0.61,0.52c-0.56,0.38-0.79,0.88-0.74,1.55c0.03,0.45,0.02,0.9,0,1.35c-0.03,0.53,0.16,0.96,0.55,1.31
		c0.44,0.39,0.87,0.79,1.32,1.18C85.74,65.98,85.81,66.12,85.7,66.39z"/>
	<path d="M80.57,62.29c-0.15-1.36-0.81-2.52-1.79-3.29c-0.81-0.64-1.84-1.01-2.98-1.01c-2.98,0-5.29,2.19-5.3,5.03
		c-0.01,1.24,0.49,2.39,1.29,3.27c0.93,1.02,2.29,1.68,3.77,1.68c0.3,0,0.59-0.03,0.87-0.08c2.36-0.42,4.18-2.5,4.18-4.99
		C80.61,62.69,80.6,62.49,80.57,62.29z M75.72,59.83c1.57,0,2.9,1.41,2.89,3.08c0,0.66-0.19,1.27-0.52,1.76
		c-0.18,0.27-0.4,0.51-0.65,0.7c-0.46,0.36-1.03,0.57-1.64,0.57c-1.68,0-3.18-1.45-3.16-3.06C72.66,61.29,74.12,59.84,75.72,59.83z"
		/>
</g>
</svg>
