<svg width="68" height="68" viewBox="0 0 68 68" fill="none" xmlns="http://www.w3.org/2000/svg">
<path d="M34.0001 65.2909C51.2829 65.2909 65.2933 51.2816 65.2933 34.0002C65.2933 16.7188 51.2829 2.70947 34.0001 2.70947C16.7174 2.70947 2.70703 16.7188 2.70703 34.0002C2.70703 51.2816 16.7174 65.2909 34.0001 65.2909Z" stroke="#EBB94F" stroke-width="5.08513" stroke-miterlimit="10"/>
<path d="M27.4503 53.5565C27.4503 51.5351 27.4503 49.6149 27.4503 47.5935C25.0245 47.5935 22.6998 47.5935 20.274 47.5935C20.274 46.2796 20.274 44.9658 20.274 43.6519C21.0826 43.6519 21.8912 43.6519 22.5987 43.6519C23.9127 43.6519 24.418 43.1465 24.418 41.8326C24.418 36.4761 24.418 31.1195 24.418 25.7629C24.418 24.6512 24.0137 24.2469 22.9019 24.1458C22.3965 24.1458 21.8911 24.1458 21.3858 24.1458C20.8804 24.1458 20.375 24.1458 19.8696 24.1458C19.8696 22.8319 19.8696 21.6191 19.8696 20.3053C22.2954 20.3053 24.7213 20.3053 27.2482 20.3053C27.2482 18.2839 27.2482 16.3636 27.2482 14.4434C28.4611 14.4434 29.6739 14.4434 30.9879 14.4434C30.9879 16.3636 30.9879 18.2839 30.9879 20.3053C31.7965 20.3053 32.6051 20.3053 33.5148 20.3053C33.5148 18.385 33.5148 16.4647 33.5148 14.4434C34.8288 14.4434 35.9407 14.4434 37.2547 14.4434C37.2547 15.353 37.2547 16.1615 37.2547 16.97C37.2547 17.8797 37.2547 18.8903 37.2547 19.7999C37.2547 20.2042 37.3557 20.4063 37.8611 20.4063C39.8826 20.6085 41.803 21.2149 43.6223 22.2255C47.16 24.348 47.0589 29.1992 44.431 31.6248C44.1278 31.9281 43.7235 32.2312 43.3192 32.5344C43.9256 32.8377 44.6332 33.1409 45.2396 33.5451C47.5644 35.1622 48.3729 37.3857 48.0697 40.1145C47.8675 41.8327 47.4633 43.3487 46.3514 44.6626C44.9364 46.3807 43.0159 47.0882 40.8933 47.3914C39.7815 47.5935 38.5686 47.5935 37.3557 47.6946C37.3557 49.6149 37.3557 51.5351 37.3557 53.5565C36.1428 53.5565 34.9299 53.5565 33.717 53.5565C33.717 51.6362 33.717 49.6149 33.717 47.5935C32.9084 47.5935 32.0998 47.5935 31.2912 47.5935C31.2912 49.5138 31.2912 51.5351 31.2912 53.5565C29.9772 53.5565 28.7643 53.5565 27.4503 53.5565ZM31.0891 43.2476C32.5041 43.2476 33.9192 43.2476 35.3342 43.2476C35.7385 43.2476 36.1428 43.2476 36.5471 43.2476C37.861 43.0455 39.175 42.7423 40.0847 41.6305C41.4998 40.1145 41.3988 37.4868 39.7815 36.4761C39.3772 36.1729 38.8718 35.9707 38.3665 35.8697C35.9407 35.1622 33.5149 35.5665 31.0891 35.4654C31.0891 37.9921 31.0891 40.5188 31.0891 43.2476ZM31.0891 31.5238C32.6052 31.5238 34.0202 31.5238 35.4353 31.5238C36.5471 31.5238 37.4568 31.1195 38.2654 30.311C39.9837 28.3907 39.3772 25.6618 37.0524 24.8533C35.132 24.1458 33.1106 24.449 31.0891 24.348C31.0891 26.6725 31.0891 29.0982 31.0891 31.5238Z" fill="#EBB94F"/>
</svg>
