<?xml version="1.0" encoding="utf-8"?>
<!-- Generator: Adobe Illustrator 26.0.1, SVG Export Plug-In . SVG Version: 6.00 Build 0)  -->
<svg version="1.1" id="Layer_1" xmlns="http://www.w3.org/2000/svg" xmlns:xlink="http://www.w3.org/1999/xlink" x="0px" y="0px"
	 viewBox="0 0 50 50" style="enable-background:new 0 0 50 50;" xml:space="preserve">
<style type="text/css">
	.st0{fill:none;stroke:#2F81DB;stroke-width:1.5;stroke-miterlimit:10;}
	.st1{fill:none;stroke:#2F81DB;stroke-linecap:round;stroke-miterlimit:10;}
</style>
<g>
	<ellipse transform="matrix(0.9192 -0.3939 0.3939 0.9192 -3.8436 17.1602)" class="st0" cx="39.9" cy="17.9" rx="5.3" ry="16.4"/>
	<path class="st0" d="M42.1,31.2c0,0-12-2.8-28.7,4.5l-4.8,2.1c-0.8,0.4-1.8,0.5-2.7,0.1c-0.5-0.2-1-0.5-1.2-1
		c-0.5-0.9-1.6-3.4-2.3-5.1c-0.9-2.1,0.1-4.6,2.2-5.4c0,0,0.1,0,0.1,0c3.7-1.4,23.2-10.8,27.1-18.5"/>
	<line class="st0" x1="8.3" y1="24.6" x2="13.1" y2="35.7"/>
	<path class="st0" d="M21.5,32.6c0,0,0.6,2.3-0.7,3.5c-0.2,0.2-0.2,0.4,0,0.6c1.1,1.4,4.9,6.3,4.9,8.4c0,0.3-0.1,0.5-0.4,0.6
		c-1,0.6-3.8,1.6-3.8,1.6s-1.1,0.2-1.9-1.3S16.3,38,16.3,38s-2.9,0.4-3.3-2.1"/>
	<line class="st1" x1="5" y1="30.3" x2="7.5" y2="29.1"/>
	<line class="st1" x1="6" y1="32.6" x2="8.5" y2="31.5"/>
	<line class="st1" x1="7" y1="35" x2="9.5" y2="33.8"/>
	<line class="st1" x1="20.3" y1="38.5" x2="21.8" y2="37.7"/>
	<line class="st1" x1="21.4" y1="40.7" x2="23" y2="39.9"/>
	<line class="st1" x1="22.6" y1="42.9" x2="24.1" y2="42"/>
	<path class="st1" d="M27.2,17.6c-1.6,1.2-3.4,2.5-5.4,3.8c-2.5,1.6-5,2.8-7.2,3.8"/>
	<path class="st1" d="M29,16c-0.1,0.1-0.2,0.2-0.4,0.4c-0.2,0.2-0.3,0.3-0.5,0.4"/>
	<path class="st0" d="M37.2,24.5c1.8-0.6,3.1-2.3,3.1-4.3c0-2.5-2-4.5-4.5-4.5c-0.8,0-1.6,0.2-2.2,0.6"/>
</g>
</svg>
