<svg width="124" height="124" viewBox="0 0 124 124" fill="none" xmlns="http://www.w3.org/2000/svg">
<path d="M94.9908 6.30847V55.8125C92.6848 55.8125 90.8748 57.6799 90.8738 59.9295L90.866 78.504H8.37805C3.76348 78.504 0.124023 82.2232 0.124023 86.7581V107.371C0.124023 111.906 3.77884 115.625 8.37805 115.625H10.4325V121.804C10.4281 122.95 11.3577 123.879 12.5031 123.875H26.9366C28.0756 123.87 29.0034 122.944 28.9991 121.804V115.625H94.991V121.804C94.9866 122.951 95.9187 123.882 97.0656 123.875H111.495C112.642 123.882 113.574 122.951 113.57 121.804V115.625H115.624C120.239 115.625 123.874 111.906 123.874 107.371V86.7581C123.874 82.2232 120.239 78.504 115.624 78.504H111.495V59.9295C111.495 57.6799 109.672 55.8125 107.374 55.8125L107.37 6.30847C107.37 2.91627 104.631 0.125 101.19 0.125C97.7498 0.125 94.9908 2.91627 94.9908 6.30847ZM101.19 4.25403C102.312 4.25403 103.245 5.13018 103.245 6.30847L103.249 55.8125H99.1238L99.1197 6.30847C99.1197 5.13018 100.068 4.25403 101.19 4.25403ZM42.5259 23.449C28.3872 23.449 14.836 29.148 4.845 39.2561C2.83366 41.1349 5.92675 44.1958 7.78163 42.1484C17.0048 32.8172 29.4925 27.578 42.5259 27.578C55.5605 27.578 68.0629 32.8158 77.2863 42.1484C79.1536 44.2095 82.2182 41.1198 80.223 39.2561C70.2317 29.1464 56.6659 23.449 42.5259 23.449ZM42.5259 36.4242C31.7827 36.4242 21.4941 40.741 13.9047 48.4205C11.7724 50.2342 15.0886 53.3952 16.8252 51.3129C23.6468 44.4103 32.888 40.5331 42.5259 40.5331C52.1627 40.5331 61.4052 44.4117 68.2266 51.3129C70.1183 53.3091 73.1241 50.3374 71.1673 48.4205C63.578 40.7425 53.268 36.4242 42.5259 36.4242ZM42.5259 49.3793C35.1803 49.3793 28.1519 52.3207 22.9644 57.5689C20.9617 59.4165 24.0106 62.5258 25.8849 60.4773C30.3045 56.006 36.2856 53.5043 42.5259 53.5043C48.7669 53.5043 54.7633 56.0051 59.1831 60.4773C61.0972 62.4957 64.091 59.4749 62.1197 57.5689C56.932 52.3196 49.8723 49.3793 42.5259 49.3793ZM94.9989 59.9375H107.37V78.504H94.9908L94.9989 59.9375ZM42.5259 62.3344C38.5755 62.3344 34.7939 63.9173 32.0079 66.7373C29.983 68.695 33.0065 71.6895 34.9446 69.6458C36.9626 67.6031 39.6811 66.4634 42.5259 66.4634C45.3691 66.4634 48.1056 67.6051 50.1233 69.6458C52.0617 71.6751 55.0665 68.6868 53.0479 66.7373C50.2623 63.9201 46.4741 62.3344 42.5259 62.3344ZM8.37782 82.6331H115.624C117.945 82.6331 119.749 84.4694 119.749 86.7581V107.371C119.749 109.692 117.888 111.496 115.624 111.496H8.37782C6.08913 111.496 4.25287 109.692 4.25287 107.371V86.7581C4.25287 84.4694 6.05693 82.6331 8.37782 82.6331ZM18.6783 86.7581C15.2371 86.7581 12.4988 89.5447 12.4988 92.9375C12.4988 96.3303 15.2398 99.121 18.6783 99.121C22.1167 99.121 24.8778 96.3303 24.8778 92.9375C24.8778 89.5447 22.1194 86.7581 18.6783 86.7581ZM35.1984 86.7581C31.7258 86.7581 28.9988 89.5447 28.9988 92.9375C28.9988 96.3303 31.7653 99.121 35.1984 99.121C38.6315 99.121 41.3779 96.3303 41.3779 92.9375C41.3779 89.5447 38.671 86.7581 35.1984 86.7581ZM51.6944 86.7581C48.2446 86.7581 45.4948 89.5447 45.4948 92.9375C45.4948 96.3303 48.2613 99.121 51.6944 99.121C55.1275 99.121 57.8738 96.3303 57.8738 92.9375C57.8738 89.5447 55.1442 86.7581 51.6944 86.7581ZM18.6783 90.867C19.7773 90.867 20.7528 91.774 20.7528 92.9375C20.7528 94.101 19.7935 94.992 18.6783 94.992C17.5631 94.992 16.6238 94.101 16.6238 92.9375C16.6238 91.774 17.5792 90.867 18.6783 90.867ZM35.1984 90.867C36.3049 90.867 37.2528 91.774 37.2528 92.9375C37.2528 94.101 36.3136 94.992 35.1984 94.992C34.0832 94.992 33.1238 94.101 33.1238 92.9375C33.1238 91.774 34.0919 90.867 35.1984 90.867ZM51.6944 90.867C52.7781 90.867 53.7488 91.774 53.7488 92.9375C53.7488 94.101 52.8176 94.992 51.6944 94.992C50.5711 94.992 49.6198 94.101 49.6198 92.9375C49.6198 91.774 50.6106 90.867 51.6944 90.867ZM64.0532 90.867C61.3629 90.867 61.3629 94.992 64.0532 94.992H82.6319C85.3222 94.992 85.3222 90.867 82.6319 90.867H64.0532ZM91.901 90.867C89.2108 90.867 89.2108 94.992 91.901 94.992H97.0654C99.7557 94.992 99.7557 90.867 97.0654 90.867H91.901ZM14.5573 115.625H24.8738V119.75H14.5573V115.625ZM99.1238 115.625H109.436V119.75H99.1238V115.625Z" fill="black"/>
</svg>
