<?xml version="1.0" encoding="utf-8"?>
<!-- Generator: Adobe Illustrator 26.0.1, SVG Export Plug-In . SVG Version: 6.00 Build 0)  -->
<svg version="1.1" id="Layer_1" xmlns="http://www.w3.org/2000/svg" xmlns:xlink="http://www.w3.org/1999/xlink" x="0px" y="0px"
	 viewBox="0 0 90 90" style="enable-background:new 0 0 90 90;" xml:space="preserve">
<style type="text/css">
	.st0{fill:#010101;}
</style>
<g id="layer2">
	<path id="rect1555" vector-effect="none" class="st0" d="M67.4,7.19V40.8c-1.57,0-2.79,1.27-2.79,2.79L64.6,56.2h-56
		c-3.13,0-5.6,2.52-5.6,5.6V75.8c0,3.08,2.48,5.6,5.6,5.6h1.39v4.19c0,0.78,0.63,1.41,1.41,1.41h9.8c0.77,0,1.4-0.63,1.4-1.41V81.4
		h44.8v4.19c0,0.78,0.63,1.41,1.41,1.41h9.8c0.78,0,1.41-0.63,1.41-1.41V81.4h1.39c3.13,0,5.6-2.52,5.6-5.6V61.81
		c0-3.08-2.47-5.6-5.6-5.6h-2.8V43.59c0-1.53-1.24-2.79-2.8-2.79l0-33.61c0-2.3-1.86-4.2-4.2-4.2C69.27,3,67.4,4.89,67.4,7.19
		L67.4,7.19z M71.61,5.8C72.37,5.8,73,6.39,73,7.19l0,33.61h-2.8l0-33.61C70.2,6.39,70.84,5.8,71.61,5.8L71.61,5.8z M31.78,18.83
		c-9.6,0-18.8,3.87-25.58,10.73c-1.37,1.28,0.73,3.35,1.99,1.96c6.26-6.33,14.74-9.89,23.59-9.89c8.85,0,17.34,3.56,23.6,9.89
		c1.27,1.4,3.35-0.7,1.99-1.96C50.59,22.7,41.38,18.83,31.78,18.83L31.78,18.83z M31.78,27.64c-7.29,0-14.28,2.93-19.43,8.14
		c-1.45,1.23,0.8,3.38,1.98,1.96c4.63-4.69,10.9-7.32,17.45-7.32c6.54,0,12.82,2.63,17.45,7.32c1.28,1.36,3.32-0.66,2-1.96
		C46.07,30.57,39.07,27.64,31.78,27.64L31.78,27.64z M31.78,36.43c-4.99,0-9.76,2-13.28,5.56c-1.36,1.25,0.71,3.37,1.98,1.97
		c3-3.04,7.06-4.73,11.3-4.73c4.24,0,8.31,1.7,11.31,4.73c1.3,1.37,3.33-0.68,1.99-1.97C41.56,38.43,36.77,36.43,31.78,36.43
		L31.78,36.43z M67.4,43.6h8.4v12.6h-8.4L67.4,43.6z M31.78,45.23c-2.68,0-5.25,1.07-7.14,2.99c-1.37,1.33,0.68,3.36,1.99,1.97
		c1.37-1.39,3.22-2.16,5.15-2.16c1.93,0,3.79,0.78,5.16,2.16c1.32,1.38,3.36-0.65,1.99-1.97C37.03,46.3,34.46,45.23,31.78,45.23
		L31.78,45.23z M8.6,59.01h72.8c1.58,0,2.8,1.25,2.8,2.8V75.8c0,1.58-1.26,2.8-2.8,2.8H8.6c-1.55,0-2.8-1.22-2.8-2.8V61.81
		C5.8,60.25,7.02,59.01,8.6,59.01z M15.59,61.81c-2.34,0-4.19,1.89-4.19,4.19c0,2.3,1.86,4.2,4.19,4.2s4.21-1.89,4.21-4.2
		C19.8,63.7,17.93,61.81,15.59,61.81z M26.81,61.81c-2.36,0-4.21,1.89-4.21,4.19c0,2.3,1.88,4.2,4.21,4.2S31,68.31,31,66
		C31,63.7,29.16,61.81,26.81,61.81z M38,61.81c-2.34,0-4.21,1.89-4.21,4.19c0,2.3,1.88,4.2,4.21,4.2c2.33,0,4.19-1.89,4.19-4.2
		C42.2,63.7,40.35,61.81,38,61.81z M15.59,64.6C16.34,64.6,17,65.21,17,66c0,0.79-0.65,1.39-1.41,1.39S14.2,66.79,14.2,66
		C14.2,65.21,14.85,64.6,15.59,64.6z M26.81,64.6c0.75,0,1.39,0.62,1.39,1.41c0,0.79-0.64,1.39-1.39,1.39
		c-0.76,0-1.41-0.6-1.41-1.39C25.4,65.21,26.05,64.6,26.81,64.6z M38,64.6c0.74,0,1.39,0.62,1.39,1.41c0,0.79-0.63,1.39-1.39,1.39
		c-0.76,0-1.41-0.6-1.41-1.39C36.6,65.21,37.27,64.6,38,64.6z M46.39,64.6c-1.83,0-1.83,2.8,0,2.8h12.61c1.83,0,1.83-2.8,0-2.8
		H46.39z M65.3,64.6c-1.83,0-1.83,2.8,0,2.8h3.51c1.83,0,1.83-2.8,0-2.8H65.3z M12.79,81.4h7v2.8h-7V81.4z M70.2,81.4h7v2.8h-7V81.4
		z"/>
</g>
</svg>
