<svg width="72" height="72" viewBox="0 0 72 72" fill="none" xmlns="http://www.w3.org/2000/svg">
<path d="M35.2555 32.64C41.5074 32.64 46.5755 27.5719 46.5755 21.32C46.5755 15.0681 41.5074 10 35.2555 10C29.0037 10 23.9355 15.0681 23.9355 21.32C23.9355 27.5719 29.0037 32.64 35.2555 32.64Z" fill="white" stroke="#C22032" stroke-width="4" stroke-miterlimit="10"/>
<path d="M50.7438 48.5278C47.9438 42.4878 41.8958 38.7758 34.7918 38.5918C27.6878 38.7758 21.6398 42.4958 18.8398 48.5278" fill="white"/>
<path d="M50.7438 48.5278C47.9438 42.4878 41.8958 38.7758 34.7918 38.5918C27.6878 38.7758 21.6398 42.4958 18.8398 48.5278" stroke="#C22032" stroke-width="4" stroke-miterlimit="10" stroke-linecap="round"/>
<path d="M19.4401 51.144L20.2321 53.376C20.3201 53.624 20.5601 53.8 20.8241 53.808L23.1921 53.872C23.8001 53.888 24.0481 54.656 23.5681 55.032L21.6881 56.472C21.4801 56.632 21.3841 56.912 21.4641 57.168L22.1361 59.44C22.3121 60.024 21.6561 60.496 21.1521 60.152L19.2001 58.8C18.9841 58.648 18.6881 58.648 18.4721 58.8L16.5201 60.136C16.0161 60.48 15.3681 60 15.5361 59.424L16.2081 57.152C16.2801 56.896 16.1921 56.616 15.9841 56.456L14.1041 55.016C13.6241 54.648 13.8721 53.872 14.4801 53.856L16.8481 53.792C17.1121 53.784 17.3521 53.616 17.4401 53.36L18.2321 51.128C18.4321 50.568 19.2401 50.568 19.4401 51.144Z" fill="#C22032"/>
<path d="M52.1999 51.1439L52.9919 53.3759C53.0799 53.6239 53.3199 53.7999 53.5839 53.8079L55.9519 53.8719C56.5599 53.8879 56.8079 54.6559 56.3279 55.0319L54.4479 56.4719C54.2399 56.6319 54.1439 56.9119 54.2239 57.1679L54.8959 59.4399C55.0719 60.0239 54.4159 60.4959 53.9119 60.1519L51.9599 58.8159C51.7439 58.6639 51.4479 58.6639 51.2319 58.8159L49.2799 60.1519C48.7759 60.4959 48.1279 60.0159 48.2959 59.4399L48.9679 57.1679C49.0399 56.9119 48.9519 56.6319 48.7439 56.4719L46.8639 55.0319C46.3839 54.6639 46.6319 53.8879 47.2399 53.8719L49.6079 53.8079C49.8719 53.7999 50.1119 53.6319 50.1999 53.3759L50.9919 51.1439C51.1919 50.5679 51.9999 50.5679 52.1999 51.1439Z" fill="#C22032"/>
<path d="M36.024 43.0957L37.016 45.8877C37.128 46.1997 37.424 46.4157 37.752 46.4237L40.712 46.5037C41.472 46.5277 41.784 47.4877 41.184 47.9517L38.84 49.7517C38.576 49.9517 38.464 50.3037 38.56 50.6237L39.4 53.4637C39.616 54.1917 38.792 54.7917 38.168 54.3597L35.728 52.6877C35.456 52.4957 35.088 52.4957 34.816 52.6877L32.376 54.3597C31.752 54.7917 30.928 54.1917 31.144 53.4637L31.984 50.6237C32.08 50.3037 31.968 49.9597 31.704 49.7517L29.36 47.9517C28.76 47.4877 29.072 46.5277 29.832 46.5037L32.792 46.4237C33.128 46.4157 33.416 46.1997 33.528 45.8877L34.52 43.0957C34.752 42.3757 35.768 42.3757 36.024 43.0957Z" fill="#C22032"/>
</svg>
