<svg width="40" height="42" viewBox="0 0 40 42" fill="none" xmlns="http://www.w3.org/2000/svg">
<path d="M5.65234 2.60186L8.1494 1.48065C9.51714 0.865387 11.075 0.741524 12.5322 1.13217C13.9895 1.52282 15.2466 2.40129 16.069 3.60365L18.7777 7.56435C19.4849 8.59858 19.8317 9.81612 19.7696 11.0461C19.7075 12.2762 19.2396 13.457 18.4315 14.4228L15.5551 17.8589C15.4711 17.9592 15.4279 18.0847 15.4332 18.2126C15.4703 19.0684 16.3379 20.62 18.0981 22.698C19.3743 24.2081 20.4792 25.2397 21.3624 25.7783C21.9808 26.1555 22.2948 26.21 22.4172 26.1577L26.7145 24.2044C27.888 23.6711 29.2087 23.4983 30.4914 23.7101C31.7741 23.922 32.9545 24.508 33.8672 25.3859L37.345 28.7369C38.4035 29.7556 39.035 31.1027 39.1223 32.5281C39.2096 33.9536 38.7467 35.3606 37.8196 36.4879L36.1177 38.5552C35.2154 39.6511 34.0283 40.5074 32.6718 41.0409C31.3154 41.5743 29.836 41.7665 28.3776 41.5989C21.9386 40.859 15.607 36.7306 9.33648 29.3248C3.05978 21.909 0.185313 15.1568 0.847305 9.04665C0.995503 7.67254 1.51567 6.35768 2.35768 5.22881C3.19968 4.09993 4.33289 3.19543 5.65234 2.60186ZM7.11473 5.508C6.32278 5.86356 5.64109 6.40596 5.13534 7.0829C4.6296 7.75985 4.31686 8.54852 4.22726 9.37291C3.67462 14.5107 6.22127 20.4968 11.9931 27.3151C17.7588 34.1235 23.3722 37.7827 28.7898 38.4074C29.6649 38.5078 30.5525 38.3922 31.3662 38.0719C32.1799 37.7516 32.8921 37.2376 33.4332 36.58L35.1329 34.513C35.5547 34.0006 35.7653 33.3609 35.7258 32.7128C35.6862 32.0647 35.3992 31.4521 34.9179 30.989L31.4404 27.6401C31.0255 27.2405 30.4886 26.9738 29.9051 26.8774C29.3216 26.781 28.7208 26.8597 28.187 27.1026L23.8792 29.0617C21.3744 30.1775 18.6733 28.5258 15.4414 24.7077C13.2621 22.137 12.1071 20.0693 12.035 18.3423C11.9959 17.4456 12.2997 16.5689 12.8859 15.8641L15.7622 12.4281C16.1293 11.9889 16.3417 11.4521 16.3697 10.8929C16.3976 10.3338 16.2396 9.78042 15.9179 9.31046L13.2114 5.34945C12.8376 4.80291 12.2661 4.40363 11.6037 4.2261C10.9413 4.04858 10.2331 4.10494 9.61145 4.38467L7.11473 5.508Z" fill="#3E6D19"/>
</svg>
