<?xml version="1.0" encoding="utf-8"?>
<!-- Generator: Adobe Illustrator 26.0.1, SVG Export Plug-In . SVG Version: 6.00 Build 0)  -->
<svg version="1.1" id="Layer_1" xmlns="http://www.w3.org/2000/svg" xmlns:xlink="http://www.w3.org/1999/xlink" x="0px" y="0px"
	 viewBox="0 0 90 90" style="enable-background:new 0 0 90 90;" xml:space="preserve">
<style type="text/css">
	.st0{fill:#931A1D;}
</style>
<g>
	<path class="st0" d="M84.39,25.17H55.3V7.17c0-0.88-0.72-1.6-1.6-1.6s-1.6,0.72-1.6,1.6l0,40.11h-4l0-40.11
		c0-0.88-0.72-1.6-1.6-1.6s-1.6,0.72-1.6,1.6v18.01h-20.8c-0.77-4.81-4.95-8.51-9.98-8.51C8.54,16.67,4,21.2,4,26.77v47.56
		c0,0.01,0,0.01,0,0.02c0.01,5.56,4.54,10.09,10.11,10.09c0.01,0,0.01,0,0.02,0h70.26c0.88,0,1.6-0.72,1.6-1.6V61.99
		c0-0.88-0.72-1.6-1.6-1.6s-1.6,0.72-1.6,1.6v19.24H21.49c0.99-1.06,1.76-2.34,2.22-3.72h46.16c0.88,0,1.6-0.72,1.6-1.6
		c0-3.03,2.46-5.49,5.49-5.49h0.27c0.88,0,1.6-0.72,1.6-1.6V40.83c0-0.88-0.72-1.6-1.6-1.6h-0.27c-3.03,0-5.49-2.46-5.49-5.49
		c0-0.88-0.72-1.6-1.6-1.6H55.3v-3.76h27.49V47.9c0,0.88,0.72,1.6,1.6,1.6s1.6-0.72,1.6-1.6V26.77C86,25.89,85.28,25.17,84.39,25.17
		L84.39,25.17z M57.65,54.7c0.01-0.13,0.02-0.26,0.02-0.4v-1.49h9.51c0.59,0,1.07,0.48,1.07,1.07v1.52H57.53
		C57.59,55.18,57.63,54.94,57.65,54.7L57.65,54.7z M42.52,54.42c0.01,0.33,0.05,0.67,0.14,0.99H31.93v-1.52
		c0-0.59,0.48-1.07,1.07-1.07h9.51v1.49C42.52,54.34,42.52,54.38,42.52,54.42L42.52,54.42z M53.37,55.41h-6.55
		c-0.6,0-1.1-0.51-1.1-1.11v-2.7c0-0.6,0.5-1.11,1.1-1.11h6.42c0.65,0,1.23,0.42,1.23,1.11v2.7C54.47,54.89,53.97,55.41,53.37,55.41
		z M31.93,58.61h14.9h0h6.52h0h14.9v4.54c0,0.59-0.48,1.07-1.07,1.07l-34.18,0c-0.59,0-1.07-0.48-1.07-1.07L31.93,58.61L31.93,58.61
		z M44.89,32.13H24.22v-3.76h20.67V32.13z M15.57,67.58c1.62,0.35,3.02,1.26,4,2.53c0.17,0.21,0.32,0.44,0.46,0.67
		c-0.94,2.65-3,3.68-4.46,4.08L15.57,67.58z M7.21,26.77c0-3.81,3.1-6.9,6.9-6.9c3.8,0,6.9,3.09,6.91,6.9c0,0,0,0.01,0,0.01v40.16
		c-1.71-1.6-3.94-2.57-6.36-2.7c-2.73-0.15-5.46,0.85-7.45,2.72L7.21,26.77z M7.21,74.33c0-1.9,0.77-3.63,2.02-4.88
		c0.85-0.85,1.93-1.49,3.14-1.8v9.06c0,0.88,0.72,1.6,1.6,1.6c1.75,0,4.76-0.72,6.98-3.02c-0.05,0.33-0.12,0.65-0.21,0.97
		c-0.84,2.87-3.49,4.97-6.63,4.97c0,0,0,0-0.01,0C10.3,81.23,7.21,78.13,7.21,74.33L7.21,74.33z M68.41,35.34
		c0.67,3.6,3.58,6.43,7.22,6.99v24.99c-3.64,0.56-6.55,3.39-7.22,6.99H24.22V35.34h20.67v12.4c-0.81,0.41-1.47,1.07-1.89,1.87H33
		c-2.36,0-4.28,1.92-4.28,4.28v9.26c0,2.36,1.92,4.28,4.28,4.28l34.18,0c2.36,0,4.28-1.92,4.28-4.28v-9.26
		c0-2.36-1.92-4.28-4.28-4.28h-10c-0.42-0.81-1.08-1.46-1.89-1.87V35.34L68.41,35.34L68.41,35.34z"/>
	<path class="st0" d="M85.73,54.09c-0.48-0.73-1.5-0.92-2.22-0.44c-0.73,0.48-0.92,1.5-0.44,2.22c0.48,0.73,1.49,0.92,2.22,0.44
		C86.01,55.83,86.21,54.82,85.73,54.09z"/>
</g>
</svg>
