<svg width="139" height="134" viewBox="0 0 139 134" fill="none" xmlns="http://www.w3.org/2000/svg">
<path d="M136.285 33.2408H86.9622V2.71484C86.9622 1.21571 85.7464 0 84.2473 0C82.7482 0 81.5325 1.21571 81.5325 2.71484L81.5322 70.716H74.7478L74.7464 2.71484C74.7464 1.21571 73.5307 0 72.0316 0C70.5325 0 69.3167 1.21571 69.3167 2.71484V33.2405H34.0531C32.7475 25.0789 25.6588 18.822 17.1339 18.822C7.68627 18.822 0 26.5083 0 35.9559V116.576C0 116.587 0.00135742 116.598 0.00162891 116.608C0.0195469 126.041 7.69821 133.71 17.135 133.71C17.1456 133.71 17.1559 133.709 17.1662 133.709H136.285C137.784 133.709 139 132.494 139 130.994V95.664C139 94.1649 137.784 92.9492 136.285 92.9492C134.786 92.9492 133.57 94.1649 133.57 95.664V128.279H29.6374C31.3236 126.48 32.6159 124.312 33.3942 121.973H111.648C113.147 121.973 114.363 120.757 114.363 119.258C114.363 114.122 118.541 109.943 123.678 109.943H124.136C125.635 109.943 126.851 108.728 126.851 107.228V59.7836C126.851 58.2844 125.635 57.0687 124.136 57.0687H123.678C118.541 57.0687 114.363 52.8914 114.363 47.7568C114.363 46.2577 113.147 45.042 111.648 45.042H86.9622V38.6702H133.57V71.7761C133.57 73.2753 134.786 74.491 136.285 74.491C137.784 74.491 139 73.2753 139 71.7761V35.9557C139 34.4563 137.784 33.2408 136.285 33.2408ZM90.9505 83.3074C90.9712 83.0848 90.985 82.8592 90.985 82.6352V80.1077H107.115C108.118 80.1077 108.934 80.9238 108.934 81.9266V84.5H90.7431C90.8465 84.1096 90.9125 83.7095 90.9505 83.3074ZM65.2985 82.8179C65.314 83.3848 65.3889 83.9519 65.5344 84.5006H47.3433V81.9269C47.3433 80.924 48.1605 80.108 49.1647 80.108H65.2925V82.6355C65.2925 82.6966 65.2971 82.7568 65.2985 82.8179ZM83.6886 84.4995H72.5889C71.5701 84.4995 70.7233 83.627 70.7233 82.6154V78.0308C70.7233 77.0111 71.5736 76.1552 72.5928 76.1467H83.4722C84.5671 76.1467 85.5545 76.8569 85.5545 78.0308V82.6154C85.5545 83.6272 84.7072 84.4995 83.6886 84.4995ZM47.3433 89.9303H72.6039H72.6082H83.669H83.675H108.934V97.6201C108.934 98.6243 108.118 99.4412 107.115 99.4412L49.1645 99.4415C48.1602 99.4415 47.3431 98.6243 47.3431 97.6201L47.3433 89.9303ZM69.3167 45.042H34.2706V38.6702H69.3167V45.042ZM19.608 105.137C22.3459 105.729 24.729 107.28 26.3886 109.421C26.669 109.782 26.9299 110.16 27.1672 110.553C25.5782 115.038 22.0817 116.785 19.608 117.466V105.137ZM5.42969 35.9559C5.42969 29.5025 10.6802 24.252 17.1339 24.252C23.5844 24.252 28.8327 29.4949 28.8406 35.9418C28.8406 35.9464 28.8398 35.951 28.8398 35.9557V104.04C25.9482 101.327 22.1678 99.6842 18.0654 99.4672C13.4352 99.218 8.81428 100.901 5.42969 104.074V35.9559ZM5.4305 116.576C5.4305 113.349 6.74286 110.423 8.86207 108.304C10.311 106.855 12.137 105.784 14.178 105.251V120.615C14.178 122.114 15.3934 123.33 16.8928 123.33C19.8604 123.33 24.9633 122.115 28.7236 118.205C28.6451 118.766 28.5262 119.314 28.3709 119.847C26.9516 124.713 22.4526 128.28 17.1331 128.28C17.1299 128.28 17.1266 128.28 17.1233 128.28C10.6748 128.273 5.4305 123.026 5.4305 116.576ZM109.184 50.4717C110.326 56.5798 115.248 61.3742 121.421 62.326V104.686C115.248 105.638 110.326 110.434 109.184 116.543H34.2706V50.4717H69.3167V71.5016C67.9433 72.1969 66.818 73.3122 66.1102 74.678H49.1647C45.1663 74.678 41.9137 77.9298 41.9137 81.9266V97.6198C41.9137 101.618 45.1663 104.871 49.1647 104.871L107.115 104.871C111.112 104.871 114.364 101.618 114.364 97.6198V81.9266C114.364 77.9296 111.112 74.678 107.115 74.678H90.1673C89.4598 73.3124 88.335 72.1977 86.9624 71.5022V50.4714H109.184V50.4717Z" fill="#930515"/>
<path d="M138.541 82.2725C137.731 81.0342 136.002 80.7071 134.778 81.5202C133.544 82.3409 133.213 84.0561 134.029 85.2857C134.848 86.5204 136.562 86.8502 137.792 86.035C139.024 85.2181 139.359 83.4993 138.541 82.2725Z" fill="black"/>
</svg>
