<svg id="Layer_1" data-name="Layer 1" xmlns="http://www.w3.org/2000/svg" xmlns:xlink="http://www.w3.org/1999/xlink" viewBox="0 0 90 90"><defs><style>.cls-1{fill:#d4af37;}.cls-2{clip-path:url(#clip-path);}.cls-3{fill:#818181;}</style><clipPath id="clip-path"><path class="cls-1" d="M89.22,32.36a1.5,1.5,0,0,0-.87-.77h0L24,7.75a1.6,1.6,0,0,0-2,.95L14.85,28.09a1.58,1.58,0,0,0,1,2l7.46,2.74-1.64,4.48a1.57,1.57,0,0,0,.93,2l14.92,5.48-1.1,3a6.3,6.3,0,0,0,2.27,7.32v8.11H17.26a7.94,7.94,0,0,0-5.68-4.61V55.32A1.58,1.58,0,0,0,10,53.74H3.59A1.59,1.59,0,0,0,2,55.32V80.74a1.6,1.6,0,0,0,1.6,1.6H10a1.59,1.59,0,0,0,1.57-1.6V77.4a7.87,7.87,0,0,0,5.68-4.61H38.64v1.6a4.77,4.77,0,0,0,9.53,0V56.79a6.4,6.4,0,0,0,3.12-3.47l1.09-3,13.44,4.92a1.36,1.36,0,0,0,.53.11,1.62,1.62,0,0,0,1.51-1l.58-1.63A9.52,9.52,0,0,0,78.9,39.44l9.63-4.95A1.59,1.59,0,0,0,89.22,32.36ZM8.4,79.15H5.18V56.92H8.4Zm6.35-9.53a4.74,4.74,0,0,1-3.17,4.49V62a4.74,4.74,0,0,1,3.17,4.48ZM45,74.39a1.6,1.6,0,0,1-3.19,0v-1.6H45Zm0-4.77H18V66.44H45Zm0-6.35H41.81V56.61l1.32.48a6.59,6.59,0,0,0,1.87.36Zm3.31-11.05a3.17,3.17,0,0,1-4.07,1.88l-3-1.08a3.19,3.19,0,0,1-1.88-4.09l1.08-3,8.06,3,.89.31Zm17.1-.49L25.14,36.94l1.34-3,23.85,8.77a1.26,1.26,0,0,0,1.41-.31l4.46-4.21,12.5,4.6Zm10.75-6.2a6.37,6.37,0,0,1-6.6,4.12L72,43l4-2.07A6.38,6.38,0,0,1,76.16,45.53ZM70.79,40a.67.67,0,0,0-.24,0L56.38,34.87a1.6,1.6,0,0,0-1.64.34L50.28,39.4,18.39,27.69l6-16.4,59.45,22Z"/></clipPath></defs><path class="cls-1" d="M89.22,32.36a1.5,1.5,0,0,0-.87-.77h0L24,7.75a1.6,1.6,0,0,0-2,.95L14.85,28.09a1.58,1.58,0,0,0,1,2l7.46,2.74-1.64,4.48a1.57,1.57,0,0,0,.93,2l14.92,5.48-1.1,3a6.3,6.3,0,0,0,2.27,7.32v8.11H17.26a7.94,7.94,0,0,0-5.68-4.61V55.32A1.58,1.58,0,0,0,10,53.74H3.59A1.59,1.59,0,0,0,2,55.32V80.74a1.6,1.6,0,0,0,1.6,1.6H10a1.59,1.59,0,0,0,1.57-1.6V77.4a7.87,7.87,0,0,0,5.68-4.61H38.64v1.6a4.77,4.77,0,0,0,9.53,0V56.79a6.4,6.4,0,0,0,3.12-3.47l1.09-3,13.44,4.92a1.36,1.36,0,0,0,.53.11,1.62,1.62,0,0,0,1.51-1l.58-1.63A9.52,9.52,0,0,0,78.9,39.44l9.63-4.95A1.59,1.59,0,0,0,89.22,32.36ZM8.4,79.15H5.18V56.92H8.4Zm6.35-9.53a4.74,4.74,0,0,1-3.17,4.49V62a4.74,4.74,0,0,1,3.17,4.48ZM45,74.39a1.6,1.6,0,0,1-3.19,0v-1.6H45Zm0-4.77H18V66.44H45Zm0-6.35H41.81V56.61l1.32.48a6.59,6.59,0,0,0,1.87.36Zm3.31-11.05a3.17,3.17,0,0,1-4.07,1.88l-3-1.08a3.19,3.19,0,0,1-1.88-4.09l1.08-3,8.06,3,.89.31Zm17.1-.49L25.14,36.94l1.34-3,23.85,8.77a1.26,1.26,0,0,0,1.41-.31l4.46-4.21,12.5,4.6Zm10.75-6.2a6.37,6.37,0,0,1-6.6,4.12L72,43l4-2.07A6.38,6.38,0,0,1,76.16,45.53ZM70.79,40a.67.67,0,0,0-.24,0L56.38,34.87a1.6,1.6,0,0,0-1.64.34L50.28,39.4,18.39,27.69l6-16.4,59.45,22Z"/><g class="cls-2"><path class="cls-3" d="M21.62,32.85h1.64l3.42,1.26,24,8.72s.64.1,1.52-.86l4-3.79,12.5,4.6L72,43l7.87-4s7.42,13.64,7.29,14-4.08,12.76-5.23,14.42-7.54,7.5-9.83,8.6S60.87,80.91,58.83,81,39.17,80.66,38,80.79s-11.33.64-12.88.64-10.39.91-10.39.91H2.8l-.81-1V73.75L2,55a1.5,1.5,0,0,1,1.57-1.3h6.53l7.6-13.93Z"/></g><polygon points="47.42 31.59 44.44 30.48 43.35 33.47 46.33 34.57 47.42 31.59"/><polygon points="41.45 29.39 38.47 28.3 37.38 31.28 40.36 32.38 41.45 29.39"/><polygon points="35.49 27.2 32.52 26.11 31.41 29.09 34.4 30.19 35.49 27.2"/><polygon points="32.52 26.11 35.49 27.2 34.4 30.19 31.41 29.09 32.52 26.11"/><polygon points="38.47 28.3 41.45 29.39 40.36 32.38 37.38 31.28 38.47 28.3"/><polygon points="47.42 31.59 46.33 34.57 43.35 33.47 44.44 30.48 47.42 31.59"/><polygon points="35.49 27.2 34.4 30.19 31.41 29.09 32.52 26.11 35.49 27.2"/><polygon points="41.45 29.39 40.36 32.38 37.38 31.28 38.47 28.3 41.45 29.39"/><polygon points="47.42 31.59 46.33 34.57 43.35 33.47 44.44 30.48 47.42 31.59"/></svg>