<svg width="149" height="127" viewBox="0 0 149 127" fill="none" xmlns="http://www.w3.org/2000/svg">
<path d="M148.179 42.0282C147.881 41.4102 147.355 40.9524 146.714 40.7236H146.691L38.152 0.507771C36.7558 0.00421557 35.2222 0.713771 34.7187 2.10999L22.6791 34.8182C22.1756 36.1916 22.8851 37.748 24.2814 38.2515L36.8702 42.8751L34.1007 50.4284C33.5971 51.8247 34.2838 53.3582 35.68 53.8618L60.8578 63.1089L59.0038 68.1444C57.3329 72.6535 58.9122 77.7349 62.8262 80.5044V94.192H26.7534C25.0138 90.1864 21.4431 87.3024 17.1629 86.4098V80.7791C17.1629 79.3142 15.9727 78.1011 14.5078 78.1011H3.68135C2.19358 78.1011 0.980469 79.3142 0.980469 80.7791V123.673C0.980469 125.161 2.19358 126.374 3.68135 126.374H14.5078C15.9727 126.374 17.1629 125.161 17.1629 123.673V118.042C21.4431 117.172 25.0138 114.266 26.7534 110.26H62.8262V112.961C62.8262 117.401 66.4198 120.995 70.8831 120.995C75.3236 120.995 78.9171 117.401 78.9171 112.961V83.2511C81.3434 82.038 83.2202 79.9551 84.1816 77.3916L86.0127 72.356L108.696 80.6647C108.97 80.7791 109.291 80.8478 109.588 80.8478C110.733 80.8478 111.74 80.1382 112.129 79.0853L113.113 76.3387C121.857 77.9867 130.234 72.2416 131.905 63.5209C132.5 60.2936 132.111 56.9747 130.76 53.9762L147.012 45.6218C148.339 44.958 148.843 43.3329 148.179 42.0282ZM11.8069 120.995H6.35935V83.48H11.8069V120.995ZM22.5189 104.904C22.5189 108.314 20.3902 111.359 17.1629 112.48V91.9718C20.3902 93.0933 22.5189 96.1604 22.5189 99.548V104.904ZM73.5611 112.961C73.5611 114.426 72.348 115.639 70.8831 115.639C69.3954 115.639 68.1822 114.426 68.1822 112.961V110.26H73.5611V112.961ZM73.5611 104.904H27.9894V99.548H73.5611V104.904ZM73.5611 94.192H68.1822V82.9536L70.4025 83.7547C71.4096 84.1209 72.4854 84.3269 73.5611 84.3727V94.192ZM79.146 75.5376C78.116 78.3071 75.0489 79.7491 72.2794 78.7191L67.2209 76.888C64.4514 75.8809 63.0094 72.768 64.0394 69.9984L65.8705 64.9629L79.4665 69.9755L80.9771 70.502L79.146 75.5376ZM108.009 74.7135L40.0518 49.7647L41.9058 44.7291L82.1674 59.5382C83.1287 59.8816 84.2045 59.6527 84.9369 58.966L92.4674 51.8704L113.548 59.6298L108.009 74.7135ZM126.137 64.2533C124.443 68.8311 119.865 71.6922 115.013 71.2116L119.133 59.9273L125.908 56.4482C126.961 58.9202 127.052 61.7127 126.137 64.2533ZM117.073 54.9833C116.936 54.9833 116.821 55.0062 116.684 55.052L92.7649 46.2627C91.8036 45.9193 90.7507 46.1482 89.9954 46.8349L82.4649 53.9076L28.6531 34.1544L38.8158 6.48177L139.138 43.6304L117.073 54.9833Z" fill="#D4AF37"/>
<mask id="mask0_585_879" style="mask-type:luminance" maskUnits="userSpaceOnUse" x="0" y="0" width="149" height="127">
<path d="M148.179 42.0282C147.881 41.4102 147.355 40.9524 146.714 40.7236H146.691L38.152 0.507771C36.7558 0.00421557 35.2222 0.713771 34.7187 2.10999L22.6791 34.8182C22.1756 36.1916 22.8851 37.748 24.2814 38.2516L36.8702 42.8751L34.1007 50.4284C33.5971 51.8247 34.2838 53.3582 35.68 53.8618L60.8578 63.1089L59.0038 68.1444C57.3329 72.6536 58.9122 77.7349 62.8262 80.5045V94.192H26.7534C25.0138 90.1865 21.4431 87.3025 17.1629 86.4098V80.7791C17.1629 79.3142 15.9727 78.1011 14.5078 78.1011H3.68135C2.19358 78.1011 0.980469 79.3142 0.980469 80.7791V123.673C0.980469 125.161 2.19358 126.374 3.68135 126.374H14.5078C15.9727 126.374 17.1629 125.161 17.1629 123.673V118.042C21.4431 117.172 25.0138 114.266 26.7534 110.26H62.8262V112.961C62.8262 117.401 66.4198 120.995 70.8831 120.995C75.3236 120.995 78.9171 117.401 78.9171 112.961V83.2511C81.3434 82.038 83.2202 79.9551 84.1816 77.3916L86.0127 72.356L108.696 80.6647C108.97 80.7791 109.291 80.8478 109.588 80.8478C110.733 80.8478 111.74 80.1382 112.129 79.0853L113.113 76.3387C121.857 77.9867 130.234 72.2416 131.905 63.5209C132.5 60.2936 132.111 56.9747 130.76 53.9762L147.012 45.6218C148.339 44.958 148.843 43.3329 148.179 42.0282ZM11.8069 120.995H6.35935V83.48H11.8069V120.995ZM22.5189 104.904C22.5189 108.314 20.3902 111.359 17.1629 112.48V91.9718C20.3902 93.0933 22.5189 96.1605 22.5189 99.548V104.904ZM73.5611 112.961C73.5611 114.426 72.348 115.639 70.8831 115.639C69.3953 115.639 68.1822 114.426 68.1822 112.961V110.26H73.5611V112.961ZM73.5611 104.904H27.9894V99.548H73.5611V104.904ZM73.5611 94.192H68.1822V82.9536L70.4025 83.7547C71.4096 84.1209 72.4854 84.3269 73.5611 84.3727V94.192ZM79.146 75.5376C78.116 78.3071 75.0489 79.7491 72.2794 78.7191L67.2209 76.888C64.4514 75.8809 63.0094 72.768 64.0394 69.9985L65.8705 64.9629L79.4665 69.9756L80.9771 70.502L79.146 75.5376ZM108.009 74.7136L40.0518 49.7647L41.9058 44.7291L82.1674 59.5382C83.1287 59.8816 84.2045 59.6527 84.9369 58.966L92.4674 51.8704L113.548 59.6298L108.009 74.7136ZM126.137 64.2533C124.443 68.8311 119.865 71.6922 115.013 71.2116L119.133 59.9273L125.908 56.4482C126.961 58.9202 127.052 61.7127 126.137 64.2533ZM117.073 54.9833C116.936 54.9833 116.821 55.0062 116.684 55.052L92.7649 46.2627C91.8036 45.9193 90.7507 46.1482 89.9954 46.8349L82.4649 53.9076L28.6531 34.1544L38.8158 6.48177L139.138 43.6304L117.073 54.9833Z" fill="white"/>
</mask>
<g mask="url(#mask0_585_879)">
<path d="M87.0198 129.624H-0.324219V75.1027L36.8702 42.8751L82.7853 60.1333L113.548 59.6298L119.133 59.9273L130.76 53.9762L141.656 58.3251L87.0198 129.624Z" fill="#818181"/>
</g>
</svg>
