<svg width="42" height="41" viewBox="0 0 42 41" fill="none" xmlns="http://www.w3.org/2000/svg">
<path d="M31.4318 24.2708C31.1743 24.1343 30.8825 23.9795 30.5309 23.7802C30.3347 23.6685 30.088 23.5159 29.8266 23.3542C28.4848 22.5243 27.468 21.9369 26.6025 21.9369C26.3998 21.9369 26.208 21.9692 26.0332 22.0328C25.275 22.3079 24.6523 23.043 24.0501 23.7538C23.8294 24.0142 23.5136 24.387 23.3219 24.5537C22.5616 24.4234 20.9581 23.4873 19.2276 21.8568C17.4952 20.2242 16.5016 18.7115 16.3652 17.9968C16.5418 17.8155 16.9406 17.5157 17.2186 17.3064C17.9701 16.741 18.7471 16.1565 19.0408 15.4442C19.4153 14.529 18.7289 13.4344 17.6386 11.8693C17.4671 11.6229 17.305 11.3903 17.1874 11.2068C16.975 10.8742 16.8109 10.5991 16.666 10.3566C16.0716 9.36108 15.6788 8.70312 14.203 8.70312C13.2452 8.70312 11.891 9.55603 10.9737 10.4019C9.64055 11.6314 8.90625 13.0508 8.90625 14.4016C8.90879 18.0703 11.0816 22.2751 14.8677 25.942C14.8742 25.9482 14.8807 25.9498 14.8874 25.9559C18.7788 29.5236 23.2435 31.5641 27.1367 31.5641H27.1382C28.5698 31.5641 30.0766 30.8801 31.3813 29.6246C32.2796 28.7603 33.186 27.4935 33.186 26.5915C33.1861 25.201 32.4883 24.831 31.4318 24.2708ZM27.1371 29.6687C23.8209 29.6664 19.7756 27.7726 16.3139 24.6027C12.9495 21.3403 10.9397 17.5281 10.9376 14.4035C10.9376 12.5134 13.5404 10.7164 14.2211 10.618C14.3602 10.6185 14.4331 10.6263 14.4678 10.6318C14.5578 10.7294 14.7366 11.029 14.8959 11.2957C15.04 11.5371 15.2195 11.8376 15.448 12.1954C15.5861 12.411 15.7584 12.6582 15.9407 12.9199C16.2857 13.4153 16.9793 14.411 17.0961 14.836C16.9006 15.0968 16.294 15.5531 15.9515 15.8107C15.075 16.4702 14.3179 17.0396 14.3179 17.8444C14.32 19.7883 16.9772 22.4431 17.7915 23.2105C18.6059 23.9778 21.4232 26.4817 23.4905 26.4836C24.3391 26.481 24.9408 25.7706 25.6378 24.9481C25.9126 24.6237 26.3998 24.0486 26.6777 23.8654C27.1282 23.9748 28.1862 24.6291 28.7123 24.9546C28.9899 25.1263 29.2522 25.2885 29.4824 25.4195C29.8608 25.6341 30.1796 25.8032 30.4359 25.939C30.7188 26.089 31.0368 26.2577 31.1404 26.3425C31.1463 26.3751 31.1544 26.4438 31.1551 26.5747C31.0498 27.2156 29.1422 29.6664 27.1371 29.6687Z" fill="#1FB112"/>
<path d="M41.241 20.5918C41.1697 15.4199 38.9666 10.5328 35.0378 6.83048C31.0364 3.05997 25.7547 0.983398 20.1653 0.983398C14.7698 0.983398 9.72232 2.93976 5.95252 6.49197C2.60725 9.64424 0.554879 13.8485 0.173105 18.3304C-0.188965 22.5826 0.959808 26.8858 3.41285 30.504L0.0631131 39.0361C-0.0774494 39.3942 0.0212695 39.7969 0.31448 40.0605C0.507145 40.2338 0.759527 40.3252 1.01587 40.3252C1.14953 40.3252 1.2844 40.2888 1.41227 40.2376L10.1364 36.7392C13.4668 38.6925 17.275 39.6992 21.1854 39.6992H21.1858C26.5804 39.6992 31.6277 37.7662 35.397 34.2144C39.2369 30.596 41.3124 25.773 41.241 20.5918ZM33.9605 32.8842C30.5746 36.0748 26.0376 37.8318 21.1853 37.8317C17.4911 37.8316 13.897 36.8127 10.7915 34.8851C10.6231 34.7806 10.4285 34.7274 10.2328 34.7274C10.0984 34.7274 9.96353 34.7524 9.83627 34.8034L2.78418 37.6218L5.49589 30.7148C5.60934 30.4257 5.56811 30.1028 5.38519 29.8474C0.40091 22.8893 1.24357 13.6361 7.38882 7.8455C10.7749 4.65476 15.3123 2.89746 20.1653 2.89746C25.212 2.89746 29.9837 4.77487 33.6014 8.18391C37.1537 11.5312 39.1455 15.9466 39.2099 20.6167C39.2742 25.2773 37.4099 29.6339 33.9605 32.8842Z" fill="#1FB112"/>
</svg>
