<svg width="80" height="80" viewBox="0 0 80 80" fill="none" xmlns="http://www.w3.org/2000/svg">
<circle cx="40" cy="40" r="40" fill="#C22032"/>
<path fill-rule="evenodd" clip-rule="evenodd" d="M23.3483 33.1031C21.8574 35.2936 20.9859 37.9396 20.9859 40.7891C20.9859 48.3425 27.1092 54.4658 34.6627 54.4658H37.4302L46.6581 63.6937V54.4658H47.0961C54.6495 54.4658 60.7728 48.3425 60.7728 40.7891C60.7728 33.2356 54.6496 27.1123 47.0961 27.1123H39.8651C39.8099 28.0937 39.513 28.9686 39.2114 29.599H47.0961C53.2762 29.599 58.2862 34.609 58.2862 40.7891C58.2862 46.9692 53.2762 51.9791 47.0961 51.9791H44.1714V57.6713L38.4793 51.9791H34.6627C28.4826 51.9791 23.4726 46.9692 23.4726 40.7891C23.4726 38.648 24.0739 36.6473 25.1169 34.9468L23.3483 33.1031Z" fill="white"/>
<rect x="31.7432" y="39.999" width="2.87029" height="2.87029" fill="white"/>
<rect x="38.442" y="39.999" width="2.87029" height="2.87029" fill="white"/>
<rect x="45.1408" y="39.999" width="2.87029" height="2.87029" fill="white"/>
<path d="M29.5484 22.4183C30.7626 21.352 32.3439 20.7997 33.9579 20.8785C35.5719 20.9572 37.092 21.6608 38.1965 22.8402C39.3011 24.0197 39.9035 25.5826 39.8764 27.1982C39.8492 28.8139 39.1946 30.3557 38.051 31.4974L32.8316 36.7178L29.5474 40L22.2738 32.7273L21.0449 31.4964C19.9047 30.354 19.2531 28.8132 19.2275 27.1994C19.2019 25.5857 19.8044 24.0251 20.9077 22.8471C22.011 21.6691 23.5289 20.9658 25.1409 20.8858C26.7529 20.8058 28.3329 21.3553 29.5474 22.4183H29.5484ZM32.8306 33.8933L36.6383 30.0846C37.0306 29.6923 37.3418 29.2265 37.5541 28.714C37.7664 28.2014 37.8757 27.652 37.8757 27.0972C37.8757 26.5424 37.7664 25.993 37.5541 25.4804C37.3418 24.9679 37.0306 24.5021 36.6383 24.1098C36.246 23.7175 35.7802 23.4063 35.2676 23.194C34.7551 22.9817 34.2057 22.8724 33.6509 22.8724C33.0961 22.8724 32.5467 22.9817 32.0341 23.194C31.5215 23.4063 31.0558 23.7175 30.6635 24.1098L29.5474 25.2248L28.4314 24.1088C27.6391 23.3165 26.5645 22.8714 25.444 22.8714C24.3235 22.8714 23.2489 23.3165 22.4566 24.1088C21.6643 24.9011 21.2192 25.9757 21.2192 27.0962C21.2192 28.2167 21.6643 29.2913 22.4566 30.0836L23.6876 31.3145L29.5474 37.1744L32.8296 33.8923L32.8306 33.8933Z" fill="white"/>
</svg>
