<?xml version="1.0" encoding="utf-8"?>
<!-- Generator: Adobe Illustrator 26.0.1, SVG Export Plug-In . SVG Version: 6.00 Build 0)  -->
<svg version="1.1" id="Layer_1" xmlns="http://www.w3.org/2000/svg" xmlns:xlink="http://www.w3.org/1999/xlink" x="0px" y="0px"
	 width="70" height="70" viewBox="0 0 70 70" style="enable-background:new 0 0 70 70;" xml:space="preserve">
<style type="text/css">
	.st0{fill:none;stroke:#25B24B;stroke-width:1.5;stroke-miterlimit:10;}
</style>
<g>
	<path class="st0" d="M63.6,35c0,15.1-12.3,27.4-27.4,27.4c-6,0-11.5-1.9-16-5.2c-0.5-0.4-1.1-0.4-1.7-0.2L7,61.7
		c-0.3,0.1-0.7-0.2-0.6-0.5l4.7-12.6c0,0,0-0.1,0.1-0.1l0.1-0.2c0.2-0.5,0.2-1,0-1.5c-1.9-4-2.9-8.6-2.6-13.4
		C9.7,19.1,21.7,7.7,35.9,7.6C51.2,7.5,63.6,19.8,63.6,35z"/>
	<path class="st0" d="M26.8,20l4.2,6.6c0.3,0.4,0.2,1-0.2,1.3l-2.5,2.2c-0.9,0.8-1.2,2.2-0.6,3.2c0.7,1.3,1.6,2.7,2.9,4.2
		c2.6,3,5.4,4.7,7.4,5.7c0.6,0.3,1.3,0.2,1.8-0.3l2.9-3.4c0.3-0.4,0.9-0.5,1.3-0.2l6.1,3.5c0.4,0.2,0.6,0.7,0.5,1.1
		c-0.4,1.7-1.8,5.6-6.7,6.4c-6.3,1-22-7.8-24.6-21.5c0-0.1,0-0.1,0-0.2c-0.5-5.5,4.1-8.2,6.1-9.1C25.9,19.4,26.5,19.6,26.8,20z"/>
</g>
</svg>
