<svg width="49" height="50" viewBox="0 0 49 50" fill="none" xmlns="http://www.w3.org/2000/svg">
<path d="M24.2688 0.737305H24.2566C10.8788 0.737305 0 11.6191 0 25C0 30.3075 1.71052 35.2267 4.61901 39.221L1.59527 48.2346L10.9212 45.2533C14.7578 47.7948 19.3343 49.2627 24.2688 49.2627C37.6466 49.2627 48.5254 38.3778 48.5254 25C48.5254 11.6222 37.6466 0.737305 24.2688 0.737305Z" fill="#4CAF50"/>
<path d="M38.6457 35.0007C38.059 36.6536 35.7305 38.0245 33.8732 38.4248C32.6025 38.6947 30.9428 38.9101 25.3557 36.5991C18.2091 33.6451 13.6069 26.3996 13.2482 25.9295C12.9047 25.4594 10.3604 22.093 10.3604 18.6113C10.3604 15.1296 12.1326 13.4342 12.8469 12.7064C13.4336 12.1089 14.4033 11.8359 15.3335 11.8359C15.6344 11.8359 15.9049 11.8511 16.1481 11.8632C16.8625 11.8936 17.2212 11.936 17.6923 13.0612C18.279 14.4715 19.7077 17.9532 19.878 18.311C20.0512 18.6689 20.2245 19.1542 19.9813 19.6243C19.7533 20.1095 19.5527 20.3248 19.194 20.7373C18.8353 21.1498 18.4948 21.4652 18.1362 21.908C17.8079 22.2932 17.437 22.7056 17.8504 23.4183C18.2638 24.1159 19.6925 26.4421 21.7961 28.3103C24.5106 30.7214 26.7114 31.4918 27.4987 31.8193C28.0854 32.0619 28.7846 32.0043 29.2132 31.5494C29.7573 30.964 30.4291 29.9935 31.113 29.0382C31.5994 28.3528 32.2135 28.2678 32.8579 28.5105C33.5145 28.7379 36.989 30.4515 37.7033 30.8063C38.4177 31.1642 38.8888 31.3341 39.0621 31.6343C39.2323 31.9346 39.2323 33.3448 38.6457 35.0007Z" fill="#FAFAFA"/>
</svg>
