<svg width="67" height="67" viewBox="0 0 67 67" fill="none" xmlns="http://www.w3.org/2000/svg">
<path fill-rule="evenodd" clip-rule="evenodd" d="M66.9425 16.7792C66.9425 7.63158 59.5305 0.211182 50.3744 0.211182C40.6566 0.211182 27.2161 0.211182 17.4899 0.211182C8.34227 0.211182 0.921875 7.63158 0.921875 16.7792C0.921875 26.5054 0.921875 39.9459 0.921875 49.6637C0.921875 58.8198 8.34227 66.2318 17.4899 66.2318C27.2161 66.2318 40.6566 66.2318 50.3744 66.2318C59.5305 66.2318 66.9425 58.8198 66.9425 49.6637V16.7792ZM58.692 16.7792V49.6637C58.692 54.2585 54.9692 57.9813 50.3744 57.9813H17.4899C12.9035 57.9813 9.18074 54.2585 9.18074 49.6637V16.7792C9.18074 12.1928 12.9035 8.47004 17.4899 8.47004H50.3744C54.9692 8.47004 58.692 12.1928 58.692 16.7792ZM33.9322 49.5715H47.9848C50.257 49.5715 52.1101 47.7185 52.1101 45.4463C52.1101 43.1656 50.257 41.321 47.9848 41.321H33.9322C31.6599 41.321 29.8069 43.1656 29.8069 45.4463C29.8069 47.7185 31.6599 49.5715 33.9322 49.5715ZM19.9047 49.5715H21.5565C23.8371 49.5715 25.6817 47.7185 25.6817 45.4463C25.6817 43.1656 23.8371 41.321 21.5565 41.321H19.9047C17.6324 41.321 15.7794 43.1656 15.7794 45.4463C15.7794 47.7185 17.6324 49.5715 19.9047 49.5715ZM33.9322 37.3216H47.9848C50.257 37.3216 52.1101 35.4686 52.1101 33.1963C52.1101 30.9157 50.257 29.0711 47.9848 29.0711H33.9322C31.6599 29.0711 29.8069 30.9157 29.8069 33.1963C29.8069 35.4686 31.6599 37.3216 33.9322 37.3216ZM19.9047 37.3216H21.5565C23.8371 37.3216 25.6817 35.4686 25.6817 33.1963C25.6817 30.9157 23.8371 29.0711 21.5565 29.0711H19.9047C17.6324 29.0711 15.7794 30.9157 15.7794 33.1963C15.7794 35.4686 17.6324 37.3216 19.9047 37.3216ZM33.9322 25.0716H47.9848C50.257 25.0716 52.1101 23.2186 52.1101 20.9464C52.1101 18.6658 50.257 16.8211 47.9848 16.8211H33.9322C31.6599 16.8211 29.8069 18.6658 29.8069 20.9464C29.8069 23.2186 31.6599 25.0716 33.9322 25.0716ZM19.9047 25.0716H21.5565C23.8371 25.0716 25.6817 23.2186 25.6817 20.9464C25.6817 18.6658 23.8371 16.8211 21.5565 16.8211H19.9047C17.6324 16.8211 15.7794 18.6658 15.7794 20.9464C15.7794 23.2186 17.6324 25.0716 19.9047 25.0716Z" fill="#C22032"/>
</svg>
