<svg width="19" height="19" viewBox="0 0 19 19" fill="none" xmlns="http://www.w3.org/2000/svg">
<g opacity="0.688509">
<path d="M9.33802 1.74414C4.30886 1.74414 0.23289 5.05542 0.23289 9.14206C0.23289 10.835 0.940672 12.3858 2.11438 13.6342C1.58443 15.0355 0.481859 16.2234 0.464075 16.2377C0.229334 16.4866 0.165313 16.8494 0.300467 17.1624C0.435622 17.4754 0.745054 17.6781 1.0865 17.6781C3.27386 17.6781 4.99886 16.7641 6.03385 16.0314C7.06174 16.355 8.17143 16.54 9.33802 16.54C14.3672 16.54 18.4432 13.2287 18.4432 9.14206C18.4432 5.05542 14.3672 1.74414 9.33802 1.74414ZM9.33802 14.8328C8.38838 14.8328 7.44942 14.6869 6.54958 14.4024L5.74221 14.1463L5.04865 14.6371C4.54004 14.9964 3.84293 15.3983 3.00355 15.6686C3.26319 15.2382 3.51572 14.7545 3.71133 14.2388L4.08834 13.2394L3.35567 12.464C2.7119 11.7776 1.9401 10.643 1.9401 9.14206C1.9401 6.00506 5.2585 3.45135 9.33802 3.45135C13.4175 3.45135 16.7359 6.00506 16.7359 9.14206C16.7359 12.2791 13.4175 14.8328 9.33802 14.8328Z" fill="#888888"/>
</g>
</svg>
