<?xml version="1.0" encoding="utf-8"?>
<!-- Generator: Adobe Illustrator 26.0.1, SVG Export Plug-In . SVG Version: 6.00 Build 0)  -->
<svg version="1.1" id="Layer_1" xmlns="http://www.w3.org/2000/svg" xmlns:xlink="http://www.w3.org/1999/xlink" x="0px" y="0px"
	 viewBox="0 0 90 90" style="enable-background:new 0 0 90 90;" xml:space="preserve">
<style type="text/css">
	.st0{fill:#818181;}
	.st1{fill:#C22032;}
	.st2{fill:#619EBC;}
</style>
<path id="XMLID_00000158018846796255403450000012362489632736214657_" class="st0" d="M83.95,19.29H64.49l2.31-1.54
	c0.23-0.15,0.41-0.37,0.52-0.63l3.07-7.14c0.23-0.54,0.11-1.17-0.31-1.59L66,4.31c-0.42-0.42-1.05-0.54-1.59-0.3l-7.14,3.06
	c-0.26,0.11-0.48,0.29-0.63,0.52l-4.03,6.04l-5.14,5.66h-4.41l-0.05-0.05c1.35-4.96-0.07-10.27-3.71-13.91
	c-3.29-3.32-8.1-4.62-12.62-3.43c-0.77,0.21-1.22,1-1.01,1.77c0.04,0.18,0.12,0.34,0.23,0.49l5.37,7.16l-4.35,4.35l-7.15-5.37
	c-0.64-0.48-1.54-0.35-2.02,0.29c-0.11,0.14-0.19,0.31-0.24,0.48c-0.73,2.73-0.55,5.62,0.52,8.23H6.05c-2.39,0-4.33,1.93-4.33,4.32
	v46.16c0,2.39,1.94,4.33,4.33,4.33h28.59l-0.96,5.77h-1.66c-0.46,0-0.88,0.21-1.16,0.58l-4.32,5.77c-0.48,0.63-0.35,1.54,0.28,2.02
	c0.25,0.18,0.56,0.28,0.87,0.28h34.62c0.8,0,1.44-0.64,1.44-1.44c0-0.31-0.1-0.61-0.29-0.86l-4.32-5.77
	c-0.28-0.37-0.7-0.58-1.16-0.58h-1.66l-0.96-5.77h28.59c2.39,0,4.33-1.94,4.33-4.33V23.62C88.28,21.23,86.34,19.29,83.95,19.29z
	 M58.8,9.55l5.85-2.51l2.7,2.7l-2.51,5.85l-4.78,3.19l-4.45-4.45L58.8,9.55z M53.81,16.6l3.98,3.98l-7.04,6.4l-3.34-3.34L53.81,16.6
	z M26.2,18.73c0.57,0.43,1.38,0.37,1.88-0.14l6.12-6.12c0.51-0.51,0.57-1.31,0.14-1.88l-4.68-6.24c2.84-0.09,5.59,1.01,7.6,3.02
	c3.08,3.05,4.15,7.59,2.75,11.69c-0.23,0.54-0.11,1.17,0.31,1.58l16.32,16.31c0.42,0.42,1.05,0.54,1.59,0.31
	c4.1-1.39,8.64-0.32,11.68,2.75c2.02,2.01,3.12,4.76,3.03,7.61l-6.24-4.68c-0.58-0.43-1.38-0.37-1.89,0.13l-6.12,6.12
	c-0.5,0.51-0.56,1.31-0.13,1.89l4.68,6.24c-2.85,0.09-5.6-1.01-7.61-3.03c-3.21-3.21-4.43-8.3-2.79-11.59
	c0.28-0.56,0.17-1.23-0.27-1.67L36.24,24.71c-0.44-0.44-1.11-0.55-1.66-0.27c-3.29,1.65-8.39,0.42-11.6-2.79
	c-2.02-2-3.12-4.76-3.03-7.6L26.2,18.73z M37.66,38.87l-2.14-2.14l4.12-4.54l2.56,2.56L37.66,38.87z M38.77,44.05l-2.45,0.49
	c-0.68,0.14-1.16,0.73-1.16,1.42v1.44l-8.69,8.77c-1.08,1.1-2.57,1.71-4.12,1.71c-3.19,0-5.79-2.59-5.79-5.79c0-0.01,0-0.01,0-0.02
	c0-1.53,0.61-3.01,1.69-4.09l8.74-8.74h1.44c0.69,0,1.28-0.48,1.42-1.15l0.49-2.46l0.92,0.91l0.02,0.03L38.77,44.05z M57.26,82.76
	l2.17,2.89H30.57l2.17-2.89H57.26z M36.6,79.88l0.97-5.77h14.86l0.97,5.77H36.6z M85.39,69.78c0,0.8-0.64,1.44-1.44,1.44H6.05
	c-0.8,0-1.44-0.64-1.44-1.44v-4.33h80.78V69.78z M85.39,62.57H4.61V23.62c0-0.8,0.64-1.44,1.44-1.44h13.61
	c0.08,0.12,0.17,0.23,0.27,0.34c0,0.02,0.01,0.03,0.02,0.04c0.31,0.4,0.64,0.77,0.99,1.13c3.81,3.81,9.61,5.32,13.95,3.75l2.71,2.71
	l-2.08,2.29l-1.78,1.96l-0.26,0.29l-0.03-0.03l-0.12-0.12l-2.86-2.86c-0.56-0.56-1.47-0.56-2.04,0c-0.2,0.2-0.34,0.46-0.39,0.74
	l-0.78,3.94h-0.87c-0.38,0-0.75,0.15-1.02,0.42l-9.16,9.16c-3.39,3.39-3.39,8.89,0,12.28c1.63,1.63,3.84,2.54,6.14,2.54h0.01
	c2.31,0.01,4.52-0.92,6.15-2.56l9.11-9.19c0.26-0.26,0.41-0.63,0.41-1.01v-0.85l3.94-0.79c0.79-0.16,1.29-0.92,1.14-1.7
	c-0.06-0.28-0.2-0.53-0.4-0.73l-3.01-3.01l4.54-4.12l5.6,5.59c-1.57,4.34-0.07,10.14,3.75,13.95c2.46,2.47,5.8,3.86,9.29,3.87
	c1.12,0,2.24-0.14,3.32-0.44c0.77-0.21,1.22-1,1.01-1.77c-0.05-0.17-0.13-0.34-0.24-0.48l-5.37-7.16l4.35-4.35l7.16,5.36
	c0.64,0.48,1.55,0.35,2.02-0.28c0.11-0.15,0.19-0.32,0.24-0.49c1.19-4.52-0.11-9.33-3.43-12.62c-3.64-3.64-8.94-5.06-13.91-3.71
	l-5.23-5.24l-0.01-0.01l7.53-6.84h23.63c0.8,0,1.44,0.64,1.44,1.44V62.57z"/>
<rect x="43.56" y="66.9" class="st1" width="2.89" height="2.89"/>
<path class="st2" d="M71.94,37.98c-3.64-3.64-8.94-5.06-13.91-3.71l-5.23-5.24l-0.01-0.01l7.81-7.23l3.89-2.5l2.31-1.54
	c0.23-0.15,0.41-0.37,0.52-0.63l3.07-7.14c0.23-0.54,0.11-1.17-0.31-1.59L66,4.31c-0.42-0.42-1.05-0.54-1.59-0.3l-7.14,3.06
	c-0.26,0.11-0.48,0.29-0.63,0.52l-4.03,6.04l-5.14,5.66h-4.41l-0.05-0.05c1.35-4.96-0.07-10.27-3.71-13.91
	c-3.29-3.32-8.1-4.62-12.62-3.43c-0.77,0.21-1.22,1-1.01,1.77c0.04,0.18,0.12,0.34,0.23,0.49l5.37,7.16l-4.35,4.35l-7.15-5.37
	c-0.64-0.48-1.54-0.35-2.02,0.29c-0.11,0.14-0.19,0.31-0.24,0.48c-0.73,2.73-0.55,5.62,0.52,8.23l1.9,3.22
	c0,0.02,0.01,0.03,0.02,0.04c0.31,0.4,0.64,0.77,0.99,1.13c3.81,3.81,9.61,5.32,13.95,3.75l2.71,2.71l-2.08,2.29l-1.78,1.96
	l-0.26,0.29l-0.03-0.03l-0.12-0.12l-2.86-2.86c-0.56-0.56-1.47-0.56-2.04,0c-0.2,0.2-0.34,0.46-0.39,0.74l-0.78,3.94h-0.87
	c-0.38,0-0.75,0.15-1.02,0.42l-9.16,9.16c-3.39,3.39-3.39,8.89,0,12.28c1.63,1.63,3.84,2.54,6.14,2.54h0.01
	c2.31,0.01,4.52-0.92,6.15-2.56l9.11-9.19c0.26-0.26,0.41-0.63,0.41-1.01v-0.85l3.94-0.79c0.79-0.16,1.29-0.92,1.14-1.7
	c-0.06-0.28-0.2-0.53-0.4-0.73l-3.01-3.01l4.54-4.12l5.6,5.59c-1.57,4.34-0.07,10.14,3.75,13.95c2.46,2.47,5.8,3.86,9.29,3.87
	c1.12,0,2.24-0.14,3.32-0.44c0.77-0.21,1.22-1,1.01-1.77c-0.05-0.17-0.13-0.34-0.24-0.48l-5.37-7.16l4.35-4.35l7.16,5.36
	c0.64,0.48,1.55,0.35,2.02-0.28c0.11-0.15,0.19-0.32,0.24-0.49C76.56,46.08,75.26,41.27,71.94,37.98z M58.8,9.55l5.85-2.51l2.7,2.7
	l-2.51,5.85l-4.78,3.19l-4.45-4.45L58.8,9.55z M53.81,16.6l3.98,3.98l-7.04,6.4l-3.34-3.34L53.81,16.6z M36.32,44.54
	c-0.68,0.14-1.16,0.73-1.16,1.42v1.44l-8.69,8.77c-1.08,1.1-2.57,1.71-4.12,1.71c-3.19,0-5.79-2.59-5.79-5.79c0-0.01,0-0.01,0-0.02
	c0-1.53,0.61-3.01,1.69-4.09l8.74-8.74h1.44c0.69,0,1.28-0.48,1.42-1.15l0.49-2.46l0.92,0.91l0.02,0.03l7.49,7.48L36.32,44.54z
	 M37.66,38.87l-2.14-2.14l4.12-4.54l2.56,2.56L37.66,38.87z M66.7,42.94c-0.58-0.43-1.38-0.37-1.89,0.13l-6.12,6.12
	c-0.5,0.51-0.56,1.31-0.13,1.89l4.68,6.24c-2.85,0.09-5.6-1.01-7.61-3.03c-3.21-3.21-4.43-8.3-2.79-11.59
	c0.28-0.56,0.17-1.23-0.27-1.67L36.24,24.71c-0.44-0.44-1.11-0.55-1.66-0.27c-3.29,1.65-8.39,0.42-11.6-2.79
	c-2.02-2-3.12-4.76-3.03-7.6l6.25,4.68c0.57,0.43,1.38,0.37,1.88-0.14l6.12-6.12c0.51-0.51,0.57-1.31,0.14-1.88l-4.68-6.24
	c2.84-0.09,5.59,1.01,7.6,3.02c3.08,3.05,4.15,7.59,2.75,11.69c-0.23,0.54-0.11,1.17,0.31,1.58l16.32,16.31
	c0.42,0.42,1.05,0.54,1.59,0.31c4.1-1.39,8.64-0.32,11.68,2.75c2.02,2.01,3.12,4.76,3.03,7.61L66.7,42.94z"/>
</svg>
