<svg width="127" height="127" viewBox="0 0 127 127" fill="none" xmlns="http://www.w3.org/2000/svg">
<path d="M119.959 26.2257H91.7518L95.1018 23.9924C95.4368 23.7691 95.7047 23.4564 95.8611 23.0767L100.305 12.7364C100.64 11.9547 100.462 11.0391 99.8587 10.4361L93.9404 4.51774C93.3374 3.91474 92.4217 3.73607 91.6401 4.07107L81.2998 8.5154C80.9201 8.67174 80.6074 8.93974 80.3841 9.27474L74.5551 18.0294L67.0957 26.2257H60.7084L60.6414 26.1587C62.5844 18.9674 60.5298 11.2624 55.2591 5.99174C50.4798 1.19007 43.5117 -0.708262 36.9681 1.0114C35.8514 1.32407 35.2037 2.46307 35.4941 3.57974C35.5611 3.8254 35.6727 4.07107 35.8291 4.2944L43.6011 14.6794L37.3031 20.9774L26.9404 13.2054C26.0247 12.5131 24.7071 12.6917 24.0147 13.6297C23.8584 13.8307 23.7467 14.0764 23.6798 14.3444C22.6301 18.2974 22.8981 22.4737 24.4391 26.2704H7.06375C3.60208 26.2704 0.788086 29.0844 0.788086 32.5461V99.4567C0.788086 102.918 3.60208 105.732 7.06375 105.732H48.5144L47.1297 114.107H44.7177C44.0701 114.107 43.4447 114.42 43.0427 114.934L36.7671 123.309C36.0747 124.224 36.2534 125.542 37.1914 126.234C37.5488 126.502 37.9954 126.659 38.4421 126.659H88.6251C89.7864 126.659 90.7244 125.721 90.7244 124.559C90.7244 124.113 90.5681 123.666 90.3001 123.309L84.0244 114.934C83.6224 114.398 83.0194 114.107 82.3494 114.107H79.9374L78.5527 105.732H120.003C123.465 105.732 126.279 102.918 126.279 99.4567V32.5014C126.234 29.0397 123.42 26.2257 119.959 26.2257ZM67.0064 32.5461L76.2747 22.3397L82.0367 28.1017L71.8304 37.3701L67.0064 32.5461ZM83.5107 12.1111L91.9974 8.47074L95.9057 12.3791L92.2654 20.8657L85.3421 25.4887L78.8877 19.0344L83.5107 12.1111ZM36.2534 25.4217C37.0797 26.0471 38.2411 25.9577 38.9781 25.2207L47.8444 16.3544C48.5814 15.6174 48.6708 14.4561 48.0454 13.6297L41.2561 4.58474C45.3877 4.45074 49.3631 6.0364 52.2887 8.96207C56.7554 13.3841 58.2964 19.9501 56.2864 25.8907C55.9514 26.6724 56.1301 27.5881 56.7331 28.1911L80.3841 51.8421C80.9871 52.4451 81.9027 52.6237 82.6844 52.2887C88.6251 50.2787 95.2134 51.8197 99.6131 56.2864C102.539 59.1897 104.124 63.1874 103.99 67.3191L94.9454 60.5297C94.1191 59.9044 92.9577 59.9937 92.2207 60.7307L83.3544 69.5971C82.6174 70.3341 82.5281 71.4954 83.1534 72.3217L89.9427 81.3667C85.8111 81.5007 81.8358 79.9151 78.9101 76.9894C74.2648 72.3441 72.4781 64.9517 74.8677 60.1724C75.2697 59.3684 75.1134 58.3857 74.4657 57.7604L50.7924 34.1094C50.1448 33.4617 49.1844 33.3054 48.3804 33.7074C43.6011 36.0971 36.2311 34.3104 31.5634 29.6651C28.6378 26.7617 27.0521 22.7641 27.1637 18.6324L36.2534 25.4217ZM54.4774 62.1154L50.9264 62.8301C49.9437 63.0311 49.2514 63.8797 49.2514 64.8847V66.9841L36.6554 79.6917C35.0697 81.2774 32.9257 82.1931 30.6924 82.1708C26.0471 82.1708 22.2951 78.3964 22.2951 73.7511C22.2951 71.5177 23.1884 69.3961 24.7517 67.8104L37.4147 55.1474H39.5141C40.4967 55.1474 41.3677 54.4551 41.5687 53.4724L42.2834 49.9214L54.4774 62.1154ZM49.7651 51.5071L55.7281 44.9187L59.4354 48.6261L52.8471 54.5891L49.7651 51.5071ZM7.04142 30.4244H26.7617C27.3201 31.2061 27.9454 31.9431 28.6154 32.6131C34.1317 38.1294 42.5514 40.3181 48.8271 38.0401L52.7577 41.9707L46.7948 48.5591L42.4397 44.2041C41.6134 43.3777 40.2957 43.3777 39.4917 44.2041C39.2014 44.4944 39.0004 44.8741 38.9111 45.2761L37.7721 50.9934H36.5214C35.9631 50.9934 35.4271 51.2167 35.0474 51.5964L21.7591 64.8624C16.8457 69.7757 16.8457 77.7487 21.7591 82.6621C24.1264 85.0294 27.3201 86.3471 30.6478 86.3471H30.6701C34.0201 86.3471 37.2138 85.0071 39.5811 82.6397L52.7801 69.3291C53.1597 68.9494 53.3831 68.4134 53.3831 67.8551V66.6044L59.1004 65.4654C60.2394 65.2421 60.9764 64.1477 60.7307 63.0087C60.6414 62.6067 60.4404 62.2271 60.1501 61.9367L55.7951 57.5817L62.3834 51.6187L70.4904 59.7257C68.2124 66.0237 70.4011 74.4211 75.9174 79.9374C79.4907 83.5107 84.3371 85.5431 89.3844 85.5431C91.0147 85.5431 92.6227 85.3198 94.1861 84.8954C95.3027 84.5828 95.9504 83.4437 95.6601 82.3271C95.5931 82.0814 95.4814 81.8357 95.3251 81.6124L87.5531 71.2274L93.8511 64.9294L104.236 72.7014C105.152 73.3937 106.469 73.2151 107.162 72.2771C107.318 72.0761 107.43 71.8304 107.497 71.5624C109.216 65.0187 107.318 58.0507 102.516 53.2714C97.2458 48.0007 89.5407 45.9461 82.3494 47.8891L74.7561 40.2734L85.6547 30.3574H119.914C121.075 30.3574 122.013 31.2954 122.013 32.4567V88.9601H4.94209V32.5014C4.94209 31.3624 5.88008 30.4244 7.04142 30.4244ZM84.4041 122.415H42.5961L45.7228 118.239H81.2774L84.4041 122.415ZM75.6717 114.063H51.3284L52.7131 105.688H74.2647L75.6717 114.063ZM119.959 101.511H7.04142C5.88008 101.511 4.94209 100.573 4.94209 99.4121V93.1364H122.036V99.4121C122.058 100.573 121.12 101.511 119.959 101.511Z" fill="#818181"/>
<mask id="mask0_590_1043" style="mask-type:luminance" maskUnits="userSpaceOnUse" x="0" y="0" width="127" height="127">
<path d="M119.959 26.2257H91.7518L95.1018 23.9924C95.4368 23.7691 95.7047 23.4564 95.8611 23.0767L100.305 12.7364C100.64 11.9547 100.462 11.0391 99.8587 10.4361L93.9404 4.51774C93.3374 3.91474 92.4217 3.73607 91.6401 4.07107L81.2998 8.5154C80.9201 8.67174 80.6074 8.93974 80.3841 9.27474L74.5551 18.0294L67.0957 26.2257H60.7084L60.6414 26.1587C62.5844 18.9674 60.5298 11.2624 55.2591 5.99174C50.4798 1.19007 43.5117 -0.708262 36.9681 1.0114C35.8514 1.32407 35.2037 2.46307 35.4941 3.57974C35.5611 3.8254 35.6727 4.07107 35.8291 4.2944L43.6011 14.6794L37.3031 20.9774L26.9404 13.2054C26.0247 12.5131 24.7071 12.6917 24.0147 13.6297C23.8584 13.8307 23.7467 14.0764 23.6798 14.3444C22.6301 18.2974 22.8981 22.4737 24.4391 26.2704H7.06375C3.60208 26.2704 0.788086 29.0844 0.788086 32.5461V99.4567C0.788086 102.918 3.60208 105.732 7.06375 105.732H48.5144L47.1297 114.107H44.7177C44.0701 114.107 43.4447 114.42 43.0427 114.934L36.7671 123.309C36.0747 124.224 36.2534 125.542 37.1914 126.234C37.5488 126.502 37.9954 126.659 38.4421 126.659H88.6251C89.7864 126.659 90.7244 125.721 90.7244 124.559C90.7244 124.113 90.5681 123.666 90.3001 123.309L84.0244 114.934C83.6224 114.398 83.0194 114.107 82.3494 114.107H79.9374L78.5527 105.732H120.003C123.465 105.732 126.279 102.918 126.279 99.4567V32.5014C126.234 29.0397 123.42 26.2257 119.959 26.2257ZM67.0064 32.5461L76.2747 22.3397L82.0367 28.1017L71.8304 37.3701L67.0064 32.5461ZM83.5107 12.1111L91.9974 8.47074L95.9057 12.3791L92.2654 20.8657L85.3421 25.4887L78.8877 19.0344L83.5107 12.1111ZM36.2534 25.4217C37.0797 26.0471 38.2411 25.9577 38.9781 25.2207L47.8444 16.3544C48.5814 15.6174 48.6708 14.4561 48.0454 13.6297L41.2561 4.58474C45.3877 4.45074 49.3631 6.0364 52.2887 8.96207C56.7554 13.3841 58.2964 19.9501 56.2864 25.8907C55.9514 26.6724 56.1301 27.5881 56.7331 28.1911L80.3841 51.8421C80.9871 52.4451 81.9027 52.6237 82.6844 52.2887C88.6251 50.2787 95.2134 51.8197 99.6131 56.2864C102.539 59.1897 104.124 63.1874 103.99 67.3191L94.9454 60.5297C94.1191 59.9044 92.9577 59.9937 92.2207 60.7307L83.3544 69.5971C82.6174 70.3341 82.5281 71.4954 83.1534 72.3217L89.9427 81.3667C85.8111 81.5007 81.8358 79.9151 78.9101 76.9894C74.2648 72.3441 72.4781 64.9517 74.8677 60.1724C75.2697 59.3684 75.1134 58.3857 74.4657 57.7604L50.7924 34.1094C50.1448 33.4617 49.1844 33.3054 48.3804 33.7074C43.6011 36.0971 36.2311 34.3104 31.5634 29.6651C28.6378 26.7617 27.0521 22.7641 27.1637 18.6324L36.2534 25.4217ZM54.4774 62.1154L50.9264 62.8301C49.9437 63.0311 49.2514 63.8797 49.2514 64.8847V66.9841L36.6554 79.6917C35.0697 81.2774 32.9257 82.1931 30.6924 82.1708C26.0471 82.1708 22.2951 78.3964 22.2951 73.7511C22.2951 71.5177 23.1884 69.3961 24.7517 67.8104L37.4147 55.1474H39.5141C40.4967 55.1474 41.3677 54.4551 41.5687 53.4724L42.2834 49.9214L54.4774 62.1154ZM49.7651 51.5071L55.7281 44.9187L59.4354 48.6261L52.8471 54.5891L49.7651 51.5071ZM7.04142 30.4244H26.7617C27.3201 31.2061 27.9454 31.9431 28.6154 32.6131C34.1317 38.1294 42.5514 40.3181 48.8271 38.0401L52.7577 41.9707L46.7948 48.5591L42.4397 44.2041C41.6134 43.3777 40.2957 43.3777 39.4917 44.2041C39.2014 44.4944 39.0004 44.8741 38.9111 45.2761L37.7721 50.9934H36.5214C35.9631 50.9934 35.4271 51.2167 35.0474 51.5964L21.7591 64.8624C16.8457 69.7757 16.8457 77.7487 21.7591 82.6621C24.1264 85.0294 27.3201 86.3471 30.6478 86.3471H30.6701C34.0201 86.3471 37.2138 85.0071 39.5811 82.6397L52.7801 69.3291C53.1597 68.9494 53.3831 68.4134 53.3831 67.8551V66.6044L59.1004 65.4654C60.2394 65.2421 60.9764 64.1477 60.7307 63.0087C60.6414 62.6067 60.4404 62.2271 60.1501 61.9367L55.7951 57.5817L62.3834 51.6187L70.4904 59.7257C68.2124 66.0237 70.4011 74.4211 75.9174 79.9374C79.4907 83.5107 84.3371 85.5431 89.3844 85.5431C91.0147 85.5431 92.6227 85.3198 94.1861 84.8954C95.3027 84.5828 95.9504 83.4437 95.6601 82.3271C95.5931 82.0814 95.4814 81.8357 95.3251 81.6124L87.5531 71.2274L93.8511 64.9294L104.236 72.7014C105.152 73.3937 106.469 73.2151 107.162 72.2771C107.318 72.0761 107.43 71.8304 107.497 71.5624C109.216 65.0187 107.318 58.0507 102.516 53.2714C97.2458 48.0007 89.5407 45.9461 82.3494 47.8891L74.7561 40.2734L85.6547 30.3574H119.914C121.075 30.3574 122.013 31.2954 122.013 32.4567V88.9601H4.94209V32.5014C4.94209 31.3624 5.88008 30.4244 7.04142 30.4244ZM84.4041 122.415H42.5961L45.7228 118.239H81.2774L84.4041 122.415ZM75.6717 114.063H51.3284L52.7131 105.688H74.2647L75.6717 114.063ZM119.959 101.511H7.04142C5.88008 101.511 4.94209 100.573 4.94209 99.4121V93.1364H122.036V99.4121C122.058 100.573 121.12 101.511 119.959 101.511Z" fill="white"/>
</mask>
<g mask="url(#mask0_590_1043)">
<path d="M42.7747 51.9983L47.1744 48.1346L44.7624 41.0773C44.7624 41.0773 39.246 41.0773 37.8167 41.5463C36.3874 42.0153 33.0597 43.8243 31.2507 45.812C29.4417 47.7996 24.1264 50.2786 22.027 52.646C19.9277 55.0133 18.409 57.4923 17.1807 61.8696C15.9524 66.2469 14.1434 70.8923 14.054 72.5226C13.9647 74.1306 13.7637 75.0909 14.6347 78.0389C15.4834 80.9869 14.6347 82.1259 16.4437 83.5553C18.2527 84.9846 19.0344 86.4139 22.2504 86.5033C25.4664 86.5926 29.8437 86.9723 31.3624 86.9723C32.881 86.9723 35.9407 87.7316 38.3527 87.0616C40.7647 86.3916 42.395 86.6819 46.6607 84.3146C50.9264 81.9473 51.0157 82.8853 54.455 79.5576C57.872 76.2299 59.1227 73.5723 60.1724 71.6739C61.222 69.7756 62.0707 67.587 62.361 66.8276C62.6514 66.0683 63.969 62.2716 63.5 61.6016C63.031 60.9316 60.552 55.326 60.552 55.326L61.9814 54.6113C61.9814 54.6113 65.2197 56.666 65.5994 56.934C65.979 57.2243 67.6987 59.0333 67.6987 61.6016C67.6987 64.17 67.118 65.3983 68.5474 69.396C69.9767 73.3936 69.0164 75.0909 71.406 78.2399C73.7734 81.3666 72.746 82.3269 76.3417 83.8456C79.9597 85.3643 79.58 86.0343 84.136 86.7043C88.692 87.3743 89.2727 87.3743 92.98 87.285C96.6874 87.1956 98.675 85.9449 100.015 85.0963C101.355 84.2476 102.874 82.9969 103.633 82.1929C104.392 81.3889 114.666 71.5176 114.844 68.659C115.045 65.8003 115.224 63.8126 113.996 61.155C112.767 58.4973 112.656 55.0803 107.631 51.7526C102.583 48.425 104.214 47.8666 99.1664 46.6159C94.119 45.3876 91.7517 45.7896 88.7144 44.9633C85.677 44.137 84.2477 44.4273 82.059 43.5786C79.8704 42.73 74.823 40.3626 74.823 40.3626L86.146 29.8883L91.774 26.2703L97.268 24.104C97.268 24.104 106.112 19.0566 106.291 18.1186C106.469 17.1806 107.631 13.183 106.581 11.173C105.531 9.18529 101.913 4.60695 97.8487 3.66895C93.7617 2.70862 92.5334 2.15029 90.434 2.52996C88.3347 2.90963 82.3494 4.62929 81.2104 5.94696C80.0714 7.28695 79.0217 7.75596 77.034 9.94462C75.0464 12.1333 72.7684 15.0813 72.7684 15.0813L71.6294 17.0243C71.6294 17.0243 70.0214 20.553 68.2124 22.3843L65.644 25.5333C65.644 25.5333 62.495 26.2033 62.6067 25.5333C62.7184 24.8633 63.0757 20.9773 63.567 18.3196C64.036 15.662 64.4157 14.4336 63.567 12.245C62.7184 10.0563 62.227 7.68896 60.3287 5.96929C58.4304 4.24962 56.8224 1.70362 52.0654 0.452958C47.3084 -0.775375 44.941 -2.29404 41.4124 -1.35604C37.906 -0.39571 35.1367 -0.306377 34.4667 1.30162C33.7967 2.90962 31.8984 3.11062 33.7967 5.76829C35.695 8.42595 37.169 8.49295 39.0227 12.982C40.8764 17.4933 37.4147 18.409 37.4147 18.409C37.4147 18.409 32.479 12.714 31.9877 12.4236C31.5187 12.1333 24.4167 9.38629 22.3174 10.3243C20.218 11.2846 18.5877 11.5526 19.1684 14.5006C19.749 17.4486 19.749 19.2576 20.017 20.3073C20.3074 21.357 24.4614 26.2926 24.4614 26.2926L27.2307 31.0273L30.5584 36.097L33.0374 37.437C33.0374 37.437 39.4024 38.844 43.0204 39.6033C46.6384 40.3626 49.8097 45.3429 49.8097 45.3429L42.7747 51.9983Z" fill="#619EBC"/>
</g>
</svg>
