<svg width="96" height="96" viewBox="0 0 96 96" fill="none" xmlns="http://www.w3.org/2000/svg">
<g clip-path="url(#clip0_1242_5331)">
<path d="M91.2 40H64V13.456C64.0017 13.0369 63.9201 12.6217 63.76 12.2344C63.5999 11.8471 63.3644 11.4955 63.0672 11.2L52.8 0.932827C52.5045 0.63565 52.1529 0.400155 51.7656 0.240022C51.3783 0.0798888 50.9631 -0.00168935 50.544 2.65154e-05H4.8C3.52696 2.65154e-05 2.30606 0.505739 1.40589 1.40591C0.505713 2.30609 0 3.52699 0 4.80003L0 78.4C0 79.6731 0.505713 80.894 1.40589 81.7941C2.30606 82.6943 3.52696 83.2 4.8 83.2H41.896C42.2244 84.1332 42.8337 84.9418 43.6402 85.5148C44.4466 86.0877 45.4107 86.397 46.4 86.4H48V92.48C47.9986 93.1102 48.1668 93.7292 48.4871 94.272C48.8074 94.8148 49.2679 95.2613 49.8202 95.5647C50.3726 95.8682 50.9965 96.0173 51.6263 95.9965C52.2562 95.9757 52.8689 95.7857 53.4 95.4464L67.664 86.4H91.2C92.473 86.4 93.6939 85.8943 94.5941 84.9941C95.4943 84.094 96 82.8731 96 81.6V44.8C96 43.527 95.4943 42.3061 94.5941 41.4059C93.6939 40.5057 92.473 40 91.2 40ZM52.8 5.46083L58.5424 11.2H54.4C53.9757 11.2 53.5687 11.0315 53.2686 10.7314C52.9686 10.4313 52.8 10.0244 52.8 9.60003V5.46083ZM3.2 78.4V4.80003C3.2 4.37568 3.36857 3.96871 3.66863 3.66866C3.96869 3.3686 4.37565 3.20003 4.8 3.20003H49.6V9.60003C49.6 10.8731 50.1057 12.094 51.0059 12.9941C51.9061 13.8943 53.127 14.4 54.4 14.4H60.8V40H46.4C45.127 40 43.9061 40.5057 43.0059 41.4059C42.1057 42.3061 41.6 43.527 41.6 44.8V80H4.8C4.37565 80 3.96869 79.8315 3.66863 79.5314C3.36857 79.2313 3.2 78.8244 3.2 78.4ZM92.8 81.6C92.8 82.0244 92.6314 82.4313 92.3314 82.7314C92.0313 83.0315 91.6244 83.2 91.2 83.2H67.2C66.8969 83.2 66.6001 83.286 66.344 83.448L51.68 92.7456C51.6341 92.7794 51.5792 92.7989 51.5222 92.8014C51.4652 92.804 51.4088 92.7896 51.36 92.76C51.3094 92.7335 51.2674 92.693 51.2391 92.6434C51.2107 92.5938 51.1971 92.5371 51.2 92.48V84.8C51.2 84.3757 51.0314 83.9687 50.7314 83.6687C50.4313 83.3686 50.0243 83.2 49.6 83.2H46.4C45.9757 83.2 45.5687 83.0315 45.2686 82.7314C44.9686 82.4313 44.8 82.0244 44.8 81.6V44.8C44.8 44.3757 44.9686 43.9687 45.2686 43.6687C45.5687 43.3686 45.9757 43.2 46.4 43.2H91.2C91.6244 43.2 92.0313 43.3686 92.3314 43.6687C92.6314 43.9687 92.8 44.3757 92.8 44.8V81.6Z" fill="#1FB112"/>
<path d="M11.2 22.4H52.8C53.2243 22.4 53.6313 22.2314 53.9314 21.9314C54.2314 21.6313 54.4 21.2244 54.4 20.8C54.4 20.3757 54.2314 19.9687 53.9314 19.6686C53.6313 19.3686 53.2243 19.2 52.8 19.2H11.2C10.7756 19.2 10.3687 19.3686 10.0686 19.6686C9.76855 19.9687 9.59998 20.3757 9.59998 20.8C9.59998 21.2244 9.76855 21.6313 10.0686 21.9314C10.3687 22.2314 10.7756 22.4 11.2 22.4Z" fill="#1FB112"/>
<path d="M11.2 32H52.8C53.2243 32 53.6313 31.8314 53.9314 31.5314C54.2314 31.2313 54.4 30.8243 54.4 30.4C54.4 29.9756 54.2314 29.5687 53.9314 29.2686C53.6313 28.9686 53.2243 28.8 52.8 28.8H11.2C10.7756 28.8 10.3687 28.9686 10.0686 29.2686C9.76855 29.5687 9.59998 29.9756 9.59998 30.4C9.59998 30.8243 9.76855 31.2313 10.0686 31.5314C10.3687 31.8314 10.7756 32 11.2 32Z" fill="#1FB112"/>
<path d="M38.4 38.4H11.2C10.7756 38.4 10.3687 38.5685 10.0686 38.8686C9.76855 39.1686 9.59998 39.5756 9.59998 40C9.59998 40.4243 9.76855 40.8313 10.0686 41.1313C10.3687 41.4314 10.7756 41.6 11.2 41.6H38.4C38.8243 41.6 39.2313 41.4314 39.5314 41.1313C39.8314 40.8313 40 40.4243 40 40C40 39.5756 39.8314 39.1686 39.5314 38.8686C39.2313 38.5685 38.8243 38.4 38.4 38.4Z" fill="#1FB112"/>
<path d="M36.8 48H11.2C10.7756 48 10.3687 48.1686 10.0686 48.4686C9.76855 48.7687 9.59998 49.1757 9.59998 49.6C9.59998 50.0243 9.76855 50.4313 10.0686 50.7314C10.3687 51.0314 10.7756 51.2 11.2 51.2H36.8C37.2243 51.2 37.6313 51.0314 37.9313 50.7314C38.2314 50.4313 38.4 50.0243 38.4 49.6C38.4 49.1757 38.2314 48.7687 37.9313 48.4686C37.6313 48.1686 37.2243 48 36.8 48Z" fill="#1FB112"/>
<path d="M36.8 57.6H11.2C10.7756 57.6 10.3687 57.7686 10.0686 58.0687C9.76855 58.3687 9.59998 58.7757 9.59998 59.2C9.59998 59.6244 9.76855 60.0314 10.0686 60.3314C10.3687 60.6315 10.7756 60.8 11.2 60.8H36.8C37.2243 60.8 37.6313 60.6315 37.9313 60.3314C38.2314 60.0314 38.4 59.6244 38.4 59.2C38.4 58.7757 38.2314 58.3687 37.9313 58.0687C37.6313 57.7686 37.2243 57.6 36.8 57.6Z" fill="#1FB112"/>
<path d="M36.8 67.2H11.2C10.7756 67.2 10.3687 67.3686 10.0686 67.6686C9.76855 67.9687 9.59998 68.3757 9.59998 68.8C9.59998 69.2244 9.76855 69.6313 10.0686 69.9314C10.3687 70.2314 10.7756 70.4 11.2 70.4H36.8C37.2243 70.4 37.6313 70.2314 37.9313 69.9314C38.2314 69.6313 38.4 69.2244 38.4 68.8C38.4 68.3757 38.2314 67.9687 37.9313 67.6686C37.6313 67.3686 37.2243 67.2 36.8 67.2Z" fill="#1FB112"/>
<path d="M52.8 51.2C52.5666 51.2063 52.334 51.2299 52.104 51.2704C52.4089 50.5339 52.9063 49.8928 53.544 49.4144C53.7309 49.3183 53.897 49.1863 54.0329 49.026C54.1688 48.8656 54.2718 48.6801 54.336 48.48C54.4001 48.2798 54.4243 48.069 54.407 47.8596C54.3897 47.6501 54.3313 47.4461 54.2352 47.2592C54.1391 47.0723 54.0071 46.9062 53.8467 46.7703C53.6864 46.6344 53.5009 46.5314 53.3008 46.4673C53.1006 46.4031 52.8898 46.3789 52.6804 46.3962C52.4709 46.4135 52.2669 46.4719 52.08 46.568C51.6656 46.7776 48 48.8192 48 56C48 56.9494 48.2815 57.8774 48.8089 58.6668C49.3364 59.4561 50.086 60.0713 50.9631 60.4346C51.8402 60.7979 52.8053 60.893 53.7364 60.7078C54.6675 60.5226 55.5228 60.0654 56.1941 59.3941C56.8654 58.7228 57.3226 57.8676 57.5078 56.9365C57.693 56.0053 57.5979 55.0402 57.2346 54.1631C56.8713 53.2861 56.2561 52.5364 55.4667 52.009C54.6774 51.4815 53.7494 51.2 52.8 51.2ZM52.8 57.6C52.4836 57.6 52.1742 57.5062 51.9111 57.3304C51.648 57.1546 51.4429 56.9047 51.3218 56.6123C51.2007 56.32 51.169 55.9982 51.2307 55.6879C51.2925 55.3775 51.4449 55.0924 51.6686 54.8687C51.8924 54.6449 52.1775 54.4925 52.4879 54.4308C52.7982 54.369 53.1199 54.4007 53.4123 54.5218C53.7047 54.6429 53.9545 54.848 54.1304 55.1111C54.3062 55.3742 54.4 55.6836 54.4 56C54.4 56.4244 54.2314 56.8313 53.9314 57.1314C53.6313 57.4315 53.2243 57.6 52.8 57.6Z" fill="#1FB112"/>
<path d="M70.4 56C70.4 54.727 69.8943 53.5061 68.9942 52.6059C68.094 51.7057 66.8731 51.2 65.6 51.2C65.3666 51.2063 65.134 51.2299 64.904 51.2704C65.209 50.5339 65.7063 49.8928 66.344 49.4144C66.7215 49.2203 67.0064 48.8842 67.136 48.48C67.2656 48.0758 67.2294 47.6367 67.0352 47.2592C66.8411 46.8818 66.505 46.5969 66.1008 46.4673C65.6966 46.3376 65.2575 46.3739 64.88 46.568C64.4656 46.7776 60.8 48.8192 60.8 56C60.8 57.2731 61.3058 58.494 62.2059 59.3941C63.1061 60.2943 64.327 60.8 65.6 60.8C66.8731 60.8 68.094 60.2943 68.9942 59.3941C69.8943 58.494 70.4 57.2731 70.4 56ZM65.6 57.6C65.2836 57.6 64.9743 57.5062 64.7111 57.3304C64.448 57.1546 64.2429 56.9047 64.1218 56.6123C64.0007 56.32 63.9691 55.9982 64.0308 55.6879C64.0925 55.3775 64.2449 55.0924 64.4687 54.8687C64.6924 54.6449 64.9775 54.4925 65.2879 54.4308C65.5983 54.369 65.92 54.4007 66.2123 54.5218C66.5047 54.6429 66.7546 54.848 66.9304 55.1111C67.1062 55.3742 67.2 55.6836 67.2 56C67.2 56.4244 67.0315 56.8313 66.7314 57.1314C66.4314 57.4315 66.0244 57.6 65.6 57.6Z" fill="#1FB112"/>
<path d="M84.8 65.6C83.527 65.6 82.3061 66.1058 81.4059 67.0059C80.5057 67.9061 80 69.127 80 70.4C80 71.6731 80.5057 72.894 81.4059 73.7941C82.3061 74.6943 83.527 75.2 84.8 75.2C85.0334 75.1937 85.266 75.1702 85.496 75.1296C85.1911 75.8662 84.6937 76.5072 84.056 76.9856C83.8691 77.0818 83.703 77.2138 83.5671 77.3741C83.4312 77.5344 83.3282 77.72 83.264 77.9201C83.1999 78.1202 83.1757 78.331 83.193 78.5405C83.2103 78.7499 83.2687 78.9539 83.3648 79.1408C83.4609 79.3277 83.5929 79.4939 83.7533 79.6298C83.9136 79.7656 84.0991 79.8686 84.2992 79.9328C84.4994 79.997 84.7102 80.0211 84.9196 80.0038C85.1291 79.9865 85.3331 79.9282 85.52 79.832C85.9344 79.6224 89.6 77.5808 89.6 70.4C89.6 69.127 89.0943 67.9061 88.1941 67.0059C87.2939 66.1058 86.073 65.6 84.8 65.6ZM84.8 72C84.4836 72 84.1742 71.9062 83.9111 71.7304C83.648 71.5546 83.4429 71.3047 83.3218 71.0123C83.2007 70.72 83.169 70.3983 83.2307 70.0879C83.2925 69.7775 83.4449 69.4924 83.6686 69.2687C83.8924 69.0449 84.1775 68.8925 84.4879 68.8308C84.7982 68.769 85.1199 68.8007 85.4123 68.9218C85.7047 69.0429 85.9545 69.248 86.1304 69.5111C86.3062 69.7742 86.4 70.0836 86.4 70.4C86.4 70.8244 86.2314 71.2314 85.9314 71.5314C85.6313 71.8315 85.2243 72 84.8 72Z" fill="#1FB112"/>
<path d="M72 65.6C70.7269 65.6 69.506 66.1058 68.6058 67.0059C67.7057 67.9061 67.2 69.127 67.2 70.4C67.2 71.6731 67.7057 72.894 68.6058 73.7941C69.506 74.6943 70.7269 75.2 72 75.2C72.2334 75.1937 72.466 75.1702 72.696 75.1296C72.391 75.8662 71.8937 76.5072 71.256 76.9856C70.8785 77.1798 70.5936 77.5159 70.464 77.9201C70.3344 78.3243 70.3706 78.7634 70.5648 79.1408C70.7589 79.5183 71.095 79.8032 71.4992 79.9328C71.9034 80.0624 72.3425 80.0262 72.72 79.832C73.1344 79.6224 76.8 77.5808 76.8 70.4C76.8 69.127 76.2942 67.9061 75.3941 67.0059C74.4939 66.1058 73.273 65.6 72 65.6ZM72 72C71.6835 72 71.3742 71.9062 71.111 71.7304C70.8479 71.5546 70.6428 71.3047 70.5217 71.0123C70.4006 70.72 70.369 70.3983 70.4307 70.0879C70.4924 69.7775 70.6448 69.4924 70.8686 69.2687C71.0923 69.0449 71.3774 68.8925 71.6878 68.8308C71.9982 68.769 72.3199 68.8007 72.6122 68.9218C72.9046 69.0429 73.1545 69.248 73.3303 69.5111C73.5061 69.7742 73.6 70.0836 73.6 70.4C73.6 70.8244 73.4314 71.2314 73.1313 71.5314C72.8313 71.8315 72.4243 72 72 72Z" fill="#1FB112"/>
</g>
<defs>
<clipPath id="clip0_1242_5331">
<rect width="96" height="96" fill="white"/>
</clipPath>
</defs>
</svg>
