<svg id="Layer_1" data-name="Layer 1" xmlns="http://www.w3.org/2000/svg" width="90" height="90" viewBox="0 0 90 90"><defs><style>.cls-1,.cls-2{fill:none;stroke:#25b24b;stroke-miterlimit:10;stroke-width:1.5px;}.cls-2{stroke-linecap:round;}</style></defs><path class="cls-1" d="M57.63,38.74V13.85l0,0L47.84,4.05H8.12a3.28,3.28,0,0,0-3.3,3.29V70.16a3.29,3.29,0,0,0,3.3,3.29h33"/><path class="cls-1" d="M47.24,4v6.69a3.09,3.09,0,0,0,3.1,3.09h7.3"/><line class="cls-2" x1="11.65" y1="20.78" x2="50.39" y2="20.78"/><line class="cls-2" x1="11.65" y1="29.01" x2="50.39" y2="29.01"/><line class="cls-2" x1="11.65" y1="37.25" x2="37.9" y2="37.25"/><line class="cls-2" x1="11.65" y1="45.48" x2="36.46" y2="45.48"/><line class="cls-2" x1="11.65" y1="53.71" x2="36.46" y2="53.71"/><line class="cls-2" x1="11.65" y1="61.95" x2="36.46" y2="61.95"/><path class="cls-2" d="M61.11,76.43h21a3,3,0,0,0,3-3V41.77a3,3,0,0,0-3-3h-38a3,3,0,0,0-3,3V73.45a3,3,0,0,0,3,3h1.63"/><polyline class="cls-2" points="45.82 76.43 45.82 85.96 61.11 76.43"/><circle class="cls-1" cx="49.04" cy="51.24" r="2.98"/><path class="cls-2" d="M50.21,43.53s-3.63,3.73-4.05,7"/><circle class="cls-1" cx="61.07" cy="51.24" r="2.98"/><path class="cls-2" d="M62.23,43.53s-3.62,3.73-4,7"/><circle class="cls-1" cx="49.04" cy="51.24" r="2.98"/><path class="cls-2" d="M50.21,43.53s-3.63,3.73-4.05,7"/><circle class="cls-1" cx="61.07" cy="51.24" r="2.98"/><path class="cls-2" d="M62.23,43.53s-3.62,3.73-4,7"/><circle class="cls-1" cx="73.19" cy="64.57" r="2.98"/><path class="cls-2" d="M72,72.28s3.62-3.72,4-7"/><circle class="cls-1" cx="61.16" cy="64.57" r="2.98"/><path class="cls-2" d="M60,72.28s3.62-3.72,4-7"/></svg>