<?xml version="1.0" encoding="utf-8"?>
<!-- Generator: Adobe Illustrator 26.0.1, SVG Export Plug-In . SVG Version: 6.00 Build 0)  -->
<svg version="1.1" id="Layer_1" xmlns="http://www.w3.org/2000/svg" xmlns:xlink="http://www.w3.org/1999/xlink" x="0px" y="0px"
	 width="70" height="70" viewBox="0 0 70 70" style="enable-background:new 0 0 70 70;" xml:space="preserve">
<style type="text/css">
	.st0{fill:none;stroke:#C22033;stroke-width:1.5;stroke-miterlimit:10;}
	.st1{fill:none;stroke:#C22033;stroke-width:1.5;stroke-linecap:round;stroke-miterlimit:10;}
	.st2{fill:none;stroke:#C22033;stroke-miterlimit:10;}
</style>
<g>
	<path class="st0" d="M43.5,58.1v0.5c0,3.5-2.8,6.3-6.3,6.3H15c-3.5,0-6.3-2.8-6.3-6.3v-4.5V12.6v-2.2c0-3.5,2.8-6.3,6.3-6.3h22.2
		c3.5,0,6.3,2.8,6.3,6.3v2.2v5.6"/>
	<line class="st0" x1="8.7" y1="12.6" x2="43.5" y2="12.6"/>
	<line class="st1" x1="22.5" y1="59.9" x2="29.7" y2="59.9"/>
	<g>
		<g>
			<line class="st1" x1="12.7" y1="28.9" x2="24.4" y2="28.9"/>
			<line class="st1" x1="26.6" y1="28.9" x2="33.1" y2="28.9"/>
		</g>
		<g>
			<line class="st1" x1="12.6" y1="37.3" x2="19.4" y2="37.3"/>
			<line class="st1" x1="21.5" y1="37.3" x2="33.2" y2="37.3"/>
		</g>
		<g>
			<line class="st1" x1="12.6" y1="45.6" x2="19.4" y2="45.6"/>
			<line class="st1" x1="21.5" y1="45.6" x2="33.2" y2="45.6"/>
			<line class="st1" x1="36.2" y1="45.6" x2="39.2" y2="45.6"/>
		</g>
		<g>
			<line class="st1" x1="12.6" y1="20.5" x2="19.8" y2="20.5"/>
			<line class="st1" x1="28.5" y1="20.5" x2="39" y2="20.5"/>
			<line class="st1" x1="22.5" y1="20.5" x2="25.8" y2="20.5"/>
		</g>
	</g>
	<line class="st0" x1="35.9" y1="54.1" x2="8.7" y2="54.1"/>
	<g>
		<g>
			<path class="st0" d="M61,26.1c0.2,0,0.4,0.2,0.4,0.4c0.1,0.7-0.3,2.2-3.8,2.2c-3,0-8.7-0.1-11.6-2.4c-0.2-0.2-0.5-0.1-0.6,0.1
				c-0.6,1.1-2.2,3.9-4.1,4.1c-0.5,0.1-0.9-0.3-0.9-0.8v-4.7c0-1.9,0.5-3.7,1.5-5.2c0.8-1.2,2-2.4,3.8-2.9c3.9-1.2,7.6-0.6,10,2.1
				c0.6,0.7,1.1,1.5,1.5,2.3C58.3,23.4,59.5,26.2,61,26.1z"/>
			<path class="st0" d="M57.6,28.6c0,0,0,0,0.1,0.1c0.1,0.1,0.5,0.5,1.5,1.4c2.4,2.2,0.6,4-0.1,4.6c-0.2,0.2-0.4,0.4-0.5,0.7
				c-0.5,1.8-2.8,8.3-9,7.9c-7.2-0.5-8.2-5.7-9.5-9.1c-2-1.9-0.5-3.5,0.5-4.2"/>
		</g>
		<path class="st0" d="M54.6,41.9v3.4c-0.6,0.3-2.1,1.1-4.2,1.1c-2.2,0-3.8-0.8-4.4-1.1c0-1,0-2,0-2.9"/>
	</g>
	<path class="st0" d="M54.4,45.4l6.2,2.2c2.5,0.9,4.1,3.2,4.1,5.8v4.7H52.6c0,0-1.1,0-2.3,0s-2.3,0-2.3,0H35.9v-4.7
		c0-2.6,1.6-4.9,4.1-5.8l6.2-2.2"/>
</g>
</svg>
