<?xml version="1.0" encoding="utf-8"?>
<!-- Generator: Adobe Illustrator 26.0.1, SVG Export Plug-In . SVG Version: 6.00 Build 0)  -->
<svg version="1.1" id="Layer_1" xmlns="http://www.w3.org/2000/svg" xmlns:xlink="http://www.w3.org/1999/xlink" x="0px" y="0px"
	 viewBox="0 0 50 50" style="enable-background:new 0 0 50 50;" xml:space="preserve">
<style type="text/css">
	.st0{fill:none;stroke:#7E78FF;stroke-width:2;stroke-miterlimit:10;}
	.st1{fill:none;stroke:#7E78FF;stroke-width:2;stroke-linecap:round;stroke-miterlimit:10;}
</style>
<g>
	<circle class="st0" cx="15" cy="18.9" r="3.8"/>
	<path class="st1" d="M8.8,36.7v-6c0-3.4,2.8-6.2,6.2-6.2h0c3.4,0,6.2,2.8,6.2,6.2v6"/>
	<circle class="st0" cx="35" cy="18.9" r="3.8"/>
	<path class="st1" d="M28.8,36.7v-6c0-3.4,2.8-6.2,6.2-6.2h0c3.4,0,6.2,2.8,6.2,6.2v6"/>
</g>
<path class="st1" d="M15.7,11.9c0.4-0.6,0.9-1.2,1.4-1.7c0.5-0.5,1.1-1,1.7-1.4c0.6-0.4,1.2-0.8,1.9-1c0.7-0.3,1.4-0.5,2.1-0.7
	c0.7-0.2,1.5-0.2,2.3-0.2s1.5,0.1,2.3,0.2s1.4,0.4,2.1,0.7s1.3,0.6,1.9,1s1.2,0.9,1.7,1.4"/>
<polyline class="st1" points="34.2,7.8 34.4,11.2 31,11.4 "/>
<path class="st1" d="M34.4,38.3c-0.4,0.6-0.9,1.2-1.4,1.7c-0.5,0.5-1.1,1-1.7,1.4c-0.6,0.4-1.2,0.8-1.9,1c-0.7,0.3-1.4,0.5-2.1,0.7
	s-1.5,0.2-2.3,0.2s-1.5-0.1-2.3-0.2c-0.7-0.2-1.4-0.4-2.1-0.7c-0.7-0.3-1.3-0.6-1.9-1s-1.2-0.9-1.7-1.4"/>
<polyline class="st1" points="16,42.4 15.7,38.9 19.2,38.7 "/>
</svg>
