<?xml version="1.0" encoding="utf-8"?>
<!-- Generator: Adobe Illustrator 26.0.1, SVG Export Plug-In . SVG Version: 6.00 Build 0)  -->
<svg version="1.1" id="Layer_1" xmlns="http://www.w3.org/2000/svg" xmlns:xlink="http://www.w3.org/1999/xlink" x="0px" y="0px"
	 viewBox="0 0 70 70" style="enable-background:new 0 0 70 70;" xml:space="preserve">
<style type="text/css">
	.st0{fill-rule:evenodd;clip-rule:evenodd;fill:#C22032;}
	.st1{fill:#FFFFFF;stroke:#FFFFFF;}
	.st2{fill:#FFFFFF;stroke:#FFFFFF;stroke-width:0.75;}
</style>
<g>
	<path class="st0" d="M66.75,50.64c0,0.35-0.01,1.1-0.03,1.68c-0.05,1.43-0.16,3.26-0.34,4.1c-0.26,1.26-0.64,2.45-1.15,3.44
		c-1.18,2.32-3.07,4.21-5.39,5.38c-0.99,0.51-2.19,0.9-3.46,1.15c-0.83,0.17-2.65,0.28-4.07,0.33c-0.58,0.02-1.34,0.03-1.68,0.03
		l-31.27-0.01c-0.35,0-1.1-0.01-1.68-0.03c-1.43-0.05-3.26-0.16-4.1-0.34c-1.26-0.26-2.45-0.64-3.44-1.15
		c-2.32-1.18-4.21-3.07-5.38-5.39c-0.51-0.99-0.89-2.19-1.15-3.46c-0.17-0.83-0.28-2.66-0.33-4.07c-0.02-0.58-0.03-1.34-0.03-1.68
		l0.01-31.27c0-0.35,0.01-1.1,0.03-1.68c0.05-1.43,0.16-3.26,0.34-4.1c0.26-1.26,0.64-2.45,1.15-3.44c1.18-2.32,3.07-4.21,5.39-5.38
		c1-0.51,2.19-0.89,3.46-1.15c0.83-0.17,2.65-0.28,4.07-0.33c0.58-0.02,1.34-0.03,1.68-0.03l31.27,0.01c0.35,0,1.1,0.01,1.68,0.03
		c1.43,0.05,3.26,0.16,4.1,0.34c1.26,0.26,2.45,0.64,3.44,1.15c2.32,1.18,4.21,3.07,5.38,5.39c0.51,0.99,0.89,2.19,1.15,3.46
		c0.17,0.83,0.28,2.66,0.33,4.07c0.02,0.58,0.03,1.34,0.03,1.68L66.75,50.64z"/>
</g>
<path class="st1" d="M35.75,15.54H23.19c-1.27,0-2.49,0.51-3.39,1.41c-0.9,0.9-1.41,2.12-1.41,3.39v29.32
	c0,1.27,0.51,2.49,1.41,3.39c0.9,0.9,2.12,1.41,3.39,1.41h12.56c1.27,0,2.49-0.51,3.39-1.41c0.9-0.9,1.41-2.12,1.41-3.39v-0.75
	h11.01c0.16,0,0.32-0.06,0.43-0.18c0.11-0.11,0.18-0.27,0.18-0.43V45.5c0-0.26-0.03-0.51-0.08-0.76c-0.01-0.04-0.02-0.09-0.03-0.13
	c-0.16-0.56-0.45-1.07-0.86-1.49c-0.41-0.42-0.91-0.73-1.47-0.9l-3.67-1.19v-1.45c0.67-0.42,1.25-0.98,1.7-1.63
	c0.45-0.65,0.76-1.39,0.91-2.17l0.19-0.65c0.45-0.18,0.82-0.52,1.05-0.95c0.22-0.43,0.28-0.93,0.17-1.4
	c-0.05-0.22-0.15-0.43-0.29-0.61c-0.14-0.18-0.31-0.33-0.51-0.44c0.45-0.09,0.85-0.34,1.14-0.7c0.29-0.36,0.45-0.8,0.45-1.26
	c0-0.16-0.06-0.32-0.18-0.43c-0.11-0.11-0.27-0.18-0.43-0.18c-0.3,0-0.59-0.1-0.82-0.29c-0.24-0.19-0.4-0.44-0.48-0.73
	c-0.75-2.9-3.26-5.01-5.96-5.01c-0.83,0-1.66,0.17-2.42,0.49v-3.26c0-1.27-0.51-2.49-1.41-3.39C38.24,16.05,37.02,15.54,35.75,15.54
	z M36.8,29.28v2.37c-0.23,0.1-0.43,0.26-0.59,0.45c-0.16,0.19-0.27,0.42-0.33,0.66c-0.12,0.47-0.06,0.97,0.17,1.4
	c0.22,0.43,0.6,0.77,1.05,0.95l0.19,0.65c0.15,0.78,0.46,1.52,0.91,2.17c0.45,0.65,1.03,1.21,1.7,1.63v1.45l-3.67,1.19
	c-0.56,0.17-1.06,0.49-1.47,0.9c-0.41,0.42-0.7,0.93-0.86,1.49c-0.01,0.04-0.02,0.09-0.03,0.13c-0.01,0.04-0.02,0.08-0.02,0.12
	H19.61V21.68h19.72v2.62c-0.78,0.57-1.42,1.32-1.86,2.19C37.03,27.36,36.8,28.31,36.8,29.28L36.8,29.28z M23.19,16.76h12.56
	c0.95,0,1.86,0.38,2.53,1.05c0.67,0.67,1.05,1.58,1.05,2.53v0.12H19.61v-0.12c0-0.95,0.38-1.86,1.05-2.53
	C21.33,17.14,22.24,16.77,23.19,16.76z M39.33,49.66c0,0.95-0.38,1.86-1.05,2.53c-0.67,0.67-1.58,1.05-2.53,1.05H23.19
	c-0.95,0-1.86-0.38-2.53-1.05c-0.67-0.67-1.05-1.58-1.05-2.53v-3.58h14.16v2.22c0,0.16,0.06,0.32,0.18,0.43
	c0.11,0.11,0.27,0.18,0.43,0.18h4.95V49.66z M49.35,43.37c0.36,0.11,0.69,0.31,0.96,0.59c0.27,0.27,0.46,0.61,0.56,0.97
	c0.01,0.03,0.02,0.06,0.02,0.09c0.04,0.16,0.05,0.32,0.05,0.49v2.18H34.99V45.5c0-0.16,0.02-0.33,0.05-0.49
	c0.01-0.03,0.01-0.06,0.02-0.09c0.1-0.37,0.3-0.7,0.56-0.97c0.27-0.27,0.6-0.47,0.96-0.59l3.85-1.25c0.79,0.38,1.66,0.57,2.53,0.57
	c0.88,0,1.74-0.2,2.53-0.57L49.35,43.37z M44.84,41.09c-0.59,0.26-1.22,0.39-1.86,0.39c-0.64,0-1.28-0.13-1.86-0.39v-0.93
	c1.21,0.41,2.52,0.41,3.73,0V41.09z M48.25,34.02c-0.12,0.02-0.22,0.08-0.31,0.16c-0.09,0.08-0.15,0.18-0.18,0.3l-0.28,0.97
	c-0.01,0.02-0.01,0.04-0.01,0.06c-0.2,1.05-0.75,1.99-1.57,2.67c-0.82,0.68-1.85,1.05-2.92,1.05c-1.07,0-2.1-0.37-2.92-1.05
	c-0.82-0.68-1.38-1.63-1.57-2.67c0-0.02-0.01-0.04-0.01-0.06l-0.28-0.95c-0.02-0.12-0.08-0.23-0.17-0.32
	c-0.09-0.09-0.2-0.14-0.32-0.17c-0.11-0.02-0.21-0.06-0.3-0.12c-0.09-0.06-0.17-0.14-0.23-0.23c-0.06-0.09-0.1-0.19-0.12-0.3
	c-0.02-0.11-0.01-0.21,0.01-0.32c0.02-0.07,0.05-0.13,0.1-0.19c0.05-0.05,0.11-0.09,0.18-0.12c0.02,0,0.05,0,0.07,0
	c0.61,0,1.21-0.16,1.74-0.47c0.53-0.31,0.97-0.75,1.27-1.28l0.37-0.65c1.39,0.91,3.02,1.39,4.68,1.4h2.45v0.36
	c0,0.15,0.06,0.3,0.16,0.41c0.1,0.11,0.24,0.18,0.39,0.2c0.09,0.01,0.19,0.04,0.26,0.1c0.07,0.06,0.12,0.14,0.15,0.24
	c0.02,0.06,0.02,0.13,0.02,0.19c0,0.19-0.06,0.36-0.18,0.51S48.43,33.99,48.25,34.02L48.25,34.02z M47.75,28.43
	c0.11,0.42,0.32,0.81,0.62,1.13c0.3,0.32,0.67,0.56,1.08,0.69c-0.07,0.09-0.16,0.16-0.27,0.21c-0.1,0.05-0.22,0.08-0.34,0.08h-3.38
	c-1.63,0-3.21-0.55-4.5-1.55c-0.07-0.05-0.15-0.09-0.23-0.11c-0.09-0.02-0.17-0.02-0.26-0.01c-0.09,0.02-0.17,0.05-0.24,0.1
	c-0.07,0.05-0.13,0.12-0.17,0.19l-0.7,1.24c-0.29,0.51-0.77,0.89-1.34,1.05v-2.17c0-1.31,0.52-2.57,1.45-3.5
	c0.93-0.93,2.19-1.45,3.5-1.45C45.13,24.33,47.14,26.05,47.75,28.43z"/>
<path class="st2" d="M31.41,49.05h-3.87c-0.16,0-0.32,0.06-0.43,0.18c-0.11,0.11-0.18,0.27-0.18,0.43c0,0.16,0.06,0.32,0.18,0.43
	c0.11,0.12,0.27,0.18,0.43,0.18h3.87c0.16,0,0.32-0.06,0.43-0.18c0.11-0.11,0.18-0.27,0.18-0.43c0-0.16-0.06-0.32-0.18-0.43
	C31.72,49.11,31.57,49.05,31.41,49.05z"/>
<path class="st2" d="M21.83,26.71h2.93c0.16,0,0.32-0.06,0.43-0.18c0.11-0.11,0.18-0.27,0.18-0.43c0-0.16-0.06-0.32-0.18-0.43
	c-0.11-0.11-0.27-0.18-0.43-0.18h-2.93c-0.16,0-0.32,0.06-0.43,0.18c-0.12,0.11-0.18,0.27-0.18,0.43c0,0.16,0.06,0.32,0.18,0.43
	C21.51,26.65,21.66,26.71,21.83,26.71z"/>
<path class="st2" d="M27.17,26.71h1.88c0.16,0,0.32-0.06,0.43-0.18c0.11-0.11,0.18-0.27,0.18-0.43c0-0.16-0.06-0.32-0.18-0.43
	s-0.27-0.18-0.43-0.18h-1.88c-0.16,0-0.32,0.06-0.43,0.18s-0.18,0.27-0.18,0.43c0,0.16,0.06,0.32,0.18,0.43
	C26.85,26.65,27,26.71,27.17,26.71z"/>
<path class="st2" d="M36.22,25.49h-4.13c-0.16,0-0.32,0.06-0.43,0.18c-0.12,0.11-0.18,0.27-0.18,0.43c0,0.16,0.06,0.32,0.18,0.43
	c0.11,0.11,0.27,0.18,0.43,0.18h4.13c0.16,0,0.32-0.06,0.43-0.18c0.11-0.11,0.18-0.27,0.18-0.43c0-0.16-0.06-0.32-0.18-0.43
	C36.53,25.55,36.38,25.49,36.22,25.49z"/>
<path class="st2" d="M21.83,31.6h5.03c0.16,0,0.32-0.06,0.43-0.18c0.11-0.11,0.18-0.27,0.18-0.43c0-0.16-0.06-0.32-0.18-0.43
	c-0.11-0.11-0.27-0.18-0.43-0.18h-5.03c-0.16,0-0.32,0.06-0.43,0.18c-0.12,0.11-0.18,0.27-0.18,0.43c0,0.16,0.06,0.32,0.18,0.43
	C21.51,31.53,21.66,31.6,21.83,31.6z"/>
<path class="st2" d="M28.65,30.99c0,0.16,0.06,0.32,0.18,0.43c0.11,0.11,0.27,0.18,0.43,0.18h3.53c0.16,0,0.32-0.06,0.43-0.18
	c0.11-0.11,0.18-0.27,0.18-0.43c0-0.16-0.06-0.32-0.18-0.43c-0.11-0.11-0.27-0.18-0.43-0.18h-3.53c-0.16,0-0.32,0.06-0.43,0.18
	S28.65,30.82,28.65,30.99z"/>
<path class="st2" d="M21.83,36.48h7.36c0.16,0,0.32-0.06,0.43-0.18c0.11-0.11,0.18-0.27,0.18-0.43c0-0.16-0.06-0.32-0.18-0.43
	c-0.11-0.11-0.27-0.18-0.43-0.18h-7.36c-0.16,0-0.32,0.06-0.43,0.18c-0.12,0.11-0.18,0.27-0.18,0.43c0,0.16,0.06,0.32,0.18,0.43
	C21.51,36.42,21.66,36.48,21.83,36.48z"/>
<path class="st2" d="M33.4,35.87c0-0.16-0.06-0.32-0.18-0.43c-0.11-0.11-0.27-0.18-0.43-0.18H31.6c-0.16,0-0.32,0.06-0.43,0.18
	c-0.12,0.11-0.18,0.27-0.18,0.43c0,0.16,0.06,0.32,0.18,0.43c0.11,0.11,0.27,0.18,0.43,0.18h1.19c0.16,0,0.32-0.06,0.43-0.18
	C33.33,36.19,33.4,36.04,33.4,35.87z"/>
<path class="st2" d="M24.83,40.15h-3c-0.16,0-0.32,0.06-0.43,0.18c-0.12,0.11-0.18,0.27-0.18,0.43c0,0.16,0.06,0.32,0.18,0.43
	c0.11,0.11,0.27,0.18,0.43,0.18h3c0.16,0,0.32-0.06,0.43-0.18c0.11-0.11,0.18-0.27,0.18-0.43c0-0.16-0.06-0.32-0.18-0.43
	C25.14,40.21,24.99,40.15,24.83,40.15z"/>
<path class="st2" d="M32.8,40.76c0,0.16,0.06,0.32,0.18,0.43c0.11,0.11,0.27,0.18,0.43,0.18h3.73c0.16,0,0.32-0.06,0.43-0.18
	c0.11-0.11,0.18-0.27,0.18-0.43c0-0.16-0.06-0.32-0.18-0.43c-0.11-0.11-0.27-0.18-0.43-0.18h-3.73c-0.16,0-0.32,0.06-0.43,0.18
	C32.87,40.44,32.8,40.6,32.8,40.76z"/>
<path class="st2" d="M31.41,40.15h-4.17c-0.16,0-0.32,0.06-0.43,0.18c-0.11,0.11-0.18,0.27-0.18,0.43c0,0.16,0.06,0.32,0.18,0.43
	c0.11,0.11,0.27,0.18,0.43,0.18h4.17c0.16,0,0.32-0.06,0.43-0.18c0.11-0.11,0.18-0.27,0.18-0.43c0-0.16-0.06-0.32-0.18-0.43
	C31.72,40.21,31.57,40.15,31.41,40.15z"/>
</svg>
