<svg width="80" height="80" viewBox="0 0 80 80" fill="none" xmlns="http://www.w3.org/2000/svg">
<path d="M40.8452 5.15625H18.3452C16.0668 5.15881 13.8824 6.06505 12.2713 7.67613C10.6603 9.28722 9.75403 11.4716 9.75146 13.75V66.25C9.75403 68.5284 10.6603 70.7128 12.2713 72.3239C13.8824 73.935 16.0668 74.8412 18.3452 74.8438H40.8452C43.1236 74.8412 45.308 73.935 46.9191 72.3239C48.5302 70.7128 49.4364 68.5284 49.439 66.25V64.905H69.1546C69.4447 64.905 69.7229 64.7898 69.928 64.5846C70.1331 64.3795 70.2483 64.1013 70.2483 63.8112V58.8094C70.252 58.3495 70.2023 57.8907 70.1004 57.4422C70.0816 57.3626 70.0615 57.2836 70.0401 57.2052C69.7574 56.2004 69.2288 55.2819 68.5021 54.5328C67.7754 53.7836 66.8734 53.2273 65.8777 52.9142L59.2985 50.7812V48.1842C60.5007 47.4286 61.5349 46.4342 62.337 45.2626C63.1392 44.091 63.6922 42.7672 63.9618 41.3731L64.3002 40.2095C65.1093 39.8893 65.7751 39.2871 66.1746 38.5141C66.5742 37.7411 66.6804 36.8496 66.4737 36.0044C66.3786 35.6062 66.2017 35.2322 65.9542 34.9061C65.7068 34.58 65.3941 34.3091 65.0362 34.1105C65.8388 33.9405 66.5588 33.5002 67.0758 32.8631C67.5929 32.2261 67.8757 31.4309 67.8769 30.6105C67.8769 30.3204 67.7617 30.0422 67.5566 29.8371C67.3515 29.632 67.0733 29.5167 66.7832 29.5167C66.2467 29.5129 65.7268 29.3307 65.3053 28.9988C64.8838 28.667 64.5847 28.2043 64.4551 27.6838C63.1171 22.4828 58.6254 18.7078 53.7746 18.7078C52.2843 18.7062 50.8092 19.0076 49.439 19.5938V13.75C49.4364 11.4716 48.5302 9.28722 46.9191 7.67613C45.308 6.06505 43.1236 5.15881 40.8452 5.15625ZM42.7202 29.763V34.0059C42.3119 34.1916 41.9514 34.4681 41.6662 34.8143C41.3811 35.1605 41.1787 35.5673 41.0746 36.0036C40.8675 36.8489 40.9735 37.7406 41.373 38.5138C41.7725 39.287 42.4385 39.8894 43.2477 40.2095L43.586 41.3731C43.8557 42.7671 44.4088 44.0909 45.211 45.2625C46.0131 46.4341 47.0473 47.4285 48.2494 48.1841V50.7812L41.6702 52.9142C40.6745 53.2273 39.7726 53.7836 39.0458 54.5328C38.3191 55.2819 37.7905 56.2004 37.5079 57.2052C37.4863 57.2836 37.4662 57.3628 37.4476 57.4427C37.4319 57.513 37.4182 57.5847 37.4046 57.6562H11.9391V16.1562H47.2516V20.8447C45.8478 21.8698 44.7057 23.2117 43.9182 24.7614C43.1307 26.311 42.72 28.0247 42.7196 29.763H42.7202ZM18.3454 7.34375H40.8454C42.5438 7.34565 44.1722 8.02121 45.3732 9.2222C46.5742 10.4232 47.2497 12.0515 47.2516 13.75V13.9688H11.9391V13.75C11.941 12.0515 12.6166 10.4232 13.8176 9.2222C15.0186 8.02121 16.6469 7.34565 18.3454 7.34375ZM47.2516 66.25C47.2497 67.9485 46.5742 69.5768 45.3732 70.7778C44.1722 71.9788 42.5438 72.6544 40.8454 72.6562H18.3454C16.6469 72.6544 15.0186 71.9788 13.8176 70.7778C12.6166 69.5768 11.941 67.9485 11.9391 66.25V59.8438H37.2985V63.8112C37.2985 64.1013 37.4137 64.3795 37.6188 64.5846C37.824 64.7898 38.1022 64.905 38.3922 64.905H47.2516V66.25ZM65.203 54.9953C65.8536 55.197 66.4437 55.5576 66.9199 56.0445C67.3962 56.5315 67.7435 57.1295 67.9307 57.7844C67.945 57.8359 67.9581 57.8877 67.9702 57.9397C68.0337 58.2251 68.0641 58.517 68.0608 58.8094V62.7175H39.4865V58.8094C39.4831 58.5171 39.5135 58.2254 39.5771 57.9402C39.5893 57.8881 39.6025 57.836 39.6166 57.7839C39.8037 57.1291 40.1511 56.5313 40.6272 56.0444C41.1033 55.5576 41.6932 55.197 42.3437 54.9953L49.239 52.7597C50.6546 53.4366 52.2039 53.788 53.773 53.788C55.3422 53.788 56.8914 53.4366 58.3071 52.7597L65.203 54.9953ZM57.111 50.8991C56.0589 51.3605 54.9225 51.5987 53.7737 51.5987C52.6248 51.5987 51.4884 51.3605 50.4363 50.8991V49.2258C52.6 49.9637 54.9473 49.9637 57.111 49.2258V50.8991ZM63.2247 38.2506C63.0166 38.2891 62.8239 38.3865 62.6696 38.5313C62.5153 38.6761 62.4058 38.8622 62.3543 39.0675L61.8469 40.8125C61.837 40.8466 61.8288 40.881 61.8222 40.9159C61.4695 42.7926 60.4721 44.487 59.0024 45.7062C57.5327 46.9254 55.6832 47.5927 53.7737 47.5927C51.8641 47.5927 50.0146 46.9254 48.5449 45.7062C47.0752 44.487 46.0778 42.7926 45.7251 40.9159C45.7185 40.8812 45.7102 40.8469 45.7002 40.8128L45.2072 39.1172C45.1645 38.9004 45.0571 38.7017 44.8992 38.5471C44.7413 38.3926 44.5403 38.2895 44.3227 38.2514C44.1326 38.2176 43.9515 38.1452 43.7905 38.0387C43.6295 37.9321 43.4921 37.7937 43.3867 37.6319C43.2814 37.4701 43.2103 37.2884 43.178 37.0981C43.1456 36.9078 43.1527 36.7128 43.1987 36.5253C43.2274 36.4 43.2872 36.284 43.3725 36.1878C43.4578 36.0916 43.5658 36.0183 43.6868 35.9747C43.7288 35.9797 43.771 35.9823 43.8133 35.9825C44.9094 35.9813 45.9857 35.6903 46.9331 35.1391C47.8804 34.5879 48.6653 33.796 49.208 32.8438L49.8669 31.6855C52.3611 33.313 55.2739 34.1822 58.2521 34.1875H62.6308V34.8281C62.6308 35.1008 62.7327 35.3637 62.9164 35.5652C63.1002 35.7667 63.3526 35.8923 63.6241 35.9173C63.7939 35.9279 63.9558 35.9925 64.0863 36.1017C64.2167 36.2109 64.3087 36.3589 64.349 36.5242C64.3758 36.6346 64.3894 36.7478 64.3893 36.8614C64.39 37.193 64.2736 37.5142 64.0605 37.7683C63.8474 38.0224 63.5514 38.193 63.2247 38.25V38.2506ZM62.3376 28.228C62.5298 28.9828 62.9096 29.6768 63.4417 30.2457C63.9738 30.8146 64.641 31.2398 65.3813 31.482C65.2513 31.6437 65.0866 31.7741 64.8995 31.8637C64.7124 31.9533 64.5075 31.9997 64.3001 31.9997H58.2521C55.3312 31.995 52.4945 31.0205 50.1874 29.2291C50.0636 29.1326 49.9205 29.0639 49.7678 29.0277C49.615 28.9915 49.4563 28.9885 49.3024 29.0191C49.1484 29.0496 49.0029 29.113 48.8756 29.2048C48.7483 29.2966 48.6422 29.4147 48.5646 29.5511L47.3065 31.7625C46.7838 32.6792 45.9221 33.3541 44.9069 33.642V29.763C44.9096 27.4117 45.8449 25.1575 47.5075 23.4949C49.1701 21.8324 51.4243 20.8972 53.7755 20.8945C57.6438 20.8945 61.2446 23.9786 62.3376 28.228Z" fill="#C22032"/>
<path d="M33.0642 65.1562H26.1267C25.8366 65.1563 25.5584 65.2715 25.3533 65.4766C25.1482 65.6817 25.033 65.9599 25.033 66.25C25.033 66.5401 25.1482 66.8183 25.3533 67.0234C25.5584 67.2285 25.8366 67.3438 26.1267 67.3438H33.0642C33.3543 67.3438 33.6325 67.2285 33.8376 67.0234C34.0427 66.8183 34.158 66.5401 34.158 66.25C34.158 65.9599 34.0427 65.6817 33.8376 65.4766C33.6325 65.2715 33.3543 65.1562 33.0642 65.1562Z" fill="#C22032"/>
<path d="M15.908 25.1562H21.158C21.448 25.1562 21.7262 25.041 21.9314 24.8359C22.1365 24.6308 22.2517 24.3526 22.2517 24.0625C22.2517 23.7724 22.1365 23.4942 21.9314 23.2891C21.7262 23.084 21.448 22.9688 21.158 22.9688H15.908C15.6179 22.9688 15.3397 23.084 15.1346 23.2891C14.9294 23.4942 14.8142 23.7724 14.8142 24.0625C14.8142 24.3526 14.9294 24.6308 15.1346 24.8359C15.3397 25.041 15.6179 25.1562 15.908 25.1562Z" fill="#C22032"/>
<path d="M25.4705 25.1562H28.8455C29.1355 25.1562 29.4137 25.041 29.6189 24.8359C29.824 24.6308 29.9392 24.3526 29.9392 24.0625C29.9392 23.7724 29.824 23.4942 29.6189 23.2891C29.4137 23.084 29.1355 22.9688 28.8455 22.9688H25.4705C25.1804 22.9688 24.9022 23.084 24.6971 23.2891C24.4919 23.4942 24.3767 23.7724 24.3767 24.0625C24.3767 24.3526 24.4919 24.6308 24.6971 24.8359C24.9022 25.041 25.1804 25.1562 25.4705 25.1562Z" fill="#C22032"/>
<path d="M41.6748 22.9688H34.283C33.9929 22.9688 33.7147 23.084 33.5096 23.2891C33.3044 23.4942 33.1892 23.7724 33.1892 24.0625C33.1892 24.3526 33.3044 24.6308 33.5096 24.8359C33.7147 25.041 33.9929 25.1562 34.283 25.1562H41.6748C41.9649 25.1562 42.2431 25.041 42.4482 24.8359C42.6534 24.6308 42.7686 24.3526 42.7686 24.0625C42.7686 23.7724 42.6534 23.4942 42.4482 23.2891C42.2431 23.084 41.9649 22.9688 41.6748 22.9688Z" fill="#C22032"/>
<path d="M15.908 33.9062H24.908C25.198 33.9062 25.4762 33.791 25.6814 33.5859C25.8865 33.3808 26.0017 33.1026 26.0017 32.8125C26.0017 32.5224 25.8865 32.2442 25.6814 32.0391C25.4762 31.834 25.198 31.7188 24.908 31.7188H15.908C15.6179 31.7188 15.3397 31.834 15.1346 32.0391C14.9294 32.2442 14.8142 32.5224 14.8142 32.8125C14.8142 33.1026 14.9294 33.3808 15.1346 33.5859C15.3397 33.791 15.6179 33.9062 15.908 33.9062Z" fill="#C22032"/>
<path d="M28.1267 32.8125C28.1267 33.1026 28.2419 33.3808 28.4471 33.5859C28.6522 33.791 28.9304 33.9062 29.2205 33.9062H35.533C35.823 33.9062 36.1012 33.791 36.3064 33.5859C36.5115 33.3808 36.6267 33.1026 36.6267 32.8125C36.6267 32.5224 36.5115 32.2442 36.3064 32.0391C36.1012 31.834 35.823 31.7188 35.533 31.7188H29.2205C28.9304 31.7188 28.6522 31.834 28.4471 32.0391C28.2419 32.2442 28.1267 32.5224 28.1267 32.8125Z" fill="#C22032"/>
<path d="M15.908 42.6562H29.0955C29.3855 42.6562 29.6637 42.541 29.8689 42.3359C30.074 42.1308 30.1892 41.8526 30.1892 41.5625C30.1892 41.2724 30.074 40.9942 29.8689 40.7891C29.6637 40.584 29.3855 40.4688 29.0955 40.4688H15.908C15.6179 40.4688 15.3397 40.584 15.1346 40.7891C14.9294 40.9942 14.8142 41.2724 14.8142 41.5625C14.8142 41.8526 14.9294 42.1308 15.1346 42.3359C15.3397 42.541 15.6179 42.6562 15.908 42.6562Z" fill="#C22032"/>
<path d="M36.6267 41.5625C36.6267 41.2724 36.5115 40.9942 36.3064 40.7891C36.1012 40.584 35.823 40.4688 35.533 40.4688H33.408C33.1179 40.4688 32.8397 40.584 32.6346 40.7891C32.4294 40.9942 32.3142 41.2724 32.3142 41.5625C32.3142 41.8526 32.4294 42.1308 32.6346 42.3359C32.8397 42.541 33.1179 42.6562 33.408 42.6562H35.533C35.823 42.6562 36.1012 42.541 36.3064 42.3359C36.5115 42.1308 36.6267 41.8526 36.6267 41.5625Z" fill="#C22032"/>
<path d="M21.2827 49.2188H15.9077C15.6176 49.2188 15.3394 49.334 15.1343 49.5391C14.9292 49.7442 14.814 50.0224 14.814 50.3125C14.814 50.6026 14.9292 50.8808 15.1343 51.0859C15.3394 51.291 15.6176 51.4062 15.9077 51.4062H21.2827C21.5728 51.4062 21.851 51.291 22.0561 51.0859C22.2612 50.8808 22.3765 50.6026 22.3765 50.3125C22.3765 50.0224 22.2612 49.7442 22.0561 49.5391C21.851 49.334 21.5728 49.2188 21.2827 49.2188Z" fill="#C22032"/>
<path d="M35.5642 50.3125C35.5642 50.6026 35.6794 50.8808 35.8846 51.0859C36.0897 51.291 36.3679 51.4062 36.658 51.4062H43.3455C43.6355 51.4062 43.9137 51.291 44.1189 51.0859C44.324 50.8808 44.4392 50.6026 44.4392 50.3125C44.4392 50.0224 44.324 49.7442 44.1189 49.5391C43.9137 49.334 43.6355 49.2188 43.3455 49.2188H36.658C36.3679 49.2188 36.0897 49.334 35.8846 49.5391C35.6794 49.7442 35.5642 50.0224 35.5642 50.3125Z" fill="#C22032"/>
<path d="M33.064 49.2188H25.5952C25.3051 49.2188 25.0269 49.334 24.8218 49.5391C24.6167 49.7442 24.5015 50.0224 24.5015 50.3125C24.5015 50.6026 24.6167 50.8808 24.8218 51.0859C25.0269 51.291 25.3051 51.4062 25.5952 51.4062H33.064C33.354 51.4062 33.6322 51.291 33.8374 51.0859C34.0425 50.8808 34.1577 50.6026 34.1577 50.3125C34.1577 50.0224 34.0425 49.7442 33.8374 49.5391C33.6322 49.334 33.354 49.2188 33.064 49.2188Z" fill="#C22032"/>
</svg>
