<svg width="26" height="26" viewBox="0 0 26 26" fill="none" xmlns="http://www.w3.org/2000/svg">
<g clip-path="url(#clip0_1975_2302)">
<path d="M7.3749 0C7.61625 0 7.84771 0.0958747 8.01837 0.266533C8.18902 0.437191 8.2849 0.668653 8.2849 0.91V2.6117H18.057V0.9217C18.057 0.680353 18.1529 0.448891 18.3235 0.278233C18.4942 0.107575 18.7257 0.0117 18.967 0.0117C19.2083 0.0117 19.4398 0.107575 19.6105 0.278233C19.7811 0.448891 19.877 0.680353 19.877 0.9217V2.6117H23.4C24.0893 2.6117 24.7505 2.88545 25.238 3.37276C25.7256 3.86008 25.9997 4.52106 26 5.2104V23.4013C25.9997 24.0906 25.7256 24.7516 25.238 25.2389C24.7505 25.7263 24.0893 26 23.4 26H2.6C1.91066 26 1.24954 25.7263 0.761982 25.2389C0.274425 24.7516 0.000344669 24.0906 0 23.4013L0 5.2104C0.000344669 4.52106 0.274425 3.86008 0.761982 3.37276C1.24954 2.88545 1.91066 2.6117 2.6 2.6117H6.4649V0.9087C6.46524 0.667578 6.56127 0.43645 6.73189 0.266073C6.90251 0.095696 7.13378 -2.46042e-07 7.3749 0ZM1.82 10.0646V23.4013C1.82 23.5037 1.84018 23.6052 1.87937 23.6998C1.91857 23.7944 1.97603 23.8804 2.04846 23.9528C2.12089 24.0253 2.20687 24.0827 2.30151 24.1219C2.39614 24.1611 2.49757 24.1813 2.6 24.1813H23.4C23.5024 24.1813 23.6039 24.1611 23.6985 24.1219C23.7931 24.0827 23.8791 24.0253 23.9515 23.9528C24.024 23.8804 24.0814 23.7944 24.1206 23.6998C24.1598 23.6052 24.18 23.5037 24.18 23.4013V10.0828L1.82 10.0646ZM8.6671 19.0047V21.1705H6.5V19.0047H8.6671ZM14.0829 19.0047V21.1705H11.9171V19.0047H14.0829ZM19.5 19.0047V21.1705H17.3329V19.0047H19.5ZM8.6671 13.8346V16.0004H6.5V13.8346H8.6671ZM14.0829 13.8346V16.0004H11.9171V13.8346H14.0829ZM19.5 13.8346V16.0004H17.3329V13.8346H19.5ZM6.4649 4.4304H2.6C2.49757 4.4304 2.39614 4.45057 2.30151 4.48977C2.20687 4.52897 2.12089 4.58643 2.04846 4.65886C1.97603 4.73129 1.91857 4.81727 1.87937 4.91191C1.84018 5.00654 1.82 5.10797 1.82 5.2104V8.2459L24.18 8.2641V5.2104C24.18 5.10797 24.1598 5.00654 24.1206 4.91191C24.0814 4.81727 24.024 4.73129 23.9515 4.65886C23.8791 4.58643 23.7931 4.52897 23.6985 4.48977C23.6039 4.45057 23.5024 4.4304 23.4 4.4304H19.877V5.6381C19.877 5.87945 19.7811 6.11091 19.6105 6.28157C19.4398 6.45223 19.2083 6.5481 18.967 6.5481C18.7257 6.5481 18.4942 6.45223 18.3235 6.28157C18.1529 6.11091 18.057 5.87945 18.057 5.6381V4.4304H8.2849V5.6264C8.2849 5.86775 8.18902 6.09921 8.01837 6.26987C7.84771 6.44053 7.61625 6.5364 7.3749 6.5364C7.13355 6.5364 6.90209 6.44053 6.73143 6.26987C6.56077 6.09921 6.4649 5.86775 6.4649 5.6264V4.4304Z" fill="#B47CA8"/>
</g>
<defs>
<clipPath id="clip0_1975_2302">
<rect width="26" height="26" fill="white"/>
</clipPath>
</defs>
</svg>
