<?xml version="1.0" encoding="utf-8"?>
<!-- Generator: Adobe Illustrator 26.0.1, SVG Export Plug-In . SVG Version: 6.00 Build 0)  -->
<svg version="1.1" id="Layer_1" xmlns="http://www.w3.org/2000/svg" xmlns:xlink="http://www.w3.org/1999/xlink" x="0px" y="0px"
	 viewBox="0 0 70 70" style="enable-background:new 0 0 70 70;" xml:space="preserve">
<style type="text/css">
	.st0{fill-rule:evenodd;clip-rule:evenodd;fill:#C22032;}
	.st1{fill:#FFFFFF;}
</style>
<g>
	<path class="st0" d="M66.75,50.64c0,0.35-0.01,1.1-0.03,1.68c-0.05,1.43-0.16,3.26-0.34,4.1c-0.26,1.26-0.64,2.45-1.15,3.44
		c-1.18,2.32-3.07,4.21-5.39,5.38c-0.99,0.51-2.19,0.9-3.46,1.15c-0.83,0.17-2.66,0.28-4.07,0.33c-0.58,0.02-1.34,0.03-1.68,0.03
		l-31.27-0.01c-0.35,0-1.1-0.01-1.68-0.03c-1.43-0.05-3.26-0.16-4.1-0.34c-1.26-0.26-2.45-0.64-3.44-1.15
		c-2.32-1.18-4.21-3.07-5.38-5.39c-0.51-0.99-0.89-2.19-1.15-3.46c-0.17-0.83-0.28-2.66-0.33-4.07c-0.02-0.58-0.03-1.34-0.03-1.68
		l0.01-31.27c0-0.35,0.01-1.1,0.03-1.68c0.05-1.43,0.16-3.26,0.33-4.1c0.26-1.26,0.64-2.45,1.15-3.44c1.18-2.32,3.07-4.21,5.39-5.38
		c0.99-0.51,2.19-0.89,3.46-1.15c0.83-0.17,2.66-0.28,4.07-0.33c0.58-0.02,1.34-0.03,1.68-0.03l31.27,0.01
		c0.35,0,1.1,0.01,1.68,0.03c1.43,0.05,3.26,0.16,4.1,0.33c1.26,0.26,2.45,0.64,3.44,1.15c2.32,1.18,4.21,3.07,5.38,5.39
		c0.51,0.99,0.9,2.19,1.15,3.46c0.17,0.83,0.28,2.66,0.33,4.07c0.02,0.58,0.03,1.34,0.03,1.68L66.75,50.64z"/>
	<path class="st1" d="M35.27,16.19c-2.49-0.04-4.97,0.43-7.28,1.35s-4.42,2.31-6.19,4.06c-1.78,1.75-3.18,3.84-4.15,6.14
		c-0.96,2.3-1.46,4.77-1.46,7.26s0.5,4.96,1.46,7.26c0.96,2.3,2.37,4.39,4.15,6.14c1.78,1.75,3.88,3.13,6.19,4.06
		c2.31,0.93,4.79,1.39,7.28,1.35c4.94-0.07,9.66-2.08,13.13-5.6c3.47-3.52,5.42-8.26,5.42-13.21c0-4.94-1.95-9.69-5.42-13.21
		C44.93,18.27,40.21,16.26,35.27,16.19z M20.22,35c-0.03-2,0.33-3.98,1.08-5.83c0.74-1.85,1.85-3.54,3.25-4.96
		c1.4-1.42,3.07-2.55,4.91-3.32c1.84-0.77,3.82-1.17,5.81-1.17c2,0,3.97,0.4,5.81,1.17c1.84,0.77,3.51,1.9,4.91,3.32
		c1.4,1.42,2.5,3.11,3.25,4.96c0.74,1.85,1.11,3.84,1.08,5.83c-0.06,3.95-1.68,7.72-4.49,10.49c-2.82,2.77-6.61,4.32-10.56,4.32
		s-7.74-1.55-10.56-4.32C21.89,42.72,20.28,38.95,20.22,35z M27.75,35.01c0-0.5,0.2-0.98,0.55-1.33c0.35-0.35,0.83-0.55,1.33-0.55
		h11.29c0.5,0,0.98,0.2,1.33,0.55c0.35,0.35,0.55,0.83,0.55,1.33c0,0.5-0.2,0.98-0.55,1.33c-0.35,0.35-0.83,0.55-1.33,0.55H29.63
		c-0.5,0-0.98-0.2-1.33-0.55C27.94,35.99,27.75,35.51,27.75,35.01z"/>
</g>
</svg>
