<svg width="56" height="52" viewBox="0 0 56 52" fill="none" xmlns="http://www.w3.org/2000/svg">
<mask id="mask0_1137_1587" style="mask-type:luminance" maskUnits="userSpaceOnUse" x="0" y="0" width="56" height="52">
<path d="M0 3.8147e-06H56V52H0V3.8147e-06Z" fill="white"/>
</mask>
<g mask="url(#mask0_1137_1587)">
<path d="M6.8334 30.8347L0.852337 15.3959C0.749634 15.1268 0.902212 14.8289 1.19195 14.7306C4.35682 13.675 7.65885 12.6424 10.9921 11.6013M42.7131 41.776L23.6051 48.1534L15.2192 50.9531C14.9296 51.0515 14.6086 50.9097 14.5028 50.6408L8.09187 34.0826" stroke="#B07AE6" stroke-width="1.25977" stroke-miterlimit="10" stroke-linecap="round" stroke-linejoin="round"/>
<path d="M46.4917 41.1746L26.6486 44.333L17.8639 45.7328C17.5618 45.7791 17.269 45.5882 17.216 45.3076L13.9732 27.7373L10.4002 8.3939C10.3472 8.11055 10.5528 7.84151 10.8549 7.79235L20.8669 6.19874" stroke="#B07AE6" stroke-width="1.25977" stroke-miterlimit="10" stroke-linecap="round" stroke-linejoin="round"/>
<path d="M20.8669 22.0334V1.55631C20.8669 1.25843 21.1287 1.01549 21.4495 1.01549H47.4948H47.9309C48.1084 1.01549 48.1583 1.08201 48.4605 1.34811L54.8495 7.00534C55.1081 7.23965 55.1797 7.26565 55.1797 7.42185V7.75731V31.8931V40.6306C55.1797 40.9284 54.9181 41.1743 54.5973 41.1743H30.7481H21.4495C21.1287 41.1743 20.8669 40.9284 20.8669 40.6306V25.5677" stroke="#B07AE6" stroke-width="1.25977" stroke-miterlimit="10" stroke-linecap="round" stroke-linejoin="round"/>
<path d="M47.4946 1.01575L47.5071 6.38089C47.5071 7.58116 48.6909 7.5059 49.2608 7.5059H55.1795" stroke="#B07AE6" stroke-width="1.25977" stroke-miterlimit="10" stroke-linecap="round" stroke-linejoin="round"/>
<path d="M49.915 12.0813H26.4614" stroke="#B07AE6" stroke-width="1.25977" stroke-miterlimit="10" stroke-linecap="round" stroke-linejoin="round"/>
<path d="M49.915 17.4927H26.4614" stroke="#B07AE6" stroke-width="1.25977" stroke-miterlimit="10" stroke-linecap="round" stroke-linejoin="round"/>
<path d="M49.915 22.9041H26.4614" stroke="#B07AE6" stroke-width="1.25977" stroke-miterlimit="10" stroke-linecap="round" stroke-linejoin="round"/>
<path d="M49.915 28.3154H26.4614" stroke="#B07AE6" stroke-width="1.25977" stroke-miterlimit="10" stroke-linecap="round" stroke-linejoin="round"/>
<path d="M49.915 33.7271H26.4614" stroke="#B07AE6" stroke-width="1.25977" stroke-miterlimit="10" stroke-linecap="round" stroke-linejoin="round"/>
</g>
</svg>
