<?xml version="1.0" encoding="utf-8"?>
<!-- Generator: Adobe Illustrator 26.0.1, SVG Export Plug-In . SVG Version: 6.00 Build 0)  -->
<svg version="1.1" id="Layer_1" xmlns="http://www.w3.org/2000/svg" xmlns:xlink="http://www.w3.org/1999/xlink" x="0px" y="0px"
	 width="70" height="70" viewBox="0 0 70 70" style="enable-background:new 0 0 70 70;" xml:space="preserve">
<style type="text/css">
	.st0{fill:none;stroke:#9E7DB8;stroke-width:1.5;stroke-miterlimit:10;}
	.st1{fill:none;stroke:#9E7DB8;stroke-width:1.5;stroke-linecap:round;stroke-miterlimit:10;}
	.st2{fill:none;stroke:#9E7DB8;stroke-width:1.2598;stroke-linecap:round;stroke-linejoin:round;stroke-miterlimit:10;}
</style>
<g>
	<polygon class="st0" points="62.2,49.8 28,49.8 28,10 54.6,10 62.2,16.9 	"/>
	<path class="st0" d="M54.6,10v5.5c0,0.5,0.4,1,1,1H62"/>
	<line class="st1" x1="33.5" y1="21.2" x2="56.9" y2="21.2"/>
	<line class="st1" x1="33.5" y1="26.6" x2="56.9" y2="26.6"/>
	<line class="st1" x1="33.5" y1="32" x2="56.9" y2="32"/>
	<line class="st1" x1="33.5" y1="37.4" x2="56.9" y2="37.4"/>
	<line class="st1" x1="33.5" y1="42.8" x2="56.9" y2="42.8"/>
	<polyline class="st1" points="27.8,15.3 17.1,17.1 24,55 52.6,49.8 	"/>
	<polyline class="st1" points="17.7,20.9 7.8,24.2 13.9,40 	"/>
	<polyline class="st2" points="14.8,42.4 21.7,60 51.6,49.8 	"/>
</g>
</svg>
