<svg width="80" height="80" viewBox="0 0 80 80" fill="none" xmlns="http://www.w3.org/2000/svg">
<circle cx="40" cy="40" r="40" fill="#C22032"/>
<rect x="22.7899" y="23.0427" width="34.4197" height="34.1708" rx="2.92601" stroke="white" stroke-width="1.95067"/>
<path d="M45.3869 36.0719H43.237V29.3111C43.237 28.5675 42.6285 27.959 41.8848 27.959H36.4762C35.7325 27.959 35.124 28.5675 35.124 29.3111V36.0719H32.9741C31.7707 36.0719 31.1622 37.5323 32.0141 38.3841L38.2205 44.5906C38.7478 45.1179 39.5997 45.1179 40.127 44.5906L46.3334 38.3841C47.1853 37.5323 46.5903 36.0719 45.3869 36.0719ZM29.7154 49.5936C29.7154 50.3372 30.3239 50.9457 31.0675 50.9457H47.2935C48.0372 50.9457 48.6456 50.3372 48.6456 49.5936C48.6456 48.8499 48.0372 48.2414 47.2935 48.2414H31.0675C30.3239 48.2414 29.7154 48.8499 29.7154 49.5936Z" fill="white"/>
</svg>
