<svg width="80" height="80" viewBox="0 0 80 80" fill="none" xmlns="http://www.w3.org/2000/svg">
<circle cx="40" cy="40.001" r="40" fill="#C22032"/>
<path d="M40.0001 59.8752C50.9769 59.8752 59.8747 50.9774 59.8747 40.0006C59.8747 29.0238 50.9769 20.126 40.0001 20.126C29.0234 20.126 20.1255 29.0238 20.1255 40.0006C20.1255 50.9774 29.0234 59.8752 40.0001 59.8752Z" stroke="white" stroke-width="2.98119" stroke-linecap="round" stroke-linejoin="round"/>
<path d="M21.1192 40.9942L32.0503 44.9691L30.0628 51.9252L32.0503 57.8876M49.9375 56.8939L48.9437 51.9252L43.9751 49.9378V42.9816L49.9375 40.9942L58.881 41.9879M53.9124 27.0819L52.9186 30.0631L45.9625 31.0569V37.0193L50.9312 35.0318H54.9061L58.881 37.0193M21.1192 37.0193L26.0879 33.0443L31.0566 32.0506L35.0315 26.0882L33.044 22.1133" stroke="white" stroke-width="2.98119" stroke-linecap="round" stroke-linejoin="round"/>
</svg>
