<svg width="94" height="103" viewBox="0 0 94 103" fill="none" xmlns="http://www.w3.org/2000/svg">
<path d="M25.1068 66.0549C24.9217 66.3681 24.6654 66.6244 24.3095 66.8094C23.9536 66.9945 23.5408 67.0942 23.0425 67.0942H22.2737V69.0445H20.3518V62.8944H23.0425C23.797 62.8944 24.3665 63.0795 24.7793 63.4639C25.178 63.8483 25.3773 64.3608 25.3773 65.0014C25.3773 65.3858 25.2776 65.7417 25.1068 66.0549ZM23.4269 65.0014C23.4269 64.6313 23.2276 64.4319 22.8289 64.4319H22.288V65.5566H22.8289C23.2276 65.5566 23.4269 65.3715 23.4269 65.0014Z" fill="#C22032"/>
<path d="M25.9892 65.2434C26.1601 64.8591 26.4021 64.5743 26.7153 64.375C27.0285 64.1757 27.3702 64.076 27.7546 64.076C28.0678 64.076 28.3525 64.1472 28.5803 64.2754C28.8081 64.4035 28.9931 64.5886 29.107 64.8163V64.1472H31.0289V69.0446H29.107V68.3755C28.9931 68.6032 28.8081 68.7741 28.5803 68.9164C28.3525 69.0446 28.0678 69.1157 27.7546 69.1157C27.3702 69.1157 27.0285 69.0161 26.7153 68.8168C26.4021 68.6175 26.1601 68.3327 25.9892 67.9484C25.8184 67.564 25.7188 67.1226 25.7188 66.6101C25.7188 66.0976 25.8042 65.6278 25.9892 65.2434ZM28.8935 65.9837C28.7653 65.8414 28.5945 65.7702 28.381 65.7702C28.1674 65.7702 27.9966 65.8414 27.8685 65.9837C27.7403 66.1261 27.6691 66.3254 27.6691 66.5959C27.6691 66.8664 27.7403 67.0657 27.8685 67.2081C27.9966 67.3504 28.1674 67.4216 28.381 67.4216C28.5945 67.4216 28.7653 67.3504 28.8935 67.2081C29.0216 67.0657 29.0928 66.8664 29.0928 66.5959C29.0928 66.3254 29.0358 66.1261 28.8935 65.9837Z" fill="#C22032"/>
<path d="M37.4069 64.1329L34.2748 71.3651H32.1678L33.4064 68.774L31.3706 64.1187H33.5203L34.4457 66.5959L35.2999 64.1187H37.4069V64.1329Z" fill="#C22032"/>
<path d="M14.6389 23.0165V10.3055C14.6389 5.71219 18.3511 2 22.93 2H62.1897C66.783 2 70.4951 5.71219 70.4951 10.3055V23.0165" stroke="#C22032" stroke-width="2.50251" stroke-miterlimit="10"/>
<path d="M70.4951 79.9994V93.2737C70.4951 97.8526 66.783 101.579 62.1897 101.579H22.93C18.3511 101.579 14.6389 97.8526 14.6389 93.2737V79.9994" stroke="#C22032" stroke-width="2.50251" stroke-miterlimit="10"/>
<path d="M14.0957 85.6616H70.5097" stroke="#C22032" stroke-width="2.50251" stroke-miterlimit="10"/>
<path d="M41.4042 97.9826C43.8214 97.9826 45.7809 96.0231 45.7809 93.6059C45.7809 91.1888 43.8214 89.2293 41.4042 89.2293C38.9871 89.2293 37.0276 91.1888 37.0276 93.6059C37.0276 96.0231 38.9871 97.9826 41.4042 97.9826Z" fill="#C22032"/>
<path d="M14.6389 17.311H70.5096" stroke="#C22032" stroke-width="2.50251" stroke-miterlimit="10"/>
<path d="M35.511 9.55438H49.6231" stroke="#C22032" stroke-width="2.50251" stroke-miterlimit="10" stroke-linecap="round"/>
<path d="M83.1341 62.0451V31.1631C83.1341 28.7509 81.1841 26.8009 78.7719 26.8009H6.36243C3.95023 26.8009 2.00024 28.7509 2.00024 31.1631V63.504C2.00024 65.9162 3.95023 67.8661 6.36243 67.8661H12.7902" stroke="#C22032" stroke-width="2.50251" stroke-miterlimit="10"/>
<path d="M43.5854 67.8661H58.5209" stroke="#C22032" stroke-width="2.50251" stroke-miterlimit="10"/>
<path d="M30.9033 34.7598H73.6152" stroke="#C22032" stroke-width="2.50251" stroke-miterlimit="10" stroke-linecap="round"/>
<path d="M30.9033 43.7008H73.6152" stroke="#C22032" stroke-width="2.50251" stroke-miterlimit="10" stroke-linecap="round"/>
<path d="M30.9033 51.6307H50.8221" stroke="#C22032" stroke-width="2.50251" stroke-miterlimit="10" stroke-linecap="round"/>
<path d="M35.0634 75.6083H21.3268C16.618 75.6083 12.8047 71.795 12.8047 67.0862C12.8047 62.3773 16.618 58.564 21.3268 58.564H35.0634C39.7723 58.564 43.5856 62.3773 43.5856 67.0862C43.5856 71.7806 39.7723 75.6083 35.0634 75.6083Z" stroke="#C22032" stroke-width="2.50251" stroke-miterlimit="10"/>
<path d="M11.8367 34.6152C11.8367 34.6152 22.8433 34.6152 22.8433 34.6441C22.1933 35.6408 21.8322 36.1752 21.7455 36.2474H18.8133C19.2178 36.7241 19.4922 37.3019 19.6366 37.9808H22.7711C22.8144 37.9952 22.8288 38.0097 22.8288 38.0241C22.1211 39.0785 21.7744 39.5985 21.76 39.5985H19.7233C19.68 40.133 19.42 40.7974 18.9433 41.5485C18.3222 42.3141 17.7155 42.8196 17.1522 43.0507C16.0833 43.5563 15.0578 43.8163 14.09 43.8452C14.09 43.9174 16.3 46.5462 20.7055 51.7029H17.7878C13.4834 46.6907 11.3456 44.1774 11.3456 44.1629V42.6463V42.5307C11.7211 42.5885 12.1978 42.6607 12.7034 42.6607C15.1156 42.6607 16.6033 41.8807 17.1955 40.3207C17.2822 40.0896 17.3255 39.8585 17.3255 39.613C17.2967 39.613 17.2678 39.613 17.2244 39.613C17.1378 39.613 17.0511 39.613 16.9644 39.613C16.8344 39.613 16.69 39.613 16.56 39.613C16.3867 39.613 16.2133 39.613 16.04 39.613C15.8378 39.613 15.6356 39.613 15.4333 39.613C15.2167 39.613 14.9856 39.613 14.7689 39.613C14.5378 39.613 14.3067 39.613 14.0756 39.613C13.8445 39.613 13.6133 39.613 13.3822 39.613C13.1656 39.613 12.9345 39.613 12.7178 39.613C12.5156 39.613 12.3134 39.613 12.1111 39.613C11.9378 39.613 11.7645 39.613 11.5911 39.613C11.4611 39.613 11.3167 39.613 11.1867 39.613C11.1 39.613 11.0134 39.613 10.9267 39.613C10.8978 39.613 10.8545 39.613 10.8256 39.613C10.7678 39.5985 10.7967 39.5408 10.8256 39.5119C11.0278 39.2519 11.2156 38.963 11.4034 38.6885C11.5334 38.5008 11.6489 38.3274 11.7789 38.1396C11.8078 38.0963 11.8367 38.0674 11.8656 38.0241L11.8945 37.9808C11.8945 37.9808 17.08 37.9808 17.08 37.9519C16.7767 37.3452 16.2133 36.883 15.3467 36.5508C14.74 36.3486 14.1911 36.2474 13.7 36.2474H10.7967V36.1897C11.4467 35.1352 11.8078 34.6152 11.8367 34.6152Z" fill="#C22032"/>
<path d="M92.2048 82.5993L87.8427 86.9615C87.0771 87.727 85.7482 87.6548 84.8816 86.7882L60.6006 62.4928L59.2573 54.2162L67.7506 55.3428L92.046 79.6382C92.8982 80.5049 92.9704 81.8338 92.2048 82.5993Z" stroke="#C22032" stroke-width="2.50251" stroke-miterlimit="10"/>
<path d="M81.5881 83.9138L88.9403 76.5616" stroke="#C22032" stroke-width="2.50251" stroke-miterlimit="10"/>
<path d="M60.6729 62.9984L68.025 55.6318" stroke="#C22032" stroke-width="2.50251" stroke-miterlimit="10"/>
</svg>
