<?xml version="1.0" encoding="utf-8"?>
<!-- Generator: Adobe Illustrator 26.0.1, SVG Export Plug-In . SVG Version: 6.00 Build 0)  -->
<svg version="1.1" id="Layer_1" xmlns="http://www.w3.org/2000/svg" xmlns:xlink="http://www.w3.org/1999/xlink" x="0px" y="0px" width="90" height="90"
	 viewBox="0 0 90 90" style="enable-background:new 0 0 90 90;" xml:space="preserve">
<style type="text/css">
	.st0{fill:#C22033;}
	.st1{fill:none;stroke:#C22033;stroke-width:1.5;stroke-linecap:round;stroke-miterlimit:10;}
	.st2{fill:none;stroke:#C22033;stroke-width:1.5;stroke-miterlimit:10;}
	.st3{fill:none;stroke:#C32035;stroke-miterlimit:10;}
</style>
<path class="st0" d="M26.1,57.1c-0.2,0.3-0.4,0.5-0.7,0.6c-0.3,0.2-0.7,0.2-1.1,0.2h-0.7v1.7H22v-5.2h2.3c0.6,0,1.1,0.2,1.5,0.5
	c0.3,0.3,0.5,0.8,0.5,1.3C26.3,56.5,26.2,56.8,26.1,57.1z M24.7,56.2c0-0.3-0.2-0.5-0.5-0.5h-0.5v1h0.5
	C24.5,56.6,24.7,56.5,24.7,56.2z"/>
<path class="st0" d="M26.8,56.4c0.1-0.3,0.4-0.6,0.6-0.7c0.3-0.2,0.6-0.3,0.9-0.3c0.3,0,0.5,0.1,0.7,0.2c0.2,0.1,0.4,0.3,0.4,0.5
	v-0.6h1.6v4.2h-1.6V59c-0.1,0.2-0.3,0.3-0.4,0.5c-0.2,0.1-0.4,0.2-0.7,0.2c-0.3,0-0.6-0.1-0.9-0.3c-0.3-0.2-0.5-0.4-0.6-0.7
	c-0.1-0.3-0.2-0.7-0.2-1.1S26.7,56.7,26.8,56.4z M29.3,57c-0.1-0.1-0.3-0.2-0.4-0.2c-0.2,0-0.3,0.1-0.4,0.2
	c-0.1,0.1-0.2,0.3-0.2,0.5c0,0.2,0.1,0.4,0.2,0.5c0.1,0.1,0.3,0.2,0.4,0.2c0.2,0,0.3-0.1,0.4-0.2c0.1-0.1,0.2-0.3,0.2-0.5
	C29.5,57.3,29.4,57.1,29.3,57z"/>
<path class="st0" d="M36.5,55.4l-2.7,6.1h-1.8l1.1-2.2l-1.7-4h1.8l0.8,2.1l0.7-2.1L36.5,55.4L36.5,55.4z"/>
<path class="st1" d="M17.2,20.5V9.7c0-3.9,3.2-7.1,7-7.1h33.4c3.9,0,7.1,3.2,7.1,7.1v10.8"/>
<path class="st1" d="M64.6,68.9v11.3c0,3.9-3.2,7.1-7.1,7.1H24.2c-3.9,0-7-3.2-7-7.1V68.9"/>
<path class="st1" d="M17.2,73.7h47.5"/>
<path class="st0" d="M39.9,83.9c1.9,0,3.4-1.5,3.4-3.4c0-1.9-1.5-3.4-3.4-3.4c-1.9,0-3.4,1.5-3.4,3.4C36.5,82.3,38.1,83.9,39.9,83.9
	z"/>
<path class="st2" d="M17.2,15.6h47.5"/>
<path class="st1" d="M34.9,9.1h12"/>
<path class="st1" d="M75.4,53.6V27.4c0-2-1.7-3.7-3.7-3.7H10.2c-2,0-3.7,1.7-3.7,3.7v27.5c0,2,1.7,3.7,3.7,3.7h5.5"/>
<path class="st1" d="M41.8,58.6h12.7"/>
<path class="st1" d="M31,30.5h36.3"/>
<path class="st1" d="M31,38.1h36.3"/>
<path class="st1" d="M31,44.8h16.9"/>
<path class="st1" d="M34.5,65.2H22.9c-4,0-7.2-3.2-7.2-7.2c0-4,3.2-7.2,7.2-7.2h11.7c4,0,7.2,3.2,7.2,7.2
	C41.8,61.9,38.5,65.2,34.5,65.2z"/>
<path class="st0" d="M14.8,30.3c0,0,9.4,0,9.4,0c-0.6,0.8-0.9,1.3-0.9,1.4h-2.5c0.3,0.4,0.6,0.9,0.7,1.5h2.7c0,0,0,0,0,0
	c-0.6,0.9-0.9,1.3-0.9,1.3h-1.7c0,0.5-0.3,1-0.7,1.7c-0.5,0.7-1,1.1-1.5,1.3c-0.9,0.4-1.8,0.7-2.6,0.7c0,0.1,1.9,2.3,5.6,6.7h-2.5
	c-3.7-4.3-5.5-6.4-5.5-6.4v-1.3v-0.1c0.3,0,0.7,0.1,1.2,0.1c2,0,3.3-0.7,3.8-2c0.1-0.2,0.1-0.4,0.1-0.6c0,0,0,0-0.1,0
	c-0.1,0-0.1,0-0.2,0c-0.1,0-0.2,0-0.3,0c-0.1,0-0.3,0-0.4,0c-0.2,0-0.3,0-0.5,0c-0.2,0-0.4,0-0.6,0c-0.2,0-0.4,0-0.6,0s-0.4,0-0.6,0
	c-0.2,0-0.4,0-0.6,0c-0.2,0-0.3,0-0.5,0c-0.1,0-0.3,0-0.4,0c-0.1,0-0.2,0-0.3,0c-0.1,0-0.1,0-0.2,0c0,0-0.1,0-0.1,0c0,0,0-0.1,0-0.1
	c0.2-0.2,0.3-0.5,0.5-0.7c0.1-0.2,0.2-0.3,0.3-0.5c0,0,0-0.1,0.1-0.1l0,0c0,0,4.4,0,4.4,0c-0.3-0.5-0.7-0.9-1.5-1.2
	c-0.5-0.2-1-0.3-1.4-0.3h-2.5v0C14.5,30.8,14.8,30.3,14.8,30.3z"/>
<path class="st1" d="M83.1,71.1l-3.7,3.7c-0.7,0.7-1.8,0.6-2.5-0.1L56.2,54l-1.1-7l7.2,1L83,68.6C83.7,69.3,83.7,70.5,83.1,71.1z"/>
<path class="st3" d="M74.1,72.2l6.2-6.2"/>
<path class="st1" d="M56.3,54.5l6.2-6.3"/>
</svg>
