<svg width="120" height="128" viewBox="0 0 120 128" fill="none" xmlns="http://www.w3.org/2000/svg">
<path d="M50.6495 0C56.7014 0 62.771 0 68.8228 0C69.2475 0.849385 69.9023 1.66338 70.0438 2.54816C70.4862 5.46792 70.6632 8.42307 71.1056 11.3428C71.194 11.9268 71.8665 12.6523 72.4504 12.9177C76.2019 14.5811 79.971 16.1737 83.7756 17.6955C84.2179 17.8725 84.9965 17.7486 85.3858 17.4655C87.9517 15.5367 90.4291 13.5017 92.9949 11.5552C94.1274 10.6881 95.4192 10.6704 96.4455 11.6967C100.179 15.3597 103.878 19.0404 107.523 22.7918C108.39 23.6766 108.638 24.756 107.735 25.9239C105.523 28.7906 103.364 31.6927 101.4 34.2939C103.064 38.7001 104.656 42.9824 106.337 47.2293C106.514 47.654 107.187 48.0964 107.665 48.1672C110.531 48.5565 113.433 48.8042 116.318 49.1936C118.636 49.5121 119.538 49.5475 119.503 52.4672C119.45 57.0504 119.414 61.6335 119.521 66.1989C119.591 69.685 118.388 69.8265 115.539 70.1804C112.708 70.5343 109.876 70.8175 107.063 71.1891C106.78 71.2245 106.39 71.5784 106.32 71.8615C105.187 76.2854 103.488 80.4792 101.046 84.4076C103.152 87.0797 105.223 89.734 107.311 92.3706C108.638 94.0517 108.567 95.2196 107.01 96.7768C103.577 100.21 100.162 103.643 96.7287 107.058C95.1184 108.668 94.7645 108.739 92.8887 107.359C89.8451 105.129 86.8192 102.864 83.864 100.511C83.1916 99.9797 82.5546 98.9887 82.5192 98.1924C82.5015 97.6262 83.5101 96.5998 84.1295 96.5468C84.9965 96.4583 86.0583 96.9007 86.8015 97.4492C89.3496 99.2896 91.7916 101.289 94.1805 103.129C97.2241 100.086 100.179 97.1307 103.205 94.1048C101.259 91.5212 99.1883 88.6899 97.0118 85.9648C96.1093 84.8323 96.3748 83.9299 97.0295 82.8681C99.7015 78.6035 101.595 74.0027 102.727 69.101C103.064 67.6854 103.895 67.4022 105.063 67.2607C108.443 66.8183 111.823 66.3582 115.256 65.8981C115.256 61.7043 115.256 57.6697 115.256 53.4228C113.964 53.1927 112.602 52.9096 111.221 52.7327C109.186 52.4672 107.116 52.3257 105.081 52.0602C103.931 51.901 103.081 51.3347 102.745 50.0606C101.453 45.1059 99.8077 40.275 96.8702 36.0281C95.8616 34.5594 96.6048 33.4445 97.4188 32.3828C99.3653 29.8346 101.4 27.3396 103.347 24.8976C100.339 21.8894 97.3657 18.9165 94.3575 15.8906C91.7916 17.8725 89.1019 19.8721 86.5007 21.9778C85.3328 22.9157 84.2533 22.9157 83.05 22.1902C78.9801 19.7128 74.6447 17.8548 69.973 16.8284C68.0619 16.4037 67.3718 15.4836 67.1948 13.5902C66.8763 10.4404 66.4516 7.30825 66.0623 4.05227C61.957 4.05227 57.8339 4.05227 53.4454 4.05227C53.1977 5.36174 52.8792 6.75969 52.6845 8.19303C52.4191 10.228 52.2598 12.2807 52.0121 14.3334C51.8351 15.8552 50.7734 16.5276 49.4285 16.8107C44.7569 17.8194 40.4038 19.5712 36.3869 22.2079C35.4137 22.8449 34.2989 22.9865 33.1664 22.1017C30.4589 19.9605 27.6454 17.9256 24.9733 15.926C21.9828 18.9165 19.0276 21.8894 16.0017 24.8976C17.9305 27.3573 20.0363 29.9585 22.0359 32.6305C22.8853 33.7631 23.1153 34.8248 22.1421 36.3112C19.5762 40.2573 17.8243 44.6104 16.7626 49.2112C16.2671 51.3701 15.4708 51.9187 13.2235 52.0956C10.4453 52.308 7.66712 52.6973 4.90661 53.1043C4.62349 53.1396 4.25188 53.8829 4.23418 54.3076C4.1811 58.0767 4.19879 61.8458 4.19879 65.8804C5.54365 66.1282 6.90621 66.429 8.26876 66.6059C10.3037 66.8714 12.3564 67.1014 14.4091 67.243C15.8424 67.3492 16.4618 68.2693 16.7095 69.4549C17.4704 73.2241 18.8684 76.7455 20.6379 80.1253C21.1511 81.0986 21.682 82.0541 22.3013 82.9566C23.0091 84.0006 23.133 84.8854 22.2836 85.9471C20.1425 88.6722 18.0721 91.4681 16.0371 94.1579C18.9569 97.0599 21.9474 100.033 25.0618 103.147C27.1676 101.537 29.4149 99.8381 31.6445 98.104C32.1931 97.6793 32.7063 97.2369 33.2548 96.8299C34.3166 96.0336 35.396 96.2636 36.2808 97.0068C37.024 97.6262 36.7586 99.5373 35.8915 100.21C32.5647 102.758 29.1849 105.253 25.8581 107.819C24.9026 108.544 24.1947 108.509 23.3807 107.66C19.47 103.713 15.5593 99.785 11.5955 95.892C10.5869 94.9011 10.7992 93.9809 11.4717 93.0784C13.6482 90.1764 15.8778 87.3274 17.8066 84.8146C16.1433 80.4792 14.533 76.4446 13.0289 72.357C12.6749 71.366 12.091 71.2068 11.1885 71.1006C8.05642 70.729 4.9597 70.1981 1.82759 69.8442C0.323475 69.685 0.0049547 68.7294 0.0049547 67.5438C-0.0127408 61.8282 0.0226506 56.1302 0.0226506 50.4145C0.0934327 50.3084 0.181911 50.1845 0.252693 50.0783C0.925122 49.7598 1.57986 49.2643 2.28768 49.1582C5.20744 48.7512 8.16259 48.4857 11.0824 48.1495C12.2149 48.0256 12.7988 47.3532 13.2235 46.2738C14.6568 42.6108 16.2317 39.0009 17.7005 35.3556C17.8597 34.984 17.8243 34.3293 17.5943 34.0285C15.6124 31.3211 13.5774 28.649 11.5424 25.977C10.6754 24.8268 10.693 23.889 11.8079 22.8095C15.4001 19.3235 18.9038 15.749 22.4429 12.2099C23.9647 10.6881 24.9733 10.4934 26.6013 11.6967C29.3441 13.7494 31.9808 15.9083 34.7413 18.0848C38.6697 15.8021 42.8458 13.9972 47.2874 12.8646C47.6236 12.7762 48.0129 12.2276 48.0483 11.856C48.4199 8.98932 48.6853 6.08726 49.0746 3.22059C49.2516 2.05268 49.11 0.601648 50.6495 0Z" fill="#818181"/>
<path d="M101.011 51.5293C100.534 50.7153 99.4895 50.4321 98.6578 50.9099L87.5981 57.298C86.7841 57.7758 86.501 58.8198 86.9788 59.6515C87.2973 60.2001 87.8812 60.5009 88.4652 60.5009C88.766 60.5009 89.0491 60.4301 89.3146 60.2709L100.374 53.8828C101.206 53.405 101.489 52.3433 101.011 51.5293Z" fill="#F6E012"/>
<path d="M83.5993 34.117C82.7853 33.6392 81.7235 33.9223 81.2458 34.7363L74.8577 45.796C74.3799 46.61 74.663 47.6717 75.477 48.1495C75.7425 48.3088 76.0433 48.3795 76.3264 48.3795C76.9281 48.3795 77.4943 48.0787 77.8128 47.5125L84.2009 36.4528C84.6964 35.6388 84.431 34.5947 83.5993 34.117Z" fill="#F6E012"/>
<path d="M31.9994 57.298L20.9397 50.9099C20.1257 50.4321 19.064 50.7153 18.5862 51.5293C18.1084 52.3433 18.3915 53.405 19.2055 53.8828L30.2652 60.2709C30.5307 60.4301 30.8315 60.5009 31.1146 60.5009C31.7163 60.5009 32.2825 60.2001 32.601 59.6515C33.1142 58.8198 32.8311 57.7581 31.9994 57.298Z" fill="#F6E012"/>
<path d="M44.7395 45.8137L38.3514 34.754C37.8737 33.9224 36.8296 33.6569 35.9979 34.117C35.1663 34.5948 34.9008 35.6388 35.3609 36.4705L41.749 47.5302C42.0675 48.0788 42.6515 48.3973 43.2354 48.3973C43.5362 48.3973 43.8194 48.3265 44.0848 48.1672C44.9342 47.6718 45.2173 46.6277 44.7395 45.8137Z" fill="#F6E012"/>
<path d="M59.8161 27.7288C58.8605 27.7288 58.0996 28.4897 58.0996 29.4452V42.2214C58.0996 43.1769 58.8605 43.9379 59.8161 43.9379C60.7716 43.9379 61.5325 43.1769 61.5325 42.2214V29.4452C61.5325 28.5074 60.7539 27.7288 59.8161 27.7288Z" fill="#F6E012"/>
<path d="M72.2572 73.6134C71.9563 73.0648 71.3901 72.7109 70.753 72.7109H62.7547V60.5364C62.7547 59.7755 62.2415 59.103 61.516 58.8907C60.7905 58.6783 59.9942 58.9792 59.5872 59.6162L47.4127 78.6743C47.0764 79.2051 47.0411 79.8776 47.3419 80.4261C47.6427 80.9747 48.2266 81.3286 48.846 81.3286H56.8621V93.5031C56.8621 94.264 57.3752 94.9364 58.1007 95.1488C58.26 95.2019 58.4193 95.2196 58.5785 95.2196C59.1625 95.2196 59.711 94.9364 60.0296 94.4233L72.2041 75.3652C72.5403 74.8343 72.5757 74.1619 72.2572 73.6134ZM60.295 87.6105V79.5944C60.295 78.6566 59.5341 77.878 58.5785 77.878H51.9958L59.3217 66.4113V74.445C59.3217 75.3829 60.0826 76.1615 61.0382 76.1615H67.6209L60.295 87.6105Z" fill="#F6E012"/>
<path d="M59.8175 47.4948C44.4578 47.4948 31.9824 59.9701 31.9824 75.3121C31.9824 83.7706 35.7516 91.6628 42.3343 96.9891C46.5458 100.387 48.7755 105.058 48.7755 110.473V116.914C48.7755 119.02 50.4742 120.719 52.58 120.719H52.8101V122.718C52.8101 125.037 54.5088 126.965 56.7385 127.302H62.8611C65.0907 126.965 66.8072 125.037 66.8072 122.718V120.719H67.0372C69.143 120.719 70.8418 119.002 70.8418 116.914V110.473C70.8418 105.058 73.0714 100.387 77.283 96.9891C83.8657 91.6628 87.6348 83.7706 87.6348 75.3121C87.6348 59.9701 75.1595 47.4948 59.8175 47.4948ZM63.3743 122.718C63.3743 123.373 62.808 123.922 62.171 123.922H57.4463C56.7915 123.922 56.243 123.391 56.243 122.718V120.719H63.3743V122.718ZM67.4089 116.914C67.4089 117.109 67.2319 117.286 67.0372 117.286H52.58C52.3854 117.286 52.2084 117.109 52.2084 116.914V115.605H67.4089V116.914ZM67.4089 112.172H52.2084V110.508H67.4089V112.172ZM75.1241 94.3171C70.9833 97.6616 68.4352 102.032 67.6566 107.076H51.9607C51.1821 102.032 48.6339 97.6616 44.4932 94.3171C38.7244 89.6455 35.4154 82.7265 35.4154 75.3121C35.4154 61.8635 46.3512 50.9277 59.8175 50.9277C73.2661 50.9277 84.2019 61.8635 84.2019 75.3121C84.2019 82.7265 80.8928 89.6455 75.1241 94.3171Z" fill="#AFB0EF"/>
</svg>
