<?xml version="1.0" encoding="utf-8"?>
<!-- Generator: Adobe Illustrator 26.0.1, SVG Export Plug-In . SVG Version: 6.00 Build 0)  -->
<svg version="1.1" id="Layer_1" xmlns="http://www.w3.org/2000/svg" xmlns:xlink="http://www.w3.org/1999/xlink" x="0px" y="0px"
	 viewBox="0 0 90 90" style="enable-background:new 0 0 90 90;" xml:space="preserve">
<style type="text/css">
	.st0{fill:#828282;}
	.st1{fill:#F5E00E;}
	.st2{fill:#B1AFD7;}
</style>
<g>
	<path class="st0" d="M38.81,1.74c4.11,0,8.24,0,12.35,0c0.29,0.58,0.73,1.13,0.83,1.73c0.3,1.98,0.42,3.99,0.72,5.98
		c0.06,0.4,0.52,0.89,0.91,1.07c2.55,1.13,5.11,2.21,7.7,3.25c0.3,0.12,0.83,0.04,1.09-0.16c1.74-1.31,3.43-2.69,5.17-4.02
		c0.77-0.59,1.65-0.6,2.35,0.1c2.54,2.49,5.05,4.99,7.53,7.54c0.59,0.6,0.76,1.33,0.14,2.13c-1.5,1.95-2.97,3.92-4.31,5.69
		c1.13,2.99,2.21,5.91,3.36,8.79c0.12,0.29,0.58,0.59,0.9,0.64c1.95,0.26,3.92,0.43,5.88,0.7c1.58,0.22,2.19,0.24,2.16,2.22
		c-0.04,3.11-0.06,6.23,0.01,9.33c0.05,2.37-0.77,2.47-2.71,2.71c-1.92,0.24-3.85,0.43-5.76,0.69c-0.19,0.02-0.46,0.26-0.5,0.46
		c-0.77,3.01-1.92,5.86-3.58,8.53c1.43,1.82,2.84,3.62,4.26,5.41c0.9,1.14,0.85,1.94-0.2,2.99c-2.33,2.33-4.65,4.67-6.99,6.99
		c-1.09,1.09-1.33,1.14-2.61,0.2c-2.07-1.52-4.13-3.06-6.13-4.65c-0.46-0.36-0.89-1.03-0.91-1.58c-0.01-0.38,0.67-1.08,1.09-1.12
		c0.59-0.06,1.31,0.24,1.82,0.61c1.73,1.25,3.39,2.61,5.02,3.86c2.07-2.07,4.08-4.08,6.13-6.13c-1.32-1.76-2.73-3.68-4.21-5.53
		c-0.61-0.77-0.43-1.38,0.01-2.1c1.82-2.9,3.1-6.03,3.87-9.36c0.23-0.96,0.79-1.15,1.59-1.25c2.3-0.3,4.59-0.61,6.93-0.93
		c0-2.85,0-5.59,0-8.48c-0.88-0.16-1.8-0.35-2.74-0.47c-1.38-0.18-2.79-0.28-4.17-0.46c-0.78-0.11-1.36-0.49-1.59-1.36
		c-0.88-3.37-2-6.65-3.99-9.54c-0.69-1-0.18-1.76,0.37-2.48c1.32-1.73,2.71-3.43,4.03-5.09c-2.04-2.04-4.07-4.07-6.11-6.12
		c-1.74,1.35-3.57,2.71-5.34,4.14c-0.79,0.64-1.53,0.64-2.35,0.14c-2.77-1.68-5.71-2.95-8.89-3.64c-1.3-0.29-1.77-0.91-1.89-2.2
		c-0.22-2.14-0.51-4.27-0.77-6.48c-2.79,0-5.59,0-8.58,0c-0.17,0.89-0.38,1.84-0.52,2.81c-0.18,1.38-0.29,2.78-0.46,4.17
		c-0.12,1.03-0.84,1.49-1.76,1.68c-3.18,0.69-6.13,1.88-8.86,3.67c-0.66,0.43-1.42,0.53-2.19-0.07c-1.84-1.46-3.75-2.84-5.57-4.2
		c-2.03,2.03-4.04,4.05-6.1,6.1c1.31,1.67,2.74,3.44,4.1,5.26c0.58,0.77,0.73,1.49,0.07,2.5c-1.74,2.68-2.93,5.64-3.66,8.77
		c-0.34,1.47-0.88,1.84-2.41,1.96c-1.89,0.14-3.78,0.41-5.65,0.69c-0.19,0.02-0.44,0.53-0.46,0.82c-0.04,2.56-0.02,5.12-0.02,7.87
		c0.91,0.17,1.84,0.37,2.77,0.49c1.38,0.18,2.78,0.34,4.17,0.43c0.97,0.07,1.4,0.7,1.56,1.5c0.52,2.56,1.47,4.96,2.67,7.25
		c0.35,0.66,0.71,1.31,1.13,1.92c0.48,0.71,0.57,1.31-0.01,2.03c-1.46,1.85-2.86,3.75-4.25,5.58c1.98,1.97,4.02,3.99,6.13,6.11
		c1.43-1.09,2.96-2.25,4.47-3.43c0.37-0.29,0.72-0.59,1.09-0.87c0.72-0.54,1.46-0.38,2.06,0.12c0.51,0.42,0.32,1.72-0.26,2.18
		c-2.26,1.73-4.56,3.43-6.82,5.17c-0.65,0.49-1.13,0.47-1.68-0.11c-2.66-2.68-5.32-5.35-8.01-8c-0.69-0.67-0.54-1.3-0.08-1.91
		c1.48-1.97,2.99-3.91,4.31-5.62c-1.13-2.95-2.22-5.69-3.25-8.47c-0.24-0.67-0.64-0.78-1.25-0.85c-2.13-0.25-4.23-0.61-6.36-0.85
		c-1.02-0.11-1.24-0.76-1.24-1.56C4.37,43.76,4.4,39.89,4.4,36c0.05-0.07,0.11-0.16,0.16-0.23c0.46-0.22,0.9-0.55,1.38-0.63
		c1.98-0.28,3.99-0.46,5.98-0.69c0.77-0.08,1.17-0.54,1.46-1.27c0.97-2.49,2.04-4.94,3.04-7.42c0.11-0.25,0.08-0.7-0.07-0.9
		c-1.35-1.84-2.73-3.66-4.11-5.47c-0.59-0.78-0.58-1.42,0.18-2.15c2.44-2.37,4.82-4.8,7.23-7.2c1.03-1.03,1.72-1.17,2.83-0.35
		c1.86,1.4,3.66,2.86,5.53,4.34c2.67-1.55,5.51-2.78,8.53-3.55c0.23-0.06,0.49-0.43,0.52-0.69c0.25-1.95,0.43-3.92,0.7-5.87
		C37.86,3.13,37.76,2.15,38.81,1.74z"/>
	<path class="st1" d="M73.03,36.76c-0.32-0.55-1.03-0.75-1.6-0.42l-7.52,4.34c-0.55,0.32-0.75,1.03-0.42,1.6
		c0.22,0.37,0.61,0.58,1.01,0.58c0.2,0,0.4-0.05,0.58-0.16l7.52-4.34C73.17,38.04,73.36,37.31,73.03,36.76z"/>
	<path class="st1" d="M61.2,24.93c-0.55-0.32-1.27-0.13-1.6,0.42l-4.34,7.52c-0.32,0.55-0.13,1.27,0.42,1.6
		c0.18,0.11,0.38,0.16,0.58,0.16c0.41,0,0.79-0.2,1.01-0.59l4.34-7.52C61.95,25.96,61.77,25.25,61.2,24.93z"/>
	<path class="st1" d="M26.13,40.68l-7.52-4.34c-0.55-0.32-1.27-0.13-1.6,0.42c-0.32,0.55-0.13,1.27,0.42,1.6l7.52,4.34
		c0.18,0.11,0.38,0.16,0.58,0.16c0.41,0,0.79-0.2,1.01-0.58C26.89,41.72,26.7,40.99,26.13,40.68z"/>
	<path class="st1" d="M34.79,32.88l-4.34-7.52c-0.32-0.57-1.03-0.75-1.6-0.43c-0.57,0.32-0.75,1.03-0.43,1.6l4.34,7.52
		c0.22,0.37,0.61,0.59,1.01,0.59c0.2,0,0.4-0.05,0.58-0.16C34.92,34.14,35.11,33.43,34.79,32.88z"/>
	<path class="st1" d="M45.04,20.59c-0.65,0-1.17,0.52-1.17,1.17v8.68c0,0.65,0.52,1.17,1.17,1.17c0.65,0,1.17-0.52,1.17-1.17v-8.68
		C46.2,21.11,45.67,20.59,45.04,20.59z"/>
	<path class="st1" d="M53.49,51.77c-0.2-0.37-0.59-0.61-1.02-0.61h-5.44v-8.27c0-0.52-0.35-0.97-0.84-1.12
		c-0.49-0.14-1.03,0.06-1.31,0.49l-8.27,12.95c-0.23,0.36-0.25,0.82-0.05,1.19c0.2,0.37,0.6,0.61,1.02,0.61h5.45v8.27
		c0,0.52,0.35,0.97,0.84,1.12c0.11,0.04,0.22,0.05,0.32,0.05c0.4,0,0.77-0.19,0.99-0.54l8.27-12.95
		C53.68,52.6,53.71,52.14,53.49,51.77z M45.36,61.28v-5.45c0-0.64-0.52-1.17-1.17-1.17h-4.47l4.98-7.79v5.46
		c0,0.64,0.52,1.17,1.17,1.17h4.47L45.36,61.28z"/>
	<path class="st2" d="M45.04,34.02c-10.44,0-18.92,8.48-18.92,18.91c0,5.75,2.56,11.11,7.04,14.73c2.86,2.31,4.38,5.48,4.38,9.16
		v4.38c0,1.43,1.15,2.59,2.59,2.59h0.16v1.36c0,1.58,1.15,2.89,2.67,3.12h4.16c1.52-0.23,2.68-1.54,2.68-3.12v-1.36h0.16
		c1.43,0,2.59-1.17,2.59-2.59v-4.38c0-3.68,1.52-6.85,4.38-9.16c4.47-3.62,7.04-8.98,7.04-14.73C63.94,42.5,55.46,34.02,45.04,34.02
		z M47.46,85.14c0,0.45-0.38,0.82-0.82,0.82h-3.21c-0.45,0-0.82-0.36-0.82-0.82v-1.36h4.85V85.14z M50.2,81.2
		c0,0.13-0.12,0.25-0.25,0.25h-9.83c-0.13,0-0.25-0.12-0.25-0.25v-0.89H50.2V81.2z M50.2,77.98H39.87v-1.13H50.2V77.98z
		 M55.44,65.84c-2.81,2.27-4.55,5.24-5.08,8.67H39.7c-0.53-3.43-2.26-6.4-5.08-8.67c-3.92-3.18-6.17-7.88-6.17-12.92
		c0-9.14,7.43-16.57,16.58-16.57c9.14,0,16.57,7.43,16.57,16.57C61.61,57.96,59.36,62.67,55.44,65.84z"/>
</g>
</svg>
