<svg width="68" height="68" viewBox="0 0 68 68" fill="none" xmlns="http://www.w3.org/2000/svg">
<path d="M34.0001 65.2909C51.2829 65.2909 65.2933 51.2816 65.2933 34.0002C65.2933 16.7188 51.2829 2.70947 34.0001 2.70947C16.7174 2.70947 2.70703 16.7188 2.70703 34.0002C2.70703 51.2816 16.7174 65.2909 34.0001 65.2909Z" stroke="#9FB459" stroke-width="5.08513" stroke-miterlimit="10"/>
<path d="M44.9829 33.785L34.0431 40.848L23.0171 33.5266L33.957 28.7031L44.8106 33.3544L44.9829 33.785Z" fill="#9FB459"/>
<path d="M44.8985 33.3537L34.0448 28.7024L23.105 33.5259L33.8726 15.5239L44.8985 33.3537Z" fill="#9FB459"/>
<path d="M23.0171 36.7134L34.0431 52.4759L44.9829 36.7134L34.0431 42.8289L23.0171 36.7134Z" fill="#9FB459"/>
</svg>
