<?xml version="1.0" encoding="utf-8"?>
<!-- Generator: Adobe Illustrator 26.0.1, SVG Export Plug-In . SVG Version: 6.00 Build 0)  -->
<svg version="1.1" id="Layer_1" xmlns="http://www.w3.org/2000/svg" xmlns:xlink="http://www.w3.org/1999/xlink" x="0px" y="0px"
	 width="70" height="70" viewBox="0 0 70 70" style="enable-background:new 0 0 70 70;" xml:space="preserve">
<style type="text/css">
	.st0{fill:none;stroke:#309B6F;stroke-width:1.5;stroke-miterlimit:10;}
	.st1{fill:none;stroke:#309B6F;stroke-width:1.5;stroke-linecap:round;stroke-miterlimit:10;}
	.st2{fill:none;stroke:#309B6F;stroke-miterlimit:10;}
</style>
<g>
	<path class="st0" d="M35.6,12.9v-2.1c0-2.4-1.9-4.3-4.3-4.3h0c-2.4,0-4.3,1.9-4.3,4.3v2.1h-7.3c-0.3,0-0.5,0.2-0.5,0.5v4.9
		c0,0.3,0.2,0.5,0.5,0.5h23.3c0.3,0,0.5-0.2,0.5-0.5v-4.9c0-0.3-0.2-0.5-0.5-0.5H35.6z"/>
	<path class="st0" d="M53.5,31.9v29.6c0,1.1-0.9,2-2,2H11.1c-1.1,0-2-0.9-2-2V11.6c0-1.1,0.9-2,2-2h16.2"/>
	<path class="st0" d="M35.5,9.6h16c1.1,0,2,0.9,2,2v13.1"/>
	<path class="st0" d="M48.7,34.8v15.3l-7.2,6.8h-26c-0.8,0-1.4-0.6-1.4-1.3v-38c0-0.7,0.6-1.4,1.4-1.4h3.8"/>
	<path class="st0" d="M43.7,16.2h3.7c0.7,0,1.4,0.6,1.4,1.4v10.1"/>
	<line class="st1" x1="18.7" y1="26.2" x2="24.9" y2="26.2"/>
	<line class="st1" x1="19.5" y1="32.5" x2="20.7" y2="32.5"/>
	<line class="st1" x1="19.5" y1="39.3" x2="28" y2="39.3"/>
	<line class="st1" x1="23.2" y1="32.5" x2="35.9" y2="32.5"/>
	<line class="st1" x1="26.9" y1="26.2" x2="37.6" y2="26.2"/>
	<line class="st1" x1="40.4" y1="26.2" x2="43.5" y2="26.2"/>
	<line class="st1" x1="19.5" y1="45.5" x2="22.9" y2="45.5"/>
	<path class="st0" d="M41.4,56.4v-3.7c0-1.5,1.2-2.7,2.7-2.7h4.6"/>
	<path class="st0" d="M33.4,44.6l-3.2-5.1l26.1-16.7c1.4-0.9,3.3-0.5,4.1,0.9l0,0c0.9,1.4,0.5,3.3-0.9,4.1L33.4,44.6z"/>
	<line class="st0" x1="55.4" y1="23.4" x2="58.7" y2="28.4"/>
	<path class="st2" d="M29.2,40.3l-2.7,4.7c-0.2,0.3,0.1,0.6,0.4,0.6l5.5-0.4L29.2,40.3z"/>
	<line class="st0" x1="57.2" y1="25.8" x2="31.8" y2="42.1"/>
	<line class="st1" x1="26.6" y1="45.3" x2="25.3" y2="46.1"/>
</g>
</svg>
