<svg width="58" height="58" viewBox="0 0 58 58" fill="none" xmlns="http://www.w3.org/2000/svg">
<g clip-path="url(#clip0_1137_1643)">
<path d="M34.1624 20.901H37.2429C37.64 20.901 37.9649 20.5761 37.9649 20.179C37.9649 19.7819 37.64 19.457 37.2429 19.457H34.1624C33.7653 19.457 33.4404 19.7819 33.4404 20.179C33.4404 20.5761 33.7653 20.901 34.1624 20.901Z" fill="#2F9B6E"/>
<path d="M20.6016 20.901H31.4074C31.8045 20.901 32.1294 20.5761 32.1294 20.179C32.1294 19.7819 31.8045 19.457 31.4074 19.457H20.6136C20.2165 19.457 19.8916 19.7819 19.8916 20.179C19.8916 20.5761 20.2045 20.901 20.6016 20.901Z" fill="#2F9B6E"/>
<path d="M13.2005 20.901H17.7972C18.1943 20.901 18.5192 20.5761 18.5192 20.179C18.5192 19.7819 18.1943 19.457 17.7972 19.457H13.2005C12.8034 19.457 12.4785 19.7819 12.4785 20.179C12.4785 20.5761 12.8034 20.901 13.2005 20.901Z" fill="#2F9B6E"/>
<path d="M29.6863 25.8115H16.9071C16.51 25.8115 16.1851 26.1364 16.1851 26.5335C16.1851 26.9306 16.51 27.2555 16.9071 27.2555H29.6983C30.0954 27.2555 30.4203 26.9306 30.4203 26.5335C30.4083 26.1364 30.0834 25.8115 29.6863 25.8115Z" fill="#2F9B6E"/>
<path d="M13.2005 27.2555H14.5362C14.9333 27.2555 15.2582 26.9306 15.2582 26.5335C15.2582 26.1364 14.9333 25.8115 14.5362 25.8115H13.2005C12.8034 25.8115 12.4785 26.1364 12.4785 26.5335C12.4785 26.9306 12.8034 27.2555 13.2005 27.2555Z" fill="#2F9B6E"/>
<path d="M13.2005 34.0065H21.7681C22.1652 34.0065 22.4901 33.6816 22.4901 33.2845C22.4901 32.8874 22.1652 32.5625 21.7681 32.5625H13.2005C12.8034 32.5625 12.4785 32.8874 12.4785 33.2845C12.4785 33.6816 12.8034 34.0065 13.2005 34.0065Z" fill="#2F9B6E"/>
<path d="M16.6661 38.8071H13.2005C12.8034 38.8071 12.4785 39.132 12.4785 39.5291C12.4785 39.9262 12.8034 40.2511 13.2005 40.2511H16.6661C17.0632 40.2511 17.3881 39.9262 17.3881 39.5291C17.3881 39.132 17.0632 38.8071 16.6661 38.8071Z" fill="#2F9B6E"/>
<path d="M54.992 15.968C54.0534 14.5481 52.1521 14.151 50.7322 15.0896L49.9501 15.6071L48.5662 16.5095V5.9083C48.5662 4.21162 47.1824 2.8278 45.4857 2.8278H29.6982C28.8799 1.09502 27.1351 0 25.2218 0C23.3086 0 21.5637 1.09502 20.7455 2.8278H4.95794C3.24923 2.8278 1.87744 4.21162 1.87744 5.9083V54.9315C1.87744 56.6282 3.26126 58 4.95794 58.012H45.4857C47.1824 58.012 48.5662 56.6282 48.5662 54.9315V25.4021L54.8115 21.2988C56.2314 20.3602 56.6285 18.4589 55.6899 17.039L54.992 15.968ZM28.2181 37.0502L27.3637 35.7506L51.7671 19.7104L52.6214 21.01L28.2181 37.0502ZM41.6592 43.2954H37.8687C36.172 43.2954 34.7882 44.6793 34.7882 46.3759V50.0701H9.24176C8.98906 50.0701 8.7845 49.8656 8.7845 49.6129V11.2149C8.7845 10.9622 8.98906 10.7577 9.24176 10.7577H12.4787V12.7432C12.4787 13.1402 12.8036 13.4651 13.2007 13.4651H37.243C37.6401 13.4651 37.965 13.1402 37.965 12.7432V10.7577H41.2019C41.4546 10.7577 41.6592 10.9622 41.6592 11.2149V21.0461L24.3314 32.4295C24.3193 32.4415 24.3073 32.4415 24.2953 32.4535C24.2832 32.4535 24.2832 32.4656 24.2712 32.4656C24.2471 32.4776 24.2231 32.5017 24.211 32.5257C24.187 32.5498 24.1749 32.5618 24.1509 32.5859L24.1389 32.5979C24.1268 32.622 24.1148 32.634 24.1028 32.6581C24.1028 32.6581 24.1028 32.6701 24.0907 32.6701L20.8177 38.3137L19.843 38.9515C19.5061 39.1681 19.4218 39.6133 19.6384 39.9502C19.855 40.2871 20.3003 40.3714 20.6372 40.1548L21.6119 39.517L28.0978 38.7469H28.1098C28.1218 38.7469 28.1339 38.7469 28.1459 38.7349C28.17 38.7349 28.182 38.7228 28.2061 38.7228C28.2181 38.7228 28.2301 38.7108 28.2422 38.7108C28.2662 38.6988 28.2783 38.6988 28.3023 38.6867C28.3144 38.6867 28.3264 38.6747 28.3384 38.6747C28.3625 38.6627 28.3745 38.6506 28.3866 38.6506C28.3986 38.6506 28.3986 38.6386 28.4106 38.6386L41.6592 29.9386V43.2954ZM40.6604 44.7394L36.2202 49.1797V46.3759C36.2202 45.4734 36.9542 44.7394 37.8567 44.7394H40.6604ZM26.7741 37.4714L22.7189 37.9527L24.7766 34.4149L25.7754 35.9432L26.7741 37.4714ZM26.5816 34.5473L25.7272 33.2477L48.2534 18.4469L50.1426 17.2075L50.9969 18.5071L26.5816 34.5473ZM45.4857 4.27178C46.3882 4.27178 47.1223 5.00581 47.1223 5.9083V17.4602L43.1032 20.1075V11.2149C43.1032 10.168 42.2488 9.31369 41.2019 9.31369H37.965V7.08755C37.965 6.69046 37.6401 6.36556 37.243 6.36556H30.1915V4.95768C30.1915 4.72905 30.1795 4.48838 30.1434 4.25975H45.4857V4.27178ZM25.2218 1.44398C27.1712 1.44398 28.7355 3.02033 28.7476 4.96971V7.08755C28.7476 7.48465 29.0725 7.80954 29.4696 7.80954H36.521V12.0212H13.9227V7.80954H20.9741C21.3712 7.80954 21.6961 7.48465 21.6961 7.08755V4.95768C21.6961 3.02033 23.2725 1.44398 25.2218 1.44398ZM47.1223 54.9195C47.1223 55.822 46.3882 56.556 45.4857 56.556H4.95794C4.05545 56.556 3.32142 55.822 3.32142 54.9195V5.9083C3.32142 5.00581 4.05545 4.27178 4.95794 4.27178H20.3123C20.2762 4.50041 20.2642 4.72905 20.2642 4.96971V6.36556H13.2127C12.8156 6.36556 12.4907 6.69046 12.4907 7.08755V9.32573H9.24176C8.19487 9.32573 7.34051 10.1801 7.34051 11.227V49.6249C7.34051 50.6718 8.19487 51.5261 9.24176 51.5261H35.053C35.1492 51.5261 35.2455 51.5141 35.3418 51.5021C35.4019 51.5141 35.4501 51.5261 35.5102 51.5261C35.7148 51.5261 35.9193 51.4299 36.0517 51.2734C36.2442 51.1772 36.4127 51.0448 36.5571 50.9004L42.4654 44.9921C42.8625 44.595 43.0911 44.0535 43.0911 43.488V29L47.1102 26.3527L47.1223 54.9195ZM54.0173 20.0954L53.8368 20.2158L51.3339 16.4133L51.5144 16.2929C52.2725 15.7996 53.2832 16.0042 53.7766 16.7622L54.4745 17.8332C54.9799 18.5913 54.7754 19.6021 54.0173 20.0954Z" fill="#2F9B6E"/>
</g>
<defs>
<clipPath id="clip0_1137_1643">
<rect width="58" height="58" fill="white"/>
</clipPath>
</defs>
</svg>
