<svg width="60" height="75" viewBox="0 0 60 75" fill="none" xmlns="http://www.w3.org/2000/svg">
<mask id="mask0_982_436" style="mask-type:luminance" maskUnits="userSpaceOnUse" x="0" y="0" width="60" height="75">
<path d="M0.519531 0.937012H59.5118V74.9758H0.519531V0.937012Z" fill="white"/>
</mask>
<g mask="url(#mask0_982_436)">
<path d="M54.868 67.9006C54.868 69.2789 53.7443 70.4025 52.3661 70.4025H7.66537C6.28713 70.4025 5.15469 69.2789 5.15469 67.9006V17.3709C5.15469 15.9927 6.28713 14.8778 7.66537 14.8778H52.3661C53.7443 14.8778 54.868 15.9927 54.868 17.3709V67.9006ZM30.0157 5.73049C31.6134 5.73049 32.8951 7.01217 32.8951 8.60109C32.8951 9.24193 32.6932 9.8301 32.3333 10.3041C31.8066 11.0064 30.9638 11.4629 30.0157 11.4629C29.0676 11.4629 28.2249 11.0064 27.6982 10.3041C27.3382 9.8301 27.1276 9.24193 27.1276 8.60109C27.1276 7.01217 28.4268 5.73049 30.0157 5.73049ZM52.3661 10.3041H43.2451V8.60109C43.2451 7.67056 42.4901 6.92438 41.5684 6.92438H36.0466C35.7569 5.87972 35.1863 4.94041 34.4401 4.19423C31.034 0.796908 25.2577 2.39462 23.976 6.92438H18.4543C17.5325 6.92438 16.7776 7.67056 16.7776 8.60109V10.3041H7.66537C3.75011 10.3041 0.563477 13.4732 0.563477 17.3709V67.9006C0.563477 71.7983 3.75011 74.9674 7.66537 74.9674H52.3661C56.2813 74.9674 59.468 71.7983 59.468 67.9006V17.3709C59.468 13.4732 56.2813 10.3041 52.3661 10.3041Z" fill="#C22032"/>
</g>
<path d="M15.6167 50.8873C16.0293 50.8873 16.4507 50.9575 16.8808 51.1068C17.311 51.256 17.7324 51.4316 18.1537 51.6335L18.9263 49.6934C17.8202 49.1667 16.7141 48.9033 15.6167 48.9033C14.537 48.9033 13.5976 49.1316 12.79 49.6056C11.9912 50.0709 11.3767 50.7468 10.9465 51.6335C10.5164 52.5113 10.3057 53.5384 10.3057 54.706C10.3057 56.567 10.7446 57.9892 11.6137 58.9899C12.4828 59.9819 13.7469 60.4735 15.3885 60.4735C16.5385 60.4735 17.5744 60.2892 18.5049 59.9029V57.8926C17.3725 58.2877 16.4156 58.4896 15.6167 58.4896C13.7205 58.4896 12.7725 57.2342 12.7725 54.7235C12.7725 53.5121 13.0183 52.5728 13.5186 51.8968C14.0102 51.2209 14.7125 50.8873 15.6167 50.8873Z" fill="#C22032"/>
<path d="M25.8002 58.4725C24.8434 58.4725 24.1323 58.1564 23.6495 57.5156C23.1666 56.8835 22.9296 55.9355 22.9296 54.6801C22.9296 53.416 23.1666 52.4679 23.6582 51.8271C24.1411 51.195 24.8609 50.8702 25.8178 50.8702C27.7227 50.8702 28.6708 52.1431 28.6708 54.6801C28.6708 57.2084 27.714 58.4725 25.8002 58.4725ZM25.8178 48.8862C24.0796 48.8862 22.7453 49.3778 21.806 50.3698C20.8754 51.353 20.4102 52.7839 20.4102 54.6626C20.4102 56.5324 20.8754 57.9721 21.806 58.9729C22.7365 59.9736 24.0621 60.474 25.8002 60.474C27.5384 60.474 28.8727 59.9736 29.7945 58.9729C30.725 57.9721 31.1903 56.5412 31.1903 54.6801C31.1903 52.8103 30.7338 51.3794 29.812 50.3786C28.8903 49.3866 27.5559 48.8862 25.8178 48.8862Z" fill="#C22032"/>
<path d="M37.4584 53.8193C36.6595 53.4419 36.1504 53.1785 35.9397 53.0293C35.7202 52.8888 35.5622 52.7308 35.4656 52.5816C35.3691 52.4235 35.3164 52.2392 35.3164 52.0285C35.3164 51.6861 35.4393 51.414 35.6851 51.2033C35.9221 50.9926 36.2733 50.8873 36.7297 50.8873C37.116 50.8873 37.5023 50.9312 37.8973 51.0277C38.2923 51.1331 38.7927 51.2999 39.3984 51.5457L40.171 49.6934C39.5828 49.4388 39.0297 49.2457 38.4942 49.1052C37.9588 48.9735 37.3969 48.9033 36.8088 48.9033C35.6061 48.9033 34.6668 49.1842 33.9908 49.7548C33.3149 50.3255 32.9725 51.1068 32.9725 52.1075C32.9725 52.6342 33.0778 53.0907 33.2798 53.4945C33.4904 53.8896 33.7714 54.2319 34.1137 54.5304C34.4561 54.8289 34.974 55.1361 35.6675 55.4609C36.4049 55.8121 36.8965 56.0667 37.1336 56.2247C37.3794 56.3827 37.5549 56.5495 37.6778 56.7251C37.8095 56.8919 37.871 57.0938 37.871 57.3132C37.871 57.7083 37.7305 58.0067 37.4408 58.2087C37.1687 58.4018 36.7649 58.5071 36.2294 58.5071C35.7992 58.5071 35.3076 58.4369 34.7809 58.2964C34.2542 58.156 33.6046 57.919 32.8408 57.5766V59.7976C33.7714 60.2541 34.8423 60.4735 36.045 60.4735C37.3618 60.4735 38.3801 60.1838 39.1175 59.5957C39.8549 59.0163 40.2236 58.2087 40.2236 57.1991C40.2236 56.4617 40.0217 55.8384 39.6355 55.338C39.2404 54.8289 38.5206 54.3285 37.4584 53.8193Z" fill="#C22032"/>
<path d="M41.1719 51.0452H44.2444V60.3242H46.641V51.0452H49.7222V49.0613H41.1719V51.0452Z" fill="#C22032"/>
<path d="M21.3949 42.4163L28.3739 43.0483L30.6213 39.2648L34.7472 40.6254L42.4285 30.2403L44.8426 32.0926L44.7373 24.7976L37.7583 26.6762L40.1636 28.511L33.685 37.2896L29.3308 35.8499L26.8377 40.0636L20.4995 39.493L15.1797 43.7682L16.9705 45.9804L21.3949 42.4163Z" fill="#C22032"/>
</svg>
