<svg width="50" height="50" viewBox="0 0 50 50" fill="none" xmlns="http://www.w3.org/2000/svg">
<mask id="mask0_205_1181" style="mask-type:luminance" maskUnits="userSpaceOnUse" x="0" y="0" width="26" height="50">
<path d="M0.732422 0.734375H25.624V49.2663H0.732422V0.734375Z" fill="white"/>
</mask>
<g mask="url(#mask0_205_1181)">
<path d="M15.6016 21.5437L14.856 20.798L15.6016 14.0807L16.3473 20.798L15.6016 21.5437ZM15.6016 11.692C16.1514 11.692 16.6822 11.5909 17.1688 11.4203V12.1533L15.6016 13.7141L14.0408 12.1533V11.4203C14.5274 11.5909 15.0519 11.692 15.6016 11.692ZM12.4736 5.42959C12.4736 3.70443 13.8765 2.30155 15.6016 2.30155C17.3331 2.30155 18.736 3.70443 18.736 5.42959V6.99677C18.736 8.72193 17.3331 10.1248 15.6016 10.1248C13.8765 10.1248 12.4736 8.72193 12.4736 6.99677V5.42959ZM10.9064 26.5675H20.3032V47.6991H16.3852V29.6956H14.8181V47.6991H10.9064V38.3087H13.2572V28.912H10.9064V26.5675ZM2.2996 31.3702L5.10535 33.7083C5.63617 34.1506 6.30601 34.3908 6.99481 34.3908C7.68361 34.3908 8.35346 34.1506 8.87796 33.7083L11.69 31.3702V36.7415H2.2996V31.3702ZM10.3124 30.4792L7.87951 32.5076C7.38029 32.9184 6.60302 32.9184 6.11012 32.5076L3.6772 30.4792H10.3124ZM22.0347 12.6904L18.736 11.8626V10.485C19.6902 9.62558 20.3032 8.38069 20.3032 6.99677V5.42959C20.3032 2.83869 18.1925 0.734375 15.6016 0.734375C13.0171 0.734375 10.9064 2.83869 10.9064 5.42959V6.99677C10.9064 8.38069 11.5131 9.62558 12.4736 10.485V11.8626L9.17496 12.6904C7.43084 13.1265 6.21122 14.6873 6.21122 16.482V28.912H0.732422V38.3087H9.33926V49.2663H21.864V16.3872H20.3032V25.0003H10.9064V16.3872H9.33926V28.912H7.7784V16.482C7.7784 15.4014 8.50512 14.4661 9.55412 14.207L13.0171 13.3413L14.0029 14.3271L13.2193 21.3731L15.6016 23.7555L17.9903 21.3731L17.2067 14.3271L18.1925 13.3413L21.6492 14.207C22.6982 14.4661 23.4312 15.4014 23.4312 16.482V29.6956H24.9984V16.482C24.9984 14.6873 23.7788 13.1265 22.0347 12.6904Z" fill="black"/>
</g>
<mask id="mask1_205_1181" style="mask-type:luminance" maskUnits="userSpaceOnUse" x="30" y="0" width="20" height="31">
<path d="M30.4785 0.734375H49.2657V30.4792H30.4785V0.734375Z" fill="white"/>
</mask>
<g mask="url(#mask1_205_1181)">
<path d="M36.7409 6.99677V5.42959C36.7409 3.70443 38.1438 2.30155 39.8689 2.30155C41.6004 2.30155 43.0033 3.70443 43.0033 5.42959V6.99677C43.0033 8.72193 41.6004 10.1248 39.8689 10.1248C38.1438 10.1248 36.7409 8.72193 36.7409 6.99677ZM46.302 12.6904L43.0033 11.8626V10.485C43.9575 9.62558 44.5705 8.38069 44.5705 6.99677V5.42959C44.5705 2.83869 42.4598 0.734375 39.8689 0.734375C37.2844 0.734375 35.1737 2.83869 35.1737 5.42959V6.99677C35.1737 8.38069 35.7804 9.62558 36.7409 10.485V11.8626L33.4423 12.6904C31.6981 13.1265 30.4785 14.6873 30.4785 16.482V29.6956H32.0457V16.482C32.0457 15.4014 32.7724 14.4661 33.8214 14.207L38.3081 13.0885V11.4203C38.7947 11.5909 39.3192 11.692 39.8689 11.692C40.4187 11.692 40.9495 11.5909 41.4361 11.4203V13.0885L45.9165 14.207C46.9655 14.4661 47.6985 15.4014 47.6985 16.482V29.6956H49.2657V16.482C49.2657 14.6873 48.0461 13.1265 46.302 12.6904Z" fill="black"/>
</g>
<mask id="mask2_205_1181" style="mask-type:luminance" maskUnits="userSpaceOnUse" x="32" y="15" width="15" height="35">
<path d="M32.0977 15.9194H46.6572V49.2662H32.0977V15.9194Z" fill="white"/>
</mask>
<g mask="url(#mask2_205_1181)">
<path d="M40.6514 47.6992V29.6956H39.0843V47.6992H35.1726V26.5675H44.5694V47.6992H40.6514ZM44.5694 25.0004H35.1726V16.3872H33.6055V49.2663H46.1302V16.3872H44.5694V25.0004Z" fill="black"/>
</g>
<mask id="mask3_205_1181" style="mask-type:luminance" maskUnits="userSpaceOnUse" x="22" y="0" width="12" height="12">
<path d="M22.3848 0.734375H33.7089V11.0664H22.3848V0.734375Z" fill="white"/>
</mask>
<g mask="url(#mask3_205_1181)">
<path d="M24.2117 2.30155H32.0413V7.71084L31.1376 6.99677H24.2117V2.30155ZM24.2117 8.56394H30.5878L33.6021 10.9716V2.30155C33.6021 1.43581 32.9007 0.734375 32.0413 0.734375H24.2117C23.346 0.734375 22.6445 1.43581 22.6445 2.30155V6.99677C22.6445 7.85619 23.346 8.56394 24.2117 8.56394Z" fill="black"/>
</g>
<path d="M25.7832 5.42948H27.3441V3.8623H25.7832V5.42948Z" fill="black"/>
<path d="M28.9102 5.42948H30.4773V3.8623H28.9102V5.42948Z" fill="black"/>
</svg>
