<svg width="66" height="73" viewBox="0 0 66 73" fill="none" xmlns="http://www.w3.org/2000/svg">
<g clip-path="url(#clip0_1045_571)">
<g clip-path="url(#clip1_1045_571)">
<g clip-path="url(#clip2_1045_571)">
<mask id="mask0_1045_571" style="mask-type:luminance" maskUnits="userSpaceOnUse" x="11" y="11" width="23" height="45">
<path d="M11.2666 11.6449H33.7784V55.537H11.2666V11.6449Z" fill="white"/>
</mask>
<g mask="url(#mask0_1045_571)">
<path d="M24.7143 30.4648L24.0399 29.7904L24.7143 23.7152L25.3886 29.7904L24.7143 30.4648ZM24.7143 21.5549C25.2115 21.5549 25.6915 21.4635 26.1316 21.3092V21.9721L24.7143 23.3837L23.3026 21.9721V21.3092C23.7427 21.4635 24.217 21.5549 24.7143 21.5549ZM21.8853 15.8912C21.8853 14.331 23.154 13.0622 24.7143 13.0622C26.2802 13.0622 27.549 14.331 27.549 15.8912V17.3086C27.549 18.8688 26.2802 20.1376 24.7143 20.1376C23.154 20.1376 21.8853 18.8688 21.8853 17.3086V15.8912ZM20.4679 35.0083H28.9663V54.1196H25.4229V37.8373H24.0056V54.1196H20.4679V45.6269H22.594V37.1286H20.4679V35.0083ZM12.6839 39.3518L15.2215 41.4663C15.7015 41.8664 16.3073 42.0836 16.9303 42.0836C17.5532 42.0836 18.159 41.8664 18.6334 41.4663L21.1766 39.3518V44.2096H12.6839V39.3518ZM19.9307 38.5459L17.7304 40.3805C17.2789 40.752 16.5759 40.752 16.1302 40.3805L13.9298 38.5459H19.9307ZM30.5322 22.4579L27.549 21.7092V20.4633C28.4119 19.6861 28.9663 18.5602 28.9663 17.3086V15.8912C28.9663 13.548 27.0575 11.6449 24.7143 11.6449C22.3768 11.6449 20.4679 13.548 20.4679 15.8912V17.3086C20.4679 18.5602 21.0166 19.6861 21.8853 20.4633V21.7092L18.902 22.4579C17.3246 22.8522 16.2216 24.2639 16.2216 25.887V37.1286H11.2666V45.6269H19.0506V55.537H30.3779V25.8012H28.9663V33.5909H20.4679V25.8012H19.0506V37.1286H17.639V25.887C17.639 24.9097 18.2962 24.0638 19.2449 23.8295L22.3768 23.0465L23.2683 23.9381L22.5597 30.3105L24.7143 32.465L26.8746 30.3105L26.1659 23.9381L27.0575 23.0465L30.1836 23.8295C31.1323 24.0638 31.7953 24.9097 31.7953 25.887V37.8373H33.2126V25.887C33.2126 24.2639 32.1096 22.8522 30.5322 22.4579Z" fill="black"/>
</g>
<mask id="mask1_1045_571" style="mask-type:luminance" maskUnits="userSpaceOnUse" x="38" y="11" width="18" height="28">
<path d="M38.1675 11.6449H55.1585V38.5459H38.1675V11.6449Z" fill="white"/>
</mask>
<g mask="url(#mask1_1045_571)">
<path d="M43.8312 17.3086V15.8912C43.8312 14.331 45.0999 13.0622 46.6601 13.0622C48.2261 13.0622 49.4948 14.331 49.4948 15.8912V17.3086C49.4948 18.8688 48.2261 20.1376 46.6601 20.1376C45.0999 20.1376 43.8312 18.8688 43.8312 17.3086ZM52.4781 22.4579L49.4948 21.7092V20.4633C50.3578 19.6861 50.9122 18.5602 50.9122 17.3086V15.8912C50.9122 13.548 49.0033 11.6449 46.6601 11.6449C44.3227 11.6449 42.4138 13.548 42.4138 15.8912V17.3086C42.4138 18.5602 42.9625 19.6861 43.8312 20.4633V21.7092L40.8479 22.4579C39.2705 22.8522 38.1675 24.2639 38.1675 25.887V37.8373H39.5848V25.887C39.5848 24.9097 40.2421 24.0638 41.1908 23.8295L45.2485 22.8179V21.3092C45.6886 21.4635 46.1629 21.5549 46.6601 21.5549C47.1573 21.5549 47.6374 21.4635 48.0775 21.3092V22.8179L52.1295 23.8295C53.0782 24.0638 53.7412 24.9097 53.7412 25.887V37.8373H55.1585V25.887C55.1585 24.2639 54.0555 22.8522 52.4781 22.4579Z" fill="black"/>
</g>
<mask id="mask2_1045_571" style="mask-type:luminance" maskUnits="userSpaceOnUse" x="39" y="25" width="14" height="31">
<path d="M39.6309 25.3783H52.7985V55.5369H39.6309V25.3783Z" fill="white"/>
</mask>
<g mask="url(#mask2_1045_571)">
<path d="M47.3689 54.1196V37.8372H45.9516V54.1196H42.4139V35.0083H50.9123V54.1196H47.3689ZM50.9123 33.5909H42.4139V25.8012H40.9966V55.5369H52.3239V25.8012H50.9123V33.5909Z" fill="black"/>
</g>
<mask id="mask3_1045_571" style="mask-type:luminance" maskUnits="userSpaceOnUse" x="30" y="11" width="12" height="10">
<path d="M30.8521 11.6449H41.0935V20.9891H30.8521V11.6449Z" fill="white"/>
</mask>
<g mask="url(#mask3_1045_571)">
<path d="M32.5038 13.0622H39.5848V17.9544L38.7675 17.3086H32.5038V13.0622ZM32.5038 18.7259H38.2703L40.9964 20.9034V13.0622C40.9964 12.2793 40.3621 11.6449 39.5848 11.6449H32.5038C31.7208 11.6449 31.0864 12.2793 31.0864 13.0622V17.3086C31.0864 18.0858 31.7208 18.7259 32.5038 18.7259Z" fill="black"/>
</g>
<path d="M33.9214 15.8912H35.333V14.4738H33.9214V15.8912Z" fill="black"/>
<path d="M36.7505 15.8912H38.1678V14.4738H36.7505V15.8912Z" fill="black"/>
</g>
</g>
</g>
<defs>
<clipPath id="clip0_1045_571">
<rect width="65.8381" height="65.8381" fill="white" transform="translate(0.12793 0.506165)"/>
</clipPath>
<clipPath id="clip1_1045_571">
<rect width="65.8381" height="65.8381" fill="white" transform="translate(0.12793 0.506165)"/>
</clipPath>
<clipPath id="clip2_1045_571">
<rect width="65.8381" height="65.8381" fill="white" transform="translate(0.12793 0.506165)"/>
</clipPath>
</defs>
</svg>
