<svg width="50" height="50" viewBox="0 0 50 50" fill="none" xmlns="http://www.w3.org/2000/svg">
<mask id="mask0_205_1277" style="mask-type:luminance" maskUnits="userSpaceOnUse" x="5" y="18" width="16" height="18">
<path d="M5.28711 18.1279H20.9712V35.1346H5.28711V18.1279Z" fill="white"/>
</mask>
<g mask="url(#mask0_205_1277)">
<path d="M14.6118 33.2264V32.7553C14.6239 32.4292 14.7869 32.2118 15.0949 32.0971C15.5962 31.9038 16.0552 31.6502 16.49 31.3361C16.7558 31.1368 17.0336 31.1127 17.3295 31.2697L17.7704 31.5052C17.9455 31.6018 18.1327 31.626 18.326 31.5777C18.5253 31.5294 18.6763 31.4207 18.785 31.2516L19.9747 29.3009C20.0774 29.1318 20.1015 28.9566 20.0472 28.7634C19.9928 28.5761 19.8781 28.4372 19.7029 28.3406L19.2681 28.1111C18.9903 27.9662 18.8695 27.7367 18.9057 27.4287C18.9843 26.8912 18.9843 26.3537 18.9057 25.8222C18.8695 25.5082 18.9903 25.2847 19.2681 25.1398L19.7029 24.9042C19.8781 24.8137 19.9928 24.6747 20.0472 24.4815C20.1015 24.2943 20.0774 24.1131 19.9747 23.944L18.785 21.9993C18.6763 21.8302 18.5253 21.7215 18.326 21.6732C18.1327 21.6188 17.9455 21.643 17.7704 21.7396L17.3295 21.9812C17.0336 22.1322 16.7558 22.108 16.49 21.9087C16.0552 21.6007 15.5962 21.3471 15.0949 21.1478C14.7869 21.0391 14.6239 20.8217 14.6118 20.4895V20.0245C14.6118 19.8252 14.5333 19.6561 14.3883 19.5232C14.2434 19.3843 14.0743 19.3179 13.875 19.3179H11.4955C11.2902 19.3179 11.1211 19.3843 10.9761 19.5232C10.8312 19.6561 10.7587 19.8252 10.7527 20.0245V20.4895C10.7406 20.8217 10.5836 21.0391 10.2695 21.1478C9.7743 21.3471 9.30927 21.6007 8.88048 21.9087C8.61475 22.108 8.3309 22.1322 8.03498 21.9812L7.60014 21.7396C7.425 21.643 7.23779 21.6188 7.03849 21.6732C6.84523 21.7215 6.69425 21.8302 6.58554 21.9993L5.3958 23.944C5.29313 24.1131 5.26897 24.2943 5.32332 24.4815C5.37768 24.6747 5.49242 24.8137 5.66756 24.9042L6.09636 25.1398C6.3802 25.2847 6.50099 25.5082 6.46476 25.8222C6.38624 26.3537 6.38624 26.8912 6.46476 27.4287C6.50099 27.7367 6.3802 27.9662 6.09636 28.1111L5.66756 28.3406C5.48638 28.4312 5.37164 28.5761 5.31728 28.7634C5.26293 28.9506 5.28709 29.1318 5.38976 29.3009L6.5795 31.2516C6.68821 31.4207 6.83919 31.5294 7.03245 31.5777C7.23175 31.626 7.41897 31.6018 7.59411 31.5052L8.02894 31.2697C8.32486 31.1127 8.60871 31.1368 8.87444 31.3361C9.30323 31.6502 9.76826 31.9038 10.2635 32.0971C10.5775 32.2118 10.7346 32.4292 10.7466 32.7553V33.2264C10.7527 33.4257 10.8251 33.5888 10.9701 33.7277C11.115 33.8605 11.2841 33.933 11.4834 33.927H13.869C14.0683 33.933 14.2434 33.8666 14.3883 33.7277C14.5333 33.5948 14.6118 33.4257 14.6118 33.2264ZM9.8045 26.6254C9.8045 26.245 9.87697 25.8826 10.0219 25.5384C10.1729 25.1881 10.3782 24.8801 10.65 24.6144C10.9157 24.3486 11.2298 24.1433 11.5801 23.9983C11.9303 23.8534 12.2987 23.7809 12.6792 23.7809C13.0597 23.7809 13.4281 23.8534 13.7784 23.9983C14.1347 24.1433 14.4427 24.3486 14.7145 24.6144C14.9802 24.8801 15.1916 25.1881 15.3365 25.5384C15.4815 25.8826 15.5539 26.245 15.5539 26.6254C15.5539 26.9999 15.4815 27.3622 15.3365 27.7125C15.1916 28.0568 14.9802 28.3648 14.7145 28.6305C14.4427 28.8962 14.1347 29.1016 13.7784 29.2465C13.4281 29.3915 13.0597 29.4639 12.6792 29.4639C12.2987 29.4639 11.9303 29.3915 11.5801 29.2465C11.2298 29.1016 10.9157 28.8962 10.65 28.6305C10.3782 28.3648 10.1729 28.0568 10.0219 27.7125C9.87697 27.3622 9.8045 26.9999 9.8045 26.6254Z" fill="black"/>
</g>
<path d="M10.3711 17.9883L12.0017 18.2239C12.0923 17.5837 12.2372 16.9496 12.4305 16.3275L10.8603 15.8564C10.6429 16.551 10.4798 17.2636 10.3711 17.9883Z" fill="black"/>
<path d="M14.1222 12.8431L12.7634 11.9312C12.3467 12.5351 11.9783 13.1632 11.6582 13.8215L13.1378 14.522C13.4217 13.9422 13.7538 13.3806 14.1222 12.8431Z" fill="black"/>
<path d="M21.7311 34.379L22.0874 32.7967C21.4473 32.6518 20.8252 32.4645 20.2153 32.229L19.6113 33.7388C20.2998 34.0046 21.0064 34.2159 21.7311 34.379Z" fill="black"/>
<path d="M30.4156 33.7271L29.8116 32.2173C29.2017 32.4528 28.5736 32.64 27.9395 32.785L28.3018 34.3673C29.0205 34.2042 29.7271 33.9928 30.4156 33.7271Z" fill="black"/>
<path d="M16.7798 9.99855L15.7531 8.73633C15.1794 9.18928 14.6419 9.6845 14.1406 10.222L15.3424 11.3212C15.7894 10.8501 16.2665 10.4032 16.7798 9.99855Z" fill="black"/>
<path d="M34.6016 11.2665L35.8034 10.1613C35.2961 9.62377 34.7586 9.13459 34.1788 8.68164L33.1582 9.9499C33.6715 10.3545 34.1547 10.7954 34.6016 11.2665Z" fill="black"/>
<path d="M37.9897 18.1454L39.6143 17.8978C39.4995 17.1791 39.3365 16.4725 39.113 15.772L37.5488 16.2612C37.7421 16.8772 37.887 17.5053 37.9897 18.1454Z" fill="black"/>
<path d="M24.0329 33.0811L23.9121 34.6996C24.2745 34.7237 24.6368 34.7358 24.9992 34.7358C25.3797 34.7358 25.7481 34.7237 26.1165 34.6936L25.9957 33.0811C25.3434 33.1294 24.6851 33.1294 24.0329 33.0811Z" fill="black"/>
<path d="M36.8303 14.4498L38.3039 13.7371C37.9838 13.0849 37.6154 12.4568 37.1927 11.8589L35.8398 12.7769C36.2143 13.3083 36.5404 13.87 36.8303 14.4498Z" fill="black"/>
<mask id="mask1_205_1277" style="mask-type:luminance" maskUnits="userSpaceOnUse" x="16" y="0" width="18" height="17">
<path d="M16.332 0.649414H33.3387V16.5811H16.332V0.649414Z" fill="white"/>
</mask>
<g mask="url(#mask1_205_1277)">
<path d="M24.9995 15.2644C25.4887 15.2644 25.9658 15.2161 26.4429 15.1194C26.92 15.0288 27.379 14.8899 27.832 14.7088C28.2789 14.5215 28.7016 14.2981 29.1063 14.0324C29.5109 13.7666 29.8854 13.4647 30.2296 13.1204C30.5678 12.7822 30.8758 12.4138 31.1476 12.0152C31.4193 11.6166 31.6428 11.1939 31.83 10.753C32.0172 10.3121 32.1561 9.85315 32.2528 9.38208C32.3434 8.91102 32.3917 8.43995 32.3917 7.95681C32.3917 7.4797 32.3434 7.00259 32.2528 6.53153C32.1561 6.0665 32.0172 5.60751 31.83 5.16664C31.6428 4.71973 31.4193 4.30302 31.1476 3.90442C30.8758 3.49979 30.5678 3.13139 30.2296 2.79319C29.8854 2.45499 29.5109 2.15302 29.1063 1.88729C28.7016 1.62156 28.2789 1.39811 27.832 1.21089C27.379 1.02971 26.92 0.890805 26.4429 0.794176C25.9658 0.703588 25.4887 0.655273 24.9995 0.655273C24.5164 0.655273 24.0333 0.703588 23.5561 0.794176C23.0851 0.890805 22.6201 1.02971 22.1731 1.21089C21.7262 1.39811 21.2974 1.62156 20.8928 1.88729C20.4882 2.15302 20.1137 2.45499 19.7755 2.79319C19.4313 3.13139 19.1233 3.49979 18.8515 3.90442C18.5858 4.30302 18.3563 4.71973 18.1691 5.16664C17.9879 5.60751 17.843 6.0665 17.7524 6.53153C17.6557 7.00259 17.6074 7.4797 17.6074 7.95681C17.6074 8.43995 17.6557 8.91102 17.7524 9.38208C17.849 9.85315 17.9879 10.3121 18.1751 10.753C18.3563 11.1939 18.5858 11.6166 18.8576 12.0152C19.1293 12.4138 19.4313 12.7822 19.7755 13.1204C20.1198 13.4586 20.4942 13.7606 20.8928 14.0263C21.2974 14.2981 21.7262 14.5215 22.1731 14.7027C22.6201 14.8899 23.0851 15.0288 23.5561 15.1194C24.0333 15.2161 24.5164 15.2644 24.9995 15.2644ZM21.7142 9.58138C21.7142 9.36397 21.7564 9.15863 21.841 8.95933C21.9255 8.76003 22.0403 8.58489 22.1973 8.43391C22.3483 8.28293 22.5295 8.16214 22.7288 8.08363C22.9281 7.99908 23.1394 7.95681 23.3569 7.95681H24.9995C24.7278 7.95681 24.4681 7.90849 24.2144 7.80582C23.9608 7.70315 23.7434 7.55217 23.5501 7.36495C23.3569 7.17169 23.2059 6.95428 23.1032 6.70667C23.0005 6.45906 22.9462 6.19936 22.9462 5.9276C22.9462 5.66187 23.0005 5.40217 23.1032 5.15456C23.2059 4.90695 23.3569 4.6835 23.5501 4.49628C23.7434 4.30302 23.9608 4.15808 24.2144 4.05541C24.4681 3.95274 24.7278 3.90442 24.9995 3.90442C25.2713 3.90442 25.537 3.95274 25.7847 4.05541C26.0383 4.15808 26.2618 4.30302 26.455 4.49628C26.6422 4.6835 26.7932 4.90695 26.8959 5.15456C27.0046 5.40217 27.0529 5.66187 27.0529 5.9276C27.0529 6.19936 27.0046 6.45906 26.8959 6.70667C26.7932 6.95428 26.6422 7.17169 26.455 7.36495C26.2618 7.55217 26.0383 7.70315 25.7847 7.80582C25.537 7.90849 25.2713 7.95681 24.9995 7.95681H26.6422C26.8597 7.95681 27.071 7.99908 27.2703 8.08363C27.4757 8.16214 27.6508 8.28293 27.8018 8.43391C27.9588 8.58489 28.0796 8.76003 28.1581 8.95933C28.2427 9.15863 28.2849 9.36397 28.2849 9.58138V12.6131C27.8018 12.9453 27.2824 13.1989 26.7207 13.3741C26.1651 13.5492 25.5914 13.6398 24.9995 13.6398C24.4137 13.6398 23.84 13.5492 23.2783 13.3741C22.7167 13.1989 22.1973 12.9453 21.7142 12.6131V9.58138Z" fill="black"/>
</g>
<mask id="mask2_205_1277" style="mask-type:luminance" maskUnits="userSpaceOnUse" x="28" y="19" width="17" height="17">
<path d="M28.7012 19.6743H44.7114V35.135H28.7012V19.6743Z" fill="white"/>
</mask>
<g mask="url(#mask2_205_1277)">
<path d="M37.3199 20.1333C36.8367 20.1333 36.3536 20.1816 35.8765 20.2722C35.4054 20.3688 34.9404 20.5017 34.4935 20.6889C34.0465 20.8701 33.6178 21.0936 33.2131 21.3653C32.8085 21.6311 32.4341 21.933 32.0958 22.2712C31.7516 22.6094 31.4436 22.9778 31.1718 23.3764C30.9061 23.775 30.6766 24.1978 30.4894 24.6386C30.3082 25.0855 30.1633 25.5385 30.0727 26.0096C29.976 26.4806 29.9277 26.9577 29.9277 27.4348C29.9277 27.9119 29.976 28.389 30.0727 28.8601C30.1633 29.3312 30.3082 29.7841 30.4894 30.231C30.6766 30.6719 30.9061 31.0947 31.1718 31.4933C31.4436 31.8918 31.7516 32.2602 32.0958 32.5984C32.4341 32.9367 32.8085 33.2386 33.2131 33.5104C33.6178 33.7761 34.0465 33.9996 34.4935 34.1807C34.9404 34.368 35.4054 34.5069 35.8765 34.5975C36.3536 34.6941 36.8367 34.7364 37.3199 34.7364C37.809 34.7364 38.2861 34.6941 38.7633 34.5975C39.2404 34.5069 39.6993 34.368 40.1523 34.1807C40.5992 33.9996 41.022 33.7761 41.4266 33.5104C41.8312 33.2386 42.2057 32.9367 42.5499 32.5984C42.8881 32.2602 43.1961 31.8918 43.4679 31.4933C43.7396 31.0947 43.9631 30.6719 44.1503 30.231C44.3375 29.7841 44.4764 29.3312 44.5731 28.8601C44.6637 28.389 44.712 27.9119 44.712 27.4348C44.712 26.9577 44.6637 26.4806 44.5731 26.0096C44.4764 25.5385 44.3375 25.0855 44.1503 24.6386C43.9631 24.1978 43.7396 23.775 43.4679 23.3764C43.1961 22.9778 42.8881 22.6094 42.5499 22.2712C42.2057 21.933 41.8312 21.6311 41.4266 21.3653C41.022 21.0936 40.5992 20.8701 40.1523 20.6889C39.6993 20.5017 39.2404 20.3688 38.7633 20.2722C38.2861 20.1816 37.809 20.1333 37.3199 20.1333ZM37.3199 31.4933C37.0964 31.4933 36.9031 31.4147 36.7401 31.2517C36.577 31.0947 36.4985 30.9074 36.4985 30.6779C36.4985 30.4545 36.577 30.2673 36.7401 30.1042C36.9031 29.9472 37.0964 29.8687 37.3199 29.8687C37.5494 29.8687 37.7426 29.9472 37.8996 30.1042C38.0627 30.2673 38.1412 30.4545 38.1412 30.6779C38.1412 30.9074 38.0627 31.0947 37.8996 31.2517C37.7426 31.4147 37.5494 31.4933 37.3199 31.4933ZM38.6425 28.9084C38.4794 28.7091 38.2861 28.5521 38.0567 28.4434C37.8211 28.3347 37.5795 28.2803 37.3199 28.2803C37.0662 28.2803 36.8186 28.3347 36.5891 28.4434C36.3536 28.5521 36.1603 28.7091 35.9972 28.9084L34.6686 27.9603C34.8196 27.7549 34.9947 27.5677 35.188 27.3986C35.3873 27.2355 35.5987 27.0906 35.8342 26.9758C36.0637 26.8611 36.3053 26.7705 36.5529 26.7101C36.8065 26.6558 37.0602 26.6256 37.3199 26.6256C37.5795 26.6256 37.8332 26.6558 38.0869 26.7101C38.3405 26.7705 38.5821 26.8611 38.8116 26.9758C39.0411 27.0906 39.2524 27.2355 39.4517 27.3986C39.645 27.5677 39.8201 27.7549 39.9772 27.9603L38.6425 28.9084ZM41.2877 26.9879C41.0582 26.6799 40.7985 26.4021 40.5026 26.1545C40.2127 25.9069 39.8926 25.6955 39.5484 25.5264C39.1981 25.3513 38.8418 25.2244 38.4673 25.1339C38.0868 25.0433 37.7064 25.001 37.3199 25.001C36.9333 25.001 36.5529 25.0433 36.1784 25.1339C35.804 25.2244 35.4416 25.3513 35.0974 25.5264C34.7531 25.6955 34.4331 25.9069 34.1371 26.1545C33.8412 26.4021 33.5815 26.6799 33.352 26.9879L32.0234 26.0337C32.3314 25.623 32.6817 25.2486 33.0742 24.9225C33.4668 24.5903 33.8895 24.3125 34.3546 24.077C34.8135 23.8475 35.2906 23.6723 35.7919 23.5576C36.2992 23.4368 36.8065 23.3764 37.3199 23.3764C37.8392 23.3764 38.3465 23.4368 38.8478 23.5576C39.3491 23.6723 39.8322 23.8475 40.2912 24.077C40.7502 24.3125 41.179 24.5903 41.5715 24.9225C41.9641 25.2486 42.3144 25.623 42.6163 26.0337L41.2877 26.9879Z" fill="black"/>
</g>
<mask id="mask3_205_1277" style="mask-type:luminance" maskUnits="userSpaceOnUse" x="13" y="38" width="32" height="12">
<path d="M13.2402 38.2266H44.1615V49.351H13.2402V38.2266Z" fill="white"/>
</mask>
<g mask="url(#mask3_205_1277)">
<path d="M22.9394 47.9558L28.6284 49.3328L34.4382 48.1853L42.8148 43.8068C43.0986 43.6558 43.2919 43.4263 43.3945 43.1243C43.5032 42.8284 43.4912 42.5325 43.3643 42.2366C43.2375 41.9467 43.0261 41.7353 42.7362 41.6024C42.4403 41.4696 42.1444 41.4514 41.8364 41.5481L33.8584 44.1752H30.3738L26.8891 43.0277L31.8594 41.687C32.2641 41.5783 32.5721 41.3548 32.7895 40.9985C33.0129 40.6482 33.0794 40.2738 32.9948 39.8691C32.9103 39.4645 32.6929 39.1444 32.3547 38.9089C32.0104 38.6734 31.636 38.5828 31.2193 38.6432L24.57 39.5853L21.7798 40.6663C20.8135 41.0408 19.811 41.228 18.7722 41.228H14.6172V47.7203H20.9766C21.6409 47.7203 22.2932 47.7988 22.9394 47.9558Z" fill="black"/>
</g>
<mask id="mask4_205_1277" style="mask-type:luminance" maskUnits="userSpaceOnUse" x="5" y="38" width="9" height="12">
<path d="M5.51367 38.2266H13.244V49.351H5.51367V38.2266Z" fill="white"/>
</mask>
<g mask="url(#mask4_205_1277)">
<path d="M6.40625 39.6035V49.3449H12.1194C12.3489 49.3449 12.5422 49.2664 12.6992 49.1034C12.8623 48.9463 12.9408 48.7591 12.9408 48.5296V40.4188C12.9408 40.1954 12.8623 40.0021 12.6992 39.8451C12.5422 39.6881 12.3489 39.6035 12.1194 39.6035H6.40625ZM10.513 46.8749H8.87029V45.2503H10.513V46.8749Z" fill="black"/>
</g>
</svg>
