<svg width="50" height="50" viewBox="0 0 50 50" fill="none" xmlns="http://www.w3.org/2000/svg">
<mask id="mask0_205_1359" style="mask-type:luminance" maskUnits="userSpaceOnUse" x="25" y="12" width="25" height="30">
<path d="M25.6699 12.6782H49.1419V41.9396H25.6699V12.6782Z" fill="white"/>
</mask>
<g mask="url(#mask0_205_1359)">
<path d="M49.0892 34.3611L40.9794 13.5638C40.8309 13.1752 40.3908 12.9866 40.0079 13.1352L26.2059 18.4331C25.8173 18.5817 25.6287 19.0103 25.7772 19.3989C25.9316 19.7818 26.3659 19.9761 26.7545 19.8218L39.8479 14.7983L47.4147 34.2011L31.8181 40.1905C31.4295 40.3391 31.2409 40.7677 31.3895 41.1564C31.4981 41.4478 31.7895 41.6307 32.0867 41.6307C32.1782 41.6307 32.2753 41.6193 32.3611 41.585L48.6606 35.3212C48.8492 35.2526 48.9977 35.1155 49.0778 34.9326C49.1578 34.7497 49.1635 34.544 49.0892 34.3611Z" fill="black"/>
</g>
<path d="M42.9897 30.4292C43.3783 30.2806 43.5669 29.8462 43.4183 29.4633L40.1036 20.9706C40.035 20.7878 39.8921 20.6335 39.7035 20.5592C39.5263 20.4734 39.3206 20.4734 39.132 20.542C38.0004 20.9706 36.7259 20.4163 36.2916 19.2961C36.1373 18.9132 35.7029 18.7246 35.3143 18.8675L30.0507 20.8906C29.662 21.0392 29.4677 21.4736 29.6163 21.8565C29.7706 22.2394 30.205 22.4337 30.5936 22.2851L35.2286 20.502C36.023 21.7308 37.4975 22.3709 38.9434 22.1308L41.7667 29.3776C41.1666 29.7605 40.6922 30.3149 40.3893 30.9778C40.0978 31.6465 40.0064 32.3609 40.1264 33.0638L31.8166 36.2529C31.428 36.4072 31.2394 36.8358 31.388 37.2244C31.4966 37.5159 31.7881 37.6988 32.0853 37.6988C32.1767 37.6988 32.2739 37.6816 32.3596 37.6473L41.3037 34.2126C41.4866 34.144 41.6352 34.0011 41.7152 33.8182C41.8009 33.6411 41.8009 33.4353 41.7267 33.2524C41.2923 32.1265 41.8581 30.8635 42.9897 30.4292Z" fill="black"/>
<mask id="mask1_205_1359" style="mask-type:luminance" maskUnits="userSpaceOnUse" x="19" y="3" width="17" height="16">
<path d="M19.8164 3.05371H35.9102V18.5302H19.8164V3.05371Z" fill="white"/>
</mask>
<g mask="url(#mask1_205_1359)">
<path d="M23.8071 17.3472C23.9271 17.4158 24.0586 17.4501 24.19 17.4501C24.4472 17.4501 24.693 17.3186 24.8359 17.0843C25.0473 16.73 24.933 16.2728 24.573 16.0613C22.6984 14.9697 21.5382 12.9523 21.5382 10.8034C21.5382 7.43719 24.2929 4.69965 27.682 4.69965C31.0768 4.69965 33.8314 7.43719 33.8314 10.8034C33.8314 11.4892 33.7171 12.1636 33.4942 12.8037C33.3571 13.1923 33.5628 13.6152 33.9572 13.7524C34.3515 13.8896 34.7801 13.6838 34.9173 13.2895C35.1973 12.4951 35.3345 11.6549 35.3345 10.8034C35.3345 6.61421 31.9054 3.20801 27.682 3.20801C23.4642 3.20801 20.0352 6.61421 20.0352 10.8034C20.0352 13.4781 21.4811 15.987 23.8071 17.3472Z" fill="black"/>
</g>
<path d="M26.8752 8.75185H28.3039C28.664 8.75185 28.9555 9.04332 28.9555 9.40338C28.9555 9.81486 29.2926 10.1521 29.7099 10.1521C30.1271 10.1521 30.4642 9.81486 30.4642 9.40338C30.4642 8.23178 29.5155 7.28307 28.3439 7.26593V6.35722C28.3439 5.94574 28.0067 5.61426 27.5895 5.61426C27.1723 5.61426 26.8352 5.94574 26.8352 6.35722V7.26593C25.6636 7.28307 24.7148 8.23178 24.7148 9.40338C24.7148 10.5864 25.6807 11.5465 26.8752 11.5465H28.3039C28.664 11.5465 28.9555 11.838 28.9555 12.1981C28.9555 12.5581 28.664 12.8496 28.3039 12.8496H26.8752C26.5151 12.8496 26.2179 12.5581 26.2179 12.1981C26.2179 11.7866 25.8807 11.4494 25.4692 11.4494C25.052 11.4494 24.7148 11.7866 24.7148 12.1981C24.7148 13.3697 25.6636 14.3184 26.8352 14.3355V15.2442C26.8352 15.6557 27.1723 15.9929 27.5895 15.9929C28.0067 15.9929 28.3439 15.6557 28.3439 15.2442V14.3355C29.5155 14.3184 30.4642 13.3697 30.4642 12.1981C30.4642 11.015 29.4927 10.0549 28.3039 10.0549H26.8752C26.5151 10.0549 26.2179 9.76343 26.2179 9.40338C26.2179 9.04332 26.5151 8.75185 26.8752 8.75185Z" fill="black"/>
<mask id="mask2_205_1359" style="mask-type:luminance" maskUnits="userSpaceOnUse" x="2" y="27" width="29" height="20">
<path d="M2.25781 27.3086H30.0561V46.9457H2.25781V27.3086Z" fill="white"/>
</mask>
<g mask="url(#mask2_205_1359)">
<path d="M29.1546 28.5601C28.7317 28.5601 28.4002 28.8915 28.4002 29.303V45.2996H5.21973V29.303C5.21973 28.8915 4.88253 28.5601 4.46533 28.5601C4.04813 28.5601 3.71094 28.8915 3.71094 29.303V46.0426C3.71094 46.4541 4.04813 46.7913 4.46533 46.7913H29.1546C29.5661 46.7913 29.9033 46.4541 29.9033 46.0426V29.303C29.9033 28.8915 29.5661 28.5601 29.1546 28.5601Z" fill="black"/>
</g>
<mask id="mask3_205_1359" style="mask-type:luminance" maskUnits="userSpaceOnUse" x="0" y="17" width="33" height="11">
<path d="M0.859375 17.0674H32.984V27.3089H0.859375V17.0674Z" fill="white"/>
</mask>
<g mask="url(#mask3_205_1359)">
<path d="M3.50002 25.7375L16.8105 19.0108L30.121 25.7375H3.50002ZM32.6242 26.3318C32.75 25.8061 32.4985 25.2631 32.0127 25.0174L17.1477 17.5077C16.9362 17.3991 16.6848 17.3991 16.4676 17.5077L1.60832 25.0174C1.11682 25.2631 0.865351 25.8061 0.991083 26.3318C1.12253 26.8633 1.59117 27.2348 2.13982 27.2348H31.4755C32.0241 27.2348 32.4985 26.8633 32.6242 26.3318Z" fill="black"/>
</g>
<path d="M17.6965 22.7424C17.6965 23.2282 17.3021 23.6225 16.8106 23.6225C16.3191 23.6225 15.9248 23.2282 15.9248 22.7424C15.9248 22.2623 16.3191 21.8622 16.8106 21.8622C17.3021 21.8622 17.6965 22.2623 17.6965 22.7424ZM14.416 22.7424C14.416 24.0511 15.4905 25.1141 16.8106 25.1141C18.1251 25.1141 19.1996 24.0511 19.1996 22.7424C19.1996 21.4336 18.1251 20.3706 16.8106 20.3706C15.4905 20.3706 14.416 21.4336 14.416 22.7424Z" fill="black"/>
<path d="M10.9123 31.3264V41.4307C10.9123 42.1223 10.3465 42.6823 9.65493 42.6823C8.95769 42.6823 8.3976 42.1223 8.3976 41.4307V31.3264C8.3976 30.6406 8.95769 30.0805 9.65493 30.0805C10.3465 30.0805 10.9123 30.6406 10.9123 31.3264ZM6.89453 31.3264V41.4307C6.89453 42.9452 8.13471 44.174 9.65493 44.174C11.1809 44.174 12.4153 42.9452 12.4153 41.4307V31.3264C12.4153 29.8176 11.1809 28.5889 9.65493 28.5889C8.13471 28.5889 6.89453 29.8176 6.89453 31.3264Z" fill="black"/>
<path d="M18.0958 31.3264V41.4307C18.0958 42.1223 17.5358 42.6823 16.8442 42.6823C16.1527 42.6823 15.5869 42.1223 15.5869 41.4307V31.3264C15.5869 30.6406 16.1527 30.0805 16.8442 30.0805C17.5358 30.0805 18.0958 30.6406 18.0958 31.3264ZM14.0781 31.3264V41.4307C14.0781 42.9452 15.3183 44.174 16.8442 44.174C18.3645 44.174 19.6046 42.9452 19.6046 41.4307V31.3264C19.6046 29.8176 18.3645 28.5889 16.8442 28.5889C15.3183 28.5889 14.0781 29.8176 14.0781 31.3264Z" fill="black"/>
<path d="M25.2873 31.3264V41.4307C25.2873 42.1223 24.7272 42.6823 24.0356 42.6823C23.3384 42.6823 22.7726 42.1223 22.7726 41.4307V31.3264C22.7726 30.6406 23.3384 30.0805 24.0356 30.0805C24.7272 30.0805 25.2873 30.6406 25.2873 31.3264ZM21.2695 31.3264V41.4307C21.2695 42.9452 22.5097 44.174 24.0356 44.174C25.5559 44.174 26.796 42.9452 26.796 41.4307V31.3264C26.796 29.8176 25.5559 28.5889 24.0356 28.5889C22.5097 28.5889 21.2695 29.8176 21.2695 31.3264Z" fill="black"/>
</svg>
