<svg width="67" height="67" viewBox="0 0 67 67" fill="none" xmlns="http://www.w3.org/2000/svg">
<g clip-path="url(#clip0_1045_667)">
<g clip-path="url(#clip1_1045_667)">
<mask id="mask0_1045_667" style="mask-type:luminance" maskUnits="userSpaceOnUse" x="34" y="20" width="24" height="31">
<path d="M34.1074 20.9891H57.5794V50.2505H34.1074V20.9891Z" fill="white"/>
</mask>
<g mask="url(#mask0_1045_667)">
<path d="M57.5267 42.6721L49.4169 21.8748C49.2684 21.4862 48.8283 21.2976 48.4454 21.4462L34.6434 26.7441C34.2548 26.8927 34.0662 27.3213 34.2147 27.71C34.3691 28.0929 34.8034 28.2872 35.192 28.1329L48.2854 23.1093L55.8522 42.5121L40.2556 48.5015C39.867 48.6501 39.6784 49.0788 39.827 49.4674C39.9356 49.7589 40.227 49.9417 40.5242 49.9417C40.6157 49.9417 40.7128 49.9303 40.7986 49.896L57.0981 43.6323C57.2867 43.5637 57.4352 43.4265 57.5153 43.2436C57.5953 43.0607 57.601 42.855 57.5267 42.6721Z" fill="black"/>
</g>
<path d="M51.4282 38.7403C51.8168 38.5917 52.0054 38.1573 51.8568 37.7744L48.542 29.2817C48.4735 29.0989 48.3306 28.9446 48.142 28.8703C47.9648 28.7845 47.7591 28.7845 47.5705 28.8531C46.4389 29.2817 45.1644 28.7274 44.7301 27.6072C44.5757 27.2243 44.1414 27.0357 43.7528 27.1786L38.4892 29.2017C38.1005 29.3503 37.9062 29.7847 38.0548 30.1676C38.2091 30.5505 38.6435 30.7448 39.0321 30.5962L43.667 28.8131C44.4614 30.0419 45.9359 30.6819 47.3819 30.4419L50.2051 37.6887C49.605 38.0716 49.1307 38.626 48.8278 39.2889C48.5363 39.9576 48.4449 40.672 48.5649 41.3749L40.2551 44.564C39.8665 44.7183 39.6779 45.1469 39.8265 45.5355C39.9351 45.827 40.2265 46.0099 40.5237 46.0099C40.6152 46.0099 40.7123 45.9927 40.7981 45.9584L49.7422 42.5237C49.9251 42.4551 50.0737 42.3122 50.1537 42.1293C50.2394 41.9521 50.2394 41.7464 50.1651 41.5635C49.7308 40.4376 50.2966 39.1746 51.4282 38.7403Z" fill="black"/>
<mask id="mask1_1045_667" style="mask-type:luminance" maskUnits="userSpaceOnUse" x="28" y="11" width="17" height="16">
<path d="M28.2539 11.3647H44.3477V26.8412H28.2539V11.3647Z" fill="white"/>
</mask>
<g mask="url(#mask1_1045_667)">
<path d="M32.2437 25.6582C32.3637 25.7267 32.4951 25.761 32.6266 25.761C32.8837 25.761 33.1295 25.6296 33.2724 25.3953C33.4838 25.0409 33.3695 24.5837 33.0095 24.3723C31.1349 23.2807 29.9748 21.2632 29.9748 19.1144C29.9748 15.7482 32.7294 13.0106 36.1185 13.0106C39.5133 13.0106 42.268 15.7482 42.268 19.1144C42.268 19.8002 42.1537 20.4746 41.9308 21.1147C41.7936 21.5033 41.9993 21.9262 42.3937 22.0634C42.788 22.2005 43.2167 21.9948 43.3538 21.6004C43.6339 20.806 43.771 19.9659 43.771 19.1144C43.771 14.9252 40.342 11.519 36.1185 11.519C31.9007 11.519 28.4717 14.9252 28.4717 19.1144C28.4717 21.789 29.9176 24.298 32.2437 25.6582Z" fill="black"/>
</g>
<path d="M35.3117 17.0628H36.7405C37.1005 17.0628 37.392 17.3543 37.392 17.7143C37.392 18.1258 37.7292 18.463 38.1464 18.463C38.5636 18.463 38.9008 18.1258 38.9008 17.7143C38.9008 16.5427 37.9521 15.594 36.7805 15.5769V14.6682C36.7805 14.2567 36.4433 13.9252 36.0261 13.9252C35.6089 13.9252 35.2717 14.2567 35.2717 14.6682V15.5769C34.1001 15.594 33.1514 16.5427 33.1514 17.7143C33.1514 18.8973 34.1172 19.8575 35.3117 19.8575H36.7405C37.1005 19.8575 37.392 20.149 37.392 20.509C37.392 20.8691 37.1005 21.1605 36.7405 21.1605H35.3117C34.9516 21.1605 34.6544 20.8691 34.6544 20.509C34.6544 20.0975 34.3172 19.7603 33.9058 19.7603C33.4886 19.7603 33.1514 20.0975 33.1514 20.509C33.1514 21.6806 34.1001 22.6293 35.2717 22.6465V23.5552C35.2717 23.9667 35.6089 24.3038 36.0261 24.3038C36.4433 24.3038 36.7805 23.9667 36.7805 23.5552V22.6465C37.9521 22.6293 38.9008 21.6806 38.9008 20.509C38.9008 19.326 37.9292 18.3658 36.7405 18.3658H35.3117C34.9516 18.3658 34.6544 18.0744 34.6544 17.7143C34.6544 17.3543 34.9516 17.0628 35.3117 17.0628Z" fill="black"/>
<mask id="mask2_1045_667" style="mask-type:luminance" maskUnits="userSpaceOnUse" x="10" y="35" width="29" height="21">
<path d="M10.6963 35.6198H38.4946V55.2569H10.6963V35.6198Z" fill="white"/>
</mask>
<g mask="url(#mask2_1045_667)">
<path d="M37.5931 36.8714C37.1702 36.8714 36.8387 37.2029 36.8387 37.6144V53.611H13.6582V37.6144C13.6582 37.2029 13.321 36.8714 12.9038 36.8714C12.4866 36.8714 12.1494 37.2029 12.1494 37.6144V54.3539C12.1494 54.7654 12.4866 55.1026 12.9038 55.1026H37.5931C38.0046 55.1026 38.3418 54.7654 38.3418 54.3539V37.6144C38.3418 37.2029 38.0046 36.8714 37.5931 36.8714Z" fill="black"/>
</g>
<mask id="mask3_1045_667" style="mask-type:luminance" maskUnits="userSpaceOnUse" x="9" y="25" width="33" height="11">
<path d="M9.29688 25.3782H41.4215V35.6197H9.29688V25.3782Z" fill="white"/>
</mask>
<g mask="url(#mask3_1045_667)">
<path d="M11.9375 34.048L25.248 27.3214L38.5585 34.048H11.9375ZM41.0617 34.6424C41.1875 34.1166 40.936 33.5737 40.4502 33.3279L25.5852 25.8183C25.3737 25.7097 25.1223 25.7097 24.9051 25.8183L10.0458 33.3279C9.55432 33.5737 9.30285 34.1166 9.42858 34.6424C9.56003 35.1739 10.0287 35.5454 10.5773 35.5454H39.913C40.4616 35.5454 40.936 35.1739 41.0617 34.6424Z" fill="black"/>
</g>
<path d="M26.134 31.0534C26.134 31.5392 25.7396 31.9335 25.2481 31.9335C24.7566 31.9335 24.3623 31.5392 24.3623 31.0534C24.3623 30.5733 24.7566 30.1733 25.2481 30.1733C25.7396 30.1733 26.134 30.5733 26.134 31.0534ZM22.8535 31.0534C22.8535 32.3622 23.928 33.4252 25.2481 33.4252C26.5626 33.4252 27.6371 32.3622 27.6371 31.0534C27.6371 29.7447 26.5626 28.6816 25.2481 28.6816C23.928 28.6816 22.8535 29.7447 22.8535 31.0534Z" fill="black"/>
<path d="M19.3507 39.6375V49.7418C19.3507 50.4333 18.7849 50.9934 18.0934 50.9934C17.3962 50.9934 16.8361 50.4333 16.8361 49.7418V39.6375C16.8361 38.9517 17.3962 38.3916 18.0934 38.3916C18.7849 38.3916 19.3507 38.9517 19.3507 39.6375ZM15.333 39.6375V49.7418C15.333 51.2563 16.5732 52.4851 18.0934 52.4851C19.6193 52.4851 20.8538 51.2563 20.8538 49.7418V39.6375C20.8538 38.1287 19.6193 36.9 18.0934 36.9C16.5732 36.9 15.333 38.1287 15.333 39.6375Z" fill="black"/>
<path d="M26.5343 39.6375V49.7418C26.5343 50.4333 25.9742 50.9934 25.2827 50.9934C24.5912 50.9934 24.0254 50.4333 24.0254 49.7418V39.6375C24.0254 38.9517 24.5912 38.3916 25.2827 38.3916C25.9742 38.3916 26.5343 38.9517 26.5343 39.6375ZM22.5166 39.6375V49.7418C22.5166 51.2563 23.7568 52.4851 25.2827 52.4851C26.8029 52.4851 28.0431 51.2563 28.0431 49.7418V39.6375C28.0431 38.1287 26.8029 36.9 25.2827 36.9C23.7568 36.9 22.5166 38.1287 22.5166 39.6375Z" fill="black"/>
<path d="M33.7238 39.6375V49.7418C33.7238 50.4333 33.1637 50.9934 32.4722 50.9934C31.7749 50.9934 31.2091 50.4333 31.2091 49.7418V39.6375C31.2091 38.9517 31.7749 38.3916 32.4722 38.3916C33.1637 38.3916 33.7238 38.9517 33.7238 39.6375ZM29.7061 39.6375V49.7418C29.7061 51.2563 30.9462 52.4851 32.4722 52.4851C33.9924 52.4851 35.2326 51.2563 35.2326 49.7418V39.6375C35.2326 38.1287 33.9924 36.9 32.4722 36.9C30.9462 36.9 29.7061 38.1287 29.7061 39.6375Z" fill="black"/>
</g>
</g>
<defs>
<clipPath id="clip0_1045_667">
<rect width="65.8381" height="65.8381" fill="white" transform="translate(0.456055 0.506165)"/>
</clipPath>
<clipPath id="clip1_1045_667">
<rect width="65.8381" height="65.8381" fill="white" transform="translate(0.456055 0.506165)"/>
</clipPath>
</defs>
</svg>
