<?xml version="1.0" encoding="utf-8"?>
<!-- Generator: Adobe Illustrator 26.0.1, SVG Export Plug-In . SVG Version: 6.00 Build 0)  -->
<svg version="1.1" id="Layer_1" xmlns="http://www.w3.org/2000/svg" xmlns:xlink="http://www.w3.org/1999/xlink" x="0px" y="0px"
	 viewBox="0 0 90 90" style="enable-background:new 0 0 90 90;" xml:space="preserve">
<style type="text/css">
	.st0{fill:#1F475C;}
</style>
<g id="_x31_162_x2C__Bath_x2C__Plunger_x2C__Bathroom">
	<g>
		<path class="st0" d="M32.79,62.44h3.49v3.49h-3.49V62.44z"/>
		<path class="st0" d="M39.77,62.44h3.49v3.49h-3.49V62.44z"/>
		<path class="st0" d="M46.74,62.44h3.49v3.49h-3.49V62.44z"/>
		<path class="st0" d="M53.72,62.44h3.49v3.49h-3.49L53.72,62.44z"/>
		<path class="st0" d="M85.11,83.36H74.65V71.16c0-0.96-0.78-1.74-1.74-1.74h-5.23V58.95c0-0.3-0.08-0.6-0.23-0.87l-6.98-12.21
			C60.15,45.34,59.58,45,58.95,45h-5.23V4.89c0-0.96-0.78-1.74-1.74-1.74H38.03c-0.96,0-1.74,0.78-1.74,1.74V45h-5.23
			c-0.63,0-1.2,0.34-1.51,0.88l-6.98,12.21c-0.15,0.26-0.23,0.56-0.23,0.87v10.46H17.1c-0.96,0-1.74,0.78-1.74,1.74v12.21H4.89
			c-0.96,0-1.74,0.78-1.74,1.74c0,0.96,0.78,1.74,1.74,1.74h80.21c0.96,0,1.74-0.78,1.74-1.74C86.85,84.14,86.07,83.36,85.11,83.36
			L85.11,83.36z M39.77,6.64h10.46V45H39.77V6.64z M25.82,59.41l6.24-10.93h25.88l6.24,10.93v10H25.82L25.82,59.41z M18.84,83.36
			v-3.49h33.13c0.96,0,1.74-0.78,1.74-1.74c0-0.96-0.78-1.74-1.74-1.74H18.84V72.9h52.31v10.46L18.84,83.36z"/>
		<path class="st0" d="M74.65,38.02c2.88,0,5.23-2.35,5.23-5.23s-2.35-5.23-5.23-5.23c-2.89,0-5.23,2.35-5.23,5.23
			S71.76,38.02,74.65,38.02z M74.65,31.05c0.96,0,1.74,0.78,1.74,1.74s-0.78,1.74-1.74,1.74c-0.96,0-1.74-0.78-1.74-1.74
			C72.9,31.83,73.68,31.05,74.65,31.05z"/>
		<path class="st0" d="M13.61,53.72c2.88,0,5.23-2.35,5.23-5.23c0-2.88-2.35-5.23-5.23-5.23s-5.23,2.35-5.23,5.23
			C8.38,51.37,10.73,53.72,13.61,53.72z M13.61,46.74c0.96,0,1.74,0.78,1.74,1.74c0,0.96-0.78,1.74-1.74,1.74s-1.74-0.78-1.74-1.74
			C11.87,47.53,12.65,46.74,13.61,46.74z"/>
		<path class="st0" d="M18.84,22.33h1.74v1.74c0,0.96,0.78,1.74,1.74,1.74c0.96,0,1.74-0.78,1.74-1.74v-1.74h1.74
			c0.96,0,1.74-0.78,1.74-1.74c0-0.96-0.78-1.74-1.74-1.74h-1.74V17.1c0-0.96-0.78-1.74-1.74-1.74c-0.96,0-1.74,0.78-1.74,1.74v1.74
			h-1.74c-0.96,0-1.74,0.78-1.74,1.74C17.1,21.55,17.88,22.33,18.84,22.33L18.84,22.33z"/>
		<path class="st0" d="M78.13,50.23v-1.74c0-0.96-0.78-1.74-1.74-1.74s-1.74,0.78-1.74,1.74v1.74H72.9c-0.96,0-1.74,0.78-1.74,1.74
			c0,0.96,0.78,1.74,1.74,1.74h1.74v1.74c0,0.96,0.78,1.74,1.74,1.74s1.74-0.78,1.74-1.74v-1.74h1.74c0.96,0,1.74-0.78,1.74-1.74
			c0-0.96-0.78-1.74-1.74-1.74H78.13z"/>
	</g>
</g>
</svg>
