<svg width="136" height="137" viewBox="0 0 136 137" fill="none" xmlns="http://www.w3.org/2000/svg">
<path d="M48.0537 96.7212H53.7071V102.375H48.0537V96.7212Z" fill="#1D465C"/>
<path d="M59.3594 96.7212H65.0127V102.375H59.3594V96.7212Z" fill="#1D465C"/>
<path d="M70.667 96.7212H76.3204V102.375H70.667V96.7212Z" fill="#1D465C"/>
<path d="M81.9746 96.7212H87.628V102.375H81.9746V96.7212Z" fill="#1D465C"/>
<path d="M132.852 130.642H115.895V110.855C115.895 109.294 114.627 108.028 113.067 108.028H104.588V91.0695C104.588 90.5765 104.458 90.0933 104.215 89.6666L92.9085 69.8798C92.4058 69 91.467 68.456 90.4536 68.456H81.975V3.442C81.975 1.88157 80.7073 0.616699 79.1469 0.616699H56.534C54.9722 0.616699 53.7073 1.88157 53.7073 3.442V68.456H45.2272C44.2122 68.456 43.2759 69 42.7732 69.8798L31.4664 89.6666C31.2222 90.093 31.0935 90.5763 31.0935 91.0695V108.028H22.6135C21.053 108.028 19.7868 109.294 19.7868 110.855V130.642H2.82668C1.26626 130.642 0 131.908 0 133.468C0 135.03 1.26626 136.295 2.82668 136.295H132.852C134.415 136.295 135.68 135.03 135.68 133.468C135.681 131.908 134.415 130.642 132.852 130.642ZM59.3604 6.26868H76.321V68.456H59.3604V6.26868ZM36.7469 91.8192L46.8675 74.1094H88.8128L98.9348 91.8192V108.028H36.7469V91.8192ZM25.4402 130.642V124.988H79.1466C80.707 124.988 81.9747 123.723 81.9747 122.162C81.9747 120.601 80.707 119.335 79.1466 119.335H25.4402V113.682H110.242V130.642H25.4402Z" fill="#1D465C"/>
<path d="M115.895 57.1493C120.57 57.1493 124.373 53.3447 124.373 48.6693C124.373 43.9938 120.57 40.1892 115.895 40.1892C111.216 40.1892 107.413 43.9935 107.413 48.6693C107.413 53.345 111.216 57.1493 115.895 57.1493ZM115.895 45.8423C117.452 45.8423 118.72 47.1099 118.72 48.669C118.72 50.228 117.452 51.4957 115.895 51.4957C114.334 51.4957 113.066 50.228 113.066 48.669C113.066 47.1102 114.334 45.8423 115.895 45.8423Z" fill="#1D465C"/>
<path d="M16.9595 82.5895C21.6353 82.5895 25.4396 78.7852 25.4396 74.1095C25.4396 69.4337 21.6353 65.6294 16.9595 65.6294C12.2838 65.6294 8.47949 69.4337 8.47949 74.1095C8.47949 78.7852 12.2838 82.5895 16.9595 82.5895ZM16.9595 71.2825C18.5186 71.2825 19.7862 72.5501 19.7862 74.1092C19.7862 75.6668 18.5186 76.9359 16.9595 76.9359C15.4005 76.9359 14.1329 75.6668 14.1329 74.1092C14.1329 72.5504 15.4005 71.2825 16.9595 71.2825Z" fill="#1D465C"/>
<path d="M25.44 31.7088H28.2667V34.5355C28.2667 36.0973 29.5329 37.3622 31.0933 37.3622C32.6552 37.3622 33.92 36.0971 33.92 34.5355V31.7088H36.7467C38.3085 31.7088 39.5734 30.444 39.5734 28.8822C39.5734 27.3217 38.3085 26.0555 36.7467 26.0555H33.92V23.2288C33.92 21.6684 32.6552 20.4021 31.0933 20.4021C29.5329 20.4021 28.2667 21.6684 28.2667 23.2288V26.0555H25.44C23.8795 26.0555 22.6133 27.3217 22.6133 28.8822C22.6133 30.444 23.8795 31.7088 25.44 31.7088Z" fill="#1D465C"/>
<path d="M121.548 76.9361V74.1094C121.548 72.5476 120.281 71.2827 118.721 71.2827C117.16 71.2827 115.895 72.5479 115.895 74.1094V76.9361H113.067C111.507 76.9361 110.242 78.2009 110.242 79.7625C110.242 81.3229 111.507 82.5892 113.067 82.5892H115.895V85.4159C115.895 86.9763 117.16 88.2423 118.721 88.2423C120.281 88.2423 121.548 86.9763 121.548 85.4159V82.5892H124.374C125.934 82.5892 127.199 81.3229 127.199 79.7625C127.199 78.2007 125.934 76.9361 124.374 76.9361H121.548Z" fill="#1D465C"/>
</svg>
