<svg width="80" height="80" viewBox="0 0 80 80" fill="none" xmlns="http://www.w3.org/2000/svg">
<circle cx="40" cy="39.999" r="40" fill="#C22032"/>
<g clip-path="url(#clip0_159_1164)">
<path d="M34.7744 51.1422L40.0001 58.9755L45.2257 51.1422H55.6771C56.37 51.1422 57.0346 50.8669 57.5246 50.3769C58.0146 49.8869 58.2899 49.2223 58.2899 48.5293V25.0321C58.2899 24.6891 58.2223 24.3495 58.091 24.0326C57.9596 23.7157 57.7671 23.4279 57.5245 23.1855C57.2818 22.9431 56.9937 22.7508 56.6768 22.6198C56.3598 22.4888 56.0201 22.4215 55.6771 22.4219H24.323C23.6301 22.4219 22.9655 22.6972 22.4755 23.1872C21.9855 23.6772 21.7102 24.3417 21.7102 25.0347V48.5319C21.7102 49.2249 21.9855 49.8895 22.4755 50.3795C22.9655 50.8695 23.6301 51.1448 24.323 51.1448H34.7744V51.1422Z" stroke="white" stroke-width="2.61284" stroke-linecap="square" stroke-linejoin="round"/>
<circle cx="40.0001" cy="31.8619" r="3.25452" stroke="white" stroke-width="1.54127"/>
<path d="M32.6113 44.2844C32.6113 40.2036 35.9194 36.8955 40.0002 36.8955V36.8955C44.081 36.8955 47.3892 40.2036 47.3892 44.2844V44.7659H32.6113V44.2844Z" stroke="white" stroke-width="1.54127"/>
</g>
<defs>
<clipPath id="clip0_159_1164">
<rect width="39.1925" height="39.1925" fill="white" transform="translate(20.404 21.1133)"/>
</clipPath>
</defs>
</svg>
