<?xml version="1.0" encoding="utf-8"?>
<!-- Generator: Adobe Illustrator 26.0.1, SVG Export Plug-In . SVG Version: 6.00 Build 0)  -->
<svg version="1.1" id="Layer_1" xmlns="http://www.w3.org/2000/svg" xmlns:xlink="http://www.w3.org/1999/xlink" x="0px" y="0px"
	 viewBox="0 0 90 90" style="enable-background:new 0 0 90 90;" xml:space="preserve">
<style type="text/css">
	.st0{fill:#DAD9D9;}
	.st1{fill:#8BAFDC;}
</style>
<path class="st0" d="M66.08,60.82c0,0.9-0.73,1.62-1.62,1.62c-0.9,0-1.62-0.73-1.62-1.62s0.73-1.62,1.62-1.62
	C65.35,59.2,66.08,59.93,66.08,60.82z"/>
<path class="st1" d="M84.89,4.07H5.11c-0.9,0-1.62,0.73-1.62,1.62v9.73c0,0.9,0.73,1.62,1.62,1.62h1.62v67.27
	c0,0.9,0.73,1.62,1.62,1.62h73.29c0.9,0,1.62-0.73,1.62-1.62V17.04h1.62c0.9,0,1.62-0.73,1.62-1.62V5.69
	C86.51,4.8,85.78,4.07,84.89,4.07z M69.32,36.5H20.68v-3.24h48.65V36.5z M20.68,39.74h48.65v3.24H20.68V39.74z M69.32,30.01H20.68
	v-3.24h48.65V30.01z M20.68,46.23h48.65v36.46H20.68V46.23z M80.02,82.69h-7.46V25.15c0-0.9-0.73-1.62-1.62-1.62H19.06
	c-0.9,0-1.62,0.73-1.62,1.62v57.54H9.98V17.04h70.05V82.69z M83.27,13.8c-3.6,0-72.32,0-76.54,0V7.31h76.54V13.8z"/>
<path class="st0" d="M46.15,49.95c-0.63-0.63-1.65-0.63-2.28-0.01c0,0-0.01,0.01-0.01,0.01l-3.24,3.24c-0.63,0.63-0.63,1.66,0,2.29
	c0.63,0.63,1.66,0.63,2.29,0l0.48-0.47v5.81c0,0.9,0.73,1.62,1.62,1.62s1.62-0.73,1.62-1.62v-5.81l0.48,0.48
	c0.63,0.63,1.66,0.63,2.29,0c0.63-0.63,0.63-1.66,0-2.29L46.15,49.95z"/>
<path class="st0" d="M64.46,49.47c-0.9,0-1.62,0.73-1.62,1.62v3.24c0,0.9,0.73,1.62,1.62,1.62c0.9,0,1.62-0.73,1.62-1.62v-3.24
	C66.08,50.2,65.35,49.47,64.46,49.47z"/>
</svg>
