<svg width="162" height="142" viewBox="0 0 162 142" fill="none" xmlns="http://www.w3.org/2000/svg">
<path d="M159.992 0.067627H4.06991C2.12237 0.067627 0.543945 1.64605 0.543945 3.5936V24.7494C0.543945 26.697 2.12237 28.2754 4.06991 28.2754H7.59588V137.58C7.59588 139.528 9.17431 141.106 11.1219 141.106H152.94C154.888 141.106 156.466 139.528 156.466 137.58V28.2754H159.992C161.94 28.2754 163.518 26.697 163.518 24.7494V3.5936C163.518 1.64605 161.94 0.067627 159.992 0.067627ZM126.143 70.587H37.9192V63.5351H126.143V70.587ZM37.9192 77.639H126.143V84.6909H37.9192V77.639ZM126.143 56.4831H37.9192V49.4312H126.143V56.4831ZM37.9192 91.7428H126.143V134.054H37.9192V91.7428ZM149.414 134.054H133.195V45.9052C133.195 43.9577 131.616 42.3793 129.669 42.3793H34.3932C32.4457 42.3793 30.8673 43.9577 30.8673 45.9052V134.054H14.6478V28.2754H149.414V134.054ZM156.466 21.2234C148.641 21.2234 16.7607 21.2234 7.59588 21.2234V7.11957H156.466V21.2234Z" fill="#81B1FB"/>
</svg>
