<svg width="154" height="154" viewBox="0 0 154 154" fill="none" xmlns="http://www.w3.org/2000/svg">
<g clip-path="url(#clip0_465_2509)">
<path fill-rule="evenodd" clip-rule="evenodd" d="M108.98 93.0135C108.619 93.0135 108.258 92.8331 107.807 92.7428L100.59 88.5929C99.5974 87.9613 99.2365 86.6983 99.6876 85.6157L102.935 80.2027C101.943 78.9397 101.221 77.7669 100.59 76.2332H94.3648C93.1018 76.2332 92.1094 75.2408 92.1094 73.9778V65.5876C92.1094 64.3246 93.1018 63.3322 94.3648 63.3322H100.229C100.5 62.6104 100.86 61.7083 101.311 60.9865C101.853 60.2648 102.214 59.7235 102.575 59.2724L99.5071 53.9496C99.2365 53.4986 99.1463 52.867 99.2365 52.3257C99.3267 51.6942 99.6876 51.3333 100.229 50.9725L107.446 46.7323C107.988 46.4616 108.619 46.3714 109.07 46.4616C109.611 46.6421 110.063 47.0029 110.514 47.454L113.491 52.7768C114.934 52.5062 116.558 52.5062 118.092 52.7768L121.249 47.2736C121.881 46.2812 123.234 45.8301 124.227 46.4616L131.444 50.6116C132.436 51.2431 132.887 52.5062 132.346 53.5888L129.188 59.2724C130.091 60.355 130.812 61.6181 131.444 62.9713H137.939C139.203 62.9713 140.195 63.9637 140.195 65.2267V73.6169C140.195 74.8799 139.203 75.8723 137.939 75.8723H131.444C131.263 76.594 130.812 77.3158 130.361 78.1277C130 78.5788 129.73 79.1201 129.459 79.481L132.887 85.3451C133.068 85.8864 133.248 86.5179 133.068 86.969C132.978 87.5103 132.617 87.9613 132.075 88.3222L124.858 92.5624C124.317 92.8331 123.685 93.0135 123.234 92.8331C122.603 92.7428 122.242 92.382 121.881 91.8407L118.723 86.3374C117.19 86.6081 115.836 86.6081 114.393 86.5179L110.965 92.2015C110.514 92.5624 109.702 93.0135 108.98 93.0135ZM104.83 85.8864L108.348 87.8711L111.326 82.819C111.867 82.0973 112.769 81.6462 113.581 81.8266C115.566 82.2777 117.46 82.0973 119.355 81.6462C120.347 81.3755 121.34 81.7364 121.7 82.6386L124.587 87.6005L128.106 85.6157L125.129 80.3831C124.587 79.5712 124.678 78.4886 125.309 77.8571C125.85 77.3158 126.211 76.7745 126.843 75.6919C127.474 74.8799 127.835 73.7071 128.106 72.9854C128.377 72.0832 129.188 71.4517 130.181 71.4517H136.135V67.4821H130.181C129.188 67.4821 128.467 66.8506 128.106 65.9485C127.474 64.1441 126.482 62.5202 125.219 60.9865C124.587 60.2648 124.497 59.2724 124.948 58.4605L127.745 53.4986L124.136 51.5138L121.249 56.4757C120.708 57.3779 119.716 57.7387 118.814 57.4681C116.829 57.017 114.844 57.017 112.949 57.4681C111.957 57.7387 111.055 57.1974 110.604 56.4757L107.988 51.8746L104.469 53.8594L107.266 58.4605C107.717 59.3626 107.627 60.355 106.995 60.9865C106.454 61.6181 105.822 62.3398 105.191 63.3322C104.74 64.2343 104.379 65.4974 104.018 66.3995C103.747 67.2115 102.845 67.843 101.853 67.843H96.6202V71.9028H102.123C103.116 71.9028 103.838 72.4441 104.198 73.3462C104.83 75.2408 106.003 76.9549 107.356 78.3984C108.078 79.1201 108.258 80.1125 107.717 81.0147L104.83 85.8864Z" fill="black"/>
<path fill-rule="evenodd" clip-rule="evenodd" d="M116.109 78.7593C114.485 78.7593 112.952 78.3984 111.598 77.4962C109.433 76.2332 107.99 74.3387 107.358 71.993C106.727 69.6474 107.087 67.2115 108.35 65.1365C109.614 63.1518 111.508 61.6181 113.854 60.9866C116.199 60.3551 118.635 60.6257 120.71 61.8887C122.875 63.1518 124.319 64.9561 124.95 67.392C125.582 69.7376 125.221 72.0832 123.958 74.2484C122.875 76.3234 120.891 77.8571 118.455 78.4886C117.733 78.5788 117.011 78.7593 116.109 78.7593ZM116.199 64.9561C115.838 64.9561 115.387 64.9561 114.936 65.1365C113.763 65.4974 112.771 66.2191 112.14 67.2115C111.508 68.3843 111.237 69.6474 111.598 70.8202C111.959 72.0832 112.771 73.0756 113.854 73.7071C114.936 74.3387 116.199 74.5191 117.462 74.2484C118.725 73.8876 119.718 73.0756 120.259 72.0832C120.891 71.0006 121.071 69.7376 120.71 68.4746C120.349 67.2115 119.628 66.2191 118.455 65.5876C117.733 65.1365 117.011 64.9561 116.199 64.9561Z" fill="black"/>
<path fill-rule="evenodd" clip-rule="evenodd" d="M151.745 71.9028H137.942C136.678 71.9028 135.686 70.8202 135.686 69.6474C135.686 68.3843 136.678 67.392 137.942 67.392H149.489V19.8477H82.7288V67.392H94.1864C95.4494 67.392 96.4418 68.3843 96.4418 69.6474C96.4418 70.8202 95.4494 71.9028 94.1864 71.9028H80.5636C79.3908 71.9028 78.3984 70.8202 78.3984 69.6474V17.8629C78.3984 16.5999 79.3908 15.6075 80.5636 15.6075H151.745C153.008 15.6075 154 16.5999 154 17.8629V69.7376C153.82 70.8202 152.827 71.9028 151.745 71.9028Z" fill="black"/>
<path fill-rule="evenodd" clip-rule="evenodd" d="M142.36 40.3269H89.9439C88.7711 40.3269 87.6885 39.3345 87.6885 38.1617C87.6885 36.8987 88.7711 35.9063 89.9439 35.9063H142.36C143.623 35.9063 144.615 36.8987 144.615 38.1617C144.615 39.3345 143.442 40.3269 142.36 40.3269Z" fill="black"/>
<path fill-rule="evenodd" clip-rule="evenodd" d="M130.816 29.8618H101.316C100.143 29.8618 99.1504 28.8694 99.1504 27.6064C99.1504 26.3433 100.143 25.3509 101.316 25.3509H130.816C132.08 25.3509 133.072 26.3433 133.072 27.6064C133.072 28.8694 132.08 29.8618 130.816 29.8618Z" fill="black"/>
<path fill-rule="evenodd" clip-rule="evenodd" d="M80.7426 138.393H2.52469C1.26166 138.393 0.269273 137.31 0.269273 136.137C0.269273 134.333 0.269273 132.438 0.0888393 130.454C-0.0915942 122.334 -0.272028 112.951 2.52469 106.095C6.76488 96.0809 16.9594 85.2549 29.5897 85.2549C29.9506 85.2549 30.4017 85.3451 30.7625 85.5256C39.6038 90.5777 43.5733 90.5777 52.5048 85.5256C52.8656 85.2549 53.2265 85.2549 53.5874 85.2549C65.8568 85.2549 76.5024 95.9005 80.5622 106.366C83.3589 112.951 83.0882 122.063 82.998 130.093C82.998 132.258 82.8176 134.243 82.998 136.137C82.998 136.769 82.7274 137.22 82.3665 137.581C82.0056 137.941 81.1937 138.393 80.7426 138.393ZM4.59968 133.972H78.4872C78.4872 132.709 78.4872 131.356 78.4872 130.093C78.5774 122.514 78.7578 113.944 76.5024 108.08C72.8938 99.1483 64.1427 89.9462 54.1287 89.7658C44.3853 95.269 38.7016 95.269 29.1386 89.7658C19.2148 90.1266 10.3735 99.1483 6.76488 107.99C4.32903 113.944 4.50946 122.875 4.78011 130.634C4.59968 131.717 4.59968 132.889 4.59968 133.972Z" fill="#C22032"/>
<path fill-rule="evenodd" clip-rule="evenodd" d="M22.0113 136.859C20.7482 136.859 19.7559 135.866 19.7559 134.603V88.9538C19.7559 87.6907 20.7482 86.6984 22.0113 86.6984C23.2743 86.6984 24.2667 87.6907 24.2667 88.9538V134.603C24.2667 135.866 23.2743 136.859 22.0113 136.859Z" fill="#9BC1DD"/>
<path fill-rule="evenodd" clip-rule="evenodd" d="M61.0777 136.859C59.9049 136.859 58.8223 135.866 58.8223 134.603V88.9538C58.8223 87.6907 59.9049 86.6984 61.0777 86.6984C62.3407 86.6984 63.3331 87.6907 63.3331 88.9538V134.603C63.2429 135.866 62.2505 136.859 61.0777 136.859Z" fill="#9BC1DD"/>
<path fill-rule="evenodd" clip-rule="evenodd" d="M68.1118 50.6116C66.939 50.6116 65.9466 49.7095 65.9466 48.4464C65.4956 37.9813 58.2782 28.9596 47.9033 26.2531C46.7305 25.8922 46.0087 24.7194 46.3696 23.6368C46.7305 22.464 47.9033 21.7423 48.9859 22.1031C61.0749 25.3509 69.6455 35.9965 70.277 48.3562C70.3673 49.529 69.3749 50.5214 68.1118 50.6116ZM14.9742 50.6116C13.7111 50.6116 12.7187 49.529 12.8992 48.3562C13.5307 35.9965 22.0111 25.3509 34.1001 22.1031C35.2729 21.7423 36.4458 22.464 36.7164 23.6368C36.9871 24.7194 36.3555 25.9825 35.2729 26.2531C24.9882 28.9596 17.7709 37.9813 17.2296 48.4464C17.1394 49.6193 16.147 50.6116 14.9742 50.6116Z" fill="#C22032"/>
<path fill-rule="evenodd" clip-rule="evenodd" d="M36.3587 50.341C35.2761 50.341 34.2837 49.5291 34.2837 48.3562L32.0283 17.9532C32.0283 17.4119 32.1185 16.7804 32.6598 16.3293C33.1109 15.9684 33.6522 15.6076 34.2837 15.6076H48.9891C49.6206 15.6076 50.0717 15.8782 50.613 16.3293C51.1543 16.8706 51.2445 17.4119 51.2445 17.9532L49.0793 48.3562C48.9891 49.6193 47.9967 50.5214 46.7337 50.341C45.4706 50.2508 44.6587 49.2584 44.7489 47.9954L46.7337 20.0282H36.7196L38.7044 47.9954C38.8848 49.2584 37.8924 50.2508 36.7196 50.341C36.4489 50.341 36.3587 50.341 36.3587 50.341Z" fill="#F6ED10"/>
<path fill-rule="evenodd" clip-rule="evenodd" d="M66.9406 59.092H16.2388C12.6301 59.092 9.74316 56.1149 9.74316 52.5062C9.74316 48.8975 12.6301 46.0106 16.2388 46.0106H66.9406C70.6395 46.0106 73.5264 48.8975 73.5264 52.5062C73.5264 56.1149 70.459 59.092 66.9406 59.092ZM16.2388 50.341C15.1562 50.341 14.1638 51.3334 14.1638 52.5062C14.1638 53.7692 14.9757 54.7616 16.2388 54.7616H66.9406C68.2036 54.7616 69.1058 53.7692 69.1058 52.5062C69.1058 51.3334 68.1134 50.341 66.9406 50.341H16.2388Z" fill="#F7ED10"/>
<path fill-rule="evenodd" clip-rule="evenodd" d="M41.59 83.3603C34.6433 83.3603 28.1477 80.6538 23.2759 75.6017C18.4042 70.6398 15.8782 63.9637 16.239 57.017C16.239 55.754 17.4119 54.8518 18.4945 54.8518C19.7575 54.8518 20.6597 56.0247 20.6597 57.1073C20.389 62.8811 22.464 68.3843 26.5238 72.6245C30.4933 76.7745 35.9063 79.1201 41.59 79.1201C47.3638 79.1201 52.7768 76.8647 56.7464 72.6245C60.7159 68.4746 62.8811 62.9713 62.6105 57.1073C62.6105 55.8442 63.5126 54.8518 64.7757 54.8518C65.9485 54.8518 66.9409 55.754 66.9409 57.017C67.2115 63.9637 64.7757 70.6398 59.9942 75.6017C55.1225 80.6538 48.4464 83.3603 41.59 83.3603Z" fill="#EDC28F"/>
<path fill-rule="evenodd" clip-rule="evenodd" d="M41.5886 113.944C40.8669 113.944 40.1452 113.493 39.6941 112.861L26.7029 88.5929C26.0714 87.5103 26.6127 86.2473 27.605 85.6157C28.7779 84.9842 29.9507 85.5255 30.5822 86.5179L41.5886 107.087L52.5951 86.5179C53.2266 85.3451 54.4896 84.9842 55.5722 85.6157C56.745 86.2473 57.1059 87.5103 56.4744 88.5929L43.4832 112.861C43.1223 113.583 42.4006 113.944 41.5886 113.944Z" fill="#9BC1DD"/>
<path fill-rule="evenodd" clip-rule="evenodd" d="M29.5898 89.5853C29.1387 89.5853 28.5974 89.4951 28.1463 89.1342C27.2442 88.3223 27.154 86.969 27.8757 85.9766C27.8757 85.9766 30.2213 83.0897 30.5822 79.2104C30.7626 77.9473 31.755 77.1354 33.018 77.2256C34.2811 77.3158 35.093 78.3984 35.0028 79.5712C34.6419 85.0745 31.3941 88.7733 31.2137 88.8636C30.7626 89.3147 30.2213 89.5853 29.5898 89.5853Z" fill="black"/>
<path fill-rule="evenodd" clip-rule="evenodd" d="M53.4993 89.5853C52.8678 89.5853 52.2363 89.3147 51.8754 88.8636C51.695 88.7733 48.4472 84.9842 48.0863 79.5712C47.9961 78.3984 48.8982 77.3158 50.0711 77.2256C51.3341 77.1354 52.3265 77.9473 52.5069 79.2104C52.7776 83.0897 55.1232 85.9766 55.2134 85.9766C56.0254 86.8788 56.0254 88.232 55.1232 89.1342C54.5819 89.4951 53.9504 89.5853 53.4993 89.5853Z" fill="black"/>
</g>
<defs>
<clipPath id="clip0_465_2509">
<rect width="154" height="154" fill="white"/>
</clipPath>
</defs>
</svg>
