<?xml version="1.0" encoding="utf-8"?>
<!-- Generator: Adobe Illustrator 26.0.1, SVG Export Plug-In . SVG Version: 6.00 Build 0)  -->
<svg version="1.1" id="Layer_1" xmlns="http://www.w3.org/2000/svg" xmlns:xlink="http://www.w3.org/1999/xlink" x="0px" y="0px"
	 viewBox="0 0 90 90" style="enable-background:new 0 0 90 90;" xml:space="preserve">
<style type="text/css">
	.st0{fill:none;}
	.st1{fill-rule:evenodd;clip-rule:evenodd;fill:#010101;}
	.st2{fill-rule:evenodd;clip-rule:evenodd;fill:#C22033;}
	.st3{fill-rule:evenodd;clip-rule:evenodd;fill:#9BC1DD;}
	.st4{fill-rule:evenodd;clip-rule:evenodd;fill:#F4EA19;}
	.st5{fill-rule:evenodd;clip-rule:evenodd;fill:#F5EB18;}
	.st6{fill-rule:evenodd;clip-rule:evenodd;fill:#EDC28F;}
</style>
<rect x="2.72" y="2.72" class="st0" width="84.55" height="84.55"/>
<path class="st1" d="M62.56,53.79c-0.2,0-0.4-0.1-0.64-0.15l-3.96-2.28c-0.54-0.35-0.74-1.04-0.5-1.63l1.78-2.97
	c-0.54-0.69-0.94-1.34-1.29-2.18h-3.42c-0.69,0-1.24-0.54-1.24-1.24v-4.61c0-0.69,0.54-1.24,1.24-1.24h3.22
	c0.15-0.4,0.35-0.89,0.59-1.29c0.3-0.4,0.5-0.69,0.69-0.94l-1.68-2.92c-0.15-0.25-0.2-0.59-0.15-0.89c0.05-0.35,0.25-0.54,0.54-0.74
	l3.96-2.33c0.3-0.15,0.64-0.2,0.89-0.15c0.3,0.1,0.55,0.3,0.79,0.54l1.63,2.92c0.79-0.15,1.68-0.15,2.53,0l1.73-3.02
	c0.35-0.54,1.09-0.79,1.64-0.45l3.96,2.28c0.54,0.35,0.79,1.04,0.5,1.63l-1.73,3.12c0.5,0.59,0.89,1.29,1.24,2.03h3.57
	c0.69,0,1.24,0.54,1.24,1.24v4.61c0,0.69-0.54,1.24-1.24,1.24h-3.57c-0.1,0.4-0.35,0.79-0.59,1.24c-0.2,0.25-0.35,0.54-0.5,0.74
	l1.88,3.22c0.1,0.3,0.2,0.64,0.1,0.89c-0.05,0.3-0.25,0.54-0.55,0.74l-3.96,2.33c-0.3,0.15-0.64,0.25-0.89,0.15
	c-0.35-0.05-0.54-0.25-0.74-0.54l-1.73-3.02c-0.84,0.15-1.59,0.15-2.38,0.1l-1.88,3.12C63.4,53.54,62.95,53.79,62.56,53.79z
	 M60.28,49.88l1.93,1.09l1.64-2.77c0.3-0.4,0.79-0.64,1.24-0.54c1.09,0.25,2.13,0.15,3.17-0.1c0.54-0.15,1.09,0.05,1.29,0.54
	l1.59,2.72l1.93-1.09l-1.63-2.87c-0.3-0.45-0.25-1.04,0.1-1.39c0.3-0.3,0.5-0.59,0.84-1.19c0.35-0.45,0.54-1.09,0.69-1.49
	c0.15-0.5,0.59-0.84,1.14-0.84h3.27v-2.18H74.2c-0.55,0-0.94-0.35-1.14-0.84c-0.35-0.99-0.89-1.88-1.59-2.72
	c-0.35-0.4-0.4-0.94-0.15-1.39l1.54-2.72l-1.98-1.09l-1.59,2.72c-0.3,0.5-0.84,0.69-1.34,0.54c-1.09-0.25-2.18-0.25-3.22,0
	c-0.54,0.15-1.04-0.15-1.29-0.54l-1.44-2.53l-1.93,1.09l1.54,2.53c0.25,0.5,0.2,1.04-0.15,1.39c-0.3,0.35-0.64,0.74-0.99,1.29
	c-0.25,0.5-0.45,1.19-0.64,1.68c-0.15,0.45-0.64,0.79-1.19,0.79h-2.87v2.23h3.02c0.55,0,0.94,0.3,1.14,0.79
	c0.35,1.04,0.99,1.98,1.73,2.77c0.4,0.4,0.5,0.94,0.2,1.44L60.28,49.88z"/>
<path class="st1" d="M66.47,45.97c-0.89,0-1.73-0.2-2.48-0.69c-1.19-0.69-1.98-1.73-2.33-3.02c-0.35-1.29-0.15-2.63,0.54-3.76
	c0.69-1.09,1.73-1.93,3.02-2.28c1.29-0.35,2.62-0.2,3.76,0.5c1.19,0.69,1.98,1.68,2.33,3.02c0.35,1.29,0.15,2.58-0.54,3.76
	c-0.59,1.14-1.68,1.98-3.02,2.33C67.36,45.87,66.97,45.97,66.47,45.97z M66.52,38.39c-0.2,0-0.45,0-0.69,0.1
	c-0.64,0.2-1.19,0.59-1.54,1.14c-0.35,0.64-0.5,1.34-0.3,1.98c0.2,0.69,0.64,1.24,1.24,1.59c0.59,0.35,1.29,0.45,1.98,0.3
	c0.69-0.2,1.24-0.64,1.54-1.19c0.35-0.59,0.45-1.29,0.25-1.98c-0.2-0.69-0.59-1.24-1.24-1.59C67.36,38.49,66.97,38.39,66.52,38.39z"
	/>
<path class="st1" d="M86.04,42.2h-7.58c-0.69,0-1.24-0.59-1.24-1.24c0-0.69,0.54-1.24,1.24-1.24h6.34v-26.1H48.15v26.1h6.29
	c0.69,0,1.24,0.54,1.24,1.24c0,0.64-0.54,1.24-1.24,1.24h-7.48c-0.64,0-1.19-0.59-1.19-1.24V12.53c0-0.69,0.54-1.24,1.19-1.24h39.08
	c0.69,0,1.24,0.54,1.24,1.24v28.48C87.18,41.61,86.63,42.2,86.04,42.2z"/>
<path class="st1" d="M80.89,24.86H52.11c-0.64,0-1.24-0.54-1.24-1.19c0-0.69,0.59-1.24,1.24-1.24h28.78c0.69,0,1.24,0.54,1.24,1.24
	C82.12,24.32,81.48,24.86,80.89,24.86z"/>
<path class="st1" d="M74.55,19.12h-16.2c-0.64,0-1.19-0.54-1.19-1.24c0-0.69,0.54-1.24,1.19-1.24h16.2c0.69,0,1.24,0.54,1.24,1.24
	C75.79,18.57,75.24,19.12,74.55,19.12z"/>
<path class="st2" d="M47.05,78.71H4.11c-0.69,0-1.24-0.59-1.24-1.24c0-0.99,0-2.03-0.1-3.12c-0.1-4.46-0.2-9.61,1.34-13.37
	c2.33-5.5,7.93-11.44,14.86-11.44c0.2,0,0.45,0.05,0.64,0.15c4.85,2.77,7.03,2.77,11.94,0c0.2-0.15,0.4-0.15,0.59-0.15
	c6.74,0,12.58,5.84,14.81,11.59c1.54,3.62,1.39,8.62,1.34,13.03c0,1.19-0.1,2.28,0,3.32c0,0.35-0.15,0.59-0.35,0.79
	C47.75,78.46,47.3,78.71,47.05,78.71z M5.25,76.28h40.57c0-0.69,0-1.44,0-2.13c0.05-4.16,0.15-8.87-1.09-12.09
	c-1.98-4.9-6.79-9.96-12.28-10.06c-5.35,3.02-8.47,3.02-13.72,0c-5.45,0.2-10.3,5.15-12.28,10.01C5.1,65.28,5.2,70.19,5.35,74.45
	C5.25,75.04,5.25,75.69,5.25,76.28z"/>
<path class="st3" d="M14.81,77.87c-0.69,0-1.24-0.55-1.24-1.24V51.56c0-0.69,0.54-1.24,1.24-1.24c0.69,0,1.24,0.54,1.24,1.24v25.06
	C16.05,77.32,15.5,77.87,14.81,77.87z"/>
<path class="st3" d="M36.26,77.87c-0.64,0-1.24-0.55-1.24-1.24V51.56c0-0.69,0.59-1.24,1.24-1.24c0.69,0,1.24,0.54,1.24,1.24v25.06
	C37.45,77.32,36.9,77.87,36.26,77.87z"/>
<path class="st2" d="M40.12,30.51c-0.64,0-1.19-0.5-1.19-1.19c-0.25-5.75-4.21-10.7-9.91-12.19c-0.64-0.2-1.04-0.84-0.84-1.44
	c0.2-0.64,0.84-1.04,1.44-0.84c6.64,1.78,11.34,7.63,11.69,14.41C41.36,29.92,40.81,30.46,40.12,30.51z M10.94,30.51
	c-0.69,0-1.24-0.59-1.14-1.24c0.35-6.79,5-12.63,11.64-14.41c0.64-0.2,1.29,0.2,1.44,0.84c0.15,0.59-0.2,1.29-0.79,1.44
	c-5.65,1.49-9.61,6.44-9.91,12.19C12.13,29.97,11.59,30.51,10.94,30.51z"/>
<path class="st4" d="M22.69,30.36c-0.59,0-1.14-0.45-1.14-1.09l-1.24-16.69c0-0.3,0.05-0.64,0.35-0.89c0.25-0.2,0.54-0.4,0.89-0.4
	h8.07c0.35,0,0.59,0.15,0.89,0.4c0.3,0.3,0.35,0.59,0.35,0.89l-1.19,16.69c-0.05,0.69-0.59,1.19-1.29,1.09
	c-0.69-0.05-1.14-0.59-1.09-1.29l1.09-15.36h-5.5l1.09,15.36c0.1,0.69-0.45,1.24-1.09,1.29C22.74,30.36,22.69,30.36,22.69,30.36z"/>
<path class="st5" d="M39.48,35.17H11.64c-1.98,0-3.57-1.63-3.57-3.62s1.59-3.57,3.57-3.57h27.84c2.03,0,3.62,1.59,3.62,3.57
	S41.41,35.17,39.48,35.17z M11.64,30.36c-0.59,0-1.14,0.54-1.14,1.19c0,0.69,0.45,1.24,1.14,1.24h27.84c0.69,0,1.19-0.54,1.19-1.24
	c0-0.64-0.54-1.19-1.19-1.19H11.64z"/>
<path class="st6" d="M25.56,48.49c-3.81,0-7.38-1.49-10.06-4.26c-2.67-2.72-4.06-6.39-3.86-10.2c0-0.69,0.64-1.19,1.24-1.19
	c0.69,0,1.19,0.64,1.19,1.24c-0.15,3.17,0.99,6.19,3.22,8.52c2.18,2.28,5.15,3.57,8.27,3.57c3.17,0,6.14-1.24,8.32-3.57
	c2.18-2.28,3.37-5.3,3.22-8.52c0-0.69,0.5-1.24,1.19-1.24c0.64,0,1.19,0.5,1.19,1.19c0.15,3.81-1.19,7.48-3.81,10.2
	C32.99,47.01,29.32,48.49,25.56,48.49z"/>
<path class="st3" d="M25.56,65.28c-0.4,0-0.79-0.25-1.04-0.59l-7.13-13.32c-0.35-0.59-0.05-1.29,0.5-1.63
	c0.64-0.35,1.29-0.05,1.63,0.5l6.04,11.29l6.04-11.29c0.35-0.64,1.04-0.84,1.63-0.5c0.64,0.35,0.84,1.04,0.5,1.63L26.6,64.69
	C26.4,65.09,26,65.28,25.56,65.28z"/>
<path class="st3" d="M18.44,52c-0.25,0-0.54-0.05-0.79-0.25c-0.5-0.45-0.54-1.19-0.15-1.73c0,0,1.29-1.59,1.49-3.71
	c0.1-0.69,0.64-1.14,1.34-1.09c0.69,0.05,1.14,0.64,1.09,1.29c-0.2,3.02-1.98,5.05-2.08,5.1C19.09,51.85,18.79,52,18.44,52z"/>
<path class="st3" d="M32.63,51.92c-0.35,0-0.69-0.15-0.89-0.4c-0.1-0.05-1.88-2.13-2.08-5.1c-0.05-0.64,0.45-1.24,1.09-1.29
	c0.69-0.05,1.24,0.4,1.34,1.09c0.15,2.13,1.44,3.71,1.49,3.71c0.45,0.5,0.45,1.24-0.05,1.73C33.23,51.87,32.88,51.92,32.63,51.92z"
	/>
</svg>
