<?xml version="1.0" encoding="utf-8"?>
<!-- Generator: Adobe Illustrator 26.0.1, SVG Export Plug-In . SVG Version: 6.00 Build 0)  -->
<svg version="1.1" id="Layer_1" xmlns="http://www.w3.org/2000/svg" xmlns:xlink="http://www.w3.org/1999/xlink" x="0px" y="0px"
	 viewBox="0 0 500 250" style="enable-background:new 0 0 500 250;" xml:space="preserve">
<style type="text/css">
	.st0{fill:none;}
	.st1{clip-path:url(#SVGID_00000171690055813205495410000004273607958948237497_);fill:#FFFFFF;}
	.st2{clip-path:url(#SVGID_00000171690055813205495410000004273607958948237497_);fill:none;stroke:#FFFFFF;stroke-width:0.7945;}
	.st3{clip-path:url(#SVGID_00000171690055813205495410000004273607958948237497_);fill:none;stroke:#FFFFFF;stroke-width:2.2597;}
	.st4{clip-path:url(#SVGID_00000171690055813205495410000004273607958948237497_);fill:none;stroke:#FFFFFF;stroke-width:1.4893;}
	
		.st5{clip-path:url(#SVGID_00000171690055813205495410000004273607958948237497_);fill:none;stroke:#FFFFFF;stroke-width:2.3478;stroke-linecap:round;}
	.st6{clip-path:url(#SVGID_00000171690055813205495410000004273607958948237497_);fill:none;stroke:#FFFFFF;stroke-width:2.7561;}
	.st7{clip-path:url(#SVGID_00000171690055813205495410000004273607958948237497_);fill:none;stroke:#FFFFFF;stroke-width:1.7529;}
	.st8{clip-path:url(#SVGID_00000171690055813205495410000004273607958948237497_);}
	.st9{clip-path:url(#SVGID_00000074440565909676552740000009285875699140864162_);}
	.st10{fill:#F5A987;}
	.st11{fill:#827AB8;}
	.st12{fill:#381800;}
	.st13{fill:#171A20;}
	.st14{fill:#E58861;}
	.st15{fill:#21263D;}
	.st16{fill:#F2937C;}
	.st17{fill:#00203E;}
	.st18{fill:#003056;}
</style>
<rect class="st0" width="500" height="250"/>
<g>
	<defs>
		<rect id="SVGID_1_" x="-14.3" y="-43.4" width="528.5" height="294.9"/>
	</defs>
	<clipPath id="SVGID_00000071547440676699496390000012087108748789189258_">
		<use xlink:href="#SVGID_1_"  style="overflow:visible;"/>
	</clipPath>
	<path style="clip-path:url(#SVGID_00000071547440676699496390000012087108748789189258_);fill:#FFFFFF;" d="M69.3,267l89.4-151.5
		c12.3-20.8,39.1-27.7,59.9-15.4l151.5,89.4c20.8,12.3,27.7,39.1,15.4,59.9l-89.4,151.5c-12.3,20.8-39.1,27.7-59.9,15.4L84.8,326.9
		C64,314.6,57.1,287.8,69.3,267z"/>
	
		<path style="clip-path:url(#SVGID_00000071547440676699496390000012087108748789189258_);fill:none;stroke:#FFFFFF;stroke-width:0.7945;" d="
		M57.9,265.1l93.6-158.6c14.2-24,45.1-32,69.1-17.8l158.6,93.6c24,14.2,32,45.1,17.8,69.1l-93.6,158.6c-14.2,24-45.1,32-69.1,17.8
		L75.7,334.2C51.7,320,43.8,289.1,57.9,265.1z"/>
	
		<circle style="clip-path:url(#SVGID_00000071547440676699496390000012087108748789189258_);fill:none;stroke:#FFFFFF;stroke-width:2.2597;" cx="385.6" cy="99.2" r="7.5"/>
	
		<circle style="clip-path:url(#SVGID_00000071547440676699496390000012087108748789189258_);fill:none;stroke:#FFFFFF;stroke-width:1.4893;" cx="63.7" cy="143.9" r="5"/>
	
		<path style="clip-path:url(#SVGID_00000071547440676699496390000012087108748789189258_);fill:none;stroke:#FFFFFF;stroke-width:2.3478;stroke-linecap:round;" d="
		M443.8,144.5l-4.9,13.6"/>
	
		<path style="clip-path:url(#SVGID_00000071547440676699496390000012087108748789189258_);fill:none;stroke:#FFFFFF;stroke-width:2.3478;stroke-linecap:round;" d="
		M448.2,153.7l-13.6-4.9"/>
	
		<path style="clip-path:url(#SVGID_00000071547440676699496390000012087108748789189258_);fill:none;stroke:#FFFFFF;stroke-width:2.7561;" d="
		M284.4,42.7l13.6,5c0.7,0.3,1.1,1.1,0.8,1.8l-4.7,13c-0.3,0.7-1.1,1.1-1.8,0.8l-13.6-5c-0.7-0.3-1.1-1.1-0.8-1.8l4.7-13
		C282.9,42.9,283.7,42.5,284.4,42.7z"/>
	
		<path style="clip-path:url(#SVGID_00000071547440676699496390000012087108748789189258_);fill:none;stroke:#FFFFFF;stroke-width:1.7529;" d="
		M120.3,79.3l4.2,4.9c0.8,1,0.7,2.4-0.2,3.2l-4.5,3.9c-1,0.8-2.4,0.7-3.2-0.2l-4.2-4.9c-0.8-1-0.7-2.4,0.2-3.2l4.5-3.9
		C118,78.2,119.5,78.3,120.3,79.3z"/>
	<g style="clip-path:url(#SVGID_00000071547440676699496390000012087108748789189258_);">
		<defs>
			<rect id="SVGID_00000026884697125014325270000006358390839721452190_" x="127.8" y="13" width="179.1" height="237"/>
		</defs>
		<clipPath id="SVGID_00000044862699329625724340000008607350424884238232_">
			<use xlink:href="#SVGID_00000026884697125014325270000006358390839721452190_"  style="overflow:visible;"/>
		</clipPath>
		<g style="clip-path:url(#SVGID_00000044862699329625724340000008607350424884238232_);">
			<path class="st10" d="M161.2,212.7c0,0-20.9-1.9-26.3-42.4l-1.8-29.5l9.1,7.2l22.6,42.3C164.8,190.3,170.4,204.2,161.2,212.7z"/>
			<path class="st10" d="M167.8,139.8c0,0-19.6,25.3-9.9,62.2c4.7,13.2,16.5-3,17.9-5.3c5.3-8.8,5-8.6,9.6-19.1
				c10.1-22.8,9.2-30.8,9.2-30.8S185.6,128.8,167.8,139.8z"/>
			<path class="st10" d="M203.5,132c-3.2,17.7-11.6,25.9-21.5,27.3c-9.9,1.5-17.8-12.2-16.6-22.2c1.6-14.1,5.8-24.9,17.5-27.8
				C197.5,105.8,205.3,122.1,203.5,132z"/>
			<path class="st11" d="M183.3,103.3c0,0-15.3,2.3-24.1,37.9c0,0-4.5,18.1-4,24.9c0,0,13.6,15.4,34.8,16.5c0,0,16.9-51.3,12-68.2
				C202,114.5,195.2,102.1,183.3,103.3z"/>
			<path class="st12" d="M182.8,57.4c6.4,10.7,12.4-8.8,12.6-13.7c0.2-4.7-0.3-9.5-4.4-12.2c-2-1.3-6.8-2.1-8.8-0.5
				c-1.7,1.3-2.2,4.1-2.5,6.1C178.5,43.4,179.5,51.8,182.8,57.4z"/>
			<path class="st13" d="M265.5,313.3l-99-0.1l-0.8-19.3l2.6-44.4l92.6-0.9C260.9,248.6,265.9,276.8,265.5,313.3z"/>
			<path class="st12" d="M227.1,71.1c0.4-1,1.6-3.6,1.9-4.2c8.4-15.3,8-38.7-4.7-43.6c-15.2-6-15.2,19.1-16.2,26.1
				c-1.2,8-2,16.7,1.2,24.3c1.2,2.9,4.2,7.3,7.5,7.1C220.6,80.5,225.1,75.8,227.1,71.1z"/>
			<path class="st10" d="M231.8,54.3c0.7,4.4-1,9.7-4.7,12.2c-5,3.3-7.8-1.4-8.5-6.2c-0.6-3.9,0.1-10.8,4.4-12.9
				C226.9,45.5,231.2,50.7,231.8,54.3z"/>
			<path class="st10" d="M226.2,64.4l-26.7,0l0,36.6l26.7,0L226.2,64.4z"/>
			<path class="st14" d="M218.1,86.2c2.7-5.6,4.3-11.3,3.8-18.4l-22.4,0l0,28.8C206.6,95.6,215.3,92.2,218.1,86.2z"/>
			<path class="st10" d="M187.6,106l12-8.9h26.6l14.4,8.9H187.6z"/>
			<path class="st11" d="M265.5,291.5c-10.7,1.6-22.7,0.2-37.7-2.1c-23.2-3.6-41.6-9.5-61.4-22.1c0.1-6.5,2.2-18.7,2.8-25.2
				c2-21.3,1.5-31.6,1.8-48l-1.8-68.9c1.9-15.7,11.1-20.7,11.1-20.7l19.2-7.8c0,0,12,11.5,27.1,0.2l34.6,14.5c0,0,10.7,4,8.7,16.2
				l-5.8,61.2c0,0,5.7,58.9,8.9,87.9C273.1,276.8,278,290.2,265.5,291.5z"/>
			<path class="st15" d="M166.5,268L166.5,268c-0.5-0.1-0.8-0.4-0.8-0.9c1.1-9.1,2.1-16.2,2.9-21.9c1-7.4,1.7-12.3,1.7-15.2
				c-0.1-7.5,0-14.4,0.1-21.1c0.1-9,0.2-17.6-0.1-26.3c-0.7-19.6-1.2-35.4-1.8-54.4c0-0.4,0.3-0.8,0.7-0.8c0.4,0,0.8,0.3,0.8,0.7
				c0.6,19,1.1,34.8,1.8,54.4c0.3,8.7,0.2,17.3,0.1,26.3c-0.1,6.7-0.2,13.6-0.1,21.1c0,3-0.7,7.9-1.7,15.4
				c-0.8,5.7-1.8,12.8-2.9,21.9C167.2,267.8,166.8,268,166.5,268z"/>
			<path class="st15" d="M251.8,260.6c-0.2,0-0.4-0.1-0.5-0.2c-8.9-8.1-14.3-15-20.5-23.1c-3-3.9-6.1-8-10-12.6
				c-0.3-0.3-0.2-0.8,0.1-1.1c0.3-0.3,0.8-0.2,1.1,0.1c3.8,4.6,7,8.7,10,12.6c6.2,8,11.5,14.9,20.3,22.9c0.3,0.3,0.3,0.8,0,1.1
				C252.2,260.6,252,260.6,251.8,260.6z"/>
			<path class="st15" d="M230.6,265.9l-0.3,0c-2.6-0.9-1.7-13.6-1.2-15.6c0.1-0.4,0.5-0.6,0.9-0.5c0.4,0.1,0.6,0.5,0.5,0.9
				c-0.8,2.8-0.7,12.8,0.3,13.8c0.4,0.1,0.6,0.5,0.4,0.9C231.2,265.7,230.9,265.9,230.6,265.9z"/>
			<path class="st15" d="M268.1,285.5c-0.4,0-0.7-0.3-0.8-0.7c-0.8-5.8-1.3-10.7-1.8-15.5c-0.8-7.3-1.4-13.7-2.7-20.9
				c-2.5-14.1-5.3-42.1-7.3-62.5c-0.6-6-1.1-11.4-1.6-15.5c0-0.4,0.3-0.8,0.7-0.8c0.4-0.1,0.8,0.3,0.8,0.7c0.4,4.2,1,9.5,1.6,15.5
				c2,20.4,4.8,48.4,7.3,62.4c1.3,7.3,2,13.7,2.8,21c0.5,4.8,1,9.7,1.8,15.5C269,285.1,268.7,285.5,268.1,285.5L268.1,285.5z"/>
			<path class="st10" d="M222.5,67.9c-1.6,6.7-4.3,12.4-9.7,17c-5.3,4.5-11.1,7.2-17.4,3.4c-5-3-8.7-8-11.2-13.2
				c-5.6-12-5.3-29.8,1.2-41.1c7.1-12.4,24.4-12.4,32.8-1C225,42.3,225.1,57.1,222.5,67.9z"/>
			<path class="st14" d="M226.3,62.6c-0.3,0-0.6-0.2-0.7-0.5c-2.1-4.6-1.7-9.4,0.9-11.2c0.3-0.2,0.8-0.2,1.1,0.2
				c0.3,0.3,0.2,0.8-0.2,1.1c-1.9,1.4-2.1,5.5-0.4,9.4c0.2,0.4,0,0.8-0.4,1L226.3,62.6z"/>
			<path class="st14" d="M225.2,56.3c-0.2,0-0.4-0.1-0.6-0.3c-0.3-0.3-0.2-0.8,0.1-1.1c1.5-1.3,4.1-0.7,4.9-0.5
				c0.4,0.1,0.7,0.5,0.5,0.9c-0.1,0.4-0.5,0.7-0.9,0.5c-1.2-0.3-2.8-0.4-3.5,0.2C225.6,56.2,225.4,56.3,225.2,56.3z"/>
			<path class="st15" d="M190.2,57.8c0.2,1.4-0.4,2.6-1.2,2.7c-0.8,0.1-1.7-1-1.8-2.4c-0.2-1.4,0.4-2.6,1.2-2.7
				C189.2,55.3,190,56.4,190.2,57.8z"/>
			<path class="st15" d="M208.4,55.6c0.2,1.4-0.4,2.6-1.2,2.7c-0.8,0.1-1.7-1-1.8-2.4c-0.2-1.4,0.4-2.6,1.2-2.7
				C207.4,53.1,208.2,54.2,208.4,55.6z"/>
			<path class="st16" d="M211.9,60.1c0.1,1-1.6,2-3.9,2.3c-2.3,0.3-4.2-0.3-4.3-1.3c-0.1-1,1.6-2,3.9-2.3
				C209.8,58.5,211.7,59.1,211.9,60.1z"/>
			<path class="st16" d="M191.9,63.6c0.1,1-1.6,2-3.9,2.3c-2.3,0.3-4.2-0.3-4.3-1.3c-0.1-1,1.6-2,3.9-2.3
				C189.9,62.1,191.8,62.7,191.9,63.6z"/>
			<path class="st14" d="M196.2,66.7c-1.2,0-2.3-0.3-3-0.9c-0.4-0.4-0.9-1.2-0.3-2.6c4.4-9.1,2.6-10.3,1.2-11.1
				c-0.3-0.2-0.6-0.4-0.8-0.6c-0.3-0.3-0.3-0.8,0-1.1c0.3-0.3,0.8-0.3,1.1,0c0.2,0.2,0.4,0.3,0.6,0.4c2.3,1.4,3.9,3.5-0.7,13.1
				c-0.3,0.6-0.1,0.8,0,0.9c0.7,0.7,3.1,0.6,4.6-0.1c0.4-0.2,0.8,0,1,0.4c0.2,0.4,0,0.8-0.4,1C198.7,66.4,197.5,66.7,196.2,66.7z"/>
			<path class="st12" d="M184.6,50.5c-0.5,0-1-0.3-1.2-0.7c-0.4-0.7-0.1-1.5,0.5-1.9c3.9-2.1,7.6-1.4,9.5-0.2
				c0.6,0.4,0.8,1.3,0.4,1.9c-0.4,0.6-1.3,0.8-1.9,0.4c-1.1-0.7-3.7-1.4-6.7,0.3C185.1,50.5,184.9,50.5,184.6,50.5z"/>
			<path class="st12" d="M209.7,50.7c-0.3,0-0.7-0.1-0.9-0.3c-1.5-1.3-4.6-1.8-6.4-0.4c-0.6,0.5-1.5,0.4-1.9-0.2
				c-0.5-0.6-0.4-1.5,0.2-1.9c2.9-2.3,7.5-1.6,9.9,0.5c0.6,0.5,0.6,1.4,0.1,1.9C210.5,50.6,210.1,50.7,209.7,50.7z"/>
			<path class="st12" d="M230.5,51.1c-0.8-1.9-4.1-5.3-6.7-2.2c-1.1,1.3-0.9,7.3-1.3,8.8c-0.5,2.1-1.1,1.4-2.9,1.6
				c-1-5.7-1.2-16.3-4.4-20.5c-0.9-1.2-2.8-2.2-1-3.8c0,0,5.9-6.3,12.2-2.8C226.3,32.3,232.7,36.7,230.5,51.1z"/>
			<path class="st16" d="M197.2,75c-0.3,0-0.6,0-0.8-0.1c-0.4-0.1-0.7-0.5-0.6-0.9c0.1-0.4,0.5-0.7,0.9-0.6c1.4,0.2,3.1-0.5,3.8-1.6
				c0.2-0.4,0.7-0.5,1.1-0.2c0.4,0.2,0.5,0.7,0.2,1.1C200.8,74.1,198.9,75,197.2,75z"/>
			<path class="st10" d="M249.9,152c0,0,3.8,31.8,36.7,51.3c12.7,6.1,9.7-13.7,9-16.4c-2.4-9.9-2.5-9.6-6.6-20.4
				c-8.8-23.4-15.1-28.4-15.1-28.4S254.8,131.7,249.9,152z"/>
			<path class="st10" d="M269.8,121.4c10.2,14.8,9.9,26.5,3.9,34.6c-6,8-21.2,3.8-27.4-4.1c-8.7-11.2-13.4-21.8-7.1-32.1
				C247.1,106.9,264.1,113.1,269.8,121.4z"/>
			<path class="st11" d="M240.7,110.8c0,0-21.7,20.9,14.1,68.7c0,0,26.6-2.9,37.3-19.3c0,0-12.4-31.4-27.2-46.8
				C264.9,113.4,250.5,103.7,240.7,110.8z"/>
			<path class="st10" d="M207.3,170.4c0,0-3.5,1.1-4.5,5.5c40.2,20.7,71.4,33.3,71.4,33.3c13.8,3.4,19.2-1.5,19.2-1.5
				c12.3-17.8-13.9-26.4-13.9-26.4s0,0-36.1-5.4L207.3,170.4z"/>
			<path class="st10" d="M187.3,168.9l6,5.8c0,0,2.7,3.7,6.4,3.7l7.2-0.4l1.5-7.6L196.9,158l-11.5-6.1c0,0-1.5,3.3,1.2,6.6
				c0,0-3.9,0.7,0.3,5.6C186.8,164.1,184.4,164.6,187.3,168.9z"/>
			<path class="st10" d="M194,156.5l-15.9-15.3c0,0-1.8,0.2-1.4,3.3l10.6,12.3C187.3,156.8,191.9,159.9,194,156.5z"/>
			<path class="st17" d="M151.6,152.7c1.2,2.8,2.5,2.8,4,2.8H170c2.8,0,3.6-1.1,2.8-2.8l-18.1-37.2c-1.6-2.8-2.8-2.8-4.3-2.8h-14.7
				c-2.1,0-2.8,1.3-2.1,2.8L151.6,152.7z"/>
			<path class="st18" d="M151.6,152.8c1.2,2.8,2.5,2.8,4,2.8h12.3c2.8,0,3.6-1.1,2.8-2.8L153.4,117c-1.6-2.8-2.8-2.8-4.3-2.8h-12.7
				c-2.1,0-2.8,1.3-2.1,2.8L151.6,152.8z"/>
			<path class="st10" d="M143,149.7l-9.9-8.9l-0.3-12c4.9-8.7,16.6-11.7,16.6-11.7s1.5,1,0.2,2.7c0,0-2.9,1.8-5.4,2.5
				c0,0-2.2,2.6-3.7,3.8l7.5-0.8l7,4.4c0,0-0.5,2.7-3.8,1.3l-3-1.8l-5.6,0.7l5.1-0.3l6.3,4.5c0,0,0,2.2-2.7,1.5l-4.7-2.8l-2.7,0.8
				l2.9,0.2l5.5,4.5c0,0-0.8,2.4-4,1l-3.7-2.8C144.4,136.6,146,144.1,143,149.7z"/>
			<path class="st15" d="M252.7,177.5c-0.2,0-0.4-0.1-0.6-0.3c-7-8.8-28.8-39.4-14.1-63.4c0.2-0.4,0.7-0.5,1.1-0.3
				c0.4,0.2,0.5,0.7,0.3,1.1c-14.2,23.2,7.1,53,14,61.6c0.3,0.3,0.2,0.8-0.1,1.1C253,177.4,252.9,177.5,252.7,177.5z"/>
			<path class="st12" d="M214.2,35.1c0,0-32.2,8.1-43.1-11.5c0,0,2.9,0.9,5.6,0.9c0,0-5.6-3.8-3.6-10.7c0,0,11,2.5,19.7,0
				c0,0,23.9-5,30.3,9c0,0,5.2,8.6-8,12.2"/>
		</g>
	</g>
</g>
</svg>
