<?xml version="1.0" encoding="utf-8"?>
<!-- Generator: Adobe Illustrator 26.0.1, SVG Export Plug-In . SVG Version: 6.00 Build 0)  -->
<svg version="1.1" id="Layer_1" xmlns="http://www.w3.org/2000/svg" xmlns:xlink="http://www.w3.org/1999/xlink" x="0px" y="0px"
	 viewBox="0 0 90 90" style="enable-background:new 0 0 90 90;" xml:space="preserve">
<style type="text/css">
	.st0{fill:#818181;}
	.st1{fill:#C22032;}
</style>
<path id="path6377-7" vector-effect="none" class="st0" d="M80.42,49.26v-33.1c0-4.56-3.17-8.45-7.79-11.1
	c-4.62-2.63-10.82-4.18-17.66-4.18H34.61c-6.84,0-13.03,1.54-17.64,4.18c-4.62,2.65-7.82,6.54-7.82,11.1v57.71
	c0,4.56,3.2,8.42,7.82,11.07c4.62,2.63,10.8,4.18,17.64,4.18h20.37c6.84,0,13.04-1.54,17.66-4.18c4.62-2.65,7.79-6.51,7.79-11.07
	V59.44h-3.37v14.43c0,2.96-2.12,5.85-6.1,8.11c-2.86,1.64-6.64,2.85-10.89,3.41V63.66c0-6.54-5.32-11.86-11.88-11.86h-6.8
	c-6.56,0-11.86,5.32-11.86,11.86v21.73c-4.25-0.57-8.01-1.77-10.87-3.41c-3.98-2.27-6.09-5.15-6.09-8.11V16.16
	c0-2.96,2.11-5.88,6.09-8.14c0.72-0.41,1.56-0.76,2.39-1.13v42.35c-0.06,0.93,0.65,1.74,1.59,1.8c0.93,0.07,1.74-0.65,1.81-1.59
	V5.71c3.04-0.88,6.46-1.43,10.17-1.43h20.37c3.7,0,7.14,0.55,10.19,1.43v43.52c-0.08,0.93,0.59,1.76,1.53,1.84
	c0.93,0.08,1.77-0.61,1.84-1.54c0.01-0.1,0.01-0.2,0-0.3V6.89c0.85,0.37,1.68,0.72,2.41,1.13c3.98,2.27,6.1,5.18,6.1,8.14v33.1
	H80.42z M32.92,63.66c0-4.73,3.74-8.47,8.47-8.47h1.71v2.51c0,0.95,0.76,1.7,1.71,1.7c0.93-0.01,1.68-0.76,1.68-1.7v-2.51h1.68
	c4.73,0,8.5,3.74,8.5,8.47v21.97c-0.58,0.04-1.12,0.11-1.7,0.11H34.61c-0.58,0-1.12-0.09-1.68-0.11V63.66z"/>
<path id="path22684-5" vector-effect="none" class="st1" d="M44.8,11.07c-5.6,0-10.2,4.57-10.2,10.18c0,5.6,4.59,10.17,10.2,10.17
	c5.6,0,10.18-4.57,10.18-10.17c0.08-0.93-0.61-1.76-1.54-1.84c-0.93-0.08-1.76,0.61-1.84,1.54c-0.01,0.1-0.01,0.2,0,0.3
	c0,3.77-3.03,6.79-6.79,6.79c-3.77,0-6.79-3.02-6.79-6.79c0-3.18,2.15-5.8,5.08-6.56v3.12c0.01,0.94,0.78,1.7,1.72,1.69
	c0.93-0.01,1.68-0.76,1.69-1.69v-3.12c1.18,0.31,2.24,0.9,3.08,1.74c0.61,0.72,1.68,0.8,2.39,0.2c0.72-0.61,0.8-1.68,0.2-2.39
	c-0.06-0.07-0.12-0.13-0.18-0.19C50.15,12.22,47.6,11.07,44.8,11.07z"/>
<path id="path22713-3" vector-effect="none" class="st1" d="M44.8,61.99c-3.26,0-5.93,2.68-5.93,5.93c0,3.27,2.68,5.95,5.93,5.95
	s5.93-2.68,5.93-5.95C50.73,64.67,48.06,61.99,44.8,61.99z M44.8,70.46c-1.43,0-2.55-1.1-2.55-2.53c0-1.42,1.12-2.55,2.55-2.55
	s2.53,1.13,2.53,2.55C47.34,69.35,46.23,70.46,44.8,70.46z"/>
<path id="rect5574-3-5-4-8" class="st0" d="M80.85,53.67l-2.12,2.12l-2.12-2.12l2.12-2.12L80.85,53.67z"/>
<rect x="43.3" y="77.45" transform="matrix(0.7071 -0.7071 0.7071 0.7071 -42.7053 54.804)" class="st1" width="3" height="3"/>
<rect x="43.3" y="77.45" transform="matrix(0.7071 -0.7071 0.7071 0.7071 -42.7053 54.804)" class="st1" width="3" height="3"/>
<path class="st1" d="M60.06,63.66v21.73l-3.38,0.23V63.66c0-4.73-3.77-8.47-8.5-8.47H46.5v2.51c0,0.93-0.75,1.68-1.68,1.7
	c-0.95,0-1.71-0.75-1.71-1.7v-2.51h-1.71c-4.73,0-8.47,3.74-8.47,8.47v21.97l-3.4-0.24V63.66c0-6.54,5.31-11.86,11.86-11.86h6.8
	C54.74,51.8,60.06,57.12,60.06,63.66z"/>
</svg>
