<svg width="183" height="183" viewBox="0 0 183 183" fill="none" xmlns="http://www.w3.org/2000/svg">
<path d="M142.374 97.6202V50.0809C142.374 43.5336 137.819 37.9419 131.19 34.1396C124.562 30.3576 115.656 28.1412 105.835 28.1412H76.575C66.754 28.1412 57.8683 30.3576 51.2396 34.1396C44.611 37.9419 40.0156 43.5336 40.0156 50.0809V132.96C40.0156 139.507 44.611 145.058 51.2396 148.86C57.8683 152.642 66.754 154.859 76.575 154.859H105.835C115.656 154.859 124.562 152.642 131.19 148.86C137.819 145.058 142.374 139.507 142.374 132.96V112.24H137.534V132.96C137.534 137.209 134.484 141.357 128.771 144.611C124.663 146.969 119.234 148.698 113.134 149.511V118.299C113.134 108.905 105.489 101.26 96.0746 101.26H86.3146C76.9003 101.26 69.2753 108.905 69.2753 118.299V149.511C63.1753 148.698 57.7666 146.969 53.6593 144.611C47.9456 141.357 44.916 137.209 44.916 132.96V50.0809C44.916 45.8312 47.9456 41.6426 53.6593 38.3892C54.6963 37.7996 55.896 37.2912 57.0956 36.7626V97.5796C57.0143 98.9216 58.031 100.081 59.373 100.162C60.715 100.264 61.874 99.2266 61.9756 97.8846V35.0749C66.3473 33.8142 71.2476 33.0212 76.575 33.0212H105.835C111.142 33.0212 116.083 33.8142 120.475 35.0749V97.5796C120.353 98.9216 121.329 100.101 122.671 100.223C124.013 100.345 125.212 99.3486 125.314 98.0066C125.334 97.8642 125.334 97.7219 125.314 97.5796V36.7626C126.534 37.2912 127.734 37.7996 128.771 38.3892C134.484 41.6426 137.534 45.8312 137.534 50.0809V97.6202H142.374ZM74.1553 118.299C74.1553 111.508 79.5233 106.14 86.3146 106.14H88.775V109.739C88.775 111.101 89.873 112.179 91.2353 112.179C92.5773 112.159 93.655 111.081 93.655 109.739V106.14H96.0746C102.866 106.14 108.275 111.508 108.275 118.299V149.857C107.441 149.918 106.668 150.019 105.835 150.019H76.575C75.7413 150.019 74.9686 149.897 74.1553 149.857V118.299Z" fill="#818181"/>
<path d="M91.2152 42.7812C83.1632 42.7812 76.5752 49.3489 76.5752 57.4009C76.5752 65.4529 83.1632 72.0002 91.2152 72.0002C99.2672 72.0002 105.835 65.4326 105.835 57.4009C105.957 56.0589 104.961 54.8796 103.619 54.7576C102.277 54.6356 101.097 55.6319 100.975 56.9739C100.955 57.1162 100.955 57.2586 100.975 57.4009C100.975 62.8096 96.6239 67.1406 91.2152 67.1406C85.8065 67.1406 81.4755 62.8096 81.4755 57.4009C81.4755 52.8462 84.5662 49.0642 88.7752 47.9866V52.4802C88.7752 53.8222 89.8935 54.9202 91.2355 54.8999C92.5775 54.8999 93.6552 53.8019 93.6552 52.4802V47.9866C95.3632 48.4339 96.8679 49.2879 98.0879 50.4876C98.9622 51.5246 100.487 51.6466 101.524 50.7722C102.561 49.8979 102.683 48.3729 101.809 47.3359C101.728 47.2342 101.646 47.1529 101.545 47.0716C98.9012 44.4079 95.2412 42.7812 91.2152 42.7812Z" fill="#C22032"/>
<path d="M91.215 115.9C86.5383 115.9 82.6953 119.743 82.6953 124.42C82.6953 129.117 86.5383 132.96 91.215 132.96C95.8917 132.96 99.7346 129.117 99.7346 124.42C99.7346 119.743 95.8917 115.9 91.215 115.9ZM91.215 128.059C89.1613 128.059 87.555 126.473 87.555 124.42C87.555 122.386 89.1613 120.76 91.215 120.76C93.2687 120.76 94.8547 122.386 94.8547 124.42C94.8547 126.473 93.2687 128.059 91.215 128.059Z" fill="#C22032"/>
<path d="M142.984 103.944L139.934 106.994L136.884 103.944L139.934 100.894L142.984 103.944Z" fill="#818181"/>
<path d="M91.2131 137.211L88.165 140.259L91.2131 143.307L94.2612 140.259L91.2131 137.211Z" fill="#C22032"/>
<path d="M91.2131 137.211L88.165 140.259L91.2131 143.307L94.2612 140.259L91.2131 137.211Z" fill="#C22032"/>
<path d="M113.135 118.299V149.511L108.276 149.836V118.299C108.276 111.508 102.867 106.14 96.0757 106.14H93.656V109.739C93.656 111.081 92.5784 112.159 91.2364 112.179C89.874 112.179 88.776 111.101 88.776 109.739V106.14H86.3157C79.5244 106.14 74.1564 111.508 74.1564 118.299V149.857L69.2764 149.511V118.299C69.2764 108.905 76.9014 101.26 86.3157 101.26H96.0757C105.49 101.26 113.135 108.905 113.135 118.299Z" fill="#C22032"/>
</svg>
