<svg width="49" height="50" viewBox="0 0 49 50" fill="none" xmlns="http://www.w3.org/2000/svg">
<path d="M16.9168 1.65685C11.9966 3.38987 7.75335 6.6792 4.81042 11.0417C1.8675 15.4042 0.379986 20.6099 0.566387 25.8941C0.752787 31.1784 2.60327 36.2627 5.84603 40.4003C9.0888 44.5378 13.5529 47.5105 18.5827 48.8817C22.6604 49.95 26.9327 49.997 31.0322 49.0184C34.746 48.1715 38.1795 46.3598 40.9965 43.7608C43.9283 40.9732 46.0564 37.427 47.152 33.5034C48.3424 29.2365 48.5543 24.7495 47.7714 20.3867H24.8728V30.0308H38.1341C37.8691 31.569 37.3012 33.0371 36.4643 34.3472C35.6274 35.6573 34.5388 36.7826 33.2636 37.6556C31.6444 38.7436 29.8189 39.4754 27.9044 39.8039C25.9845 40.1665 24.0151 40.1665 22.0952 39.8039C20.1491 39.3959 18.3081 38.5804 16.6898 37.4095C14.0897 35.5408 12.1374 32.8859 11.1114 29.8238C10.0684 26.7043 10.0684 23.3226 11.1114 20.2031C11.8417 18.0165 13.049 16.0256 14.6431 14.3791C16.4674 12.4602 18.7771 11.0885 21.3186 10.4146C23.8602 9.74076 26.5354 9.79066 29.0509 10.5589C31.0161 11.1711 32.813 12.2412 34.2985 13.6838C35.7938 12.1734 37.2865 10.6591 38.7766 9.14096C39.5461 8.32458 40.3848 7.54727 41.1427 6.71136C38.8749 4.56893 36.2131 2.90175 33.3098 1.80528C28.0226 -0.143906 22.2374 -0.196289 16.9168 1.65685Z" fill="white"/>
<path d="M16.9183 1.65728C22.2385 -0.197115 28.0236 -0.146111 33.3112 1.80181C36.2151 2.90572 38.8757 4.58093 41.1403 6.73132C40.3709 7.56723 39.5591 8.34845 38.7743 9.16092C37.2816 10.6739 35.7901 12.1816 34.3 13.6842C32.8145 12.2416 31.0175 11.1715 29.0524 10.5593C26.5378 9.7884 23.8626 9.73562 21.3204 10.4067C18.7781 11.0779 16.4671 12.447 14.6408 14.3639C13.0466 16.0104 11.8393 18.0013 11.109 20.1879L3.13379 13.9186C5.98845 8.17096 10.9311 3.77449 16.9183 1.65728Z" fill="#E33629"/>
<path d="M1.01806 20.1287C1.4464 17.9716 2.15808 15.8827 3.13402 13.918L11.1093 20.2029C10.0663 23.3224 10.0663 26.7042 11.1093 29.8237C8.45214 31.9069 5.79372 34.0006 3.13402 36.1047C0.691625 31.1686 -0.0532625 25.5445 1.01806 20.1287Z" fill="#F8BD00"/>
<path d="M24.8752 20.3823H47.7738C48.5567 24.7452 48.3448 29.2322 47.1544 33.499C46.0589 37.4226 43.9307 40.9689 40.9989 43.7565C38.4251 41.7175 35.8398 39.6941 33.266 37.6551C34.542 36.7813 35.6311 35.6548 36.4681 34.3433C37.305 33.0318 37.8725 31.5622 38.1366 30.0226H24.8752C24.8714 26.8118 24.8752 23.5971 24.8752 20.3823Z" fill="#587DBD"/>
<path d="M3.13135 36.1043C5.79105 34.021 8.44946 31.9273 11.1066 29.8232C12.1346 32.8864 14.0897 35.5414 16.6927 37.4089C18.3161 38.5744 20.161 39.3832 22.1096 39.7838C24.0296 40.1464 25.9989 40.1464 27.9189 39.7838C29.8333 39.4553 31.6589 38.7235 33.278 37.6355C35.8518 39.6745 38.4371 41.6978 41.0109 43.7368C38.1943 46.3372 34.7608 48.1502 31.0466 48.9983C26.9471 49.9768 22.6748 49.9299 18.5971 48.8616C15.372 47.9873 12.3595 46.4461 9.74854 44.3344C6.9852 42.1065 4.72807 39.2992 3.13135 36.1043Z" fill="#319F43"/>
</svg>
