<svg width="44" height="46" viewBox="0 0 44 46" fill="none" xmlns="http://www.w3.org/2000/svg">
<path d="M15.3333 2.17006C10.9449 3.71576 7.16036 6.64954 4.53554 10.5405C1.91072 14.4314 0.583995 19.0744 0.750247 23.7875C0.916499 28.5006 2.56696 33.0353 5.45921 36.7257C8.35146 40.416 12.333 43.0674 16.8191 44.2903C20.4561 45.2432 24.2666 45.285 27.923 44.4123C31.2353 43.6569 34.2977 42.041 36.8102 39.723C39.4251 37.2367 41.3232 34.0737 42.3003 30.5743C43.3621 26.7686 43.551 22.7666 42.8528 18.8753H22.4294V27.4771H34.2573C34.0209 28.849 33.5143 30.1584 32.7679 31.3269C32.0215 32.4954 31.0505 33.499 29.9132 34.2776C28.469 35.248 26.8408 35.9007 25.1333 36.1938C23.4209 36.5171 21.6644 36.5171 19.9519 36.1938C18.2162 35.8298 16.5743 35.1025 15.1309 34.0581C12.8118 32.3914 11.0705 30.0235 10.1554 27.2924C9.22516 24.5101 9.22516 21.4939 10.1554 18.7116C10.8068 16.7614 11.8836 14.9857 13.3054 13.5171C14.9325 11.8056 16.9925 10.5823 19.2593 9.98122C21.5262 9.38018 23.9123 9.42468 26.1558 10.1099C27.9086 10.6559 29.5113 11.6103 30.8362 12.897C32.1698 11.5499 33.5012 10.1993 34.8303 8.84521C35.5166 8.11707 36.2646 7.42378 36.9406 6.67822C34.9179 4.76737 32.5438 3.2804 29.9543 2.30245C25.2386 0.563954 20.0788 0.517233 15.3333 2.17006Z" fill="white"/>
<path d="M15.3336 2.17005C20.0787 0.516094 25.2385 0.561585 29.9546 2.29895C32.5446 3.28354 34.9175 4.77767 36.9374 6.69562C36.2511 7.44118 35.5271 8.13796 34.8271 8.86261C33.4958 10.212 32.1655 11.5568 30.8365 12.897C29.5116 11.6103 27.9088 10.6558 26.1561 10.1098C23.9133 9.42226 21.5273 9.37518 19.2598 9.97377C16.9924 10.5724 14.9311 11.7935 13.3022 13.5032C11.8804 14.9717 10.8036 16.7474 10.1523 18.6976L3.03906 13.106C5.58515 7.97965 9.99355 4.0584 15.3336 2.17005Z" fill="#E33629"/>
<path d="M1.15302 18.6446C1.53506 16.7207 2.16982 14.8576 3.04026 13.1052L10.1535 18.7108C9.22318 21.4931 9.22318 24.5093 10.1535 27.2916C7.78353 29.1497 5.41247 31.0171 3.04026 32.8937C0.861869 28.4912 0.197497 23.475 1.15302 18.6446Z" fill="#F8BD00"/>
<path d="M22.4322 18.8708H42.8556C43.5539 22.7621 43.3649 26.7641 42.3032 30.5698C41.326 34.0693 39.428 37.2322 36.813 39.7185C34.5174 37.8999 32.2115 36.0952 29.916 34.2766C31.0541 33.4972 32.0255 32.4925 32.7719 31.3227C33.5184 30.153 34.0245 28.8423 34.2601 27.4691H22.4322C22.4288 24.6053 22.4322 21.7381 22.4322 18.8708Z" fill="#587DBD"/>
<path d="M3.03711 32.8934C5.40932 31.0353 7.78038 29.1679 10.1503 27.2913C11.0672 30.0233 12.811 32.3913 15.1326 34.057C16.5805 35.0965 18.226 35.8179 19.964 36.1752C21.6764 36.4986 23.4329 36.4986 25.1453 36.1752C26.8528 35.8821 28.4811 35.2294 29.9252 34.259C32.2208 36.0776 34.5266 37.8823 36.8222 39.7009C34.3101 42.0202 31.2477 43.6373 27.935 44.3937C24.2786 45.2664 20.4681 45.2246 16.8311 44.2718C13.9546 43.492 11.2678 42.1173 8.93904 40.2339C6.47439 38.2468 4.46124 35.7429 3.03711 32.8934Z" fill="#319F43"/>
</svg>
