<svg width="50" height="44" viewBox="0 0 50 44" fill="none" xmlns="http://www.w3.org/2000/svg">
<path d="M44.331 5.12469L4.9853 18.3039L16.6554 22.483C20.0666 23.7028 22.7767 26.0399 24.1905 28.9809L29.0384 39.0393L44.331 5.12469ZM48.7946 6.54553L33.502 40.4643C32.5353 42.6101 29.7537 43.708 27.2887 42.9226C26.6881 42.7314 26.1397 42.4352 25.6781 42.0527C25.2165 41.6702 24.8516 41.2095 24.6062 40.6997L19.756 30.6372C18.8124 28.6775 17.0055 27.1205 14.7317 26.308L3.06405 22.1289C0.637717 21.2601 -0.469117 18.8455 0.5918 16.733C0.852437 16.2167 1.22896 15.7498 1.6997 15.3594C2.17044 14.9689 2.72611 14.6626 3.33472 14.458L42.6805 1.27469C43.5352 0.978561 44.4721 0.905474 45.3746 1.06452C46.2771 1.22356 47.1056 1.60771 47.7569 2.16925C48.4083 2.73079 48.8539 3.44495 49.0384 4.223C49.2229 5.00104 49.1381 5.80867 48.7946 6.54553Z" fill="#CC8D30"/>
</svg>
