<svg width="24" height="24" viewBox="0 0 24 24" fill="none" xmlns="http://www.w3.org/2000/svg">
<path d="M6.33889 3.65656L12.2455 9.56317L18.1215 3.68717C18.2513 3.54902 18.4077 3.4385 18.5812 3.36225C18.7547 3.28599 18.9419 3.24557 19.1314 3.24341C19.5373 3.24341 19.9265 3.40463 20.2135 3.6916C20.5004 3.97857 20.6617 4.36778 20.6617 4.77362C20.6652 4.96122 20.6304 5.14758 20.5594 5.32125C20.4883 5.49492 20.3825 5.65224 20.2485 5.78356L14.296 11.6596L20.2485 17.6121C20.5007 17.8588 20.6486 18.1929 20.6617 18.5455C20.6617 18.9513 20.5004 19.3406 20.2135 19.6275C19.9265 19.9145 19.5373 20.0757 19.1314 20.0757C18.9364 20.0838 18.7419 20.0513 18.5601 19.9801C18.3783 19.909 18.2133 19.8009 18.0756 19.6626L12.2455 13.7559L6.3542 19.6473C6.2249 19.7808 6.07044 19.8874 5.89973 19.961C5.72901 20.0345 5.54543 20.0735 5.35956 20.0757C4.95372 20.0757 4.56451 19.9145 4.27754 19.6275C3.99057 19.3406 3.82935 18.9513 3.82935 18.5455C3.82578 18.3579 3.86059 18.1715 3.93164 17.9979C4.00268 17.8242 4.10847 17.6669 4.24251 17.5356L10.195 11.6596L4.24251 5.70705C3.99031 5.46031 3.84242 5.1262 3.82935 4.77362C3.82935 4.36778 3.99057 3.97857 4.27754 3.6916C4.56451 3.40463 4.95372 3.24341 5.35956 3.24341C5.72681 3.248 6.07876 3.39643 6.33889 3.65656Z" fill="#CDCDCD"/>
</svg>
