<svg width="48" height="48" viewBox="0 0 48 48" fill="none" xmlns="http://www.w3.org/2000/svg">
<path d="M33.6011 6.5998C33.6011 6.12242 33.7908 5.66458 34.1284 5.32701C34.4659 4.98945 34.9238 4.7998 35.4011 4.7998H41.4011C41.8785 4.7998 42.3364 4.98945 42.6739 5.32701C43.0115 5.66458 43.2011 6.12242 43.2011 6.5998V12.5998C43.2011 13.0772 43.0115 13.535 42.6739 13.8726C42.3364 14.2102 41.8785 14.3998 41.4011 14.3998C40.9238 14.3998 40.4659 14.2102 40.1284 13.8726C39.7908 13.535 39.6011 13.0772 39.6011 12.5998V10.9438L28.8731 21.6718C28.5356 22.0089 28.0781 22.1982 27.6011 22.1982C27.1241 22.1982 26.6667 22.0089 26.3291 21.6718L20.4011 15.7438L10.2732 25.8718C10.1084 26.0487 9.90964 26.1905 9.68884 26.2889C9.46804 26.3873 9.22969 26.4402 8.988 26.4444C8.74632 26.4487 8.50625 26.4042 8.28212 26.3137C8.05798 26.2232 7.85438 26.0884 7.68346 25.9175C7.51253 25.7466 7.37779 25.543 7.28726 25.3188C7.19672 25.0947 7.15227 24.8546 7.15653 24.613C7.16079 24.3713 7.2137 24.1329 7.31208 23.9121C7.41046 23.6913 7.5523 23.4926 7.72915 23.3278L19.1291 11.9278C19.4666 11.5907 19.9241 11.4014 20.4011 11.4014C20.8782 11.4014 21.3356 11.5907 21.6731 11.9278L27.6011 17.8558L37.0571 8.3998H35.4011C34.9238 8.3998 34.4659 8.21016 34.1284 7.8726C33.7908 7.53503 33.6011 7.07719 33.6011 6.5998ZM9.00115 33.5998C9.47854 33.5998 9.93638 33.7894 10.2739 34.127C10.6115 34.4646 10.8011 34.9224 10.8011 35.3998V41.3998C10.8011 41.8772 10.6115 42.335 10.2739 42.6726C9.93638 43.0102 9.47854 43.1998 9.00115 43.1998C8.52376 43.1998 8.06592 43.0102 7.72836 42.6726C7.39079 42.335 7.20115 41.8772 7.20115 41.3998V35.3998C7.20115 34.9224 7.39079 34.4646 7.72836 34.127C8.06592 33.7894 8.52376 33.5998 9.00115 33.5998ZM20.4011 28.1998C20.4011 27.7224 20.2115 27.2646 19.8739 26.927C19.5364 26.5894 19.0785 26.3998 18.6011 26.3998C18.1238 26.3998 17.6659 26.5894 17.3284 26.927C16.9908 27.2646 16.8011 27.7224 16.8011 28.1998V41.3998C16.8011 41.8772 16.9908 42.335 17.3284 42.6726C17.6659 43.0102 18.1238 43.1998 18.6011 43.1998C19.0785 43.1998 19.5364 43.0102 19.8739 42.6726C20.2115 42.335 20.4011 41.8772 20.4011 41.3998V28.1998ZM28.2011 31.1998C28.6785 31.1998 29.1364 31.3894 29.4739 31.727C29.8115 32.0646 30.0011 32.5224 30.0011 32.9998V41.3998C30.0011 41.8772 29.8115 42.335 29.4739 42.6726C29.1364 43.0102 28.6785 43.1998 28.2011 43.1998C27.7238 43.1998 27.2659 43.0102 26.9284 42.6726C26.5908 42.335 26.4011 41.8772 26.4011 41.3998V32.9998C26.4011 32.5224 26.5908 32.0646 26.9284 31.727C27.2659 31.3894 27.7238 31.1998 28.2011 31.1998ZM39.6011 23.3998C39.6011 22.9224 39.4115 22.4646 39.0739 22.127C38.7364 21.7894 38.2785 21.5998 37.8011 21.5998C37.3238 21.5998 36.8659 21.7894 36.5284 22.127C36.1908 22.4646 36.0011 22.9224 36.0011 23.3998V41.3998C36.0011 41.8772 36.1908 42.335 36.5284 42.6726C36.8659 43.0102 37.3238 43.1998 37.8011 43.1998C38.2785 43.1998 38.7364 43.0102 39.0739 42.6726C39.4115 42.335 39.6011 41.8772 39.6011 41.3998V23.3998Z" fill="#C22032"/>
</svg>
