<svg width="147" height="147" viewBox="0 0 147 147" fill="none" xmlns="http://www.w3.org/2000/svg">
<path d="M2.67871 109.811V135.172H55.268V116.815L48.2641 109.811H2.67871ZM6.98535 120.35H13.2434V124.634H6.98535V120.35ZM50.9613 130.866H6.98535V128.941H17.5501V116.044H6.98535V114.118H46.4808L50.9613 118.598V130.866Z" fill="#D4AF37"/>
<path d="M142.386 33.1622H139.578L139.86 31.5596L135.617 30.816L135.205 33.1622H131.322L131.603 31.5596L127.361 30.816L126.95 33.1622H123.066L123.346 31.5596L119.105 30.816L118.693 33.1622H113.974V30.6332L101.931 23.6797V22.4921L96.3626 16.9237H87.3164V21.2303H94.5783L97.6232 24.2753V53.363L94.5783 56.4091H87.3164V60.7157H96.3626L101.931 55.1474V53.9608L113.974 47.0276V44.4761H116.71L116.429 46.0799L120.67 46.8235L121.082 44.4761H124.966L124.684 46.0799L128.927 46.8235L129.339 44.4761H133.223L132.941 46.0799L137.183 46.8235L137.594 44.4761H142.384L146.999 41.8204V35.8258L142.386 33.1622ZM109.667 44.5389L101.93 48.9925V40.9736H106.732V36.667H101.93V28.6526L109.667 33.1196V44.5389ZM117.464 40.1706H113.974V37.4688H117.937L117.464 40.1706ZM125.721 40.1706H121.837L122.311 37.4688H126.195L125.721 40.1706ZM133.977 40.1706H130.093L130.567 37.4688H134.451L133.977 40.1706ZM142.693 39.3306L141.234 40.1706H138.349L138.823 37.4688H141.232L142.693 38.3122V39.3306Z" fill="#989798"/>
<path d="M13.0508 23.1537H40.74V27.4604H13.0508V23.1537Z" fill="black"/>
<path d="M13.0508 33.7263H40.74V38.033H13.0508V33.7263Z" fill="black"/>
<path d="M13.0508 44.299H40.74V48.6056H13.0508V44.299Z" fill="black"/>
<path d="M88.0921 48.5125H83.7271V44.9213H88.0921V40.6147H83.7271V37.0247H88.0921V32.7181H83.7271V29.127H88.0921V24.8203H83.7271V17.3398L78.1599 11.7714H5.56835L0 17.3398V60.2996L5.56835 65.868H10.2731L6.39828 90.4057V106.223H10.7049V90.7444L14.6336 65.868H28.9745V61.5613H7.35157L4.30664 58.5164V19.123L7.35157 16.0781H76.3756L79.4205 19.123V58.5164L76.3756 61.5613H40.3007L37.9063 76.7209H27.2137V81.0276H37.2266L36.0591 88.4218H25.1075V92.7284H35.7451V100.123H25.1254V104.429H35.7451V106.223H40.0518V90.7444L43.9804 65.868H78.1599L83.7271 60.3008V52.8191H88.0921V48.5125Z" fill="#D4AF37"/>
<path d="M56.5758 69.4569H52.2692V78.8822H45.5064V83.1888H56.9908V86.125H44.0742V90.4316H61.2974V78.8822H56.5758V69.4569Z" fill="black"/>
<path d="M34.4531 123.689H38.7598V127.996H34.4531V123.689Z" fill="black"/>
<path d="M24.1484 123.689H31.5808V127.996H24.1484V123.689Z" fill="black"/>
<path d="M41.6299 123.689H45.9365V127.996H41.6299V123.689Z" fill="black"/>
<path d="M72.2432 28.3823H76.5498V32.689H72.2432V28.3823Z" fill="black"/>
<path d="M72.2432 35.5601H76.5498V56.4349H72.2432V35.5601Z" fill="black"/>
<path d="M72.2432 21.2046H76.5498V25.5112H72.2432V21.2046Z" fill="black"/>
<path d="M91.0205 32.1013H95.3271V36.4079H91.0205V32.1013Z" fill="black"/>
<path d="M91.0205 39.279H95.3271V52.7159H91.0205V39.279Z" fill="black"/>
<path d="M91.0205 24.9235H95.3271V29.2302H91.0205V24.9235Z" fill="black"/>
</svg>
