<?xml version="1.0" encoding="utf-8"?>
<!-- Generator: Adobe Illustrator 26.0.1, SVG Export Plug-In . SVG Version: 6.00 Build 0)  -->
<svg version="1.1" id="Layer_1" xmlns="http://www.w3.org/2000/svg" xmlns:xlink="http://www.w3.org/1999/xlink" x="0px" y="0px"
	 viewBox="0 0 90 90" style="enable-background:new 0 0 90 90;" xml:space="preserve">
<style type="text/css">
	.st0{fill:#D5AF34;}
	.st1{fill:#818181;}
	.st2{fill:#010101;}
</style>
<path class="st0" d="M3.75,66.17v14.77h30.63V70.25l-4.08-4.08H3.75z M6.26,72.31H9.9v2.5H6.26V72.31z M31.87,78.43H6.26v-1.12h6.15
	V69.8H6.26v-1.12h23.01l2.61,2.61V78.43z"/>
<path class="st1" d="M85.12,21.52h-1.64l0.16-0.93l-2.47-0.43l-0.24,1.37h-2.26l0.16-0.93l-2.47-0.43l-0.24,1.37h-2.26l0.16-0.93
	l-2.47-0.43l-0.24,1.37h-2.75v-1.47L61.56,16v-0.69l-3.24-3.24h-5.27v2.51h4.23l1.77,1.77v16.94l-1.77,1.77h-4.23v2.51h5.27
	l3.24-3.24v-0.69l7.01-4.04v-1.49h1.59l-0.16,0.93l2.47,0.43l0.24-1.37h2.26l-0.16,0.93l2.47,0.43l0.24-1.37h2.26l-0.16,0.93
	l2.47,0.43l0.24-1.37h2.79l2.69-1.55v-3.49L85.12,21.52z M66.07,28.15l-4.51,2.59v-4.67h2.8v-2.51h-2.8v-4.67l4.51,2.6V28.15z
	 M70.61,25.6h-2.03v-1.57h2.31L70.61,25.6z M75.42,25.6h-2.26l0.28-1.57h2.26L75.42,25.6z M80.23,25.6h-2.26l0.28-1.57h2.26
	L80.23,25.6z M85.3,25.11l-0.85,0.49h-1.68l0.28-1.57h1.4l0.85,0.49V25.11z"/>
<path class="st2" d="M9.79,15.69h16.13v2.51H9.79V15.69z"/>
<path class="st2" d="M9.79,21.85h16.13v2.51H9.79V21.85z"/>
<path class="st2" d="M9.79,28.01h16.13v2.51H9.79V28.01z"/>
<path class="st0" d="M53.5,30.46h-2.54v-2.09h2.54v-2.51h-2.54v-2.09h2.54v-2.51h-2.54v-2.09h2.54v-2.51h-2.54V12.3l-3.24-3.24H5.43
	L2.19,12.3v25.02l3.24,3.24h2.74L5.91,54.86v9.21h2.51v-9.02l2.29-14.49h8.35v-2.51H6.47L4.7,36.29V13.34l1.77-1.77h40.2l1.77,1.77
	v22.95l-1.77,1.77H25.66l-1.39,8.83h-6.23v2.51h5.83l-0.68,4.31h-6.38v2.51h6.2v4.31h-6.19v2.51h6.19v1.04h2.51v-9.02l2.29-14.49
	h19.91l3.24-3.24v-4.36h2.54V30.46z"/>
<path class="st2" d="M35.14,42.66h-2.51v5.49h-3.94v2.51h6.69v1.71h-7.52v2.51h10.03v-6.73h-2.75V42.66z"/>
<path class="st2" d="M22.26,74.25h2.51v2.51h-2.51V74.25z"/>
<path class="st2" d="M16.25,74.25h4.33v2.51h-4.33V74.25z"/>
<path class="st2" d="M26.44,74.25h2.51v2.51h-2.51V74.25z"/>
<path class="st2" d="M44.27,18.74h2.51v2.51h-2.51V18.74z"/>
<path class="st2" d="M44.27,22.92h2.51v12.16h-2.51V22.92z"/>
<path class="st2" d="M44.27,14.56h2.51v2.51h-2.51V14.56z"/>
<path class="st1" d="M55.21,20.9h2.51v2.51h-2.51V20.9z"/>
<path class="st1" d="M55.21,25.08h2.51v7.83h-2.51V25.08z"/>
<path class="st1" d="M55.21,16.72h2.51v2.51h-2.51V16.72z"/>
</svg>
