<svg width="19" height="19" viewBox="0 0 19 19" fill="none" xmlns="http://www.w3.org/2000/svg">
<g opacity="0.688509">
<path d="M16.5997 2.89288C14.5439 1.16432 11.3678 1.42396 9.40097 3.42638C7.43412 1.42396 4.258 1.16077 2.20223 2.89288C-0.472404 5.14426 -0.0811678 8.81477 1.82522 10.7603L8.06366 17.1161C8.41932 17.4789 8.89592 17.6816 9.40097 17.6816C9.90958 17.6816 10.3826 17.4824 10.7383 17.1196L16.9767 10.7638C18.8796 8.81833 19.2779 5.14782 16.5997 2.89288ZM15.7603 9.56167L9.5219 15.9175C9.43654 16.0028 9.36541 16.0028 9.28004 15.9175L3.04161 9.56167C1.74341 8.23858 1.48022 5.73467 3.30125 4.20174C4.6848 3.0387 6.81881 3.21298 8.15613 4.57519L9.40097 5.84493L10.6458 4.57519C11.9902 3.20587 14.1243 3.0387 15.5007 4.19818C17.3182 5.73112 17.0479 8.24925 15.7603 9.56167Z" fill="#888888"/>
</g>
</svg>
