<?xml version="1.0" encoding="utf-8"?>
<!-- Generator: Adobe Illustrator 26.0.1, SVG Export Plug-In . SVG Version: 6.00 Build 0)  -->
<svg version="1.1" id="Layer_1" xmlns="http://www.w3.org/2000/svg" xmlns:xlink="http://www.w3.org/1999/xlink" x="0px" y="0px"
	 viewBox="0 0 90 90" style="enable-background:new 0 0 90 90;" xml:space="preserve">
<style type="text/css">
	.st0{fill:#010101;}
	.st1{fill:#9BC1DD;}
</style>
<g>
	
		<rect x="6.31" y="21.22" transform="matrix(0.8071 -0.5904 0.5904 0.8071 -10.2727 13.4763)" class="st0" width="18.36" height="2.48"/>
</g>
<g>
	<polygon class="st0" points="81.35,28.88 48.66,4.96 41.5,4.96 25.63,16.57 24.17,14.57 40.69,2.48 49.47,2.48 49.8,2.72 
		82.81,26.88 	"/>
</g>
<g>
	<path class="st1" d="M71.34,65.42h-2.48v-25.7c0-0.68-0.56-1.24-1.24-1.24h-18.2c-0.68,0-1.24,0.56-1.24,1.24v25.7H45.7v-25.7
		c0-2.05,1.67-3.72,3.72-3.72h18.2c2.05,0,3.72,1.67,3.72,3.72V65.42z"/>
</g>
<g>
	<path class="st1" d="M58.52,61.78c-4.33,0-7.86-3.53-7.86-7.86s3.53-7.86,7.86-7.86s7.86,3.53,7.86,7.86S62.85,61.78,58.52,61.78z
		 M58.52,48.54c-2.96,0-5.38,2.41-5.38,5.38s2.41,5.38,5.38,5.38s5.38-2.41,5.38-5.38S61.48,48.54,58.52,48.54z"/>
</g>
<g>
	<rect x="60.04" y="40.96" class="st0" width="5.96" height="2.48"/>
</g>
<g>
	<rect x="11.68" y="24.33" class="st0" width="2.48" height="33.78"/>
</g>
<g>
	<rect x="75.88" y="24.25" class="st0" width="2.48" height="41.31"/>
</g>
<g>
	<g>
		<path class="st1" d="M34.72,40.15h-2.48V21.52c0-2.05,1.67-3.72,3.72-3.72H54.2c2.05,0,3.72,1.67,3.72,3.72v15.72h-2.48V21.52
			c0-0.68-0.56-1.24-1.24-1.24H35.96c-0.68,0-1.24,0.56-1.24,1.24V40.15z"/>
	</g>
	<g>
		<rect x="33.52" y="31.15" class="st1" width="23.16" height="2.48"/>
	</g>
	<g>
		<rect x="37.22" y="23.58" class="st1" width="2.48" height="4.96"/>
	</g>
</g>
<g>
	<path class="st1" d="M41.81,65.42h-2.48V42.63c0-0.68-0.56-1.24-1.24-1.24H22.37c-0.68,0-1.24,0.56-1.24,1.24V57.3h-2.48V42.63
		c0-2.05,1.67-3.72,3.72-3.72h15.72c2.05,0,3.72,1.67,3.72,3.72V65.42z"/>
</g>
<g>
	<rect x="23.62" y="43.87" class="st0" width="4.96" height="2.48"/>
</g>
<g>
	<rect x="31.89" y="43.87" class="st0" width="4.96" height="2.48"/>
</g>
<g>
	<rect x="19.89" y="48.84" class="st1" width="20.68" height="2.48"/>
</g>
<g>
	<g>
		<rect x="41.6" y="70.48" class="st0" width="2.48" height="2.48"/>
	</g>
	<g>
		<rect x="46.56" y="70.48" class="st0" width="2.48" height="2.48"/>
	</g>
</g>
<g>
	<path class="st0" d="M17.74,87.52c-6.49,0-12.01-3.45-14.42-9.01l-0.75-1.73h12.31l2.66-5.06l-2.66-5.06H2.57l0.75-1.73
		c2.41-5.56,7.93-9.01,14.42-9.01c0,0,0,0,0,0c6.19,0,11.5,3.15,14.06,8.26l48.08,0c4.16,0,7.54,3.38,7.54,7.54
		c0,4.16-3.38,7.54-7.54,7.54H68.48v-2.48h11.41c2.79,0,5.06-2.27,5.06-5.06c0-2.79-2.27-5.06-5.06-5.06l-49.68,0l-0.32-0.75
		c-2-4.64-6.66-7.51-12.14-7.52c0,0,0,0,0,0c-4.76,0-8.9,2.17-11.22,5.78h9.86l3.96,7.54l-3.96,7.54H6.53
		c2.32,3.61,6.45,5.78,11.21,5.78c0,0,0,0,0,0c5.48,0,10.13-2.88,12.14-7.52l0.32-0.75l35.79,0v2.48l-34.19,0
		C29.25,84.37,23.93,87.52,17.74,87.52C17.74,87.52,17.74,87.52,17.74,87.52z"/>
</g>
</svg>
