<svg width="123" height="123" viewBox="0 0 123 123" fill="none" xmlns="http://www.w3.org/2000/svg">
<g clip-path="url(#clip0_465_2496)">
<path d="M117.602 112.188H107.202V105.596C107.645 105.9 108.173 106.076 108.729 106.076H108.73C109.717 106.076 110.625 105.538 111.099 104.671L113.46 100.355L117.775 97.9945C118.642 97.5207 119.181 96.6127 119.181 95.625C119.181 94.6373 118.643 93.7289 117.776 93.2548H117.776L113.46 90.8945L111.099 86.5781C110.625 85.7117 109.717 85.1733 108.73 85.173C108.173 85.173 107.645 85.3489 107.202 85.6533V61.3648L110.34 62.977C111.213 63.4253 112.189 63.6625 113.164 63.6625H113.167C115.5 63.6625 117.611 62.3737 118.677 60.2992C119.433 58.8281 119.571 57.1508 119.065 55.5761C118.559 54.0015 117.471 52.718 115.999 51.9623L64.3302 25.4163C62.5588 24.5059 60.4428 24.5059 58.6713 25.4163L48.6614 30.5587C47.7763 31.0135 47.4274 32.0997 47.8823 32.9848C48.3371 33.8702 49.4233 34.2191 50.3087 33.7643L60.3181 28.6219C61.0591 28.2418 61.9435 28.2418 62.6835 28.6219L114.353 55.1677C114.968 55.4836 115.423 56.0201 115.634 56.6782C115.845 57.3361 115.788 58.0372 115.472 58.652C115.026 59.5194 114.143 60.0585 113.166 60.0585H113.165C112.754 60.0585 112.358 59.9622 111.988 59.7716L62.3243 34.2563C61.8072 33.9908 61.1943 33.9908 60.6773 34.2563L11.0142 59.7716C9.7442 60.4235 8.18177 59.9213 7.52969 58.6522C7.21398 58.0374 7.15608 57.3363 7.36751 56.6785C7.57894 56.0204 8.034 55.4839 8.64908 55.1679L42.8182 37.613C44.9035 36.4583 43.322 33.3844 41.1712 34.4074L7.00231 51.9623C5.53094 52.7182 4.4423 54.0015 3.9363 55.5761C3.43079 57.1511 3.56846 58.8281 4.32409 60.299C5.07996 61.7704 6.36321 62.859 7.9379 63.365C9.5061 63.8693 11.1867 63.7348 12.661 62.9772L15.7993 61.3651V112.188H5.39903C-1.76468 112.461 -1.75915 122.73 5.39903 123H96.6138C98.9962 122.926 98.9946 119.469 96.6138 119.396H5.39903C3.01705 119.32 3.01874 115.867 5.39903 115.792H117.602C119.984 115.868 119.983 119.321 117.602 119.396H104.995C102.612 119.47 102.614 122.927 104.995 123H117.602C124.766 122.727 124.76 112.458 117.602 112.188ZM110.425 92.8562C110.673 93.3101 111.044 93.681 111.498 93.9295L114.598 95.6248L111.498 97.3203C111.044 97.5685 110.673 97.9395 110.425 98.3941L108.729 101.494L107.034 98.3933C106.785 97.9397 106.414 97.5687 105.96 97.3201L102.86 95.6248L105.961 93.9292C106.414 93.6808 106.785 93.3098 107.034 92.8555L108.729 89.7558L110.425 92.8562ZM33.4989 112.188V74.2588H59.2539V112.188H33.4989V112.188ZM62.8582 112.188V72.4568C62.8582 71.4614 62.0516 70.6549 61.0562 70.6549H31.6969C30.7015 70.6549 29.8949 71.4614 29.8949 72.4568V112.188H19.4033V59.5131L61.5007 37.8848L103.598 59.5131V91.084C103.598 91.0936 103.599 91.1028 103.599 91.1124L99.6827 93.2546C98.816 93.7289 98.2776 94.637 98.2776 95.6248C98.2779 96.6125 98.8163 97.5207 99.6829 97.994L103.598 100.135V112.188H62.8582V112.188Z" fill="#9BC1DD"/>
<path d="M8.31323 18.312L15.4166 22.1968L19.3022 29.3009C19.8678 30.3357 20.9523 30.9787 22.1318 30.9787C23.3115 30.9787 24.396 30.336 24.9621 29.3009L28.8471 22.197L35.9513 18.312C38.1682 17.1474 38.1675 13.8159 35.9513 12.6516H35.951L28.8474 8.76651L24.9623 1.66239C23.7982 -0.554529 20.4658 -0.553809 19.3024 1.66263L15.4171 8.76651L8.31275 12.6516C6.09583 13.8164 6.09655 17.1484 8.31323 18.312ZM17.2436 11.875C17.7856 11.5788 18.2292 11.1353 18.5256 10.593L22.1322 3.99895L25.7391 10.5932C26.0353 11.1353 26.4789 11.5788 27.0211 11.8753L33.6154 15.4819L27.0209 19.0885C26.4789 19.385 26.0353 19.8283 25.7388 20.3705L22.1322 26.9648L18.5254 20.3701C18.2292 19.828 17.7856 19.3847 17.2434 19.088L10.6491 15.4819L17.2436 11.875Z" fill="#BE4343"/>
<path d="M83.1206 21.4147L88.6315 24.4286L91.6456 29.9395C92.7016 31.951 95.7241 31.9503 96.7796 29.9395L99.7937 24.4286L105.305 21.4147C107.316 20.3587 107.315 17.336 105.305 16.2805L99.7937 13.2664L96.7794 7.7557C95.7236 5.74469 92.7009 5.74517 91.6454 7.7557L88.6313 13.2666L83.1204 16.2807C81.1093 17.3365 81.1098 20.359 83.1206 21.4147ZM90.5339 16.3338C91.0258 16.0652 91.4284 15.6628 91.698 15.17L94.2126 10.5726L96.7272 15.1705C96.9963 15.6623 97.3985 16.0645 97.8901 16.3331L102.488 18.8477L97.8889 21.3628C97.3976 21.6319 96.9958 22.0336 96.727 22.5252L94.2124 27.1227L91.6978 22.5247C91.4289 22.0331 91.027 21.6312 90.5349 21.3621L85.9374 18.8477L90.5339 16.3338Z" fill="#C22032"/>
<path d="M93.5645 70.655H70.6916C69.6962 70.655 68.8896 71.4615 68.8896 72.4569V90.2881C68.8896 91.2835 69.6962 92.0901 70.6916 92.0901H93.5645C94.5599 92.0901 95.3665 91.2835 95.3665 90.2881V72.4569C95.3665 71.4618 94.5597 70.655 93.5645 70.655ZM91.7625 88.4862H72.4936V74.2589H91.7625V88.4862Z" fill="#C22032"/>
<path d="M72.1151 55.9068C72.1151 52.3336 69.2082 49.4266 65.635 49.4266H57.3656C48.7785 49.7534 48.785 62.0633 57.3656 62.3867H65.635C69.2082 62.3867 72.1151 59.48 72.1151 55.9068ZM65.635 58.7828H57.3656C53.5543 58.6376 53.5572 53.1743 57.3656 53.0306H65.635C69.4463 53.1757 69.4434 58.6391 65.635 58.7828Z" fill="#C22032"/>
<path d="M51.2516 88.8916C48.2709 88.8916 45.8457 91.3168 45.8457 94.2975C46.1177 101.459 56.3868 101.457 56.6576 94.2975C56.6576 91.3168 54.2324 88.8916 51.2516 88.8916ZM51.2516 96.0995C48.8701 96.0238 48.8709 92.5708 51.2516 92.4956C53.6331 92.5712 53.6327 96.0241 51.2516 96.0995Z" fill="#C22032"/>
</g>
<defs>
<clipPath id="clip0_465_2496">
<rect width="123" height="123" fill="white"/>
</clipPath>
</defs>
</svg>
