<svg width="124" height="124" viewBox="0 0 124 124" fill="none" xmlns="http://www.w3.org/2000/svg">
<g clip-path="url(#clip0_465_2448)">
<path d="M29.7634 21.226L8.15625 37.0332" stroke="#13191E" stroke-width="3.61888" stroke-miterlimit="10"/>
<path d="M32.6855 19.0884L56.3048 1.80945H67.9238L116.072 37.0332" stroke="#13191E" stroke-width="3.61888" stroke-miterlimit="10"/>
<path d="M64.8252 91.7794V54.3044C64.8252 52.3058 66.4455 50.6855 68.4441 50.6855H94.9825C96.9811 50.6855 98.6014 52.3058 98.6014 54.3044V91.7794" stroke="#9BC1DD" stroke-width="3.61888" stroke-miterlimit="10"/>
<path d="M81.7138 84.6603C87.0436 84.6603 91.3642 80.3397 91.3642 75.01C91.3642 69.6802 87.0436 65.3596 81.7138 65.3596C76.3841 65.3596 72.0635 69.6802 72.0635 75.01C72.0635 80.3397 76.3841 84.6603 81.7138 84.6603Z" stroke="#9BC1DD" stroke-width="3.61888" stroke-miterlimit="10"/>
<path d="M83.9287 57.9233H92.614" stroke="#13191E" stroke-width="3.61888" stroke-miterlimit="10"/>
<path d="M15.2236 81.1257V31.863" stroke="#13191E" stroke-width="3.61888" stroke-miterlimit="10"/>
<path d="M108.832 91.9823V31.7375" stroke="#13191E" stroke-width="3.61888" stroke-miterlimit="10"/>
<path d="M96.2321 110.142H112.874C117.943 110.142 122.056 106.028 122.056 100.96C122.056 95.8883 117.945 91.7772 112.874 91.7772L41.6112 91.7796C34.6605 75.7094 9.83738 75.7166 2.88672 91.7772H19.1741L23.9993 100.96L19.1741 110.142H2.88672C9.83979 126.21 34.6629 126.205 41.6112 110.139L92.6132 110.142" stroke="#13191E" stroke-width="3.61888" stroke-miterlimit="10"/>
<path d="M45.1982 54.9298V27.7665C45.1982 25.7664 46.8195 24.1476 48.8171 24.1476H75.4111C77.4087 24.1476 79.03 25.7664 79.03 27.7665V50.686" stroke="#9BC1DD" stroke-width="3.61888" stroke-miterlimit="10"/>
<path d="M79.0292 43.6182H45.2529" stroke="#9BC1DD" stroke-width="3.61888" stroke-miterlimit="10"/>
<path d="M52.4619 30.7665V38.0042" stroke="#9BC1DD" stroke-width="3.61888" stroke-miterlimit="10"/>
<path d="M25.3848 79.9387V58.5487C25.3848 56.5487 27.006 54.9298 29.0036 54.9298H51.9232C53.9233 54.9298 55.5421 56.5487 55.5421 58.5487V91.7797" stroke="#9BC1DD" stroke-width="3.61888" stroke-miterlimit="10"/>
<path d="M30.8154 62.1666H38.0532" stroke="#13191E" stroke-width="3.61888" stroke-miterlimit="10"/>
<path d="M42.8789 62.1666H50.1167" stroke="#13191E" stroke-width="3.61888" stroke-miterlimit="10"/>
<path d="M25.3896 69.4044H55.547" stroke="#9BC1DD" stroke-width="3.61888" stroke-miterlimit="10"/>
<path d="M57.0439 100.96H60.6628" stroke="#13191E" stroke-width="3.61888" stroke-miterlimit="10"/>
<path d="M64.2822 100.96H67.9011" stroke="#13191E" stroke-width="3.61888" stroke-miterlimit="10"/>
</g>
<defs>
<clipPath id="clip0_465_2448">
<rect width="124" height="124" fill="white"/>
</clipPath>
</defs>
</svg>
