<?xml version="1.0" encoding="utf-8"?>
<!-- Generator: Adobe Illustrator 26.0.1, SVG Export Plug-In . SVG Version: 6.00 Build 0)  -->
<svg version="1.1" id="Layer_1" xmlns="http://www.w3.org/2000/svg" xmlns:xlink="http://www.w3.org/1999/xlink" x="0px" y="0px"
	 viewBox="0 0 90 90" style="enable-background:new 0 0 90 90;" xml:space="preserve">
<style type="text/css">
	.st0{fill:#9BC1DD;}
	.st1{fill:#C22133;}
</style>
<path class="st0" d="M81.06,77.58h-6.68v-4.24c0.28,0.2,0.62,0.31,0.98,0.31h0c0.63,0,1.22-0.35,1.52-0.9l1.52-2.77l2.77-1.52
	c0.56-0.3,0.9-0.89,0.9-1.52c0-0.63-0.35-1.22-0.9-1.52h0l-2.77-1.52l-1.52-2.77c-0.3-0.56-0.89-0.9-1.52-0.9
	c-0.36,0-0.7,0.11-0.98,0.31V44.91l2.02,1.04c0.56,0.29,1.19,0.44,1.82,0.44h0c1.5,0,2.86-0.83,3.54-2.16
	c0.49-0.95,0.57-2.02,0.25-3.04c-0.33-1.01-1.02-1.84-1.97-2.32L46.82,21.81c-1.14-0.59-2.5-0.59-3.64,0l-6.43,3.31
	c-0.57,0.29-0.79,0.99-0.5,1.56c0.29,0.57,0.99,0.79,1.56,0.5l6.43-3.31c0.48-0.24,1.04-0.24,1.52,0l33.21,17.06
	c0.4,0.2,0.69,0.55,0.82,0.97c0.14,0.42,0.1,0.87-0.1,1.27c-0.29,0.56-0.85,0.9-1.48,0.9h0c-0.26,0-0.52-0.06-0.76-0.18l-31.92-16.4
	c-0.33-0.17-0.73-0.17-1.06,0l-31.92,16.4c-0.82,0.42-1.82,0.1-2.24-0.72c-0.2-0.4-0.24-0.85-0.1-1.27
	c0.14-0.42,0.43-0.77,0.82-0.97l21.96-11.28c1.34-0.74,0.32-2.72-1.06-2.06L9.97,38.87C9.03,39.36,8.33,40.18,8,41.19
	c-0.32,1.01-0.24,2.09,0.25,3.04c0.49,0.95,1.31,1.65,2.32,1.97c1.01,0.32,2.09,0.24,3.04-0.25l2.02-1.04v32.67H8.94
	c-4.6,0.18-4.6,6.78,0,6.95h58.63c1.53-0.05,1.53-2.27,0-2.32H8.94c-1.53-0.05-1.53-2.27,0-2.32h72.12c1.53,0.05,1.53,2.27,0,2.32
	h-8.1c-1.53,0.05-1.53,2.27,0,2.32h8.1C85.66,84.35,85.66,77.75,81.06,77.58L81.06,77.58z M76.45,65.15
	c0.16,0.29,0.4,0.53,0.69,0.69l1.99,1.09l-1.99,1.09c-0.29,0.16-0.53,0.4-0.69,0.69l-1.09,1.99l-1.09-1.99
	c-0.16-0.29-0.4-0.53-0.69-0.69l-1.99-1.09l1.99-1.09c0.29-0.16,0.53-0.4,0.69-0.69l1.09-1.99L76.45,65.15z M27,77.58V53.2h16.55
	v24.38L27,77.58L27,77.58z M45.87,77.58V52.04c0-0.64-0.52-1.16-1.16-1.16H25.84c-0.64,0-1.16,0.52-1.16,1.16v25.54h-6.74V43.72
	L45,29.82l27.06,13.9v20.29c0,0.01,0,0.01,0,0.02l-2.52,1.38c-0.56,0.3-0.9,0.89-0.9,1.52c0,0.63,0.35,1.22,0.9,1.52l2.52,1.38v7.75
	L45.87,77.58L45.87,77.58z"/>
<path class="st1" d="M10.81,17.24l4.57,2.5l2.5,4.57c0.36,0.67,1.06,1.08,1.82,1.08c0.76,0,1.46-0.41,1.82-1.08l2.5-4.57l4.57-2.5
	c1.42-0.75,1.42-2.89,0-3.64h0l-4.57-2.5l-2.5-4.57c-0.75-1.42-2.89-1.42-3.64,0l-2.5,4.57l-4.57,2.5
	C9.39,14.35,9.39,16.49,10.81,17.24z M16.55,13.1c0.35-0.19,0.63-0.48,0.82-0.82l2.32-4.24l2.32,4.24c0.19,0.35,0.48,0.63,0.82,0.82
	l4.24,2.32l-4.24,2.32c-0.35,0.19-0.63,0.48-0.82,0.82L19.7,22.8l-2.32-4.24c-0.19-0.35-0.48-0.63-0.82-0.82l-4.24-2.32L16.55,13.1z
	"/>
<path class="st1" d="M58.9,19.24l3.54,1.94l1.94,3.54c0.68,1.29,2.62,1.29,3.3,0l1.94-3.54l3.54-1.94c1.29-0.68,1.29-2.62,0-3.3
	L69.61,14l-1.94-3.54c-0.68-1.29-2.62-1.29-3.3,0L62.44,14l-3.54,1.94C57.6,16.61,57.6,18.56,58.9,19.24L58.9,19.24z M63.66,15.97
	c0.32-0.17,0.57-0.43,0.75-0.75l1.62-2.95l1.62,2.96c0.17,0.32,0.43,0.57,0.75,0.75l2.95,1.62l-2.96,1.62
	c-0.32,0.17-0.57,0.43-0.75,0.75l-1.62,2.95l-1.62-2.96c-0.17-0.32-0.43-0.57-0.75-0.75l-2.95-1.62L63.66,15.97z"/>
<path class="st1" d="M65.61,50.88h-14.7c-0.64,0-1.16,0.52-1.16,1.16V63.5c0,0.64,0.52,1.16,1.16,1.16h14.7
	c0.64,0,1.16-0.52,1.16-1.16V52.04C66.77,51.4,66.25,50.88,65.61,50.88z M64.45,62.34H52.07V53.2h12.38V62.34z"/>
<path class="st1" d="M51.82,41.4c0-2.3-1.87-4.17-4.17-4.17h-5.32c-5.52,0.21-5.52,8.12,0,8.33h5.32
	C49.95,45.57,51.82,43.7,51.82,41.4z M47.66,43.25h-5.32c-2.45-0.09-2.45-3.6,0-3.7h5.32C50.11,39.65,50.11,43.16,47.66,43.25z"/>
<path class="st1" d="M38.41,62.61c-1.92,0-3.47,1.56-3.47,3.47c0.17,4.6,6.78,4.6,6.95,0C41.89,64.16,40.33,62.61,38.41,62.61z
	 M38.41,67.24c-1.53-0.05-1.53-2.27,0-2.32C39.94,64.97,39.94,67.19,38.41,67.24z"/>
</svg>
