<?xml version="1.0" encoding="utf-8"?>
<!-- Generator: Adobe Illustrator 26.0.1, SVG Export Plug-In . SVG Version: 6.00 Build 0)  -->
<svg version="1.1" id="Layer_1" xmlns="http://www.w3.org/2000/svg" xmlns:xlink="http://www.w3.org/1999/xlink" x="0px" y="0px"
	 viewBox="0 0 90 90" style="enable-background:new 0 0 90 90;" xml:space="preserve">
<style type="text/css">
	.st0{fill:#989798;}
	.st1{fill:#C22032;}
</style>
<g>
	<g>
		<path d="M56.95,17.5c-15.17,0-27.5,12.34-27.5,27.5c0,6.77,2.48,13.28,6.99,18.32c0.57,0.64,1.54,0.69,2.18,0.12
			c0.64-0.57,0.69-1.54,0.12-2.18c-4-4.48-6.2-10.25-6.2-16.26c0-13.46,10.95-24.41,24.41-24.41S81.36,31.54,81.36,45
			S70.41,69.41,56.95,69.41c-5.12,0-10.03-1.57-14.18-4.54c-0.69-0.5-1.66-0.34-2.16,0.36c-0.5,0.69-0.34,1.66,0.36,2.16
			c4.68,3.35,10.21,5.12,15.98,5.12c15.17,0,27.5-12.34,27.5-27.5S72.11,17.5,56.95,17.5z"/>
	</g>
</g>
<g>
	<g>
		<path d="M73.38,10.24H6.26C2.81,10.24,0,13.05,0,16.5v43.07c0,0.85,0.69,1.54,1.54,1.54s1.54-0.69,1.54-1.54V16.5
			c0-1.75,1.42-3.17,3.17-3.17h67.12c0.85,0,1.54-0.69,1.54-1.54C74.93,10.94,74.23,10.24,73.38,10.24z"/>
	</g>
</g>
<g>
	<g>
		<path d="M83.74,10.24h-5c-0.85,0-1.54,0.69-1.54,1.54c0,0.85,0.69,1.54,1.54,1.54h5c1.75,0,3.17,1.42,3.17,3.17V73.5
			c0,1.75-1.42,3.17-3.17,3.17H6.26c-1.75,0-3.17-1.42-3.17-3.17v-8.78c0-0.85-0.69-1.54-1.54-1.54S0,63.87,0,64.72v8.78
			c0,3.45,2.81,6.26,6.26,6.26h77.48c3.45,0,6.26-2.81,6.26-6.26V16.5C90,13.05,87.19,10.24,83.74,10.24z"/>
	</g>
</g>
<g>
	<g>
		<path class="st0" d="M74.79,36.95c-2.83-1.84-6.37-2.13-9.45-0.76l-4.73,2.09c-0.58-0.32-1.19-0.55-1.83-0.71v-13.4
			c0-0.85-0.69-1.54-1.54-1.54c-3.38,0-6.49,1.69-8.34,4.52c-1.84,2.83-2.13,6.37-0.76,9.45l2.09,4.73
			c-0.32,0.58-0.55,1.19-0.71,1.83h-13.4v0c-0.85,0-1.54,0.69-1.54,1.54c0,3.38,1.69,6.5,4.52,8.34c1.64,1.07,3.52,1.61,5.42,1.61
			c1.37,0,2.74-0.28,4.04-0.86l4.73-2.09c0.58,0.32,1.19,0.56,1.83,0.71v13.4c0,0.85,0.69,1.54,1.54,1.54
			c3.38,0,6.49-1.69,8.34-4.52c1.84-2.83,2.13-6.37,0.76-9.46l-2.09-4.73c0.31-0.58,0.55-1.19,0.71-1.83h13.4
			c0.85,0,1.54-0.69,1.54-1.54C79.31,41.91,77.62,38.79,74.79,36.95z M47.31,50.98c-2.13,0.94-4.57,0.75-6.52-0.52
			c-1.51-0.98-2.55-2.49-2.94-4.2H49.4c0.19,1.16,0.65,2.26,1.33,3.2L47.31,50.98z M51.49,28.84c0.98-1.51,2.49-2.55,4.2-2.94v11.56
			c-1.16,0.19-2.26,0.65-3.2,1.33l-1.52-3.43C50.02,33.23,50.22,30.79,51.49,28.84z M56.76,49.55c-0.01,0-0.02,0-0.03,0
			c-0.87-0.04-1.71-0.33-2.42-0.84c-0.02-0.01-0.03-0.02-0.05-0.03c-1.17-0.86-1.87-2.23-1.87-3.68c0-0.06,0-0.13,0-0.19
			c0-0.01,0-0.02,0-0.03c0.04-0.88,0.33-1.72,0.84-2.43c0.85-1.2,2.24-1.91,3.71-1.91c0.06,0,0.13,0,0.19,0c0.01,0,0.02,0,0.03,0
			c0.88,0.04,1.71,0.33,2.43,0.84c1.2,0.85,1.91,2.24,1.91,3.71c0,0.06,0,0.13,0,0.19c0,0.01,0,0.02,0,0.03
			c-0.04,0.88-0.33,1.71-0.84,2.43c-0.85,1.2-2.24,1.91-3.71,1.91C56.88,49.56,56.82,49.56,56.76,49.55z M62.4,61.16
			c-0.98,1.51-2.49,2.55-4.2,2.94V52.54c1.16-0.19,2.26-0.65,3.2-1.34l1.52,3.43C63.87,56.77,63.68,59.2,62.4,61.16z M64.49,43.74
			c-0.19-1.16-0.65-2.26-1.33-3.21l3.43-1.52c2.13-0.94,4.57-0.75,6.52,0.52c1.51,0.98,2.55,2.49,2.94,4.2L64.49,43.74L64.49,43.74z
			"/>
	</g>
</g>
<g>
	<g>
		<path d="M24.53,20.44H8.47c-0.85,0-1.54,0.69-1.54,1.54c0,0.85,0.69,1.54,1.54,1.54h16.06c0.85,0,1.54-0.69,1.54-1.54
			C26.08,21.13,25.39,20.44,24.53,20.44z"/>
	</g>
</g>
<g>
	<g>
		<path d="M24.53,43.46H8.47c-0.85,0-1.54,0.69-1.54,1.54s0.69,1.54,1.54,1.54h16.06c0.85,0,1.54-0.69,1.54-1.54
			C26.08,44.15,25.39,43.46,24.53,43.46z"/>
	</g>
</g>
<g>
	<g>
		<path class="st1" d="M24.53,58.8H8.47c-0.85,0-1.54,0.69-1.54,1.54s0.69,1.54,1.54,1.54h16.06c0.85,0,1.54-0.69,1.54-1.54
			S25.39,58.8,24.53,58.8z"/>
	</g>
</g>
<g>
	<g>
		<path class="st1" d="M24.53,51.13H8.47c-0.85,0-1.54,0.69-1.54,1.54s0.69,1.54,1.54,1.54h16.06c0.85,0,1.54-0.69,1.54-1.54
			S25.39,51.13,24.53,51.13z"/>
	</g>
</g>
<g>
	<g>
		<path class="st1" d="M24.53,66.47H8.47c-0.85,0-1.54,0.69-1.54,1.54c0,0.85,0.69,1.54,1.54,1.54h16.06c0.85,0,1.54-0.69,1.54-1.54
			C26.08,67.16,25.39,66.47,24.53,66.47z"/>
	</g>
</g>
<g>
	<g>
		<path d="M24.53,35.78h-1.75c-0.85,0-1.54,0.69-1.54,1.54s0.69,1.54,1.54,1.54h1.75c0.85,0,1.54-0.69,1.54-1.54
			S25.39,35.78,24.53,35.78z"/>
	</g>
</g>
<g>
	<g>
		<path d="M17.63,35.78H8.47c-0.85,0-1.54,0.69-1.54,1.54s0.69,1.54,1.54,1.54h9.17c0.85,0,1.54-0.69,1.54-1.54
			S18.49,35.78,17.63,35.78z"/>
	</g>
</g>
<g>
	<g>
		<path d="M24.53,28.11H8.47c-0.85,0-1.54,0.69-1.54,1.54s0.69,1.54,1.54,1.54h16.06c0.85,0,1.54-0.69,1.54-1.54
			C26.08,28.8,25.39,28.11,24.53,28.11z"/>
	</g>
</g>
</svg>
