<svg width="163" height="126" viewBox="0 0 163 126" fill="none" xmlns="http://www.w3.org/2000/svg">
<path d="M103.093 13.1281C75.6374 13.1281 53.3003 35.4649 53.3003 62.9203C53.3003 75.1758 57.7927 86.9533 65.9507 96.0838C66.9795 97.2352 68.7472 97.3351 69.8995 96.3059C71.0515 95.2768 71.1505 93.5091 70.1217 92.3571C62.8814 84.2535 58.894 73.7992 58.894 62.9207C58.894 38.5491 78.7217 18.7215 103.093 18.7215C127.465 18.7215 147.292 38.5491 147.292 62.9207C147.292 87.2922 127.464 107.12 103.093 107.12C93.8154 107.12 84.9369 104.278 77.4166 98.9014C76.1603 98.003 74.4139 98.2936 73.5152 99.5499C72.6169 100.806 72.9071 102.553 74.1637 103.451C82.6381 109.51 92.6418 112.713 103.093 112.713C130.549 112.713 152.885 90.3761 152.885 62.9207C152.885 35.4652 130.548 13.1281 103.093 13.1281Z" fill="black"/>
<path d="M132.847 0H11.3317C5.083 0 0 5.083 0 11.3313V89.2964C0 90.8407 1.25221 92.093 2.79656 92.093C4.3409 92.093 5.59312 90.8407 5.59312 89.2964V11.3313C5.59312 8.16692 8.16724 5.59312 11.3313 5.59312H132.847C134.391 5.59312 135.643 4.3409 135.643 2.79656C135.644 1.2519 134.391 0 132.847 0Z" fill="black"/>
<path d="M151.6 0H142.543C140.998 0 139.746 1.25221 139.746 2.79656C139.746 4.3409 140.998 5.59312 142.543 5.59312H151.6C154.764 5.59312 157.338 8.16724 157.338 11.3313V114.51C157.338 117.674 154.764 120.248 151.6 120.248H11.3318C8.16741 120.248 5.59361 117.674 5.59361 114.51V98.6185C5.59361 97.0741 4.34139 95.8219 2.79705 95.8219C1.2527 95.8219 0.000488281 97.0741 0.000488281 98.6185V114.51C0.000488281 120.758 5.08349 125.841 11.3322 125.841H151.6C157.849 125.841 162.932 120.758 162.932 114.51V11.3313C162.931 5.083 157.848 0 151.6 0Z" fill="black"/>
<path d="M135.394 48.3482C130.267 45.0126 123.869 44.5002 118.279 46.977L109.717 50.768C108.674 50.1971 107.565 49.7656 106.412 49.4823V25.226C106.412 23.6816 105.16 22.4294 103.616 22.4294C97.502 22.4294 91.8605 25.4898 88.5252 30.6158C85.1893 35.7424 84.6769 42.1415 87.154 47.7321L90.9424 56.2885C90.3709 57.3329 89.9388 58.4439 89.6549 59.5984H65.403V59.5987C63.8587 59.5987 62.6064 60.8509 62.6064 62.3953C62.6064 68.5119 65.6674 74.1553 70.795 77.4903C73.7714 79.4263 77.176 80.4106 80.6027 80.4103C83.0782 80.4103 85.5651 79.8967 87.9094 78.857L96.4646 75.0673C97.5106 75.6407 98.6212 76.0748 99.7754 76.3586V100.612C99.7754 102.156 101.028 103.408 102.572 103.408C108.685 103.408 114.326 100.347 117.662 95.2211C120.998 90.0932 121.511 83.6931 119.034 78.1022L115.245 69.5439C115.815 68.5004 116.246 67.3917 116.529 66.2394H140.785C142.33 66.2394 143.582 64.9872 143.582 63.4429C143.581 57.3266 140.52 51.6838 135.394 48.3482ZM85.643 73.7435C81.7897 75.4523 77.3788 75.1004 73.8452 72.8015C71.11 71.022 69.2274 68.2904 68.5159 65.1918H89.4392C89.7905 67.2912 90.6229 69.275 91.8554 70.9921L85.643 73.7435ZM93.2136 33.6666C94.9925 30.9321 97.7229 29.051 100.819 28.3392V49.2653C98.7189 49.6166 96.7351 50.4485 95.0189 51.6797L92.2682 45.467C90.5606 41.6123 90.9138 37.2011 93.2136 33.6666ZM102.753 71.1639C102.734 71.1627 102.715 71.1617 102.696 71.1611C101.115 71.0911 99.5982 70.566 98.3109 69.6428C98.2826 69.6228 98.2543 69.6031 98.2257 69.584C96.1031 68.0313 94.8391 65.5482 94.8391 62.9216C94.8391 62.8051 94.841 62.689 94.848 62.5725C94.8493 62.5566 94.8499 62.5404 94.8506 62.5241C94.9238 60.9353 95.4485 59.4173 96.3733 58.1279C97.9192 55.9604 100.43 54.6656 103.09 54.6656C103.206 54.6656 103.321 54.6672 103.436 54.6745C103.453 54.6758 103.47 54.6764 103.487 54.6774C105.074 54.7502 106.591 55.2756 107.882 56.2013C110.051 57.7454 111.346 60.2574 111.346 62.921C111.346 63.0355 111.344 63.1504 111.337 63.2621C111.336 63.2796 111.335 63.2971 111.334 63.3143C111.261 64.8997 110.737 66.4179 109.815 67.7068C108.267 69.8771 105.753 71.1725 103.091 71.1725C102.976 71.1729 102.864 71.1709 102.753 71.1639ZM112.974 92.1709C111.195 94.9054 108.465 96.7868 105.369 97.4986V76.5719C107.468 76.2199 109.453 75.3868 111.169 74.1549L113.92 80.3676C115.628 84.2226 115.275 88.6351 112.974 92.1709ZM116.746 60.646C116.394 58.5438 115.561 56.5587 114.329 54.8428L120.544 52.0908C124.398 50.3829 128.81 50.7365 132.344 53.036C135.079 54.8155 136.961 57.5474 137.673 60.6457H116.746V60.646Z" fill="#989798"/>
<path d="M44.4125 18.4567H15.3293C13.7849 18.4567 12.5327 19.7089 12.5327 21.2533C12.5327 22.7976 13.7849 24.0498 15.3293 24.0498H44.4125C45.9568 24.0498 47.209 22.7976 47.209 21.2533C47.209 19.7089 45.9575 18.4567 44.4125 18.4567Z" fill="black"/>
<path d="M44.4125 60.1245H15.3293C13.7849 60.1245 12.5327 61.3767 12.5327 62.921C12.5327 64.4654 13.7849 65.7176 15.3293 65.7176H44.4125C45.9568 65.7176 47.209 64.4654 47.209 62.921C47.209 61.3767 45.9575 60.1245 44.4125 60.1245Z" fill="black"/>
<path d="M44.4125 87.9026H15.3293C13.7849 87.9026 12.5327 89.1548 12.5327 90.6991C12.5327 92.2435 13.7849 93.4957 15.3293 93.4957H44.4125C45.9568 93.4957 47.209 92.2435 47.209 90.6991C47.209 89.1548 45.9575 87.9026 44.4125 87.9026Z" fill="#C22032"/>
<path d="M44.4125 74.0137H15.3293C13.7849 74.0137 12.5327 75.2659 12.5327 76.8102C12.5327 78.3546 13.7849 79.6068 15.3293 79.6068H44.4125C45.9568 79.6068 47.209 78.3546 47.209 76.8102C47.209 75.2659 45.9575 74.0137 44.4125 74.0137Z" fill="#C22032"/>
<path d="M44.4125 101.792H15.3293C13.7849 101.792 12.5327 103.044 12.5327 104.588C12.5327 106.133 13.7849 107.385 15.3293 107.385H44.4125C45.9568 107.385 47.209 106.133 47.209 104.588C47.209 103.044 45.9575 101.792 44.4125 101.792Z" fill="#C22032"/>
<path d="M44.4125 46.2354H41.2433C39.699 46.2354 38.4468 47.4877 38.4468 49.032C38.4468 50.5763 39.699 51.8286 41.2433 51.8286H44.4125C45.9569 51.8286 47.2091 50.5763 47.2091 49.032C47.2091 47.4877 45.9575 46.2354 44.4125 46.2354Z" fill="black"/>
<path d="M31.9215 46.2354H15.3293C13.7849 46.2354 12.5327 47.4877 12.5327 49.032C12.5327 50.5763 13.7849 51.8286 15.3293 51.8286H31.9215C33.4659 51.8286 34.7181 50.5763 34.7181 49.032C34.7181 47.4877 33.4659 46.2354 31.9215 46.2354Z" fill="black"/>
<path d="M44.4125 32.346H15.3293C13.7849 32.346 12.5327 33.5982 12.5327 35.1425C12.5327 36.6869 13.7849 37.9391 15.3293 37.9391H44.4125C45.9568 37.9391 47.209 36.6869 47.209 35.1425C47.209 33.5979 45.9575 32.346 44.4125 32.346Z" fill="black"/>
</svg>
