<svg width="95" height="94" viewBox="0 0 95 94" fill="none" xmlns="http://www.w3.org/2000/svg">
<path d="M51.8934 0.00575281C55.327 -0.00733985 58.7607 0.0269514 62.1934 0.108616L63.1063 0.141345C64.1603 0.178749 65.2001 0.225505 66.4565 0.281612C71.463 0.515391 74.8791 1.30089 77.8764 2.45576C80.9819 3.64335 83.5981 5.25175 86.2143 7.85137C88.6063 10.1873 90.4577 13.013 91.6395 16.1318C92.8018 19.1102 93.5923 22.5093 93.8275 27.4841C93.884 28.7278 93.9311 29.7658 93.9687 30.8131L93.9969 31.7202C94.0805 35.1296 94.1166 38.54 94.1052 41.9503L94.1099 45.4383V51.5633C94.1215 54.9753 94.0854 58.3872 94.0016 61.7982L93.9734 62.7052C93.9358 63.7526 93.8887 64.7859 93.8322 66.0342C93.597 71.009 92.7971 74.4035 91.6395 77.3819C90.4616 80.504 88.6097 83.332 86.2143 85.667C83.8614 88.0437 81.0163 89.8832 77.8764 91.0579C74.8791 92.2128 71.463 92.9983 66.4565 93.2321C65.2001 93.2882 64.1603 93.3349 63.1063 93.3723L62.1934 93.4004C58.7607 93.4835 55.3271 93.5194 51.8934 93.5079L48.3832 93.5126H42.2239C38.7902 93.5241 35.3565 93.4883 31.9239 93.4051L31.011 93.377C29.894 93.3368 28.7773 93.29 27.6608 93.2367C22.6543 93.003 19.2382 92.2081 16.2362 91.0579C13.0962 89.886 10.2521 88.046 7.90301 85.667C5.5082 83.3305 3.65513 80.5031 2.47303 77.3819C1.3108 74.4035 0.520304 71.009 0.285036 66.0342C0.232632 64.9248 0.185578 63.8151 0.143876 62.7052L0.120349 61.7982C0.0335995 58.3873 -0.00561606 54.9753 0.00271499 51.5633V41.9503C-0.0104175 38.54 0.0240921 35.1296 0.106233 31.7202L0.139171 30.8131C0.176813 29.7658 0.223867 28.7278 0.280331 27.4841C0.515599 22.5046 1.3061 19.1148 2.46832 16.1318C3.65112 13.0114 5.50781 10.1866 7.90771 7.85605C10.2552 5.47502 13.0975 3.632 16.2362 2.45576C19.2382 1.30089 22.6496 0.515391 27.6608 0.281612L31.011 0.141345L31.9239 0.117967C35.3549 0.0318097 38.787 -0.00715761 42.2192 0.00107757L51.8934 0.00575281ZM47.0563 23.3836C43.939 23.3398 40.8441 23.9121 37.9513 25.0672C35.0586 26.2222 32.4257 27.9371 30.2057 30.112C27.9857 32.287 26.2228 34.8787 25.0196 37.7365C23.8164 40.5944 23.1968 43.6613 23.1968 46.7592C23.1968 49.857 23.8164 52.924 25.0196 55.7818C26.2228 58.6396 27.9857 61.2313 30.2057 63.4063C32.4257 65.5813 35.0586 67.2961 37.9513 68.4512C40.8441 69.6063 43.939 70.1785 47.0563 70.1347C53.296 70.1347 59.2801 67.6717 63.6922 63.2875C68.1044 58.9033 70.5831 52.957 70.5831 46.7568C70.5831 40.5566 68.1044 34.6104 63.6922 30.2262C59.2801 25.842 53.296 23.3836 47.0563 23.3836ZM47.0563 32.7348C48.9314 32.7005 50.7946 33.0378 52.5371 33.727C54.2795 34.4162 55.8663 35.4435 57.2047 36.749C58.5431 38.0544 59.6063 39.6118 60.3322 41.3301C61.0581 43.0484 61.4321 44.8932 61.4324 46.7568C61.4327 48.6204 61.0593 50.4653 60.334 52.1839C59.6087 53.9024 58.546 55.4601 57.2081 56.766C55.8701 58.0719 54.2837 59.0998 52.5414 59.7896C50.7992 60.4794 48.9361 60.8173 47.061 60.7836C43.3172 60.7836 39.7267 59.3058 37.0794 56.6752C34.4321 54.0447 32.9449 50.477 32.9449 46.7568C32.9449 43.0367 34.4321 39.469 37.0794 36.8384C39.7267 34.2079 43.3172 32.7301 47.061 32.7301L47.0563 32.7348ZM71.7594 16.3703C70.2414 16.4306 68.8058 17.0723 67.7533 18.1609C66.7008 19.2495 66.1129 20.7005 66.1129 22.2101C66.1129 23.7196 66.7008 25.1707 67.7533 26.2592C68.8058 27.3478 70.2414 27.9895 71.7594 28.0499C73.3193 28.0499 74.8154 27.4341 75.9184 26.3381C77.0214 25.242 77.6411 23.7554 77.6411 22.2054C77.6411 20.6553 77.0214 19.1688 75.9184 18.0727C74.8154 16.9767 73.3193 16.3609 71.7594 16.3609V16.3703Z" fill="#F00075"/>
</svg>
