<svg width="57" height="56" viewBox="0 0 57 56" fill="none" xmlns="http://www.w3.org/2000/svg">
<path d="M31.0884 4.67752C32.7816 4.67106 34.4748 4.68797 36.1676 4.72824L36.6177 4.74438C37.1375 4.76283 37.6502 4.78588 38.2698 4.81355C40.7386 4.92883 42.4231 5.31618 43.9012 5.88567C45.4326 6.4713 46.7227 7.26443 48.0128 8.54636C49.1923 9.69827 50.1053 11.0917 50.6881 12.6296C51.2612 14.0983 51.651 15.7745 51.767 18.2277C51.7949 18.841 51.8181 19.3528 51.8366 19.8693L51.8506 20.3166C51.8918 21.9978 51.9096 23.6796 51.9039 25.3613L51.9062 27.0813V30.1017C51.912 31.7842 51.8942 33.4667 51.8529 35.1487L51.839 35.596C51.8204 36.1124 51.7972 36.622 51.7693 37.2376C51.6533 39.6908 51.2589 41.3647 50.6881 42.8333C50.1072 44.3729 49.194 45.7675 48.0128 46.9189C46.8525 48.0909 45.4495 48.998 43.9012 49.5773C42.4231 50.1468 40.7386 50.5341 38.2698 50.6494C37.6502 50.6771 37.1375 50.7001 36.6177 50.7186L36.1676 50.7324C34.4748 50.7734 32.7816 50.7911 31.0884 50.7854L29.3574 50.7878H26.3202C24.6269 50.7934 22.9337 50.7758 21.241 50.7347L20.7909 50.7209C20.24 50.701 19.6893 50.678 19.1388 50.6517C16.67 50.5364 14.9854 50.1445 13.5051 49.5773C11.9567 48.9994 10.5542 48.0921 9.3958 46.9189C8.21487 45.7668 7.30108 44.3725 6.71816 42.8333C6.14504 41.3647 5.75523 39.6908 5.63921 37.2376C5.61337 36.6905 5.59017 36.1433 5.56961 35.596L5.558 35.1487C5.51523 33.4667 5.49589 31.7842 5.5 30.1017V25.3613C5.49352 23.6796 5.51054 21.9978 5.55104 20.3166L5.56729 19.8693C5.58585 19.3528 5.60905 18.841 5.63689 18.2277C5.75291 15.7722 6.14272 14.1006 6.71584 12.6296C7.2991 11.0909 8.21468 9.6979 9.39812 8.54867C10.5557 7.37453 11.9573 6.4657 13.5051 5.88567C14.9854 5.31618 16.6677 4.92883 19.1388 4.81355L20.7909 4.74438L21.241 4.73285C22.9329 4.69037 24.6254 4.67115 26.3178 4.67521L31.0884 4.67752ZM28.7031 16.2057C27.1659 16.1841 25.6397 16.4662 24.2133 17.0358C22.7868 17.6054 21.4885 18.4511 20.3937 19.5236C19.299 20.5961 18.4297 21.8741 17.8364 23.2834C17.243 24.6926 16.9375 26.205 16.9375 27.7326C16.9375 29.2603 17.243 30.7726 17.8364 32.1819C18.4297 33.5911 19.299 34.8692 20.3937 35.9417C21.4885 37.0142 22.7868 37.8598 24.2133 38.4294C25.6397 38.999 27.1659 39.2812 28.7031 39.2596C31.78 39.2596 34.7309 38.0451 36.9067 35.8831C39.0824 33.7212 40.3047 30.7889 40.3047 27.7315C40.3047 24.674 39.0824 21.7418 36.9067 19.5799C34.7309 17.4179 31.78 16.2057 28.7031 16.2057ZM28.7031 20.8169C29.6278 20.8 30.5466 20.9663 31.4058 21.3062C32.2651 21.646 33.0475 22.1527 33.7075 22.7964C34.3675 23.4401 34.8918 24.2081 35.2498 25.0554C35.6077 25.9028 35.7921 26.8125 35.7923 27.7315C35.7924 28.6504 35.6083 29.5602 35.2507 30.4077C34.893 31.2551 34.369 32.0233 33.7092 32.6672C33.0494 33.3112 32.2671 33.818 31.408 34.1582C30.5488 34.4984 29.6301 34.665 28.7054 34.6484C26.8593 34.6484 25.0887 33.9196 23.7833 32.6225C22.4779 31.3253 21.7445 29.566 21.7445 27.7315C21.7445 25.897 22.4779 24.1377 23.7833 22.8405C25.0887 21.5433 26.8593 20.8146 28.7054 20.8146L28.7031 20.8169ZM40.8848 12.7472C40.1362 12.777 39.4283 13.0934 38.9093 13.6302C38.3902 14.167 38.1004 14.8825 38.1004 15.6269C38.1004 16.3713 38.3902 17.0869 38.9093 17.6237C39.4283 18.1605 40.1362 18.4769 40.8848 18.5067C41.654 18.5067 42.3917 18.203 42.9357 17.6625C43.4796 17.1221 43.7852 16.389 43.7852 15.6246C43.7852 14.8603 43.4796 14.1272 42.9357 13.5867C42.3917 13.0462 41.654 12.7426 40.8848 12.7426V12.7472Z" fill="white"/>
</svg>
