<?xml version="1.0" encoding="utf-8"?>
<!-- Generator: Adobe Illustrator 26.0.1, SVG Export Plug-In . SVG Version: 6.00 Build 0)  -->
<svg version="1.1" id="Layer_1" xmlns="http://www.w3.org/2000/svg" xmlns:xlink="http://www.w3.org/1999/xlink" x="0px" y="0px"
	 width="90" height="90" viewBox="0 0 90 90" style="enable-background:new 0 0 90 90;" xml:space="preserve">
<style type="text/css">
	.st0{fill:none;stroke:#F79243;stroke-width:1.5;stroke-miterlimit:10;}
	.st1{fill:#F79243;}
</style>
<path class="st0" d="M71.6,74.7V76c0,3.7-3,6.7-6.7,6.7H10.5c-3.7,0-6.7-3-6.7-6.7V22.6c0-3.7,3-6.7,6.7-6.7h54.3
	c3.7,0,6.7,3,6.7,6.7v14"/>
<path class="st0" d="M3.1,31.5h68.4"/>
<path class="st0" d="M54,24.9c-2.5,0-4.5-2-4.5-4.5v-8.5c0-2.5,2-4.5,4.5-4.5c2.5,0,4.5,2,4.5,4.5v8.5C58.6,22.9,56.6,24.9,54,24.9z
	"/>
<path class="st0" d="M22.2,24.9c-2.5,0-4.5-2-4.5-4.5v-8.5c0-2.5,2-4.5,4.5-4.5c2.5,0,4.5,2,4.5,4.5v8.5
	C26.8,22.9,24.7,24.9,22.2,24.9z"/>
<path class="st0" d="M70.9,71.4c8.8,0,16-7.1,16-16s-7.1-16-16-16s-16,7.1-16,16S62.1,71.4,70.9,71.4z"/>
<path class="st0" d="M71.1,44.8v-4.8"/>
<path class="st0" d="M71.1,71.2v-7.5"/>
<path class="st0" d="M55,54.8h6.9"/>
<path class="st0" d="M79.4,54.8h6.9"/>
<path class="st0" d="M77.3,60.8l-6.2-5.3v-0.2v-7.5"/>
<path class="st1" d="M23.1,40.5h-7.2v7.2h7.2V40.5z"/>
<path class="st1" d="M36.1,40.5h-7.2v7.2h7.2V40.5z"/>
<path class="st1" d="M49.1,40.5h-7.2v7.2h7.2V40.5z"/>
<path class="st1" d="M23.1,52.2h-7.2v7.2h7.2V52.2z"/>
<path class="st1" d="M36.1,52.2h-7.2v7.2h7.2V52.2z"/>
<path class="st1" d="M49.1,52.2h-7.2v7.2h7.2V52.2z"/>
<path class="st1" d="M23.1,63.9h-7.2v7.2h7.2V63.9z"/>
<path class="st1" d="M36.1,63.9h-7.2v7.2h7.2V63.9z"/>
<path class="st1" d="M49.1,63.9h-7.2v7.2h7.2V63.9z"/>
</svg>
