<svg width="109" height="100" viewBox="0 0 109 100" fill="none" xmlns="http://www.w3.org/2000/svg">
<path d="M87.8332 87.7026V89.3581C87.8332 94.0793 84.0164 97.9115 79.2951 97.9115H10.1782C5.45697 97.9115 1.64014 94.0793 1.64014 89.3581V21.4214C1.64014 16.7002 5.45697 12.8834 10.1782 12.8834H79.2951C84.0164 12.8834 87.8332 16.7002 87.8332 21.4214V39.172" stroke="#FA9241" stroke-width="2.50251" stroke-miterlimit="10"/>
<path d="M0.834229 32.7339H87.8244" stroke="#FA9241" stroke-width="2.50251" stroke-miterlimit="10"/>
<path d="M65.5611 24.4258C62.3728 24.4258 59.7822 21.8353 59.7822 18.6469V7.77891C59.7822 4.59054 62.3728 2 65.5611 2C68.7495 2 71.34 4.59054 71.34 7.77891V18.6469C71.34 21.8353 68.7495 24.4258 65.5611 24.4258Z" stroke="#FA9241" stroke-width="2.50251" stroke-miterlimit="10"/>
<path d="M25.1087 24.4258C21.9204 24.4258 19.3298 21.8353 19.3298 18.6469V7.77891C19.3298 4.59054 21.9204 2 25.1087 2C28.2971 2 30.8876 4.59054 30.8876 7.77891V18.6469C30.8723 21.8353 28.2971 24.4258 25.1087 24.4258Z" stroke="#FA9241" stroke-width="2.50251" stroke-miterlimit="10"/>
<path d="M86.9903 83.5723C98.1977 83.5723 107.283 74.4869 107.283 63.2795C107.283 52.0721 98.1977 42.9868 86.9903 42.9868C75.7829 42.9868 66.6975 52.0721 66.6975 63.2795C66.6975 74.4869 75.7829 83.5723 86.9903 83.5723Z" stroke="#FA9241" stroke-width="2.50251" stroke-miterlimit="10"/>
<path d="M87.272 50.3836V44.2167" stroke="#FA9241" stroke-width="2.50251" stroke-miterlimit="10"/>
<path d="M87.272 83.256V73.7685" stroke="#FA9241" stroke-width="2.50251" stroke-miterlimit="10"/>
<path d="M66.7153 62.4363H75.5001" stroke="#FA9241" stroke-width="2.50251" stroke-miterlimit="10"/>
<path d="M97.8311 62.4363H106.616" stroke="#FA9241" stroke-width="2.50251" stroke-miterlimit="10"/>
<path d="M95.1255 70.0788L87.272 63.2795V63.0686V53.5284" stroke="#FA9241" stroke-width="2.50251" stroke-miterlimit="10"/>
<path d="M22.6715 43.0042H12.3706V53.3051H22.6715V43.0042Z" fill="#FA9241"/>
<path d="M41.2652 43.0042H30.9644V53.3051H41.2652V43.0042Z" fill="#FA9241"/>
<path d="M59.8433 43.0042H49.5425V53.3051H59.8433V43.0042Z" fill="#FA9241"/>
<path d="M22.6715 59.6357H12.3706V69.9366H22.6715V59.6357Z" fill="#FA9241"/>
<path d="M41.2652 59.6357H30.9644V69.9366H41.2652V59.6357Z" fill="#FA9241"/>
<path d="M59.8433 59.6357H49.5425V69.9366H59.8433V59.6357Z" fill="#FA9241"/>
<path d="M22.6715 76.2828H12.3706V86.5836H22.6715V76.2828Z" fill="#FA9241"/>
<path d="M41.2652 76.2828H30.9644V86.5836H41.2652V76.2828Z" fill="#FA9241"/>
<path d="M59.8433 76.2828H49.5425V86.5836H59.8433V76.2828Z" fill="#FA9241"/>
</svg>
