<svg width="56" height="62" viewBox="0 0 56 62" fill="none" xmlns="http://www.w3.org/2000/svg">
<path d="M17.3793 6.27601H25.1035C25.3595 6.27601 25.6051 6.17428 25.7862 5.99321C25.9673 5.81214 26.069 5.56656 26.069 5.31049C26.069 5.05442 25.9673 4.80883 25.7862 4.62776C25.6051 4.44669 25.3595 4.34497 25.1035 4.34497H17.3793C17.1233 4.34497 16.8777 4.44669 16.6966 4.62776C16.5155 4.80883 16.4138 5.05442 16.4138 5.31049C16.4138 5.56656 16.5155 5.81214 16.6966 5.99321C16.8777 6.17428 17.1233 6.27601 17.3793 6.27601Z" fill="#6566D9"/>
<path d="M38.6207 2.41379H34.7103C34.5965 1.74017 34.2482 1.12847 33.727 0.686775C33.2058 0.245083 32.5452 0.00183132 31.8621 0L10.6207 0C9.93751 0.00183132 9.27697 0.245083 8.75577 0.686775C8.23457 1.12847 7.88627 1.74017 7.77241 2.41379H3.86207C2.83778 2.41379 1.85545 2.82069 1.13117 3.54497C0.406895 4.26925 0 5.25158 0 6.27586V57.931C0 58.9553 0.406895 59.9376 1.13117 60.6619C1.85545 61.3862 2.83778 61.7931 3.86207 61.7931H20.2759C20.5319 61.7931 20.7775 61.6914 20.9586 61.5103C21.1397 61.3292 21.2414 61.0837 21.2414 60.8276C21.2414 60.5715 21.1397 60.3259 20.9586 60.1449C20.7775 59.9638 20.5319 59.8621 20.2759 59.8621H3.86207C3.3504 59.8605 2.86012 59.6566 2.49831 59.2948C2.1365 58.933 1.93256 58.4427 1.93103 57.931V6.27586C1.93256 5.76419 2.1365 5.27391 2.49831 4.9121C2.86012 4.55029 3.3504 4.34636 3.86207 4.34483H7.72414V6.27586H4.82759C4.57152 6.27586 4.32593 6.37759 4.14486 6.55866C3.96379 6.73973 3.86207 6.98531 3.86207 7.24138V56.9655C3.86207 57.2216 3.96379 57.4672 4.14486 57.6482C4.32593 57.8293 4.57152 57.931 4.82759 57.931H20.2759C20.5319 57.931 20.7775 57.8293 20.9586 57.6482C21.1397 57.4672 21.2414 57.2216 21.2414 56.9655C21.2414 56.7094 21.1397 56.4639 20.9586 56.2828C20.7775 56.1017 20.5319 56 20.2759 56H5.7931V8.2069H7.77241C7.85847 8.71405 8.07834 9.18904 8.40932 9.58282C8.74029 9.97659 9.17038 10.2749 9.65517 10.4469V12.5517C9.6567 13.0634 9.86064 13.5537 10.2224 13.9155C10.5843 14.2773 11.0745 14.4812 11.5862 14.4828H30.8966C31.4082 14.4812 31.8985 14.2773 32.2603 13.9155C32.6221 13.5537 32.8261 13.0634 32.8276 12.5517V10.4469C33.3124 10.2749 33.7425 9.97659 34.0734 9.58282C34.4044 9.18904 34.6243 8.71405 34.7103 8.2069H36.6897V26.069C36.6897 26.325 36.7914 26.5706 36.9724 26.7517C37.1535 26.9328 37.3991 27.0345 37.6552 27.0345C37.9112 27.0345 38.1568 26.9328 38.3379 26.7517C38.519 26.5706 38.6207 26.325 38.6207 26.069V7.24138C38.6207 6.98531 38.519 6.73973 38.3379 6.55866C38.1568 6.37759 37.9112 6.27586 37.6552 6.27586H34.7586V4.34483H38.6207C39.1324 4.34636 39.6226 4.55029 39.9844 4.9121C40.3463 5.27391 40.5502 5.76419 40.5517 6.27586V26.069C40.5517 26.325 40.6534 26.5706 40.8345 26.7517C41.0156 26.9328 41.2612 27.0345 41.5172 27.0345C41.7733 27.0345 42.0189 26.9328 42.2 26.7517C42.381 26.5706 42.4828 26.325 42.4828 26.069V6.27586C42.4828 5.25158 42.0759 4.26925 41.3516 3.54497C40.6273 2.82069 39.645 2.41379 38.6207 2.41379ZM30.8966 12.5517H11.5862V10.6207H30.8966V12.5517ZM32.8276 7.72414C32.8276 7.98021 32.7259 8.22579 32.5448 8.40686C32.3637 8.58793 32.1181 8.68966 31.8621 8.68966H10.6207C10.3646 8.68966 10.119 8.58793 9.93797 8.40686C9.7569 8.22579 9.65517 7.98021 9.65517 7.72414V2.89655C9.65517 2.64048 9.7569 2.3949 9.93797 2.21383C10.119 2.03276 10.3646 1.93103 10.6207 1.93103H31.8621C32.1181 1.93103 32.3637 2.03276 32.5448 2.21383C32.7259 2.3949 32.8276 2.64048 32.8276 2.89655V7.72414Z" fill="#6566D9"/>
<path d="M29.4483 6.75873C30.2481 6.75873 30.8966 6.11032 30.8966 5.31046C30.8966 4.5106 30.2481 3.86218 29.4483 3.86218C28.6484 3.86218 28 4.5106 28 5.31046C28 6.11032 28.6484 6.75873 29.4483 6.75873Z" fill="#6566D9"/>
<path d="M13.0345 6.75873C13.8343 6.75873 14.4827 6.11032 14.4827 5.31046C14.4827 4.5106 13.8343 3.86218 13.0345 3.86218C12.2346 3.86218 11.5862 4.5106 11.5862 5.31046C11.5862 6.11032 12.2346 6.75873 13.0345 6.75873Z" fill="#6566D9"/>
<path d="M53.1034 44.4139H48.0982C48.2125 44.1046 48.2726 43.778 48.2758 43.4483V31.8621C48.2758 31.0939 47.9706 30.3572 47.4274 29.814C46.8842 29.2707 46.1475 28.9656 45.3793 28.9656H33.7931C33.0248 28.9656 32.2881 29.2707 31.7449 29.814C31.2017 30.3572 30.8965 31.0939 30.8965 31.8621V43.4483C30.8997 43.778 30.9598 44.1046 31.0742 44.4139H26.0689C25.3007 44.4139 24.564 44.719 24.0207 45.2622C23.4775 45.8054 23.1724 46.5422 23.1724 47.3104V58.8966C23.1724 59.6648 23.4775 60.4016 24.0207 60.9448C24.564 61.488 25.3007 61.7932 26.0689 61.7932H37.6551C38.37 61.7906 39.0583 61.5222 39.5862 61.0401C40.114 61.5222 40.8023 61.7906 41.5172 61.7932H53.1034C53.8716 61.7932 54.6084 61.488 55.1516 60.9448C55.6948 60.4016 55.9999 59.6648 55.9999 58.8966V47.3104C55.9999 46.5422 55.6948 45.8054 55.1516 45.2622C54.6084 44.719 53.8716 44.4139 53.1034 44.4139ZM54.0689 47.3104V56.0001H40.5517V47.3104C40.5517 47.0543 40.6534 46.8087 40.8345 46.6277C41.0155 46.4466 41.2611 46.3449 41.5172 46.3449H42.4827V49.2414C42.4827 50.5218 42.9913 51.7497 43.8967 52.6551C44.802 53.5604 46.0299 54.069 47.3103 54.069C48.5906 54.069 49.8186 53.5604 50.7239 52.6551C51.6293 51.7497 52.1379 50.5218 52.1379 49.2414V46.3449H53.1034C53.3595 46.3449 53.6051 46.4466 53.7861 46.6277C53.9672 46.8087 54.0689 47.0543 54.0689 47.3104ZM28.9655 46.3449H30.8965V49.2414C30.8965 49.4975 30.9982 49.7431 31.1793 49.9242C31.3604 50.1052 31.6059 50.207 31.862 50.207C32.1181 50.207 32.3637 50.1052 32.5447 49.9242C32.7258 49.7431 32.8275 49.4975 32.8275 49.2414V46.3449H34.7586V49.2414C34.7586 50.0096 34.4534 50.7464 33.9102 51.2896C33.367 51.8328 32.6302 52.138 31.862 52.138C31.0938 52.138 30.3571 51.8328 29.8138 51.2896C29.2706 50.7464 28.9655 50.0096 28.9655 49.2414V46.3449ZM33.7931 44.4139C33.537 44.4139 33.2914 44.3121 33.1103 44.1311C32.9293 43.95 32.8275 43.7044 32.8275 43.4483V42.4828H46.3448V43.4483C46.3448 43.7044 46.2431 43.95 46.062 44.1311C45.8809 44.3121 45.6353 44.4139 45.3793 44.4139H33.7931ZM47.3103 50.207C47.5664 50.207 47.8119 50.1052 47.993 49.9242C48.1741 49.7431 48.2758 49.4975 48.2758 49.2414V46.3449H50.2068V49.2414C50.2068 50.0096 49.9017 50.7464 49.3585 51.2896C48.8153 51.8328 48.0785 52.138 47.3103 52.138C46.5421 52.138 45.8053 51.8328 45.2621 51.2896C44.7189 50.7464 44.4137 50.0096 44.4137 49.2414V46.3449H46.3448V49.2414C46.3448 49.4975 46.4465 49.7431 46.6276 49.9242C46.8086 50.1052 47.0542 50.207 47.3103 50.207ZM36.6896 30.8966H38.6206V33.7932C38.6206 34.0492 38.7224 34.2948 38.9034 34.4759C39.0845 34.657 39.3301 34.7587 39.5862 34.7587C39.8422 34.7587 40.0878 34.657 40.2689 34.4759C40.4499 34.2948 40.5517 34.0492 40.5517 33.7932V30.8966H42.4827V33.7932C42.4827 34.5614 42.1775 35.2981 41.6343 35.8413C41.0911 36.3845 40.3544 36.6897 39.5862 36.6897C38.8179 36.6897 38.0812 36.3845 37.538 35.8413C36.9948 35.2981 36.6896 34.5614 36.6896 33.7932V30.8966ZM33.7931 30.8966H34.7586V33.7932C34.7586 35.0735 35.2672 36.3014 36.1725 37.2068C37.0779 38.1121 38.3058 38.6207 39.5862 38.6207C40.8665 38.6207 42.0944 38.1121 42.9998 37.2068C43.9051 36.3014 44.4137 35.0735 44.4137 33.7932V30.8966H45.3793C45.6353 30.8966 45.8809 30.9983 46.062 31.1794C46.2431 31.3605 46.3448 31.6061 46.3448 31.8621V40.5518H32.8275V31.8621C32.8275 31.6061 32.9293 31.3605 33.1103 31.1794C33.2914 30.9983 33.537 30.8966 33.7931 30.8966ZM26.0689 46.3449H27.0344V49.2414C27.0344 50.5218 27.5431 51.7497 28.4484 52.6551C29.3537 53.5604 30.5817 54.069 31.862 54.069C33.1424 54.069 34.3703 53.5604 35.2756 52.6551C36.181 51.7497 36.6896 50.5218 36.6896 49.2414V46.3449H37.6551C37.9112 46.3449 38.1568 46.4466 38.3378 46.6277C38.5189 46.8087 38.6206 47.0543 38.6206 47.3104V56.0001H25.1034V47.3104C25.1034 47.0543 25.2051 46.8087 25.3862 46.6277C25.5673 46.4466 25.8128 46.3449 26.0689 46.3449ZM37.6551 59.8621H26.0689C25.8128 59.8621 25.5673 59.7604 25.3862 59.5793C25.2051 59.3983 25.1034 59.1527 25.1034 58.8966V57.9311H38.6206V58.8966C38.6206 59.1527 38.5189 59.3983 38.3378 59.5793C38.1568 59.7604 37.9112 59.8621 37.6551 59.8621ZM53.1034 59.8621H41.5172C41.2611 59.8621 41.0155 59.7604 40.8345 59.5793C40.6534 59.3983 40.5517 59.1527 40.5517 58.8966V57.9311H54.0689V58.8966C54.0689 59.1527 53.9672 59.3983 53.7861 59.5793C53.6051 59.7604 53.3595 59.8621 53.1034 59.8621Z" fill="#6566D9"/>
<path d="M21.2413 29.9311C22.578 29.9311 23.8847 29.5347 24.9962 28.792C26.1076 28.0494 26.9739 26.9938 27.4854 25.7589C27.997 24.5239 28.1308 23.1649 27.87 21.8539C27.6093 20.5429 26.9656 19.3386 26.0204 18.3934C25.0751 17.4482 23.8709 16.8045 22.5598 16.5437C21.2488 16.2829 19.8899 16.4167 18.6549 16.9283C17.4199 17.4398 16.3643 18.3061 15.6217 19.4176C14.8791 20.529 14.4827 21.8357 14.4827 23.1724C14.4847 24.9643 15.1974 26.6822 16.4645 27.9493C17.7315 29.2163 19.4494 29.929 21.2413 29.9311ZM21.2413 18.3449C22.1961 18.3449 23.1295 18.628 23.9234 19.1585C24.7172 19.6889 25.336 20.4429 25.7014 21.325C26.0668 22.2071 26.1624 23.1778 25.9761 24.1143C25.7898 25.0507 25.3301 25.9109 24.6549 26.5861C23.9798 27.2612 23.1196 27.721 22.1831 27.9073C21.2466 28.0935 20.276 27.9979 19.3938 27.6326C18.5117 27.2672 17.7578 26.6484 17.2273 25.8545C16.6968 25.0606 16.4137 24.1272 16.4137 23.1724C16.4152 21.8926 16.9243 20.6655 17.8294 19.7605C18.7344 18.8555 19.9614 18.3464 21.2413 18.3449Z" fill="#6566D9"/>
<path d="M19.8345 25.3035C20.0156 25.4845 20.2611 25.5861 20.5172 25.5861C20.7732 25.5861 21.0187 25.4845 21.1998 25.3035L24.0963 22.4069C24.2722 22.2248 24.3695 21.9809 24.3673 21.7278C24.3651 21.4746 24.2636 21.2324 24.0846 21.0534C23.9056 20.8744 23.6634 20.7729 23.4102 20.7707C23.1571 20.7685 22.9132 20.8658 22.7311 21.0417L20.5172 23.2556L19.7515 22.4899C19.5694 22.3141 19.3255 22.2167 19.0724 22.2189C18.8192 22.2211 18.577 22.3227 18.398 22.5017C18.219 22.6807 18.1175 22.9229 18.1153 23.176C18.1131 23.4292 18.2104 23.6731 18.3863 23.8552L19.8345 25.3035Z" fill="#6566D9"/>
<path d="M10.6207 32.8276C10.0478 32.8276 9.48777 32.9975 9.01144 33.3158C8.5351 33.6341 8.16384 34.0865 7.94461 34.6157C7.72538 35.145 7.66801 35.7274 7.77978 36.2893C7.89154 36.8512 8.16741 37.3673 8.5725 37.7724C8.97759 38.1774 9.49371 38.4533 10.0556 38.5651C10.6175 38.6768 11.1999 38.6195 11.7291 38.4003C12.2584 38.181 12.7108 37.8098 13.0291 37.3334C13.3473 36.8571 13.5172 36.2971 13.5172 35.7242C13.5172 34.956 13.2121 34.2192 12.6688 33.676C12.1256 33.1328 11.3889 32.8276 10.6207 32.8276ZM10.6207 36.6897C10.4297 36.6897 10.243 36.6331 10.0843 36.527C9.92548 36.4209 9.80173 36.2701 9.72865 36.0937C9.65557 35.9173 9.63645 35.7231 9.67371 35.5358C9.71096 35.3485 9.80292 35.1765 9.93795 35.0415C10.073 34.9064 10.245 34.8145 10.4323 34.7772C10.6196 34.74 10.8137 34.7591 10.9902 34.8322C11.1666 34.9052 11.3174 35.029 11.4235 35.1878C11.5296 35.3466 11.5862 35.5332 11.5862 35.7242C11.5862 35.9803 11.4845 36.2258 11.3034 36.4069C11.1223 36.588 10.8767 36.6897 10.6207 36.6897Z" fill="#6566D9"/>
<path d="M10.6207 40.5518C10.0478 40.5518 9.48777 40.7216 9.01144 41.0399C8.5351 41.3582 8.16384 41.8106 7.94461 42.3398C7.72538 42.8691 7.66801 43.4515 7.77978 44.0134C7.89154 44.5753 8.16741 45.0914 8.5725 45.4965C8.97759 45.9016 9.49371 46.1774 10.0556 46.2892C10.6175 46.401 11.1999 46.3436 11.7291 46.1244C12.2584 45.9051 12.7108 45.5339 13.0291 45.0575C13.3473 44.5812 13.5172 44.0212 13.5172 43.4483C13.5172 42.6801 13.2121 41.9433 12.6688 41.4001C12.1256 40.8569 11.3889 40.5518 10.6207 40.5518ZM10.6207 44.4138C10.4297 44.4138 10.243 44.3572 10.0843 44.2511C9.92548 44.145 9.80173 43.9942 9.72865 43.8178C9.65557 43.6414 9.63645 43.4472 9.67371 43.2599C9.71096 43.0727 9.80292 42.9006 9.93795 42.7656C10.073 42.6306 10.245 42.5386 10.4323 42.5013C10.6196 42.4641 10.8137 42.4832 10.9902 42.5563C11.1666 42.6294 11.3174 42.7531 11.4235 42.9119C11.5296 43.0707 11.5862 43.2573 11.5862 43.4483C11.5862 43.7044 11.4845 43.95 11.3034 44.131C11.1223 44.3121 10.8767 44.4138 10.6207 44.4138Z" fill="#6566D9"/>
<path d="M10.6207 48.276C10.0478 48.276 9.48777 48.4459 9.01144 48.7642C8.5351 49.0824 8.16384 49.5348 7.94461 50.0641C7.72538 50.5934 7.66801 51.1758 7.77978 51.7376C7.89154 52.2995 8.16741 52.8156 8.5725 53.2207C8.97759 53.6258 9.49371 53.9017 10.0556 54.0134C10.6175 54.1252 11.1999 54.0678 11.7291 53.8486C12.2584 53.6294 12.7108 53.2581 13.0291 52.7818C13.3473 52.3055 13.5172 51.7454 13.5172 51.1726C13.5172 50.4043 13.2121 49.6676 12.6688 49.1244C12.1256 48.5812 11.3889 48.276 10.6207 48.276ZM10.6207 52.1381C10.4297 52.1381 10.243 52.0814 10.0843 51.9754C9.92548 51.8693 9.80173 51.7185 9.72865 51.542C9.65557 51.3656 9.63645 51.1715 9.67371 50.9842C9.71096 50.7969 9.80292 50.6249 9.93795 50.4898C10.073 50.3548 10.245 50.2628 10.4323 50.2256C10.6196 50.1883 10.8137 50.2075 10.9902 50.2805C11.1666 50.3536 11.3174 50.4774 11.4235 50.6361C11.5296 50.7949 11.5862 50.9816 11.5862 51.1726C11.5862 51.4286 11.4845 51.6742 11.3034 51.8553C11.1223 52.0363 10.8767 52.1381 10.6207 52.1381Z" fill="#6566D9"/>
<path d="M28 32.8276H16.4138C16.1577 32.8276 15.9121 32.9294 15.731 33.1104C15.55 33.2915 15.4482 33.5371 15.4482 33.7932C15.4482 34.0492 15.55 34.2948 15.731 34.4759C15.9121 34.6569 16.1577 34.7587 16.4138 34.7587H28C28.256 34.7587 28.5016 34.6569 28.6827 34.4759C28.8638 34.2948 28.9655 34.0492 28.9655 33.7932C28.9655 33.5371 28.8638 33.2915 28.6827 33.1104C28.5016 32.9294 28.256 32.8276 28 32.8276Z" fill="#6566D9"/>
<path d="M28 36.6897H16.4138C16.1577 36.6897 15.9121 36.7914 15.731 36.9725C15.55 37.1536 15.4482 37.3991 15.4482 37.6552C15.4482 37.9113 15.55 38.1569 15.731 38.3379C15.9121 38.519 16.1577 38.6207 16.4138 38.6207H28C28.256 38.6207 28.5016 38.519 28.6827 38.3379C28.8638 38.1569 28.9655 37.9113 28.9655 37.6552C28.9655 37.3991 28.8638 37.1536 28.6827 36.9725C28.5016 36.7914 28.256 36.6897 28 36.6897Z" fill="#6566D9"/>
<path d="M28.9655 41.5173C28.9655 41.2612 28.8638 41.0156 28.6827 40.8346C28.5016 40.6535 28.256 40.5518 28 40.5518H16.4138C16.1577 40.5518 15.9121 40.6535 15.731 40.8346C15.55 41.0156 15.4482 41.2612 15.4482 41.5173C15.4482 41.7733 15.55 42.0189 15.731 42.2C15.9121 42.3811 16.1577 42.4828 16.4138 42.4828H28C28.256 42.4828 28.5016 42.3811 28.6827 42.2C28.8638 42.0189 28.9655 41.7733 28.9655 41.5173Z" fill="#6566D9"/>
<path d="M20.2758 44.4139H16.4138C16.1577 44.4139 15.9121 44.5157 15.731 44.6967C15.55 44.8778 15.4482 45.1234 15.4482 45.3795C15.4482 45.6355 15.55 45.8811 15.731 46.0622C15.9121 46.2433 16.1577 46.345 16.4138 46.345H20.2758C20.5319 46.345 20.7775 46.2433 20.9586 46.0622C21.1396 45.8811 21.2413 45.6355 21.2413 45.3795C21.2413 45.1234 21.1396 44.8778 20.9586 44.6967C20.7775 44.5157 20.5319 44.4139 20.2758 44.4139Z" fill="#6566D9"/>
<path d="M16.4138 54.0691H20.2758C20.5319 54.0691 20.7775 53.9674 20.9586 53.7863C21.1396 53.6052 21.2413 53.3596 21.2413 53.1036C21.2413 52.8475 21.1396 52.6019 20.9586 52.4209C20.7775 52.2398 20.5319 52.1381 20.2758 52.1381H16.4138C16.1577 52.1381 15.9121 52.2398 15.731 52.4209C15.55 52.6019 15.4482 52.8475 15.4482 53.1036C15.4482 53.3596 15.55 53.6052 15.731 53.7863C15.9121 53.9674 16.1577 54.0691 16.4138 54.0691Z" fill="#6566D9"/>
<path d="M16.4138 50.207H20.2758C20.5319 50.207 20.7775 50.1053 20.9586 49.9242C21.1396 49.7432 21.2413 49.4976 21.2413 49.2415C21.2413 48.9854 21.1396 48.7399 20.9586 48.5588C20.7775 48.3777 20.5319 48.276 20.2758 48.276H16.4138C16.1577 48.276 15.9121 48.3777 15.731 48.5588C15.55 48.7399 15.4482 48.9854 15.4482 49.2415C15.4482 49.4976 15.55 49.7432 15.731 49.9242C15.9121 50.1053 16.1577 50.207 16.4138 50.207Z" fill="#6566D9"/>
</svg>
