<svg id="Layer_1" data-name="Layer 1" xmlns="http://www.w3.org/2000/svg" width="70" height="70" viewBox="0 0 70 70"><defs><style>.cls-1,.cls-3{fill:none;stroke:#6467af;stroke-miterlimit:10;stroke-width:1.5px;}.cls-1{stroke-linecap:round;}.cls-2{fill:#6467af;}</style></defs><path class="cls-1" d="M29,66.94H9.67a3.31,3.31,0,0,1-3.33-3.29V8.21A3.31,3.31,0,0,1,9.67,4.92h4.38"/><path class="cls-2" d="M19.27,9.33A1.13,1.13,0,1,0,18.14,8.2,1.13,1.13,0,0,0,19.27,9.33Z"/><path class="cls-2" d="M36.68,9.33A1.13,1.13,0,1,0,35.55,8.2,1.13,1.13,0,0,0,36.68,9.33Z"/><rect class="cls-3" x="30.88" y="50.44" width="15.88" height="16.5" rx="1.2"/><rect class="cls-3" x="47.78" y="50.44" width="15.88" height="16.5" rx="1.2"/><line class="cls-3" x1="30.88" y1="62.84" x2="46.76" y2="62.84"/><line class="cls-3" x1="47.47" y1="62.84" x2="63.35" y2="62.84"/><line class="cls-1" x1="39.12" y1="50.44" x2="39.12" y2="54.94"/><path class="cls-1" d="M43.51,50.44v4.31a4.42,4.42,0,0,1-4.43,4.42h0a4.42,4.42,0,0,1-4.42-4.42V50.44"/><line class="cls-1" x1="55.45" y1="50.44" x2="55.45" y2="54.94"/><path class="cls-1" d="M59.83,50.44v4.31a4.42,4.42,0,0,1-4.42,4.42h0A4.42,4.42,0,0,1,51,54.75V50.44"/><rect class="cls-3" x="39.69" y="33.94" width="15.88" height="16.5" rx="1.2"/><line class="cls-3" x1="39.38" y1="46.34" x2="55.25" y2="46.34"/><line class="cls-1" x1="47.35" y1="33.94" x2="47.35" y2="38.45"/><path class="cls-1" d="M51.74,33.94v4.32a4.42,4.42,0,0,1-4.42,4.42h0a4.42,4.42,0,0,1-4.42-4.42V33.94"/><circle class="cls-3" cx="16.73" cy="40.26" r="2.31"/><circle class="cls-3" cx="16.73" cy="47.11" r="2.31"/><circle class="cls-3" cx="16.73" cy="53.96" r="2.31"/><line class="cls-1" x1="21.82" y1="38.23" x2="36.24" y2="38.23"/><line class="cls-1" x1="23.49" y1="8.2" x2="32.46" y2="8.2"/><line class="cls-1" x1="21.82" y1="41.47" x2="36.24" y2="41.47"/><line class="cls-1" x1="21.82" y1="44.72" x2="36.24" y2="44.72"/><line class="cls-1" x1="21.82" y1="50.71" x2="26.43" y2="50.71"/><line class="cls-1" x1="21.82" y1="53.96" x2="26.43" y2="53.96"/><line class="cls-1" x1="21.82" y1="57.21" x2="26.43" y2="57.21"/><circle class="cls-1" cx="28.02" cy="27.13" r="6.32"/><path class="cls-1" d="M24.82,26.23l2,2.1a.54.54,0,0,0,.77,0L31,25.06"/><rect class="cls-1" x="14.05" y="3.06" width="27.64" height="9.82" rx="1.84"/><path class="cls-1" d="M39.17,12.88v3A1.2,1.2,0,0,1,38,17H17.55a1.19,1.19,0,0,1-1.2-1.2v-3"/><path class="cls-1" d="M29,62.84H10.71a1.43,1.43,0,0,1-1.43-1.43v-50A1.43,1.43,0,0,1,10.71,10h2.94"/><path class="cls-1" d="M42,6h5.78a3,3,0,0,1,3,3V31.06"/><path class="cls-1" d="M41.76,10h3a1.56,1.56,0,0,1,1.56,1.55V30.8"/></svg>