<svg width="58" height="63" viewBox="0 0 58 63" fill="none" xmlns="http://www.w3.org/2000/svg">
<g clip-path="url(#clip0_345_1253)">
<path d="M37.139 42.763C37.139 42.2651 37.5413 41.8628 38.0392 41.8628H45.2407C45.7386 41.8628 46.1409 42.2651 46.1409 42.763C46.1409 43.2609 45.7386 43.6632 45.2407 43.6632H43.6597C43.9298 44.0683 44.1295 44.524 44.242 45.0134H45.2407C45.7386 45.0134 46.1409 45.4157 46.1409 45.9136C46.1409 46.4116 45.7386 46.8138 45.2407 46.8138H44.2392C43.8679 48.4538 42.4979 49.7169 40.8016 49.9335L44.8637 52.8338C45.2688 53.1236 45.3617 53.6862 45.0719 54.0885C44.7822 54.4907 44.2195 54.5864 43.8173 54.2966L37.516 49.7957C37.1981 49.5706 37.0631 49.1627 37.1812 48.7886C37.2994 48.4145 37.6482 48.1641 38.0392 48.1641H40.2897C41.2124 48.1641 42.0056 47.6099 42.3517 46.8138H38.0392C37.5413 46.8138 37.139 46.4116 37.139 45.9136C37.139 45.4157 37.5413 45.0134 38.0392 45.0134H42.3517C42.0056 44.2173 41.2124 43.6632 40.2897 43.6632H38.0392C37.5413 43.6632 37.139 43.2609 37.139 42.763Z" fill="#B47CA8"/>
</g>
<path d="M13.9626 25.0117C19.0171 25.0117 23.1291 20.8997 23.1291 15.8452C23.1291 10.7907 19.0171 6.67867 13.9626 6.67867C8.90813 6.67867 4.79613 10.7907 4.79613 15.8452C4.79613 20.8997 8.90813 25.0117 13.9626 25.0117ZM13.9626 8.61702C17.9473 8.61702 21.1896 11.8593 21.1896 15.844C21.1896 19.8286 17.9473 23.0709 13.9626 23.0709C9.97798 23.0709 6.73569 19.8286 6.73569 15.844C6.73569 11.8593 9.97798 8.61702 13.9626 8.61702ZM9.5498 15.3818C9.17135 15.0034 9.17135 14.3896 9.5498 14.0111C9.92825 13.6327 10.542 13.6327 10.9205 14.0111L13.4847 16.5754L17.0048 13.059C17.3832 12.6805 17.997 12.6805 18.3755 13.059C18.7539 13.4374 18.7539 14.0512 18.3755 14.4296L14.17 18.6314C13.9808 18.8206 13.7322 18.9152 13.4847 18.9152C13.2361 18.9152 12.9886 18.8206 12.7994 18.6314L9.5498 15.3818ZM26.7268 7.64785C26.7268 7.11171 27.1611 6.67867 27.696 6.67867H36.1444C36.6793 6.67867 37.1136 7.11292 37.1136 7.64785C37.1136 8.18277 36.6793 8.61702 36.1444 8.61702H27.696C27.1599 8.61702 26.7268 8.18277 26.7268 7.64785ZM26.7268 15.4485C26.7268 14.9124 27.1611 14.4794 27.696 14.4794H36.1444C36.6793 14.4794 37.1136 14.9136 37.1136 15.4485C37.1136 15.9835 36.6793 16.4177 36.1444 16.4177H27.696C27.1599 16.4189 26.7268 15.9847 26.7268 15.4485ZM26.7268 23.2504C26.7268 22.7143 27.1611 22.2813 27.696 22.2813H36.1444C36.6793 22.2813 37.1136 22.7155 37.1136 23.2504C37.1136 23.7853 36.6793 24.2196 36.1444 24.2196H27.696C27.1599 24.2208 26.7268 23.7866 26.7268 23.2504ZM37.1136 31.0523C37.1136 31.5885 36.6793 32.0215 36.1444 32.0215H7.41981C6.88367 32.0215 6.45063 31.5872 6.45063 31.0523C6.45063 30.5174 6.88488 30.0831 7.41981 30.0831H36.1444C36.6793 30.0831 37.1136 30.5162 37.1136 31.0523ZM26.0827 38.8542C26.0827 39.3904 25.6485 39.8234 25.1136 39.8234H7.41981C6.88488 39.8234 6.45063 39.3891 6.45063 38.8542C6.45063 38.3193 6.88488 37.885 7.41981 37.885H25.1136C25.6497 37.8838 26.0827 38.3181 26.0827 38.8542ZM26.0827 46.6561C26.0827 47.1922 25.6485 47.6253 25.1136 47.6253H7.41981C6.88488 47.6253 6.45063 47.191 6.45063 46.6561C6.45063 46.1212 6.88488 45.6869 7.41981 45.6869H25.1136C25.6497 45.6857 26.0827 46.12 26.0827 46.6561ZM26.0827 54.4568C26.0827 54.9929 25.6485 55.426 25.1136 55.426H7.41981C6.88488 55.426 6.45063 54.9917 6.45063 54.4568C6.45063 53.9219 6.88488 53.4876 7.41981 53.4876H25.1136C25.6497 53.4876 26.0827 53.9219 26.0827 54.4568ZM43.5642 32.3575V3.25322C43.5642 1.45922 42.105 0 40.311 0H3.252C1.45922 0 0 1.45922 0 3.25322V58.8514C0 60.6454 1.45922 62.1046 3.25322 62.1046H40.3122C40.476 62.1046 40.63 62.0634 40.7647 61.9918C41.3651 62.0658 41.9752 62.1046 42.5951 62.1046C50.8057 62.1046 57.4868 55.4248 57.4868 47.2129C57.4856 39.3297 51.3249 32.8584 43.5642 32.3575ZM3.252 60.1651C2.52785 60.1651 1.93834 59.5756 1.93834 58.8514V3.25322C1.93834 2.52907 2.52785 1.93956 3.252 1.93956H40.311C41.0352 1.93956 41.6247 2.52907 41.6247 3.25322V32.3575C33.8652 32.8584 27.7057 39.3297 27.7057 47.2129C27.7057 52.7562 30.7503 57.6021 35.2541 60.1651H3.252ZM42.5938 60.1651C35.4542 60.1651 29.6453 54.3549 29.6453 47.2129C29.6453 40.0733 35.4542 34.2643 42.5938 34.2643C49.7359 34.2643 55.5461 40.0733 55.5461 47.2129C55.5473 54.3549 49.7359 60.1651 42.5938 60.1651Z" fill="#B47CA8"/>
<defs>
<clipPath id="clip0_345_1253">
<rect width="9.00187" height="14.403" fill="white" transform="translate(37.1392 40.9626)"/>
</clipPath>
</defs>
</svg>
