<svg width="46" height="46" viewBox="0 0 46 46" fill="none" xmlns="http://www.w3.org/2000/svg">
<circle cx="23" cy="23" r="22" stroke="white" stroke-width="2"/>
<path d="M16.1662 15.1856C16.1662 14.4192 16.7853 13.8 17.5517 13.8H28.6362C29.4026 13.8 30.0218 14.4192 30.0218 15.1856C30.0218 15.952 29.4026 16.5712 28.6362 16.5712H26.2028C26.6185 17.1947 26.9259 17.8961 27.0991 18.6495H28.6362C29.4026 18.6495 30.0218 19.2687 30.0218 20.0351C30.0218 20.8015 29.4026 21.4206 28.6362 21.4206H27.0948C26.5232 23.945 24.4146 25.8891 21.8037 26.2225L28.056 30.6866C28.6795 31.1326 28.8224 31.9986 28.3764 32.6177C27.9305 33.2369 27.0645 33.3841 26.4453 32.9381L16.7464 26.0103C16.2571 25.6639 16.0493 25.0361 16.2311 24.4602C16.413 23.8843 16.9499 23.499 17.5517 23.499H21.0156C22.4358 23.499 23.6569 22.646 24.1894 21.4206H17.5517C16.7853 21.4206 16.1662 20.8015 16.1662 20.0351C16.1662 19.2687 16.7853 18.6495 17.5517 18.6495H24.1894C23.6569 17.4242 22.4358 16.5712 21.0156 16.5712H17.5517C16.7853 16.5712 16.1662 15.952 16.1662 15.1856Z" fill="white"/>
</svg>
