<?xml version="1.0" encoding="utf-8"?>
<!-- Generator: Adobe Illustrator 26.0.1, SVG Export Plug-In . SVG Version: 6.00 Build 0)  -->
<svg version="1.1" id="Layer_1" xmlns="http://www.w3.org/2000/svg" xmlns:xlink="http://www.w3.org/1999/xlink" x="0px" y="0px"
	 viewBox="0 0 90 90" style="enable-background:new 0 0 90 90;" xml:space="preserve">
<style type="text/css">
	.st0{fill:#20BAED;}
	.st1{fill:#348E43;}
</style>
<path class="st0" d="M49.22,16.84c0-2.33-1.9-4.22-4.22-4.22s-4.22,1.89-4.22,4.22s1.9,4.22,4.22,4.22S49.22,19.17,49.22,16.84z
	 M43.59,16.84c0-0.78,0.63-1.41,1.41-1.41c0.78,0,1.41,0.63,1.41,1.41s-0.63,1.41-1.41,1.41S43.59,17.62,43.59,16.84z"/>
<path class="st0" d="M54.86,16.84c0-5.43-4.42-9.86-9.86-9.86s-9.86,4.42-9.86,9.86h2.82c0-3.88,3.16-7.04,7.04-7.04
	s7.04,3.16,7.04,7.04H54.86z"/>
<rect x="1.36" y="85.83" width="2.82" height="2.82"/>
<rect x="85.83" y="85.83" width="2.82" height="2.82"/>
<rect x="80.2" y="39.37" class="st0" width="2.82" height="2.82"/>
<rect x="80.2" y="33.74" class="st0" width="2.82" height="2.82"/>
<path class="st0" d="M75.9,20.71c-0.87-0.56-1.8-1.03-2.76-1.41l-1.02,2.62c0.78,0.3,1.54,0.69,2.25,1.15L75.9,20.71z"/>
<path class="st0" d="M79.95,31.22l2.76-0.56c-0.2-1.01-0.51-2-0.91-2.96l-2.59,1.1C79.53,29.58,79.78,30.39,79.95,31.22z"/>
<path class="st0" d="M80.31,24.99c-0.58-0.85-1.25-1.64-1.99-2.36l-1.96,2.02c0.61,0.59,1.15,1.24,1.63,1.94L80.31,24.99z"/>
<path class="st0" d="M67.53,21.07c0.68-0.06,1.45,0.06,2.16,0.18l0.48-2.77c-0.87-0.15-1.8-0.2-2.64-0.22l-0.44,0.01l0.09,2.81
	L67.53,21.07z"/>
<path class="st0" d="M64.72,21.44l-0.75-2.71c-1.02,0.28-2.01,0.7-2.92,1.23l1.41,2.43C63.17,21.98,63.93,21.66,64.72,21.44z"/>
<path class="st0" d="M28.95,19.95c-0.91-0.53-1.9-0.94-2.92-1.23l-0.75,2.71c0.79,0.22,1.55,0.54,2.26,0.95L28.95,19.95z"/>
<rect x="6.99" y="33.74" class="st0" width="2.82" height="2.82"/>
<path class="st0" d="M10.8,28.8l-2.59-1.1c-0.4,0.95-0.71,1.95-0.91,2.96l2.76,0.56C10.22,30.39,10.47,29.58,10.8,28.8z"/>
<path class="st0" d="M13.64,24.65l-1.96-2.02c-0.74,0.72-1.41,1.51-1.99,2.36l2.32,1.59C12.49,25.89,13.04,25.24,13.64,24.65z"/>
<path class="st0" d="M22.47,21.07l0.36,0.01l0.09-2.81l-0.44-0.01c0,0-0.01,0-0.01,0c-0.88,0-1.76,0.08-2.63,0.22l0.48,2.77
	C21.02,21.13,21.78,21.05,22.47,21.07z"/>
<path class="st0" d="M17.87,21.93l-1.02-2.62c-0.96,0.37-1.89,0.85-2.76,1.41l1.52,2.37C16.34,22.62,17.09,22.23,17.87,21.93z"/>
<rect x="6.99" y="39.37" class="st0" width="2.82" height="2.82"/>
<path class="st0" d="M45,4.17c6.99,0,12.67,5.68,12.67,12.67h2.82C60.49,8.3,53.54,1.36,45,1.36S29.51,8.3,29.51,16.84h2.82
	C32.33,9.86,38.01,4.17,45,4.17z"/>
<path class="st1" d="M77.38,77.38c4.66,0,8.45-3.79,8.45-8.45v-2.82H80.2c-2.17,0-4.13,0.83-5.63,2.17v-7.8v-2.82h2.82
	c4.66,0,8.45-3.79,8.45-8.45v-2.82H80.2c-3.62,0-6.71,2.3-7.91,5.51c-1.54-1.65-3.74-2.69-6.17-2.69h-5.63v2.82
	c0,4.66,3.79,8.45,8.45,8.45h2.82v4.98c-1.5-1.34-3.47-2.17-5.63-2.17h-5.63v2.82c0,4.66,3.79,8.45,8.45,8.45h2.82v2.82v8.45H50.63
	V66.12h2.6l1.41-8.45h3.03v-8.45h-8.45v-5.63h1.41c1.55,0,2.82-1.26,2.82-2.82v-2.82c0-1.55-1.26-2.82-2.82-2.82H39.37
	c-1.55,0-2.82,1.26-2.82,2.82v2.82c0,1.55,1.26,2.82,2.82,2.82h1.41v5.63h-8.45v8.45h3.03l1.41,8.45h2.6v22.53h43.64v-2.82h-8.45
	v-8.45H77.38z M80.2,49.22h2.82c0,3.11-2.53,5.63-5.63,5.63h-2.82C74.57,51.75,77.09,49.22,80.2,49.22z M68.93,57.67
	c-3.11,0-5.63-2.53-5.63-5.63h2.82c3.11,0,5.63,2.53,5.63,5.63H68.93z M39.37,37.96h11.26l0,2.82H39.37V37.96z M43.59,43.59h2.82
	v5.63h-2.82V43.59z M35.14,52.04h19.71v2.82H35.14V52.04z M38.21,57.67h13.57l-0.94,5.63H39.15L38.21,57.67z M42.18,66.12h5.63
	v19.71h-5.63V66.12z M68.93,71.75c-3.11,0-5.63-2.53-5.63-5.63h2.82c3.11,0,5.63,2.53,5.63,5.63H68.93z M80.2,68.93h2.82
	c0,3.11-2.53,5.63-5.63,5.63h-2.82C74.57,71.46,77.09,68.93,80.2,68.93z"/>
<path class="st1" d="M18.25,77.38v-2.82h2.82c4.66,0,8.45-3.79,8.45-8.45V63.3h-5.63c-2.17,0-4.13,0.83-5.63,2.17v-4.98h2.82
	c4.66,0,8.45-3.79,8.45-8.45v-2.82h-5.63c-2.43,0-4.63,1.04-6.17,2.69c-1.2-3.21-4.29-5.51-7.91-5.51H4.17v2.82
	c0,4.66,3.79,8.45,8.45,8.45h2.82v2.82v7.8c-1.5-1.34-3.47-2.17-5.63-2.17H4.17v2.82c0,4.66,3.79,8.45,8.45,8.45h2.82v8.45H6.99
	v2.82h29.57v-2.82h-18.3V77.38z M12.62,54.86c-3.11,0-5.63-2.53-5.63-5.63H9.8c3.11,0,5.63,2.53,5.63,5.63H12.62z M23.88,52.04h2.82
	c0,3.11-2.53,5.63-5.63,5.63h-2.82C18.25,54.57,20.78,52.04,23.88,52.04z M23.88,66.12h2.82c0,3.11-2.53,5.63-5.63,5.63h-2.82
	C18.25,68.64,20.78,66.12,23.88,66.12z M12.62,74.57c-3.11,0-5.63-2.53-5.63-5.63H9.8c3.11,0,5.63,2.53,5.63,5.63H12.62z"/>
<path class="st0" d="M62.98,25.57c0.81,0.18,1.6,0.46,2.36,0.82l1.21-2.54c-0.94-0.45-1.94-0.79-2.95-1.02L62.98,25.57z"/>
<path class="st0" d="M67.45,27.7c0.65,0.52,1.25,1.11,1.78,1.75l2.19-1.78c-0.66-0.81-1.41-1.55-2.22-2.19L67.45,27.7z"/>
<rect x="71.75" y="41.99" class="st0" width="2.82" height="2.82"/>
<polygon class="st0" points="74.56,36.34 71.75,36.37 71.75,39.17 74.57,39.17 "/>
<path class="st0" d="M55.65,26.38l-1.21-2.54c-0.94,0.45-1.83,1-2.65,1.65l1.74,2.21C54.18,27.18,54.9,26.74,55.65,26.38z"/>
<path class="st0" d="M51.75,29.45l-2.18-1.78c-0.66,0.81-1.23,1.69-1.69,2.62l2.52,1.25C50.77,30.8,51.22,30.09,51.75,29.45z"/>
<path class="st0" d="M57.39,22.82l0.62,2.75c0.81-0.18,1.64-0.27,2.48-0.27l-0.01-2.82C59.44,22.47,58.4,22.59,57.39,22.82z"/>
<path class="st0" d="M70.58,31.56c0.37,0.75,0.66,1.54,0.85,2.35l2.74-0.66c-0.24-1.01-0.6-2-1.07-2.93L70.58,31.56z"/>
<path class="st0" d="M38.25,29.45c0.53,0.64,0.98,1.35,1.35,2.1l2.52-1.25c-0.46-0.93-1.03-1.82-1.69-2.62L38.25,29.45z"/>
<polygon class="st0" points="18.25,36.37 15.44,36.34 15.43,39.17 18.25,39.17 "/>
<path class="st0" d="M34.35,26.38c0.75,0.36,1.47,0.8,2.12,1.32l1.74-2.21c-0.82-0.64-1.71-1.2-2.65-1.65L34.35,26.38z"/>
<path class="st0" d="M19.42,31.56l-2.52-1.25c-0.46,0.93-0.82,1.92-1.07,2.93l2.74,0.66C18.76,33.09,19.05,32.3,19.42,31.56z"/>
<rect x="15.43" y="41.99" class="st0" width="2.82" height="2.82"/>
<path class="st0" d="M31.99,25.56l0.62-2.75c-1.01-0.23-2.05-0.34-3.1-0.34l0.01,2.82C30.35,25.29,31.19,25.38,31.99,25.56z"/>
<path class="st0" d="M22.55,27.7l-1.74-2.21c-0.82,0.64-1.57,1.38-2.22,2.19l2.19,1.78C21.29,28.81,21.89,28.22,22.55,27.7z"/>
<path class="st0" d="M27.02,25.57l-0.62-2.75c-1.02,0.23-2.01,0.57-2.95,1.02l1.21,2.54C25.42,26.02,26.21,25.75,27.02,25.57z"/>
</svg>
