<svg width="120" height="121" viewBox="0 0 120 121" fill="none" xmlns="http://www.w3.org/2000/svg">
<path d="M65.4605 23.3107C65.4605 20.233 62.9559 17.7284 59.8782 17.7284C56.8005 17.7284 54.2959 20.233 54.2959 23.3107C54.2959 26.3884 56.8005 28.893 59.8782 28.893C62.9559 28.893 65.4605 26.3884 65.4605 23.3107ZM58.0174 23.3107C58.0174 22.2854 58.8529 21.4499 59.8782 21.4499C60.9035 21.4499 61.739 22.2854 61.739 23.3107C61.739 24.336 60.9035 25.1714 59.8782 25.1714C58.8529 25.1714 58.0174 24.336 58.0174 23.3107Z" fill="#16BAEE"/>
<path d="M72.9032 23.3106C72.9032 16.1281 67.0604 10.2853 59.8779 10.2853C52.6953 10.2853 46.8525 16.1281 46.8525 23.3106H50.5741C50.5741 18.1805 54.7478 14.0068 59.8779 14.0068C65.008 14.0068 69.1817 18.1805 69.1817 23.3106H72.9032Z" fill="#16BAEE"/>
<path d="M5.91586 114.488H2.19434V118.21H5.91586V114.488Z" fill="black"/>
<path d="M117.561 114.488H113.84V118.21H117.561V114.488Z" fill="black"/>
<path d="M110.118 53.0829H106.396V56.8044H110.118V53.0829Z" fill="#16BAEE"/>
<path d="M110.118 45.6398H106.396V49.3613H110.118V45.6398Z" fill="#16BAEE"/>
<path d="M100.717 28.4203C99.5672 27.6797 98.3428 27.0545 97.0756 26.5614L95.7266 30.0299C96.7611 30.4318 97.7622 30.9435 98.7019 31.5482L100.717 28.4203Z" fill="#16BAEE"/>
<path d="M106.066 42.3109L109.715 41.5759C109.445 40.2417 109.04 38.928 108.509 37.6702L105.08 39.1178C105.515 40.145 105.847 41.2205 106.066 42.3109Z" fill="#16BAEE"/>
<path d="M106.548 34.0846C105.778 32.9606 104.892 31.9112 103.915 30.9603L101.321 33.6305C102.121 34.4083 102.847 35.268 103.476 36.1891L106.548 34.0846Z" fill="#16BAEE"/>
<path d="M89.6514 28.8929C90.552 28.8185 91.568 28.9729 92.5077 29.1348L93.1385 25.4672C91.9885 25.27 90.766 25.1974 89.6495 25.1714L89.0615 25.1807L89.1769 28.9004L89.6514 28.8929Z" fill="#16BAEE"/>
<path d="M85.9427 29.3842L84.9491 25.7966C83.5963 26.1725 82.2975 26.7177 81.0898 27.4192L82.9599 30.6365C83.8921 30.095 84.8951 29.6726 85.9427 29.3842Z" fill="#16BAEE"/>
<path d="M38.6644 27.4192C37.4568 26.7177 36.1579 26.1725 34.8052 25.7966L33.8115 29.3842C34.8573 29.6745 35.8621 30.095 36.7943 30.6383L38.6644 27.4192Z" fill="#16BAEE"/>
<path d="M13.3582 45.6398H9.63672V49.3613H13.3582V45.6398Z" fill="#16BAEE"/>
<path d="M14.6762 39.1178L11.2468 37.6702C10.7165 38.928 10.3108 40.2417 10.041 41.5759L13.69 42.3109C13.9095 41.2205 14.2408 40.145 14.6762 39.1178Z" fill="#16BAEE"/>
<path d="M18.4349 33.6286L15.841 30.9584C14.8641 31.9092 13.9784 32.9606 13.208 34.0826L16.2783 36.1853C16.9091 35.2679 17.6348 34.4064 18.4349 33.6286Z" fill="#16BAEE"/>
<path d="M30.1052 28.8929L30.5797 28.9004L30.6951 25.1807L30.1071 25.1714C30.1015 25.1714 30.0959 25.1714 30.0903 25.1714C28.9274 25.1714 27.7607 25.2719 26.6182 25.4672L27.249 29.1348C28.1868 28.9729 29.1823 28.8762 30.1052 28.8929Z" fill="#16BAEE"/>
<path d="M24.0267 30.0299L22.6776 26.5614C21.4105 27.0545 20.1861 27.6797 19.0361 28.4203L21.0513 31.5501C21.9929 30.9435 22.994 30.4318 24.0267 30.0299Z" fill="#16BAEE"/>
<path d="M13.3582 53.0829H9.63672V56.8044H13.3582V53.0829Z" fill="#0FCEF8"/>
<path d="M59.8776 6.56381C69.1107 6.56381 76.6245 14.0776 76.6245 23.3107H80.346C80.346 12.0252 71.1631 2.84229 59.8776 2.84229C48.592 2.84229 39.4092 12.0252 39.4092 23.3107H43.1307C43.1307 14.0776 50.6445 6.56381 59.8776 6.56381Z" fill="#16BAEE"/>
<path d="M102.675 103.324C108.833 103.324 113.84 98.3162 113.84 92.1589V88.4374H106.397C103.535 88.4374 100.932 89.5278 98.9538 91.303V80.9944V77.2728H102.675C108.833 77.2728 113.84 72.2655 113.84 66.1082V62.3867H106.397C101.607 62.3867 97.5247 65.4235 95.9431 69.6698C93.9037 67.4852 91.0065 66.1082 87.7892 66.1082H80.3461V69.8298C80.3461 75.987 85.3535 80.9944 91.5107 80.9944H95.2323V87.5815C93.2543 85.8063 90.651 84.7159 87.7892 84.7159H80.3461V88.4374C80.3461 94.5947 85.3535 99.602 91.5107 99.602H95.2323V103.324V114.488H67.3208V88.4374H70.7576L72.6184 77.2728H76.6246V66.1082H65.46V58.6652H67.3208C69.3732 58.6652 71.0423 56.9961 71.0423 54.9437V51.2221C71.0423 49.1697 69.3732 47.5006 67.3208 47.5006H52.4347C50.3823 47.5006 48.7132 49.1697 48.7132 51.2221V54.9437C48.7132 56.9961 50.3823 58.6652 52.4347 58.6652H54.2954V66.1082H43.1309V77.2728H47.1371L48.9978 88.4374H52.4347V118.21H110.118V114.488H98.9538V103.324H102.675ZM106.397 66.1082H110.118C110.118 70.2131 106.78 73.5513 102.675 73.5513H98.9538C98.9538 69.4465 102.292 66.1082 106.397 66.1082ZM91.5107 77.2728C87.4059 77.2728 84.0677 73.9346 84.0677 69.8298H87.7892C91.894 69.8298 95.2323 73.168 95.2323 77.2728H91.5107ZM52.4347 51.2221H67.3208L67.3226 54.9437H52.4347V51.2221ZM58.017 58.6652H61.7385V66.1082H58.017V58.6652ZM46.8524 69.8298H72.9031V73.5513H46.8524V69.8298ZM50.9089 77.2728H68.8448L67.6036 84.7159H52.1481L50.9089 77.2728ZM56.1562 88.4374H63.5993V114.488H56.1562V88.4374ZM91.5107 95.8805C87.4059 95.8805 84.0677 92.5423 84.0677 88.4374H87.7892C91.894 88.4374 95.2323 91.7756 95.2323 95.8805H91.5107ZM106.397 92.1589H110.118C110.118 96.2638 106.78 99.602 102.675 99.602H98.9538C98.9538 95.4972 102.292 92.1589 106.397 92.1589Z" fill="#338D21"/>
<path d="M24.5237 103.324V99.602H28.2452C34.4025 99.602 39.4098 94.5947 39.4098 88.4374V84.7159H31.9667C29.1049 84.7159 26.5016 85.8063 24.5237 87.5815V80.9944H28.2452C34.4025 80.9944 39.4098 75.987 39.4098 69.8298V66.1082H31.9667C28.7494 66.1082 25.8522 67.4852 23.8128 69.6698C22.2312 65.4235 18.1487 62.3867 13.3591 62.3867H5.91602V66.1082C5.91602 72.2655 10.9233 77.2728 17.0806 77.2728H20.8021V80.9944V91.303C18.8241 89.5278 16.2209 88.4374 13.3591 88.4374H5.91602V92.1589C5.91602 98.3162 10.9233 103.324 17.0806 103.324H20.8021V114.488H9.63754V118.21H48.7136V114.488H24.5237V103.324ZM17.0806 73.5513C12.9758 73.5513 9.63754 70.2131 9.63754 66.1082H13.3591C17.4639 66.1082 20.8021 69.4465 20.8021 73.5513H17.0806ZM31.9667 69.8298H35.6882C35.6882 73.9346 32.35 77.2728 28.2452 77.2728H24.5237C24.5237 73.168 27.8619 69.8298 31.9667 69.8298ZM31.9667 88.4374H35.6882C35.6882 92.5423 32.35 95.8805 28.2452 95.8805H24.5237C24.5237 91.7756 27.8619 88.4374 31.9667 88.4374ZM17.0806 99.602C12.9758 99.602 9.63754 96.2638 9.63754 92.1589H13.3591C17.4639 92.1589 20.8021 95.4972 20.8021 99.602H17.0806Z" fill="#338D21"/>
<path d="M83.6367 34.84C84.7104 35.0819 85.758 35.4447 86.7535 35.9192L88.3556 32.5605C87.1108 31.967 85.7971 31.5111 84.4536 31.2078L83.6367 34.84Z" fill="#16BAEE"/>
<path d="M89.5547 37.6626C90.4199 38.3455 91.2126 39.1252 91.9067 39.9812L94.7965 37.6347C93.9275 36.5666 92.9394 35.5916 91.8583 34.7394L89.5547 37.6626Z" fill="#16BAEE"/>
<path d="M98.9539 56.5458H95.2324V60.2673H98.9539V56.5458Z" fill="#16BAEE"/>
<path d="M98.952 49.0841L95.2305 49.1232L95.2323 52.8242H98.9539L98.952 49.0841Z" fill="#16BAEE"/>
<path d="M73.9527 35.9136L72.3543 32.5531C71.1132 33.143 69.9335 33.8761 68.8486 34.7283L71.1485 37.6535C72.0175 36.9724 72.9609 36.3863 73.9527 35.9136Z" fill="#16BAEE"/>
<path d="M68.7946 39.9719L65.9086 37.6199C65.0396 38.688 64.286 39.8547 63.6738 41.0883L67.0065 42.7463C67.4977 41.7582 68.0987 40.826 68.7946 39.9719Z" fill="#16BAEE"/>
<path d="M76.2568 31.2058L77.0719 34.8362C78.1362 34.598 79.2396 34.4752 80.3542 34.4752L80.3468 30.7537C78.9624 30.7537 77.5873 30.9081 76.2568 31.2058Z" fill="#16BAEE"/>
<path d="M93.6914 42.7574C94.1808 43.7455 94.5585 44.7875 94.8172 45.8575L98.4345 44.9848C98.1126 43.6469 97.6381 42.3406 97.0259 41.1069L93.6914 42.7574Z" fill="#16BAEE"/>
<path d="M50.9609 39.9719C51.6569 40.8241 52.2579 41.7582 52.7491 42.7463L56.0818 41.0883C55.4677 39.8547 54.716 38.688 53.847 37.6199L50.9609 39.9719Z" fill="#16BAEE"/>
<path d="M24.5251 49.1232L20.8036 49.0841L20.8018 52.8242H24.5233L24.5251 49.1232Z" fill="#16BAEE"/>
<path d="M45.8027 35.9136C46.7964 36.3862 47.7398 36.9724 48.6069 37.6553L50.9068 34.7302C49.822 33.8779 48.6441 33.1448 47.4011 32.5549L45.8027 35.9136Z" fill="#16BAEE"/>
<path d="M26.0644 42.7575L22.7299 41.1051C22.1177 42.3406 21.6432 43.645 21.3213 44.9829L24.9386 45.8556C25.1973 44.7876 25.575 43.7437 26.0644 42.7575Z" fill="#16BAEE"/>
<path d="M24.5233 56.5458H20.8018V60.2673H24.5233V56.5458Z" fill="#16BAEE"/>
<path d="M42.6838 34.8362L43.4988 31.2058C42.1683 30.9081 40.7932 30.7537 39.4014 30.7537L39.4088 34.4752C40.516 34.4752 41.6194 34.598 42.6838 34.8362Z" fill="#16BAEE"/>
<path d="M30.2008 37.6627L27.8971 34.7413C26.816 35.5936 25.828 36.5667 24.959 37.6367L27.8487 39.9831C28.5447 39.1272 29.3355 38.3475 30.2008 37.6627Z" fill="#16BAEE"/>
<path d="M36.1193 34.8399L35.3024 31.2096C33.9589 31.5129 32.6471 31.9669 31.4004 32.5624L33.0025 35.921C33.998 35.4447 35.0456 35.0818 36.1193 34.8399Z" fill="#16BAEE"/>
</svg>
