<?xml version="1.0" encoding="utf-8"?>
<!-- Generator: Adobe Illustrator 26.0.1, SVG Export Plug-In . SVG Version: 6.00 Build 0)  -->
<svg version="1.1" id="Layer_1" xmlns="http://www.w3.org/2000/svg" xmlns:xlink="http://www.w3.org/1999/xlink" x="0px" y="0px"
	 viewBox="0 0 90 90" style="enable-background:new 0 0 90 90;" xml:space="preserve">
<style type="text/css">
	.st0{fill:#AB9E33;}
	.st1{fill:#010101;}
</style>
<g>
	<path class="st0" d="M85.36,5.87H50.81C50.22,3.2,47.84,1.2,45,1.2s-5.22,2-5.81,4.67H4.64c-1.47,0-2.66,1.19-2.66,2.66v4.63
		c0,1.47,1.19,2.66,2.66,2.66H6.9h8.12v70.41H8.18V20.64c0-0.71-0.57-1.28-1.28-1.28s-1.28,0.57-1.28,1.28v65.98
		c0,1.2,0.98,2.18,2.18,2.18h74.41c1.2,0,2.18-0.98,2.18-2.18v-70.8h0.98c1.47,0,2.66-1.19,2.66-2.66V8.53
		C88.02,7.06,86.83,5.87,85.36,5.87L85.36,5.87z M45,3.77c1.41,0,2.63,0.87,3.13,2.1h-6.26C42.37,4.64,43.59,3.77,45,3.77z
		 M21.95,68.9c0.71,0,1.28-0.57,1.28-1.28v-51.8h2.95v51.8c0,0.71,0.57,1.28,1.28,1.28c0.71,0,1.28-0.57,1.28-1.28v-51.8h3.14v54
		c0,0.01,0,0.01,0,0.02c0,0.01,0,0.01,0,0.02v7.7l-2.41-1.35c-0.69-0.38-1.54-0.33-2.18,0.12l-2.55,1.83l-2.48-1.81
		c-0.36-0.26-0.78-0.39-1.21-0.39c-0.34,0-0.67,0.08-0.98,0.25l-2.5,1.37v-7.73c0,0,0,0,0-0.01V15.82h3.09v51.8
		C20.67,68.33,21.24,68.9,21.95,68.9L21.95,68.9z M17.58,86.23v-5.74l3.44-1.89l2.51,1.84c0.71,0.52,1.67,0.53,2.39,0.01l2.59-1.85
		l2.9,1.62c0.64,0.36,1.4,0.35,2.03-0.02c0.63-0.37,1.01-1.03,1.01-1.76v-7.33h16.32c0.71,0,1.28-0.57,1.28-1.28
		s-0.57-1.28-1.28-1.28H34.46V15.82h5.2v3.28c0,1.2,0.98,2.18,2.18,2.18h1.88v2.27c0,0.71,0.57,1.28,1.28,1.28
		c0.71,0,1.28-0.57,1.28-1.28v-2.27h1.88c1.2,0,2.18-0.98,2.18-2.18v-3.28h5.2v62.62c0,0.73,0.38,1.39,1.01,1.76
		c0.63,0.37,1.39,0.38,2.03,0.02l2.9-1.62l2.59,1.85c0.72,0.51,1.68,0.51,2.39-0.01l2.51-1.84l3.44,1.89v5.74H17.58z M42.22,18.72
		v-2.9h5.56v2.9H42.22z M62.53,68.9c0.71,0,1.28-0.57,1.28-1.28v-51.8h2.95v4.69c0,0.71,0.57,1.28,1.28,1.28s1.28-0.57,1.28-1.28
		v-4.69h3.09v54.01c0,0,0,0,0,0.01v7.73l-2.5-1.37c-0.69-0.38-1.55-0.32-2.19,0.14l-2.48,1.81l-2.55-1.83
		c-0.35-0.25-0.77-0.38-1.19-0.38c-0.34,0-0.69,0.09-0.99,0.26l-2.41,1.35V15.82h3.14v51.8C61.24,68.33,61.82,68.9,62.53,68.9z
		 M81.82,86.23h-6.83V15.82h6.83L81.82,86.23z M85.46,13.16c0,0.05-0.04,0.09-0.09,0.09H4.64c-0.05,0-0.09-0.04-0.09-0.09V8.53
		c0-0.05,0.04-0.09,0.09-0.09h80.73c0.05,0,0.09,0.04,0.09,0.09V13.16z"/>
	<path class="st1" d="M78.41,55.57c0.71,0,1.28-0.57,1.28-1.28v-4.34c0-0.71-0.57-1.28-1.28-1.28c-0.71,0-1.28,0.57-1.28,1.28v4.34
		C77.13,54.99,77.7,55.57,78.41,55.57z"/>
	<path class="st1" d="M78.41,57.72c-0.83,0-1.49,0.67-1.49,1.49c0,0.83,0.67,1.49,1.49,1.49c0.83,0,1.49-0.67,1.49-1.49
		C79.9,58.39,79.24,57.72,78.41,57.72z"/>
	<path class="st0" d="M68.05,68.9c0.71,0,1.28-0.57,1.28-1.28V26.63c0-0.71-0.57-1.28-1.28-1.28s-1.28,0.57-1.28,1.28v40.99
		C66.77,68.33,67.34,68.9,68.05,68.9z"/>
	<path class="st1" d="M40.94,72.86c-1.01-0.16-2.04,0.11-2.85,0.73c-0.81,0.62-1.33,1.56-1.44,2.57l-0.42,3.93
		c-0.19,1.83,1.08,3.49,2.9,3.77c0.9,0.14,1.82-0.08,2.57-0.62c0.74-0.54,1.23-1.34,1.38-2.25l0.14-0.92l0.73-2.46
		c0.3-1.03,0.15-2.14-0.42-3.05C42.94,73.64,42.01,73.02,40.94,72.86L40.94,72.86z M41.48,76.87l-0.75,2.54
		c-0.04,0.09-0.17,1.05-0.19,1.17c-0.15,1.11-1.89,0.88-1.75-0.23l0.42-3.93C39.37,74.78,41.96,75.29,41.48,76.87z"/>
	<path class="st1" d="M53.25,76.15c-0.11-1.01-0.63-1.95-1.44-2.57c-0.81-0.62-1.85-0.88-2.85-0.73c-1.06,0.17-2,0.78-2.58,1.69
		c-0.57,0.91-0.73,2.02-0.42,3.05l0.73,2.46l0.14,0.92c0.14,0.91,0.63,1.71,1.38,2.25c0.74,0.54,1.67,0.76,2.57,0.62
		c1.82-0.29,3.09-1.94,2.9-3.77L53.25,76.15z M50.38,81.32c-0.47,0.08-0.95-0.26-1.01-0.74c-0.02-0.12-0.16-1.07-0.19-1.17
		l-0.75-2.54c-0.48-1.58,2.11-2.1,2.28-0.45l0.42,3.93C51.17,80.82,50.84,81.25,50.38,81.32L50.38,81.32z"/>
</g>
</svg>
