<svg width="142" height="145" viewBox="0 0 142 145" fill="none" xmlns="http://www.w3.org/2000/svg">
<path d="M137.144 7.80613H80.3626C79.396 3.42252 75.4822 0.132065 70.8121 0.132065C66.1419 0.132065 62.2281 3.42252 61.2615 7.80613H4.4806C2.0716 7.80613 0.111328 9.7664 0.111328 12.1754V19.7868C0.111328 22.1958 2.0716 24.1561 4.4806 24.1561H8.1928H21.5292V139.87H10.3015V32.0753C10.3015 30.9104 9.35766 29.9666 8.1928 29.9666C7.02794 29.9666 6.08408 30.9104 6.08408 32.0753V140.503C6.08408 142.48 7.69205 144.088 9.66835 144.088H131.956C133.932 144.088 135.54 142.48 135.54 140.503V24.1561H137.144C139.553 24.1561 141.513 22.1958 141.513 19.7868V12.1754C141.513 9.7664 139.553 7.80613 137.144 7.80613ZM70.8121 4.34951C73.1342 4.34951 75.1262 5.78063 75.959 7.80613H65.6654C66.4979 5.78063 68.4899 4.34951 70.8121 4.34951ZM32.9354 111.388C34.1003 111.388 35.0442 110.444 35.0442 109.28V24.1561H39.8999V109.28C39.8999 110.444 40.8437 111.388 42.0086 111.388C43.1734 111.388 44.1173 110.444 44.1173 109.28V24.1561H49.2707V112.891C49.2707 112.9 49.2693 112.909 49.2693 112.918C49.2693 112.927 49.2705 112.936 49.2707 112.945V125.599L45.3049 123.385C44.1766 122.757 42.7688 122.835 41.7181 123.587L37.5229 126.588L33.4528 123.609C32.868 123.181 32.1696 122.964 31.4686 122.964C30.9147 122.964 30.3594 123.099 29.8575 123.375L25.7472 125.629V112.918C25.7472 112.914 25.7467 112.911 25.7467 112.907V24.1561H30.8267V66.7178V109.28C30.8267 110.444 31.7709 111.388 32.9354 111.388ZM25.7472 139.87V130.439L31.4048 127.336L35.5351 130.359C36.7067 131.217 38.2877 131.225 39.4691 130.38L43.7273 127.335L48.4967 129.996C49.5466 130.583 50.7932 130.57 51.8307 129.961C52.8685 129.352 53.4882 128.27 53.4882 127.067V115.027H80.3092C81.4741 115.027 82.4179 114.083 82.4179 112.918C82.4179 111.753 81.4741 110.809 80.3092 110.809H53.4882V24.1561H62.0257V29.5482C62.0257 31.5245 63.6337 33.1325 65.61 33.1325H68.7033V36.8551C68.7033 38.0199 69.6472 38.9638 70.8121 38.9638C71.9769 38.9638 72.9208 38.0199 72.9208 36.8551V33.1325H76.0141C77.9904 33.1325 79.5984 31.5245 79.5984 29.5482V24.1561H88.1359V127.067C88.1359 128.27 88.7553 129.352 89.7934 129.961C90.8306 130.57 92.0776 130.582 93.1274 129.996L97.8968 127.335L102.155 130.38C103.336 131.226 104.917 131.217 106.089 130.359L110.219 127.336L115.877 130.439V139.87H25.7472ZM66.2432 28.915V24.1561H75.381V28.915H66.2432ZM99.6155 111.388C100.78 111.388 101.724 110.444 101.724 109.28V24.1561H106.58V31.8672C106.58 33.0321 107.524 33.976 108.689 33.976C109.854 33.976 110.797 33.0321 110.797 31.8672V24.1561H115.877V112.907C115.877 112.911 115.877 112.914 115.877 112.918V125.629L111.767 123.374C110.63 122.751 109.218 122.842 108.171 123.609L104.101 126.587L99.906 123.586C99.3273 123.172 98.6408 122.963 97.9519 122.963C97.3896 122.963 96.8258 123.102 96.3183 123.386L92.3531 125.598V24.1561H97.5065V109.28C97.5068 110.444 98.451 111.388 99.6155 111.388ZM131.323 139.87H120.095V24.1561H131.323V139.87ZM137.295 19.7868C137.295 19.8706 137.227 19.9386 137.144 19.9386H4.4806C4.39682 19.9386 4.32878 19.8706 4.32878 19.7868V12.1754C4.32878 12.0916 4.39682 12.0236 4.4806 12.0236H137.144C137.227 12.0236 137.295 12.0916 137.295 12.1754V19.7868Z" fill="#AC9E1C"/>
<path d="M125.718 89.4736C126.883 89.4736 127.827 88.5298 127.827 87.3649V80.2324C127.827 79.0675 126.883 78.1236 125.718 78.1236C124.553 78.1236 123.609 79.0675 123.609 80.2324V87.3649C123.609 88.5295 124.554 89.4736 125.718 89.4736Z" fill="black"/>
<path d="M125.719 93.0197C124.363 93.0197 123.264 94.119 123.264 95.4751C123.264 96.8311 124.363 97.9305 125.719 97.9305C127.075 97.9305 128.174 96.8311 128.174 95.4751C128.174 94.119 127.075 93.0197 125.719 93.0197Z" fill="black"/>
<path d="M108.689 111.388C109.854 111.388 110.798 110.444 110.798 109.28V41.9191C110.798 40.7542 109.854 39.8104 108.689 39.8104C107.524 39.8104 106.58 40.7542 106.58 41.9191V109.28C106.58 110.444 107.524 111.388 108.689 111.388Z" fill="#AC9E1C"/>
<path d="M64.1439 117.888C62.4907 117.628 60.7837 118.064 59.4575 119.082C58.1312 120.1 57.2695 121.638 57.0929 123.3L56.4072 129.762C56.088 132.768 58.1782 135.491 61.165 135.96C62.6442 136.194 64.1591 135.835 65.3824 134.941C66.6063 134.049 67.4093 132.735 67.6441 131.239L67.8817 129.726L69.0755 125.686C69.5763 123.991 69.3221 122.163 68.3777 120.669C67.4327 119.175 65.8899 118.162 64.1439 117.888ZM65.0307 124.491L63.7972 128.665C63.7396 128.811 63.513 130.396 63.4773 130.585C63.2262 132.401 60.3724 132.033 60.6007 130.207L61.2865 123.746C61.5595 121.042 65.8166 121.89 65.0307 124.491Z" fill="black"/>
<path d="M84.3766 123.3C84.2 121.638 83.3382 120.1 82.012 119.082C80.6857 118.064 78.9774 117.628 77.3255 117.888C75.5795 118.162 74.0368 119.175 73.0921 120.67C72.1476 122.163 71.8932 123.991 72.3942 125.686L73.588 129.727L73.8256 131.239C74.0604 132.735 74.8634 134.05 76.0873 134.941C77.3112 135.836 78.8253 136.195 80.3048 135.96C83.2915 135.491 85.3817 132.769 85.0626 129.762L84.3766 123.3ZM79.6508 131.793C78.8818 131.929 78.0973 131.359 77.9922 130.585C77.9551 130.385 77.7315 128.82 77.6722 128.665L76.4388 124.491C75.6535 121.888 79.91 121.042 80.1827 123.745L80.8685 130.206C80.9503 130.976 80.4153 131.674 79.6508 131.793Z" fill="black"/>
</svg>
