<?xml version="1.0" encoding="utf-8"?>
<!-- Generator: Adobe Illustrator 26.0.1, SVG Export Plug-In . SVG Version: 6.00 Build 0)  -->
<svg version="1.1" id="Layer_1" xmlns="http://www.w3.org/2000/svg" xmlns:xlink="http://www.w3.org/1999/xlink" x="0px" y="0px"
	 width="70" height="70" viewBox="0 0 72 72" style="enable-background:new 0 0 72 72;" xml:space="preserve">
<style type="text/css">
	.st0{fill:none;stroke:#C95D6A;stroke-width:1.5;stroke-miterlimit:10;}
</style>
<g>
	<path class="st0" d="M57.1,60.4H11.5c-1.2,0-2.3-1-2.3-2.3V12.6c0-1.2,1-2.3,2.3-2.3h45.6c1.2,0,2.3,1,2.3,2.3v45.6
		C59.3,59.4,58.3,60.4,57.1,60.4z"/>
	<path class="st0" d="M21.8,15.5L21.8,15.5c-1.6,0-2.9-1.3-2.9-2.9V8.2c0-1.6,1.3-2.9,2.9-2.9h0c1.6,0,2.9,1.3,2.9,2.9v4.4
		C24.6,14.2,23.4,15.5,21.8,15.5z"/>
	<path class="st0" d="M33.9,15.5L33.9,15.5c-1.6,0-2.9-1.3-2.9-2.9V8.2c0-1.6,1.3-2.9,2.9-2.9h0c1.6,0,2.9,1.3,2.9,2.9v4.4
		C36.8,14.2,35.5,15.5,33.9,15.5z"/>
	<path class="st0" d="M46.1,15.5L46.1,15.5c-1.6,0-2.9-1.3-2.9-2.9V8.2c0-1.6,1.3-2.9,2.9-2.9h0c1.6,0,2.9,1.3,2.9,2.9v4.4
		C48.9,14.2,47.6,15.5,46.1,15.5z"/>
	<line class="st0" x1="9.2" y1="21.7" x2="59.3" y2="21.7"/>
	<path class="st0" d="M24.3,33.2h-5c-0.6,0-1.1-0.5-1.1-1.1v-5c0-0.6,0.5-1.1,1.1-1.1h5c0.6,0,1.1,0.5,1.1,1.1v5
		C25.3,32.7,24.8,33.2,24.3,33.2z"/>
	<path class="st0" d="M24.3,44.3h-5c-0.6,0-1.1-0.5-1.1-1.1v-5c0-0.6,0.5-1.1,1.1-1.1h5c0.6,0,1.1,0.5,1.1,1.1v5
		C25.3,43.8,24.8,44.3,24.3,44.3z"/>
	<path class="st0" d="M24.3,55.4h-5c-0.6,0-1.1-0.5-1.1-1.1v-5c0-0.6,0.5-1.1,1.1-1.1h5c0.6,0,1.1,0.5,1.1,1.1v5
		C25.3,55,24.8,55.4,24.3,55.4z"/>
	<path class="st0" d="M36.8,33.2h-5c-0.6,0-1.1-0.5-1.1-1.1v-5c0-0.6,0.5-1.1,1.1-1.1h5c0.6,0,1.1,0.5,1.1,1.1v5
		C37.8,32.7,37.4,33.2,36.8,33.2z"/>
	<path class="st0" d="M49.3,33.2h-5c-0.6,0-1.1-0.5-1.1-1.1v-5c0-0.6,0.5-1.1,1.1-1.1h5c0.6,0,1.1,0.5,1.1,1.1v5
		C50.4,32.7,49.9,33.2,49.3,33.2z"/>
	<polyline class="st0" points="60.8,53.8 61.2,53.8 61.2,66.6 30.5,66.6 30.5,53.8 31.2,53.8 	"/>
	<path class="st0" d="M61.3,53.7l-14.6,3.8c-0.3,0.1-0.7,0.1-1,0l-14.9-3.8c-0.9-0.2-1.5-1-1.5-2v-8.8h33.6v8.8
		C62.8,52.7,62.1,53.5,61.3,53.7z"/>
	<circle class="st0" cx="46.1" cy="53.1" r="1.9"/>
	<path class="st0" d="M38.4,42.9v-2c0-0.5,0.4-1,1-1h13c0.5,0,1,0.4,1,1v2"/>
	<path class="st0" d="M56.7,42.9H34.6v-3.4c0-1.8,1.4-3.2,3.2-3.2h15.6c1.8,0,3.2,1.4,3.2,3.2V42.9z"/>
	<path class="st0" d="M35.5,37.3h-3.3c-0.7,0-1.2,0.5-1.2,1.2v4.4h3.7h1.3"/>
</g>
</svg>
