<svg width="68" height="68" viewBox="0 0 68 68" fill="none" xmlns="http://www.w3.org/2000/svg">
<mask id="mask0_2285_1265" style="mask-type:luminance" maskUnits="userSpaceOnUse" x="0" y="0" width="68" height="69">
<path d="M0 0.00025177H68V68.0002H0V0.00025177Z" fill="white"/>
</mask>
<g mask="url(#mask0_2285_1265)">
<path d="M57.9547 42.462V63.0194C57.9547 65.22 56.1708 67.0038 53.9703 67.0038H14.03C11.8296 67.0038 10.0457 65.22 10.0457 63.0194V4.98035C10.0457 2.77992 11.8296 0.995979 14.03 0.995979H41.588L57.9547 17.3627V37.8136" stroke="#43BE65" stroke-width="1.99219" stroke-miterlimit="10" stroke-linecap="round" stroke-linejoin="round"/>
<path d="M41.5874 6.97278H17.5271C16.7928 6.97278 16.199 7.56778 16.199 8.3009V13.1486C16.199 13.8817 16.7928 14.4767 17.5271 14.4767H37.1377" stroke="#43BE65" stroke-width="1.99219" stroke-miterlimit="10" stroke-linecap="round" stroke-linejoin="round"/>
<path d="M57.9546 17.363H45.5723C43.3717 17.363 41.5879 15.5791 41.5879 13.3787V0.996289" stroke="#43BE65" stroke-width="1.99219" stroke-miterlimit="10" stroke-linecap="round" stroke-linejoin="round"/>
<path d="M24.3005 30.2482H17.1287C16.6153 30.2482 16.199 29.8319 16.199 29.3185V22.1466C16.199 21.6332 16.6153 21.2169 17.1287 21.2169H24.3005C24.814 21.2169 25.2302 21.6332 25.2302 22.1466V29.3185C25.2302 29.8319 24.814 30.2482 24.3005 30.2482Z" stroke="#43BE65" stroke-width="1.99219" stroke-miterlimit="10" stroke-linecap="round" stroke-linejoin="round"/>
<path d="M24.3005 45.256H17.1287C16.6153 45.256 16.199 44.8397 16.199 44.3263V37.1544C16.199 36.641 16.6153 36.2247 17.1287 36.2247H24.3005C24.814 36.2247 25.2302 36.641 25.2302 37.1544V44.3263C25.2302 44.8397 24.814 45.256 24.3005 45.256Z" stroke="#43BE65" stroke-width="1.99219" stroke-miterlimit="10" stroke-linecap="round" stroke-linejoin="round"/>
<path d="M24.3005 60.2638H17.1287C16.6153 60.2638 16.199 59.8476 16.199 59.3341V52.1622C16.199 51.6488 16.6153 51.2325 17.1287 51.2325H24.3005C24.814 51.2325 25.2302 51.6488 25.2302 52.1622V59.3341C25.2302 59.8476 24.814 60.2638 24.3005 60.2638Z" stroke="#43BE65" stroke-width="1.99219" stroke-miterlimit="10" stroke-linecap="round" stroke-linejoin="round"/>
<path d="M31.2065 21.2168H51.2753" stroke="#43BE65" stroke-width="1.99219" stroke-miterlimit="10" stroke-linecap="round" stroke-linejoin="round"/>
<path d="M31.2065 25.2012H51.2753" stroke="#43BE65" stroke-width="1.99219" stroke-miterlimit="10" stroke-linecap="round" stroke-linejoin="round"/>
<path d="M31.2065 36.2247H51.2753" stroke="#43BE65" stroke-width="1.99219" stroke-miterlimit="10" stroke-linecap="round" stroke-linejoin="round"/>
<path d="M31.2065 40.2091H51.2753" stroke="#43BE65" stroke-width="1.99219" stroke-miterlimit="10" stroke-linecap="round" stroke-linejoin="round"/>
<path d="M31.2065 51.2325H51.2753" stroke="#43BE65" stroke-width="1.99219" stroke-miterlimit="10" stroke-linecap="round" stroke-linejoin="round"/>
<path d="M31.2065 55.2169H51.2753" stroke="#43BE65" stroke-width="1.99219" stroke-miterlimit="10" stroke-linecap="round" stroke-linejoin="round"/>
</g>
</svg>
