<svg width="56" height="64" viewBox="0 0 56 64" fill="none" xmlns="http://www.w3.org/2000/svg">
<path d="M53.4402 37.8937H51.9742V9.5475C51.973 8.46007 51.5404 7.41752 50.7715 6.64858C50.0026 5.87965 48.96 5.44712 47.8726 5.44589H42.3179V3.96596C42.3179 3.11068 41.9781 2.29044 41.3734 1.68567C40.7686 1.0809 39.9483 0.741144 39.0931 0.741144C38.2378 0.741144 37.4176 1.0809 36.8128 1.68567C36.208 2.29044 35.8683 3.11068 35.8683 3.96596V5.44589H29.5345V3.96596C29.5373 3.54069 29.456 3.11906 29.2952 2.72535C29.1344 2.33164 28.8973 1.97363 28.5976 1.67192C28.2979 1.37021 27.9414 1.13076 27.5488 0.967364C27.1561 0.803968 26.7351 0.719849 26.3098 0.719849C25.8845 0.719849 25.4634 0.803968 25.0708 0.967364C24.6781 1.13076 24.3217 1.37021 24.022 1.67192C23.7222 1.97363 23.4852 2.33164 23.3244 2.72535C23.1636 3.11906 23.0822 3.54069 23.085 3.96596V5.44589H16.7517V3.96596C16.7545 3.54069 16.6732 3.11906 16.5124 2.72535C16.3516 2.33164 16.1145 1.97363 15.8148 1.67192C15.515 1.37021 15.1586 1.13076 14.766 0.967364C14.3733 0.803968 13.9522 0.719849 13.527 0.719849C13.1017 0.719849 12.6806 0.803968 12.288 0.967364C11.8953 1.13076 11.5389 1.37021 11.2392 1.67192C10.9394 1.97363 10.7023 2.33164 10.5415 2.72535C10.3807 3.11906 10.2994 3.54069 10.3022 3.96596V5.44589H4.74753C3.66019 5.44727 2.61779 5.87986 1.84898 6.64878C1.08016 7.4177 0.647712 8.46016 0.646484 9.5475V52.6719C0.64775 53.7592 1.08027 54.8017 1.84917 55.5706C2.61807 56.3395 3.66056 56.7721 4.74795 56.7733H22.1036V60.2645C22.1045 61.0583 22.4203 61.8194 22.9816 62.3807C23.543 62.9421 24.3041 63.2578 25.0979 63.2587H51.0292C51.823 63.2578 52.5841 62.942 53.1454 62.3807C53.7067 61.8194 54.0224 61.0583 54.0232 60.2645V49.9818C54.7545 49.5223 55.353 48.9099 55.353 48.0906V39.6953C55.3533 38.702 54.495 37.8937 53.4402 37.8937ZM53.6892 39.6955V48.0799C53.6593 48.1555 53.1189 49.2417 46.9037 50.5674C43.4934 51.2949 39.7542 51.7998 38.1658 51.9758C36.8902 51.8333 33.1008 51.3309 29.416 50.5466C23.185 49.2205 22.4992 48.1891 22.438 48.0653V39.6955C22.438 39.6555 22.5253 39.5577 22.6871 39.5577H53.4402C53.6021 39.5577 53.6892 39.6555 53.6892 39.6955ZM47.7727 37.8937H46.0983V36.8155C46.0983 35.7196 45.1464 34.8281 43.9764 34.8281H31.6256C30.4555 34.8281 29.5036 35.7196 29.5036 36.8155V37.8937H27.8289V36.5754C27.8298 35.7405 28.1618 34.9401 28.7522 34.3497C29.3425 33.7594 30.1429 33.4273 30.9777 33.4263H44.6239C45.4587 33.4273 46.2591 33.7594 46.8494 34.3497C47.4398 34.9401 47.7718 35.7405 47.7727 36.5754V37.8937ZM44.4339 37.8937H31.1676V36.8155C31.1676 36.6628 31.3633 36.4921 31.6256 36.4921H43.976C44.2381 36.4921 44.4339 36.663 44.4339 36.8155V37.8937ZM26.1649 36.5754V37.8937H23.9008V34.2275C23.9015 34.1995 23.913 34.1728 23.9328 34.153C23.9526 34.1333 23.9793 34.1218 24.0072 34.1212H26.8403C26.3975 34.8632 26.1641 35.7113 26.1649 36.5754ZM37.5328 3.96596C37.5332 3.5521 37.6978 3.1553 37.9905 2.86266C38.2831 2.57002 38.6799 2.40543 39.0938 2.40502C39.5076 2.40543 39.9044 2.57002 40.1971 2.86266C40.4897 3.1553 40.6543 3.5521 40.6547 3.96596V8.12944C40.6547 8.54343 40.4903 8.94046 40.1975 9.23319C39.9048 9.52592 39.5078 9.69038 39.0938 9.69038C38.6798 9.69038 38.2828 9.52592 37.99 9.23319C37.6973 8.94046 37.5328 8.54343 37.5328 8.12944V3.96596ZM24.75 3.96596C24.7505 3.55211 24.9151 3.15534 25.2077 2.8627C25.5003 2.57006 25.8971 2.40547 26.311 2.40502C26.7248 2.40543 27.1216 2.57002 27.4143 2.86266C27.7069 3.1553 27.8715 3.5521 27.8719 3.96596V8.12944C27.8719 8.33443 27.8315 8.5374 27.7531 8.72679C27.6746 8.91617 27.5597 9.08824 27.4147 9.23319C27.2698 9.37814 27.0977 9.49312 26.9083 9.57156C26.7189 9.65 26.516 9.69038 26.311 9.69038C26.106 9.69038 25.903 9.65 25.7136 9.57156C25.5242 9.49312 25.3522 9.37814 25.2072 9.23319C25.0623 9.08824 24.9473 8.91617 24.8688 8.72679C24.7904 8.5374 24.75 8.33443 24.75 8.12944V3.96596ZM11.9672 3.96596C11.9677 3.55211 12.1323 3.15534 12.4249 2.8627C12.7175 2.57006 13.1143 2.40547 13.5282 2.40502C13.942 2.40543 14.3388 2.57002 14.6315 2.86266C14.9241 3.1553 15.0887 3.5521 15.0891 3.96596V8.12944C15.0891 8.54343 14.9246 8.94046 14.6319 9.23319C14.3392 9.52592 13.9421 9.69038 13.5282 9.69038C13.1142 9.69038 12.7171 9.52592 12.4244 9.23319C12.1317 8.94046 11.9672 8.54343 11.9672 8.12944V3.96596ZM4.74795 7.10935H10.3026V8.12902C10.2998 8.55429 10.3812 8.97592 10.542 9.36963C10.7028 9.76334 10.9399 10.1214 11.2396 10.4231C11.5393 10.7248 11.8957 10.9642 12.2884 11.1276C12.681 11.291 13.1021 11.3751 13.5274 11.3751C13.9527 11.3751 14.3737 11.291 14.7664 11.1276C15.159 10.9642 15.5155 10.7248 15.8152 10.4231C16.1149 10.1214 16.352 9.76334 16.5128 9.36963C16.6736 8.97592 16.7549 8.55429 16.7521 8.12902V7.10935H23.086V8.12902C23.0832 8.55429 23.1645 8.97592 23.3253 9.36963C23.4861 9.76334 23.7232 10.1214 24.023 10.4231C24.3227 10.7248 24.6791 10.9642 25.0718 11.1276C25.4644 11.291 25.8855 11.3751 26.3108 11.3751C26.736 11.3751 27.1571 11.291 27.5498 11.1276C27.9424 10.9642 28.2988 10.7248 28.5986 10.4231C28.8983 10.1214 29.1354 9.76334 29.2962 9.36963C29.457 8.97592 29.5383 8.55429 29.5355 8.12902V7.10935H35.8692V8.12902C35.8692 8.55251 35.9527 8.97185 36.1147 9.3631C36.2768 9.75435 36.5143 10.1099 36.8138 10.4093C37.1132 10.7088 37.4687 10.9463 37.86 11.1084C38.2512 11.2704 38.6706 11.3538 39.0941 11.3538C39.5175 11.3538 39.9369 11.2704 40.3281 11.1084C40.7194 10.9463 41.0749 10.7088 41.3743 10.4093C41.6738 10.1099 41.9113 9.75435 42.0734 9.3631C42.2355 8.97185 42.3189 8.55251 42.3189 8.12902V7.10935H47.8736C48.5198 7.11009 49.1394 7.36717 49.5964 7.82417C50.0534 8.28118 50.3104 8.9008 50.3111 9.54708V16.5802H2.3105V9.5475C2.3111 8.90117 2.56807 8.28147 3.02503 7.82437C3.48199 7.36728 4.10162 7.11013 4.74795 7.10935ZM4.74795 55.1092C4.10175 55.1084 3.48223 54.8514 3.02528 54.3945C2.56834 53.9376 2.31128 53.3181 2.3105 52.6719V18.2445H50.3102V37.8937H49.4367V36.5754C49.4353 35.2993 48.9278 34.076 48.0255 33.1737C47.1232 32.2715 45.8999 31.7639 44.6239 31.7625H30.9777C30.1 31.7613 29.2389 32.0016 28.4887 32.4571H24.0068C23.5374 32.4575 23.0873 32.6442 22.7554 32.9761C22.4234 33.308 22.2368 33.7581 22.2364 34.2275V37.9464C21.8306 38.0293 21.4649 38.2475 21.1992 38.5652C20.9335 38.883 20.7836 39.2815 20.7739 39.6955V48.0909C20.7739 48.65 21.0074 49.2663 22.1035 49.933V55.1101L4.74795 55.1092ZM51.0295 61.5944H25.0982C24.7455 61.594 24.4074 61.4537 24.158 61.2044C23.9086 60.955 23.7683 60.6169 23.7679 60.2642V50.7158C24.922 51.1558 26.5074 51.6144 28.6784 52.0895C32.6233 52.9531 36.7998 53.5014 38.0761 53.6399C38.1357 53.6465 38.1959 53.6465 38.2555 53.6399C39.8903 53.4626 43.9368 52.9189 47.5497 52.1303C49.5386 51.6963 51.1536 51.2417 52.3599 50.7775V60.2646C52.3595 60.6173 52.2192 60.9555 51.9698 61.2049C51.7204 61.4543 51.3822 61.5945 51.0295 61.5948V61.5944ZM38.0638 46.425C36.6399 46.425 35.4814 47.5025 35.4814 48.8266C35.4814 50.1507 36.6399 51.2283 38.0638 51.2283C39.4878 51.2283 40.6466 50.151 40.6466 48.8266C40.6466 47.5022 39.4877 46.4254 38.0636 46.4254L38.0638 46.425ZM38.0638 49.5645C37.5659 49.5645 37.1453 49.227 37.1453 48.8266C37.1453 48.4262 37.5659 48.089 38.0638 48.089C38.5618 48.089 38.9825 48.4265 38.9825 48.8266C38.9825 49.2267 38.5615 49.5649 38.0636 49.5649L38.0638 49.5645ZM16.0105 21.291H11.4036C10.9341 21.2913 10.484 21.478 10.152 21.81C9.82009 22.142 9.63346 22.5921 9.63312 23.0616V27.6687C9.6335 28.1382 9.82015 28.5883 10.1521 28.9202C10.484 29.2522 10.9341 29.4388 11.4036 29.4392H16.0105C16.4799 29.4388 16.93 29.2522 17.262 28.9202C17.5939 28.5883 17.7806 28.1382 17.7809 27.6687V23.0618C17.7807 22.5923 17.5941 22.1421 17.2621 21.8101C16.9302 21.478 16.48 21.2913 16.0105 21.291ZM16.1171 27.6687C16.1163 27.6968 16.1048 27.7234 16.085 27.7433C16.0652 27.7631 16.0385 27.7746 16.0105 27.7753H11.4036C11.3756 27.7746 11.3489 27.7631 11.3291 27.7433C11.3093 27.7234 11.2979 27.6967 11.2971 27.6687V23.0618C11.2978 23.0338 11.3092 23.0071 11.3291 22.9873C11.3489 22.9674 11.3756 22.956 11.4036 22.9553H16.0105C16.0385 22.956 16.0652 22.9674 16.0851 22.9873C16.1049 23.0071 16.1163 23.0338 16.1171 23.0618V27.6687ZM24.007 29.4392H28.6138C29.0833 29.4388 29.5334 29.2522 29.8653 28.9202C30.1973 28.5883 30.3839 28.1382 30.3843 27.6687V23.0618C30.384 22.5924 30.1973 22.1422 29.8654 21.8103C29.5334 21.4783 29.0833 21.2916 28.6138 21.2912H24.007C23.5375 21.2916 23.0873 21.4782 22.7553 21.8102C22.4233 22.1422 22.2367 22.5924 22.2364 23.0618V27.6687C22.2368 28.1381 22.4235 28.5882 22.7555 28.9201C23.0874 29.252 23.5375 29.4386 24.007 29.4389V29.4392ZM23.9004 23.0618C23.9011 23.0338 23.9125 23.0071 23.9324 22.9873C23.9522 22.9674 23.9789 22.956 24.007 22.9553H28.6138C28.6419 22.956 28.6686 22.9674 28.6884 22.9873C28.7083 23.0071 28.7197 23.0338 28.7204 23.0618V27.6687C28.7197 27.6968 28.7082 27.7234 28.6884 27.7433C28.6686 27.7631 28.6419 27.7746 28.6138 27.7753H24.007C23.9789 27.7746 23.9522 27.7631 23.9324 27.7433C23.9125 27.7235 23.9011 27.6968 23.9004 27.6687V23.0618ZM36.6103 29.4392H41.2171C41.6865 29.4389 42.1367 29.2522 42.4687 28.9203C42.8006 28.5883 42.9873 28.1382 42.9877 27.6687V23.0618C42.9873 22.5924 42.8007 22.1422 42.4687 21.8102C42.1367 21.4782 41.6866 21.2916 41.2171 21.2912H36.6103C36.1409 21.2916 35.6907 21.4782 35.3587 21.8102C35.0267 22.1422 34.8401 22.5924 34.8397 23.0618V27.6687C34.8402 28.1381 35.0269 28.5882 35.3588 28.9201C35.6908 29.252 36.1409 29.4386 36.6103 29.4389V29.4392ZM36.5037 23.0618C36.5045 23.0338 36.5159 23.0071 36.5358 22.9873C36.5556 22.9674 36.5823 22.956 36.6103 22.9553H41.2171C41.2451 22.9559 41.2719 22.9674 41.2917 22.9872C41.3116 23.0071 41.3231 23.0338 41.3238 23.0618V27.6687C41.3231 27.6968 41.3116 27.7235 41.2917 27.7433C41.2719 27.7632 41.2451 27.7746 41.2171 27.7753H36.6103C36.5823 27.7746 36.5556 27.7631 36.5358 27.7433C36.5159 27.7235 36.5045 27.6968 36.5037 27.6687V23.0618ZM16.0106 32.4571H11.4035C10.9341 32.4576 10.484 32.6442 10.1521 32.9761C9.82018 33.308 9.63353 33.7581 9.63312 34.2275V38.8344C9.63353 39.3037 9.82018 39.7538 10.1521 40.0857C10.484 40.4176 10.9341 40.6043 11.4035 40.6047H16.0106C16.48 40.6043 16.9301 40.4176 17.262 40.0857C17.5939 39.7538 17.7805 39.3037 17.7809 38.8344V34.2275C17.7805 33.7581 17.5939 33.308 17.262 32.9761C16.9301 32.6442 16.48 32.4576 16.0106 32.4571ZM16.1171 38.8344C16.1163 38.8624 16.1049 38.889 16.0851 38.9088C16.0653 38.9286 16.0386 38.9401 16.0106 38.9408H11.4035C11.3755 38.9401 11.3488 38.9286 11.329 38.9088C11.3092 38.889 11.2978 38.8623 11.2971 38.8344V34.2275C11.2978 34.1995 11.3092 34.1728 11.329 34.153C11.3488 34.1333 11.3755 34.1218 11.4035 34.1212H16.0106C16.0386 34.1219 16.0652 34.1333 16.085 34.1531C16.1049 34.1729 16.1163 34.1995 16.1171 34.2275V38.8344ZM16.0105 43.6229H11.4036C10.9341 43.6233 10.484 43.81 10.152 44.1419C9.82009 44.4739 9.63346 44.9241 9.63312 45.3935V50C9.6335 50.4694 9.82015 50.9195 10.1521 51.2515C10.484 51.5834 10.9341 51.7701 11.4036 51.7704H16.0105C16.4799 51.7701 16.93 51.5834 17.262 51.2515C17.5939 50.9195 17.7806 50.4694 17.7809 50V45.3938C17.7806 44.9243 17.594 44.4742 17.262 44.1422C16.9301 43.8102 16.4799 43.6236 16.0105 43.6232V43.6229ZM16.1171 50C16.1163 50.028 16.1049 50.0547 16.0851 50.0746C16.0652 50.0944 16.0385 50.1059 16.0105 50.1066H11.4036C11.3756 50.1059 11.3489 50.0944 11.3291 50.0746C11.3092 50.0547 11.2978 50.028 11.2971 50V45.3938C11.2978 45.3658 11.3092 45.3391 11.3291 45.3192C11.3489 45.2994 11.3756 45.2879 11.4036 45.2872H16.0105C16.0385 45.2879 16.0652 45.2994 16.0851 45.3192C16.1049 45.3391 16.1163 45.3658 16.1171 45.3938V50Z" fill="#C95D6A"/>
</svg>
