<?xml version="1.0" encoding="utf-8"?>
<!-- Generator: Adobe Illustrator 26.0.1, SVG Export Plug-In . SVG Version: 6.00 Build 0)  -->
<svg version="1.1" id="Layer_1" xmlns="http://www.w3.org/2000/svg" xmlns:xlink="http://www.w3.org/1999/xlink" x="0px" y="0px"
	 viewBox="0 0 90 90" style="enable-background:new 0 0 90 90;" xml:space="preserve">
<style type="text/css">
	.st0{fill:#010101;}
	.st1{fill:#7D8234;}
	.st2{fill:#62BB46;}
</style>
<rect x="35" y="62.15" class="st0" width="5.72" height="2.86"/>
<rect x="12.14" y="79.29" class="st0" width="2.86" height="2.86"/>
<rect x="52.14" y="79.29" class="st0" width="2.86" height="2.86"/>
<path class="st1" d="M33.57,87.86v-2.86H19.24c0.65-0.84,1.1-1.82,1.32-2.86h26.01c0.22,1.04,0.67,2.02,1.32,2.86H36.43v2.86h51.44
	v-2.86H59.25c0.65-0.84,1.1-1.82,1.32-2.86h1.57c2.37,0,4.29-1.92,4.29-4.29l0,0h4.29c3.94,0,7.14-3.2,7.14-7.14v-9.93h-2.86v9.93
	c0,2.37-1.92,4.29-4.29,4.29h-4.29V58.2l4-8.91h0.29c2.37,0,4.29,1.92,4.29,4.29v4.29h2.86v-4.29c-0.01-3.56-2.65-6.57-6.18-7.05
	l7.03-15.64c0.05-0.1,0.15-0.17,0.26-0.17h7.46c0.79,0,1.43-0.64,1.43-1.43v-5.72c0-0.79-0.64-1.43-1.43-1.43h-8.76
	c-2.18,0.01-4.17,1.27-5.1,3.24l-15.23,32.4L47.27,67.86h-0.84v-8.57h1.43c0.79,0,1.43-0.64,1.43-1.43v-5.72
	c0-0.79-0.64-1.43-1.43-1.43H25c-0.34,0-0.66,0.12-0.92,0.33l-8.57,7.19c-0.32,0.27-0.51,0.67-0.51,1.09v4.24
	c0,0.79,0.64,1.43,1.43,1.43h1.43v2.86h-1.43c-2.37,0-4.29,1.92-4.29,4.29v1.57c-3.32,0.68-5.71,3.61-5.72,7
	c0.01,1.55,0.52,3.06,1.47,4.29H2.14v2.86H33.57z M49.29,80.72c0-2.37,1.92-4.29,4.29-4.29c2.37,0,4.29,1.92,4.29,4.29
	c0,2.37-1.92,4.29-4.29,4.29C51.21,85.01,49.29,83.09,49.29,80.72z M75.16,26.59c0.46-0.97,1.44-1.59,2.52-1.6h7.33v2.86h-6.03
	c-1.24,0-2.36,0.73-2.87,1.86L64.82,54.83c-0.76-0.53-1.69-0.76-2.61-0.65L75.16,26.59z M17.85,60l7.66-6.43h20.91v2.86H30.71
	c-0.79,0-1.43,0.64-1.43,1.43v4.29H17.85V60z M20.71,65h10c0.79,0,1.43-0.64,1.43-1.43v-4.29h11.43v8.57H20.71V65z M16.42,70.72
	h31.43c0.38,0,0.74-0.15,1.01-0.42l13-13c0.31-0.3,0.76-0.38,1.16-0.21c0.33,0.12,0.55,0.43,0.55,0.78v20
	c0,0.79-0.64,1.43-1.43,1.43h-1.57c-0.79-3.87-4.56-6.36-8.42-5.58c-2.81,0.57-5.01,2.77-5.58,5.58h-26
	c-0.58-2.8-2.77-4.99-5.57-5.57v-1.57C14.99,71.36,15.63,70.72,16.42,70.72z M9.28,80.72c0-2.37,1.92-4.29,4.29-4.29
	s4.29,1.92,4.29,4.29c0,2.37-1.92,4.29-4.29,4.29S9.28,83.09,9.28,80.72z"/>
<path class="st2" d="M7.85,43.57v2.52l-1.28,2.56c-0.35,0.71-0.07,1.56,0.64,1.92s1.56,0.07,1.92-0.64l1.06-2.11
	c5.15-0.47,9.09-4.79,9.1-9.96V35c0-0.79-0.64-1.43-1.43-1.43C12.33,33.58,7.86,38.05,7.85,43.57z M16.42,37.86
	c0,3.39-2.39,6.32-5.72,7v-1.29c0-3.39,2.39-6.32,5.72-7V37.86z"/>
<path class="st2" d="M26.43,12.14v2.52l-1.28,2.56c-0.35,0.71-0.07,1.56,0.64,1.92c0.71,0.35,1.56,0.07,1.92-0.64l1.06-2.11
	c5.15-0.47,9.09-4.79,9.1-9.96V3.56c0-0.79-0.64-1.43-1.43-1.43C30.91,2.14,26.43,6.62,26.43,12.14z M35,6.42
	c0,3.39-2.39,6.32-5.72,7v-1.29c0-3.39,2.39-6.32,5.72-7V6.42z"/>
<path class="st2" d="M49.29,23.57c-0.79,0-1.43,0.64-1.43,1.43v2.86c0.01,5.17,3.95,9.48,9.1,9.96l1.06,2.11
	c0.35,0.71,1.21,0.99,1.92,0.64c0.71-0.35,0.99-1.21,0.64-1.92l0,0l-1.28-2.56v-2.52C59.28,28.05,54.81,23.57,49.29,23.57z
	 M56.43,34.86c-3.32-0.68-5.71-3.61-5.72-7v-1.29c3.32,0.68,5.71,3.61,5.72,7V34.86z"/>
</svg>
