<svg width="142" height="142" viewBox="0 0 142 142" fill="none" xmlns="http://www.w3.org/2000/svg">
<path d="M63.7031 99.0938H54.2656V103.812H63.7031V99.0938Z" fill="black"/>
<path d="M21.2344 127.406H16.5156V132.125H21.2344V127.406Z" fill="black"/>
<path d="M87.2969 127.406H82.5781V132.125H87.2969V127.406Z" fill="black"/>
<path d="M51.9062 141.562V136.844H28.2512C29.3237 135.455 30.0696 133.842 30.4336 132.125H73.3766C73.7406 133.842 74.4865 135.455 75.559 136.844H56.625V141.562H141.562V136.844H94.3137C95.3862 135.455 96.1321 133.842 96.4961 132.125H99.0938C100.971 132.125 102.771 131.379 104.099 130.052C105.426 128.724 106.172 126.924 106.172 125.047H113.25C116.378 125.043 119.376 123.799 121.588 121.588C123.799 119.376 125.043 116.378 125.047 113.25V96.8476H120.328V113.25C120.328 115.127 119.582 116.928 118.255 118.255C116.928 119.582 115.127 120.328 113.25 120.328H106.172V92.5772L112.778 77.8594H113.25C115.127 77.8594 116.928 78.6051 118.255 79.9325C119.582 81.2599 120.328 83.0603 120.328 84.9375V92.0156H125.047V84.9375C125.038 82.0914 124 79.3446 122.122 77.2053C120.245 75.0661 117.656 73.6791 114.836 73.3011L126.446 47.4683C126.483 47.3843 126.544 47.313 126.621 47.2631C126.698 47.2133 126.788 47.187 126.88 47.1875H139.203C139.829 47.1875 140.429 46.9389 140.871 46.4965C141.314 46.054 141.562 45.4539 141.562 44.8281V35.3906C141.562 34.7649 141.314 34.1648 140.871 33.7223C140.429 33.2798 139.829 33.0312 139.203 33.0312H124.743C122.976 33.036 121.247 33.5411 119.756 34.4882C118.265 35.4352 117.072 36.7854 116.317 38.3823L91.171 91.8835L74.5232 108.531H73.1406V94.375H75.5C76.1257 94.375 76.7259 94.1264 77.1683 93.684C77.6108 93.2415 77.8594 92.6414 77.8594 92.0156V82.5781C77.8594 81.9524 77.6108 81.3523 77.1683 80.9098C76.7259 80.4673 76.1257 80.2188 75.5 80.2188H37.75C37.1951 80.2187 36.658 80.4141 36.2329 80.7708L22.0767 92.6432C21.8129 92.8647 21.6007 93.1413 21.4552 93.4535C21.3097 93.7657 21.2343 94.106 21.2344 94.4505V101.453C21.2344 102.079 21.483 102.679 21.9254 103.121C22.3679 103.564 22.968 103.812 23.5938 103.812H25.9531V108.531H23.5938C21.7165 108.531 19.9162 109.277 18.5888 110.604C17.2614 111.932 16.5156 113.732 16.5156 115.609V118.205C13.8529 118.752 11.4603 120.201 9.74119 122.307C8.02209 124.413 7.08156 127.047 7.07812 129.766C7.0868 132.327 7.93739 134.814 9.49884 136.844H0V141.562H51.9062ZM77.8594 129.766C77.8594 128.366 78.2745 126.997 79.0523 125.833C79.83 124.669 80.9355 123.762 82.2288 123.226C83.5222 122.691 84.9454 122.55 86.3184 122.824C87.6914 123.097 88.9526 123.771 89.9425 124.761C90.9324 125.751 91.6065 127.012 91.8796 128.385C92.1527 129.758 92.0126 131.181 91.4768 132.474C90.9411 133.768 90.0339 134.873 88.8699 135.651C87.7059 136.429 86.3374 136.844 84.9375 136.844C83.0603 136.844 81.2599 136.098 79.9325 134.771C78.6051 133.443 77.8594 131.643 77.8594 129.766ZM120.588 40.3878C120.96 39.6003 121.548 38.9346 122.283 38.4677C123.019 38.0009 123.871 37.752 124.743 37.75H136.844V42.4688H126.88C125.879 42.47 124.9 42.76 124.059 43.3041C123.219 43.8481 122.553 44.6231 122.142 45.5359L103.503 87.009C102.244 86.1363 100.71 85.7529 99.1881 85.9308L120.588 40.3878ZM25.9531 95.5547L38.6088 84.9375H73.1406V89.6562H47.1875C46.5618 89.6562 45.9616 89.9048 45.5192 90.3473C45.0767 90.7898 44.8281 91.3899 44.8281 92.0156V99.0938H25.9531V95.5547ZM30.6719 103.812H47.1875C47.8132 103.812 48.4134 103.564 48.8558 103.121C49.2983 102.679 49.5469 102.079 49.5469 101.453V94.375H68.4219V108.531H30.6719V103.812ZM23.5938 113.25H75.5C76.1257 113.25 76.7257 113.001 77.1681 112.559L98.6384 91.0884C98.8862 90.8469 99.2 90.6844 99.5402 90.6214C99.8804 90.5584 100.232 90.5978 100.549 90.7345C100.815 90.8277 101.044 91.0011 101.206 91.2307C101.368 91.4603 101.454 91.7347 101.453 92.0156V125.047C101.453 125.673 101.205 126.273 100.762 126.715C100.32 127.158 99.7195 127.406 99.0938 127.406H96.4984C95.9569 124.739 94.5101 122.342 92.4032 120.62C90.2962 118.898 87.6587 117.957 84.9375 117.957C82.2163 117.957 79.5788 118.898 77.4718 120.62C75.3649 122.342 73.9181 124.739 73.3766 127.406H30.4359C29.969 125.141 28.8487 123.063 27.2134 121.427C25.5781 119.792 23.4994 118.672 21.2344 118.205V115.609C21.2344 114.984 21.483 114.384 21.9254 113.941C22.3679 113.499 22.968 113.25 23.5938 113.25ZM11.7969 129.766C11.7969 128.366 12.212 126.997 12.9898 125.833C13.7675 124.669 14.873 123.762 16.1663 123.226C17.4597 122.691 18.8829 122.55 20.2559 122.824C21.6289 123.097 22.8901 123.771 23.88 124.761C24.8699 125.751 25.544 127.012 25.8171 128.385C26.0902 129.758 25.9501 131.181 25.4143 132.474C24.8786 133.768 23.9714 134.873 22.8074 135.651C21.6434 136.429 20.2749 136.844 18.875 136.844C16.9978 136.844 15.1974 136.098 13.87 134.771C12.5426 133.443 11.7969 131.643 11.7969 129.766Z" fill="#7E8102"/>
<path d="M9.43653 68.4219V72.5838L7.32489 76.8047C7.04518 77.3648 6.99941 78.013 7.19763 78.6068C7.39586 79.2006 7.82185 79.6913 8.38189 79.971C8.94193 80.2507 9.59015 80.2965 10.1839 80.0983C10.7777 79.9 11.2685 79.4741 11.5482 78.914L13.2918 75.4245C17.3933 75.0477 21.2066 73.1534 23.9847 70.1125C26.7629 67.0717 28.3059 63.1032 28.3115 58.9844V54.2656C28.3115 53.6399 28.063 53.0398 27.6205 52.5973C27.178 52.1548 26.5779 51.9062 25.9522 51.9062C21.5735 51.9112 17.3756 53.6529 14.2794 56.7491C11.1832 59.8453 9.44153 64.0432 9.43653 68.4219ZM23.5928 58.9844C23.5898 61.703 22.6494 64.3374 20.9302 66.4434C19.2111 68.5494 16.8182 69.9981 14.1553 70.5453V68.4219C14.1583 65.7033 15.0986 63.0689 16.8178 60.9629C18.537 58.8569 20.9298 57.4081 23.5928 56.8609V58.9844Z" fill="#40DB26"/>
<path d="M40.1084 16.5156V20.6776L37.9968 24.8985C37.7171 25.4585 37.6713 26.1067 37.8695 26.7005C38.0677 27.2943 38.4937 27.7851 39.0538 28.0648C39.6138 28.3445 40.262 28.3902 40.8558 28.192C41.4496 27.9938 41.9403 27.5678 42.22 27.0078L43.9636 23.5183C48.0652 23.1415 51.8785 21.2472 54.6566 18.2063C57.4348 15.1654 58.9778 11.197 58.9834 7.07812V2.35938C58.9834 1.73363 58.7348 1.13351 58.2924 0.691045C57.8499 0.248576 57.2498 0 56.624 0C52.2453 0.00499565 48.0474 1.74663 44.9512 4.84283C41.855 7.93903 40.1134 12.1369 40.1084 16.5156ZM54.2647 7.07812C54.2617 9.79673 53.3213 12.4311 51.6021 14.5371C49.8829 16.6431 47.4901 18.0919 44.8272 18.6391V16.5156C44.8301 13.797 45.7705 11.1626 47.4897 9.05662C49.2089 6.95062 51.6017 5.50188 54.2647 4.95469V7.07812Z" fill="#40DB26"/>
<path d="M77.8594 35.3906C77.2336 35.3906 76.6335 35.6392 76.191 36.0817C75.7486 36.5241 75.5 37.1243 75.5 37.75V42.4688C75.5057 46.5876 77.0486 50.556 79.8268 53.5969C82.605 56.6378 86.4182 58.5321 90.5198 58.9089L92.2634 62.3984C92.4019 62.6757 92.5936 62.923 92.8277 63.1262C93.0618 63.3294 93.3336 63.4845 93.6276 63.5826C93.9216 63.6808 94.2321 63.7201 94.5413 63.6982C94.8505 63.6764 95.1523 63.5939 95.4296 63.4554C95.7069 63.3169 95.9542 63.1251 96.1574 62.8911C96.3606 62.657 96.5157 62.3852 96.6139 62.0912C96.712 61.7971 96.7513 61.4867 96.7295 61.1775C96.7077 60.8683 96.6251 60.5664 96.4866 60.2891L94.375 56.0682V51.9062C94.37 47.5276 92.6284 43.3297 89.5322 40.2335C86.436 37.1373 82.2381 35.3956 77.8594 35.3906ZM89.6562 54.0297C86.9933 53.4825 84.6005 52.0338 82.8813 49.9278C81.1621 47.8218 80.2217 45.1874 80.2187 42.4688V40.3453C82.8817 40.8925 85.2745 42.3412 86.9937 44.4472C88.7129 46.5532 89.6533 49.1876 89.6562 51.9062V54.0297Z" fill="#40DB26"/>
</svg>
