<svg width="76" height="77" viewBox="0 0 76 77" fill="none" xmlns="http://www.w3.org/2000/svg">
<g clip-path="url(#clip0_383_13436)">
<g clip-path="url(#clip1_383_13436)">
<g clip-path="url(#clip2_383_13436)">
<path d="M75.8439 38.1837C75.8439 17.2861 58.9031 0.345215 38.0055 0.345215C17.1078 0.345215 0.166992 17.2861 0.166992 38.1837C0.166992 59.0813 17.1078 76.0221 38.0055 76.0221C58.9031 76.0221 75.8439 59.0813 75.8439 38.1837Z" fill="#C22032"/>
<path d="M33.0285 37.968C33.0285 35.2714 32.8494 32.5583 33.0764 29.8781C33.3249 26.9116 35.285 25.982 37.7659 27.6683C41.5737 30.2514 45.2693 33.0124 48.927 35.8074C50.8731 37.2919 50.8618 39.0602 48.8816 40.5473C45.1103 43.3801 41.3303 46.2092 37.4367 48.8718C35.3316 50.3109 33.364 49.3548 33.1408 46.7351C32.8885 43.8342 33.084 40.8954 33.084 37.9743H33.0273L33.0285 37.968Z" fill="white"/>
</g>
</g>
</g>
<rect x="1.88692" y="2.06514" width="72.2371" height="72.2371" rx="36.1185" stroke="white" stroke-width="3.43986"/>
<defs>
<clipPath id="clip0_383_13436">
<rect x="0.166992" y="0.345215" width="75.6769" height="75.6769" rx="37.8385" fill="white"/>
</clipPath>
<clipPath id="clip1_383_13436">
<rect width="75.6769" height="75.6769" fill="white" transform="translate(0.166992 0.345215)"/>
</clipPath>
<clipPath id="clip2_383_13436">
<rect width="75.6769" height="75.6769" fill="white" transform="translate(0.166992 0.345215)"/>
</clipPath>
</defs>
</svg>
