<?xml version="1.0" encoding="utf-8"?>
<!-- Generator: Adobe Illustrator 26.0.1, SVG Export Plug-In . SVG Version: 6.00 Build 0)  -->
<svg version="1.1" id="Layer_1" xmlns="http://www.w3.org/2000/svg" xmlns:xlink="http://www.w3.org/1999/xlink" x="0px" y="0px"
	 width="70" height="70" viewBox="0 0 70 70" style="enable-background:new 0 0 70 70;" xml:space="preserve">
<style type="text/css">
	.st0{fill:none;stroke:#692B86;stroke-width:1.5;}
	.st1{fill:none;stroke:#692B86;stroke-width:1.5;stroke-linecap:round;}
</style>
<g>
	<path class="st0" d="M42.6,25.3c0,4.1-3.6,7.6-8.1,7.6s-8.1-3.5-8.1-7.6c0-4.1,3.6-7.6,8.1-7.6S42.6,21.2,42.6,25.3z"/>
	<circle class="st0" cx="52.7" cy="32.6" r="4.7"/>
	<path class="st1" d="M49.6,52.3v-5.2c0-5.2-4.2-9.4-9.4-9.4h-9.4c-5.2,0-9.4,4.2-9.4,9.4v5.2"/>
	<path class="st1" d="M64.1,52.3v-3.5c0-3.8-3.1-6.9-6.9-6.9h-3.5"/>
	<path class="st0" d="M11.6,32.6c0,2.5,2.2,4.7,5.2,4.7c3,0,5.2-2.2,5.2-4.7s-2.2-4.7-5.2-4.7C13.8,27.9,11.6,30.1,11.6,32.6z"/>
	<path class="st1" d="M5.9,52.3v-3.5c0-3.8,3.1-6.9,6.9-6.9h3.5"/>
</g>
</svg>
