<svg width="80" height="65" viewBox="0 0 80 65" fill="none" xmlns="http://www.w3.org/2000/svg">
<path d="M75.5001 2.16634H73.9318C73.6591 1.53507 73.1543 0.988104 72.4866 0.600314C71.8189 0.212524 71.0209 0.00285426 70.2018 0H45.0351C44.007 0 42.9929 0.195659 42.0733 0.571481C41.1537 0.947304 40.3538 1.49297 39.7369 2.16526C39.12 1.49297 38.3201 0.947304 37.4005 0.571481C36.4808 0.195659 35.4668 0 34.4386 0H9.27194C8.45302 0.00277474 7.65514 0.212286 6.98747 0.599872C6.3198 0.987457 5.81494 1.53419 5.54197 2.16526H3.97369C2.9198 2.16526 1.90908 2.50745 1.16387 3.11654C0.418655 3.72564 0 4.55175 0 5.41315L0 57.3859C0 58.2473 0.418655 59.0734 1.16387 59.6825C1.90908 60.2916 2.9198 60.6338 3.97369 60.6338H33.2465C33.5505 61.8574 34.3628 62.9576 35.5456 63.7478C36.7285 64.538 38.2092 64.9697 39.7369 64.9697C41.2646 64.9697 42.7453 64.538 43.9282 63.7478C45.111 62.9576 45.9232 61.8574 46.2273 60.6338H75.5001C76.554 60.6338 77.5647 60.2916 78.3099 59.6825C79.0551 59.0734 79.4738 58.2473 79.4738 57.3859V5.41964C79.4747 4.99267 79.3725 4.56975 79.1732 4.17507C78.9739 3.78039 78.6813 3.42171 78.3123 3.11954C77.9432 2.81737 77.5048 2.57765 77.0223 2.41409C76.5397 2.25053 76.0225 2.16634 75.5001 2.16634ZM45.0351 2.16634H70.2018C70.5531 2.16634 70.89 2.2804 71.1385 2.48344C71.3869 2.68647 71.5264 2.96184 71.5264 3.24897V53.0553C71.5264 53.3425 71.3869 53.6178 71.1385 53.8209C70.89 54.0239 70.5531 54.138 70.2018 54.138H45.0351C43.5998 54.1391 42.2043 54.5239 41.0615 55.2336V5.41423C41.0615 4.55284 41.4801 3.72672 42.2253 3.11763C42.9705 2.50853 43.9813 2.16634 45.0351 2.16634ZM7.94738 3.24897C7.94738 2.96184 8.08693 2.68647 8.33533 2.48344C8.58374 2.2804 8.92064 2.16634 9.27194 2.16634H34.4386C35.4925 2.16634 36.5033 2.50853 37.2485 3.11763C37.9937 3.72672 38.4123 4.55284 38.4123 5.41423V55.2336C37.2694 54.5239 35.874 54.1391 34.4386 54.138H9.27194C8.92064 54.138 8.58374 54.0239 8.33533 53.8209C8.08693 53.6178 7.94738 53.3425 7.94738 53.0553V3.24897ZM76.8247 57.3859C76.8247 57.673 76.6851 57.9484 76.4367 58.1514C76.1883 58.3544 75.8514 58.4685 75.5001 58.4685H45.0351C44.6838 58.4685 44.3469 58.5826 44.0985 58.7856C43.8501 58.9886 43.7106 59.264 43.7106 59.5511C43.7106 60.4125 43.2919 61.2386 42.5467 61.8477C41.8015 62.4568 40.7908 62.799 39.7369 62.799C38.683 62.799 37.6723 62.4568 36.9271 61.8477C36.1819 61.2386 35.7632 60.4125 35.7632 59.5511C35.7632 59.264 35.6236 58.9886 35.3752 58.7856C35.1268 58.5826 34.7899 58.4685 34.4386 58.4685H3.97369C3.62239 58.4685 3.28549 58.3544 3.03708 58.1514C2.78868 57.9484 2.64913 57.673 2.64913 57.3859V5.41964C2.64913 5.13251 2.78868 4.85714 3.03708 4.65411C3.28549 4.45108 3.62239 4.33701 3.97369 4.33701H5.29825V53.0553C5.29825 53.9167 5.71691 54.7429 6.46212 55.352C7.20733 55.961 8.21805 56.3032 9.27194 56.3032H34.4386C35.4925 56.3032 36.5033 56.6454 37.2485 57.2545C37.9937 57.8636 38.4123 58.6897 38.4123 59.5511C38.4123 59.8383 38.5519 60.1136 38.8003 60.3167C39.0487 60.5197 39.3856 60.6338 39.7369 60.6338C40.0882 60.6338 40.4251 60.5197 40.6735 60.3167C40.9219 60.1136 41.0615 59.8383 41.0615 59.5511C41.0615 58.6897 41.4801 57.8636 42.2253 57.2545C42.9705 56.6454 43.9813 56.3032 45.0351 56.3032H70.2018C71.2557 56.3032 72.2664 55.961 73.0117 55.352C73.7569 54.7429 74.1755 53.9167 74.1755 53.0553V4.33701H75.5001C75.8514 4.33701 76.1883 4.45108 76.4367 4.65411C76.6851 4.85714 76.8247 5.13251 76.8247 5.41964V57.3859Z" fill="#FE6A6A"/>
<path d="M45.0375 35.7326H67.555C67.9063 35.7326 68.2432 35.6186 68.4916 35.4155C68.74 35.2125 68.8796 34.9371 68.8796 34.65C68.8796 34.3629 68.74 34.0875 68.4916 33.8845C68.2432 33.6814 67.9063 33.5674 67.555 33.5674H45.0375C44.6862 33.5674 44.3492 33.6814 44.1008 33.8845C43.8524 34.0875 43.7129 34.3629 43.7129 34.65C43.7129 34.9371 43.8524 35.2125 44.1008 35.4155C44.3492 35.6186 44.6862 35.7326 45.0375 35.7326Z" fill="#FE6A6A"/>
<path d="M60.9262 14.0771H51.6543C51.303 14.0771 50.9661 14.1912 50.7177 14.3942C50.4693 14.5973 50.3297 14.8726 50.3297 15.1598C50.3297 15.4469 50.4693 15.7223 50.7177 15.9253C50.9661 16.1283 51.303 16.2424 51.6543 16.2424H60.9262C61.2775 16.2424 61.6144 16.1283 61.8628 15.9253C62.1112 15.7223 62.2508 15.4469 62.2508 15.1598C62.2508 14.8726 62.1112 14.5973 61.8628 14.3942C61.6144 14.1912 61.2775 14.0771 60.9262 14.0771Z" fill="#FE6A6A"/>
<path d="M45.0375 16.2424H46.362C46.7133 16.2424 47.0502 16.1283 47.2986 15.9253C47.547 15.7223 47.6866 15.4469 47.6866 15.1598C47.6866 14.8726 47.547 14.5973 47.2986 14.3942C47.0502 14.1912 46.7133 14.0771 46.362 14.0771H45.0375C44.6862 14.0771 44.3492 14.1912 44.1008 14.3942C43.8524 14.5973 43.7129 14.8726 43.7129 15.1598C43.7129 15.4469 43.8524 15.7223 44.1008 15.9253C44.3492 16.1283 44.6862 16.2424 45.0375 16.2424Z" fill="#FE6A6A"/>
<path d="M60.9262 20.5728H51.6543C51.303 20.5728 50.9661 20.6868 50.7177 20.8899C50.4693 21.0929 50.3297 21.3683 50.3297 21.6554C50.3297 21.9425 50.4693 22.2179 50.7177 22.4209C50.9661 22.624 51.303 22.738 51.6543 22.738H60.9262C61.2775 22.738 61.6144 22.624 61.8628 22.4209C62.1112 22.2179 62.2508 21.9425 62.2508 21.6554C62.2508 21.3683 62.1112 21.0929 61.8628 20.8899C61.6144 20.6868 61.2775 20.5728 60.9262 20.5728Z" fill="#FE6A6A"/>
<path d="M45.0375 22.739H46.362C46.7133 22.739 47.0502 22.6249 47.2986 22.4219C47.547 22.2189 47.6866 21.9435 47.6866 21.6564C47.6866 21.3692 47.547 21.0939 47.2986 20.8908C47.0502 20.6878 46.7133 20.5737 46.362 20.5737H45.0375C44.6862 20.5737 44.3492 20.6878 44.1008 20.8908C43.8524 21.0939 43.7129 21.3692 43.7129 21.6564C43.7129 21.9435 43.8524 22.2189 44.1008 22.4219C44.3492 22.6249 44.6862 22.739 45.0375 22.739Z" fill="#FE6A6A"/>
<path d="M60.9262 27.0698H51.6543C51.303 27.0698 50.9661 27.1839 50.7177 27.3869C50.4693 27.59 50.3297 27.8653 50.3297 28.1525C50.3297 28.4396 50.4693 28.715 50.7177 28.918C50.9661 29.121 51.303 29.2351 51.6543 29.2351H60.9262C61.2775 29.2351 61.6144 29.121 61.8628 28.918C62.1112 28.715 62.2508 28.4396 62.2508 28.1525C62.2508 27.8653 62.1112 27.59 61.8628 27.3869C61.6144 27.1839 61.2775 27.0698 60.9262 27.0698Z" fill="#FE6A6A"/>
<path d="M45.0375 29.2351H46.362C46.7133 29.2351 47.0502 29.121 47.2986 28.918C47.547 28.715 47.6866 28.4396 47.6866 28.1525C47.6866 27.8653 47.547 27.59 47.2986 27.3869C47.0502 27.1839 46.7133 27.0698 46.362 27.0698H45.0375C44.6862 27.0698 44.3492 27.1839 44.1008 27.3869C43.8524 27.59 43.7129 27.8653 43.7129 28.1525C43.7129 28.4396 43.8524 28.715 44.1008 28.918C44.3492 29.121 44.6862 29.2351 45.0375 29.2351Z" fill="#FE6A6A"/>
<path d="M60.9262 40.062H51.6543C51.303 40.062 50.9661 40.1761 50.7177 40.3791C50.4693 40.5821 50.3297 40.8575 50.3297 41.1446C50.3297 41.4318 50.4693 41.7071 50.7177 41.9102C50.9661 42.1132 51.303 42.2273 51.6543 42.2273H60.9262C61.2775 42.2273 61.6144 42.1132 61.8628 41.9102C62.1112 41.7071 62.2508 41.4318 62.2508 41.1446C62.2508 40.8575 62.1112 40.5821 61.8628 40.3791C61.6144 40.1761 61.2775 40.062 60.9262 40.062Z" fill="#FE6A6A"/>
<path d="M45.0375 42.2292H46.362C46.7133 42.2292 47.0502 42.1152 47.2986 41.9121C47.547 41.7091 47.6866 41.4337 47.6866 41.1466C47.6866 40.8595 47.547 40.5841 47.2986 40.3811C47.0502 40.178 46.7133 40.064 46.362 40.064H45.0375C44.6862 40.064 44.3492 40.178 44.1008 40.3811C43.8524 40.5841 43.7129 40.8595 43.7129 41.1466C43.7129 41.4337 43.8524 41.7091 44.1008 41.9121C44.3492 42.1152 44.6862 42.2292 45.0375 42.2292Z" fill="#FE6A6A"/>
<path d="M60.9262 46.5581H51.6543C51.303 46.5581 50.9661 46.6722 50.7177 46.8752C50.4693 47.0782 50.3297 47.3536 50.3297 47.6407C50.3297 47.9279 50.4693 48.2032 50.7177 48.4063C50.9661 48.6093 51.303 48.7234 51.6543 48.7234H60.9262C61.2775 48.7234 61.6144 48.6093 61.8628 48.4063C62.1112 48.2032 62.2508 47.9279 62.2508 47.6407C62.2508 47.3536 62.1112 47.0782 61.8628 46.8752C61.6144 46.6722 61.2775 46.5581 60.9262 46.5581Z" fill="#FE6A6A"/>
<path d="M45.0375 48.7234H46.362C46.7133 48.7234 47.0502 48.6093 47.2986 48.4063C47.547 48.2032 47.6866 47.9279 47.6866 47.6407C47.6866 47.3536 47.547 47.0782 47.2986 46.8752C47.0502 46.6722 46.7133 46.5581 46.362 46.5581H45.0375C44.6862 46.5581 44.3492 46.6722 44.1008 46.8752C43.8524 47.0782 43.7129 47.3536 43.7129 47.6407C43.7129 47.9279 43.8524 48.2032 44.1008 48.4063C44.3492 48.6093 44.6862 48.7234 45.0375 48.7234Z" fill="#FE6A6A"/>
<path d="M11.9195 35.7326H34.4371C34.7884 35.7326 35.1253 35.6186 35.3737 35.4155C35.6221 35.2125 35.7617 34.9371 35.7617 34.65C35.7617 34.3629 35.6221 34.0875 35.3737 33.8845C35.1253 33.6814 34.7884 33.5674 34.4371 33.5674H11.9195C11.5682 33.5674 11.2313 33.6814 10.9829 33.8845C10.7345 34.0875 10.595 34.3629 10.595 34.65C10.595 34.9371 10.7345 35.2125 10.9829 35.4155C11.2313 35.6186 11.5682 35.7326 11.9195 35.7326Z" fill="#FE6A6A"/>
<path d="M27.8178 40.062H18.5459C18.1946 40.062 17.8577 40.1761 17.6093 40.3791C17.3609 40.5821 17.2213 40.8575 17.2213 41.1446C17.2213 41.4318 17.3609 41.7071 17.6093 41.9102C17.8577 42.1132 18.1946 42.2273 18.5459 42.2273H27.8178C28.1691 42.2273 28.506 42.1132 28.7544 41.9102C29.0028 41.7071 29.1424 41.4318 29.1424 41.1446C29.1424 40.8575 29.0028 40.5821 28.7544 40.3791C28.506 40.1761 28.1691 40.062 27.8178 40.062Z" fill="#FE6A6A"/>
<path d="M11.9195 42.2292H13.2441C13.5954 42.2292 13.9323 42.1152 14.1807 41.9121C14.4291 41.7091 14.5687 41.4337 14.5687 41.1466C14.5687 40.8595 14.4291 40.5841 14.1807 40.3811C13.9323 40.178 13.5954 40.064 13.2441 40.064H11.9195C11.5682 40.064 11.2313 40.178 10.9829 40.3811C10.7345 40.5841 10.595 40.8595 10.595 41.1466C10.595 41.4337 10.7345 41.7091 10.9829 41.9121C11.2313 42.1152 11.5682 42.2292 11.9195 42.2292Z" fill="#FE6A6A"/>
<path d="M27.8178 46.5581H18.5459C18.1946 46.5581 17.8577 46.6722 17.6093 46.8752C17.3609 47.0782 17.2213 47.3536 17.2213 47.6407C17.2213 47.9279 17.3609 48.2032 17.6093 48.4063C17.8577 48.6093 18.1946 48.7234 18.5459 48.7234H27.8178C28.1691 48.7234 28.506 48.6093 28.7544 48.4063C29.0028 48.2032 29.1424 47.9279 29.1424 47.6407C29.1424 47.3536 29.0028 47.0782 28.7544 46.8752C28.506 46.6722 28.1691 46.5581 27.8178 46.5581Z" fill="#FE6A6A"/>
<path d="M11.9195 48.7234H13.2441C13.5954 48.7234 13.9323 48.6093 14.1807 48.4063C14.4291 48.2032 14.5687 47.9279 14.5687 47.6407C14.5687 47.3536 14.4291 47.0782 14.1807 46.8752C13.9323 46.6722 13.5954 46.5581 13.2441 46.5581H11.9195C11.5682 46.5581 11.2313 46.6722 10.9829 46.8752C10.7345 47.0782 10.595 47.3536 10.595 47.6407C10.595 47.9279 10.7345 48.2032 10.9829 48.4063C11.2313 48.6093 11.5682 48.7234 11.9195 48.7234Z" fill="#FE6A6A"/>
<path d="M45.0375 9.74631H67.555C67.9063 9.74631 68.2432 9.63225 68.4916 9.42922C68.74 9.22619 68.8796 8.95082 68.8796 8.66368C68.8796 8.37655 68.74 8.10118 68.4916 7.89815C68.2432 7.69512 67.9063 7.58105 67.555 7.58105H45.0375C44.6862 7.58105 44.3492 7.69512 44.1008 7.89815C43.8524 8.10118 43.7129 8.37655 43.7129 8.66368C43.7129 8.95082 43.8524 9.22619 44.1008 9.42922C44.3492 9.63225 44.6862 9.74631 45.0375 9.74631Z" fill="#FE6A6A"/>
<path d="M17.5307 16.0548C17.5307 15.6234 17.9572 15.2749 18.485 15.2749H26.1188C26.6466 15.2749 27.073 15.6234 27.073 16.0548C27.073 16.4862 26.6466 16.8348 26.1188 16.8348H24.4429C24.7292 17.1857 24.9409 17.5806 25.0602 18.0047H26.1188C26.6466 18.0047 27.073 18.3532 27.073 18.7846C27.073 19.216 26.6466 19.5645 26.1188 19.5645H25.0572C24.6636 20.9855 23.2114 22.0798 21.4132 22.2675L25.7192 24.7804C26.1486 25.0314 26.247 25.5189 25.9399 25.8674C25.6327 26.2159 25.0363 26.2988 24.6099 26.0478L17.9303 22.1481C17.5934 21.9531 17.4502 21.5997 17.5755 21.2755C17.7007 20.9514 18.0705 20.7344 18.485 20.7344H20.8705C21.8486 20.7344 22.6895 20.2543 23.0563 19.5645H18.485C17.9572 19.5645 17.5307 19.216 17.5307 18.7846C17.5307 18.3532 17.9572 18.0047 18.485 18.0047H23.0563C22.6895 17.3149 21.8486 16.8348 20.8705 16.8348H18.485C17.9572 16.8348 17.5307 16.4862 17.5307 16.0548Z" fill="#FE6A6A"/>
</svg>
