<?xml version="1.0" encoding="utf-8"?>
<!-- Generator: Adobe Illustrator 26.0.1, SVG Export Plug-In . SVG Version: 6.00 Build 0)  -->
<svg version="1.1" id="Layer_1" xmlns="http://www.w3.org/2000/svg" xmlns:xlink="http://www.w3.org/1999/xlink" x="0px" y="0px"
	 width="70" height="70" viewBox="0 0 70 70" style="enable-background:new 0 0 70 70;" xml:space="preserve">
<style type="text/css">
	.st0{fill:#F26B6C;}
	.st1{fill:none;stroke:#F26B6C;stroke-width:1.5;stroke-miterlimit:10;}
	.st2{fill:none;stroke:#F26B6C;stroke-width:1.5;stroke-linecap:round;stroke-miterlimit:10;}
</style>
<g>
	<path class="st0" d="M16.3,21.2c0-0.4,0.4-0.7,0.8-0.7h6.4c0.4,0,0.8,0.3,0.8,0.7c0,0.4-0.4,0.7-0.8,0.7h-1.4
		c0.2,0.3,0.4,0.6,0.5,1h0.9c0.4,0,0.8,0.3,0.8,0.7c0,0.4-0.4,0.7-0.8,0.7h-0.9c-0.3,1.2-1.5,2.1-3.1,2.3l3.6,2.1
		c0.4,0.2,0.4,0.6,0.2,0.9c-0.3,0.3-0.8,0.4-1.1,0.2l-5.6-3.3c-0.3-0.2-0.4-0.5-0.3-0.7c0.1-0.3,0.4-0.5,0.8-0.5h2
		c0.8,0,1.5-0.4,1.8-1h-3.8c-0.4,0-0.8-0.3-0.8-0.7c0-0.4,0.4-0.7,0.8-0.7h3.8c-0.3-0.6-1-1-1.8-1h-2C16.7,21.9,16.3,21.6,16.3,21.2
		z"/>
	<path class="st1" d="M34.7,57.5l-1.6-1.9c-0.7-0.8-1.6-1.2-2.7-1.2l-20.2,0.1c-1.3,0-2.4-1.1-2.4-2.4V11c0-1.3,1.1-2.4,2.4-2.4H31
		c2.2,0,3.9,1.8,3.9,3.9v44.9C34.9,57.5,34.8,57.6,34.7,57.5z"/>
	<path class="st1" d="M35.2,57.5l1.6-1.9c0.7-0.8,1.6-1.2,2.7-1.2l20.2,0.1c1.3,0,2.4-1.1,2.4-2.4V11c0-1.3-1.1-2.4-2.4-2.4H38.9
		c-2.2,0-3.9,1.8-3.9,3.9v44.9C34.9,57.5,35.1,57.6,35.2,57.5z"/>
	<path class="st1" d="M61.8,10.6h3.8c1.1,0,1.9,0.9,1.9,1.9v42.4c0,1.8-1.4,3.2-3.2,3.2l-23.1,0c-0.6,0-1.1,0.3-1.5,0.8
		c-1,1.6-2.8,2.6-4.8,2.6c-2,0-3.8-1-4.8-2.6c-0.3-0.5-0.9-0.8-1.5-0.8h-23c-1.8,0-3.2-1.4-3.2-3.2V12.5c0-1.1,0.9-1.9,1.9-1.9h3.1"
		/>
	<line class="st2" x1="39.1" y1="14.9" x2="58.4" y2="14.9"/>
	<line class="st2" x1="39.1" y1="36.8" x2="58.4" y2="36.8"/>
	<line class="st2" x1="39.1" y1="42.2" x2="41" y2="42.2"/>
	<line class="st2" x1="39.1" y1="47.8" x2="41" y2="47.8"/>
	<line class="st2" x1="44.6" y1="42.2" x2="53.1" y2="42.2"/>
	<line class="st2" x1="39.1" y1="31.3" x2="41" y2="31.3"/>
	<line class="st2" x1="44.6" y1="31.3" x2="53.1" y2="31.3"/>
	<line class="st2" x1="39.1" y1="25.8" x2="41" y2="25.8"/>
	<line class="st2" x1="44.6" y1="25.8" x2="53.1" y2="25.8"/>
	<line class="st2" x1="39.1" y1="20.3" x2="41" y2="20.3"/>
	<line class="st2" x1="44.6" y1="20.3" x2="53.1" y2="20.3"/>
	<line class="st2" x1="44.6" y1="47.8" x2="53.1" y2="47.8"/>
	<line class="st2" x1="11.4" y1="36.8" x2="30.6" y2="36.8"/>
	<line class="st2" x1="11.4" y1="42.2" x2="13.3" y2="42.2"/>
	<line class="st2" x1="11.4" y1="47.8" x2="13.3" y2="47.8"/>
	<line class="st2" x1="16.9" y1="42.2" x2="25.4" y2="42.2"/>
	<line class="st2" x1="16.9" y1="47.8" x2="25.4" y2="47.8"/>
</g>
</svg>
