<?xml version="1.0" encoding="utf-8"?>
<!-- Generator: Adobe Illustrator 26.0.1, SVG Export Plug-In . SVG Version: 6.00 Build 0)  -->
<svg version="1.1" id="Layer_1" xmlns="http://www.w3.org/2000/svg" xmlns:xlink="http://www.w3.org/1999/xlink" x="0px" y="0px"
	 viewBox="0 0 90 90" style="enable-background:new 0 0 90 90;" xml:space="preserve">
<style type="text/css">
	.st0{clip-path:url(#XMLID_00000116955436777624937610000013590117104086932638_);fill:#972323;}
	.st1{fill:#972323;}
</style>
<g>
	<defs>
		<path id="XMLID_00000104670614728152228580000007792996438759546752_" d="M84.1,1.26H6.03c-0.72,0-1.3,0.58-1.3,1.3v85.06
			c0,0.72,0.58,1.3,1.3,1.3H84.1c0.72,0,1.3-0.58,1.3-1.3V2.56C85.4,1.84,84.82,1.26,84.1,1.26z M64.58,26.35v59.97H46.37V26.35
			H64.58z M64.58,23.76H25.55v-4.04h39.03V23.76z M25.55,26.35h18.22v59.97H25.55V26.35z M82.8,86.32H67.19v-67.9
			c0-0.72-0.58-1.3-1.3-1.3H24.25c-0.72,0-1.3,0.58-1.3,1.3v67.9H7.34V3.86H82.8V86.32z"/>
	</defs>
	<use xlink:href="#XMLID_00000104670614728152228580000007792996438759546752_"  style="overflow:visible;fill:#818181;"/>
	<clipPath id="XMLID_00000154392342816871157570000003793235145594812330_">
		<use xlink:href="#XMLID_00000104670614728152228580000007792996438759546752_"  style="overflow:visible;"/>
	</clipPath>
	
		<rect x="20.24" y="14.82" style="clip-path:url(#XMLID_00000154392342816871157570000003793235145594812330_);fill:#972323;" width="48.86" height="71.51"/>
</g>
<ellipse cx="37.75" cy="9.02" rx="2.6" ry="2.59"/>
<ellipse cx="53.36" cy="9.02" rx="2.6" ry="2.59"/>
<path class="st1" d="M71.58,44.38h7.81c0.72,0,1.3-0.57,1.31-1.29c0-0.2-0.05-0.4-0.14-0.59l-3.9-7.76
	c-0.38-0.64-1.22-0.85-1.86-0.47c-0.19,0.11-0.35,0.28-0.47,0.47l-3.9,7.76c-0.32,0.64-0.06,1.42,0.58,1.74
	C71.18,44.34,71.38,44.38,71.58,44.38z M75.48,38.22l1.8,3.57h-3.6L75.48,38.22z"/>
<path class="st1" d="M74.32,56.6c0.32,0.64,1.1,0.9,1.74,0.58c0.25-0.13,0.46-0.33,0.58-0.58l3.9-7.76
	c0.32-0.64,0.06-1.42-0.58-1.74c-0.18-0.09-0.38-0.14-0.58-0.14h-7.81c-0.72,0-1.3,0.57-1.31,1.29c0,0.2,0.05,0.4,0.14,0.59
	L74.32,56.6z M77.28,49.56l-1.8,3.57l-1.8-3.57H77.28z"/>
<path class="st1" d="M75.48,70.25c2.87,0,5.2-2.32,5.2-5.17s-2.33-5.17-5.2-5.17c-2.87,0-5.2,2.32-5.2,5.17S72.61,70.25,75.48,70.25
	z M75.48,62.49c1.44,0,2.6,1.16,2.6,2.59s-1.17,2.59-2.6,2.59s-2.6-1.16-2.6-2.59S74.04,62.49,75.48,62.49z"/>
</svg>
