<svg width="114" height="124" viewBox="0 0 114 124" fill="none" xmlns="http://www.w3.org/2000/svg">
<path d="M112.005 0.574059H2.27898C1.26787 0.574059 0.458984 1.38295 0.458984 2.39406V121.948C0.458984 122.959 1.26787 123.768 2.27898 123.768H112.005C113.016 123.768 113.825 122.959 113.825 121.948V2.39406C113.825 1.40317 113.016 0.574059 112.005 0.574059ZM84.5632 35.8416V120.128H58.9619V35.8416H84.5632ZM84.5632 32.2016H29.7003V26.5192H84.5632V32.2016ZM29.7003 35.8416H55.3017V120.128H29.7003V35.8416ZM110.165 120.128H88.2234V24.6992C88.2234 23.6881 87.4145 22.8792 86.4034 22.8792H27.8803C26.8692 22.8792 26.0603 23.6881 26.0603 24.6992V120.128H4.09898V4.23428H110.165V120.128Z" fill="#818181"/>
<mask id="mask0_595_1118" style="mask-type:luminance" maskUnits="userSpaceOnUse" x="0" y="0" width="114" height="124">
<path d="M112.005 0.574081H2.27898C1.26787 0.574081 0.458984 1.38297 0.458984 2.39408V121.948C0.458984 122.959 1.26787 123.768 2.27898 123.768H112.005C113.016 123.768 113.825 122.959 113.825 121.948V2.39408C113.825 1.40319 113.016 0.574081 112.005 0.574081ZM84.5632 35.8416V120.128H58.9619V35.8416H84.5632ZM84.5632 32.2016H29.7003V26.5192H84.5632V32.2016ZM29.7003 35.8416H55.3017V120.128H29.7003V35.8416ZM110.165 120.128H88.2234V24.6992C88.2234 23.6881 87.4145 22.8792 86.4034 22.8792H27.8803C26.8692 22.8792 26.0603 23.6881 26.0603 24.6992V120.128H4.09898V4.2343H110.165V120.128Z" fill="white"/>
</mask>
<g mask="url(#mask0_595_1118)">
<path d="M90.9129 19.6234H22.2383V120.128H90.9129V19.6234Z" fill="#972323"/>
</g>
</svg>
