<svg width="57" height="56" viewBox="0 0 57 56" fill="none" xmlns="http://www.w3.org/2000/svg">
<path d="M44.875 6.98035C46.1058 6.98035 47.2861 7.46617 48.1564 8.33095C49.0267 9.19573 49.5156 10.3686 49.5156 11.5916V43.8704C49.5156 45.0934 49.0267 46.2662 48.1564 47.131C47.2861 47.9958 46.1058 48.4816 44.875 48.4816H12.3906C11.1599 48.4816 9.97949 47.9958 9.10921 47.131C8.23892 46.2662 7.75 45.0934 7.75 43.8704V11.5916C7.75 10.3686 8.23892 9.19573 9.10921 8.33095C9.97949 7.46617 11.1599 6.98035 12.3906 6.98035H44.875ZM43.7148 42.7176V30.4977C43.7148 28.5043 42.9179 26.5925 41.4993 25.1829C40.0808 23.7733 38.1568 22.9814 36.1506 22.9814C34.1784 22.9814 31.8813 24.1803 30.7675 25.9787V23.4195H24.2938V42.7176H30.7675V31.3508C30.7675 29.5755 32.2061 28.1229 33.9927 28.1229C34.8543 28.1229 35.6805 28.463 36.2897 29.0684C36.8989 29.6737 37.2412 30.4947 37.2412 31.3508V42.7176H43.7148ZM16.7528 19.7996C17.7867 19.7996 18.7782 19.3915 19.5092 18.6651C20.2402 17.9387 20.6509 16.9535 20.6509 15.9262C20.6509 13.7819 18.9107 12.0297 16.7528 12.0297C15.7128 12.0297 14.7154 12.4402 13.98 13.1709C13.2446 13.9017 12.8315 14.8928 12.8315 15.9262C12.8315 18.0704 14.5949 19.7996 16.7528 19.7996ZM19.978 42.7176V23.4195H13.5508V42.7176H19.978Z" fill="white"/>
</svg>
