<svg width="30" height="32" viewBox="0 0 30 32" fill="none" xmlns="http://www.w3.org/2000/svg">
<path d="M26.6667 0C27.5507 0 28.3986 0.374602 29.0237 1.0414C29.6488 1.70819 30 2.61256 30 3.55556V28.4444C30 29.3874 29.6488 30.2918 29.0237 30.9586C28.3986 31.6254 27.5507 32 26.6667 32H3.33333C2.44928 32 1.60143 31.6254 0.976311 30.9586C0.351189 30.2918 0 29.3874 0 28.4444V3.55556C0 2.61256 0.351189 1.70819 0.976311 1.0414C1.60143 0.374602 2.44928 0 3.33333 0H26.6667ZM25.8333 27.5556V18.1333C25.8333 16.5963 25.2609 15.1221 24.2419 14.0353C23.223 12.9484 21.841 12.3378 20.4 12.3378C18.9833 12.3378 17.3333 13.2622 16.5333 14.6489V12.6756H11.8833V27.5556H16.5333V18.7911C16.5333 17.4222 17.5667 16.3022 18.85 16.3022C19.4688 16.3022 20.0623 16.5644 20.4999 17.0312C20.9375 17.498 21.1833 18.131 21.1833 18.7911V27.5556H25.8333ZM6.46667 9.88445C7.20927 9.88445 7.92146 9.56978 8.44657 9.00967C8.97167 8.44956 9.26667 7.68989 9.26667 6.89778C9.26667 5.24444 8.01667 3.89333 6.46667 3.89333C5.71964 3.89333 5.00321 4.20987 4.47498 4.77331C3.94675 5.33676 3.65 6.10095 3.65 6.89778C3.65 8.55111 4.91667 9.88445 6.46667 9.88445ZM8.78333 27.5556V12.6756H4.16667V27.5556H8.78333Z" fill="black"/>
</svg>
