<svg width="85" height="85" viewBox="0 0 85 85" fill="none" xmlns="http://www.w3.org/2000/svg">
<path d="M75.2857 0C77.7816 0 80.1752 0.985208 81.9401 2.73889C83.7049 4.49257 84.6964 6.87107 84.6964 9.35115V74.8092C84.6964 77.2893 83.7049 79.6678 81.9401 81.4215C80.1752 83.1752 77.7816 84.1604 75.2857 84.1604H9.41071C6.91484 84.1604 4.52118 83.1752 2.75633 81.4215C0.991483 79.6678 0 77.2893 0 74.8092V9.35115C0 6.87107 0.991483 4.49257 2.75633 2.73889C4.52118 0.985208 6.91484 0 9.41071 0H75.2857ZM72.933 72.4714V47.6909C72.933 43.6483 71.3169 39.7714 68.4402 36.9129C65.5635 34.0544 61.6618 32.4485 57.5936 32.4485C53.594 32.4485 48.9357 34.8798 46.6771 38.5268V33.3369H33.5492V72.4714H46.6771V49.4208C46.6771 45.8207 49.5945 42.875 53.2176 42.875C54.9647 42.875 56.6403 43.5647 57.8757 44.7923C59.111 46.0198 59.8051 47.6848 59.8051 49.4208V72.4714H72.933ZM18.2568 25.9962C20.3533 25.9962 22.364 25.1686 23.8465 23.6955C25.3289 22.2224 26.1618 20.2245 26.1618 18.1412C26.1618 13.793 22.6328 10.2395 18.2568 10.2395C16.1478 10.2395 14.1251 11.072 12.6338 12.5539C11.1425 14.0357 10.3047 16.0456 10.3047 18.1412C10.3047 22.4895 13.8808 25.9962 18.2568 25.9962ZM24.7972 72.4714V33.3369H11.7634V72.4714H24.7972Z" fill="#0D66C2"/>
</svg>
