<svg width="50" height="70" viewBox="0 0 50 70" fill="none" xmlns="http://www.w3.org/2000/svg">
<path d="M25.0409 0.0664062C11.1545 0.0664062 0.296875 10.5433 0.296875 23.9001C0.296875 38.3493 13.3392 60.1472 25.0078 70.3593C36.6764 60.1307 49.7022 38.3327 49.7022 23.9001C49.7022 10.5433 38.8611 0.0664062 25.0078 0.0664062H25.0409ZM25.0409 42.8016C15.8053 42.8016 8.30764 35.3039 8.30764 26.0849C8.30764 16.8824 15.8053 9.36817 25.0409 9.36817C34.2599 9.36817 41.741 16.8659 41.741 26.0849C41.741 35.3204 34.2434 42.8016 25.0409 42.8016Z" fill="#C22032"/>
<path d="M25.016 15.5833C19.5706 15.5833 15.1846 20.0024 15.1846 25.3981C15.1846 30.8103 19.6037 35.213 25.016 35.213C30.4117 35.213 34.8143 30.8103 34.8143 25.3981C34.8143 20.0024 30.4117 15.5833 25.016 15.5833Z" fill="#C22032"/>
</svg>
