<svg width="127" height="141" viewBox="0 0 127 141" fill="none" xmlns="http://www.w3.org/2000/svg">
<path d="M126.452 103.455V97.9687C126.452 93.4303 122.761 89.7386 118.222 89.7386H71.5848V66.9685H96.2752C97.7905 66.9685 99.0186 65.7404 99.0186 64.2251V20.331C99.0186 18.8157 97.7905 17.5876 96.2752 17.5876H71.5848V3.0477C71.5848 1.53241 70.3567 0.304321 68.8414 0.304321H3.00022C1.48493 0.304321 0.256836 1.53241 0.256836 3.0477V138.022C0.256836 139.537 1.48493 140.765 3.00022 140.765H68.8414C70.3567 140.765 71.5848 139.537 71.5848 138.022V111.686H118.222C122.761 111.686 126.452 107.994 126.452 103.455ZM120.966 97.9687V103.455C120.966 104.969 119.735 106.199 118.222 106.199H109.992V95.2253H118.222C119.735 95.2253 120.966 96.4556 120.966 97.9687ZM35.9208 106.199C34.4077 106.199 33.1774 104.969 33.1774 103.455V97.9687C33.1774 96.4556 34.4077 95.2253 35.9208 95.2253H93.5318V106.199H35.9208ZM35.9208 111.682H48.1803C45.0983 115.108 40.6456 117.172 35.9208 117.172C26.8441 117.172 19.4605 109.789 19.4605 100.712C19.4605 91.6354 26.8441 84.2518 35.9208 84.2518C40.6456 84.2518 45.0983 86.3136 48.1803 89.7386H35.9208C31.3824 89.7386 27.6907 93.4303 27.6907 97.9687V103.455C27.6907 107.994 31.3824 111.682 35.9208 111.682ZM99.0186 95.2253H104.505V106.199H99.0186V95.2253ZM38.6642 61.4817V34.0479H93.5318V61.4817H38.6642ZM93.5318 28.5612H38.6642V23.0744H93.5318V28.5612ZM66.098 135.279H5.7436V5.79108H66.098V17.5876H38.6642V14.8442C38.6642 13.329 37.4361 12.1009 35.9208 12.1009C34.4055 12.1009 33.1774 13.329 33.1774 14.8442V69.7119C33.1774 71.2272 34.4055 72.4553 35.9208 72.4553C37.4361 72.4553 38.6642 71.2272 38.6642 69.7119V66.9685H66.098V89.7386H54.9262C51.0351 83.0205 43.7577 78.765 35.9208 78.765C23.8188 78.765 13.9737 88.6101 13.9737 100.712C13.9737 112.814 23.8188 122.659 35.9208 122.659C43.7577 122.659 51.0351 118.404 54.9262 111.686H66.098V135.279Z" fill="black"/>
</svg>
