<?xml version="1.0" encoding="utf-8"?>
<!-- Generator: Adobe Illustrator 26.0.1, SVG Export Plug-In . SVG Version: 6.00 Build 0)  -->
<svg version="1.1" id="Layer_1" xmlns="http://www.w3.org/2000/svg" xmlns:xlink="http://www.w3.org/1999/xlink" x="0px" y="0px"
	 viewBox="0 0 90 90" style="enable-background:new 0 0 90 90;" xml:space="preserve">
<style type="text/css">
	.st0{fill:#010101;}
</style>
<g>
	<path class="st0" d="M15.83,30.76c0,0.95-0.77,1.72-1.72,1.72s-1.72-0.77-1.72-1.72c0-0.95,0.77-1.72,1.72-1.72
		S15.83,29.81,15.83,30.76z"/>
	<path class="st0" d="M84.46,65.59v-3.43c0-2.84-2.31-5.15-5.15-5.15H50.15V42.77h15.44c0.95,0,1.72-0.77,1.72-1.72V13.6
		c0-0.95-0.77-1.72-1.72-1.72H50.15V2.79c0-0.95-0.77-1.72-1.72-1.72H7.25c-0.95,0-1.72,0.77-1.72,1.72v84.41
		c0,0.95,0.77,1.72,1.72,1.72h41.18c0.95,0,1.72-0.77,1.72-1.72V70.74h29.17C82.15,70.74,84.46,68.43,84.46,65.59z M81.03,62.16
		v3.43c0,0.95-0.77,1.72-1.72,1.72h-5.15v-6.86h5.15C80.26,60.44,81.03,61.21,81.03,62.16z M27.84,67.3c-0.95,0-1.72-0.77-1.72-1.72
		v-3.43c0-0.95,0.77-1.72,1.72-1.72h36.03v6.86H27.84z M27.84,70.73h7.67c-1.93,2.14-4.71,3.43-7.67,3.43
		c-5.68,0-10.29-4.62-10.29-10.29s4.62-10.29,10.29-10.29c2.95,0,5.74,1.29,7.67,3.43h-7.67c-2.84,0-5.15,2.31-5.15,5.15v3.43
		C22.7,68.43,25,70.73,27.84,70.73z M67.3,60.44h3.43v6.86H67.3V60.44z M29.56,39.34V22.18h34.31v17.16H29.56z M63.87,18.75H29.56
		v-3.43h34.31V18.75z M46.72,85.49H8.97V4.51h37.75v7.38H29.56v-1.72c0-0.95-0.77-1.72-1.72-1.72s-1.72,0.77-1.72,1.72v34.31
		c0,0.95,0.77,1.72,1.72,1.72s1.72-0.77,1.72-1.72v-1.72h17.16v14.24h-6.99c-2.43-4.2-6.98-6.86-11.89-6.86
		c-7.57,0-13.73,6.16-13.73,13.73S20.27,77.6,27.84,77.6c4.9,0,9.45-2.66,11.89-6.86h6.99V85.49z"/>
	<path class="st0" d="M55.29,25.61c-2.24,0-4.14,1.43-4.85,3.43H34.71c-0.95,0-1.72,0.77-1.72,1.72c0,0.95,0.77,1.72,1.72,1.72h1.72
		v1.72c0,0.95,0.77,1.72,1.72,1.72s1.72-0.77,1.72-1.72v-1.72h3.43v1.72c0,0.95,0.77,1.72,1.72,1.72s1.72-0.77,1.72-1.72v-1.72h3.73
		c0.71,2,2.62,3.43,4.85,3.43c2.84,0,5.15-2.31,5.15-5.15S58.13,25.61,55.29,25.61z M55.29,32.48c-0.95,0-1.72-0.77-1.72-1.72
		s0.77-1.72,1.72-1.72c0.95,0,1.72,0.77,1.72,1.72S56.24,32.48,55.29,32.48z"/>
	<path class="st0" d="M14.12,25.61c0.95,0,1.72-0.77,1.72-1.72V10.17c0-0.95-0.77-1.72-1.72-1.72s-1.72,0.77-1.72,1.72V23.9
		C12.4,24.84,13.17,25.61,14.12,25.61z"/>
</g>
</svg>
