<svg width="281" height="223" viewBox="0 0 281 223" fill="none" xmlns="http://www.w3.org/2000/svg">
<path d="M124.355 216.427C122.633 153.871 130.148 124.548 69.1897 124.548C17.4206 124.548 18.7966 147.029 19.1334 216.427" fill="black"/>
<path d="M123.519 216.427C123.019 198.039 124.097 179.227 121.412 160.973C119.468 147.771 113.772 136.57 100.907 131.335C92.968 128.112 84.1345 127.294 75.6475 126.938C66.7178 126.563 57.5764 126.765 48.7911 128.516C35.9258 131.085 27.2367 138.61 23.532 151.225C20.9628 159.953 20.5106 169.287 20.1738 178.322C19.7023 191.014 19.9236 203.735 19.991 216.437C20.0006 217.524 18.3166 217.524 18.307 216.437C18.2108 197.278 17.2004 177.62 20.2026 158.615C21.9539 147.549 26.2167 136.926 36.3299 131.143C49.3011 123.724 67.2855 124.494 81.575 125.61C94.2574 126.601 107.854 129.796 115.831 140.515C121.922 148.704 123.26 159.693 124.049 169.556C125.28 185.125 124.799 200.829 125.223 216.437C125.232 217.514 123.548 217.515 123.519 216.427Z" fill="white"/>
<path d="M83.2207 103.844C82.8935 121.482 89.1674 135.598 72.3184 135.598C54.4783 135.598 59.5204 126.148 60.425 103.844" fill="white"/>
<path d="M84.0584 103.843C83.9814 112.138 86.3486 121.289 84.2412 129.43C82.4803 136.233 74.8593 136.714 69.0473 136.319C63.9378 135.963 59.7424 133.914 58.5877 128.65C56.8845 120.866 59.2227 111.695 59.5788 103.843C59.6269 102.766 61.3108 102.756 61.2627 103.843C60.9548 110.781 59.9444 117.709 59.9252 124.657C59.906 130.96 62.8216 133.991 69.0473 134.626C76.7549 135.424 82.692 133.307 83.2213 124.974C83.6639 117.969 82.3071 110.868 82.3745 103.843C82.3841 102.766 84.068 102.756 84.0584 103.843Z" fill="black"/>
<path d="M101.311 58.6184C101.311 83.5696 111.184 119.308 70.6636 118.278C35.9264 117.316 39.708 92.3838 43.0759 58.6184" fill="white"/>
<path d="M102.157 58.6178C102.215 71.7044 104.63 85.0027 102.09 97.9931C99.5592 110.906 89.9848 117.623 77.312 118.932C64.3409 120.269 48.6947 117.527 42.9693 104.373C36.9937 90.6607 40.8235 72.8687 42.2476 58.6178C42.3534 57.5497 44.0374 57.5401 43.9315 58.6178C42.5748 72.1759 39.8227 87.1004 43.4023 100.524C47.3283 115.237 62.7628 118.037 76.0611 117.344C90.0041 116.613 98.799 108.578 100.916 94.962C102.773 82.982 100.521 70.6556 100.473 58.6178C100.464 57.5305 102.148 57.5401 102.157 58.6178Z" fill="black"/>
<path d="M100.56 80.0958C107.681 79.1528 111.049 81.3083 111.049 86.5718C111.049 90.7576 107.537 93.4519 99.8097 91.97" fill="white"/>
<path d="M100.561 79.2487C106.277 78.5655 111.733 79.9511 111.896 86.5714C112.05 93.2398 104.419 93.6343 99.589 92.7875C98.5209 92.5951 98.9731 90.9785 100.032 91.1613C103.977 91.8541 110.039 91.9311 110.203 86.5714C110.376 80.8749 104.968 80.4034 100.551 80.9326C99.4831 81.0673 99.4927 79.3834 100.561 79.2487Z" fill="black"/>
<path d="M97.2129 48.3979C96.5682 58.6459 91.7569 66.4113 81.8169 65.6511C77.6503 65.2758 73.4742 62.9953 68.9901 64.8909C65.1411 66.4112 62.2543 70.2025 58.4053 72.4734C52.3143 75.5141 51.352 72.8487 45.8961 70.2025C42.0471 68.3069 38.1981 70.2025 34.3491 69.0671C28.8931 67.5467 25.0441 64.3328 25.0441 57.8857C25.0441 50.6785 28.8931 49.7162 32.7421 45.9249C39.1603 39.4682 40.4401 28.845 49.4179 26.5741C57.4335 24.6688 62.8894 31.5104 70.2699 31.1255C76.6881 30.7503 81.8169 23.9086 88.5526 26.1892C94.0086 28.0848 97.2129 35.677 96.8953 42.124" fill="black"/>
<path d="M90.7931 58.7146C92.7176 69.2994 98.1736 78.5947 100.416 89.1795C107.796 80.8368 122.547 32.2431 94.9597 36.2557" fill="black"/>
<path d="M48.7715 66.7294C45.5672 74.4274 43.9602 81.1631 42.0357 89.1787C36.1949 80.4318 34.0202 63.1979 38.1867 56.4622" fill="black"/>
<path d="M92.6429 42.5108C92.1233 46.8409 91.7865 51.6714 88.1492 54.6063C84.2039 57.7914 77.6222 55.7803 73.2247 54.972C68.0382 54.0097 63.7273 54.4716 59.6088 58.0993C57.386 60.0526 55.577 62.2562 53.0174 63.7958C50.939 65.0371 48.5045 64.9505 46.272 64.3347C44.9634 63.969 43.7221 62.9683 42.6155 62.2273C39.9885 60.4664 37.1884 60.2451 34.1958 60.5723C33.272 60.6685 33.2817 59.2251 34.1958 59.1289C36.4282 58.8883 38.8723 58.7248 40.9797 59.7062C44.8287 61.5057 47.6288 64.6137 52.3053 62.5545C56.7413 60.6011 58.8486 55.2029 63.6984 53.7692C68.4808 52.3546 73.0996 53.5286 77.8723 54.3754C81.8272 55.0778 86.3786 55.3472 88.9767 51.6618C90.7184 49.2081 90.8627 45.388 91.2091 42.5301C91.3053 41.5967 92.7487 41.5871 92.6429 42.5108Z" fill="white"/>
<path d="M80.1326 38.9891C79.9305 47.736 70.6544 46.2445 64.5057 45.8019C57.8565 45.3304 55.1911 49.7279 50.4568 53.115C45.838 56.4155 40.9594 50.3629 36.3117 53.7212C35.5516 54.2697 34.8395 53.0187 35.5804 52.4799C38.1881 50.5939 40.2762 50.8152 43.24 51.8448C49.1578 53.8944 50.7936 50.2282 54.8254 47.1875C57.8373 44.9166 60.7529 44.2623 64.4961 44.3681C69.5575 44.5028 78.4968 46.9758 78.6796 38.9987C78.7085 38.0557 80.1519 38.0557 80.1326 38.9891Z" fill="white"/>
<path d="M96.2128 52.5462C95.3757 58.4256 97.637 65.4885 101.476 69.9629C102.083 70.6654 101.063 71.695 100.456 70.9829C96.2321 66.0658 93.8938 58.5987 94.8176 52.1613C94.9523 51.2472 96.3379 51.6417 96.2128 52.5462Z" fill="white"/>
<path d="M101.523 49.7844C101.437 54.3743 102.351 58.6756 105.112 62.4091C105.671 63.1597 104.41 63.8813 103.862 63.1404C100.965 59.2144 99.9837 54.6052 100.07 49.7844C100.099 48.8606 101.543 48.8606 101.523 49.7844Z" fill="white"/>
<path d="M79.4666 80.7114C77.0322 83.3095 80.7946 86.533 82.8923 84.6182C86.1062 81.6833 81.4489 78.2769 79.4666 80.7114Z" fill="black"/>
<path d="M60.2225 80.7114C57.788 83.3095 61.5504 86.533 63.6481 84.6182C66.862 81.6833 62.2047 78.2769 60.2225 80.7114Z" fill="black"/>
<path d="M72.5195 82.4237C71.9998 85.2334 70.8355 87.8508 70.1138 90.6028C69.8444 90.2468 69.575 89.8908 69.3055 89.5347C70.7489 89.5347 72.1923 89.5347 73.6357 89.5347C74.723 89.5347 74.723 91.2187 73.6357 91.2187C72.1923 91.2187 70.7489 91.2187 69.3055 91.2187C68.7571 91.2187 68.3529 90.6798 68.4973 90.1505C69.2189 87.3985 70.3833 84.7812 70.9029 81.9714C71.0953 80.9033 72.7119 81.3556 72.5195 82.4237Z" fill="black"/>
<path d="M84.594 91.9122C79.7442 97.0699 87.2306 103.507 91.4067 99.6872C97.8057 93.856 88.5392 87.0624 84.594 91.9122Z" fill="#FFF0F5"/>
<path d="M50.9162 91.9122C46.0665 97.0699 53.5528 103.507 57.729 99.6872C64.1279 93.856 54.8615 87.0624 50.9162 91.9122Z" fill="#FFF0F5"/>
<path d="M57.5312 75.9997C60.6873 74.9027 63.7184 74.9316 66.6822 76.5674C67.6348 77.087 66.788 78.5497 65.8354 78.0204C63.2566 76.5963 60.7162 76.6733 57.9834 77.6259C56.9538 77.9819 56.5112 76.3557 57.5312 75.9997Z" fill="black"/>
<path d="M75.6568 76.4801C78.9669 75.2003 82.585 74.0264 85.7701 76.2396C86.6553 76.8554 85.8085 78.318 84.9233 77.6926C82.1328 75.7488 78.9766 76.9901 76.1091 78.0967C75.0891 78.5008 74.6561 76.865 75.6568 76.4801Z" fill="black"/>
<path d="M70.2104 130.96C70.8936 135.733 71.2111 140.544 72.4524 145.269C75.3296 144.47 78.9957 140.044 81.5264 138.158C84.0572 136.272 86.2319 134.982 89.6094 133.25C88.8973 132.192 84.2785 126.062 82.71 125.591L70.2104 130.96Z" fill="white"/>
<path d="M71.0196 130.729C71.674 135.521 72.1166 140.323 73.2617 145.038C72.9153 144.845 72.5689 144.643 72.2225 144.451C75.6769 143.152 78.1114 139.803 80.9308 137.552C83.4519 135.54 86.3387 133.991 89.1869 132.509C89.0907 132.894 88.9849 133.279 88.8886 133.664C87.5319 131.73 86.0307 129.892 84.443 128.141C83.7791 127.409 82.5185 126.572 82.9227 126.399C82.2491 126.688 81.5755 126.976 80.9019 127.265C77.4763 128.737 74.0507 130.21 70.6251 131.682C69.6436 132.105 68.7776 130.652 69.7783 130.229C73.7909 128.506 77.8035 126.774 81.8257 125.042C84.8856 123.724 88.8501 130.691 90.3416 132.808C90.5918 133.173 90.4186 133.76 90.0433 133.962C86.3771 135.858 82.8938 137.908 79.8435 140.727C77.6399 142.767 75.5422 144.99 72.6843 146.068C72.2609 146.231 71.7509 145.894 71.6451 145.481C70.5 140.765 70.0574 135.973 69.4031 131.172C69.2491 130.123 70.8753 129.661 71.0196 130.729Z" fill="black"/>
<path d="M50.4212 133.186C53.7051 134.876 55.8569 136.158 58.3535 138.019C59.2163 138.662 60.2133 139.601 61.2577 140.584C61.7553 141.053 62.2637 141.531 62.7734 141.993C63.5677 142.712 64.3689 143.394 65.1483 143.945C65.8663 144.452 66.558 144.843 67.2024 145.052C68.0572 141.737 68.4632 138.385 68.8705 135.022C69.03 133.705 69.1898 132.386 69.3768 131.066L57.0596 125.775C56.9017 125.836 56.6982 125.96 56.4548 126.148C56.1847 126.357 55.8783 126.634 55.5486 126.96C54.8895 127.612 54.1469 128.451 53.4285 129.311C52.1136 130.885 50.8894 132.519 50.4212 133.186Z" fill="white" stroke="black" stroke-width="0.345388"/>
<path d="M70.3742 131.181C69.7199 135.973 69.2773 140.775 68.1322 145.49C68.0264 145.904 67.5163 146.24 67.093 146.077C64.2447 145.009 62.1085 142.786 59.9338 140.736C56.922 137.898 53.3809 135.867 49.734 133.972C49.3491 133.77 49.1759 133.183 49.4357 132.817C50.754 130.941 54.9879 123.772 57.7014 124.946C61.8006 126.707 65.8998 128.477 69.999 130.238C70.9901 130.671 70.1337 132.115 69.1522 131.691C65.7266 130.219 62.301 128.747 58.8754 127.274C58.2884 127.024 57.6918 126.764 57.1048 126.514C56.9701 126.456 56.8354 126.399 56.7007 126.341C57.6052 126.726 56.3735 127.111 55.8924 127.573C54.0256 129.382 52.3802 131.556 50.8983 133.683C50.8021 133.298 50.6962 132.913 50.6 132.528C53.4483 134.01 56.335 135.55 58.8561 137.57C61.6755 139.822 64.11 143.171 67.5645 144.47C67.2181 144.662 66.8716 144.864 66.5252 145.057C67.6703 140.351 68.113 135.54 68.7673 130.748C68.902 129.661 70.5186 130.123 70.3742 131.181Z" fill="black"/>
<path d="M142.438 217.765C95.2881 217.765 48.1379 217.765 0.987625 217.765C-0.0997162 217.765 -0.0997162 216.081 0.987625 216.081C48.1379 216.081 95.2881 216.081 142.438 216.081C143.526 216.081 143.526 217.765 142.438 217.765Z" fill="white"/>
<path d="M108.677 156.144L108.677 192.825L108.677 200.357" stroke="white" stroke-width="2" stroke-linecap="round"/>
<path d="M42.3998 156.144L42.3998 192.825L42.3994 215.814" stroke="white" stroke-width="2" stroke-linecap="round"/>
<path d="M153.795 150.262C157.302 146.673 161.337 143.263 164.106 139.53C166.874 135.796 168.37 131.729 166.798 126.806C165.891 124.435 163.349 120.748 160.584 117.983C157.81 115.222 154.8 113.378 152.928 114.697C152.134 115.254 152.608 116.657 153.833 118.742C155.057 120.827 157.017 123.591 159.22 126.858C151.189 114.055 137.89 123.399 145.732 135.823C145.234 137.215 144.67 139.412 142.618 140.782" fill="white"/>
<path d="M153.219 149.642C159.142 143.699 169.903 135.958 165.642 126.24C163.85 122.16 160.227 118.236 156.548 115.82C153.94 116.069 153.285 116.912 154.57 118.346C154.961 119.01 155.365 119.657 155.787 120.294C157.123 122.386 158.565 124.411 159.957 126.463C159.463 126.722 158.96 126.986 158.465 127.245C155.017 122.099 146.676 118.336 144.37 126.619C143.352 130.271 145.856 132.435 146.547 135.637C146.968 137.578 144.459 140.296 143.176 141.392C142.351 142.097 141.195 140.867 142.029 140.158C145.184 137.471 144.412 136.104 143.33 132.88C142.79 131.251 142.502 129.685 142.503 127.968C142.501 125.437 143.768 123.067 145.652 121.459C150.792 117.09 157.045 122.133 159.952 126.454C160.555 127.355 159.059 128.128 158.461 127.236C156.848 124.844 149.796 117.428 152.204 114.23C155.074 110.421 161.67 117.838 163.202 119.599C166.958 123.921 169.155 128.69 167.725 134.416C166.04 141.168 158.989 146.224 154.362 150.868C153.598 151.649 152.451 150.414 153.219 149.642Z" fill="black"/>
<path d="M153.028 129.162C151.25 126.248 148.522 124.528 145.232 123.787C144.173 123.549 144.675 121.938 145.734 122.176C149.474 123.028 152.514 125.096 154.519 128.379C155.092 129.307 153.597 130.08 153.028 129.162Z" fill="black"/>
<path d="M148.893 131.222C147.269 129.368 145.875 127.415 143.657 126.231C142.7 125.712 143.598 124.296 144.551 124.807C146.895 126.065 148.402 128.111 150.128 130.074C150.836 130.887 149.606 132.043 148.893 131.222Z" fill="black"/>
<path d="M134.923 209.255C145.892 194.871 153.893 178.568 159.017 159.36C161.31 150.766 161.596 149.691 161.596 149.691C155.111 146.16 148.491 142.683 139.414 139.104C139.414 139.104 118.348 173.438 110.347 189.727C100.794 209.187 121.975 224.204 134.923 209.255Z" fill="black"/>
<path d="M134.196 208.84C147.553 191.101 154.908 171.444 160.596 150.188C160.916 148.97 160.726 150.181 159.97 149.766C157.895 148.644 155.813 147.541 153.717 146.466C152.377 145.779 139.891 139.962 140.096 139.621C137.843 143.302 135.618 146.997 133.4 150.699C125.65 163.633 117.792 176.622 111.09 190.142C107.558 197.266 108.021 205.798 114.151 211.276C120.486 216.93 129.161 214.338 134.339 208.656C135.074 207.853 136.258 209.051 135.53 209.847C129.746 216.188 121.078 218.311 113.791 213.12C106.014 207.574 105.959 197.232 109.62 189.312C117.744 171.771 128.59 155.155 138.687 138.689C138.871 138.397 139.279 138.152 139.633 138.288C147.335 141.363 154.731 145.003 162.018 148.957C162.345 149.134 162.515 149.549 162.42 149.902C156.575 171.574 149.302 191.557 135.666 209.67C135.013 210.527 133.55 209.704 134.196 208.84Z" fill="white"/>
<path d="M159.14 156.638C155.629 154.053 151.608 152.576 147.668 150.787C143.817 149.031 140.435 146.453 136.564 144.731C135.57 144.296 136.414 142.826 137.401 143.268C141.259 144.99 144.715 147.439 148.505 149.324C152.404 151.263 156.439 152.563 159.977 155.176C160.841 155.808 160.011 157.278 159.14 156.638Z" fill="white"/>
<path d="M64.0635 100.844C69.8192 101.647 73.0299 101.676 78.8564 100.844C78.8564 104.597 75.8138 107.64 72.0605 107.64H70.8594C67.1061 107.64 64.0635 104.597 64.0635 100.844Z" fill="black"/>
<path fill-rule="evenodd" clip-rule="evenodd" d="M75.7182 106.57C74.6614 107.247 73.4048 107.64 72.0566 107.64H70.8555C69.7949 107.64 68.791 107.397 67.8965 106.963C68.6667 105.527 70.1823 104.55 71.926 104.55C73.5053 104.55 74.8974 105.352 75.7182 106.57Z" fill="#D9D9D9"/>
<path fill-rule="evenodd" clip-rule="evenodd" d="M77.8276 100.983C76.402 102.957 74.0811 104.241 71.4602 104.241C68.8405 104.241 66.5205 102.958 65.0947 100.986C69.8955 101.62 73.0174 101.609 77.8276 100.983Z" fill="#D9D9D9"/>
<rect x="135.812" y="16.6667" width="69.7725" height="89.7325" transform="rotate(-5.96976 135.812 16.6667)" fill="#37756F"/>
<rect x="144.938" y="0.68335" width="69.7725" height="89.7325" transform="rotate(4.0366 144.938 0.68335)" fill="url(#paint0_linear_986_8729)"/>
<rect x="149.428" y="7.37549" width="59.8798" height="77.0098" transform="rotate(4.04 149.428 7.37549)" fill="white"/>
<path d="M165.538 23.2341C165.036 25.0653 163.512 26.7154 161.519 26.9674C160.547 27.0906 159.561 26.904 158.701 26.4342C157.841 25.9643 157.152 25.2353 156.731 24.3507C156.309 23.4662 156.178 22.4713 156.355 21.5078C156.532 20.5442 157.009 19.661 157.717 18.984C159.169 17.5947 161.474 17.3468 163.279 18.221" stroke="black" stroke-width="1.11725" stroke-linecap="round" stroke-linejoin="round"/>
<path d="M159.275 22.0451L161.002 24.0337L165.801 19.5192" stroke="black" stroke-width="1.11725" stroke-linecap="round" stroke-linejoin="round"/>
<path d="M164.418 39.0874C163.916 40.9186 162.392 42.5686 160.399 42.8207C159.427 42.9438 158.441 42.7572 157.581 42.2874C156.721 41.8176 156.032 41.0885 155.61 40.204C155.189 39.3195 155.058 38.3246 155.235 37.361C155.412 36.3974 155.888 35.5143 156.597 34.8373C158.049 33.448 160.354 33.2001 162.159 34.0743" stroke="black" stroke-width="1.11725" stroke-linecap="round" stroke-linejoin="round"/>
<path d="M158.155 37.8983L159.882 39.887L164.681 35.3724" stroke="black" stroke-width="1.11725" stroke-linecap="round" stroke-linejoin="round"/>
<path d="M163.299 54.9405C162.796 56.7717 161.272 58.4218 159.28 58.6738C158.308 58.797 157.322 58.6104 156.462 58.1406C155.602 57.6708 154.913 56.9417 154.491 56.0572C154.07 55.1726 153.939 54.1778 154.116 53.2142C154.293 52.2506 154.769 51.3674 155.478 50.6905C156.93 49.3012 159.235 49.0533 161.04 49.9274" stroke="black" stroke-width="1.11725" stroke-linecap="round" stroke-linejoin="round"/>
<path d="M157.036 53.7515L158.762 55.7401L163.561 51.2256" stroke="black" stroke-width="1.11725" stroke-linecap="round" stroke-linejoin="round"/>
<path d="M162.179 70.7938C161.676 72.625 160.152 74.2751 158.159 74.5271C157.188 74.6503 156.201 74.4637 155.342 73.9938C154.482 73.524 153.792 72.795 153.371 71.9104C152.95 71.0259 152.819 70.031 152.996 69.0674C153.173 68.1039 153.649 67.2207 154.357 66.5437C155.81 65.1544 158.115 64.9065 159.92 65.7807" stroke="black" stroke-width="1.11725" stroke-linecap="round" stroke-linejoin="round"/>
<path d="M155.916 69.6048L157.642 71.5934L162.441 67.0789" stroke="black" stroke-width="1.11725" stroke-linecap="round" stroke-linejoin="round"/>
<path d="M170.963 19.8672L195.803 21.6216" stroke="black" stroke-linecap="round"/>
<path d="M169.807 36.2317L194.647 37.9861" stroke="black" stroke-linecap="round"/>
<path d="M168.651 52.5962L193.492 54.3506" stroke="black" stroke-linecap="round"/>
<path d="M167.495 68.9607L192.336 70.7151" stroke="black" stroke-linecap="round"/>
<path d="M170.691 23.7069L188.166 24.9411" stroke="black" stroke-linecap="round"/>
<path d="M169.535 40.0714L187.009 41.3056" stroke="black" stroke-linecap="round"/>
<path d="M168.38 56.4359L185.854 57.6701" stroke="black" stroke-linecap="round"/>
<path d="M167.224 72.8004L184.698 74.0346" stroke="black" stroke-linecap="round"/>
<path d="M259.146 22.2544L259.613 14.6609L274.411 5.58752L273.248 13.2326L280.485 16.2185L265.182 24.7856L259.146 22.2544Z" fill="black"/>
<g filter="url(#filter0_d_986_8729)">
<circle cx="223.969" cy="41.5046" r="29.3218" fill="#D9D9D9"/>
<circle cx="223.969" cy="41.5046" r="19.9873" stroke="black"/>
<circle cx="223.969" cy="41.5046" r="9.90039" stroke="black"/>
</g>
<g clip-path="url(#clip0_986_8729)">
<path d="M224.395 36.4321V46.5772M226.931 37.3544H223.473C222.922 37.3544 222.394 37.573 222.005 37.9622C221.616 38.3514 221.397 38.8792 221.397 39.4295C221.397 39.9799 221.616 40.5077 222.005 40.8969C222.394 41.286 222.922 41.5047 223.473 41.5047H225.317C225.59 41.5047 225.86 41.5584 226.111 41.6626C226.363 41.7669 226.592 41.9198 226.785 42.1125C226.977 42.3052 227.13 42.5339 227.234 42.7857C227.339 43.0375 227.392 43.3073 227.392 43.5798C227.392 43.8523 227.339 44.1222 227.234 44.3739C227.13 44.6257 226.977 44.8545 226.785 45.0472C226.592 45.2398 226.363 45.3927 226.111 45.497C225.86 45.6013 225.59 45.6549 225.317 45.6549H221.859" stroke="black" stroke-width="0.922282" stroke-linecap="round" stroke-linejoin="round"/>
</g>
<path d="M224.176 41.5046L260.052 21.6449" stroke="black" stroke-linecap="round"/>
<defs>
<filter id="filter0_d_986_8729" x="183.547" y="8.08286" width="74.8436" height="74.8436" filterUnits="userSpaceOnUse" color-interpolation-filters="sRGB">
<feFlood flood-opacity="0" result="BackgroundImageFix"/>
<feColorMatrix in="SourceAlpha" type="matrix" values="0 0 0 0 0 0 0 0 0 0 0 0 0 0 0 0 0 0 127 0" result="hardAlpha"/>
<feOffset dx="-3" dy="4"/>
<feGaussianBlur stdDeviation="4.05"/>
<feComposite in2="hardAlpha" operator="out"/>
<feColorMatrix type="matrix" values="0 0 0 0 0 0 0 0 0 0 0 0 0 0 0 0 0 0 0.3 0"/>
<feBlend mode="normal" in2="BackgroundImageFix" result="effect1_dropShadow_986_8729"/>
<feBlend mode="normal" in="SourceGraphic" in2="effect1_dropShadow_986_8729" result="shape"/>
</filter>
<linearGradient id="paint0_linear_986_8729" x1="214.185" y1="90.4529" x2="148.367" y2="0.441395" gradientUnits="userSpaceOnUse">
<stop stop-color="#51AA98"/>
<stop offset="1" stop-color="#C3E1DE"/>
</linearGradient>
<clipPath id="clip0_986_8729">
<rect width="11.0674" height="11.0674" fill="white" transform="translate(218.861 35.9709)"/>
</clipPath>
</defs>
</svg>
