<svg width="284" height="217" viewBox="0 0 284 217" fill="none" xmlns="http://www.w3.org/2000/svg">
<g clip-path="url(#clip0_986_8728)">
<g clip-path="url(#clip1_986_8728)">
<g clip-path="url(#clip2_986_8728)">
<g clip-path="url(#clip3_986_8728)">
<path d="M249.146 66.757C249.095 66.8814 249.069 67.0151 249.071 67.1497C249.073 67.2844 249.103 67.4172 249.158 67.54C249.214 67.6627 249.294 67.7729 249.393 67.8636C249.493 67.9544 249.61 68.0239 249.737 68.0678L252.966 69.2453C253.506 69.4423 254.098 69.157 254.364 68.6465C255.653 66.2073 258.096 64.9787 261.235 66.1234C263.92 67.1026 265.889 69.3414 264.711 72.5705C263.805 75.0559 261.924 75.665 258.977 76.5593C255.645 77.5127 252.744 78.9868 251.57 82.6694L251.272 83.523C251.182 83.7813 251.198 84.0644 251.315 84.3113C251.432 84.5582 251.642 84.7491 251.899 84.8427L255.073 86.0002C255.333 86.0949 255.619 86.0825 255.87 85.966C256.12 85.8494 256.314 85.6381 256.409 85.3786L256.558 84.9676C257.583 82.1573 258.95 81.7289 262.633 80.5929C265.677 79.65 268.896 78.5445 270.436 74.3213C272.593 68.4071 268.641 63.7286 263.173 61.7347C258.214 59.9262 251.939 60.2544 249.146 66.757ZM247.015 91.5359C246.254 93.6221 247.355 95.7709 249.645 96.6059C252.028 97.4751 254.231 96.531 254.991 94.4448C255.779 92.2843 254.689 90.1662 252.306 89.2969C250.02 88.4634 247.803 89.3754 247.015 91.5359Z" fill="black"/>
</g>
</g>
</g>
</g>
<path d="M238.424 215.499C236.701 153.915 244.217 125.047 183.258 125.047C131.489 125.047 132.865 147.179 133.202 215.499" fill="black"/>
<path d="M237.588 215.499C237.087 197.11 238.165 178.298 235.48 160.044C233.537 146.842 227.84 135.642 214.975 130.407C207.036 127.183 198.203 126.366 189.716 126.01C180.786 125.634 171.645 125.836 162.859 127.588C149.994 130.157 141.305 137.682 137.6 150.297C135.031 159.024 134.579 168.358 134.242 177.394C133.771 190.086 133.992 202.807 134.059 215.508C134.069 216.596 132.385 216.596 132.375 215.508C132.279 196.35 131.269 176.691 134.271 157.687C136.022 146.621 140.285 135.998 150.398 130.215C163.369 122.796 181.354 123.565 195.643 124.682C208.326 125.673 221.922 128.867 229.899 139.587C235.99 147.776 237.328 158.765 238.117 168.628C239.349 184.197 238.868 199.901 239.291 215.508C239.301 216.586 237.617 216.586 237.588 215.499Z" fill="white"/>
<path d="M197.289 102.915C196.962 120.553 203.236 134.669 186.387 134.669C168.547 134.669 173.589 125.22 174.493 102.915" fill="white"/>
<path d="M198.127 102.915C198.05 111.21 200.417 120.361 198.31 128.501C196.549 135.304 188.928 135.786 183.116 135.391C178.006 135.035 173.811 132.985 172.656 127.722C170.953 119.937 173.291 110.767 173.647 102.915C173.695 101.837 175.379 101.828 175.331 102.915C175.023 109.853 174.013 116.781 173.994 123.729C173.974 130.031 176.89 133.062 183.116 133.697C190.823 134.496 196.76 132.379 197.29 124.046C197.732 117.041 196.375 109.939 196.443 102.915C196.452 101.837 198.136 101.828 198.127 102.915Z" fill="black"/>
<path d="M215.38 57.6901C215.38 82.6412 225.252 118.379 184.732 117.35C149.995 116.387 153.776 91.4554 157.144 57.6901" fill="white"/>
<path d="M216.226 57.6895C216.283 70.7761 218.699 84.0744 216.158 97.0647C213.628 109.978 204.053 116.695 191.38 118.003C178.409 119.341 162.763 116.598 157.038 103.444C151.062 89.7324 154.892 71.9404 156.316 57.6895C156.422 56.6214 158.106 56.6117 158 57.6895C156.643 71.2476 153.891 86.1721 157.471 99.5955C161.397 114.308 176.831 117.108 190.129 116.416C204.072 115.684 212.867 107.649 214.984 94.0336C216.842 82.0536 214.59 69.7272 214.542 57.6895C214.532 56.6021 216.216 56.6117 216.226 57.6895Z" fill="black"/>
<path d="M214.629 79.1675C221.749 78.2245 225.117 80.3799 225.117 85.6434C225.117 89.8292 221.605 92.5235 213.878 91.0417" fill="white"/>
<path d="M214.629 78.3203C220.345 77.6371 225.801 79.0228 225.965 85.643C226.118 92.3114 218.488 92.706 213.657 91.8592C212.589 91.6667 213.041 90.0501 214.1 90.233C218.045 90.9258 224.107 91.0028 224.271 85.643C224.444 79.9465 219.036 79.475 214.62 80.0043C213.551 80.139 213.561 78.4551 214.629 78.3203Z" fill="black"/>
<path d="M211.281 47.4696C210.637 57.7176 205.825 65.4829 195.885 64.7227C191.719 64.3475 187.543 62.0669 183.058 63.9625C179.209 65.4829 176.323 69.2742 172.474 71.5451C166.383 74.5858 165.42 71.9203 159.964 69.2742C156.115 67.3785 152.266 69.2742 148.417 68.1387C142.961 66.6184 139.112 63.4044 139.112 56.9574C139.112 49.7501 142.961 48.7879 146.81 44.9966C153.229 38.5399 154.508 27.9166 163.486 25.6457C171.502 23.7405 176.958 30.5821 184.338 30.1972C190.756 29.8219 195.885 22.9803 202.621 25.2608C208.077 27.1565 211.281 34.7486 210.964 41.1957" fill="black"/>
<path d="M204.861 57.7863C206.786 68.3711 212.242 77.6664 214.484 88.2511C221.864 79.9084 236.616 31.3148 209.028 35.3274" fill="black"/>
<path d="M162.84 65.801C159.636 73.499 158.029 80.2348 156.104 88.2503C150.263 79.5035 148.089 62.2696 152.255 55.5338" fill="black"/>
<path d="M206.711 41.5825C206.192 45.9126 205.855 50.7431 202.218 53.678C198.272 56.863 191.691 54.8519 187.293 54.0436C182.107 53.0814 177.796 53.5432 173.677 57.1709C171.454 59.1243 169.645 61.3279 167.086 62.8675C165.007 64.1088 162.573 64.0222 160.34 63.4063C159.032 63.0407 157.79 62.0399 156.684 61.299C154.057 59.5381 151.257 59.3168 148.264 59.6439C147.34 59.7401 147.35 58.2968 148.264 58.2005C150.497 57.96 152.941 57.7964 155.048 58.7779C158.897 60.5773 161.697 63.6854 166.374 61.6262C170.81 59.6728 172.917 54.2746 177.767 52.8408C182.549 51.4263 187.168 52.6003 191.941 53.447C195.896 54.1495 200.447 54.4189 203.045 50.7335C204.787 48.2797 204.931 44.4596 205.277 41.6017C205.374 40.6683 206.817 40.6587 206.711 41.5825Z" fill="white"/>
<path d="M194.201 38.0608C193.999 46.8076 184.723 45.3162 178.574 44.8735C171.925 44.402 169.259 48.7995 164.525 52.1866C159.906 55.4871 155.028 49.4346 150.38 52.7928C149.62 53.3413 148.908 52.0904 149.649 51.5515C152.256 49.6655 154.345 49.8868 157.308 50.9164C163.226 52.966 164.862 49.2999 168.894 46.2592C171.906 43.9883 174.821 43.3339 178.564 43.4398C183.626 43.5745 192.565 46.0475 192.748 38.0704C192.777 37.1274 194.22 37.1274 194.201 38.0608Z" fill="white"/>
<path d="M210.281 51.6179C209.444 57.4972 211.705 64.5601 215.545 69.0346C216.151 69.737 215.131 70.7666 214.525 70.0546C210.3 65.1375 207.962 57.6704 208.886 51.2329C209.021 50.3188 210.406 50.7134 210.281 51.6179Z" fill="white"/>
<path d="M215.592 48.856C215.505 53.446 216.419 57.7472 219.181 61.4808C219.739 62.2313 218.478 62.953 217.93 62.2121C215.034 58.2861 214.052 53.6769 214.139 48.856C214.168 47.9323 215.611 47.9323 215.592 48.856Z" fill="white"/>
<path d="M193.535 79.7831C191.101 82.3811 194.863 85.6047 196.961 83.6898C200.175 80.7549 195.517 77.3486 193.535 79.7831Z" fill="black"/>
<path d="M174.291 79.7831C171.856 82.3811 175.619 85.6047 177.716 83.6898C180.93 80.7549 176.273 77.3486 174.291 79.7831Z" fill="black"/>
<path d="M186.588 81.4953C186.068 84.3051 184.904 86.9224 184.182 89.6745C183.913 89.3184 183.643 88.9624 183.374 88.6064C184.817 88.6064 186.261 88.6064 187.704 88.6064C188.791 88.6064 188.791 90.2903 187.704 90.2903C186.261 90.2903 184.817 90.2903 183.374 90.2903C182.825 90.2903 182.421 89.7514 182.566 89.2222C183.287 86.4702 184.452 83.8528 184.971 81.0431C185.164 79.975 186.78 80.4272 186.588 81.4953Z" fill="black"/>
<path d="M198.662 90.9838C193.813 96.1415 201.299 102.579 205.475 98.7588C211.874 92.9276 202.608 86.1341 198.662 90.9838Z" fill="#F8C9D8"/>
<path d="M164.985 90.9838C160.135 96.1415 167.621 102.579 171.797 98.7588C178.196 92.9276 168.93 86.1341 164.985 90.9838Z" fill="#F8C9D8"/>
<path d="M199.635 76.2316C196.479 77.3286 193.448 77.2997 190.484 75.6639C189.531 75.1443 190.378 73.6817 191.331 74.2109C193.909 75.635 196.45 75.5581 199.183 74.6054C200.212 74.2494 200.655 75.8756 199.635 76.2316Z" fill="black"/>
<path d="M181.509 75.7512C178.199 77.031 174.581 78.2049 171.396 75.9918C170.511 75.3759 171.357 73.9133 172.243 74.5388C175.033 76.4825 178.189 75.2412 181.057 74.1346C182.077 73.7305 182.51 75.3663 181.509 75.7512Z" fill="black"/>
<path d="M192.613 96.2749C191.14 95.7168 188.08 94.4082 187.234 96.4866C186.829 97.4777 185.203 97.0447 185.607 96.044C186.935 92.8012 190.438 93.6576 193.055 94.6584C194.066 95.0336 193.623 96.6694 192.613 96.2749Z" fill="black"/>
<path d="M184.279 130.032C184.962 134.804 185.279 139.616 186.521 144.34C189.398 143.542 193.064 139.115 195.595 137.229C198.126 135.343 200.3 134.054 203.678 132.322C202.966 131.263 198.347 125.134 196.778 124.662L184.279 130.032Z" fill="white"/>
<path d="M185.088 129.801C185.742 134.593 186.185 139.395 187.33 144.11C186.984 143.917 186.637 143.715 186.291 143.523C189.745 142.224 192.18 138.875 194.999 136.623C197.52 134.612 200.407 133.063 203.255 131.581C203.159 131.966 203.053 132.351 202.957 132.736C201.6 130.802 200.099 128.964 198.511 127.212C197.847 126.481 196.587 125.644 196.991 125.471C196.317 125.759 195.644 126.048 194.97 126.337C191.545 127.809 188.119 129.281 184.693 130.754C183.712 131.177 182.846 129.724 183.847 129.301C187.859 127.578 191.872 125.846 195.894 124.114C198.954 122.796 202.918 129.762 204.41 131.879C204.66 132.245 204.487 132.832 204.112 133.034C200.446 134.93 196.962 136.979 193.912 139.799C191.708 141.839 189.611 144.061 186.753 145.139C186.329 145.303 185.819 144.966 185.713 144.552C184.568 139.837 184.126 135.045 183.471 130.244C183.317 129.195 184.944 128.733 185.088 129.801Z" fill="black"/>
<path d="M164.49 132.258C167.773 133.948 169.925 135.23 172.422 137.091C173.285 137.734 174.282 138.672 175.326 139.656C175.824 140.124 176.332 140.603 176.842 141.065C177.636 141.784 178.437 142.466 179.217 143.016C179.935 143.524 180.626 143.914 181.271 144.123C182.126 140.808 182.532 137.457 182.939 134.093C183.098 132.776 183.258 131.457 183.445 130.138L171.128 124.847C170.97 124.907 170.767 125.032 170.523 125.22C170.253 125.429 169.947 125.706 169.617 126.032C168.958 126.684 168.215 127.523 167.497 128.383C166.182 129.957 164.958 131.591 164.49 132.258Z" fill="white" stroke="black" stroke-width="0.345388"/>
<path d="M184.443 130.253C183.788 135.045 183.346 139.846 182.201 144.561C182.095 144.975 181.585 145.312 181.161 145.148C178.313 144.08 176.177 141.858 174.002 139.808C170.99 136.969 167.449 134.939 163.802 133.043C163.417 132.841 163.244 132.254 163.504 131.889C164.822 130.012 169.056 122.843 171.77 124.017C175.869 125.778 179.968 127.549 184.067 129.31C185.058 129.743 184.202 131.186 183.221 130.763C179.795 129.291 176.369 127.818 172.944 126.346C172.357 126.096 171.76 125.836 171.173 125.586C171.038 125.528 170.904 125.47 170.769 125.413C171.674 125.798 170.442 126.182 169.961 126.644C168.094 128.453 166.449 130.628 164.967 132.755C164.87 132.37 164.765 131.985 164.668 131.6C167.517 133.082 170.403 134.621 172.924 136.642C175.744 138.894 178.178 142.242 181.633 143.541C181.286 143.734 180.94 143.936 180.594 144.128C181.739 139.423 182.181 134.612 182.836 129.82C182.97 128.732 184.587 129.194 184.443 130.253Z" fill="black"/>
<path d="M188.552 194.243C195.952 193.627 225.089 193.213 217.737 210.553C213.821 219.8 194.941 211.861 186.3 211.246" fill="white"/>
<path d="M188.552 193.406C197.597 192.694 215.803 192.126 219.421 202.951C221.307 208.609 217.439 214.479 211.925 215.595C203.467 217.318 194.633 212.862 186.3 212.093C185.232 211.996 185.222 210.312 186.3 210.409C192.786 211.015 199.011 213.199 205.487 213.979C208.923 214.392 212.954 214.469 215.726 212.083C218.401 209.773 218.661 204.645 217.073 201.739C214.465 196.995 207.008 195.907 202.216 195.321C197.712 194.762 193.084 194.743 188.561 195.099C187.464 195.176 187.474 193.492 188.552 193.406Z" fill="#3B4772"/>
<path d="M149.302 183.831C163.698 185.63 177.506 186.285 191.295 192.549C191.247 199.583 191.112 206.617 191.42 213.641C182.384 215.614 169.327 215.287 163.486 215.287C156.702 215.287 146.213 215.287 140.045 212.198C129.557 207.262 128.797 194.926 128.797 184.437C128.797 169.012 128.71 129.858 160.647 127.212" fill="black"/>
<path d="M149.303 182.994C163.775 184.764 178.209 185.9 191.719 191.827C191.979 191.943 192.142 192.289 192.133 192.559C192.075 199.593 191.988 206.617 192.258 213.651C192.267 214.007 191.988 214.392 191.642 214.459C183.347 216.134 174.831 216.182 166.402 216.153C158.271 216.114 149.88 216.432 142.028 213.949C127.845 209.456 127.873 192.77 127.97 180.569C128.143 157.889 133.301 129.089 160.648 126.404C161.725 126.298 161.716 127.982 160.648 128.088C144.559 129.666 135.754 141.579 132.127 156.397C129.144 168.57 128.566 182.994 130.26 195.416C130.895 200.054 132.483 204.49 135.61 208.032C139.218 212.111 144.992 213.295 150.13 213.94C158.906 215.037 168.172 214.642 176.996 214.363C179.479 214.286 181.961 214.103 184.444 213.882C188.139 213.545 190.583 214.046 190.458 209.841C190.372 206.646 190.381 203.451 190.4 200.257C190.42 195.878 191.026 193.222 186.118 191.365C174.398 186.939 161.639 186.208 149.312 184.707C148.235 184.543 148.225 182.859 149.303 182.994Z" fill="white"/>
<path d="M186.039 190.635C185.365 198.515 186.337 206.415 185.211 214.277C185.058 215.345 183.431 214.893 183.585 213.834C184.692 206.136 183.691 198.371 184.355 190.644C184.451 189.557 186.135 189.547 186.039 190.635Z" fill="white"/>
<path d="M150.629 165.193C150.08 171.351 150.331 177.519 150.359 183.697C150.359 184.784 148.675 184.784 148.675 183.697C148.647 177.519 148.406 171.351 148.945 165.193C149.041 164.125 150.725 164.115 150.629 165.193Z" fill="white"/>
<path d="M211.395 133.177C209.845 128.405 208.7 123.247 206.68 119.061C204.659 114.875 201.753 111.662 196.662 110.767C194.141 110.468 189.696 111.007 185.962 112.172C182.229 113.345 179.198 115.154 179.496 117.425C179.621 118.388 181.084 118.619 183.499 118.503C185.914 118.388 189.272 117.935 193.189 117.502C178.12 118.667 180.218 134.784 194.863 133.61C195.864 134.698 197.548 136.218 197.808 138.672" fill="white"/>
<path d="M210.578 133.399C208.067 125.393 206.209 112.268 195.625 111.527C191.179 111.219 186.021 112.605 182.172 114.741C181.181 117.166 181.624 118.138 183.491 117.666C184.26 117.628 185.021 117.57 185.781 117.493C188.254 117.281 190.717 116.945 193.181 116.666C193.181 117.224 193.181 117.791 193.181 118.35C187.022 119.014 179.815 124.652 186.079 130.541C188.841 133.139 191.92 131.927 195.076 132.803C196.991 133.332 198.232 136.815 198.608 138.461C198.848 139.519 197.222 139.971 196.981 138.903C196.067 134.862 194.499 134.91 191.141 134.371C189.447 134.092 187.927 133.62 186.406 132.822C184.164 131.648 182.654 129.425 182.105 127.01C180.623 120.428 187.994 117.233 193.171 116.666C194.249 116.55 194.239 118.234 193.171 118.35C190.303 118.667 180.46 121.467 178.747 117.849C176.707 113.538 186.339 111.142 188.61 110.603C194.181 109.285 199.426 109.555 203.833 113.481C209.029 118.109 210.232 126.702 212.195 132.957C212.531 133.996 210.905 134.438 210.578 133.399Z" fill="black"/>
<path d="M192.352 124.056C188.946 124.277 186.155 125.894 183.971 128.463C183.269 129.29 182.075 128.097 182.778 127.27C185.27 124.354 188.513 122.622 192.352 122.372C193.44 122.295 193.43 123.979 192.352 124.056Z" fill="black"/>
<path d="M192.256 128.674C189.86 129.252 187.483 129.579 185.405 130.993C184.5 131.6 183.663 130.147 184.558 129.54C186.761 128.049 189.273 127.664 191.813 127.048C192.862 126.798 193.314 128.424 192.256 128.674Z" fill="black"/>
<path d="M238.385 193.011C235.97 175.084 230.1 157.899 220.141 140.694C215.686 132.996 215.127 132.033 215.127 132.033C208.045 134.121 200.905 136.344 191.956 140.232C191.956 140.232 201.338 179.405 207.198 196.581C214.204 217.096 239.8 212.737 238.385 193.011Z" fill="black"/>
<path d="M237.577 193.232C234.479 171.244 225.78 152.144 214.772 133.091C214.137 132.004 214.859 132.995 214.031 133.236C211.77 133.909 209.518 134.602 207.276 135.324C205.842 135.785 192.9 140.501 192.804 140.116C193.814 144.311 194.854 148.497 195.902 152.683C199.569 167.309 203.196 182.05 208.017 196.35C210.558 203.884 216.918 209.59 225.126 209.128C233.603 208.647 237.905 200.68 237.549 193.001C237.501 191.914 239.184 191.923 239.233 193.001C239.627 201.575 234.999 209.205 226.175 210.687C216.754 212.265 209.403 204.991 206.391 196.802C199.732 178.654 195.652 159.236 191.149 140.452C191.072 140.116 191.187 139.654 191.534 139.5C199.155 136.228 206.959 133.572 214.907 131.215C215.263 131.109 215.677 131.282 215.86 131.6C227.05 151.056 236.038 170.33 239.204 192.78C239.348 193.848 237.731 194.3 237.577 193.232Z" fill="white"/>
<path d="M218.304 138.682C213.993 139.336 210.105 141.136 206.054 142.656C202.09 144.138 197.875 144.705 193.92 146.226C192.91 146.62 192.467 144.985 193.478 144.6C197.423 143.089 201.599 142.377 205.612 141.03C209.74 139.644 213.512 137.71 217.861 137.056C218.919 136.892 219.372 138.518 218.304 138.682Z" fill="white"/>
<path d="M256.507 216.836C209.357 216.836 162.206 216.836 115.056 216.836C113.969 216.836 113.969 215.152 115.056 215.152C162.206 215.152 209.357 215.152 256.507 215.152C257.594 215.152 257.594 216.836 256.507 216.836Z" fill="white"/>
<path fill-rule="evenodd" clip-rule="evenodd" d="M90.277 39.7868C92.6762 42.106 96.5705 42.106 98.9697 39.7867C102.593 40.3309 105.112 41.5345 105.112 42.9318C105.112 44.8398 100.416 46.3865 94.6235 46.3865C88.8307 46.3865 84.1348 44.8398 84.1348 42.9318C84.1348 41.5345 86.6534 40.3309 90.277 39.7868Z" fill="black"/>
<path fill-rule="evenodd" clip-rule="evenodd" d="M95.3536 120.271C97.1265 121.262 99.3317 121.262 101.105 120.271C104.259 120.656 106.508 121.656 106.508 122.829C106.508 124.335 102.801 125.556 98.2282 125.556C93.6556 125.556 89.9487 124.335 89.9487 122.829C89.9487 121.656 92.198 120.656 95.3536 120.271Z" fill="black"/>
<path fill-rule="evenodd" clip-rule="evenodd" d="M10.9561 89.2317C13.1985 91.3995 16.8384 91.3995 19.0808 89.2317C22.4674 89.7403 24.8213 90.8652 24.8213 92.1711C24.8213 93.9544 20.4324 95.4 15.0183 95.4C9.60429 95.4 5.21533 93.9544 5.21533 92.1711C5.21533 90.8652 7.56938 89.7403 10.9561 89.2317Z" fill="black"/>
<path d="M94.6246 0.369873C90.4369 0.374813 86.4221 2.04056 83.461 5.00172C80.4998 7.96288 78.8341 11.9776 78.8291 16.1654C78.8241 19.5876 79.942 22.9169 82.0112 25.6426C82.0112 25.6426 82.442 26.2098 82.5123 26.2917L94.6246 40.5765L106.743 26.2845C106.806 26.2084 107.238 25.6426 107.238 25.6426L107.239 25.6383C109.308 22.9138 110.425 19.586 110.42 16.1654C110.415 11.9776 108.749 7.96288 105.788 5.00172C102.827 2.04056 98.8123 0.374813 94.6246 0.369873ZM94.6246 21.9092C93.4886 21.9092 92.3781 21.5723 91.4335 20.9412C90.4889 20.31 89.7527 19.413 89.318 18.3634C88.8833 17.3139 88.7695 16.159 88.9912 15.0448C89.2128 13.9306 89.7598 12.9072 90.5631 12.1039C91.3664 11.3006 92.3898 10.7535 93.504 10.5319C94.6182 10.3103 95.7731 10.424 96.8227 10.8588C97.8722 11.2935 98.7693 12.0297 99.4004 12.9743C100.032 13.9188 100.368 15.0293 100.368 16.1654C100.367 17.6881 99.7607 19.148 98.684 20.2247C97.6072 21.3015 96.1474 21.9073 94.6246 21.9092Z" fill="black"/>
<path d="M98.2278 89.2318C94.9221 89.2357 91.753 90.5506 89.4155 92.8881C87.0781 95.2255 85.7632 98.3947 85.7593 101.7C85.7553 104.402 86.6377 107.03 88.2711 109.181C88.2711 109.181 88.6112 109.629 88.6667 109.694L98.2278 120.97L107.793 109.688C107.843 109.628 108.184 109.181 108.184 109.181L108.186 109.178C109.818 107.027 110.7 104.4 110.696 101.7C110.692 98.3947 109.378 95.2255 107.04 92.8881C104.703 90.5506 101.533 89.2357 98.2278 89.2318ZM98.2278 106.234C97.3311 106.234 96.4545 105.968 95.7088 105.47C94.9632 104.972 94.3821 104.264 94.0389 103.435C93.6958 102.607 93.606 101.695 93.7809 100.816C93.9559 99.9363 94.3877 99.1284 95.0218 98.4943C95.6559 97.8602 96.4638 97.4284 97.3433 97.2534C98.2228 97.0785 99.1344 97.1683 99.9629 97.5115C100.791 97.8546 101.499 98.4358 101.998 99.1814C102.496 99.927 102.762 100.804 102.762 101.7C102.76 102.902 102.282 104.055 101.432 104.905C100.582 105.755 99.4298 106.233 98.2278 106.234Z" fill="black"/>
<path d="M15.0158 52.3922C11.1019 52.3968 7.34956 53.9537 4.58199 56.7213C1.81441 59.4888 0.257563 63.2411 0.252945 67.1551C0.248258 70.3535 1.29303 73.4652 3.22699 76.0128C3.22699 76.0128 3.62961 76.5429 3.69538 76.6194L15.0158 89.9704L26.3416 76.6127C26.4006 76.5416 26.8046 76.0128 26.8046 76.0128L26.806 76.0088C28.739 73.4623 29.7832 70.3521 29.7787 67.1551C29.774 63.2411 28.2172 59.4888 25.4496 56.7213C22.682 53.9537 18.9297 52.3968 15.0158 52.3922ZM15.0158 72.5234C13.9541 72.5234 12.9161 72.2085 12.0333 71.6187C11.1505 71.0288 10.4624 70.1904 10.0561 69.2094C9.64981 68.2285 9.5435 67.1491 9.75064 66.1078C9.95778 65.0664 10.4691 64.1099 11.2198 63.3591C11.9706 62.6083 12.9271 62.097 13.9685 61.8899C15.0098 61.6828 16.0892 61.7891 17.0702 62.1954C18.0511 62.6017 18.8895 63.2898 19.4794 64.1726C20.0693 65.0554 20.3841 66.0933 20.3841 67.1551C20.3823 68.5783 19.8162 69.9427 18.8098 70.9491C17.8034 71.9555 16.439 72.5216 15.0158 72.5234Z" fill="black"/>
<path d="M94.6071 42.2529L19.8594 93.0953L94.6071 122.686" stroke="black" stroke-width="1.98938"/>
<defs>
<clipPath id="clip0_986_8728">
<rect width="250" height="200" fill="white" transform="translate(33.124 8.60327)"/>
</clipPath>
<clipPath id="clip1_986_8728">
<rect width="250" height="200" fill="white" transform="translate(33.124 8.60327)"/>
</clipPath>
<clipPath id="clip2_986_8728">
<rect width="250" height="200" fill="white" transform="translate(33.124 8.60327)"/>
</clipPath>
<clipPath id="clip3_986_8728">
<rect width="250" height="200" fill="white" transform="translate(33.124 8.60327)"/>
</clipPath>
</defs>
</svg>
