<svg width="235" height="231" viewBox="0 0 235 231" fill="none" xmlns="http://www.w3.org/2000/svg">
<g clip-path="url(#clip0_986_8727)">
<path d="M23.2911 230.307H95.2538C87.5039 196.212 95.7508 134.937 95.7508 134.937H22.8423C22.8423 134.937 30.2018 196.515 23.2911 230.307Z" fill="black"/>
<path d="M95.7916 128.7C87.5984 124.664 79.7317 123.143 75.4706 121.35C71.6806 124.552 66.0796 126.577 59.8305 126.577C53.5813 126.577 47.9804 124.552 44.1904 121.35C39.9287 123.141 32.0644 124.659 23.8693 128.7C12.2783 134.412 10.7119 152.603 10.7119 152.603H108.944C108.944 152.603 107.383 134.412 95.7916 128.7Z" fill="black"/>
<path d="M90.8379 159.002L93.3284 171.119" stroke="#C13A3A" stroke-width="0.430146" stroke-linecap="round" stroke-linejoin="round"/>
<path d="M27.76 159.002L25.2695 171.119" stroke="#C13A3A" stroke-width="0.430146" stroke-linecap="round" stroke-linejoin="round"/>
<path d="M117.234 185.461L117.234 185.461C117.579 187.815 116.544 191.451 114.408 194.11C113.345 195.434 112.022 196.5 110.482 197.045C108.947 197.589 107.18 197.623 105.207 196.858C101.126 195.275 98.8611 194.346 97.4219 192.986C96.0023 191.644 95.3655 189.86 94.6569 186.454C93.9572 183.091 93.1606 174.218 92.535 166.118H114.291C115.569 174.345 116.87 182.979 117.234 185.461Z" fill="white" stroke="black" stroke-width="0.545792"/>
<path d="M116.125 169.286C116.125 169.286 105.142 178.125 91.6402 177.149C91.6402 177.149 88.2334 161.768 88.2334 156.346C88.2334 150.923 97.5761 131.956 97.5761 131.956C111.212 138.833 115.641 168.187 116.125 169.286Z" fill="black"/>
<path d="M22.9566 185.759L22.9566 185.759C21.8987 189.035 20.3682 190.799 18.4594 191.657C16.5344 192.523 14.171 192.493 11.3906 192.055C7.14479 191.386 4.82009 189.068 3.5497 186.92C2.9126 185.842 2.54007 184.805 2.32704 184.038C2.22061 183.655 2.15424 183.34 2.11462 183.121C2.09482 183.012 2.08171 182.928 2.07364 182.871C2.07174 182.858 2.07012 182.846 2.06875 182.836C2.52446 181.077 3.75711 176.389 5.1964 170.973C8.89562 172.38 17.0339 174.387 26.8371 173.798L26.8225 173.843L26.4501 174.991L25.2646 178.644C24.3654 181.415 23.3642 184.501 22.9566 185.759Z" fill="white" stroke="black" stroke-width="0.545792"/>
<path d="M87.8994 159.002L90.3899 171.119" stroke="white" stroke-width="1.31598" stroke-linecap="round" stroke-linejoin="round"/>
<path d="M10.2429 179.083C12.3239 178.955 15.5848 179.199 18.6263 179.586C21.6742 179.973 24.4528 180.497 25.5803 180.916C27.9185 181.783 32.7532 183.272 38.5165 183.561C41.3863 183.704 43.9821 183.729 45.8604 183.718C46.7997 183.712 47.5598 183.698 48.0854 183.685C48.3482 183.678 48.5523 183.672 48.691 183.667C48.7403 183.666 48.7813 183.664 48.8137 183.663L65.2097 194.685C57.06 198.464 44.9984 200.138 34.1698 200.772C23.1546 201.417 13.4669 200.984 10.5667 200.62C5.87662 200.032 3.13394 197.727 1.85958 194.539C0.57617 191.328 0.765312 187.179 2.05262 182.896L2.05262 182.896C2.30377 182.061 2.64365 181.435 3.07493 180.957C3.50545 180.479 4.03856 180.136 4.6953 179.882C6.02572 179.368 7.82699 179.231 10.2429 179.083ZM10.2429 179.083L10.2261 178.81M10.2429 179.083L10.2261 178.81M10.2261 178.81C14.4414 178.551 23.3534 179.798 25.6752 180.66C27.997 181.521 32.8034 183.001 38.5302 183.288C44.257 183.575 48.8923 183.387 48.8923 183.387L10.5328 200.891C0.977377 199.693 -0.802248 191.445 1.79128 182.818C2.8311 179.358 5.42161 179.106 10.2261 178.81Z" fill="white" stroke="black" stroke-width="0.545792"/>
<path d="M67.9917 179.688C67.9917 179.688 77.2922 174.558 79.7683 172.477C82.2443 170.395 89.8291 164.941 91.9979 164.294C94.1667 163.648 99.89 162.572 102.214 162.859C104.537 163.147 104.613 164.797 104.458 165.317C104.303 165.838 103.529 166.824 102.368 166.878C101.207 166.933 98.9435 167.399 98.2857 167.489C97.6278 167.578 95.4421 168.565 94.571 169.031C94.571 169.031 98.9435 168.439 100.569 168.404C102.194 168.368 106.495 168.816 107.243 169.006C107.992 169.196 108.972 169.724 108.946 170.538C108.92 171.351 108.611 172.26 107.63 172.526C107.63 172.526 108.611 173.004 108.611 174.081C108.611 175.157 107.94 175.779 107.218 176.069C106.495 176.358 102.961 177.05 102.961 177.05C102.961 177.05 105.102 177.05 105.18 178.342C105.258 179.633 104.81 180.363 101.542 181.141C99.8984 181.532 94.4487 183.03 92.6173 183.55L67.9917 179.688Z" fill="white"/>
<path d="M48.0385 183.368L48.0131 183.366L47.9876 183.368L47.9875 183.368L47.9861 183.368L47.9802 183.369L47.9547 183.371C47.9316 183.373 47.8965 183.376 47.8489 183.379C47.7537 183.386 47.6089 183.396 47.4124 183.406C47.0193 183.427 46.4194 183.451 45.5954 183.463C43.9476 183.487 41.4042 183.464 37.8295 183.275L37.8295 183.275C33.4957 183.045 29.205 182.217 25.0251 180.217L25.1422 179.695C25.1711 179.566 25.2037 179.42 25.24 179.259C25.3394 178.816 25.4659 178.251 25.6177 177.574C26.0255 175.755 26.6152 173.119 27.3486 169.826C27.4201 169.806 27.519 169.78 27.6457 169.752C27.9499 169.683 28.4144 169.597 29.0457 169.53C30.3082 169.396 32.2389 169.341 34.8894 169.661C37.5389 169.982 41.8742 171 46.4917 172.171C48.5243 172.687 50.6118 173.233 52.6291 173.76C55.1825 174.427 57.6233 175.065 59.6981 175.576C63.4247 176.494 71.1559 177.868 78.6528 179.186C79.1574 179.275 79.6609 179.364 80.162 179.452C87.1193 180.674 93.6233 181.816 96.2666 182.466C97.7362 182.828 99.779 182.783 101.985 182.635C102.784 182.582 103.604 182.515 104.432 182.447C105.914 182.326 107.419 182.204 108.864 182.153C111.118 182.073 113.168 182.173 114.678 182.709C115.429 182.976 116.031 183.346 116.46 183.842C116.886 184.336 117.155 184.971 117.214 185.796C117.767 193.518 116.411 198.764 113.603 201.927C110.803 205.08 106.502 206.227 101.005 205.615C85.0351 203.839 72.4109 198.347 63.4875 193.271C59.0257 190.732 55.4895 188.298 52.921 186.483C52.5595 186.228 52.2166 185.984 51.8926 185.754C51.068 185.168 50.3662 184.669 49.7938 184.285C49.395 184.017 49.0521 183.801 48.7693 183.647C48.4972 183.498 48.2448 183.387 48.0385 183.368Z" fill="white" stroke="black" stroke-width="0.545792"/>
<path d="M102.617 163.307C102.617 163.307 101.089 163.231 101.552 164.199C102.015 165.168 102.929 165.404 104.079 165.113" stroke="black" stroke-width="0.257847" stroke-linecap="round" stroke-linejoin="round"/>
<path d="M88.4561 170.259L89.9477 170.79C89.9477 170.79 91.2598 169.898 93.9919 169.151" stroke="black" stroke-width="0.257847" stroke-linecap="round" stroke-linejoin="round"/>
<path d="M106.999 169.266C106.999 169.266 106.477 169.301 106.444 169.687C106.412 170.074 106.558 171.049 106.999 171.277C107.439 171.505 108.324 171.513 108.324 171.513" stroke="black" stroke-width="0.257847" stroke-linecap="round" stroke-linejoin="round"/>
<path d="M107.101 172.366C107.101 172.366 102.342 172.947 99.3595 173.261C95.484 173.669 89.7933 176.191 89.7933 176.191L88.583 176.099" stroke="black" stroke-width="0.257847" stroke-linecap="round" stroke-linejoin="round"/>
<path d="M106.441 172.964C106.441 172.964 105.357 173.642 105.875 174.438C106.394 175.233 107.628 175.115 107.628 175.115" stroke="black" stroke-width="0.257847" stroke-linecap="round" stroke-linejoin="round"/>
<path d="M91.0366 180.31L91.7764 180.522C91.7764 180.522 93.1446 179.893 96.1104 178.865C100.123 177.472 102.416 176.976 102.416 176.976" stroke="black" stroke-width="0.257847" stroke-linecap="round" stroke-linejoin="round"/>
<path d="M103.273 177.473C103.273 177.473 102.075 177.913 102.509 178.767C102.944 179.622 104.411 179.557 104.411 179.557" stroke="black" stroke-width="0.257847" stroke-linecap="round" stroke-linejoin="round"/>
<path d="M104.219 177.224C104.219 177.224 105.38 177.44 105.38 178.514C105.38 179.589 104.703 180.522 101.284 181.263C100.701 181.389 99.745 181.634 98.7534 181.898" stroke="black" stroke-width="0.257847" stroke-linecap="round" stroke-linejoin="round"/>
<path d="M104.789 176.669C104.881 176.649 107.918 176.331 108.327 175.491C108.735 174.652 108.607 174.079 108.607 174.079" stroke="black" stroke-width="0.257847" stroke-linecap="round" stroke-linejoin="round"/>
<path d="M2.46973 169.286C2.46973 169.286 13.4535 178.125 26.9549 177.149C26.9549 177.149 30.3617 161.768 30.3617 156.346C30.3617 150.923 21.0238 131.956 21.0238 131.956C7.38508 138.833 2.95168 168.187 2.46973 169.286Z" fill="black"/>
<path d="M26.5293 177.072C17.6868 177.677 6.72048 172.225 2.48584 169.367C3.03611 166.912 4.52061 160.658 6.05642 155.282C7.97618 148.563 13.9556 137.392 16.7335 134.614C17.2239 134.123 17.8131 133.582 18.4535 133.023C22.6619 129.343 27.7326 126.835 33.0061 124.98L34.6784 124.392C37.5677 123.558 43.4918 121.809 44.0734 121.483C44.3292 121.041 45.5517 120.379 46.1309 120.103H73.7823C75.3484 121.056 79.8901 123.248 85.5281 124.392C91.1661 125.535 98.2376 130.3 101.069 132.539C108.839 140.31 116.268 168.709 116.148 169.276C116.053 169.729 111.038 172.468 108.542 173.78" stroke="white" stroke-width="0.877321"/>
<path d="M30.5851 159.002L26.8696 177.071" stroke="white" stroke-width="1.31598" stroke-linecap="round" stroke-linejoin="round"/>
<path d="M72.3755 177.867C72.3755 177.867 92.411 181.898 95.763 182.281" stroke="black" stroke-width="0.257847" stroke-linecap="round" stroke-linejoin="round"/>
<path d="M97.0034 182.333C97.0034 182.333 99.9193 182.514 101.793 182.374C103.666 182.233 104.908 182.133 104.908 182.133" stroke="black" stroke-width="0.257847" stroke-linecap="round" stroke-linejoin="round"/>
<path d="M71.7359 98.5469C71.4022 116.535 77.8008 130.932 60.617 130.932C42.4223 130.932 47.5647 121.295 48.4872 98.5469" fill="white"/>
<path d="M72.5896 98.5465C72.5111 107.006 74.9253 116.339 72.7761 124.641C70.9802 131.58 63.2077 132.07 57.2802 131.668C52.0691 131.305 47.7903 129.214 46.6127 123.846C44.8756 115.907 47.2604 106.555 47.6235 98.5465C47.6726 97.4474 49.39 97.4376 49.3409 98.5465C49.0269 105.622 47.9964 112.688 47.9768 119.774C47.9572 126.202 50.9307 129.293 57.2802 129.941C65.141 130.755 71.1961 128.596 71.7358 120.097C72.1873 112.953 70.8035 105.711 70.8722 98.5465C70.882 97.4474 72.5994 97.4376 72.5896 98.5465Z" fill="black"/>
<path d="M60.1599 126.202C60.8566 131.07 61.1805 135.977 62.4464 140.795C65.3807 139.981 69.1198 135.466 71.7008 133.543C74.2818 131.619 76.4997 130.304 79.9443 128.538C79.2181 127.458 74.5075 121.207 72.9079 120.726L60.1599 126.202Z" fill="white"/>
<path d="M60.9844 125.967C61.6517 130.854 62.1031 135.751 63.271 140.56C62.9177 140.363 62.5644 140.157 62.2111 139.961C65.7342 138.636 68.2171 135.221 71.0925 132.925C73.6637 130.874 76.6079 129.294 79.5127 127.782C79.4146 128.175 79.3066 128.567 79.2085 128.96C77.8248 126.987 76.2938 125.113 74.6745 123.327C73.9974 122.581 72.7118 121.727 73.124 121.551C72.437 121.845 71.75 122.139 71.0631 122.434C67.5694 123.935 64.0757 125.437 60.582 126.938C59.581 127.37 58.6978 125.888 59.7184 125.456C63.8107 123.7 67.9031 121.933 72.0052 120.167C75.126 118.822 79.1692 125.927 80.6904 128.086C80.9455 128.459 80.7689 129.058 80.3861 129.264C76.6471 131.197 73.0945 133.288 69.9836 136.163C67.7362 138.244 65.5968 140.511 62.6821 141.61C62.2503 141.777 61.7302 141.433 61.6223 141.011C60.4544 136.202 60.003 131.315 59.3357 126.418C59.1787 125.348 60.8372 124.877 60.9844 125.967Z" fill="black"/>
<path d="M39.9763 128.473C43.3254 130.196 45.5199 131.504 48.0662 133.402C48.9461 134.057 49.963 135.015 51.0281 136.018C51.5356 136.495 52.0541 136.984 52.5739 137.454C53.3841 138.188 54.2011 138.883 54.9961 139.445C55.7284 139.963 56.4338 140.361 57.091 140.574C57.9628 137.193 58.3768 133.775 58.7922 130.345C58.9549 129.001 59.1178 127.656 59.3086 126.311L46.7466 120.915C46.5855 120.976 46.378 121.103 46.1298 121.295C45.8543 121.508 45.5418 121.79 45.2056 122.123C44.5334 122.788 43.776 123.643 43.0433 124.52C41.7023 126.126 40.4538 127.792 39.9763 128.473Z" fill="white" stroke="black" stroke-width="0.352252"/>
<path d="M60.3266 126.428C59.6592 131.315 59.2078 136.212 58.04 141.021C57.932 141.443 57.4119 141.786 56.9801 141.619C54.0752 140.53 51.8966 138.263 49.6786 136.173C46.607 133.278 42.9955 131.207 39.2761 129.274C38.8836 129.068 38.7069 128.469 38.9719 128.096C40.3164 126.182 44.6344 118.871 47.4019 120.068C51.5825 121.864 55.7632 123.67 59.9438 125.466C60.9546 125.908 60.0812 127.38 59.0802 126.948C55.5865 125.446 52.0928 123.945 48.5992 122.443C48.0005 122.188 47.3921 121.923 46.7934 121.668C46.656 121.609 46.5186 121.55 46.3813 121.491C47.3037 121.884 46.0476 122.277 45.5569 122.748C43.653 124.593 41.9749 126.81 40.4636 128.979C40.3654 128.587 40.2575 128.194 40.1593 127.802C43.0642 129.313 46.0083 130.883 48.5795 132.944C51.4549 135.24 53.9378 138.656 57.461 139.981C57.1077 140.177 56.7544 140.383 56.4011 140.579C57.5689 135.78 58.0203 130.873 58.6877 125.986C58.8251 124.877 60.4738 125.348 60.3266 126.428Z" fill="black"/>
<path d="M23.5571 230.095C24.1029 228.13 25.5135 210.078 26.1505 201.298L62.5217 188.606L92.1374 201.23C91.3731 204.669 93.9116 221.906 95.2763 230.095H23.5571Z" stroke="white" stroke-width="0.877321"/>
</g>
<path d="M86.5473 66.0381C86.5473 87.9282 95.2088 119.282 59.6594 118.379C29.1838 117.534 32.5015 95.6611 35.4562 66.0381" fill="white"/>
<path d="M87.2894 66.0376C87.34 77.5188 89.459 89.1856 87.2303 100.582C85.0101 111.912 76.6102 117.804 65.4921 118.952C54.1123 120.126 40.3855 117.72 35.3625 106.179C30.12 94.1495 33.48 78.5402 34.7294 66.0376C34.8222 65.1006 36.2996 65.0921 36.2067 66.0376C35.0164 77.9324 32.602 91.026 35.7424 102.803C39.1867 115.71 52.7278 118.167 64.3946 117.559C76.6271 116.918 84.3431 109.869 86.2004 97.9231C87.8297 87.4128 85.8542 76.5986 85.812 66.0376C85.8036 65.0837 87.2809 65.0921 87.2894 66.0376Z" fill="black"/>
<path d="M85.887 84.8807C92.1341 84.0534 95.0889 85.9444 95.0889 90.5622C95.0889 94.2345 92.0075 96.5983 85.2286 95.2982" fill="white"/>
<path d="M85.8878 84.1374C90.9023 83.538 95.6889 84.7536 95.8325 90.5617C95.9675 96.4121 89.273 96.7582 85.0351 96.0153C84.0981 95.8464 84.4948 94.4282 85.4235 94.5886C88.8847 95.1964 94.2032 95.2639 94.3467 90.5617C94.4986 85.5641 89.7542 85.1504 85.8793 85.6147C84.9423 85.7329 84.9507 84.2556 85.8878 84.1374Z" fill="black"/>
<path d="M82.9502 57.0715C82.3846 66.0622 78.1636 72.875 69.443 72.208C65.7876 71.8788 62.1237 69.878 58.1897 71.5411C54.8129 72.8749 52.2803 76.2011 48.9035 78.1934C43.5597 80.8611 42.7155 78.5226 37.9289 76.2011C34.5521 74.538 31.1753 76.2011 27.7985 75.2049C23.0118 73.8711 19.635 71.0515 19.635 65.3953C19.635 59.0722 23.0119 58.228 26.3887 54.9019C32.0195 49.2373 33.1423 39.9173 41.0187 37.925C48.0509 36.2535 52.8375 42.2557 59.3125 41.9181C64.9434 41.5888 69.443 35.5865 75.3524 37.5873C80.139 39.2504 82.9502 45.9111 82.6716 51.5673" fill="black"/>
<path d="M77.3184 66.1225C79.0068 75.4087 83.7935 83.5637 85.7605 92.8499C92.2355 85.5307 105.177 42.8985 80.9738 46.4188" fill="black"/>
<path d="M40.4521 73.1541C37.641 79.9077 36.2311 85.8172 34.5427 92.8494C29.4184 85.1756 27.5105 70.0559 31.1659 64.1465" fill="black"/>
<path d="M78.9429 51.9067C78.487 55.7056 78.1915 59.9435 75.0005 62.5183C71.5392 65.3126 65.7649 63.5482 61.9069 62.8391C57.3566 61.9949 53.5746 62.4001 49.9614 65.5827C48.0113 67.2965 46.4242 69.2297 44.1787 70.5804C42.3552 71.6694 40.2193 71.5935 38.2608 71.0532C37.1127 70.7324 36.0236 69.8544 35.0528 69.2044C32.7481 67.6595 30.2915 67.4653 27.666 67.7523C26.8556 67.8368 26.864 66.5705 27.666 66.486C29.6246 66.275 31.7689 66.1315 33.6177 66.9926C36.9945 68.5712 39.4511 71.298 43.5539 69.4914C47.4457 67.7777 49.2945 63.0417 53.5493 61.7838C57.745 60.5429 61.7971 61.5728 65.9844 62.3157C69.4541 62.9319 73.4471 63.1683 75.7265 59.935C77.2545 57.7823 77.3811 54.4308 77.685 51.9236C77.7694 51.1047 79.0358 51.0962 78.9429 51.9067Z" fill="white"/>
<path d="M67.9657 48.817C67.7884 56.4908 59.6502 55.1823 54.2558 54.7939C48.4224 54.3803 46.0839 58.2383 41.9305 61.2099C37.8783 64.1055 33.5982 58.7955 29.5207 61.7417C28.8538 62.2229 28.229 61.1254 28.8791 60.6527C31.1669 58.9981 32.9988 59.1922 35.599 60.0955C40.7908 61.8937 42.2259 58.6773 45.7631 56.0096C48.4055 54.0173 50.9634 53.4432 54.2474 53.5361C58.6879 53.6543 66.5305 55.8238 66.6909 48.8254C66.7162 47.9981 67.9825 47.9981 67.9657 48.817Z" fill="white"/>
<path d="M82.0727 60.7111C81.3383 65.8692 83.3222 72.0656 86.6905 75.9911C87.2224 76.6074 86.3275 77.5107 85.7957 76.886C82.0896 72.5721 80.0382 66.0211 80.8486 60.3734C80.9668 59.5714 82.1825 59.9175 82.0727 60.7111Z" fill="white"/>
<path d="M86.7341 58.2879C86.6581 62.3147 87.4601 66.0883 89.883 69.3638C90.3726 70.0223 89.2667 70.6554 88.7855 70.0054C86.2445 66.5611 85.3834 62.5173 85.4594 58.2879C85.4847 57.4774 86.751 57.4774 86.7341 58.2879Z" fill="white"/>
<path d="M67.3807 85.4207C65.2449 87.7 68.5457 90.5281 70.3861 88.8481C73.2057 86.2733 69.1198 83.2848 67.3807 85.4207Z" fill="black"/>
<path d="M50.4984 85.4207C48.3626 87.7 51.6634 90.5281 53.5038 88.8481C56.3234 86.2733 52.2375 83.2848 50.4984 85.4207Z" fill="black"/>
<path d="M61.2857 86.9229C60.8299 89.388 59.8084 91.6842 59.1752 94.0986C58.9388 93.7863 58.7025 93.4739 58.4661 93.1616C59.7324 93.1616 60.9987 93.1616 62.265 93.1616C63.219 93.1616 63.219 94.6389 62.265 94.6389C60.9987 94.6389 59.7324 94.6389 58.4661 94.6389C57.9849 94.6389 57.6303 94.1661 57.757 93.7018C58.3901 91.2874 59.4116 88.9912 59.8675 86.5261C60.0363 85.5891 61.4546 85.9858 61.2857 86.9229Z" fill="black"/>
<path d="M71.8807 95.2473C67.6259 99.7723 74.1938 105.42 77.8576 102.069C83.4716 96.9527 75.3419 90.9926 71.8807 95.2473Z" fill="#FFF0F5"/>
<path d="M42.3343 95.2473C38.0795 99.7723 44.6474 105.42 48.3112 102.069C53.9252 96.9527 45.7955 90.9926 42.3343 95.2473Z" fill="#FFF0F5"/>
<path d="M48.136 81.287C50.905 80.3247 53.5643 80.35 56.1644 81.7851C57.0002 82.241 56.2573 83.5242 55.4215 83.0599C53.159 81.8105 50.9303 81.878 48.5328 82.7137C47.6295 83.0261 47.2412 81.5994 48.136 81.287Z" fill="black"/>
<path d="M64.0384 81.7086C66.9425 80.5858 70.1167 79.5559 72.911 81.4975C73.6877 82.0378 72.9448 83.321 72.1681 82.7723C69.7199 81.067 66.9509 82.156 64.4352 83.1268C63.5403 83.4814 63.1605 82.0463 64.0384 81.7086Z" fill="black"/>
<path d="M53.8672 103.083C58.9168 103.788 61.7336 103.813 66.8454 103.083C66.8454 106.376 64.176 109.045 60.8832 109.045H59.8294C56.5366 109.045 53.8672 106.376 53.8672 103.083Z" fill="black"/>
<path fill-rule="evenodd" clip-rule="evenodd" d="M64.0931 108.107C63.1659 108.701 62.0632 109.046 60.8801 109.046H59.8263C58.8961 109.046 58.0156 108.832 57.231 108.453C57.9066 107.192 59.2364 106.335 60.7663 106.335C62.1518 106.335 63.373 107.038 64.0931 108.107Z" fill="#D9D9D9"/>
<path fill-rule="evenodd" clip-rule="evenodd" d="M65.9413 103.206C64.6906 104.937 62.6544 106.064 60.3551 106.064C58.0567 106.064 56.0214 104.938 54.7705 103.208C58.9824 103.764 61.7213 103.755 65.9413 103.206Z" fill="#D9D9D9"/>
<path d="M202.444 38.2108C202.381 37.4583 202.476 36.6998 202.722 35.9838C202.969 35.2677 203.361 34.6098 203.875 34.052C204.389 33.4941 205.012 33.0486 205.706 32.7438C206.399 32.439 207.148 32.2816 207.903 32.2816C208.659 32.2816 209.405 32.439 210.094 32.7438C210.784 33.0486 211.401 33.4941 211.907 34.052C212.412 34.6098 212.796 35.2677 213.032 35.9838C213.268 36.6998 213.352 37.4583 213.279 38.2108L213.279 74.7796L207.862 84.2604L202.444 74.7796L202.444 38.2108Z" fill="white" stroke="black" stroke-width="3.83082" stroke-linecap="round" stroke-linejoin="round"/>
<path d="M202.399 43.0052H213.355" stroke="black" stroke-width="3.44247"/>
<circle cx="199.652" cy="29.379" r="2.74826" fill="#010101"/>
<circle cx="115.823" cy="42.4696" r="2.74826" fill="#010101"/>
<circle cx="120.19" cy="76.1623" r="2.74826" fill="#010101"/>
<circle cx="116.602" cy="55.0262" r="5.13513" fill="black"/>
<ellipse cx="116.602" cy="55.0264" rx="1.96833" ry="1.94543" fill="white"/>
<rect x="128.706" y="29.0181" width="64.7626" height="84.6676" fill="white" stroke="black" stroke-width="2.29498"/>
<path d="M138.39 47.9598H174.189" stroke="black" stroke-width="2.29498"/>
<path d="M138.39 54.7999H183.783" stroke="black" stroke-width="2.29498"/>
<path d="M138.39 60.4852H183.783" stroke="black" stroke-width="2.29498"/>
<path d="M138.39 66.1708H183.783" stroke="black" stroke-width="2.29498"/>
<path d="M138.39 71.856H183.783" stroke="black" stroke-width="2.29498"/>
<rect x="114.871" y="87.8693" width="48.9717" height="18.2694" rx="1.14749" fill="white" stroke="black" stroke-width="2.29498"/>
<path d="M122.695 101.962C119.785 101.962 117.648 99.9827 117.648 97.1905C117.648 94.3982 119.785 92.4187 122.695 92.4187C124.386 92.4187 125.75 93.0349 126.641 94.1492L124.989 95.6436C124.413 94.9488 123.705 94.5686 122.826 94.5686C121.319 94.5686 120.27 95.6174 120.27 97.1905C120.27 98.7636 121.319 99.8123 122.826 99.8123C123.705 99.8123 124.413 99.4321 124.989 98.7374L126.641 100.232C125.75 101.346 124.386 101.962 122.695 101.962ZM127.661 101.779V92.6023H130.256V99.7205H134.635V101.779H127.661ZM142.495 101.779L141.774 99.9958H137.894L137.173 101.779H134.525L138.576 92.6023H141.132L145.196 101.779H142.495ZM138.654 98.0819H141.014L139.834 95.1455L138.654 98.0819ZM145.794 101.779V92.6023H148.389V101.779H145.794ZM160.769 101.779H158.383L158.357 96.9152L155.997 100.874H154.843L152.497 97.0463V101.779H150.098V92.6023H152.235L155.46 97.8984L158.606 92.6023H160.743L160.769 101.779Z" fill="black"/>
<path d="M194.615 82.467C188.417 82.4744 182.475 84.9397 178.092 89.3223C173.71 93.705 171.244 99.647 171.237 105.845C171.229 110.91 172.884 115.837 175.946 119.872C175.946 119.872 176.584 120.711 176.688 120.832L194.615 141.974L212.55 120.822C212.643 120.709 213.283 119.872 213.283 119.872L213.285 119.865C216.346 115.833 218 110.908 217.993 105.845C217.985 99.647 215.52 93.705 211.137 89.3223C206.755 84.9397 200.813 82.4744 194.615 82.467Z" fill="black"/>
<circle cx="194.616" cy="104.999" r="16.675" stroke="white" stroke-width="1.09047"/>
<path d="M201.94 103.041V109.352C201.94 109.504 201.879 109.65 201.772 109.758C201.664 109.865 201.518 109.926 201.366 109.926C201.214 109.926 201.068 109.865 200.96 109.758C200.853 109.65 200.792 109.504 200.792 109.352V107.057C200.792 106.6 200.611 106.163 200.288 105.84C199.965 105.517 199.528 105.336 199.071 105.336H197.35V98.4507C197.35 98.1464 197.229 97.8545 197.014 97.6393C196.799 97.4241 196.507 97.3032 196.202 97.3032H189.317C189.013 97.3032 188.721 97.4241 188.506 97.6393C188.291 97.8545 188.17 98.1464 188.17 98.4507V111.073C188.17 111.377 188.291 111.669 188.506 111.885C188.721 112.1 189.013 112.221 189.317 112.221H196.202C196.507 112.221 196.799 112.1 197.014 111.885C197.229 111.669 197.35 111.377 197.35 111.073V106.483H199.071C199.223 106.483 199.369 106.544 199.477 106.651C199.584 106.759 199.645 106.905 199.645 107.057V109.352C199.645 109.808 199.826 110.246 200.149 110.569C200.472 110.892 200.91 111.073 201.366 111.073C201.823 111.073 202.26 110.892 202.583 110.569C202.906 110.246 203.087 109.808 203.087 109.352V101.893C203.087 101.589 202.966 101.297 202.751 101.082C202.536 100.867 202.244 100.746 201.94 100.746V99.013C201.937 98.8628 201.875 98.7198 201.768 98.6147C201.66 98.5096 201.516 98.4507 201.366 98.4507C201.286 98.452 201.207 98.4697 201.135 98.5026C201.062 98.5356 200.996 98.5831 200.943 98.6422C200.889 98.7013 200.848 98.7708 200.822 98.8464C200.796 98.9221 200.786 99.0022 200.792 99.0818V101.893C200.792 102.12 200.86 102.342 200.986 102.531C201.112 102.719 201.291 102.866 201.501 102.953C201.71 103.04 201.941 103.063 202.164 103.019C202.386 102.974 202.591 102.865 202.751 102.705C202.912 102.544 203.021 102.34 203.065 102.117C203.11 101.894 203.087 101.664 203 101.454C202.913 101.244 202.766 101.065 202.577 100.939C202.389 100.813 202.167 100.746 201.94 100.746V103.041ZM196.202 103.614C196.202 103.767 196.142 103.913 196.034 104.02C195.927 104.128 195.781 104.188 195.629 104.188H189.891C189.739 104.188 189.593 104.128 189.485 104.02C189.378 103.913 189.317 103.767 189.317 103.614V100.172C189.317 100.02 189.378 99.8738 189.485 99.7662C189.593 99.6587 189.739 99.5982 189.891 99.5982H195.629C195.781 99.5982 195.927 99.6587 196.034 99.7662C196.142 99.8738 196.202 100.02 196.202 100.172V103.614Z" fill="white"/>
<circle cx="111.755" cy="33.3075" r="4.48245" fill="black"/>
<circle cx="111.755" cy="33.3075" r="4.48245" fill="black"/>
<circle cx="143.385" cy="33.3075" r="4.48245" fill="black"/>
<circle cx="143.385" cy="33.3075" r="4.48245" fill="black"/>
<circle cx="132.229" cy="11.0999" r="4.48245" fill="black"/>
<circle cx="132.229" cy="11.0999" r="4.48245" fill="black"/>
<circle cx="111.754" cy="33.3076" r="2.50068" fill="black"/>
<circle cx="111.754" cy="33.3076" r="2.50068" fill="white"/>
<circle cx="143.385" cy="33.3076" r="2.50068" fill="black"/>
<circle cx="143.385" cy="33.3076" r="2.50068" fill="white"/>
<path fill-rule="evenodd" clip-rule="evenodd" d="M121.766 13.2534H119.532C118.082 13.2534 116.727 13.9814 115.927 15.1916L114.951 16.667C112.764 19.9744 109.476 22.4003 105.671 23.5146L105.003 23.7103C103.969 24.0131 103.258 24.9614 103.258 26.0388V30.9901C103.258 31.9405 104.029 32.7109 104.979 32.7109H106.394C106.563 32.7109 106.7 32.5738 106.7 32.4046C106.7 29.8366 108.782 27.7547 111.35 27.7547H111.977C114.714 27.7547 116.933 29.9737 116.933 32.7109H138.272C138.272 30.3539 140.183 28.4431 142.54 28.4431H143.917C146.603 28.4431 148.781 30.6209 148.781 33.3075H151.856V16.6959C151.856 14.7947 150.315 13.2534 148.413 13.2534H145.202H142.544C142.23 14.7809 141.578 16.2283 140.624 17.4847L140.623 17.4876C140.623 17.4876 140.333 17.8675 140.29 17.9185L131.483 27.8119L127.047 21.9313H113.546C114.826 19.7159 118.069 15.2637 118.183 15.1785H122.358C122.1 14.5576 121.901 13.913 121.766 13.2534Z" fill="black"/>
<path d="M122.773 11.5051L122.773 11.5047C122.775 8.99721 123.773 6.59323 125.546 4.82014C127.319 3.04736 129.722 2.04998 132.229 2.04666C134.736 2.04998 137.14 3.04736 138.912 4.82014C140.686 6.59323 141.683 8.99721 141.686 11.5047V11.505C141.689 13.5503 141.021 15.5401 139.784 17.1692L139.669 17.3205L139.669 17.3209L139.637 17.3632C139.598 17.4134 139.559 17.4641 139.527 17.505C139.507 17.5309 139.495 17.5474 139.487 17.5564L131.631 26.382L125.014 17.6106L124.992 17.5814L124.968 17.5536C124.969 17.5551 124.963 17.5469 124.95 17.5301C124.926 17.5001 124.882 17.4426 124.823 17.3653L124.72 17.2309L124.687 17.1878L124.678 17.1759L124.676 17.1728L124.675 17.1721C124.675 17.172 124.675 17.172 124.675 17.1719C123.438 15.542 122.77 13.5513 122.773 11.5051Z" stroke="black" stroke-width="2.29498"/>
<defs>
<clipPath id="clip0_986_8727">
<rect width="116.892" height="124.285" fill="white" transform="translate(0.714355 106.022)"/>
</clipPath>
</defs>
</svg>
