<svg width="45" height="58" viewBox="0 0 45 58" fill="none" xmlns="http://www.w3.org/2000/svg">
<path d="M36.6398 22.7883H21.0737C20.3261 22.7883 19.7201 23.4065 19.7201 24.1692C19.7201 24.9318 20.3261 25.55 21.0737 25.55H36.6398C37.3873 25.55 37.9933 24.9318 37.9933 24.1692C37.9933 23.4065 37.3873 22.7883 36.6398 22.7883Z" fill="#7B67EF"/>
<path d="M39.0762 7.59907H33.9326V5.25167C33.9326 4.4922 33.1205 4.14702 32.376 4.14702H28.383C27.4356 1.38532 25.0668 0.00447038 22.3596 0.00447038C19.6823 -0.0982112 17.247 1.57654 16.3362 4.14702H12.4108C11.6664 4.14702 10.9219 4.4922 10.9219 5.25167V7.59907H5.77819C2.73008 7.63224 0.236412 10.0852 0.0931396 13.1914V52.7526C0.0931396 55.7905 2.8003 57.9998 5.77819 57.9998H39.0762C42.0541 57.9998 44.7612 55.7905 44.7612 52.7526V13.1916C44.6179 10.0852 42.1243 7.63224 39.0762 7.59907ZM13.6289 6.90871H17.3513C18.0011 6.82784 18.523 6.32355 18.6372 5.66596C19.038 3.88536 20.5694 2.60719 22.3596 2.55909C24.1333 2.61393 25.6416 3.89606 26.0142 5.66596C26.1356 6.34628 26.692 6.85704 27.3678 6.90871H31.2256V12.4321H13.6289V6.90871ZM42.0541 52.7528C42.0541 54.2717 40.5651 55.2383 39.0762 55.2383H5.77819C4.28924 55.2383 2.8003 54.2717 2.8003 52.7528V13.1916C2.93839 11.6105 4.2224 10.3898 5.77819 10.3609H10.9218V13.8821C10.9933 14.6557 11.65 15.2344 12.4107 15.1939H32.3759C33.1505 15.2371 33.8279 14.6664 33.9325 13.8821V10.3608H39.076C40.6317 10.3898 41.9158 11.6104 42.0539 13.1914V52.7528H42.0541Z" fill="#7B67EF"/>
<path d="M17.2159 30.866C16.7082 30.3201 15.8654 30.2893 15.3208 30.7971L10.9893 35.0086L9.16203 33.0753C8.65436 32.5294 7.81156 32.4988 7.26697 33.0064C6.74272 33.5667 6.74272 34.4483 7.26697 35.0086L10.0417 37.9084C10.2819 38.1827 10.6288 38.3344 10.9892 38.3227C11.3462 38.3175 11.6868 38.1686 11.9367 37.9084L17.2156 32.7993C17.739 32.3095 17.7739 31.4796 17.2937 30.9459C17.2691 30.918 17.2431 30.8914 17.2159 30.866Z" fill="#7B67EF"/>
<path d="M36.6398 33.835H21.0737C20.3261 33.835 19.7201 34.4532 19.7201 35.2158C19.7201 35.9785 20.3261 36.5967 21.0737 36.5967H36.6398C37.3873 36.5967 37.9933 35.9785 37.9933 35.2158C37.9933 34.4532 37.3873 33.835 36.6398 33.835Z" fill="#7B67EF"/>
<path d="M17.2159 19.8194C16.7082 19.2735 15.8654 19.2427 15.3208 19.7504L10.9893 23.962L9.16203 22.0287C8.65436 21.4828 7.81156 21.452 7.26697 21.9597C6.74272 22.5201 6.74272 23.4016 7.26697 23.962L10.0417 26.8617C10.2819 27.1361 10.6288 27.2878 10.9892 27.276C11.3462 27.2709 11.6868 27.122 11.9367 26.8617L17.2156 21.7526C17.739 21.2629 17.7739 20.433 17.2937 19.8992C17.2691 19.8713 17.2431 19.8448 17.2159 19.8194Z" fill="#7B67EF"/>
<path d="M17.2159 41.9129C16.7082 41.3669 15.8654 41.3363 15.3208 41.8439L10.9893 46.0554L9.16203 44.1222C8.65436 43.5762 7.81156 43.5456 7.26697 44.0532C6.74272 44.6135 6.74272 45.4951 7.26697 46.0554L10.0417 48.9552C10.2819 49.2296 10.6288 49.3813 10.9892 49.3695C11.3462 49.3643 11.6868 49.2154 11.9367 48.9552L17.2156 43.8461C17.739 43.3564 17.7739 42.5264 17.2937 41.9927C17.2691 41.9649 17.2431 41.9384 17.2159 41.9129Z" fill="#7B67EF"/>
<path d="M36.6398 44.8818H21.0737C20.3261 44.8818 19.7201 45.5 19.7201 46.2627C19.7201 47.0253 20.3261 47.6435 21.0737 47.6435H36.6398C37.3873 47.6435 37.9933 47.0253 37.9933 46.2627C37.9933 45.5 37.3873 44.8818 36.6398 44.8818Z" fill="#7B67EF"/>
</svg>
