<?xml version="1.0" encoding="utf-8"?>
<!-- Generator: Adobe Illustrator 26.0.1, SVG Export Plug-In . SVG Version: 6.00 Build 0)  -->
<svg version="1.1" id="Layer_1" xmlns="http://www.w3.org/2000/svg" xmlns:xlink="http://www.w3.org/1999/xlink" x="0px" y="0px"
	 width="70" height="70" viewBox="0 0 70 70" style="enable-background:new 0 0 70 70;" xml:space="preserve">
<style type="text/css">
	.st0{fill:none;stroke:#2BB24B;stroke-width:1.5;stroke-miterlimit:10;}
	.st1{fill:none;stroke:#2BB24B;stroke-width:1.5;stroke-linecap:round;stroke-miterlimit:10;}
</style>
<path class="st0" d="M45.3,11.5h9.2c2.2,0,4,1.8,4,4v44.1c0,2.2-1.8,4-4,4H15.2c-2.2,0-4-1.8-4-4V15.5c0-2.2,1.8-4,4-4h9.1"/>
<path class="st0" d="M40.6,6.4h3.8c0.5,0,0.9,0.4,0.9,0.9v4.2v2.6c0,0.5-0.4,0.9-0.9,0.9H25.2c-0.5,0-0.9-0.4-0.9-0.9V7.3
	c0-0.5,0.4-0.9,0.9-0.9h3.8c0.4,0,0.8-0.3,0.8-0.7c0.4-2.4,2.5-4.2,5-4.2c2.5,0,4.6,1.8,5,4.2C39.9,6.1,40.2,6.4,40.6,6.4z"/>
<g>
	<g>
		<polyline class="st1" points="17.2,26 20.8,29.8 27.4,23.9 		"/>
		<line class="st1" x1="34.1" y1="28.1" x2="52.5" y2="28.1"/>
	</g>
	<g>
		<polyline class="st1" points="17.2,36.3 20.8,40.1 27.4,34.2 		"/>
		<line class="st1" x1="34.1" y1="38.4" x2="52.5" y2="38.4"/>
	</g>
	<g>
		<polyline class="st1" points="17.2,46.6 20.8,50.4 27.4,44.4 		"/>
		<line class="st1" x1="34.1" y1="48.7" x2="52.5" y2="48.7"/>
	</g>
</g>
</svg>
