<svg width="132" height="157" viewBox="0 0 132 157" fill="none" xmlns="http://www.w3.org/2000/svg">
<path d="M1.93359 12.3549H16.1467L20.8698 17.7275L15.1366 24.5466C11.6392 28.7071 11.6392 35.4768 15.1366 39.637L17.9233 42.9515L15.0796 46.3337C14.6723 46.8185 14.4679 47.494 14.522 48.1763C14.5761 48.8589 14.8834 49.4768 15.3599 49.8619L20.1278 53.717C21.3811 54.7307 22.8209 55.2263 24.2536 55.2263C25.9147 55.2263 27.566 54.5593 28.9035 53.2601L30.0577 54.6329C30.8951 55.6286 32.0078 56.1769 33.1919 56.1769C34.3758 56.1769 35.4885 55.6286 36.3259 54.6326L38.9465 51.5153C39.7836 50.52 40.2446 49.1962 40.2446 47.7881C40.2446 46.3797 39.7836 45.0559 38.9465 44.0609L37.8186 42.7193L38.6776 41.6976L39.8056 43.0392C40.6427 44.0345 41.7556 44.5828 42.9395 44.5828C44.1234 44.5828 45.2364 44.0345 46.0735 43.0392L48.6944 39.9219C50.4222 37.8665 50.4222 34.5219 48.6944 32.4665L47.5665 31.125L48.4255 30.1032L49.5534 31.4448C50.4176 32.4723 51.5522 32.9857 52.6871 32.9857C53.822 32.9857 54.9571 32.472 55.8213 31.4448L58.4422 28.3275C60.1701 26.2724 60.1701 22.9282 58.442 20.8721L57.288 19.4996C59.3224 16.5369 59.5124 12.281 57.6724 9.0619L54.4309 3.39058C54.1071 2.82361 53.5876 2.4584 53.0138 2.394C52.4442 2.33053 51.8724 2.57277 51.4646 3.05727L48.6209 6.4392L45.8345 3.12503C44.1399 1.10979 41.8871 -0.000244141 39.4908 -0.000244141C37.0942 -0.000244141 34.8414 1.10979 33.1471 3.12503L23.6047 14.4744L18.2587 8.39311C17.8988 7.98375 17.4203 7.7553 16.9222 7.7553H1.93359C0.865473 7.7553 0 8.78469 0 10.0551C0 11.3255 0.865473 12.3549 1.93359 12.3549ZM36.2119 47.3128C36.3486 47.4753 36.3774 47.6609 36.3774 47.7878C36.3774 47.9147 36.3488 48.1003 36.2119 48.2628L33.591 51.3801C33.3708 51.6426 33.012 51.642 32.7921 51.3801L31.6641 50.0388L35.084 45.9713L36.2119 47.3128ZM45.9598 35.7184C46.1799 35.9803 46.1799 36.4065 45.9598 36.6687L43.3389 39.786C43.1187 40.0482 42.7603 40.0482 42.5402 39.786L41.4122 38.4445L44.8321 34.3769L45.9598 35.7184ZM55.7076 25.0743L53.087 28.1916C52.8665 28.4532 52.5079 28.4535 52.2878 28.192L51.1598 26.8504L54.5797 22.7828L55.7076 24.1241C55.928 24.3859 55.928 24.8128 55.7076 25.0743ZM52.5466 8.27475L54.4745 11.6475C55.4122 13.288 55.2366 15.4967 54.0574 16.8993C50.9069 20.6465 29.5576 46.039 26.7175 49.417C25.5388 50.8199 23.6815 51.0281 22.302 49.9131L19.4666 47.6204C26.8268 38.8661 48.3677 13.2454 52.5466 8.27475ZM35.8817 6.37757C36.8456 5.23104 38.1275 4.59936 39.4908 4.59936C40.8541 4.59936 42.1359 5.23104 43.0999 6.37787L45.8863 9.69174L20.6579 39.6986L17.8715 36.3842C15.8812 34.0172 15.8812 30.1658 17.8715 27.7988L35.8817 6.37757Z" fill="#E9D417"/>
<path d="M81.9299 19.886H77.4375C76.3694 19.886 75.5039 20.9154 75.5039 22.1858C75.5039 23.4562 76.3694 24.4856 77.4375 24.4856H81.9299C82.998 24.4856 83.8634 23.4562 83.8634 22.1858C83.8634 20.9154 82.998 19.886 81.9299 19.886Z" fill="#3720C2"/>
<path d="M81.9299 28.3326H77.4375C76.3694 28.3326 75.5039 29.362 75.5039 30.6324C75.5039 31.9028 76.3694 32.9322 77.4375 32.9322H81.9299C82.998 32.9322 83.8634 31.9028 83.8634 30.6324C83.8634 29.362 82.998 28.3326 81.9299 28.3326Z" fill="#3720C2"/>
<path d="M81.9299 36.7793H77.4375C76.3694 36.7793 75.5039 37.8086 75.5039 39.0791C75.5039 40.3495 76.3694 41.3789 77.4375 41.3789H81.9299C82.998 41.3789 83.8634 40.3495 83.8634 39.0791C83.8634 37.8086 82.998 36.7793 81.9299 36.7793Z" fill="#4020C2"/>
<path d="M81.9299 45.2258H77.4375C76.3694 45.2258 75.5039 46.2552 75.5039 47.5256C75.5039 48.796 76.3694 49.8254 77.4375 49.8254H81.9299C82.998 49.8254 83.8634 48.796 83.8634 47.5256C83.8634 46.2552 82.998 45.2258 81.9299 45.2258Z" fill="#3720C2"/>
<path d="M110.091 35.7634C109.593 35.1185 108.831 34.8662 108.125 35.1121C107.418 35.3577 106.89 36.0587 106.763 36.9207L105.753 43.7474L100.856 31.0218C100.573 30.2865 99.9862 29.7815 99.3102 29.6928C98.6345 29.6048 97.9686 29.9446 97.5576 30.5892L93.6103 36.7796H88.9111C87.843 36.7796 86.9775 37.809 86.9775 39.0794C86.9775 40.3498 87.843 41.3792 88.9111 41.3792H94.5703C95.1754 41.3792 95.7454 41.0422 96.111 40.4691L98.685 36.4325L104.822 52.3818C105.139 53.2072 105.831 53.7245 106.579 53.7245C106.66 53.7245 106.743 53.7184 106.825 53.7058C107.665 53.5777 108.337 52.8151 108.484 51.8231L109.892 42.3056L110.628 43.2574C111.053 43.8078 111.677 44.0792 112.3 43.982C112.923 43.886 113.469 43.4355 113.762 42.7741L115.705 38.391L115.788 39.3213C115.892 40.4909 116.722 41.3789 117.711 41.3789H121.609C122.677 41.3789 123.543 40.3495 123.543 39.0791C123.543 37.8087 122.677 36.7793 121.609 36.7793H119.45L118.882 30.3905C118.792 29.3838 118.16 28.565 117.324 28.374C116.487 28.1836 115.645 28.6644 115.249 29.5598L111.62 37.7434L110.091 35.7634Z" fill="#818181"/>
<path d="M124.843 84.2846H60.8755C59.8073 84.2846 58.9419 85.314 58.9419 86.5844C58.9419 87.8548 59.8073 88.8842 60.8755 88.8842H124.843C126.657 88.8842 128.132 90.6394 128.132 92.7969V96.453H3.86717V92.7969C3.86717 90.6394 5.34288 88.8842 7.15684 88.8842H53.1445C54.2126 88.8842 55.0781 87.8548 55.0781 86.5844C55.0781 85.314 54.2126 84.2846 53.1445 84.2846H27.1566V81.2488C27.1566 77.8715 24.8466 75.124 22.007 75.124H11.8377C8.99813 75.124 6.68814 77.8715 6.68814 81.2488V84.3027C2.95942 84.5906 0 88.2905 0 92.7969V98.7528C0 100.023 0.865473 101.053 1.93359 101.053H8.50004V103.479C8.50004 107.75 11.4216 111.225 15.0129 111.225H26.2088C27.277 111.225 28.1424 110.196 28.1424 108.926C28.1424 107.655 27.277 106.626 26.2088 106.626H15.0126C13.5539 106.626 12.367 105.214 12.367 103.479V101.053H119.632V103.479C119.632 105.214 118.446 106.626 116.987 106.626C108.236 106.626 44.58 106.626 33.9396 106.626C32.8715 106.626 32.006 107.655 32.006 108.926C32.006 110.196 32.8715 111.225 33.9396 111.225H48.0957L56.2176 117.353L47.9821 121.004C47.2254 121.339 46.7237 122.198 46.7237 123.159V129.983H30.4297C27.6748 129.983 25.4336 132.648 25.4336 135.925V142.442C22.9184 143.414 21.0952 146.228 21.0952 149.54C21.0952 153.653 23.9087 157 27.3672 157C30.8257 157 33.6395 153.653 33.6395 149.54C33.6395 146.228 31.816 143.414 29.3008 142.442V135.925C29.3008 135.184 29.8071 134.582 30.4297 134.582H97.6079C98.2303 134.582 98.7369 135.184 98.7369 135.925V142.442C96.2217 143.414 94.3984 146.228 94.3984 149.54C94.3984 153.653 97.2119 157 100.67 157C104.129 157 106.943 153.653 106.943 149.54C106.943 146.228 105.119 143.414 102.604 142.442V135.925C102.604 132.648 100.363 129.983 97.6079 129.983H80.1755L64.863 118.429L81.1147 111.225H116.986C120.578 111.225 123.499 107.75 123.499 103.478V101.052H130.066C131.134 101.052 131.999 100.023 131.999 98.7525V92.7966C131.999 88.1032 128.789 84.2846 124.843 84.2846ZM10.5553 81.2488C10.5553 80.408 11.1305 79.7236 11.8377 79.7236H22.007C22.714 79.7236 23.2894 80.4077 23.2894 81.2488V84.2846H10.5553V81.2488ZM27.3672 152.4C26.041 152.4 24.9623 151.117 24.9623 149.54C24.9623 147.97 26.0304 146.692 27.3473 146.68C27.354 146.68 27.3605 146.68 27.3672 146.68C27.3739 146.68 27.3806 146.68 27.387 146.68C28.7042 146.693 29.7723 147.97 29.7723 149.54C29.7723 151.117 28.6936 152.4 27.3672 152.4ZM100.67 152.4C99.3443 152.4 98.2656 151.117 98.2656 149.54C98.2656 147.97 99.3337 146.692 100.651 146.68C100.657 146.68 100.664 146.68 100.67 146.68C100.677 146.68 100.684 146.68 100.69 146.68C102.007 146.693 103.076 147.97 103.076 149.54C103.076 151.117 101.997 152.4 100.67 152.4ZM72.9565 129.983H50.5911V124.756L60.3158 120.445L72.9565 129.983ZM60.7654 115.337L55.3152 111.225H70.0422L60.7654 115.337Z" fill="#676768"/>
<path d="M127.269 11.5733H117.739C116.671 11.5733 115.805 12.6027 115.805 13.8731C115.805 15.1436 116.671 16.1729 117.739 16.1729H127.269C127.745 16.1729 128.132 16.6332 128.132 17.199V59.4862C128.132 60.0522 127.745 60.5125 127.269 60.5125H72.5016C72.0256 60.5125 71.6387 60.0522 71.6387 59.4862V17.199C71.6387 16.6332 72.0256 16.1729 72.5016 16.1729H110.008C111.076 16.1729 111.942 15.1436 111.942 13.8731C111.942 12.6027 111.076 11.5733 110.008 11.5733H72.5016C69.8935 11.5733 67.7715 14.0967 67.7715 17.199V59.4862C67.7715 62.5882 69.8933 65.1121 72.5016 65.1121H127.27C129.878 65.1121 132 62.5885 132 59.4862V17.199C131.999 14.097 129.878 11.5733 127.269 11.5733Z" fill="black"/>
</svg>
