<?xml version="1.0" encoding="utf-8"?>
<!-- Generator: Adobe Illustrator 26.0.1, SVG Export Plug-In . SVG Version: 6.00 Build 0)  -->
<svg version="1.1" id="Layer_1" xmlns="http://www.w3.org/2000/svg" xmlns:xlink="http://www.w3.org/1999/xlink" x="0px" y="0px"
	 viewBox="0 0 90 90" style="enable-background:new 0 0 90 90;" xml:space="preserve">
<style type="text/css">
	.st0{fill:#E9D41C;}
	.st1{fill:#45459C;}
	.st2{fill:#818181;}
	.st3{fill:#676868;}
	.st4{fill:#010101;}
</style>
<path class="st0" d="M3.27,8.78h9.26l3.08,2.94l-3.73,3.73c-2.28,2.28-2.28,5.99,0,8.26l1.82,1.82l-1.85,1.85
	c-0.27,0.27-0.4,0.64-0.36,1.01c0.04,0.37,0.24,0.71,0.55,0.92l3.11,2.11c0.82,0.56,1.75,0.83,2.69,0.83c1.08,0,2.16-0.37,3.03-1.08
	l0.75,0.75c0.55,0.55,1.27,0.85,2.04,0.85c0.77,0,1.5-0.3,2.04-0.85l1.71-1.71c0.55-0.55,0.85-1.27,0.85-2.04
	c0-0.77-0.3-1.5-0.85-2.04l-0.73-0.73l0.56-0.56l0.73,0.73c0.55,0.55,1.27,0.85,2.04,0.85c0.77,0,1.5-0.3,2.04-0.85l1.71-1.71
	c1.13-1.13,1.13-2.96,0-4.08l-0.73-0.73l0.56-0.56l0.73,0.73c0.56,0.56,1.3,0.84,2.04,0.84s1.48-0.28,2.04-0.84l1.71-1.71
	c1.13-1.13,1.13-2.96,0-4.08l-0.75-0.75c1.33-1.62,1.45-3.95,0.25-5.72l-2.11-3.11c-0.21-0.31-0.55-0.51-0.92-0.55
	c-0.37-0.03-0.74,0.1-1.01,0.36l-1.85,1.85l-1.81-1.81c-1.1-1.1-2.57-1.71-4.13-1.71c-1.56,0-3.03,0.61-4.13,1.71l-6.22,6.22
	L13.9,6.61c-0.23-0.22-0.55-0.35-0.87-0.35H3.27c-0.7,0-1.26,0.56-1.26,1.26S2.57,8.78,3.27,8.78z M25.6,27.92
	c0.09,0.09,0.11,0.19,0.11,0.26s-0.02,0.17-0.11,0.26c0,0,0,0,0,0l-1.71,1.71c-0.14,0.14-0.38,0.14-0.52,0l-0.73-0.73l2.23-2.23
	L25.6,27.92z M31.95,21.57c0.14,0.14,0.14,0.38,0,0.52l-1.71,1.71c-0.14,0.14-0.38,0.14-0.52,0l-0.73-0.73l2.23-2.23L31.95,21.57z
	 M38.3,15.74l-1.71,1.71c-0.14,0.14-0.38,0.14-0.52,0l-0.73-0.73l2.23-2.23l0.73,0.73C38.44,15.36,38.44,15.6,38.3,15.74z
	 M36.24,6.54l1.26,1.85c0.61,0.9,0.5,2.11-0.27,2.88c-2.05,2.05-15.96,15.96-17.81,17.81c-0.77,0.77-1.98,0.88-2.88,0.27l-1.85-1.26
	C19.48,23.29,33.52,9.26,36.24,6.54L36.24,6.54z M25.38,5.5c0.63-0.63,1.46-0.97,2.35-0.97c0.89,0,1.72,0.35,2.35,0.97l1.81,1.81
	L15.47,23.75l-1.81-1.82c-1.3-1.3-1.3-3.41,0-4.7L25.38,5.5z"/>
<path class="st1" d="M55.38,12.9h-2.93c-0.7,0-1.26,0.56-1.26,1.26s0.56,1.26,1.26,1.26h2.93c0.7,0,1.26-0.56,1.26-1.26
	S56.07,12.9,55.38,12.9z"/>
<path class="st1" d="M55.38,17.53h-2.93c-0.7,0-1.26,0.56-1.26,1.26c0,0.7,0.56,1.26,1.26,1.26h2.93c0.7,0,1.26-0.56,1.26-1.26
	C56.64,18.09,56.07,17.53,55.38,17.53z"/>
<path class="st1" d="M55.38,22.15h-2.93c-0.7,0-1.26,0.56-1.26,1.26c0,0.7,0.56,1.26,1.26,1.26h2.93c0.7,0,1.26-0.56,1.26-1.26
	C56.64,22.72,56.07,22.15,55.38,22.15z"/>
<path class="st1" d="M55.38,26.78h-2.93c-0.7,0-1.26,0.56-1.26,1.26s0.56,1.26,1.26,1.26h2.93c0.7,0,1.26-0.56,1.26-1.26
	S56.07,26.78,55.38,26.78z"/>
<path class="st2" d="M73.72,21.6c-0.32-0.35-0.82-0.49-1.28-0.36c-0.46,0.13-0.8,0.52-0.89,0.99l-0.66,3.74L67.7,19
	c-0.18-0.4-0.57-0.68-1.01-0.73c-0.44-0.05-0.87,0.14-1.14,0.49l-2.57,3.39h-3.06c-0.7,0-1.26,0.56-1.26,1.26
	c0,0.7,0.56,1.26,1.26,1.26h3.69c0.39,0,0.77-0.18,1-0.5l1.68-2.21l4,8.73c0.21,0.45,0.66,0.74,1.14,0.74c0.05,0,0.11,0,0.16-0.01
	c0.55-0.07,0.98-0.49,1.08-1.03l0.92-5.21l0.48,0.52c0.28,0.3,0.68,0.45,1.09,0.4c0.41-0.05,0.76-0.3,0.95-0.66l1.27-2.4l0.05,0.51
	c0.07,0.64,0.61,1.13,1.25,1.13h2.54c0.7,0,1.26-0.56,1.26-1.26s-0.56-1.26-1.26-1.26h-1.41l-0.37-3.5c-0.06-0.55-0.47-1-1.01-1.1
	c-0.54-0.1-1.09,0.16-1.35,0.65l-2.36,4.48L73.72,21.6z"/>
<path class="st3" d="M83.33,48.17H41.66c-0.7,0-1.26,0.56-1.26,1.26c0,0.7,0.56,1.26,1.26,1.26h41.67c1.18,0,2.14,0.96,2.14,2.14v2
	H4.53v-2c0-1.18,0.96-2.14,2.14-2.14h29.95c0.7,0,1.26-0.56,1.26-1.26c0-0.7-0.56-1.26-1.26-1.26H19.7v-1.66
	c0-1.85-1.5-3.35-3.35-3.35H9.72c-1.85,0-3.35,1.5-3.35,3.35v1.67c-2.43,0.16-4.36,2.18-4.36,4.65v3.26c0,0.7,0.56,1.26,1.26,1.26
	h4.28v1.33c0,2.34,1.9,4.24,4.24,4.24h7.29c0.7,0,1.26-0.56,1.26-1.26c0-0.7-0.56-1.26-1.26-1.26h-7.29c-0.95,0-1.72-0.77-1.72-1.72
	v-1.33h69.87v1.33c0,0.95-0.77,1.72-1.72,1.72c-5.7,0-47.16,0-54.09,0c-0.7,0-1.26,0.56-1.26,1.26c0,0.7,0.56,1.26,1.26,1.26h9.22
	l5.29,3.36l-5.36,2c-0.49,0.18-0.82,0.65-0.82,1.18v3.74H21.83c-1.79,0-3.25,1.46-3.25,3.25v3.57c-1.64,0.53-2.83,2.07-2.83,3.89
	c0,2.25,1.83,4.09,4.09,4.09s4.09-1.83,4.09-4.09c0-1.81-1.19-3.35-2.83-3.89v-3.57c0-0.41,0.33-0.74,0.74-0.74h43.76
	c0.41,0,0.74,0.33,0.74,0.74v3.57c-1.64,0.53-2.83,2.07-2.83,3.89c0,2.25,1.83,4.09,4.09,4.09s4.09-1.83,4.09-4.09
	c0-1.81-1.19-3.35-2.83-3.89v-3.57c0-1.79-1.46-3.25-3.25-3.25H54.23l-9.97-6.33l10.59-3.95h23.37c2.34,0,4.24-1.9,4.24-4.24v-1.33
	h4.28c0.7,0,1.26-0.56,1.26-1.26v-3.26C87.99,50.26,85.9,48.17,83.33,48.17L83.33,48.17z M8.89,46.51c0-0.46,0.37-0.84,0.84-0.84
	h6.62c0.46,0,0.84,0.37,0.84,0.84v1.66H8.89L8.89,46.51z M19.84,85.47c-0.86,0-1.57-0.7-1.57-1.57c0-0.86,0.7-1.56,1.55-1.57
	c0,0,0.01,0,0.01,0c0,0,0.01,0,0.01,0c0.86,0.01,1.55,0.71,1.55,1.57C21.4,84.77,20.7,85.47,19.84,85.47z M67.58,85.47
	c-0.86,0-1.57-0.7-1.57-1.57c0-0.86,0.7-1.56,1.55-1.57c0,0,0.01,0,0.01,0c0,0,0.01,0,0.01,0c0.86,0.01,1.55,0.71,1.55,1.57
	C69.15,84.77,68.45,85.47,67.58,85.47z M49.53,73.19H34.96v-2.86l6.33-2.36L49.53,73.19z M41.59,65.17l-3.55-2.25h9.59L41.59,65.17z
	"/>
<path class="st4" d="M84.91,8.35H78.7c-0.7,0-1.26,0.56-1.26,1.26c0,0.7,0.56,1.26,1.26,1.26h6.21c0.31,0,0.56,0.25,0.56,0.56v23.16
	c0,0.31-0.25,0.56-0.56,0.56H49.24c-0.31,0-0.56-0.25-0.56-0.56V11.43c0-0.31,0.25-0.56,0.56-0.56h24.43c0.7,0,1.26-0.56,1.26-1.26
	s-0.56-1.26-1.26-1.26H49.24c-1.7,0-3.08,1.38-3.08,3.08v23.16c0,1.7,1.38,3.08,3.08,3.08h35.67c1.7,0,3.08-1.38,3.08-3.08V11.43
	C87.99,9.73,86.61,8.35,84.91,8.35z"/>
</svg>
