<svg width="47" height="43" viewBox="0 0 47 43" fill="none" xmlns="http://www.w3.org/2000/svg">
<path d="M23.5 16.9678C27.9107 16.9678 31.4863 13.3922 31.4863 8.98145C31.4863 4.57072 27.9107 0.995117 23.5 0.995117C19.0893 0.995117 15.5137 4.57072 15.5137 8.98145C15.5137 13.3922 19.0893 16.9678 23.5 16.9678Z" fill="#C22032"/>
<path d="M39.6562 16.9678C42.4446 16.9678 44.7051 14.7073 44.7051 11.9189C44.7051 9.13056 42.4446 6.87012 39.6562 6.87012C36.8679 6.87012 34.6074 9.13056 34.6074 11.9189C34.6074 14.7073 36.8679 16.9678 39.6562 16.9678Z" fill="#C22032"/>
<path d="M7.34375 16.9678C10.1321 16.9678 12.3926 14.7073 12.3926 11.9189C12.3926 9.13056 10.1321 6.87012 7.34375 6.87012C4.55536 6.87012 2.29492 9.13056 2.29492 11.9189C2.29492 14.7073 4.55536 16.9678 7.34375 16.9678Z" fill="#C22032"/>
<path d="M12.3182 21.5013C10.3308 19.873 8.53096 20.0885 6.23301 20.0885C2.79613 20.0885 0 22.8682 0 26.2839V36.3091C0 37.7925 1.2108 38.9987 2.69975 38.9987C9.12791 38.9987 8.35352 39.115 8.35352 38.7215C8.35352 31.6177 7.51211 26.4081 12.3182 21.5013Z" fill="#C22032"/>
<path d="M25.6844 20.1249C21.6706 19.7901 18.1819 20.1288 15.1727 22.6126C10.137 26.6462 11.1061 32.0771 11.1061 38.7211C11.1061 40.4789 12.5363 41.9359 14.3208 41.9359C33.6975 41.9359 34.4687 42.5609 35.6177 40.0164C35.9945 39.1559 35.8913 39.4293 35.8913 31.1975C35.8913 24.6591 30.2299 20.1249 25.6844 20.1249Z" fill="#C22032"/>
<path d="M40.7669 20.0893C38.4563 20.0893 36.6664 19.876 34.6816 21.502C39.4519 26.3724 38.6463 31.2265 38.6463 38.7222C38.6463 39.1182 38.0035 38.9995 44.2037 38.9995C45.7459 38.9995 46.9999 37.7501 46.9999 36.2143V26.2847C46.9999 22.8689 44.2037 20.0893 40.7669 20.0893Z" fill="#C22032"/>
</svg>
