<svg width="30" height="20" viewBox="0 0 30 20" fill="none" xmlns="http://www.w3.org/2000/svg">
<path fill-rule="evenodd" clip-rule="evenodd" d="M0.414963 2.00001C0.414963 1.09206 1.20941 0.356018 2.1894 0.356018H27.7413C28.7213 0.356018 29.5158 1.09206 29.5158 2.00001C29.5158 2.90797 28.7213 3.64401 27.7413 3.64401H2.1894C1.20941 3.64401 0.414963 2.90797 0.414963 2.00001ZM0.414963 9.8912C0.414963 8.98324 1.20941 8.2472 2.1894 8.2472H27.7413C28.7213 8.2472 29.5158 8.98324 29.5158 9.8912C29.5158 10.7992 28.7213 11.5352 27.7413 11.5352H2.1894C1.20941 11.5352 0.414963 10.7992 0.414963 9.8912ZM0.414963 17.7824C0.414963 16.8744 1.20941 16.1384 2.1894 16.1384H27.7413C28.7213 16.1384 29.5158 16.8744 29.5158 17.7824C29.5158 18.6903 28.7213 19.4264 27.7413 19.4264H2.1894C1.20941 19.4264 0.414963 18.6903 0.414963 17.7824Z" fill="black"/>
</svg>
