<svg width="42" height="46" viewBox="0 0 42 46" fill="none" xmlns="http://www.w3.org/2000/svg">
<g clip-path="url(#clip0_1266_1440)">
<path d="M26.6798 31.4495C26.6798 31.0986 26.9633 30.8151 27.3142 30.8151H32.39C32.7409 30.8151 33.0245 31.0986 33.0245 31.4495C33.0245 31.8005 32.7409 32.084 32.39 32.084H31.2757C31.4661 32.3695 31.6068 32.6907 31.6861 33.0357H32.39C32.7409 33.0357 33.0245 33.3192 33.0245 33.6702C33.0245 34.0211 32.7409 34.3047 32.39 34.3047H31.6842C31.4224 35.4606 30.4568 36.3508 29.2613 36.5035L32.1243 38.5477C32.4098 38.7519 32.4753 39.1485 32.271 39.432C32.0668 39.7155 31.6703 39.7829 31.3867 39.5787L26.9454 36.4063C26.7214 36.2477 26.6262 35.9602 26.7095 35.6965C26.7928 35.4328 27.0386 35.2564 27.3142 35.2564H28.9004C29.5507 35.2564 30.1099 34.8658 30.3537 34.3047H27.3142C26.9633 34.3047 26.6798 34.0211 26.6798 33.6702C26.6798 33.3192 26.9633 33.0357 27.3142 33.0357H30.3537C30.1099 32.4746 29.5507 32.084 28.9004 32.084H27.3142C26.9633 32.084 26.6798 31.8005 26.6798 31.4495Z" fill="#B47CA8"/>
</g>
<path d="M13.6297 11.6502L13.6298 11.6501C13.9907 11.2892 13.9907 10.7039 13.6298 10.343C13.2689 9.98207 12.6836 9.98204 12.3227 10.3429C12.3227 10.3429 12.3227 10.3429 12.3226 10.343L10.0122 12.651L8.37534 11.0141C8.01442 10.6532 7.42911 10.6532 7.06819 11.0141C6.70726 11.375 6.70726 11.9603 7.06819 12.3212L9.35856 14.6116C9.53893 14.792 9.77546 14.8823 10.0121 14.8823C10.2478 14.8823 10.4852 14.7921 10.6656 14.6117C10.6657 14.6117 10.6657 14.6116 10.6657 14.6116L13.6297 11.6502ZM10.349 19.1792C14.0447 19.1792 17.0509 16.173 17.0509 12.4773C17.0509 8.78158 14.0447 5.77536 10.349 5.77536C6.65326 5.77536 3.64705 8.78158 3.64705 12.4773C3.64705 16.173 6.65326 19.1792 10.349 19.1792ZM10.349 7.62391C13.0242 7.62391 15.2015 9.80118 15.2015 12.4764C15.2015 15.1517 13.0242 17.329 10.349 17.329C7.67372 17.329 5.49645 15.1517 5.49645 12.4764C5.49645 9.80117 7.67372 7.62391 10.349 7.62391ZM20.0286 5.77536C19.5185 5.77536 19.1043 6.18836 19.1043 6.69964C19.1043 7.20967 19.5173 7.62391 20.0286 7.62391H25.9832C26.4934 7.62391 26.9075 7.20986 26.9075 6.69964C26.9075 6.18941 26.4934 5.77536 25.9832 5.77536H20.0286ZM20.0286 11.2735C19.5185 11.2735 19.1043 11.6865 19.1043 12.1977L20.0286 12.8808V13.122H20.0286C20.0288 13.122 20.029 13.122 20.0291 13.122L25.9832 13.122C26.4934 13.122 26.9075 12.708 26.9075 12.1977C26.9075 11.6875 26.4934 11.2735 25.9832 11.2735H20.0286ZM20.0286 16.7724C19.5185 16.7724 19.1043 17.1854 19.1043 17.6967L20.0286 18.3798V18.621H20.0291H25.9832C26.4934 18.621 26.9075 18.2069 26.9075 17.6967C26.9075 17.1865 26.4934 16.7724 25.9832 16.7724H20.0286ZM25.9832 24.1199C26.4932 24.1199 26.9075 23.7069 26.9075 23.1956C26.9075 22.6844 26.4932 22.2714 25.9832 22.2714H5.73746C5.22723 22.2714 4.81318 22.6854 4.81318 23.1956C4.81318 23.7057 5.22618 24.1199 5.73746 24.1199H25.9832ZM18.2084 29.6189C18.7184 29.6189 19.1327 29.2059 19.1327 28.6946L18.2084 28.0115V27.7703H18.2079H5.73746C5.22723 27.7703 4.81318 28.1844 4.81318 28.6946C4.81318 29.2048 5.22723 29.6189 5.73746 29.6189H18.2084ZM18.2084 35.1178C18.7184 35.1178 19.1327 34.7048 19.1327 34.1935L18.2084 33.5104V33.2693H18.2079H5.73746C5.22723 33.2693 4.81318 33.6833 4.81318 34.1935C4.81318 34.7038 5.22723 35.1178 5.73746 35.1178H18.2084ZM18.2084 40.6159C18.7184 40.6159 19.1327 40.2029 19.1327 39.6916C19.1327 39.1816 18.7197 38.7674 18.2084 38.7674H5.73746C5.22723 38.7674 4.81318 39.1814 4.81318 39.6916C4.81318 40.2019 5.22723 40.6159 5.73746 40.6159H18.2084ZM31.454 23.8918V3.6022C31.454 2.20455 30.3176 1.06809 28.9199 1.06809H2.7999C1.40304 1.06809 0.266634 2.20461 0.266634 3.6022V42.7891C0.266634 44.1867 1.4031 45.3232 2.80075 45.3232H28.9208C29.0483 45.3232 29.1698 45.2969 29.2799 45.2502C29.6901 45.2981 30.1068 45.3232 30.5298 45.3232C36.45 45.3232 41.267 40.5071 41.267 34.5859C41.2661 28.9782 36.9431 24.362 31.454 23.8918ZM2.7999 43.4738C2.4227 43.4738 2.11518 43.1663 2.11518 42.7891V3.6022C2.11518 3.22501 2.4227 2.91749 2.7999 2.91749H28.9199C29.2971 2.91749 29.6046 3.22501 29.6046 3.6022V23.8918C24.1163 24.3621 19.7942 28.9783 19.7942 34.5859C19.7942 38.2787 21.6679 41.5414 24.5126 43.4738H2.7999ZM30.5289 43.4738C25.63 43.4738 21.6436 39.4867 21.6436 34.5859C21.6436 29.687 25.6299 25.7007 30.5289 25.7007C35.4296 25.7007 39.4167 29.687 39.4167 34.5859C39.4176 39.4866 35.4296 43.4738 30.5289 43.4738Z" fill="#B47CA8" stroke="#B47CA8" stroke-width="0.482357"/>
<defs>
<clipPath id="clip0_1266_1440">
<rect width="6.34472" height="10.1515" fill="white" transform="translate(26.6797 30.1807)"/>
</clipPath>
</defs>
</svg>
