<svg width="67" height="67" viewBox="0 0 67 67" fill="none" xmlns="http://www.w3.org/2000/svg">
<g clip-path="url(#clip0_1045_608)">
<g clip-path="url(#clip1_1045_608)">
<mask id="mask0_1045_608" style="mask-type:luminance" maskUnits="userSpaceOnUse" x="14" y="26" width="16" height="17">
<path d="M14.6567 26.8414H29.4989V42.9351H14.6567V26.8414Z" fill="black"/>
</mask>
<g mask="url(#mask0_1045_608)">
<path d="M23.4805 41.1291V40.6833C23.4919 40.3747 23.6462 40.169 23.9377 40.0604C24.412 39.8775 24.8464 39.6375 25.2579 39.3403C25.5093 39.1517 25.7722 39.1288 26.0523 39.2774L26.4695 39.5003C26.6352 39.5918 26.8124 39.6146 26.9953 39.5689C27.1839 39.5232 27.3267 39.4203 27.4296 39.2603L28.5555 37.4143C28.6526 37.2543 28.6755 37.0885 28.6241 36.9057C28.5726 36.7285 28.464 36.597 28.2983 36.5056L27.8868 36.2884C27.6239 36.1513 27.5096 35.9341 27.5439 35.6426C27.6182 35.134 27.6182 34.6253 27.5439 34.1224C27.5096 33.8252 27.6239 33.6138 27.8868 33.4766L28.2983 33.2537C28.464 33.168 28.5726 33.0365 28.6241 32.8536C28.6755 32.6765 28.6526 32.505 28.5555 32.345L27.4296 30.5047C27.3267 30.3447 27.1839 30.2418 26.9953 30.1961C26.8124 30.1447 26.6352 30.1675 26.4695 30.259L26.0523 30.4876C25.7722 30.6305 25.5093 30.6076 25.2579 30.419C24.8464 30.1275 24.412 29.8875 23.9377 29.6989C23.6462 29.596 23.4919 29.3903 23.4805 29.076V28.6359C23.4805 28.4473 23.4062 28.2873 23.269 28.1615C23.1318 28.0301 22.9718 27.9672 22.7832 27.9672H20.5315C20.3372 27.9672 20.1771 28.0301 20.04 28.1615C19.9028 28.2873 19.8342 28.4473 19.8285 28.6359V29.076C19.8171 29.3903 19.6685 29.596 19.3713 29.6989C18.9027 29.8875 18.4626 30.1275 18.0568 30.419C17.8054 30.6076 17.5368 30.6305 17.2567 30.4876L16.8452 30.259C16.6795 30.1675 16.5023 30.1447 16.3137 30.1961C16.1308 30.2418 15.988 30.3447 15.8851 30.5047L14.7592 32.345C14.662 32.505 14.6392 32.6765 14.6906 32.8536C14.7421 33.0365 14.8506 33.168 15.0164 33.2537L15.4222 33.4766C15.6908 33.6138 15.8051 33.8252 15.7708 34.1224C15.6965 34.6253 15.6965 35.134 15.7708 35.6426C15.8051 35.9341 15.6908 36.1513 15.4222 36.2884L15.0164 36.5056C14.8449 36.5913 14.7363 36.7285 14.6849 36.9057C14.6335 37.0828 14.6563 37.2543 14.7535 37.4143L15.8794 39.2603C15.9822 39.4203 16.1251 39.5232 16.308 39.5689C16.4966 39.6146 16.6738 39.5918 16.8395 39.5003L17.251 39.2774C17.531 39.1288 17.7996 39.1517 18.0511 39.3403C18.4569 39.6375 18.8969 39.8775 19.3656 40.0604C19.6628 40.169 19.8114 40.3747 19.8228 40.6833V41.1291C19.8285 41.3177 19.8971 41.472 20.0343 41.6035C20.1714 41.7292 20.3314 41.7978 20.52 41.7921H22.7775C22.9661 41.7978 23.1318 41.7349 23.269 41.6035C23.4062 41.4777 23.4805 41.3177 23.4805 41.1291ZM18.9312 34.8825C18.9312 34.5225 18.9998 34.1796 19.137 33.8538C19.2799 33.5223 19.4742 33.2308 19.7314 32.9794C19.9828 32.7279 20.28 32.5336 20.6115 32.3964C20.943 32.2593 21.2916 32.1907 21.6516 32.1907C22.0117 32.1907 22.3603 32.2593 22.6918 32.3964C23.029 32.5336 23.3204 32.7279 23.5776 32.9794C23.8291 33.2308 24.0291 33.5223 24.1663 33.8538C24.3034 34.1796 24.372 34.5225 24.372 34.8825C24.372 35.2368 24.3034 35.5798 24.1663 35.9112C24.0291 36.237 23.8291 36.5285 23.5776 36.7799C23.3204 37.0314 23.029 37.2257 22.6918 37.3629C22.3603 37.5 22.0117 37.5686 21.6516 37.5686C21.2916 37.5686 20.943 37.5 20.6115 37.3629C20.28 37.2257 19.9828 37.0314 19.7314 36.7799C19.4742 36.5285 19.2799 36.237 19.137 35.9112C18.9998 35.5798 18.9312 35.2368 18.9312 34.8825Z" fill="black"/>
</g>
<path d="M19.4688 26.7099L21.0118 26.9328C21.0976 26.327 21.2347 25.7269 21.4176 25.1383L19.9317 24.6925C19.7259 25.3497 19.5716 26.0241 19.4688 26.7099Z" fill="black"/>
<path d="M23.0178 21.8406L21.7319 20.9777C21.3376 21.5492 20.9889 22.1435 20.686 22.7665L22.0862 23.4294C22.3548 22.8808 22.6692 22.3493 23.0178 21.8406Z" fill="black"/>
<path d="M30.2189 42.2208L30.5561 40.7234C29.9503 40.5862 29.3616 40.4091 28.7844 40.1862L28.2129 41.615C28.8644 41.8664 29.5331 42.0665 30.2189 42.2208Z" fill="black"/>
<path d="M38.4369 41.6035L37.8654 40.1747C37.2882 40.3976 36.6938 40.5748 36.0938 40.7119L36.4367 42.2093C37.1168 42.055 37.7854 41.855 38.4369 41.6035Z" fill="black"/>
<path d="M25.5322 19.1488L24.5606 17.9544C24.0177 18.383 23.509 18.8516 23.0347 19.3603L24.172 20.4004C24.5949 19.9547 25.0464 19.5317 25.5322 19.1488Z" fill="black"/>
<path d="M42.3981 20.349L43.5354 19.3031C43.0554 18.7945 42.5467 18.3316 41.9981 17.9029L41.0322 19.1031C41.518 19.486 41.9752 19.9032 42.3981 20.349Z" fill="black"/>
<path d="M45.6037 26.8585L47.1411 26.6242C47.0325 25.9441 46.8782 25.2754 46.6667 24.6125L45.1865 25.0754C45.3694 25.6584 45.5066 26.2527 45.6037 26.8585Z" fill="black"/>
<path d="M32.3965 40.992L32.2822 42.5237C32.6251 42.5465 32.968 42.5579 33.3109 42.5579C33.671 42.5579 34.0196 42.5465 34.3682 42.5179L34.2539 40.992C33.6367 41.0377 33.0138 41.0377 32.3965 40.992Z" fill="black"/>
<path d="M44.5066 23.3609L45.9011 22.6865C45.5982 22.0693 45.2496 21.4749 44.8495 20.9091L43.5693 21.7778C43.9237 22.2807 44.2323 22.8122 44.5066 23.3609Z" fill="black"/>
<mask id="mask1_1045_608" style="mask-type:luminance" maskUnits="userSpaceOnUse" x="25" y="10" width="17" height="16">
<path d="M25.1094 10.3018H41.2031V25.3783H25.1094V10.3018Z" fill="black"/>
</mask>
<g mask="url(#mask1_1045_608)">
<path d="M33.3107 24.1324C33.7736 24.1324 34.2251 24.0867 34.6766 23.9953C35.1281 23.9096 35.5625 23.7781 35.9911 23.6066C36.414 23.4295 36.8141 23.218 37.197 22.9666C37.5799 22.7151 37.9343 22.4293 38.26 22.1036C38.5801 21.7835 38.8715 21.4349 39.1287 21.0577C39.3859 20.6805 39.5973 20.2805 39.7745 19.8633C39.9517 19.446 40.0831 19.0117 40.1746 18.5659C40.2603 18.1201 40.306 17.6744 40.306 17.2172C40.306 16.7657 40.2603 16.3142 40.1746 15.8684C40.0831 15.4283 39.9517 14.994 39.7745 14.5768C39.5973 14.1539 39.3859 13.7595 39.1287 13.3823C38.8715 12.9994 38.5801 12.6508 38.26 12.3307C37.9343 12.0107 37.5799 11.7249 37.197 11.4735C36.8141 11.222 36.414 11.0105 35.9911 10.8334C35.5625 10.6619 35.1281 10.5305 34.6766 10.439C34.2251 10.3533 33.7736 10.3076 33.3107 10.3076C32.8535 10.3076 32.3963 10.3533 31.9448 10.439C31.499 10.5305 31.059 10.6619 30.6361 10.8334C30.2131 11.0105 29.8074 11.222 29.4245 11.4735C29.0415 11.7249 28.6872 12.0107 28.3672 12.3307C28.0414 12.6508 27.7499 12.9994 27.4927 13.3823C27.2413 13.7595 27.0241 14.1539 26.8469 14.5768C26.6755 14.994 26.5383 15.4283 26.4526 15.8684C26.3612 16.3142 26.3154 16.7657 26.3154 17.2172C26.3154 17.6744 26.3612 18.1201 26.4526 18.5659C26.544 19.0117 26.6755 19.446 26.8527 19.8633C27.0241 20.2805 27.2413 20.6805 27.4985 21.0577C27.7556 21.4349 28.0414 21.7835 28.3672 22.1036C28.6929 22.4236 29.0473 22.7094 29.4245 22.9608C29.8074 23.218 30.2131 23.4295 30.6361 23.6009C31.059 23.7781 31.499 23.9096 31.9448 23.9953C32.3963 24.0867 32.8535 24.1324 33.3107 24.1324ZM30.2017 18.7545C30.2017 18.5488 30.2417 18.3545 30.3217 18.1659C30.4017 17.9773 30.5103 17.8115 30.6589 17.6686C30.8018 17.5258 30.9732 17.4115 31.1618 17.3372C31.3504 17.2572 31.5505 17.2172 31.7562 17.2172H33.3107C33.0535 17.2172 32.8078 17.1714 32.5678 17.0743C32.3277 16.9771 32.122 16.8342 31.9391 16.6571C31.7562 16.4742 31.6133 16.2684 31.5162 16.0341C31.419 15.7998 31.3676 15.5541 31.3676 15.2969C31.3676 15.0454 31.419 14.7997 31.5162 14.5653C31.6133 14.331 31.7562 14.1196 31.9391 13.9424C32.122 13.7595 32.3277 13.6224 32.5678 13.5252C32.8078 13.428 33.0535 13.3823 33.3107 13.3823C33.5679 13.3823 33.8194 13.428 34.0537 13.5252C34.2937 13.6224 34.5052 13.7595 34.6881 13.9424C34.8652 14.1196 35.0081 14.331 35.1053 14.5653C35.2081 14.7997 35.2539 15.0454 35.2539 15.2969C35.2539 15.5541 35.2081 15.7998 35.1053 16.0341C35.0081 16.2684 34.8652 16.4742 34.6881 16.6571C34.5052 16.8342 34.2937 16.9771 34.0537 17.0743C33.8194 17.1714 33.5679 17.2172 33.3107 17.2172H34.8652C35.071 17.2172 35.271 17.2572 35.4596 17.3372C35.6539 17.4115 35.8197 17.5258 35.9625 17.6686C36.1111 17.8115 36.2254 17.9773 36.2997 18.1659C36.3797 18.3545 36.4197 18.5488 36.4197 18.7545V21.6235C35.9625 21.9378 35.471 22.1779 34.9395 22.3436C34.4137 22.5093 33.8708 22.5951 33.3107 22.5951C32.7564 22.5951 32.2134 22.5093 31.6819 22.3436C31.1504 22.1779 30.6589 21.9378 30.2017 21.6235V18.7545Z" fill="black"/>
</g>
<mask id="mask2_1045_608" style="mask-type:luminance" maskUnits="userSpaceOnUse" x="36" y="28" width="16" height="15">
<path d="M36.814 28.3045H51.9647V42.9352H36.814V28.3045Z" fill="black"/>
</mask>
<g mask="url(#mask2_1045_608)">
<path d="M44.9694 28.7388C44.5122 28.7388 44.055 28.7846 43.6035 28.8703C43.1577 28.9617 42.7177 29.0875 42.2947 29.2646C41.8718 29.4361 41.4661 29.6475 41.0831 29.9047C40.7002 30.1562 40.3459 30.4419 40.0258 30.762C39.7001 31.082 39.4086 31.4306 39.1514 31.8078C38.9 32.185 38.6828 32.5851 38.5056 33.0023C38.3342 33.4252 38.197 33.8539 38.1113 34.2996C38.0198 34.7454 37.9741 35.1969 37.9741 35.6484C37.9741 36.0999 38.0198 36.5514 38.1113 36.9972C38.197 37.4429 38.3342 37.8716 38.5056 38.2945C38.6828 38.7117 38.9 39.1118 39.1514 39.489C39.4086 39.8662 39.7001 40.2148 40.0258 40.5348C40.3459 40.8549 40.7002 41.1406 41.0831 41.3978C41.4661 41.6493 41.8718 41.8607 42.2947 42.0322C42.7177 42.2093 43.1577 42.3408 43.6035 42.4265C44.055 42.518 44.5122 42.558 44.9694 42.558C45.4323 42.558 45.8838 42.518 46.3353 42.4265C46.7868 42.3408 47.2212 42.2093 47.6498 42.0322C48.0727 41.8607 48.4728 41.6493 48.8557 41.3978C49.2386 41.1406 49.5929 40.8549 49.9187 40.5348C50.2387 40.2148 50.5302 39.8662 50.7874 39.489C51.0446 39.1118 51.256 38.7117 51.4332 38.2945C51.6104 37.8716 51.7418 37.4429 51.8333 36.9972C51.919 36.5514 51.9647 36.0999 51.9647 35.6484C51.9647 35.1969 51.919 34.7454 51.8333 34.2996C51.7418 33.8539 51.6104 33.4252 51.4332 33.0023C51.256 32.5851 51.0446 32.185 50.7874 31.8078C50.5302 31.4306 50.2387 31.082 49.9187 30.762C49.5929 30.4419 49.2386 30.1562 48.8557 29.9047C48.4728 29.6475 48.0727 29.4361 47.6498 29.2646C47.2212 29.0875 46.7868 28.9617 46.3353 28.8703C45.8838 28.7846 45.4323 28.7388 44.9694 28.7388ZM44.9694 39.489C44.758 39.489 44.5751 39.4147 44.4208 39.2604C44.2665 39.1118 44.1922 38.9346 44.1922 38.7174C44.1922 38.506 44.2665 38.3288 44.4208 38.1745C44.5751 38.0259 44.758 37.9516 44.9694 37.9516C45.1866 37.9516 45.3695 38.0259 45.5181 38.1745C45.6724 38.3288 45.7467 38.506 45.7467 38.7174C45.7467 38.9346 45.6724 39.1118 45.5181 39.2604C45.3695 39.4147 45.1866 39.489 44.9694 39.489ZM46.221 37.0429C46.0667 36.8543 45.8838 36.7057 45.6667 36.6028C45.4438 36.5 45.2152 36.4485 44.9694 36.4485C44.7294 36.4485 44.4951 36.5 44.2779 36.6028C44.055 36.7057 43.8721 36.8543 43.7178 37.0429L42.4605 36.1456C42.6034 35.9513 42.7691 35.7741 42.952 35.6141C43.1406 35.4598 43.3406 35.3226 43.5635 35.2141C43.7807 35.1055 44.0093 35.0197 44.2436 34.9626C44.4836 34.9112 44.7237 34.8826 44.9694 34.8826C45.2152 34.8826 45.4552 34.9112 45.6952 34.9626C45.9353 35.0197 46.1639 35.1055 46.3811 35.2141C46.5982 35.3226 46.7983 35.4598 46.9869 35.6141C47.1697 35.7741 47.3355 35.9513 47.4841 36.1456L46.221 37.0429ZM48.7242 35.2255C48.5071 34.934 48.2613 34.6711 47.9813 34.4368C47.707 34.2025 47.4041 34.0024 47.0783 33.8424C46.7468 33.6767 46.4096 33.5567 46.0553 33.4709C45.6952 33.3852 45.3352 33.3452 44.9694 33.3452C44.6037 33.3452 44.2436 33.3852 43.8893 33.4709C43.5349 33.5567 43.192 33.6767 42.8663 33.8424C42.5405 34.0024 42.2376 34.2025 41.9576 34.4368C41.6775 34.6711 41.4318 34.934 41.2146 35.2255L39.9573 34.3225C40.2487 33.9339 40.5802 33.5795 40.9517 33.2709C41.3232 32.9566 41.7232 32.6937 42.1633 32.4708C42.5976 32.2536 43.0491 32.0879 43.5235 31.9793C44.0036 31.865 44.4836 31.8078 44.9694 31.8078C45.4609 31.8078 45.941 31.865 46.4153 31.9793C46.8897 32.0879 47.3469 32.2536 47.7813 32.4708C48.2156 32.6937 48.6214 32.9566 48.9929 33.2709C49.3643 33.5795 49.6958 33.9339 49.9816 34.3225L48.7242 35.2255Z" fill="black"/>
</g>
<mask id="mask3_1045_608" style="mask-type:luminance" maskUnits="userSpaceOnUse" x="22" y="45" width="30" height="12">
<path d="M22.1836 45.8613H51.445V56.3885H22.1836V45.8613Z" fill="black"/>
</mask>
<g mask="url(#mask3_1045_608)">
<path d="M31.3618 55.0683L36.7454 56.3714L42.2433 55.2855L50.1702 51.142C50.4388 50.9992 50.6217 50.782 50.7188 50.4962C50.8217 50.2162 50.8103 49.9362 50.6903 49.6561C50.5702 49.3818 50.3702 49.1818 50.0959 49.056C49.8159 48.9303 49.5358 48.9132 49.2443 49.0046L41.6947 51.4907H38.3971L35.0994 50.4048L39.803 49.136C40.1859 49.0332 40.4774 48.8217 40.6831 48.4845C40.8946 48.153 40.9574 47.7987 40.8774 47.4158C40.7974 47.0329 40.5917 46.73 40.2716 46.5071C39.9459 46.2842 39.5915 46.1985 39.1972 46.2556L32.9048 47.1472L30.2645 48.1702C29.35 48.5245 28.4013 48.7017 27.4183 48.7017H23.4863V54.8454H29.5043C30.133 54.8454 30.7502 54.9197 31.3618 55.0683Z" fill="black"/>
</g>
<mask id="mask4_1045_608" style="mask-type:luminance" maskUnits="userSpaceOnUse" x="14" y="45" width="9" height="12">
<path d="M14.8687 45.8613H22.184V56.3885H14.8687V45.8613Z" fill="black"/>
</mask>
<g mask="url(#mask4_1045_608)">
<path d="M15.7144 47.1643V56.3828H21.1209C21.338 56.3828 21.5209 56.3085 21.6695 56.1542C21.8238 56.0056 21.8981 55.8284 21.8981 55.6112V47.9358C21.8981 47.7244 21.8238 47.5415 21.6695 47.3929C21.5209 47.2443 21.338 47.1643 21.1209 47.1643H15.7144ZM19.6006 54.0453H18.0461V52.5079H19.6006V54.0453Z" fill="black"/>
</g>
</g>
</g>
<defs>
<clipPath id="clip0_1045_608">
<rect width="65.8381" height="65.8381" fill="black" transform="translate(0.237305 0.506165)"/>
</clipPath>
<clipPath id="clip1_1045_608">
<rect width="65.8381" height="65.8381" fill="black" transform="translate(0.237305 0.506165)"/>
</clipPath>
</defs>
</svg>
