<svg width="66" height="66" viewBox="0 0 66 66" fill="none" xmlns="http://www.w3.org/2000/svg">
<mask id="mask0_180_1273" style="mask-type:luminance" maskUnits="userSpaceOnUse" x="0" y="0" width="66" height="66">
<path d="M0.570312 0.570312H65.4297V65.4297H0.570312V0.570312Z" fill="white"/>
</mask>
<g mask="url(#mask0_180_1273)">
<path d="M33 61.2771C17.4113 61.2771 4.73113 48.5969 4.73113 33C4.73113 17.4113 17.4113 4.73113 33 4.73113C48.5969 4.73113 61.2771 17.4113 61.2771 33C61.2771 48.5969 48.5969 61.2771 33 61.2771ZM33 0.570312C24.3405 0.570312 16.2002 3.9484 10.0702 10.0702C3.9484 16.2002 0.570312 24.3405 0.570312 33C0.570312 41.6677 3.9484 49.8081 10.0702 55.9381C16.2002 62.0598 24.3405 65.4297 33 65.4297C41.6677 65.4297 49.8081 62.0598 55.9381 55.9381C62.0598 49.8081 65.4297 41.6677 65.4297 33C65.4297 24.3405 62.0598 16.2002 55.9381 10.0702C49.8081 3.9484 41.6677 0.570312 33 0.570312Z" fill="#C22032"/>
</g>
<path d="M32.9993 29.8281C31.2443 29.8281 29.8271 31.2453 29.8271 33.0002C29.8271 34.7552 31.2443 36.1723 32.9993 36.1723C34.746 36.1723 36.1714 34.7552 36.1714 33.0002C36.1714 31.2453 34.746 29.8281 32.9993 29.8281Z" fill="#C22032"/>
<path d="M32.9993 29.8281C31.2443 29.8281 29.8271 31.2453 29.8271 33.0002C29.8271 34.7552 31.2443 36.1723 32.9993 36.1723C34.7542 36.1723 36.1714 34.7552 36.1714 33.0002C36.1714 31.2453 34.7542 29.8281 32.9993 29.8281Z" fill="#C22032"/>
<path d="M46.9831 27.4262H26.006L25.2645 22.3096C25.1161 21.2879 24.2428 20.5464 23.2129 20.5464H19.0109C17.8656 20.5464 16.9346 21.4774 16.9346 22.6227C16.9346 23.7762 17.8656 24.699 19.0109 24.699H20.8812L21.5156 25.4075L22.15 29.8567L24.1522 43.6904C24.3005 44.7121 25.1738 45.4536 26.212 45.4536H44.6761C45.6896 45.4536 46.5629 44.7368 46.7277 43.7316L49.0347 29.8979C49.1336 29.2882 48.9605 28.6538 48.5651 28.1842C48.1696 27.7228 47.5928 27.4262 46.9831 27.4262Z" fill="#C22032"/>
<circle cx="27.3117" cy="49.6183" r="2.80484" fill="#C22032"/>
<circle cx="42.7072" cy="49.6183" r="2.80484" fill="#C22032"/>
</svg>
