<svg width="138" height="138" viewBox="0 0 138 138" fill="none" xmlns="http://www.w3.org/2000/svg">
<g clip-path="url(#clip0_465_2493)">
<path d="M131.262 11.8838C132.374 11.8838 133.276 10.982 133.276 9.86938V5.97104C133.276 2.67856 130.597 0 127.305 0H68.0713C64.7788 0 62.1002 2.67856 62.1002 5.97104V49.3595C62.1002 53.6739 65.165 57.4484 69.3874 58.3346L81.6268 60.9031C84.39 61.4829 86.4216 63.7428 86.775 66.4616C75.4635 67.4851 72.2757 75.5487 70.1539 77.5581C67.0924 81.4457 62.7523 80.8043 62.4128 80.8717V78.103C62.4128 75.2694 60.1075 72.9644 57.2743 72.9644H48.3422C45.9013 72.9644 43.8568 74.6765 43.3355 76.9616H10.6188C7.09189 76.9616 4.22266 79.8308 4.22266 83.3578V120.027C4.22266 123.554 7.09189 126.423 10.6188 126.423H43.9561C44.859 127.905 46.4846 128.899 48.3424 128.899H57.2746C60.1081 128.899 62.4131 126.593 62.4131 123.76V122.403H67.7146C68.8208 122.403 69.9028 122.611 70.9306 123.02C77.2531 125.37 79.1693 126.783 85.3651 128.086C86.862 133.542 91.9224 137.5 97.688 137.5C103.461 137.5 108.478 133.628 109.997 128.154C114.22 125.803 115.552 120.292 112.684 116.305C118.285 114.141 119.333 107.109 115.502 103.018C119.392 100.315 120.147 95.1108 117.387 91.4402C125.371 87.754 122.661 75.8337 113.962 75.8337L108.826 75.8294L108.545 67.5087C108.452 64.3336 110.641 61.5554 113.749 60.9031L125.989 58.3346C130.211 57.4484 133.276 53.6739 133.276 49.3595V19.2997C133.276 18.1873 132.374 17.2853 131.262 17.2853C130.149 17.2853 129.247 18.1871 129.247 19.2997V44.4799H66.1288V5.97104C66.1288 4.90005 67.0003 4.02859 68.0713 4.02859H72.739V29.8195C72.739 33.7493 75.8244 36.9365 79.7402 36.9365C83.5832 36.9365 86.7337 33.8274 86.7337 29.939V17.7625C86.7337 16.1256 88.0654 14.7939 89.7025 14.7939C91.3396 14.7939 92.6714 16.1256 92.6714 17.7625V18.4792C92.6714 22.3376 95.8103 25.4767 99.6689 25.4767C103.527 25.4767 106.666 22.3378 106.666 18.4792V4.02859H127.305C128.376 4.02859 129.248 4.90005 129.248 5.97104V9.86938C129.247 10.982 130.15 11.8838 131.262 11.8838ZM58.3842 123.76C58.3842 124.372 57.8863 124.87 57.2743 124.87H48.3422C47.8091 124.87 47.3633 124.492 47.2567 123.99C47.2403 123.912 47.232 123.835 47.232 123.76V116.082C47.232 114.97 46.3301 114.068 45.2175 114.068C44.1049 114.068 43.2031 114.969 43.2031 116.082V122.394H10.6188C9.31338 122.394 8.25124 121.332 8.25124 120.027V83.3578C8.25124 82.0523 9.31338 80.9902 10.6188 80.9902H43.2036V106.666C43.2036 107.779 44.1054 108.681 45.2181 108.681C46.3307 108.681 47.2325 107.779 47.2325 106.666V78.103C47.2325 77.4909 47.7304 76.993 48.3427 76.993H57.2748C57.8869 76.993 58.3848 77.4909 58.3848 78.103L58.3842 123.76ZM97.688 133.471C94.403 133.471 91.4532 131.595 89.9641 128.815C93.6108 129.209 95.0868 129.039 105.226 129.169C103.689 131.771 100.855 133.471 97.688 133.471ZM118.123 84.012C118.123 86.3003 116.256 88.1617 113.961 88.1617H111.555C109.022 88.1617 108.802 91.9333 111.33 92.2179C113.462 92.4583 115.077 94.332 115.005 96.4839C114.931 98.6928 112.998 100.49 110.695 100.49L109.858 100.49C107.249 100.492 107.164 104.422 109.781 104.524C114.864 104.721 115.233 112.818 109.764 112.818H108.449C105.976 112.818 105.285 116.236 107.57 117.192C111.861 118.992 110.478 125.146 106.046 125.146C95.818 124.945 92.922 125.372 87.4029 124.377C87.3798 124.373 87.3572 124.368 87.3339 124.365C80.953 123.204 78.2119 121.402 72.4216 119.277C70.9174 118.678 69.3337 118.374 67.7146 118.374H62.4131V84.9003C62.7249 84.8354 68.929 85.6249 73.3191 80.0505C75.5134 77.9021 77.877 71.515 86.7294 70.5104L86.6233 73.6449C86.6225 73.6672 86.6222 73.6898 86.6222 73.7123C86.6211 77.0795 89.3427 79.8448 92.7708 79.8448L113.961 79.862C116.256 79.8623 118.123 81.7239 118.123 84.012ZM129.247 48.5085V49.3595C129.247 51.7787 127.529 53.8952 125.161 54.3917L112.922 56.9602C107.902 58.0137 104.368 62.4997 104.519 67.6358L104.795 75.8261L92.7721 75.8165C91.6052 75.8165 90.6656 74.8983 90.6505 73.7419C90.665 73.3168 90.5984 75.2807 90.8573 67.6274C91.0082 62.4999 87.4741 58.014 82.454 56.9604L70.2146 54.392C67.847 53.8952 66.1285 51.7787 66.1285 49.3598V48.5088L129.247 48.5085ZM102.637 18.479C102.637 22.4082 96.6997 22.4034 96.6997 18.479V17.7622C96.6997 13.9039 93.5609 10.765 89.7023 10.765C85.8439 10.765 82.7048 13.9039 82.7048 17.7622V29.939C82.7048 31.6199 81.3142 32.9667 79.6261 32.9057C78.0497 32.8496 76.7676 31.4652 76.7676 29.8195V4.02859H102.637V18.479Z" fill="#359FEE"/>
</g>
<defs>
<clipPath id="clip0_465_2493">
<rect width="137.5" height="137.5" fill="white"/>
</clipPath>
</defs>
</svg>
