<?xml version="1.0" encoding="utf-8"?>
<!-- Generator: Adobe Illustrator 26.0.1, SVG Export Plug-In . SVG Version: 6.00 Build 0)  -->
<svg version="1.1" id="Layer_1" xmlns="http://www.w3.org/2000/svg" xmlns:xlink="http://www.w3.org/1999/xlink" x="0px" y="0px"
	 viewBox="0 0 90 90" style="enable-background:new 0 0 90 90;" xml:space="preserve">
<style type="text/css">
	.st0{fill:#4B9BD5;}
</style>
<g>
	<path class="st0" d="M83.76,9.74c0.69,0,1.25-0.56,1.25-1.25V6.07c0-2.04-1.66-3.7-3.7-3.7H44.58c-2.04,0-3.7,1.66-3.7,3.7v26.9
		c0,2.68,1.9,5.02,4.52,5.57l7.59,1.59c1.71,0.36,2.97,1.76,3.19,3.45c-7.01,0.63-8.99,5.63-10.31,6.88
		c-1.9,2.41-4.59,2.01-4.8,2.05V50.8c0-1.76-1.43-3.19-3.19-3.19h-5.54c-1.51,0-2.78,1.06-3.1,2.48H8.96
		c-2.19,0-3.97,1.78-3.97,3.97V76.8c0,2.19,1.78,3.97,3.97,3.97h20.67c0.56,0.92,1.57,1.53,2.72,1.53h5.54
		c1.76,0,3.19-1.43,3.19-3.19v-0.84h3.29c0.69,0,1.36,0.13,1.99,0.38c3.92,1.46,5.11,2.33,8.95,3.14c0.93,3.38,4.07,5.84,7.64,5.84
		c3.58,0,6.69-2.4,7.63-5.8c2.62-1.46,3.44-4.87,1.67-7.35c3.47-1.34,4.12-5.7,1.75-8.24c2.41-1.68,2.88-4.9,1.17-7.18
		c4.95-2.29,3.27-9.68-2.12-9.68l-3.18,0l-0.17-5.16c-0.06-1.97,1.3-3.69,3.23-4.1l7.59-1.59c2.62-0.55,4.52-2.89,4.52-5.57V14.34
		c0-0.69-0.56-1.25-1.25-1.25c-0.69,0-1.25,0.56-1.25,1.25v15.61H43.38V6.07c0-0.66,0.54-1.2,1.2-1.2h2.89v15.99
		c0,2.44,1.91,4.41,4.34,4.41c2.38,0,4.34-1.93,4.34-4.34v-7.55c0-1.01,0.83-1.84,1.84-1.84s1.84,0.83,1.84,1.84v0.44
		c0,2.39,1.95,4.34,4.34,4.34c2.39,0,4.34-1.95,4.34-4.34V4.87h12.8c0.66,0,1.2,0.54,1.2,1.2v2.42C82.51,9.18,83.07,9.74,83.76,9.74
		L83.76,9.74z M38.57,79.11c0,0.38-0.31,0.69-0.69,0.69h-5.54c-0.33,0-0.61-0.23-0.67-0.55c-0.01-0.05-0.02-0.1-0.02-0.14v-4.76
		c0-0.69-0.56-1.25-1.25-1.25s-1.25,0.56-1.25,1.25v3.91H8.96c-0.81,0-1.47-0.66-1.47-1.47V54.06c0-0.81,0.66-1.47,1.47-1.47h20.2
		v15.92c0,0.69,0.56,1.25,1.25,1.25s1.25-0.56,1.25-1.25V50.8c0-0.38,0.31-0.69,0.69-0.69h5.54c0.38,0,0.69,0.31,0.69,0.69
		L38.57,79.11L38.57,79.11z M62.94,85.13c-2.04,0-3.87-1.16-4.79-2.89c2.26,0.24,3.18,0.14,9.46,0.22
		C66.66,84.08,64.91,85.13,62.94,85.13z M75.61,54.46c0,1.42-1.16,2.57-2.58,2.57h-1.49c-1.57,0-1.71,2.34-0.14,2.52
		c1.32,0.15,2.32,1.31,2.28,2.65c-0.05,1.37-1.24,2.48-2.67,2.48l-0.52,0c-1.62,0-1.67,2.44-0.05,2.5c3.15,0.12,3.38,5.14-0.01,5.14
		h-0.82c-1.53,0-1.96,2.12-0.54,2.71c2.66,1.12,1.8,4.93-0.95,4.93c-6.34-0.12-8.14,0.14-11.56-0.48c-0.01,0-0.03-0.01-0.04-0.01
		c-3.96-0.72-5.66-1.84-9.25-3.15c-0.93-0.37-1.91-0.56-2.92-0.56h-3.29V55.01c0.19-0.04,4.04,0.45,6.76-3.01
		c1.36-1.33,2.83-5.29,8.32-5.92l-0.07,1.94c0,0.01,0,0.03,0,0.04c0,2.09,1.69,3.8,3.81,3.8l13.14,0.01
		C74.46,51.89,75.61,53.04,75.61,54.46L75.61,54.46z M82.51,32.45v0.53c0,1.5-1.07,2.81-2.53,3.12l-7.59,1.59
		c-3.11,0.65-5.3,3.43-5.21,6.62l0.17,5.08l-7.46-0.01c-0.72,0-1.31-0.57-1.32-1.29c0.01-0.26-0.03,0.95,0.13-3.79
		c0.09-3.18-2.1-5.96-5.21-6.61l-7.59-1.59c-1.47-0.31-2.53-1.62-2.53-3.12v-0.53L82.51,32.45L82.51,32.45z M66.01,13.83
		c0,2.44-3.68,2.43-3.68,0v-0.44c0-2.39-1.95-4.34-4.34-4.34c-2.39,0-4.34,1.95-4.34,4.34v7.55c0,1.04-0.86,1.88-1.91,1.84
		c-0.98-0.03-1.77-0.89-1.77-1.91V4.87h16.04V13.83z"/>
</g>
</svg>
