<?xml version="1.0" encoding="utf-8"?>
<!-- Generator: Adobe Illustrator 26.0.1, SVG Export Plug-In . SVG Version: 6.00 Build 0)  -->
<svg version="1.1" id="Layer_1" xmlns="http://www.w3.org/2000/svg" xmlns:xlink="http://www.w3.org/1999/xlink" x="0px" y="0px"
	 viewBox="0 0 70 70" style="enable-background:new 0 0 70 70;" xml:space="preserve">
<style type="text/css">
	.st0{fill:#97DDE5;stroke:#000000;stroke-width:0.5;stroke-miterlimit:10;}
	.st1{fill:#97DDE5;}
	.st2{fill:#294C6A;stroke:#000000;stroke-width:0.5;stroke-miterlimit:10;}
	.st3{fill:#F88401;stroke:#000000;stroke-width:0.5;stroke-miterlimit:10;}
	.st4{fill:#97DDE5;stroke:#000000;stroke-width:0.1;stroke-miterlimit:10;}
	.st5{fill:url(#SVGID_1_);}
</style>
<g>
	<path class="st0" d="M48.49,28.01c0.03-11.51-9.3-20.88-20.82-20.9c-11.51-0.03-20.88,9.3-20.9,20.81
		c-0.01,5.56,2.16,10.61,5.68,14.36c3.79,4.03,9.17,6.54,15.13,6.56c5.71,0.01,10.88-2.27,14.67-5.96l2.45,2.46l1.55-1.54
		l-2.53-2.54C46.7,37.66,48.48,33.04,48.49,28.01z M40.17,37.26c-2.86,3.88-7.48,6.39-12.66,6.38c-5.2-0.01-9.78-2.54-12.63-6.44
		c-1.89-2.6-3.02-5.8-3.01-9.27c0.02-8.64,7.05-15.66,15.71-15.64c8.64,0.02,15.66,7.07,15.64,15.71
		C43.21,31.48,42.07,34.67,40.17,37.26z"/>
	<path class="st1" d="M43.22,28c-0.01,3.48-1.15,6.66-3.05,9.26c-2.86,3.88-7.48,6.39-12.66,6.38c-5.2-0.01-9.78-2.54-12.63-6.44
		c-1.89-2.6-3.02-5.8-3.01-9.27c0.02-8.64,7.05-15.66,15.71-15.64C36.22,12.31,43.24,19.36,43.22,28z"/>
	<path class="st2" d="M43.22,28c-0.01,3.48-1.15,6.66-3.05,9.26c-2.86,3.88-7.48,6.39-12.66,6.38c-5.2-0.01-9.78-2.54-12.63-6.44
		c-1.89-2.6-3.02-5.8-3.01-9.27c0.02-8.64,7.05-15.66,15.71-15.64C36.22,12.31,43.24,19.36,43.22,28z"/>
	<g>
		<circle class="st3" cx="27.54" cy="24.82" r="5.85"/>
		<path class="st3" d="M40.17,37.26c-2.86,3.88-7.48,6.39-12.66,6.38c-5.2-0.01-9.78-2.54-12.63-6.44c2.83-3.9,7.45-6.44,12.66-6.43
			C32.74,30.78,37.34,33.35,40.17,37.26z"/>
	</g>
	<g>
		<polygon class="st4" points="48.2,45.15 46.65,46.69 44.95,45 46.5,43.45 		"/>
		<path class="st2" d="M62.03,61.11c-1.93,1.92-5.07,1.92-7.02-0.02L41.96,47.97L44.95,45l1.55-1.54l2.49-2.48l2.24,2.25l0.38,0.38
			l10.44,10.48C63.98,56.03,63.97,59.17,62.03,61.11z"/>
		
			<radialGradient id="SVGID_1_" cx="131.642" cy="-76.8728" r="2.1352" gradientTransform="matrix(1.4192 -1.4126 0.1364 0.137 -128.1412 243.6991)" gradientUnits="userSpaceOnUse">
			<stop  offset="0" style="stop-color:#000000"/>
			<stop  offset="1" style="stop-color:#FFFFFF"/>
		</radialGradient>
		<polygon class="st5" points="51.78,42.67 52.75,43.64 44.61,51.75 43.64,50.77 		"/>
		<polygon class="st3" points="51.61,43.61 44.58,50.61 41.96,47.97 44.95,45 46.5,43.45 48.99,40.97 51.23,43.23 		"/>
	</g>
</g>
</svg>
