<svg width="139" height="139" viewBox="0 0 139 139" fill="none" xmlns="http://www.w3.org/2000/svg">
<path d="M125.756 71.3203L125.581 65.4688C125.561 64.6445 125.258 63.8521 124.72 63.2263C124.184 62.6005 123.447 62.1799 122.635 62.036C122.395 62.0166 122.154 62.0166 121.914 62.036L119.007 62.0749C118.177 62.1033 117.363 61.8397 116.707 61.33C116.051 60.8205 115.595 60.097 115.418 59.2858C115.301 58.7201 115.164 58.174 115.028 57.6278C114.755 56.5551 114.462 55.5018 114.111 54.4876C112.846 50.5826 111.055 46.8684 108.787 43.4478L108.65 43.2333C108.227 42.5723 108.033 41.791 108.095 41.009C108.159 40.227 108.478 39.4873 109.001 38.9031L110.834 36.9527C111.162 36.6148 111.418 36.2153 111.589 35.7775C111.76 35.3397 111.843 34.8723 111.832 34.4023C111.822 33.9323 111.717 33.4692 111.525 33.0398C111.334 32.6104 111.059 32.2232 110.717 31.9009L109.059 30.321L105.997 27.3757C105.661 27.0495 105.263 26.7934 104.827 26.6224C104.391 26.4514 103.925 26.369 103.457 26.38C102.988 26.3908 102.527 26.4948 102.099 26.6859C101.671 26.8769 101.286 27.1512 100.965 27.4928L99.229 29.2872C98.6657 29.8707 97.9213 30.2462 97.1173 30.3524C96.3133 30.4587 95.4969 30.2894 94.8014 29.8724C89.6019 26.5628 83.7922 24.3278 77.7152 23.2992C76.9069 23.1589 76.1726 22.7414 75.6387 22.1184C75.1048 21.4955 74.8045 20.7061 74.7894 19.8859V17.2918C74.7768 16.8229 74.6718 16.3613 74.4807 15.933C74.2895 15.5047 74.016 15.1183 73.6753 14.796C73.3348 14.4736 72.9341 14.2214 72.496 14.0539C72.058 13.8864 71.5912 13.8069 71.1225 13.8198L64.6078 13.9954C64.1365 14.008 63.6722 14.1134 63.2416 14.3056C62.8111 14.4977 62.4225 14.7729 62.0982 15.1151C61.7741 15.4575 61.5204 15.8604 61.3519 16.3008C61.1836 16.7412 61.1035 17.2105 61.1165 17.6818L61.2725 23.5333C60.4728 23.7088 59.6926 23.8649 58.8929 24.0795C53.3802 25.4516 48.1692 27.8322 43.523 31.1012C42.8508 31.569 42.0381 31.7914 41.2212 31.731C40.4044 31.6706 39.6331 31.3312 39.0369 30.7696L37.0864 28.8191C36.3984 28.1649 35.4801 27.8083 34.5308 27.8265C33.5815 27.8448 32.6776 28.2365 32.0152 28.9167L27.334 33.6563C26.6822 34.3379 26.3266 35.2497 26.3448 36.1926C26.3631 37.1355 26.7538 38.0328 27.4315 38.6886L29.8112 40.8536C30.3883 41.4038 30.7622 42.1332 30.872 42.923C30.9819 43.7128 30.821 44.5165 30.4158 45.2032C27.3847 50.2761 25.3584 55.885 24.4473 61.7239C24.3086 62.5381 23.8934 63.2796 23.2715 63.8232C22.6497 64.3669 21.8595 64.6795 21.0339 64.7081L16.3332 64.8251C15.8653 64.8377 15.4046 64.9427 14.9774 65.1341C14.5502 65.3255 14.1651 65.5995 13.8442 65.9404C13.5233 66.2811 13.273 66.6821 13.1077 67.12C12.9424 67.5579 12.8653 68.0242 12.8809 68.492L13.0565 75.0262C13.0691 75.4949 13.1739 75.9567 13.3651 76.385C13.5562 76.8131 13.8299 77.1995 14.1704 77.522C14.5111 77.8444 14.9118 78.0966 15.3498 78.2641C15.7878 78.4315 16.2546 78.5111 16.7234 78.498L24.8569 78.2835C24.9935 78.9272 25.1495 79.5709 25.3056 80.2339C26.6413 85.563 28.9204 90.6098 32.0347 95.1357C32.4995 95.808 32.7167 96.6209 32.6491 97.4354C32.5815 98.25 32.2334 99.0158 31.6641 99.6023L27.7631 103.62C27.4393 103.958 27.1853 104.356 27.0157 104.792C26.8463 105.228 26.7647 105.693 26.7756 106.161C26.7864 106.628 26.8896 107.089 27.0792 107.517C27.2688 107.944 27.5409 108.331 27.8802 108.653L29.2845 110.018L32.5808 113.197C33.2537 113.869 34.1657 114.247 35.1165 114.247C36.0673 114.247 36.9792 113.869 37.6521 113.197L41.5531 109.062C42.1045 108.48 42.8376 108.104 43.6315 107.994C44.4257 107.884 45.2334 108.048 45.9221 108.458C49.4199 110.585 53.1848 112.238 57.118 113.372C58.3227 113.745 59.5469 114.051 60.7849 114.29C61.5637 114.455 62.264 114.879 62.7735 115.49C63.2828 116.103 63.5717 116.868 63.5935 117.664L63.7302 122.989V123.262C63.7497 123.741 63.8656 124.212 64.0711 124.646C64.2765 125.078 64.5673 125.466 64.9261 125.785C65.2847 126.103 65.7039 126.347 66.1587 126.499C66.6134 126.652 67.0942 126.713 67.5726 126.675L74.1457 126.538C74.6137 126.526 75.0745 126.421 75.5017 126.229C75.9289 126.039 76.314 125.764 76.6348 125.423C76.9557 125.083 77.2059 124.682 77.3713 124.244C77.5367 123.806 77.6136 123.34 77.5981 122.871L77.4811 117.762C77.456 116.916 77.721 116.088 78.2318 115.413C78.7428 114.739 79.469 114.26 80.2898 114.055L81.46 113.763C86.4179 112.524 91.1323 110.46 95.4061 107.658C96.0788 107.224 96.8784 107.03 97.675 107.108C98.4717 107.186 99.2187 107.531 99.7946 108.087L103.696 111.851C104.381 112.51 105.301 112.871 106.251 112.852C107.202 112.834 108.107 112.439 108.767 111.754L113.292 107.034C113.957 106.362 114.331 105.454 114.331 104.508C114.331 103.562 113.957 102.654 113.292 101.982L109.645 98.471C109.048 97.9059 108.668 97.1494 108.572 96.3331C108.475 95.5169 108.669 94.6929 109.118 94.0044C112.157 89.2746 114.318 84.0348 115.496 78.5371C115.673 77.7671 116.1 77.0774 116.71 76.5762C117.321 76.075 118.081 75.7906 118.87 75.7673H122.401C123.334 75.7071 124.207 75.2872 124.837 74.5959C125.465 73.9046 125.802 72.9959 125.775 72.0614L125.756 71.3203ZM56.2793 97.8664C53.1259 96.2625 50.2697 94.1319 47.8336 91.5663C44.9046 88.6412 42.5806 85.1678 40.9939 81.3445C39.4073 77.5211 38.5893 73.4227 38.5866 69.2831C38.5811 60.9231 41.8968 52.9032 47.8044 46.9879C53.712 41.0726 61.7275 37.7463 70.0875 37.7408C78.4476 37.7353 86.4674 41.0511 92.3827 46.9586C94.7069 49.1099 96.6811 51.6106 98.2342 54.3705C99.6309 56.8163 100.687 59.4411 101.375 62.1725C101.753 63.6994 102.027 65.2504 102.194 66.8146C102.634 71.3547 102.084 75.9365 100.582 80.2433C99.0792 84.5502 96.6597 88.4796 93.4903 91.7601C90.321 95.0407 86.4774 97.5943 82.225 99.2447C77.9725 100.895 73.4125 101.603 68.8599 101.319C64.4674 101.083 60.177 99.9052 56.2793 97.8664Z" fill="#F88401" stroke="#01090F" stroke-width="0.861285" stroke-linecap="round" stroke-linejoin="round"/>
<mask id="mask0_3714_2074" style="mask-type:alpha" maskUnits="userSpaceOnUse" x="12" y="13" width="115" height="115">
<path d="M125.764 71.3234L125.588 65.472C125.569 64.6476 125.265 63.8552 124.728 63.2295C124.192 62.6037 123.455 62.1831 122.643 62.0391C122.403 62.0198 122.162 62.0198 121.921 62.0391L119.015 62.0781C118.185 62.1064 117.371 61.8428 116.715 61.3332C116.059 60.8236 115.603 60.1003 115.426 59.2889C115.309 58.7233 115.172 58.1771 115.035 57.6309C114.763 56.5582 114.47 55.505 114.119 54.4907C112.854 50.5857 111.063 46.8717 108.794 43.451L108.658 43.2364C108.235 42.5755 108.041 41.7942 108.103 41.0122C108.167 40.2302 108.485 39.4905 109.009 38.9063L110.842 36.9558C111.169 36.618 111.426 36.2185 111.597 35.7807C111.768 35.3429 111.851 34.8755 111.84 34.4055C111.829 33.9355 111.725 33.4724 111.533 33.043C111.342 32.6136 111.067 32.2265 110.725 31.904L109.067 30.3241L106.005 27.379C105.669 27.0526 105.271 26.7966 104.835 26.6257C104.399 26.4546 103.933 26.3722 103.464 26.3831C102.996 26.394 102.534 26.498 102.107 26.6891C101.679 26.8802 101.293 27.1544 100.973 27.496L99.2368 29.2904C98.6735 29.8739 97.9292 30.2493 97.1251 30.3556C96.3211 30.4618 95.5047 30.2927 94.8093 29.8756C89.6097 26.5659 83.8 24.331 77.723 23.3024C76.9147 23.162 76.1804 22.7445 75.6465 22.1217C75.1126 21.4988 74.8123 20.7093 74.7972 19.889V17.2949C74.7846 16.8261 74.6797 16.3644 74.4885 15.9361C74.2974 15.508 74.0238 15.1216 73.6831 14.7991C73.3426 14.4767 72.9419 14.2246 72.5039 14.057C72.0658 13.8896 71.599 13.8101 71.1303 13.8231L64.6156 13.9986C64.1443 14.0112 63.6801 14.1166 63.2494 14.3087C62.8189 14.5009 62.4303 14.776 62.1061 15.1184C61.7819 15.4607 61.5282 15.8636 61.3598 16.304C61.1914 16.7444 61.1113 17.2136 61.1243 17.685L61.2803 23.5364C60.4806 23.712 59.7004 23.868 58.9008 24.0826C53.388 25.4547 48.177 27.8354 43.5308 31.1043C42.8586 31.5722 42.0459 31.7946 41.2291 31.7342C40.4122 31.6739 39.641 31.3344 39.0447 30.7727L37.0942 28.8223C36.4062 28.1681 35.4879 27.8114 34.5386 27.8297C33.5893 27.8479 32.6854 28.2396 32.023 28.9198L27.3418 33.6596C26.69 34.3411 26.3344 35.2528 26.3526 36.1957C26.3709 37.1386 26.7616 38.036 27.4393 38.6917L29.819 40.8568C30.3961 41.407 30.77 42.1363 30.8799 42.9261C30.9897 43.7159 30.8288 44.5196 30.4236 45.2064C27.3925 50.2793 25.3662 55.8882 24.4551 61.727C24.3164 62.5412 23.9012 63.2828 23.2793 63.8264C22.6576 64.3701 21.8673 64.6826 21.0417 64.7112L16.341 64.8283C15.8732 64.8409 15.4124 64.9459 14.9852 65.1374C14.558 65.3287 14.1729 65.6027 13.852 65.9435C13.5311 66.2843 13.2808 66.6852 13.1155 67.1232C12.9502 67.5611 12.8731 68.0274 12.8887 68.4952L13.0643 75.0293C13.0769 75.4982 13.1817 75.9598 13.373 76.3881C13.564 76.8164 13.8377 77.2027 14.1783 77.5251C14.5189 77.8476 14.9196 78.0997 15.3576 78.2672C15.7956 78.4346 16.2625 78.5142 16.7312 78.5012L24.8648 78.2867C25.0013 78.9303 25.1573 79.574 25.3134 80.2372C26.6491 85.5662 28.9282 90.613 32.0425 95.1389C32.5074 95.8112 32.7245 96.624 32.6569 97.4386C32.5893 98.2531 32.2412 99.019 31.6719 99.6056L27.7709 103.624C27.4471 103.961 27.1931 104.359 27.0236 104.795C26.8541 105.231 26.7725 105.696 26.7834 106.164C26.7942 106.632 26.8974 107.092 27.087 107.52C27.2766 107.947 27.5487 108.334 27.888 108.656L29.2923 110.021L32.5886 113.2C33.2615 113.872 34.1735 114.25 35.1243 114.25C36.0751 114.25 36.987 113.872 37.6599 113.2L41.5609 109.065C42.1123 108.484 42.8454 108.107 43.6394 107.997C44.4335 107.887 45.2412 108.051 45.9299 108.461C49.4277 110.588 53.1926 112.241 57.1258 113.376C58.3305 113.748 59.5547 114.054 60.7927 114.293C61.5715 114.459 62.2719 114.882 62.7813 115.493C63.2906 116.106 63.5795 116.871 63.6014 117.667L63.738 122.992V123.265C63.7575 123.744 63.8734 124.215 64.0789 124.649C64.2844 125.082 64.5751 125.469 64.9339 125.788C65.2925 126.107 65.7117 126.35 66.1665 126.503C66.6212 126.656 67.1021 126.716 67.5804 126.678L74.1535 126.541C74.6215 126.53 75.0823 126.424 75.5095 126.232C75.9367 126.041 76.3218 125.767 76.6426 125.426C76.9635 125.086 77.2137 124.684 77.3791 124.247C77.5445 123.809 77.6215 123.343 77.606 122.875L77.4889 117.765C77.4639 116.919 77.7288 116.091 78.2396 115.416C78.7506 114.742 79.4768 114.263 80.2976 114.058L81.4679 113.766C86.4258 112.527 91.1401 110.463 95.4139 107.661C96.0866 107.227 96.8862 107.034 97.6828 107.112C98.4795 107.189 99.2265 107.534 99.8025 108.091L103.703 111.854C104.389 112.513 105.308 112.873 106.259 112.856C107.21 112.837 108.115 112.442 108.775 111.758L113.3 107.037C113.965 106.365 114.339 105.457 114.339 104.511C114.339 103.565 113.965 102.657 113.3 101.985L109.652 98.4743C109.056 97.909 108.676 97.1525 108.58 96.3363C108.483 95.5202 108.677 94.696 109.126 94.0076C112.165 89.2779 114.326 84.0379 115.504 78.5403C115.68 77.7703 116.108 77.0806 116.718 76.5794C117.329 76.0782 118.089 75.7937 118.878 75.7706H122.409C123.341 75.7103 124.215 75.2903 124.844 74.599C125.473 73.9077 125.81 72.9992 125.783 72.0646L125.764 71.3234ZM56.2871 97.8695C53.1337 96.2657 50.2775 94.135 47.8415 91.5694C44.9124 88.6443 42.5884 85.171 41.0017 81.3476C39.4151 77.5243 38.5971 73.4258 38.5944 69.2864C38.5889 60.9263 41.9046 52.9065 47.8122 46.9911C53.7198 41.0758 61.7353 37.7495 70.0953 37.744C78.4554 37.7385 86.4753 41.0542 92.3906 46.9619C94.7147 49.1131 96.6889 51.6138 98.2421 54.3737C99.6387 56.8195 100.695 59.4443 101.382 62.1756C101.761 63.7026 102.034 65.2535 102.202 66.8178C102.642 71.3579 102.092 75.9396 100.59 80.2465C99.087 84.5533 96.6675 88.4827 93.4982 91.7633C90.3288 95.0439 86.4853 97.5975 82.2328 99.2478C77.9803 100.898 73.4203 101.606 68.8677 101.322C64.4752 101.086 60.1849 99.9083 56.2871 97.8695Z" fill="#97DDE5" stroke="#01090F" stroke-width="0.861285" stroke-linecap="round" stroke-linejoin="round"/>
</mask>
<g mask="url(#mask0_3714_2074)">
<path d="M106.497 81.5372C106.497 113.736 82.3178 139.782 52.5591 139.782C22.8003 139.782 -1.37891 113.736 -1.37891 81.5372C-1.37891 49.3381 22.8003 23.2928 52.5591 23.2928C82.3178 23.2928 106.497 49.3381 106.497 81.5372Z" fill="#294C6A" stroke="#01090F" stroke-width="0.861285"/>
</g>
<path d="M125.756 71.3203L125.581 65.4688C125.561 64.6445 125.258 63.8521 124.72 63.2263C124.184 62.6005 123.447 62.1799 122.635 62.036C122.395 62.0166 122.154 62.0166 121.914 62.036L119.007 62.0749C118.177 62.1033 117.363 61.8397 116.707 61.33C116.051 60.8205 115.595 60.097 115.418 59.2858C115.301 58.7201 115.164 58.174 115.028 57.6278C114.755 56.5551 114.462 55.5018 114.111 54.4876C112.846 50.5826 111.055 46.8684 108.787 43.4478L108.65 43.2333C108.227 42.5723 108.033 41.791 108.095 41.009C108.159 40.227 108.478 39.4873 109.001 38.9031L110.834 36.9527C111.162 36.6148 111.418 36.2153 111.589 35.7775C111.76 35.3397 111.843 34.8723 111.832 34.4023C111.822 33.9323 111.717 33.4692 111.525 33.0398C111.334 32.6104 111.059 32.2232 110.717 31.9009L109.059 30.321L105.997 27.3757C105.661 27.0495 105.263 26.7934 104.827 26.6224C104.391 26.4514 103.925 26.369 103.456 26.38C102.988 26.3908 102.527 26.4948 102.099 26.6859C101.671 26.8769 101.286 27.1512 100.965 27.4928L99.229 29.2872C98.6657 29.8707 97.9213 30.2462 97.1173 30.3524C96.3133 30.4587 95.4969 30.2894 94.8014 29.8724C89.6019 26.5628 83.7922 24.3278 77.7152 23.2992C76.9069 23.1589 76.1726 22.7413 75.6387 22.1184C75.1048 21.4956 74.8045 20.7061 74.7894 19.8859V17.2918C74.7768 16.8229 74.6718 16.3613 74.4807 15.933C74.2895 15.5047 74.016 15.1183 73.6753 14.796C73.3348 14.4736 72.9341 14.2214 72.496 14.0539C72.058 13.8864 71.5912 13.8069 71.1225 13.8198L64.6078 13.9954C64.1365 14.008 63.6722 14.1134 63.2416 14.3056C62.8111 14.4977 62.4225 14.7729 62.0982 15.1151C61.7741 15.4575 61.5204 15.8604 61.3519 16.3008C61.1836 16.7412 61.1035 17.2105 61.1165 17.6818L61.2725 23.5333C60.4728 23.7088 59.6926 23.8649 58.8929 24.0795C53.3802 25.4516 48.1692 27.8322 43.523 31.1012C42.8508 31.569 42.0381 31.7914 41.2212 31.731C40.4044 31.6706 39.6331 31.3312 39.0369 30.7696L37.0864 28.8191C36.3984 28.1649 35.4801 27.8083 34.5308 27.8265C33.5815 27.8448 32.6776 28.2365 32.0152 28.9167L27.334 33.6563C26.6822 34.3379 26.3266 35.2497 26.3448 36.1926C26.3631 37.1355 26.7538 38.0328 27.4315 38.6886L29.8112 40.8536C30.3883 41.4038 30.7622 42.1332 30.872 42.923C30.9819 43.7128 30.821 44.5165 30.4158 45.2032C27.3847 50.2761 25.3584 55.885 24.4473 61.7239C24.3086 62.5381 23.8934 63.2796 23.2715 63.8232C22.6497 64.3669 21.8595 64.6795 21.0339 64.7081L16.3332 64.8251C15.8653 64.8377 15.4046 64.9428 14.9774 65.1341C14.5502 65.3255 14.1651 65.5995 13.8442 65.9403C13.5233 66.2811 13.273 66.6821 13.1077 67.12C12.9424 67.5579 12.8653 68.0242 12.8809 68.492L13.0565 75.0262C13.0691 75.4949 13.1739 75.9567 13.3651 76.385C13.5562 76.8131 13.8299 77.1995 14.1704 77.522C14.5111 77.8444 14.9118 78.0966 15.3498 78.2641C15.7878 78.4315 16.2546 78.5111 16.7234 78.498L24.8569 78.2835C24.9935 78.9272 25.1495 79.5709 25.3056 80.2339C26.6413 85.563 28.9204 90.6098 32.0347 95.1357C32.4995 95.808 32.7167 96.6209 32.6491 97.4354C32.5815 98.25 32.2334 99.0158 31.6641 99.6023L27.7631 103.62C27.4393 103.958 27.1853 104.356 27.0157 104.792C26.8463 105.228 26.7647 105.693 26.7756 106.161C26.7864 106.628 26.8896 107.089 27.0792 107.517C27.2688 107.944 27.5409 108.331 27.8802 108.653L29.2845 110.018L32.5808 113.197C33.2537 113.869 34.1657 114.247 35.1165 114.247C36.0673 114.247 36.9792 113.869 37.6521 113.197L41.5531 109.062C42.1045 108.48 42.8376 108.104 43.6315 107.994C44.4257 107.884 45.2334 108.048 45.9221 108.458C49.4199 110.585 53.1848 112.238 57.118 113.372C58.3227 113.745 59.5469 114.051 60.7849 114.29C61.5637 114.455 62.264 114.879 62.7735 115.49C63.2828 116.103 63.5717 116.868 63.5935 117.664L63.7302 122.989V123.262C63.7497 123.741 63.8656 124.212 64.0711 124.646C64.2765 125.078 64.5673 125.466 64.9261 125.785C65.2847 126.103 65.7039 126.347 66.1587 126.499C66.6134 126.652 67.0942 126.713 67.5726 126.675L74.1457 126.538C74.6137 126.526 75.0745 126.421 75.5017 126.229C75.9289 126.039 76.314 125.764 76.6348 125.423C76.9557 125.083 77.2059 124.682 77.3713 124.244C77.5367 123.806 77.6136 123.34 77.5981 122.871L77.4811 117.762C77.456 116.916 77.721 116.088 78.2318 115.413C78.7428 114.739 79.469 114.26 80.2898 114.055L81.46 113.763C86.4179 112.524 91.1323 110.46 95.4061 107.658C96.0788 107.224 96.8784 107.03 97.675 107.108C98.4717 107.186 99.2187 107.531 99.7946 108.087L103.696 111.851C104.381 112.51 105.301 112.871 106.251 112.852C107.202 112.834 108.107 112.439 108.767 111.754L113.292 107.034C113.957 106.362 114.331 105.454 114.331 104.508C114.331 103.562 113.957 102.654 113.292 101.982L109.645 98.471C109.048 97.9059 108.668 97.1494 108.572 96.3331C108.475 95.5169 108.669 94.6929 109.118 94.0044C112.157 89.2746 114.318 84.0348 115.496 78.5371C115.673 77.7671 116.1 77.0774 116.71 76.5762C117.321 76.075 118.081 75.7906 118.87 75.7673H122.401C123.334 75.7071 124.207 75.2872 124.837 74.5959C125.465 73.9046 125.802 72.9959 125.775 72.0614L125.756 71.3203ZM56.2793 97.8664C53.1259 96.2625 50.2697 94.1318 47.8336 91.5663C44.9046 88.6412 42.5806 85.1678 40.9939 81.3445C39.4073 77.5211 38.5893 73.4227 38.5866 69.2831C38.5811 60.9231 41.8968 52.9032 47.8044 46.9879C53.712 41.0726 61.7275 37.7463 70.0875 37.7408C78.4476 37.7353 86.4674 41.0511 92.3827 46.9586C94.7069 49.1099 96.6811 51.6106 98.2342 54.3705C99.6309 56.8163 100.687 59.4411 101.375 62.1725C101.753 63.6994 102.027 65.2504 102.194 66.8146C102.635 71.3547 102.084 75.9365 100.582 80.2433C99.0792 84.5502 96.6597 88.4796 93.4903 91.7601C90.321 95.0407 86.4774 97.5943 82.225 99.2447C77.9725 100.895 73.4125 101.603 68.8599 101.319C64.4674 101.083 60.177 99.9051 56.2793 97.8664Z" stroke="#01090F" stroke-width="0.861285" stroke-linecap="round" stroke-linejoin="round"/>
</svg>
