<?xml version="1.0" encoding="utf-8"?>
<!-- Generator: Adobe Illustrator 26.0.1, SVG Export Plug-In . SVG Version: 6.00 Build 0)  -->
<svg version="1.1" id="Layer_1" xmlns="http://www.w3.org/2000/svg" xmlns:xlink="http://www.w3.org/1999/xlink" x="0px" y="0px"
	 viewBox="0 0 70 70" style="enable-background:new 0 0 70 70;" xml:space="preserve">
<style type="text/css">
	.st0{fill:#9BCDFB;stroke:#000000;stroke-width:0.5;stroke-miterlimit:10;}
	.st1{fill:#294C6A;}
	.st2{fill:#F88401;stroke:#000000;stroke-width:0.5;stroke-miterlimit:10;}
	.st3{fill:#9BCDFB;stroke:#000000;stroke-width:0.25;stroke-miterlimit:10;}
</style>
<g>
	<path class="st0" d="M61.2,35c0,10.28-5.45,19.32-13.63,24.3c-4.36,2.65-9.42,4.21-14.88,4.21c-11.84,0-21.97-7.24-26.25-17.53
		C4.96,42.63,4.18,38.89,4.18,35c0-2.03,0.23-4.05,0.62-6c0.55-2.34,1.32-4.6,2.34-6.62c1.71-3.51,4.13-6.54,7.01-9.04
		c4.99-4.28,11.45-6.85,18.54-6.85c9.97,0,18.77,5.14,23.83,12.93C59.48,23.94,61.2,29.24,61.2,35z"/>
	<path class="st1" d="M61.13,35.15c0,10.15-5.38,19.06-13.45,23.98C28.47,57.82,31.23,35.3,31.23,35.3
		c-5.23-12.68,13.14-8.22,13.14-8.22c1.08-9.61,10.07-7.38,10.07-7.38s0.77-0.08,2.07,0.08C59.44,24.24,61.13,29.46,61.13,35.15z"/>
	<rect x="49.21" y="33.55" transform="matrix(6.123234e-17 -1 1 6.123234e-17 15.6636 91.7982)" width="9.03" height="9.03"/>
	<circle class="st2" cx="58.94" cy="32.91" r="9.53"/>
	<path class="st1" d="M14.62,33.99c0,5.45-3.43,10.13-8.18,11.99C4.96,42.63,4.18,38.89,4.18,35c0-2.03,0.23-4.05,0.62-6
		c-2.02-1.71-3.27-4.21-3.27-7.01c0-0.23,0-0.55,0.08-0.78h0.23c1.87,0,3.66,0.39,5.3,1.17c3.43,1.56,6,4.6,7.01,8.26
		C14.46,31.73,14.62,32.82,14.62,33.99z"/>
	<rect x="11.32" y="22.37" transform="matrix(6.123234e-17 -1 1 6.123234e-17 -11.0513 42.7254)" width="9.03" height="9.03"/>
	<path class="st2" d="M20.07,21.99c0,3.89-2.41,7.32-5.92,8.65c-1.01,0.39-2.18,0.62-3.35,0.62c-2.34,0-4.44-0.86-6-2.26
		c-2.02-1.71-3.27-4.21-3.27-7.01c0-0.23,0-0.55,0.08-0.78c0.39-4.75,4.28-8.49,9.19-8.49c1.17,0,2.34,0.23,3.35,0.62
		C17.66,14.67,20.07,18.02,20.07,21.99z"/>
	<g>
		<polygon class="st3" points="8.88,26.79 4.86,23.15 6.33,21.53 8.77,23.73 14.87,17.33 16.46,18.84 		"/>
	</g>
	<g>
		<polygon class="st3" points="57.07,37.52 53.05,33.88 54.52,32.26 56.96,34.46 63.06,28.06 64.64,29.57 		"/>
	</g>
</g>
</svg>
