<svg width="138" height="138" viewBox="0 0 138 138" fill="none" xmlns="http://www.w3.org/2000/svg">
<path d="M85.8428 108.152C75.8467 116.441 62.6811 119.122 50.4908 115.953C48.2966 115.465 46.1023 116.197 44.6394 117.904L37.8129 125.949C35.6187 128.388 31.9616 128.631 29.7673 126.68L17.0894 115.71C14.6513 113.515 14.4075 109.858 16.6018 107.664L23.4284 99.618C24.8912 97.9114 25.3789 95.7172 24.4036 93.7667C19.5275 82.3078 20.0151 68.6546 26.8416 57.6834C28.5483 54.7577 32.693 54.2701 35.3748 56.4643L85.5989 99.618C88.5246 101.569 88.5246 105.957 85.8428 108.152Z" fill="#294C6A" stroke="#01090F" stroke-width="0.861285" stroke-linecap="round" stroke-linejoin="round"/>
<path d="M24.7935 93.3463C20.1467 82.4163 20.4338 69.4792 26.5015 58.8524C26.5176 59.0743 26.536 59.321 26.5572 59.591C26.6656 60.974 26.8443 62.9707 27.1249 65.3976C27.6862 70.2503 28.6563 76.8283 30.292 83.6615C31.9269 90.4913 34.2312 97.5954 37.4685 103.49C40.2798 108.609 43.8174 112.858 48.2695 115.195C46.7559 115.407 45.3575 116.163 44.3112 117.384L44.3098 117.385L37.4874 125.426C35.436 127.7 32.0517 127.896 30.0521 126.119L30.0478 126.115L17.3731 115.146C15.0986 113.097 14.9071 109.726 16.905 107.729L16.9175 107.716L16.9289 107.703L23.7541 99.6584C23.7544 99.6579 23.7547 99.6576 23.755 99.6572C25.3002 97.8539 25.8547 95.4819 24.7935 93.3463Z" fill="#F88401" stroke="#01090F" stroke-width="0.861285"/>
<path d="M85.4124 63.3164L95.4085 71.8497C95.8961 72.0934 95.8961 72.8249 95.4085 73.0686L86.3876 83.5523C85.1685 84.7713 83.2182 85.0152 81.9991 83.7961L75.4163 78.1886C74.1973 76.9696 73.9535 75.0191 75.1726 73.8001L84.1934 63.3164C84.4372 63.0727 84.9248 62.8288 85.4124 63.3164Z" fill="#294C6A" stroke="#01090F" stroke-width="0.861285" stroke-miterlimit="10" stroke-linecap="round" stroke-linejoin="round"/>
<path d="M63.2289 44.0564L73.2249 52.5897C73.7125 52.8334 73.7125 53.5649 73.2249 53.8086L64.2041 64.2923C62.985 65.5113 61.0346 65.7552 59.8156 64.5361L53.2328 58.9286C52.0137 57.7096 51.7699 55.7591 52.9889 54.5401L62.0098 44.0564C62.2536 43.8127 62.7413 43.8127 63.2289 44.0564Z" fill="#294C6A" stroke="#01090F" stroke-width="0.861285" stroke-miterlimit="10" stroke-linecap="round" stroke-linejoin="round"/>
<path d="M114.914 38.4452C113.452 40.1519 112.964 42.3461 113.938 44.2966C118.815 55.7554 118.328 69.1648 111.501 80.3799C110.77 81.5989 109.55 82.5741 108.087 82.8179C106.381 83.3056 104.187 82.8179 102.724 81.5989L94.4343 74.5285L82.9755 64.7762L72.2479 55.5116L60.7891 45.7594L52.4997 38.4452C49.8178 36.251 49.8178 31.8624 52.4997 29.6682C62.4957 21.3788 75.6613 18.6969 87.8516 21.8664C90.0459 22.3539 92.2401 21.6226 93.703 19.916L100.53 11.8704C102.724 9.43227 106.381 9.18846 108.575 11.1389L121.009 22.1102C123.447 24.3044 123.691 27.9616 121.74 30.1558L114.914 38.4452Z" fill="#97DDE5" stroke="#01090F" stroke-width="0.861285" stroke-miterlimit="10" stroke-linecap="round" stroke-linejoin="round"/>
<path d="M108.098 82.3771L103.244 81.2739C107.517 63.2033 105.199 47.8573 101.794 37.0042C100.078 31.5356 98.0863 27.2068 96.5218 24.2428C95.7395 22.7606 95.0639 21.6193 94.5827 20.8471C94.342 20.4609 94.1501 20.167 94.0177 19.9687C94.0116 19.9597 94.0058 19.9509 94 19.9424L100.61 12.1522C102.661 9.87773 106.046 9.6818 108.045 11.4592L108.049 11.463L120.724 22.4314C123 24.4827 123.196 27.8681 121.419 29.8681L121.413 29.8741L121.408 29.8805L114.584 38.1665C113.04 39.9696 112.487 42.3405 113.548 44.4755C118.367 55.8118 117.881 69.0689 111.133 80.1543L111.132 80.1567C110.466 81.2651 109.379 82.1356 108.098 82.3771Z" fill="#F88401" stroke="#01090F" stroke-width="0.861285"/>
</svg>
