<svg width="139" height="139" viewBox="0 0 139 139" fill="none" xmlns="http://www.w3.org/2000/svg">
<path d="M78.0948 117.414H1.74609C4.27836 111.091 8.31301 105.468 13.5066 101.025C18.7 96.5825 24.8986 93.4508 31.5744 91.897C26.3073 89.9055 21.7877 86.3499 18.6321 81.7154C15.4765 77.0808 13.8386 71.5929 13.942 66.0006C13.942 50.9817 25.4031 38.7917 39.509 38.7917H40.9784H41.1253C44.7391 38.9923 48.2626 39.9885 51.4404 41.708C55.6657 44.1627 59.1594 47.6856 61.5652 51.9173C63.971 56.149 65.2028 60.9382 65.1349 65.7964C65.2362 71.3428 63.6194 76.7864 60.5028 81.3916C57.3861 85.9968 52.9202 89.5416 47.7081 91.5471C51.8944 92.3944 55.9141 93.9113 59.6101 96.0382C60.9214 96.7691 62.1873 97.5774 63.401 98.4586C68.6206 102.249 72.9183 107.152 75.9789 112.806C76.7924 114.291 77.4994 115.831 78.0948 117.414Z" fill="#9BCDFB" stroke="#01090F" stroke-width="0.847827" stroke-linecap="round" stroke-linejoin="round"/>
<path d="M55.6999 98.9753L55.6972 98.9733C51.1048 95.3998 45.7928 92.8575 40.1276 91.5141C44.8821 89.4161 48.9546 86.0263 51.8664 81.7237C55.0311 77.0474 56.6717 71.5189 56.5661 65.8864C56.6367 60.9579 55.3903 56.0988 52.9539 51.804C50.5162 47.5071 46.9747 43.9286 42.6904 41.4327L42.6847 41.4294C41.2828 40.6411 39.8079 39.9913 38.2812 39.4884C39.1754 39.3207 40.0802 39.2112 40.9899 39.1607H41.1134C44.6586 39.3592 48.115 40.3369 51.2327 42.0229C55.391 44.4398 58.829 47.9074 61.1965 52.0718C63.565 56.238 64.7776 60.9529 64.7109 65.7355V65.7492C64.8105 71.2081 63.2192 76.5661 60.1514 81.0991C57.0836 85.6323 52.6872 89.1221 47.5557 91.0966L46.1979 91.6191L47.6238 91.9077C51.7654 92.7461 55.7421 94.2467 59.3984 96.3507L59.4035 96.3536C60.7 97.0763 61.9516 97.8755 63.1518 98.7468C68.3202 102.501 72.5756 107.355 75.6059 112.954C76.315 114.261 76.9412 115.61 77.4803 116.994H69.5604C68.9547 115.562 68.2681 114.164 67.5035 112.809C65.2738 108.764 62.4219 105.089 59.0507 101.918C57.9852 100.881 56.8668 99.8986 55.6999 98.9753Z" fill="#F88401" stroke="#01090F" stroke-width="0.847827"/>
<path d="M137.396 117.444H60.9883C63.5254 111.118 67.5653 105.495 72.7639 101.052C77.9624 96.6095 84.1658 93.4789 90.8459 91.9271C85.5788 89.9355 81.0592 86.3799 77.9036 81.7453C74.7481 77.1107 73.1101 71.623 73.2135 66.0305C73.2135 51.0118 84.6746 38.8217 98.81 38.8217H100.279C103.896 39.0045 107.423 40.0018 110.595 41.738C114.889 44.2105 118.435 47.7838 120.859 52.0834C123.285 56.3831 124.499 61.2507 124.377 66.1764C124.479 71.7228 122.862 77.1664 119.745 81.7716C116.628 86.3768 112.162 89.9216 106.95 91.9271C111.145 92.7793 115.172 94.2957 118.881 96.4182C120.187 97.1425 121.444 97.9511 122.643 98.8386C127.823 102.596 132.098 107.447 135.162 113.041C135.995 114.462 136.741 115.933 137.396 117.444Z" fill="#9BCDFB" stroke="#01090F" stroke-width="0.847827" stroke-linecap="round" stroke-linejoin="round"/>
<path d="M114.997 99.0005C110.411 95.4318 105.11 92.8898 99.4545 91.5422C104.171 89.4633 108.218 86.1144 111.129 81.8633C114.296 77.2398 115.969 71.7685 115.925 66.1779C115.992 61.2457 114.741 56.3838 112.299 52.0881C109.856 47.7909 106.309 44.214 102.019 41.7217L102.013 41.7188C100.614 40.9318 99.1412 40.2827 97.6172 39.7802C98.5154 39.6131 99.4241 39.503 100.337 39.4507C103.881 39.6332 107.336 40.6115 110.444 42.3118C114.629 44.7373 118.087 48.2262 120.461 52.4187C122.836 56.6127 124.041 61.3591 123.952 66.1688V66.1766V66.1845C124.051 71.6433 122.46 77.0013 119.392 81.5343C116.324 86.0675 111.928 89.5573 106.796 91.5318L105.44 92.0535L106.864 92.3428C111.014 93.1861 115 94.6865 118.669 96.7864L118.674 96.7892C119.964 97.5047 121.205 98.3032 122.39 99.1798L122.393 99.1821C127.522 102.903 131.755 107.706 134.789 113.245L134.794 113.255C135.51 114.476 136.16 115.733 136.743 117.021H128.858C128.234 115.58 127.517 114.18 126.713 112.831C124.52 108.789 121.698 105.115 118.351 101.946C117.292 100.901 116.171 99.9172 114.997 99.0005Z" fill="#F88401" stroke="#01090F" stroke-width="0.847827"/>
<path d="M116.384 117.414H24.5195C27.5431 109.775 32.3909 102.979 38.6463 97.6093C44.9016 92.24 52.3775 88.4584 60.431 86.5897C54.0708 84.2122 48.6081 79.9391 44.7932 74.3572C40.9784 68.7752 38.9984 62.1582 39.1251 55.4147C39.1251 37.363 52.9373 22.6942 69.9232 22.6942H71.6865H71.8627C76.2273 22.9733 80.4695 24.2402 84.2643 26.3978C89.3492 29.3448 93.5546 33.5785 96.4511 38.6662C99.3476 43.7539 100.831 49.5134 100.751 55.3564C100.923 62.0736 98.9992 68.6795 95.2433 74.2703C91.4873 79.8611 86.0824 84.1638 79.768 86.5897C84.7784 87.6081 89.5908 89.4198 94.021 91.9556C95.6045 92.8237 97.1264 93.798 98.576 94.8719C106.387 100.691 112.477 108.487 116.209 117.443L116.384 117.414Z" fill="#97DDE5" stroke="#01090F" stroke-width="0.847827" stroke-linecap="round" stroke-linejoin="round"/>
<path d="M98.3258 95.2125C105.896 100.852 111.837 108.363 115.559 116.991H106.06C105.32 115.261 104.487 113.573 103.564 111.932C100.928 107.077 97.5397 102.663 93.5229 98.8525C92.2391 97.626 90.8829 96.4765 89.4614 95.4103C83.8685 91.0939 77.3992 88.0432 70.5069 86.464C76.3167 83.9543 81.293 79.8444 84.8374 74.608C88.6382 68.9925 90.6084 62.3533 90.4807 55.5893C90.564 49.676 89.0657 43.8466 86.1385 38.6957C83.2101 33.5428 78.9566 29.2535 73.8127 26.2652L73.8081 26.2625C72.002 25.2436 70.0978 24.4095 68.125 23.7721C69.3057 23.5454 70.5006 23.3952 71.7022 23.3229H71.8523C76.1474 23.5996 80.3219 24.8472 84.0564 26.9703C89.0759 29.8797 93.2269 34.059 96.0859 39.0807C98.945 44.1029 100.41 49.788 100.33 55.5554V55.5694C100.458 62.1645 98.5395 68.6394 94.8353 74.1174C91.131 79.5953 85.8192 83.8116 79.6191 86.1946L78.262 86.7162L79.6867 87.0057C84.6527 88.0151 89.4226 89.8109 93.8135 92.3242L93.8202 92.328C95.3866 93.1865 96.892 94.1503 98.3258 95.2125Z" fill="#F88401" stroke="#01090F" stroke-width="0.847827"/>
</svg>
