<svg width="139" height="139" viewBox="0 0 139 139" fill="none" xmlns="http://www.w3.org/2000/svg">
<path d="M110.256 102.964L68.5088 121.585C61.6011 124.588 53.4919 121.585 50.1883 114.677L37.5742 86.145L104.549 56.4117L117.163 84.9436C120.467 91.5511 117.163 99.9605 110.256 102.964Z" fill="#97DDE5" stroke="#01090F" stroke-width="0.861285" stroke-miterlimit="10" stroke-linecap="round" stroke-linejoin="round"/>
<path d="M105.147 56.1127L36.971 86.1463C31.8653 88.549 25.8585 86.1464 23.4559 81.0407L20.4526 74.1329C18.0498 69.0272 20.4525 63.0205 25.5582 60.6177L93.7345 30.5841C98.8402 28.1814 104.847 30.5841 107.25 35.6898L110.253 42.5976C112.655 47.7033 110.253 53.71 105.147 56.1127Z" fill="#294C6A" stroke="#01090F" stroke-width="0.861285" stroke-miterlimit="10" stroke-linecap="round" stroke-linejoin="round"/>
<path d="M59.7989 45.6005L54.3928 32.9865C51.99 27.5804 53.1914 20.973 57.9968 17.0685C59.7989 15.5669 61.9012 14.3656 64.6042 13.765C70.9113 12.2633 77.5186 14.9663 81.1227 20.3723C83.8257 24.2766 85.3274 29.9831 80.2217 36.5904L59.7989 45.6005Z" stroke="#01090F" stroke-width="0.861285" stroke-miterlimit="10" stroke-linecap="round" stroke-linejoin="round"/>
<path d="M58.8913 45.9033L53.4853 33.2892C51.0825 27.8831 45.3762 24.2791 39.3695 25.1801C36.9667 25.4804 34.8644 26.3814 32.4617 27.883C27.0557 31.4871 24.6529 38.0945 26.1547 44.4016C27.356 49.2069 30.6596 54.0124 38.7687 54.613L58.8913 45.9033Z" stroke="#01090F" stroke-width="0.861285" stroke-miterlimit="10" stroke-linecap="round" stroke-linejoin="round"/>
<path d="M69.1477 41.4425L51.3008 49.3528L80.873 116.073L98.7199 108.163L69.1477 41.4425Z" fill="#F88401" stroke="#01090F" stroke-width="0.861285" stroke-miterlimit="10" stroke-linecap="round" stroke-linejoin="round"/>
</svg>
