<svg width="114" height="114" viewBox="0 0 114 114" fill="none" xmlns="http://www.w3.org/2000/svg">
<path d="M15.3222 45.6352C14.2909 45.6352 13.4416 46.4845 13.4416 47.536C13.4416 48.5674 14.2909 49.4167 15.3222 49.4167C16.3738 49.4167 17.2231 48.5674 17.2231 47.536C17.2231 46.4845 16.3738 45.6352 15.3222 45.6352ZM15.3222 45.6352C14.2909 45.6352 13.4416 46.4845 13.4416 47.536C13.4416 48.5674 14.2909 49.4167 15.3222 49.4167C16.3738 49.4167 17.2231 48.5674 17.2231 47.536C17.2231 46.4845 16.3738 45.6352 15.3222 45.6352ZM15.3222 45.6352C14.2909 45.6352 13.4416 46.4845 13.4416 47.536C13.4416 48.5674 14.2909 49.4167 15.3222 49.4167C16.3738 49.4167 17.2231 48.5674 17.2231 47.536C17.2231 46.4845 16.3738 45.6352 15.3222 45.6352ZM15.3222 45.6352C14.2909 45.6352 13.4416 46.4845 13.4416 47.536C13.4416 48.5674 14.2909 49.4167 15.3222 49.4167C16.3738 49.4167 17.2231 48.5674 17.2231 47.536C17.2231 46.4845 16.3738 45.6352 15.3222 45.6352ZM15.3222 45.6352C14.2909 45.6352 13.4416 46.4845 13.4416 47.536C13.4416 48.5674 14.2909 49.4167 15.3222 49.4167C16.3738 49.4167 17.2231 48.5674 17.2231 47.536C17.2231 46.4845 16.3738 45.6352 15.3222 45.6352ZM15.3222 45.6352C14.2909 45.6352 13.4416 46.4845 13.4416 47.536C13.4416 48.5674 14.2909 49.4167 15.3222 49.4167C16.3738 49.4167 17.2231 48.5674 17.2231 47.536C17.2231 46.4845 16.3738 45.6352 15.3222 45.6352ZM57.0002 0.175598C25.676 0.175598 0.175781 25.6758 0.175781 57.0001C0.175781 88.3243 25.676 113.825 57.0002 113.825C88.3245 113.825 113.825 88.3243 113.825 57.0001C113.825 25.6758 88.3245 0.175598 57.0002 0.175598ZM57.0002 110.043C27.7589 110.043 3.95734 86.2414 3.95734 57.0001C3.95734 43.0669 9.37689 30.3674 18.214 20.8832L35.868 38.5372C34.8771 39.9527 34.2705 41.712 34.2705 43.5927V44.9678L30.9136 43.3703C30.2058 43.0265 29.3565 43.168 28.77 43.7141L24.8065 47.5967C24.4829 47.9 24.2807 48.3045 24.2402 48.7494L22.9865 60.0132L15.5042 67.4954C14.9178 68.0818 14.7762 68.9514 15.1402 69.6794L16.4749 72.3285C16.7984 72.9958 17.4658 73.3801 18.1736 73.3801C18.4567 73.3801 18.7398 73.3194 19.0229 73.1778C19.9531 72.7127 20.3373 71.5803 19.8722 70.65L19.1442 69.2143L26.1411 62.2174C26.4445 61.9141 26.6265 61.5298 26.6871 61.0849L27.9409 49.8414L30.4687 47.354L34.2705 49.1741V51.2772C34.2705 52.4096 34.594 53.4612 35.14 54.3509C33.4616 55.544 32.3696 57.5461 32.3696 59.8312V75.5438C32.3696 87.7176 40.4585 98.1927 51.6009 100.458C51.9851 100.538 52.3693 100.559 52.7536 100.559C54.1085 100.559 55.4229 100.094 56.5149 99.2038C56.6969 99.0623 56.8385 98.8803 56.98 98.7185C57.162 98.9005 57.3036 99.0825 57.4856 99.2443C58.5574 100.114 59.8718 100.579 61.2065 100.579C61.5907 100.579 61.9749 100.538 62.3591 100.458C71.0345 98.678 77.8291 91.8025 80.3367 83.0058L93.1171 95.7863C83.6329 104.623 70.9333 110.043 57.0002 110.043ZM50.9133 39.9123C51.9245 40.1347 52.9356 39.4876 53.158 38.4765L56.616 22.9054H57.3845L60.8425 38.4765C61.0245 39.3461 61.8131 39.9527 62.6827 39.9527C62.8242 39.9527 62.9456 39.9325 63.0871 39.9123C64.1185 39.6696 64.7656 38.6585 64.5229 37.6474V37.5665L72.4905 39.0023C74.4925 39.3663 75.9485 41.3076 75.9485 43.5927V51.2772C75.9485 52.3489 75.2205 53.2185 74.3307 53.2185H55.888L41.6718 38.982L49.4776 37.5665L49.4573 37.6474C49.2349 38.6585 49.882 39.6898 50.9133 39.9123ZM60.0942 57.4247C60.4785 57.1618 60.9031 57.0001 61.3682 57.0001H75.1598C76.4945 57.0001 77.5865 58.2741 77.5865 59.8312V74.9169L60.0942 57.4247ZM77.182 79.8714C75.6249 88.3243 69.538 95.1189 61.5907 96.7367C60.7818 96.8985 60.1751 96.5345 59.892 96.2918C59.2651 95.7863 58.9011 94.9774 58.9011 94.0876V61.5703L77.182 79.8714ZM50.5291 53.2185H39.6698C38.78 53.2185 38.052 52.3489 38.052 51.2772V43.5927C38.052 42.7636 38.2542 41.9547 38.598 41.2874L50.5291 53.2185ZM38.6385 57.0001C38.7598 57.0001 38.8811 56.9596 39.0025 56.9192C39.2249 56.9596 39.4473 57.0001 39.6698 57.0001H54.3309L55.3825 58.0516C55.2207 58.6381 55.0993 59.2447 55.0993 59.8918V94.0876C55.0993 94.9572 54.7556 95.7661 54.1085 96.2716C53.6029 96.6963 52.976 96.8581 52.3491 96.7367C42.966 94.8358 36.1713 85.9178 36.1713 75.5438V59.8312C36.1713 58.2741 37.2836 57.0001 38.6385 57.0001ZM95.7865 93.1169L81.2062 78.5165C81.3074 77.5458 81.3882 76.5549 81.3882 75.564V59.8312C81.3882 57.6269 80.3569 55.6856 78.7998 54.4925C79.3862 53.5825 79.73 52.4703 79.73 51.2772V49.1741L83.5318 47.354L86.0596 49.8414L87.3134 61.0849C87.374 61.5096 87.556 61.9141 87.8594 62.2174L94.8562 69.2143L94.1282 70.65C93.6631 71.5803 94.0473 72.7127 94.9776 73.1778C95.2607 73.3194 95.5438 73.3801 95.8269 73.3801C96.5347 73.3801 97.202 72.9958 97.5256 72.3285L98.8602 69.6794C99.2242 68.9514 99.0827 68.0818 98.4962 67.4954L91.014 60.0132L89.7602 48.7494C89.7198 48.3045 89.5176 47.9 89.194 47.5967L85.2305 43.7141C84.644 43.168 83.7947 43.0265 83.0869 43.3703L79.73 44.9678V43.5927C79.73 39.4674 76.9798 35.9689 73.178 35.2814L72.268 35.1196L76.2518 21.6314C76.3327 21.3483 76.3529 21.0247 76.2922 20.7416L74.9576 14.1087C74.7756 13.2189 74.0071 12.5718 73.0971 12.5718H70.448C69.3965 12.5718 68.5471 13.4212 68.5471 14.4727C68.5471 15.5243 69.3965 16.3736 70.448 16.3736H71.54L72.4702 21.0247L68.5269 34.432L63.6129 33.5423L60.7413 20.6C60.5593 19.7305 59.7909 19.1238 58.9011 19.1238H55.0993C54.2096 19.1238 53.4411 19.7305 53.2591 20.6L50.3876 33.5423L45.4736 34.432L41.5302 21.0247L42.4605 16.3736H43.5525C44.604 16.3736 45.4533 15.5243 45.4533 14.4727C45.4533 13.4212 44.604 12.5718 43.5525 12.5718H40.9033C39.9933 12.5718 39.2249 13.2189 39.0429 14.1087L37.7082 20.7416C37.6476 21.0247 37.6678 21.3483 37.7487 21.6314L41.7325 35.1196L40.8225 35.2814C40.0742 35.4229 39.3867 35.7061 38.7193 36.0296L20.8833 18.2138C30.3676 9.37671 43.0671 3.95716 57.0002 3.95716C86.2416 3.95716 110.043 27.7587 110.043 57.0001C110.043 70.9332 104.624 83.6327 95.7865 93.1169ZM17.2231 47.536C17.2231 46.4845 16.3738 45.6352 15.3222 45.6352C14.2909 45.6352 13.4416 46.4845 13.4416 47.536C13.4416 48.5674 14.2909 49.4167 15.3222 49.4167C16.3738 49.4167 17.2231 48.5674 17.2231 47.536ZM15.3222 45.6352C14.2909 45.6352 13.4416 46.4845 13.4416 47.536C13.4416 48.5674 14.2909 49.4167 15.3222 49.4167C16.3738 49.4167 17.2231 48.5674 17.2231 47.536C17.2231 46.4845 16.3738 45.6352 15.3222 45.6352ZM15.3222 45.6352C14.2909 45.6352 13.4416 46.4845 13.4416 47.536C13.4416 48.5674 14.2909 49.4167 15.3222 49.4167C16.3738 49.4167 17.2231 48.5674 17.2231 47.536C17.2231 46.4845 16.3738 45.6352 15.3222 45.6352ZM15.3222 45.6352C14.2909 45.6352 13.4416 46.4845 13.4416 47.536C13.4416 48.5674 14.2909 49.4167 15.3222 49.4167C16.3738 49.4167 17.2231 48.5674 17.2231 47.536C17.2231 46.4845 16.3738 45.6352 15.3222 45.6352ZM15.3222 45.6352C14.2909 45.6352 13.4416 46.4845 13.4416 47.536C13.4416 48.5674 14.2909 49.4167 15.3222 49.4167C16.3738 49.4167 17.2231 48.5674 17.2231 47.536C17.2231 46.4845 16.3738 45.6352 15.3222 45.6352Z" fill="#35E419"/>
<mask id="mask0_589_987" style="mask-type:luminance" maskUnits="userSpaceOnUse" x="0" y="0" width="114" height="114">
<path d="M15.3222 45.6352C14.2909 45.6352 13.4416 46.4845 13.4416 47.536C13.4416 48.5674 14.2909 49.4167 15.3222 49.4167C16.3738 49.4167 17.2231 48.5674 17.2231 47.536C17.2231 46.4845 16.3738 45.6352 15.3222 45.6352ZM15.3222 45.6352C14.2909 45.6352 13.4416 46.4845 13.4416 47.536C13.4416 48.5674 14.2909 49.4167 15.3222 49.4167C16.3738 49.4167 17.2231 48.5674 17.2231 47.536C17.2231 46.4845 16.3738 45.6352 15.3222 45.6352ZM15.3222 45.6352C14.2909 45.6352 13.4416 46.4845 13.4416 47.536C13.4416 48.5674 14.2909 49.4167 15.3222 49.4167C16.3738 49.4167 17.2231 48.5674 17.2231 47.536C17.2231 46.4845 16.3738 45.6352 15.3222 45.6352ZM15.3222 45.6352C14.2909 45.6352 13.4416 46.4845 13.4416 47.536C13.4416 48.5674 14.2909 49.4167 15.3222 49.4167C16.3738 49.4167 17.2231 48.5674 17.2231 47.536C17.2231 46.4845 16.3738 45.6352 15.3222 45.6352ZM15.3222 45.6352C14.2909 45.6352 13.4416 46.4845 13.4416 47.536C13.4416 48.5674 14.2909 49.4167 15.3222 49.4167C16.3738 49.4167 17.2231 48.5674 17.2231 47.536C17.2231 46.4845 16.3738 45.6352 15.3222 45.6352ZM15.3222 45.6352C14.2909 45.6352 13.4416 46.4845 13.4416 47.536C13.4416 48.5674 14.2909 49.4167 15.3222 49.4167C16.3738 49.4167 17.2231 48.5674 17.2231 47.536C17.2231 46.4845 16.3738 45.6352 15.3222 45.6352ZM57.0002 0.175598C25.676 0.175598 0.175781 25.6758 0.175781 57.0001C0.175781 88.3243 25.676 113.825 57.0002 113.825C88.3245 113.825 113.825 88.3243 113.825 57.0001C113.825 25.6758 88.3245 0.175598 57.0002 0.175598ZM57.0002 110.043C27.7589 110.043 3.95734 86.2414 3.95734 57.0001C3.95734 43.0669 9.37689 30.3674 18.214 20.8832L35.868 38.5372C34.8771 39.9527 34.2705 41.712 34.2705 43.5927V44.9678L30.9136 43.3703C30.2058 43.0265 29.3565 43.168 28.77 43.7141L24.8065 47.5967C24.4829 47.9 24.2807 48.3045 24.2402 48.7494L22.9865 60.0132L15.5042 67.4954C14.9178 68.0818 14.7762 68.9514 15.1402 69.6794L16.4749 72.3285C16.7984 72.9958 17.4658 73.3801 18.1736 73.3801C18.4567 73.3801 18.7398 73.3194 19.0229 73.1778C19.9531 72.7127 20.3373 71.5803 19.8722 70.65L19.1442 69.2143L26.1411 62.2174C26.4445 61.9141 26.6265 61.5298 26.6871 61.0849L27.9409 49.8414L30.4687 47.354L34.2705 49.1741V51.2772C34.2705 52.4096 34.594 53.4612 35.14 54.3509C33.4616 55.544 32.3696 57.5461 32.3696 59.8312V75.5438C32.3696 87.7176 40.4585 98.1927 51.6009 100.458C51.9851 100.538 52.3693 100.559 52.7536 100.559C54.1085 100.559 55.4229 100.094 56.5149 99.2038C56.6969 99.0623 56.8385 98.8803 56.98 98.7185C57.162 98.9005 57.3036 99.0825 57.4856 99.2443C58.5574 100.114 59.8718 100.579 61.2065 100.579C61.5907 100.579 61.9749 100.538 62.3591 100.458C71.0345 98.678 77.8291 91.8025 80.3367 83.0058L93.1171 95.7863C83.6329 104.623 70.9333 110.043 57.0002 110.043ZM50.9133 39.9123C51.9245 40.1347 52.9356 39.4876 53.158 38.4765L56.616 22.9054H57.3845L60.8425 38.4765C61.0245 39.3461 61.8131 39.9527 62.6827 39.9527C62.8242 39.9527 62.9456 39.9325 63.0871 39.9123C64.1185 39.6696 64.7656 38.6585 64.5229 37.6474V37.5665L72.4905 39.0023C74.4925 39.3663 75.9485 41.3076 75.9485 43.5927V51.2772C75.9485 52.3489 75.2205 53.2185 74.3307 53.2185H55.888L41.6718 38.982L49.4776 37.5665L49.4573 37.6474C49.2349 38.6585 49.882 39.6898 50.9133 39.9123ZM60.0942 57.4247C60.4785 57.1618 60.9031 57.0001 61.3682 57.0001H75.1598C76.4945 57.0001 77.5865 58.2741 77.5865 59.8312V74.9169L60.0942 57.4247ZM77.182 79.8714C75.6249 88.3243 69.538 95.1189 61.5907 96.7367C60.7818 96.8985 60.1751 96.5345 59.892 96.2918C59.2651 95.7863 58.9011 94.9774 58.9011 94.0876V61.5703L77.182 79.8714ZM50.5291 53.2185H39.6698C38.78 53.2185 38.052 52.3489 38.052 51.2772V43.5927C38.052 42.7636 38.2542 41.9547 38.598 41.2874L50.5291 53.2185ZM38.6385 57.0001C38.7598 57.0001 38.8811 56.9596 39.0025 56.9192C39.2249 56.9596 39.4473 57.0001 39.6698 57.0001H54.3309L55.3825 58.0516C55.2207 58.6381 55.0993 59.2447 55.0993 59.8918V94.0876C55.0993 94.9572 54.7556 95.7661 54.1085 96.2716C53.6029 96.6963 52.976 96.8581 52.3491 96.7367C42.966 94.8358 36.1713 85.9178 36.1713 75.5438V59.8312C36.1713 58.2741 37.2836 57.0001 38.6385 57.0001ZM95.7865 93.1169L81.2062 78.5165C81.3074 77.5458 81.3882 76.5549 81.3882 75.564V59.8312C81.3882 57.6269 80.3569 55.6856 78.7998 54.4925C79.3862 53.5825 79.73 52.4703 79.73 51.2772V49.1741L83.5318 47.354L86.0596 49.8414L87.3134 61.0849C87.374 61.5096 87.556 61.9141 87.8594 62.2174L94.8562 69.2143L94.1282 70.65C93.6631 71.5803 94.0473 72.7127 94.9776 73.1778C95.2607 73.3194 95.5438 73.3801 95.8269 73.3801C96.5347 73.3801 97.202 72.9958 97.5256 72.3285L98.8602 69.6794C99.2242 68.9514 99.0827 68.0818 98.4962 67.4954L91.014 60.0132L89.7602 48.7494C89.7198 48.3045 89.5176 47.9 89.194 47.5967L85.2305 43.7141C84.644 43.168 83.7947 43.0265 83.0869 43.3703L79.73 44.9678V43.5927C79.73 39.4674 76.9798 35.9689 73.178 35.2814L72.268 35.1196L76.2518 21.6314C76.3327 21.3483 76.3529 21.0247 76.2922 20.7416L74.9576 14.1087C74.7756 13.2189 74.0071 12.5718 73.0971 12.5718H70.448C69.3965 12.5718 68.5471 13.4212 68.5471 14.4727C68.5471 15.5243 69.3965 16.3736 70.448 16.3736H71.54L72.4702 21.0247L68.5269 34.432L63.6129 33.5423L60.7413 20.6C60.5593 19.7305 59.7909 19.1238 58.9011 19.1238H55.0993C54.2096 19.1238 53.4411 19.7305 53.2591 20.6L50.3876 33.5423L45.4736 34.432L41.5302 21.0247L42.4605 16.3736H43.5525C44.604 16.3736 45.4533 15.5243 45.4533 14.4727C45.4533 13.4212 44.604 12.5718 43.5525 12.5718H40.9033C39.9933 12.5718 39.2249 13.2189 39.0429 14.1087L37.7082 20.7416C37.6476 21.0247 37.6678 21.3483 37.7487 21.6314L41.7325 35.1196L40.8225 35.2814C40.0742 35.4229 39.3867 35.7061 38.7193 36.0296L20.8833 18.2138C30.3676 9.37671 43.0671 3.95716 57.0002 3.95716C86.2416 3.95716 110.043 27.7587 110.043 57.0001C110.043 70.9332 104.624 83.6327 95.7865 93.1169ZM17.2231 47.536C17.2231 46.4845 16.3738 45.6352 15.3222 45.6352C14.2909 45.6352 13.4416 46.4845 13.4416 47.536C13.4416 48.5674 14.2909 49.4167 15.3222 49.4167C16.3738 49.4167 17.2231 48.5674 17.2231 47.536ZM15.3222 45.6352C14.2909 45.6352 13.4416 46.4845 13.4416 47.536C13.4416 48.5674 14.2909 49.4167 15.3222 49.4167C16.3738 49.4167 17.2231 48.5674 17.2231 47.536C17.2231 46.4845 16.3738 45.6352 15.3222 45.6352ZM15.3222 45.6352C14.2909 45.6352 13.4416 46.4845 13.4416 47.536C13.4416 48.5674 14.2909 49.4167 15.3222 49.4167C16.3738 49.4167 17.2231 48.5674 17.2231 47.536C17.2231 46.4845 16.3738 45.6352 15.3222 45.6352ZM15.3222 45.6352C14.2909 45.6352 13.4416 46.4845 13.4416 47.536C13.4416 48.5674 14.2909 49.4167 15.3222 49.4167C16.3738 49.4167 17.2231 48.5674 17.2231 47.536C17.2231 46.4845 16.3738 45.6352 15.3222 45.6352ZM15.3222 45.6352C14.2909 45.6352 13.4416 46.4845 13.4416 47.536C13.4416 48.5674 14.2909 49.4167 15.3222 49.4167C16.3738 49.4167 17.2231 48.5674 17.2231 47.536C17.2231 46.4845 16.3738 45.6352 15.3222 45.6352Z" fill="white"/>
</mask>
<g mask="url(#mask0_589_987)">
<path d="M20.8841 18.2138L36.8799 11.5203C36.8799 11.5203 51.2376 2.86517 65.4539 8.42628C79.6701 13.9874 83.1483 9.45761 89.7407 24.8265C96.3332 40.1954 103.027 56.7574 103.168 56.9192C103.31 57.0809 104.321 70.6298 104.321 70.6298L99.6699 86.3829L95.767 93.1169L98.6587 98.132C98.6587 98.132 114.028 77.1414 115.848 70.3467C117.668 63.552 117.829 57.6876 117.749 55.3823C117.668 53.0567 110.691 27.3745 109.397 22.9256C108.103 18.4767 107.334 15.1198 102.258 11.0754C97.1825 7.03095 88.9116 1.46983 85.393 0.195835C81.8743 -1.07817 69.8219 -5.70905 63.7147 -5.62816C57.6076 -5.54728 49.5996 -4.41483 46.5056 -3.48461C43.4116 -2.53416 38.3359 -1.82639 34.1094 0.175612C29.883 2.17761 26.8901 2.86517 23.9579 5.10983C21.0256 7.3545 17.9316 10.1856 17.9316 11.6416C17.9316 13.0976 20.8841 18.2138 20.8841 18.2138Z" fill="#C22032"/>
</g>
<mask id="mask1_589_987" style="mask-type:luminance" maskUnits="userSpaceOnUse" x="0" y="0" width="114" height="114">
<path d="M15.3222 45.6352C14.2909 45.6352 13.4416 46.4845 13.4416 47.536C13.4416 48.5674 14.2909 49.4167 15.3222 49.4167C16.3738 49.4167 17.2231 48.5674 17.2231 47.536C17.2231 46.4845 16.3738 45.6352 15.3222 45.6352ZM15.3222 45.6352C14.2909 45.6352 13.4416 46.4845 13.4416 47.536C13.4416 48.5674 14.2909 49.4167 15.3222 49.4167C16.3738 49.4167 17.2231 48.5674 17.2231 47.536C17.2231 46.4845 16.3738 45.6352 15.3222 45.6352ZM15.3222 45.6352C14.2909 45.6352 13.4416 46.4845 13.4416 47.536C13.4416 48.5674 14.2909 49.4167 15.3222 49.4167C16.3738 49.4167 17.2231 48.5674 17.2231 47.536C17.2231 46.4845 16.3738 45.6352 15.3222 45.6352ZM15.3222 45.6352C14.2909 45.6352 13.4416 46.4845 13.4416 47.536C13.4416 48.5674 14.2909 49.4167 15.3222 49.4167C16.3738 49.4167 17.2231 48.5674 17.2231 47.536C17.2231 46.4845 16.3738 45.6352 15.3222 45.6352ZM15.3222 45.6352C14.2909 45.6352 13.4416 46.4845 13.4416 47.536C13.4416 48.5674 14.2909 49.4167 15.3222 49.4167C16.3738 49.4167 17.2231 48.5674 17.2231 47.536C17.2231 46.4845 16.3738 45.6352 15.3222 45.6352ZM15.3222 45.6352C14.2909 45.6352 13.4416 46.4845 13.4416 47.536C13.4416 48.5674 14.2909 49.4167 15.3222 49.4167C16.3738 49.4167 17.2231 48.5674 17.2231 47.536C17.2231 46.4845 16.3738 45.6352 15.3222 45.6352ZM57.0002 0.175598C25.676 0.175598 0.175781 25.6758 0.175781 57.0001C0.175781 88.3243 25.676 113.825 57.0002 113.825C88.3245 113.825 113.825 88.3243 113.825 57.0001C113.825 25.6758 88.3245 0.175598 57.0002 0.175598ZM57.0002 110.043C27.7589 110.043 3.95734 86.2414 3.95734 57.0001C3.95734 43.0669 9.37689 30.3674 18.214 20.8832L35.868 38.5372C34.8771 39.9527 34.2705 41.712 34.2705 43.5927V44.9678L30.9136 43.3703C30.2058 43.0265 29.3565 43.168 28.77 43.7141L24.8065 47.5967C24.4829 47.9 24.2807 48.3045 24.2402 48.7494L22.9865 60.0132L15.5042 67.4954C14.9178 68.0818 14.7762 68.9514 15.1402 69.6794L16.4749 72.3285C16.7984 72.9958 17.4658 73.3801 18.1736 73.3801C18.4567 73.3801 18.7398 73.3194 19.0229 73.1778C19.9531 72.7127 20.3373 71.5803 19.8722 70.65L19.1442 69.2143L26.1411 62.2174C26.4445 61.9141 26.6265 61.5298 26.6871 61.0849L27.9409 49.8414L30.4687 47.354L34.2705 49.1741V51.2772C34.2705 52.4096 34.594 53.4612 35.14 54.3509C33.4616 55.544 32.3696 57.5461 32.3696 59.8312V75.5438C32.3696 87.7176 40.4585 98.1927 51.6009 100.458C51.9851 100.538 52.3693 100.559 52.7536 100.559C54.1085 100.559 55.4229 100.094 56.5149 99.2038C56.6969 99.0623 56.8385 98.8803 56.98 98.7185C57.162 98.9005 57.3036 99.0825 57.4856 99.2443C58.5574 100.114 59.8718 100.579 61.2065 100.579C61.5907 100.579 61.9749 100.538 62.3591 100.458C71.0345 98.678 77.8291 91.8025 80.3367 83.0058L93.1171 95.7863C83.6329 104.623 70.9333 110.043 57.0002 110.043ZM50.9133 39.9123C51.9245 40.1347 52.9356 39.4876 53.158 38.4765L56.616 22.9054H57.3845L60.8425 38.4765C61.0245 39.3461 61.8131 39.9527 62.6827 39.9527C62.8242 39.9527 62.9456 39.9325 63.0871 39.9123C64.1185 39.6696 64.7656 38.6585 64.5229 37.6474V37.5665L72.4905 39.0023C74.4925 39.3663 75.9485 41.3076 75.9485 43.5927V51.2772C75.9485 52.3489 75.2205 53.2185 74.3307 53.2185H55.888L41.6718 38.982L49.4776 37.5665L49.4573 37.6474C49.2349 38.6585 49.882 39.6898 50.9133 39.9123ZM60.0942 57.4247C60.4785 57.1618 60.9031 57.0001 61.3682 57.0001H75.1598C76.4945 57.0001 77.5865 58.2741 77.5865 59.8312V74.9169L60.0942 57.4247ZM77.182 79.8714C75.6249 88.3243 69.538 95.1189 61.5907 96.7367C60.7818 96.8985 60.1751 96.5345 59.892 96.2918C59.2651 95.7863 58.9011 94.9774 58.9011 94.0876V61.5703L77.182 79.8714ZM50.5291 53.2185H39.6698C38.78 53.2185 38.052 52.3489 38.052 51.2772V43.5927C38.052 42.7636 38.2542 41.9547 38.598 41.2874L50.5291 53.2185ZM38.6385 57.0001C38.7598 57.0001 38.8811 56.9596 39.0025 56.9192C39.2249 56.9596 39.4473 57.0001 39.6698 57.0001H54.3309L55.3825 58.0516C55.2207 58.6381 55.0993 59.2447 55.0993 59.8918V94.0876C55.0993 94.9572 54.7556 95.7661 54.1085 96.2716C53.6029 96.6963 52.976 96.8581 52.3491 96.7367C42.966 94.8358 36.1713 85.9178 36.1713 75.5438V59.8312C36.1713 58.2741 37.2836 57.0001 38.6385 57.0001ZM95.7865 93.1169L81.2062 78.5165C81.3074 77.5458 81.3882 76.5549 81.3882 75.564V59.8312C81.3882 57.6269 80.3569 55.6856 78.7998 54.4925C79.3862 53.5825 79.73 52.4703 79.73 51.2772V49.1741L83.5318 47.354L86.0596 49.8414L87.3134 61.0849C87.374 61.5096 87.556 61.9141 87.8594 62.2174L94.8562 69.2143L94.1282 70.65C93.6631 71.5803 94.0473 72.7127 94.9776 73.1778C95.2607 73.3194 95.5438 73.3801 95.8269 73.3801C96.5347 73.3801 97.202 72.9958 97.5256 72.3285L98.8602 69.6794C99.2242 68.9514 99.0827 68.0818 98.4962 67.4954L91.014 60.0132L89.7602 48.7494C89.7198 48.3045 89.5176 47.9 89.194 47.5967L85.2305 43.7141C84.644 43.168 83.7947 43.0265 83.0869 43.3703L79.73 44.9678V43.5927C79.73 39.4674 76.9798 35.9689 73.178 35.2814L72.268 35.1196L76.2518 21.6314C76.3327 21.3483 76.3529 21.0247 76.2922 20.7416L74.9576 14.1087C74.7756 13.2189 74.0071 12.5718 73.0971 12.5718H70.448C69.3965 12.5718 68.5471 13.4212 68.5471 14.4727C68.5471 15.5243 69.3965 16.3736 70.448 16.3736H71.54L72.4702 21.0247L68.5269 34.432L63.6129 33.5423L60.7413 20.6C60.5593 19.7305 59.7909 19.1238 58.9011 19.1238H55.0993C54.2096 19.1238 53.4411 19.7305 53.2591 20.6L50.3876 33.5423L45.4736 34.432L41.5302 21.0247L42.4605 16.3736H43.5525C44.604 16.3736 45.4533 15.5243 45.4533 14.4727C45.4533 13.4212 44.604 12.5718 43.5525 12.5718H40.9033C39.9933 12.5718 39.2249 13.2189 39.0429 14.1087L37.7082 20.7416C37.6476 21.0247 37.6678 21.3483 37.7487 21.6314L41.7325 35.1196L40.8225 35.2814C40.0742 35.4229 39.3867 35.7061 38.7193 36.0296L20.8833 18.2138C30.3676 9.37671 43.0671 3.95716 57.0002 3.95716C86.2416 3.95716 110.043 27.7587 110.043 57.0001C110.043 70.9332 104.624 83.6327 95.7865 93.1169ZM17.2231 47.536C17.2231 46.4845 16.3738 45.6352 15.3222 45.6352C14.2909 45.6352 13.4416 46.4845 13.4416 47.536C13.4416 48.5674 14.2909 49.4167 15.3222 49.4167C16.3738 49.4167 17.2231 48.5674 17.2231 47.536ZM15.3222 45.6352C14.2909 45.6352 13.4416 46.4845 13.4416 47.536C13.4416 48.5674 14.2909 49.4167 15.3222 49.4167C16.3738 49.4167 17.2231 48.5674 17.2231 47.536C17.2231 46.4845 16.3738 45.6352 15.3222 45.6352ZM15.3222 45.6352C14.2909 45.6352 13.4416 46.4845 13.4416 47.536C13.4416 48.5674 14.2909 49.4167 15.3222 49.4167C16.3738 49.4167 17.2231 48.5674 17.2231 47.536C17.2231 46.4845 16.3738 45.6352 15.3222 45.6352ZM15.3222 45.6352C14.2909 45.6352 13.4416 46.4845 13.4416 47.536C13.4416 48.5674 14.2909 49.4167 15.3222 49.4167C16.3738 49.4167 17.2231 48.5674 17.2231 47.536C17.2231 46.4845 16.3738 45.6352 15.3222 45.6352ZM15.3222 45.6352C14.2909 45.6352 13.4416 46.4845 13.4416 47.536C13.4416 48.5674 14.2909 49.4167 15.3222 49.4167C16.3738 49.4167 17.2231 48.5674 17.2231 47.536C17.2231 46.4845 16.3738 45.6352 15.3222 45.6352Z" fill="white"/>
</mask>
<g mask="url(#mask1_589_987)">
<path d="M22.5824 18.8813C22.3802 18.8813 19.5491 13.1786 19.5491 13.1786L16.7382 15.0593L16.1113 17.587L18.1942 20.9035L93.0973 95.8066L97.8495 100.559L98.072 95.8066L95.6858 93.0564L22.6027 19.9328L20.8838 18.2139L22.5824 18.8813Z" fill="#C22032"/>
</g>
<mask id="mask2_589_987" style="mask-type:luminance" maskUnits="userSpaceOnUse" x="0" y="0" width="114" height="114">
<path d="M15.3222 45.6352C14.2909 45.6352 13.4416 46.4845 13.4416 47.536C13.4416 48.5674 14.2909 49.4167 15.3222 49.4167C16.3738 49.4167 17.2231 48.5674 17.2231 47.536C17.2231 46.4845 16.3738 45.6352 15.3222 45.6352ZM15.3222 45.6352C14.2909 45.6352 13.4416 46.4845 13.4416 47.536C13.4416 48.5674 14.2909 49.4167 15.3222 49.4167C16.3738 49.4167 17.2231 48.5674 17.2231 47.536C17.2231 46.4845 16.3738 45.6352 15.3222 45.6352ZM15.3222 45.6352C14.2909 45.6352 13.4416 46.4845 13.4416 47.536C13.4416 48.5674 14.2909 49.4167 15.3222 49.4167C16.3738 49.4167 17.2231 48.5674 17.2231 47.536C17.2231 46.4845 16.3738 45.6352 15.3222 45.6352ZM15.3222 45.6352C14.2909 45.6352 13.4416 46.4845 13.4416 47.536C13.4416 48.5674 14.2909 49.4167 15.3222 49.4167C16.3738 49.4167 17.2231 48.5674 17.2231 47.536C17.2231 46.4845 16.3738 45.6352 15.3222 45.6352ZM15.3222 45.6352C14.2909 45.6352 13.4416 46.4845 13.4416 47.536C13.4416 48.5674 14.2909 49.4167 15.3222 49.4167C16.3738 49.4167 17.2231 48.5674 17.2231 47.536C17.2231 46.4845 16.3738 45.6352 15.3222 45.6352ZM15.3222 45.6352C14.2909 45.6352 13.4416 46.4845 13.4416 47.536C13.4416 48.5674 14.2909 49.4167 15.3222 49.4167C16.3738 49.4167 17.2231 48.5674 17.2231 47.536C17.2231 46.4845 16.3738 45.6352 15.3222 45.6352ZM57.0002 0.175598C25.676 0.175598 0.175781 25.6758 0.175781 57.0001C0.175781 88.3243 25.676 113.825 57.0002 113.825C88.3245 113.825 113.825 88.3243 113.825 57.0001C113.825 25.6758 88.3245 0.175598 57.0002 0.175598ZM57.0002 110.043C27.7589 110.043 3.95734 86.2414 3.95734 57.0001C3.95734 43.0669 9.37689 30.3674 18.214 20.8832L35.868 38.5372C34.8771 39.9527 34.2705 41.712 34.2705 43.5927V44.9678L30.9136 43.3703C30.2058 43.0265 29.3565 43.168 28.77 43.7141L24.8065 47.5967C24.4829 47.9 24.2807 48.3045 24.2402 48.7494L22.9865 60.0132L15.5042 67.4954C14.9178 68.0818 14.7762 68.9514 15.1402 69.6794L16.4749 72.3285C16.7984 72.9958 17.4658 73.3801 18.1736 73.3801C18.4567 73.3801 18.7398 73.3194 19.0229 73.1778C19.9531 72.7127 20.3373 71.5803 19.8722 70.65L19.1442 69.2143L26.1411 62.2174C26.4445 61.9141 26.6265 61.5298 26.6871 61.0849L27.9409 49.8414L30.4687 47.354L34.2705 49.1741V51.2772C34.2705 52.4096 34.594 53.4612 35.14 54.3509C33.4616 55.544 32.3696 57.5461 32.3696 59.8312V75.5438C32.3696 87.7176 40.4585 98.1927 51.6009 100.458C51.9851 100.538 52.3693 100.559 52.7536 100.559C54.1085 100.559 55.4229 100.094 56.5149 99.2038C56.6969 99.0623 56.8385 98.8803 56.98 98.7185C57.162 98.9005 57.3036 99.0825 57.4856 99.2443C58.5574 100.114 59.8718 100.579 61.2065 100.579C61.5907 100.579 61.9749 100.538 62.3591 100.458C71.0345 98.678 77.8291 91.8025 80.3367 83.0058L93.1171 95.7863C83.6329 104.623 70.9333 110.043 57.0002 110.043ZM50.9133 39.9123C51.9245 40.1347 52.9356 39.4876 53.158 38.4765L56.616 22.9054H57.3845L60.8425 38.4765C61.0245 39.3461 61.8131 39.9527 62.6827 39.9527C62.8242 39.9527 62.9456 39.9325 63.0871 39.9123C64.1185 39.6696 64.7656 38.6585 64.5229 37.6474V37.5665L72.4905 39.0023C74.4925 39.3663 75.9485 41.3076 75.9485 43.5927V51.2772C75.9485 52.3489 75.2205 53.2185 74.3307 53.2185H55.888L41.6718 38.982L49.4776 37.5665L49.4573 37.6474C49.2349 38.6585 49.882 39.6898 50.9133 39.9123ZM60.0942 57.4247C60.4785 57.1618 60.9031 57.0001 61.3682 57.0001H75.1598C76.4945 57.0001 77.5865 58.2741 77.5865 59.8312V74.9169L60.0942 57.4247ZM77.182 79.8714C75.6249 88.3243 69.538 95.1189 61.5907 96.7367C60.7818 96.8985 60.1751 96.5345 59.892 96.2918C59.2651 95.7863 58.9011 94.9774 58.9011 94.0876V61.5703L77.182 79.8714ZM50.5291 53.2185H39.6698C38.78 53.2185 38.052 52.3489 38.052 51.2772V43.5927C38.052 42.7636 38.2542 41.9547 38.598 41.2874L50.5291 53.2185ZM38.6385 57.0001C38.7598 57.0001 38.8811 56.9596 39.0025 56.9192C39.2249 56.9596 39.4473 57.0001 39.6698 57.0001H54.3309L55.3825 58.0516C55.2207 58.6381 55.0993 59.2447 55.0993 59.8918V94.0876C55.0993 94.9572 54.7556 95.7661 54.1085 96.2716C53.6029 96.6963 52.976 96.8581 52.3491 96.7367C42.966 94.8358 36.1713 85.9178 36.1713 75.5438V59.8312C36.1713 58.2741 37.2836 57.0001 38.6385 57.0001ZM95.7865 93.1169L81.2062 78.5165C81.3074 77.5458 81.3882 76.5549 81.3882 75.564V59.8312C81.3882 57.6269 80.3569 55.6856 78.7998 54.4925C79.3862 53.5825 79.73 52.4703 79.73 51.2772V49.1741L83.5318 47.354L86.0596 49.8414L87.3134 61.0849C87.374 61.5096 87.556 61.9141 87.8594 62.2174L94.8562 69.2143L94.1282 70.65C93.6631 71.5803 94.0473 72.7127 94.9776 73.1778C95.2607 73.3194 95.5438 73.3801 95.8269 73.3801C96.5347 73.3801 97.202 72.9958 97.5256 72.3285L98.8602 69.6794C99.2242 68.9514 99.0827 68.0818 98.4962 67.4954L91.014 60.0132L89.7602 48.7494C89.7198 48.3045 89.5176 47.9 89.194 47.5967L85.2305 43.7141C84.644 43.168 83.7947 43.0265 83.0869 43.3703L79.73 44.9678V43.5927C79.73 39.4674 76.9798 35.9689 73.178 35.2814L72.268 35.1196L76.2518 21.6314C76.3327 21.3483 76.3529 21.0247 76.2922 20.7416L74.9576 14.1087C74.7756 13.2189 74.0071 12.5718 73.0971 12.5718H70.448C69.3965 12.5718 68.5471 13.4212 68.5471 14.4727C68.5471 15.5243 69.3965 16.3736 70.448 16.3736H71.54L72.4702 21.0247L68.5269 34.432L63.6129 33.5423L60.7413 20.6C60.5593 19.7305 59.7909 19.1238 58.9011 19.1238H55.0993C54.2096 19.1238 53.4411 19.7305 53.2591 20.6L50.3876 33.5423L45.4736 34.432L41.5302 21.0247L42.4605 16.3736H43.5525C44.604 16.3736 45.4533 15.5243 45.4533 14.4727C45.4533 13.4212 44.604 12.5718 43.5525 12.5718H40.9033C39.9933 12.5718 39.2249 13.2189 39.0429 14.1087L37.7082 20.7416C37.6476 21.0247 37.6678 21.3483 37.7487 21.6314L41.7325 35.1196L40.8225 35.2814C40.0742 35.4229 39.3867 35.7061 38.7193 36.0296L20.8833 18.2138C30.3676 9.37671 43.0671 3.95716 57.0002 3.95716C86.2416 3.95716 110.043 27.7587 110.043 57.0001C110.043 70.9332 104.624 83.6327 95.7865 93.1169ZM17.2231 47.536C17.2231 46.4845 16.3738 45.6352 15.3222 45.6352C14.2909 45.6352 13.4416 46.4845 13.4416 47.536C13.4416 48.5674 14.2909 49.4167 15.3222 49.4167C16.3738 49.4167 17.2231 48.5674 17.2231 47.536ZM15.3222 45.6352C14.2909 45.6352 13.4416 46.4845 13.4416 47.536C13.4416 48.5674 14.2909 49.4167 15.3222 49.4167C16.3738 49.4167 17.2231 48.5674 17.2231 47.536C17.2231 46.4845 16.3738 45.6352 15.3222 45.6352ZM15.3222 45.6352C14.2909 45.6352 13.4416 46.4845 13.4416 47.536C13.4416 48.5674 14.2909 49.4167 15.3222 49.4167C16.3738 49.4167 17.2231 48.5674 17.2231 47.536C17.2231 46.4845 16.3738 45.6352 15.3222 45.6352ZM15.3222 45.6352C14.2909 45.6352 13.4416 46.4845 13.4416 47.536C13.4416 48.5674 14.2909 49.4167 15.3222 49.4167C16.3738 49.4167 17.2231 48.5674 17.2231 47.536C17.2231 46.4845 16.3738 45.6352 15.3222 45.6352ZM15.3222 45.6352C14.2909 45.6352 13.4416 46.4845 13.4416 47.536C13.4416 48.5674 14.2909 49.4167 15.3222 49.4167C16.3738 49.4167 17.2231 48.5674 17.2231 47.536C17.2231 46.4845 16.3738 45.6352 15.3222 45.6352Z" fill="white"/>
</mask>
<g mask="url(#mask2_589_987)">
<path d="M18.1934 22.9055L19.5685 20.8832L14.9174 14.8368L5.87805 20.0946C5.87805 20.0946 0.883164 27.233 -0.229058 31.1157C-1.34128 34.9984 -10.7244 72.7735 -6.41706 79.649C-2.10972 86.5246 0.984274 93.9663 3.57272 96.7975C6.16116 99.6083 5.12983 100.822 11.7425 104.947C18.3754 109.072 22.6625 111.398 26.5452 112.854C30.4278 114.31 30.1649 114.067 35.5845 115.867C41.0041 117.667 42.46 119.386 51.9443 119.386C61.4285 119.386 71.8632 118.779 75.9683 116.555C80.0734 114.33 80.4172 114.411 83.6123 111.56C86.7872 108.729 88.5263 104.907 89.6385 104.361C90.7507 103.815 96.7971 98.577 96.7971 98.577L94.8963 95.7459C94.8963 95.7459 87.3938 96.5144 85.6749 97.5457C83.956 98.577 77.404 103.572 73.8045 103.997C70.1847 104.421 63.8956 106.282 60.114 106.261C56.3325 106.241 55.9078 108.87 49.6996 106.261C43.5116 103.653 37.6472 100.903 33.8656 98.2332C30.0841 95.5639 21.8536 90.0635 17.2429 82.8239C12.6121 75.6046 9.86183 71.9039 10.1247 68.2032C10.3876 64.5026 10.3067 57.2832 10.1247 49.3561C9.94272 41.4492 9.25516 40.3977 9.94272 38.9417C10.6303 37.4857 12.1874 34.4726 13.9063 30.6708C15.6049 26.8892 18.1934 22.9055 18.1934 22.9055Z" fill="#C22032"/>
</g>
</svg>
