<?xml version="1.0" encoding="utf-8"?>
<!-- Generator: Adobe Illustrator 26.0.1, SVG Export Plug-In . SVG Version: 6.00 Build 0)  -->
<svg version="1.1" id="Layer_1" xmlns="http://www.w3.org/2000/svg" xmlns:xlink="http://www.w3.org/1999/xlink" x="0px" y="0px"
	 viewBox="0 0 90 90" style="enable-background:new 0 0 90 90;" xml:space="preserve">
<style type="text/css">
	.st0{clip-path:url(#XMLID_00000115508476420962929850000008592220257260140179_);fill:#C22032;}
	.st1{fill:#C22032;}
</style>
<g>
	<defs>
		<path id="XMLID_00000051372570053348282100000012287032964811386034_" d="M13.02,36.28c-0.79,0-1.44,0.65-1.44,1.46
			c0,0.79,0.65,1.44,1.44,1.44c0.81,0,1.46-0.65,1.46-1.44C14.48,36.93,13.83,36.28,13.02,36.28z M13.02,36.28
			c-0.79,0-1.44,0.65-1.44,1.46c0,0.79,0.65,1.44,1.44,1.44c0.81,0,1.46-0.65,1.46-1.44C14.48,36.93,13.83,36.28,13.02,36.28z
			 M13.02,36.28c-0.79,0-1.44,0.65-1.44,1.46c0,0.79,0.65,1.44,1.44,1.44c0.81,0,1.46-0.65,1.46-1.44
			C14.48,36.93,13.83,36.28,13.02,36.28z M13.02,36.28c-0.79,0-1.44,0.65-1.44,1.46c0,0.79,0.65,1.44,1.44,1.44
			c0.81,0,1.46-0.65,1.46-1.44C14.48,36.93,13.83,36.28,13.02,36.28z M13.02,36.28c-0.79,0-1.44,0.65-1.44,1.46
			c0,0.79,0.65,1.44,1.44,1.44c0.81,0,1.46-0.65,1.46-1.44C14.48,36.93,13.83,36.28,13.02,36.28z M13.02,36.28
			c-0.79,0-1.44,0.65-1.44,1.46c0,0.79,0.65,1.44,1.44,1.44c0.81,0,1.46-0.65,1.46-1.44C14.48,36.93,13.83,36.28,13.02,36.28z
			 M45,1.4C20.97,1.4,1.4,20.97,1.4,45S20.97,88.6,45,88.6S88.6,69.03,88.6,45S69.03,1.4,45,1.4z M45,85.69
			C22.57,85.69,4.31,67.43,4.31,45c0-10.69,4.16-20.43,10.94-27.71l13.54,13.54c-0.76,1.09-1.23,2.44-1.23,3.88v1.05l-2.58-1.23
			c-0.54-0.26-1.19-0.16-1.64,0.26l-3.04,2.98c-0.25,0.23-0.4,0.54-0.43,0.88l-0.96,8.64l-5.74,5.74c-0.45,0.45-0.56,1.12-0.28,1.68
			l1.02,2.03c0.25,0.51,0.76,0.81,1.3,0.81c0.22,0,0.43-0.05,0.65-0.16c0.71-0.36,1.01-1.23,0.65-1.94l-0.56-1.1L21.32,49
			c0.23-0.23,0.37-0.53,0.42-0.87l0.96-8.63l1.94-1.91l2.92,1.4v1.61c0,0.87,0.25,1.68,0.67,2.36c-1.29,0.92-2.13,2.45-2.13,4.2
			v12.05c0,9.34,6.21,17.38,14.75,19.11c0.29,0.06,0.59,0.08,0.88,0.08c1.04,0,2.05-0.36,2.89-1.04c0.14-0.11,0.25-0.25,0.36-0.37
			c0.14,0.14,0.25,0.28,0.39,0.4c0.82,0.67,1.83,1.02,2.85,1.02c0.29,0,0.59-0.03,0.88-0.09c6.66-1.37,11.87-6.64,13.79-13.39
			l9.81,9.81C65.43,81.54,55.69,85.69,45,85.69z M40.33,31.89c0.78,0.17,1.55-0.33,1.72-1.1l2.65-11.95h0.59l2.65,11.95
			c0.14,0.67,0.74,1.13,1.41,1.13c0.11,0,0.2-0.02,0.31-0.03c0.79-0.19,1.29-0.96,1.1-1.74v-0.06l6.11,1.1
			c1.54,0.28,2.65,1.77,2.65,3.52v5.9c0,0.82-0.56,1.49-1.24,1.49H44.15L33.24,31.18l5.99-1.09l-0.02,0.06
			C39.04,30.93,39.54,31.72,40.33,31.89z M47.37,45.33c0.29-0.2,0.62-0.33,0.98-0.33h10.58c1.02,0,1.86,0.98,1.86,2.17v11.57
			L47.37,45.33z M60.48,62.55c-1.19,6.49-5.86,11.7-11.96,12.94c-0.62,0.12-1.09-0.16-1.3-0.34c-0.48-0.39-0.76-1.01-0.76-1.69
			V48.51L60.48,62.55z M40.04,42.1H31.7c-0.68,0-1.24-0.67-1.24-1.49v-5.9c0-0.64,0.16-1.26,0.42-1.77L40.04,42.1z M30.91,45
			c0.09,0,0.19-0.03,0.28-0.06C31.36,44.97,31.53,45,31.7,45h11.25l0.81,0.81c-0.12,0.45-0.22,0.92-0.22,1.41v26.24
			c0,0.67-0.26,1.29-0.76,1.68c-0.39,0.33-0.87,0.45-1.35,0.36c-7.2-1.46-12.41-8.3-12.41-16.26V47.17
			C29.02,45.98,29.87,45,30.91,45z M74.76,72.71l-11.19-11.2c0.08-0.74,0.14-1.5,0.14-2.27V47.17c0-1.69-0.79-3.18-1.99-4.1
			c0.45-0.7,0.71-1.55,0.71-2.47V39l2.92-1.4l1.94,1.91l0.96,8.63c0.05,0.33,0.19,0.64,0.42,0.87l5.37,5.37l-0.56,1.1
			c-0.36,0.71-0.06,1.58,0.65,1.94c0.22,0.11,0.43,0.16,0.65,0.16c0.54,0,1.05-0.29,1.3-0.81l1.02-2.03
			c0.28-0.56,0.17-1.23-0.28-1.68l-5.74-5.74l-0.96-8.64c-0.03-0.34-0.19-0.65-0.43-0.88l-3.04-2.98c-0.45-0.42-1.1-0.53-1.64-0.26
			l-2.58,1.23v-1.05c0-3.16-2.11-5.85-5.03-6.38l-0.7-0.12l3.06-10.35c0.06-0.22,0.08-0.47,0.03-0.68l-1.02-5.09
			c-0.14-0.68-0.73-1.18-1.43-1.18h-2.03c-0.81,0-1.46,0.65-1.46,1.46c0,0.81,0.65,1.46,1.46,1.46h0.84l0.71,3.57l-3.03,10.29
			L50.07,27l-2.2-9.93c-0.14-0.67-0.73-1.13-1.41-1.13h-2.92c-0.68,0-1.27,0.47-1.41,1.13L39.93,27l-3.77,0.68L33.13,17.4l0.71-3.57
			h0.84c0.81,0,1.46-0.65,1.46-1.46c0-0.81-0.65-1.46-1.46-1.46h-2.03c-0.7,0-1.29,0.5-1.43,1.18l-1.02,5.09
			c-0.05,0.22-0.03,0.47,0.03,0.68l3.06,10.35l-0.7,0.12c-0.57,0.11-1.1,0.33-1.61,0.57L17.29,15.24C24.57,8.46,34.31,4.31,45,4.31
			c22.43,0,40.69,18.26,40.69,40.69C85.69,55.69,81.54,65.43,74.76,72.71z M14.48,37.74c0-0.81-0.65-1.46-1.46-1.46
			c-0.79,0-1.44,0.65-1.44,1.46c0,0.79,0.65,1.44,1.44,1.44C13.83,39.18,14.48,38.53,14.48,37.74z M13.02,36.28
			c-0.79,0-1.44,0.65-1.44,1.46c0,0.79,0.65,1.44,1.44,1.44c0.81,0,1.46-0.65,1.46-1.44C14.48,36.93,13.83,36.28,13.02,36.28z
			 M13.02,36.28c-0.79,0-1.44,0.65-1.44,1.46c0,0.79,0.65,1.44,1.44,1.44c0.81,0,1.46-0.65,1.46-1.44
			C14.48,36.93,13.83,36.28,13.02,36.28z M13.02,36.28c-0.79,0-1.44,0.65-1.44,1.46c0,0.79,0.65,1.44,1.44,1.44
			c0.81,0,1.46-0.65,1.46-1.44C14.48,36.93,13.83,36.28,13.02,36.28z M13.02,36.28c-0.79,0-1.44,0.65-1.44,1.46
			c0,0.79,0.65,1.44,1.44,1.44c0.81,0,1.46-0.65,1.46-1.44C14.48,36.93,13.83,36.28,13.02,36.28z"/>
	</defs>
	<use xlink:href="#XMLID_00000051372570053348282100000012287032964811386034_"  style="overflow:visible;fill:#35E419;"/>
	<clipPath id="XMLID_00000042703632454824547600000008141298013940241071_">
		<use xlink:href="#XMLID_00000051372570053348282100000012287032964811386034_"  style="overflow:visible;"/>
	</clipPath>
	<path style="clip-path:url(#XMLID_00000042703632454824547600000008141298013940241071_);fill:#C22032;" d="M17.29,15.24
		l12.28-5.13c0,0,11.02-6.63,21.92-2.38s13.58,0.79,18.63,12.58s10.2,24.5,10.3,24.63s0.89,10.53,0.89,10.53l-3.57,12.08l-2.99,5.16
		l2.22,3.85c0,0,11.8-16.11,13.18-21.32c1.39-5.22,1.52-9.7,1.45-11.49c-0.07-1.78-5.41-21.48-6.4-24.9s-1.58-5.99-5.48-9.1
		S69.49,2.37,66.79,1.4S54.84-3.13,50.15-3.06C45.46-3,39.32-2.14,36.95-1.41c-2.38,0.73-6.27,1.27-9.51,2.82s-5.55,2.07-7.79,3.79
		s-4.62,3.9-4.62,5.02S17.29,15.24,17.29,15.24"/>
	<path style="clip-path:url(#XMLID_00000042703632454824547600000008141298013940241071_);fill:#C22032;" d="M18.6,15.75
		c-0.15,0-2.33-4.38-2.33-4.38l-2.15,1.44l-0.48,1.94l1.6,2.54l57.47,57.47l3.65,3.65l0.17-3.65l-1.83-2.12L18.61,16.56l-1.32-1.32
		L18.6,15.75z"/>
	<path style="clip-path:url(#XMLID_00000042703632454824547600000008141298013940241071_);fill:#C22032;" d="M15.23,18.84l1.06-1.55
		l-3.57-4.64l-6.93,4.03c0,0-3.83,5.48-4.69,8.45s-8.05,31.95-4.75,37.23S2.02,73.35,4,75.52c1.98,2.16,1.19,3.09,6.27,6.26
		s8.38,4.95,11.36,6.07c2.97,1.12,2.77,0.92,6.93,2.31c4.16,1.39,5.28,2.71,12.54,2.71s15.28-0.46,18.43-2.18s3.42-1.65,5.86-3.83
		c2.44-2.18,3.76-5.11,4.62-5.52c0.86-0.42,5.5-4.44,5.5-4.44l-1.46-2.18c0,0-5.75,0.59-7.07,1.39c-1.32,0.79-6.34,4.62-9.11,4.95
		s-7.6,1.76-10.5,1.74c-2.9-0.02-3.23,2-7.99,0s-9.24-4.11-12.15-6.16s-9.21-6.27-12.76-11.82c-3.55-5.55-5.66-8.38-5.46-11.22
		c0.2-2.84,0.13-8.38,0-14.46c-0.13-6.07-0.66-6.87-0.13-7.99c0.53-1.12,1.72-3.43,3.04-6.34S15.23,18.84,15.23,18.84z"/>
</g>
<path d="M76.98,65.34c0,0.81-0.65,1.46-1.46,1.46c-0.81,0-1.46-0.65-1.46-1.46c0-0.79,0.65-1.44,1.46-1.44
	C76.32,63.9,76.98,64.55,76.98,65.34z"/>
<circle class="st1" cx="79.88" cy="82.78" r="1.45"/>
<path class="st1" d="M14.48,37.74c0,0.79-0.65,1.44-1.46,1.44c-0.79,0-1.44-0.65-1.44-1.44c0-0.81,0.65-1.46,1.44-1.46
	C13.83,36.28,14.48,36.93,14.48,37.74z"/>
<circle class="st1" cx="10.12" cy="7.22" r="1.45"/>
<path class="st1" d="M76.98,65.34c0,0.81-0.65,1.46-1.46,1.46c-0.81,0-1.46-0.65-1.46-1.46c0-0.79,0.65-1.44,1.46-1.44
	C76.32,63.9,76.98,64.55,76.98,65.34z"/>
</svg>
