<svg width="114" height="127" viewBox="0 0 114 127" fill="none" xmlns="http://www.w3.org/2000/svg">
<path d="M74.2601 77.2815H61.728C61.0385 77.2815 60.4707 76.7137 60.4707 76.0242C60.4707 75.3347 61.0385 74.7669 61.728 74.7669H74.2601C74.9496 74.7669 75.5174 75.3347 75.5174 76.0242C75.5174 76.7137 74.9496 77.2815 74.2601 77.2815Z" fill="#C22032"/>
<path d="M40.4152 38.4886L28.2684 36.7041C25.4091 36.2783 22.854 38.4886 22.854 41.3885C22.854 44.3694 25.5916 46.6203 28.532 46.0322L40.5166 43.5583C39.5635 41.9765 39.5432 40.0501 40.4152 38.4886Z" fill="#B48D05"/>
<path d="M61.3222 36.7041L49.1754 38.4886C50.0474 40.0501 50.0271 41.9765 49.0537 43.5583L61.0383 46.0322C63.999 46.6406 66.7163 44.3694 66.7163 41.3885C66.7366 38.4886 64.1815 36.2783 61.3222 36.7041Z" fill="#B48D05"/>
<path d="M25.3685 76.0242H19.1025C18.413 76.0242 17.8452 75.4564 17.8452 74.7669V54.7114C17.8452 54.022 18.413 53.4542 19.1025 53.4542H25.3685C26.058 53.4542 26.6258 54.022 26.6258 54.7114V74.7669C26.6055 75.4564 26.058 76.0242 25.3685 76.0242ZM20.3395 73.5299H24.1113V55.9687H20.3395V73.5299Z" fill="#C22032"/>
<path d="M35.386 72.2523H25.3481C24.6586 72.2523 24.0908 71.6845 24.0908 70.9951V58.463C24.0908 57.7735 24.6586 57.2057 25.3481 57.2057H35.386C36.0754 57.2057 36.6432 57.7735 36.6432 58.463C36.6432 59.1524 36.0754 59.7202 35.386 59.7202H26.6054V69.7581H35.386C36.0754 69.7581 36.6432 70.3259 36.6432 71.0154C36.6432 71.7048 36.0754 72.2523 35.386 72.2523Z" fill="#C22032"/>
<path d="M51.7106 76.0242H37.9009C35.8325 76.0242 34.1494 74.341 34.1494 72.2726V57.2057C34.1494 55.1373 35.8325 53.4542 37.9009 53.4542H51.7106C53.779 53.4542 55.4621 55.1373 55.4621 57.2057V72.2726C55.4621 74.341 53.779 76.0242 51.7106 76.0242ZM37.9009 55.9687C37.2115 55.9687 36.6437 56.5365 36.6437 57.226V72.2929C36.6437 72.9824 37.2115 73.5502 37.9009 73.5502H51.7106C52.4001 73.5502 52.9679 72.9824 52.9679 72.2929V57.226C52.9679 56.5365 52.4001 55.9687 51.7106 55.9687H37.9009Z" fill="#C22032"/>
<path d="M47.31 55.9687H42.3012C41.6117 55.9687 41.0439 55.4009 41.0439 54.7114V45.2617C41.0439 44.5722 41.6117 44.0044 42.3012 44.0044C42.9907 44.0044 43.5585 44.5722 43.5585 45.2617V53.4542H46.073V45.2617C46.073 44.5722 46.6408 44.0044 47.3303 44.0044C48.0198 44.0044 48.5876 44.5722 48.5876 45.2617V54.7114C48.547 55.4009 47.9995 55.9687 47.31 55.9687Z" fill="#B48D05"/>
<path d="M74.2602 83.5475H61.7281C61.0387 83.5475 60.4709 82.9797 60.4709 82.2902V74.7669C60.4709 73.3879 59.3353 72.2523 57.9563 72.2523H54.1845C53.4951 72.2523 52.9272 71.6845 52.9272 70.9951C52.9272 70.3056 53.4951 69.7378 54.1845 69.7378H57.9563C60.7142 69.7378 62.9651 71.9887 62.9651 74.7466V81.0126H73.003V73.4893C73.003 65.8849 66.818 59.6999 59.2136 59.6999H54.2048C53.5153 59.6999 52.9475 59.1321 52.9475 58.4427C52.9475 57.7532 53.5153 57.1854 54.2048 57.1854H59.2136C68.197 57.1854 75.5175 64.5059 75.5175 73.4893V82.2699C75.5175 82.9797 74.9497 83.5475 74.2602 83.5475Z" fill="#C22032"/>
<path d="M44.7953 47.1881C43.6394 47.1881 42.5241 46.8636 41.5102 46.2553C40.0907 45.3833 39.097 44.0044 38.7117 42.3618C37.9209 38.9956 40.0096 35.6293 43.3758 34.8182C44.9981 34.4329 46.6812 34.6965 48.1007 35.5888C49.5202 36.4608 50.5138 37.8397 50.8991 39.4823C51.2844 41.1045 51.0208 42.7877 50.1286 44.2072C49.2566 45.6266 47.8776 46.6203 46.2351 47.0056C45.7484 47.1273 45.2617 47.1881 44.7953 47.1881ZM44.8156 37.1502C44.5317 37.1502 44.2275 37.1908 43.9436 37.2516C41.9157 37.7383 40.6585 39.7662 41.1452 41.7737C41.3682 42.7471 41.9766 43.5785 42.8283 44.1058C43.68 44.633 44.6939 44.7952 45.6673 44.5722C46.6406 44.3491 47.4721 43.7407 47.9993 42.889C48.5265 42.0373 48.6888 41.0234 48.4657 40.0501C48.2427 39.0767 47.6343 38.2453 46.7826 37.718C46.1742 37.3327 45.505 37.1502 44.8156 37.1502Z" fill="#B48D05"/>
<path d="M49.8042 29.4444C48.4861 29.4444 47.4316 28.3899 47.4316 27.0718V2.39288C47.4316 1.07478 48.4861 0.0202942 49.8042 0.0202942C51.1223 0.0202942 52.1768 1.07478 52.1768 2.39288V27.0718C52.1768 28.3697 51.1021 29.4444 49.8042 29.4444Z" fill="#818181"/>
<path d="M84.541 63.2284C84.541 61.9103 85.5955 60.8559 86.9136 60.8559H111.593C112.911 60.8559 113.965 61.9103 113.965 63.2284C113.965 64.5465 112.911 65.601 111.593 65.601H86.9339C85.6158 65.601 84.541 64.5263 84.541 63.2284Z" fill="#818181"/>
<path d="M111.613 49.9663H108.571V29.5661C108.571 16.02 97.56 5.00879 84.0139 5.00879H63.046V2.37259C63.046 1.05448 61.9915 0 60.6734 0C59.3553 0 58.3008 1.05448 58.3008 2.37259V27.0515C58.3008 28.3696 59.3553 29.4241 60.6734 29.4241C61.9915 29.4241 63.046 28.3696 63.046 27.0515V9.06449H84.0139C95.3091 9.06449 104.516 18.2507 104.516 29.5661V49.9663H94.7818V33.926C94.7818 25.6726 88.0696 18.9401 79.8163 18.9401H63.0662V22.9958H79.8163C85.839 22.9958 90.7261 27.9032 90.7261 33.926V49.9663H86.934C85.6159 49.9663 84.5615 51.0207 84.5615 52.3388C84.5615 53.6569 85.6159 54.7114 86.934 54.7114H111.613C112.931 54.7114 113.986 53.6569 113.986 52.3388C113.986 51.0207 112.911 49.9663 111.613 49.9663Z" fill="#C22032"/>
<path d="M39.4823 113.884H24.7195C11.0923 113.884 0 102.792 0 89.1646V28.9374C0 15.3103 11.0923 4.21793 24.7195 4.21793H48.6076C49.7229 4.21793 50.6355 5.13046 50.6355 6.24578C50.6355 7.3611 49.7229 8.27363 48.6076 8.27363H24.7398C13.3433 8.27363 4.07598 17.5409 4.07598 28.9374V89.1646C4.07598 100.561 13.3433 109.828 24.7398 109.828H39.5025C40.6179 109.828 41.5304 110.741 41.5304 111.856C41.5304 112.972 40.5976 113.884 39.4823 113.884Z" fill="#818181"/>
<path d="M67.994 126.396C59.4162 126.396 52.4404 119.42 52.4404 110.842C52.4404 104.272 64.7292 85.2711 67.994 85.2711C71.2589 85.2711 83.5477 104.272 83.5477 110.842C83.5477 119.42 76.5719 126.396 67.994 126.396ZM67.994 90.3611C64.5467 94.579 56.4961 105.773 56.4961 110.863C56.4961 117.19 61.6469 122.361 67.994 122.361C74.3412 122.361 79.492 117.21 79.492 110.863C79.492 105.752 71.4414 94.579 67.994 90.3611Z" fill="#0EA2F4"/>
<path d="M68.4605 120.84C63.0867 120.84 58.7065 116.46 58.7065 111.086C58.7065 109.97 59.6191 109.058 60.7344 109.058C61.8497 109.058 62.7622 109.97 62.7622 111.086C62.7622 114.229 65.3173 116.784 68.4605 116.784C69.5758 116.784 70.4884 117.697 70.4884 118.812C70.4884 119.927 69.5758 120.84 68.4605 120.84Z" fill="#4FAFD9"/>
<path d="M84.1966 99.9123H81.8443C80.7289 99.9123 79.8164 98.9997 79.8164 97.8844C79.8164 96.7691 80.7289 95.8566 81.8443 95.8566H84.1966C87.7859 95.8566 90.706 92.9365 90.706 89.3472V63.2284C90.706 62.1131 91.6185 61.2006 92.7338 61.2006C93.8491 61.2006 94.7617 62.1131 94.7617 63.2284V89.3472C94.782 95.1671 90.0368 99.9123 84.1966 99.9123Z" fill="#818181"/>
<path d="M91.8008 114.148C90.6855 114.148 89.7729 113.235 89.7729 112.12C89.7729 111.005 90.6855 110.092 91.8008 110.092C99.385 110.092 105.529 103.927 105.529 96.3635V63.2284C105.529 62.1131 106.442 61.2006 107.557 61.2006C108.673 61.2006 109.585 62.1131 109.585 63.2284V96.3635C109.585 106.158 101.616 114.148 91.8008 114.148Z" fill="#818181"/>
<path d="M46.2148 98.0061H30.2961C22.3875 98.0061 15.9795 91.5778 15.9795 83.6894V34.3518C15.9795 26.4432 22.4078 20.0352 30.2961 20.0352H48.0195C49.1349 20.0352 50.0474 20.9477 50.0474 22.063C50.0474 23.1783 49.1349 24.0909 48.0195 24.0909H30.2961C24.6384 24.0909 20.0352 28.6941 20.0352 34.3518V83.6692C20.0352 89.3269 24.6384 93.9301 30.2961 93.9301H46.2148C47.3301 93.9301 48.2426 94.8426 48.2426 95.9579C48.2426 97.0733 47.3301 98.0061 46.2148 98.0061Z" fill="#818181"/>
</svg>
