<?xml version="1.0" encoding="utf-8"?>
<!-- Generator: Adobe Illustrator 26.0.1, SVG Export Plug-In . SVG Version: 6.00 Build 0)  -->
<svg version="1.1" id="Layer_1" xmlns="http://www.w3.org/2000/svg" xmlns:xlink="http://www.w3.org/1999/xlink" x="0px" y="0px"
	 viewBox="0 0 90 90" style="enable-background:new 0 0 90 90;" xml:space="preserve">
<style type="text/css">
	.st0{fill:#B48D05;}
	.st1{fill:#13191E;}
	.st2{fill:#C22032;}
	.st3{fill:#818181;}
</style>
<g>
	<g>
		<path class="st0" d="M33.82,27.78L33.82,27.78l-8.45-1.24c-1.99-0.29-3.78,1.25-3.78,3.26c0,2.08,1.9,3.65,3.96,3.23l8.35-1.72v0
			C33.23,30.22,33.22,28.87,33.82,27.78z"/>
	</g>
</g>
<g>
	<g>
		<path class="st0" d="M48.38,26.54l-8.45,1.24v0c0.6,1.08,0.59,2.43-0.08,3.53v0l8.35,1.72c2.06,0.42,3.96-1.15,3.96-3.23
			C52.16,27.79,50.37,26.25,48.38,26.54z"/>
	</g>
</g>
<g id="XMLID_176_">
	<g>
		<path class="st0" d="M38.62,39.95h-3.49c-0.48,0-0.87-0.39-0.87-0.87V32.5c0-0.48,0.39-0.87,0.87-0.87S36,32.02,36,32.5v5.71h1.75
			V32.5c0-0.48,0.39-0.87,0.87-0.87s0.87,0.39,0.87,0.87v6.58C39.49,39.56,39.1,39.95,38.62,39.95z"/>
	</g>
</g>
<g id="XMLID_180_">
	<g>
		<path class="st0" d="M36.87,33.84c-0.8,0-1.59-0.22-2.29-0.65c-0.99-0.61-1.68-1.57-1.95-2.71c-0.55-2.34,0.9-4.7,3.24-5.25l0,0
			c1.13-0.27,2.3-0.08,3.3,0.53c0.99,0.61,1.68,1.57,1.95,2.71c0.27,1.13,0.08,2.3-0.53,3.3c-0.61,0.99-1.57,1.68-2.71,1.95
			C37.54,33.8,37.2,33.84,36.87,33.84z M36.88,26.85c-0.2,0-0.41,0.02-0.61,0.07c0,0,0,0,0,0c-1.41,0.33-2.28,1.75-1.95,3.16
			c0.16,0.68,0.58,1.26,1.17,1.63c0.6,0.37,1.3,0.48,1.98,0.32c0.68-0.16,1.26-0.58,1.63-1.17c0.37-0.6,0.48-1.3,0.32-1.98
			c-0.16-0.68-0.58-1.26-1.17-1.63C37.84,26.98,37.36,26.85,36.88,26.85z M36.07,26.07L36.07,26.07L36.07,26.07z"/>
	</g>
</g>
<g>
	<path class="st1" d="M3.33,41.44c-0.06,0.08-0.11,0.17-0.17,0.25C3.22,41.6,3.27,41.52,3.33,41.44z"/>
</g>
<g id="XMLID_186_">
	<g>
		<path class="st2" d="M23.34,53.93h-4.37c-0.48,0-0.87-0.39-0.87-0.87V39.08c0-0.48,0.39-0.87,0.87-0.87h4.37
			c0.48,0,0.87,0.39,0.87,0.87v13.97C24.21,53.54,23.82,53.93,23.34,53.93z M19.84,52.19h2.63V39.95h-2.63V52.19z"/>
	</g>
</g>
<g id="XMLID_185_">
	<g>
		<path class="st2" d="M30.33,51.31h-6.99c-0.48,0-0.87-0.39-0.87-0.87V41.7c0-0.48,0.39-0.87,0.87-0.87h6.99
			c0.48,0,0.87,0.39,0.87,0.87c0,0.48-0.39,0.87-0.87,0.87h-6.12v6.99h6.12c0.48,0,0.87,0.39,0.87,0.87S30.81,51.31,30.33,51.31z"/>
	</g>
</g>
<g id="XMLID_183_">
	<g>
		<path class="st2" d="M41.69,53.93h-9.62c-1.44,0-2.61-1.17-2.61-2.61V40.82c0-1.44,1.17-2.61,2.61-2.61h9.62
			c1.44,0,2.61,1.17,2.61,2.61v10.49C44.3,52.75,43.13,53.93,41.69,53.93z M32.07,39.95c-0.48,0-0.87,0.39-0.87,0.87v10.49
			c0,0.48,0.39,0.87,0.87,0.87h9.62c0.48,0,0.87-0.39,0.87-0.87V40.82c0-0.48-0.39-0.87-0.87-0.87H32.07z"/>
	</g>
</g>
<g id="XMLID_181_">
	<g>
		<path class="st2" d="M57.4,54.8h-8.73c-0.48,0-0.87-0.39-0.87-0.87s0.39-0.87,0.87-0.87h8.73c0.48,0,0.87,0.39,0.87,0.87
			S57.88,54.8,57.4,54.8z"/>
	</g>
</g>
<g id="XMLID_184_">
	<g>
		<path class="st2" d="M57.4,59.17h-8.73c-0.48,0-0.87-0.39-0.87-0.87v-5.24c0-0.97-0.79-1.75-1.75-1.75h-2.62
			c-0.48,0-0.87-0.39-0.87-0.87s0.39-0.87,0.87-0.87h2.62c1.92,0,3.49,1.57,3.49,3.49v4.37h6.99v-5.24c0-5.3-4.31-9.61-9.61-9.61
			h-3.49c-0.48,0-0.87-0.39-0.87-0.87c0-0.48,0.39-0.87,0.87-0.87h3.49c6.26,0,11.35,5.09,11.35,11.35v6.11
			C58.27,58.78,57.88,59.17,57.4,59.17z"/>
	</g>
</g>
<g>
	<path class="st3" d="M85.05,45.01c0,0.9-0.73,1.65-1.65,1.65H82v21.41c0,6.84-5.56,12.4-12.4,12.4c-0.78,0-1.41-0.64-1.41-1.41
		c0-0.79,0.64-1.41,1.41-1.41c5.28,0,9.58-4.29,9.58-9.58V46.67h-7.5v16.52c0,4.07-3.3,7.37-7.36,7.37h-1.64
		c-0.79,0-1.41-0.64-1.41-1.41c0-0.79,0.62-1.41,1.41-1.41h1.64c2.5,0,4.53-2.05,4.53-4.55V46.67h-2.64c-0.92,0-1.65-0.75-1.65-1.65
		c0-0.92,0.73-1.65,1.65-1.65H83.4C84.32,43.36,85.05,44.1,85.05,45.01z"/>
</g>
<path class="st2" d="M83.4,35.78h-2.12V21.57c0-9.43-7.67-17.1-17.1-17.1h-14.6V2.64c0-0.91-0.74-1.65-1.65-1.65
	c-0.91,0-1.65,0.74-1.65,1.65v17.19c0,0.91,0.74,1.65,1.65,1.65c0.91,0,1.65-0.74,1.65-1.65V7.3h14.6c7.87,0,14.27,6.4,14.27,14.27
	v14.21h-6.78V24.61c0-5.75-4.68-10.43-10.43-10.43H49.58V17h11.67c4.19,0,7.6,3.41,7.6,7.61v11.17h-2.64
	c-0.91,0-1.65,0.74-1.65,1.65c0,0.91,0.74,1.65,1.65,1.65H83.4c0.91,0,1.65-0.74,1.65-1.65C85.06,36.52,84.32,35.78,83.4,35.78z"/>
<g>
	<path class="st3" d="M42.01,2.64v17.19c0,0.9-0.73,1.65-1.65,1.65c-0.9,0-1.65-0.75-1.65-1.65v-2.08H26.78
		c-3.95,0-7.16,3.21-7.16,7.15v34.35c0,3.94,3.21,7.16,7.16,7.16h11.09c0.78,0,1.41,0.62,1.41,1.41c0,0.78-0.64,1.41-1.41,1.41
		H26.78c-5.51,0-9.99-4.48-9.99-9.99V24.9c0-5.49,4.48-9.97,9.99-9.97H38.7V6.73H22.9c-7.94,0-14.39,6.45-14.39,14.39v41.95
		c0,7.94,6.45,14.41,14.39,14.41h10.28c0.78,0,1.41,0.62,1.41,1.41c0,0.78-0.64,1.41-1.41,1.41H22.9c-9.49,0-17.22-7.73-17.22-17.23
		V21.12c0-9.49,7.73-17.22,17.22-17.22h15.8V2.64c0-0.92,0.75-1.65,1.65-1.65C41.27,0.99,42.01,1.73,42.01,2.64z"/>
</g>
<g>
	<path class="st2" d="M53.03,89.01c-5.97,0-10.83-4.86-10.83-10.83c0-4.58,8.56-17.81,10.83-17.81c2.26,0,10.83,13.23,10.83,17.81
		C63.86,84.16,59,89.01,53.03,89.01z M53.03,63.91c-2.39,2.94-8,10.73-8,14.28c0,4.41,3.59,8,8,8s8-3.59,8-8
		C61.03,74.64,55.43,66.84,53.03,63.91z"/>
</g>
<g>
	<path class="st2" d="M53.35,85.14c-3.75,0-6.8-3.05-6.8-6.8c0-0.78,0.63-1.41,1.41-1.41s1.41,0.63,1.41,1.41
		c0,2.19,1.78,3.97,3.97,3.97c0.78,0,1.41,0.63,1.41,1.41C54.77,84.51,54.13,85.14,53.35,85.14z"/>
</g>
</svg>
