<svg width="154" height="145" viewBox="0 0 154 145" fill="none" xmlns="http://www.w3.org/2000/svg">
<path d="M58.652 96.8469C56.7063 96.8469 55.6328 97.7403 54.9226 98.331C54.4492 98.7245 54.3641 98.7956 53.9677 98.7956C53.5712 98.7956 53.4858 98.7245 53.0124 98.331C52.3022 97.7399 51.2288 96.8469 49.2833 96.8469C47.3378 96.8469 46.2647 97.7403 45.5545 98.331C45.0811 98.7245 44.996 98.7956 44.5995 98.7956C44.2034 98.7956 44.1183 98.7245 43.6449 98.331C42.935 97.7399 41.8615 96.8469 39.9161 96.8469C37.9706 96.8469 36.8977 97.7403 36.1876 98.3313C35.7151 98.7245 35.6299 98.7956 35.2344 98.7956C34.838 98.7956 34.7532 98.7245 34.28 98.331C33.5699 97.7399 32.4967 96.8469 30.5512 96.8469C29.2997 96.8469 28.2852 97.9375 28.2852 99.2828C28.2852 100.628 29.2997 101.719 30.5512 101.719C30.9474 101.719 31.0325 101.79 31.5053 102.183C32.2155 102.774 33.2887 103.667 35.2344 103.667C37.1799 103.667 38.2527 102.774 38.9629 102.183C39.4354 101.79 39.5205 101.719 39.9161 101.719C40.3125 101.719 40.3973 101.79 40.8704 102.183C41.5806 102.774 42.6541 103.667 44.5995 103.667C46.5453 103.667 47.6185 102.774 48.3286 102.183C48.802 101.79 48.8869 101.719 49.2833 101.719C49.6797 101.719 49.7649 101.79 50.2383 102.183C50.9484 102.774 52.0219 103.667 53.9677 103.667C55.9131 103.667 56.9866 102.774 57.6968 102.183C58.1702 101.79 58.2553 101.719 58.652 101.719C59.9036 101.719 60.9181 100.628 60.9181 99.2828C60.9181 97.9375 59.9036 96.8469 58.652 96.8469Z" fill="#32F4E9"/>
<path d="M90.0807 90.0901C88.135 90.0901 87.0615 90.9834 86.3514 91.5741C85.8779 91.9676 85.7928 92.0387 85.3964 92.0387C84.9999 92.0387 84.9145 91.9676 84.4411 91.5741C83.731 90.9831 82.6575 90.0901 80.712 90.0901C78.7666 90.0901 77.6934 90.9834 76.9832 91.5741C76.5098 91.9676 76.4247 92.0387 76.0282 92.0387C75.6321 92.0387 75.547 91.9676 75.0736 91.5741C74.3637 90.9831 73.2902 90.0901 71.3448 90.0901C69.3993 90.0901 68.3264 90.9834 67.6163 91.5745C67.1438 91.9676 67.0586 92.0387 66.6631 92.0387C66.2667 92.0387 66.1819 91.9676 65.7087 91.5741C64.9986 90.9831 63.9254 90.0901 61.98 90.0901C60.7284 90.0901 59.7139 91.1807 59.7139 92.526C59.7139 93.8717 60.7284 94.9619 61.98 94.9619C62.3761 94.9619 62.4612 95.033 62.934 95.4262C63.6442 96.0175 64.7174 96.9106 66.6631 96.9106C68.6086 96.9106 69.6815 96.0172 70.3916 95.4262C70.8641 95.033 70.9493 94.9619 71.3448 94.9619C71.7412 94.9619 71.826 95.033 72.2992 95.4265C73.0093 96.0175 74.0828 96.9106 76.0282 96.9106C77.974 96.9106 79.0472 96.0172 79.7573 95.4265C80.2308 95.033 80.3156 94.9619 80.712 94.9619C81.1084 94.9619 81.1936 95.033 81.667 95.4265C82.3771 96.0175 83.4506 96.9106 85.3964 96.9106C87.3418 96.9106 88.4153 96.0172 89.1255 95.4265C89.5989 95.033 89.684 94.9619 90.0807 94.9619C91.3323 94.9619 92.3468 93.8713 92.3468 92.526C92.3468 91.1807 91.3323 90.0901 90.0807 90.0901Z" fill="#32F4E9"/>
<path d="M125.701 96.8469C123.755 96.8469 122.682 97.7403 121.971 98.331C121.498 98.7245 121.413 98.7956 121.016 98.7956C120.62 98.7956 120.535 98.7245 120.061 98.331C119.351 97.7399 118.278 96.8469 116.332 96.8469C114.387 96.8469 113.313 97.7403 112.603 98.331C112.13 98.7245 112.045 98.7956 111.648 98.7956C111.252 98.7956 111.167 98.7245 110.694 98.331C109.984 97.7399 108.91 96.8469 106.965 96.8469C105.019 96.8469 103.947 97.7403 103.236 98.3313C102.764 98.7245 102.679 98.7956 102.283 98.7956C101.887 98.7956 101.802 98.7245 101.329 98.331C100.619 97.7399 99.5455 96.8469 97.6001 96.8469C96.3485 96.8469 95.334 97.9375 95.334 99.2828C95.334 100.628 96.3485 101.719 97.6001 101.719C97.9962 101.719 98.0813 101.79 98.5541 102.183C99.2643 102.774 100.337 103.667 102.283 103.667C104.229 103.667 105.302 102.774 106.012 102.183C106.484 101.79 106.569 101.719 106.965 101.719C107.361 101.719 107.446 101.79 107.919 102.183C108.629 102.774 109.703 103.667 111.648 103.667C113.594 103.667 114.667 102.774 115.377 102.183C115.851 101.79 115.936 101.719 116.332 101.719C116.729 101.719 116.814 101.79 117.287 102.183C117.997 102.774 119.071 103.667 121.016 103.667C122.962 103.667 124.035 102.774 124.746 102.183C125.219 101.79 125.304 101.719 125.701 101.719C126.952 101.719 127.967 100.628 127.967 99.2828C127.967 97.9375 126.952 96.8469 125.701 96.8469Z" fill="#32F4E9"/>
<path d="M66.6765 109.341C65.9664 108.75 64.8932 107.857 62.9477 107.857C61.6962 107.857 60.6816 108.947 60.6816 110.293C60.6816 111.638 61.6962 112.729 62.9477 112.729C63.3439 112.729 63.429 112.8 63.9018 113.193C64.612 113.784 65.6851 114.677 67.6309 114.677C69.5763 114.677 70.6492 113.784 71.3594 113.193C71.8319 112.8 71.917 112.729 72.3126 112.729C72.709 112.729 72.7938 112.8 73.2669 113.193C73.9771 113.784 75.0506 114.677 76.996 114.677C78.9418 114.677 80.015 113.784 80.7251 113.193C81.1982 112.8 81.2834 112.729 81.6798 112.729C82.0762 112.729 82.1613 112.8 82.6348 113.193C83.3449 113.784 84.4184 114.677 86.3642 114.677C88.3096 114.677 89.3831 113.784 90.0932 113.193C90.5664 112.8 90.6518 112.729 91.0485 112.729C92.3001 112.729 93.3146 111.638 93.3146 110.293C93.3146 108.947 92.3001 107.857 91.0485 107.857C89.1028 107.857 88.0293 108.75 87.3191 109.341C86.846 109.734 86.7606 109.806 86.3642 109.806C85.9677 109.806 85.8823 109.734 85.4089 109.341C84.6987 108.75 83.6252 107.857 81.6798 107.857C79.7343 107.857 78.6611 108.75 77.951 109.341C77.4779 109.734 77.3924 109.806 76.996 109.806C76.5996 109.806 76.5148 109.734 76.0413 109.341C75.3315 108.75 74.258 107.857 72.3126 107.857C70.3671 107.857 69.2942 108.75 68.5841 109.341C68.1115 109.734 68.0264 109.806 67.6309 109.806C67.2345 109.806 67.1493 109.734 66.6765 109.341Z" fill="#32F4E9"/>
<path d="M100.648 84.165C101.358 84.7563 102.431 85.6493 104.377 85.6493C106.322 85.6493 107.395 84.756 108.105 84.165C108.578 83.7718 108.663 83.7007 109.059 83.7007C109.455 83.7007 109.54 83.7718 110.013 84.1653C110.723 84.7563 111.797 85.6493 113.742 85.6493C115.688 85.6493 116.761 84.756 117.471 84.1653C117.945 83.7718 118.029 83.7007 118.426 83.7007C118.822 83.7007 118.907 83.7718 119.381 84.1653C120.091 84.7563 121.164 85.6493 123.11 85.6493C125.056 85.6493 126.129 84.756 126.839 84.1653C127.313 83.7718 127.398 83.7007 127.795 83.7007C129.046 83.7007 130.061 82.6101 130.061 81.2648C130.061 79.9194 129.046 78.8289 127.795 78.8289C125.849 78.8289 124.775 79.7222 124.065 80.3129C123.592 80.7064 123.507 80.7775 123.11 80.7775C122.714 80.7775 122.628 80.7064 122.155 80.3129C121.445 79.7219 120.371 78.8289 118.426 78.8289C116.48 78.8289 115.407 79.7222 114.697 80.3129C114.224 80.7064 114.139 80.7775 113.742 80.7775C113.346 80.7775 113.261 80.7064 112.787 80.3129C112.078 79.7219 111.004 78.8289 109.059 78.8289C107.113 78.8289 106.04 79.7222 105.33 80.3132C104.858 80.7064 104.773 80.7775 104.377 80.7775C103.981 80.7775 103.896 80.7064 103.423 80.3129C102.712 79.7219 101.639 78.8289 99.6938 78.8289C98.4423 78.8289 97.4277 79.9194 97.4277 81.2648C97.4277 82.6101 98.4423 83.7007 99.6938 83.7007C100.09 83.7003 100.175 83.7715 100.648 84.165Z" fill="#32F4E9"/>
<path d="M66.0776 77.4082C66.7877 77.9996 67.8609 78.8926 69.8067 78.8926C71.7521 78.8926 72.825 77.9993 73.5352 77.4082C74.0077 77.0151 74.0928 76.944 74.4883 76.944C74.8848 76.944 74.9696 77.0151 75.4427 77.4086C76.1529 77.9996 77.2263 78.8926 79.1718 78.8926C81.1176 78.8926 82.1907 77.9993 82.9009 77.4086C83.3743 77.0151 83.4591 76.944 83.8556 76.944C84.252 76.944 84.3371 77.0151 84.8105 77.4086C85.5207 77.9996 86.5942 78.8926 88.5399 78.8926C90.4854 78.8926 91.5589 77.9993 92.269 77.4086C92.7424 77.0151 92.8276 76.944 93.2243 76.944C94.4759 76.944 95.4904 75.8534 95.4904 74.508C95.4904 73.1627 94.4759 72.0721 93.2243 72.0721C91.2785 72.0721 90.2051 72.9655 89.4949 73.5562C89.0215 73.9497 88.9364 74.0208 88.5399 74.0208C88.1435 74.0208 88.0581 73.9497 87.5847 73.5562C86.8745 72.9652 85.801 72.0721 83.8556 72.0721C81.9101 72.0721 80.8369 72.9655 80.1268 73.5562C79.6536 73.9497 79.5682 74.0208 79.1718 74.0208C78.7757 74.0208 78.6905 73.9497 78.2171 73.5562C77.5073 72.9652 76.4338 72.0721 74.4883 72.0721C72.5429 72.0721 71.47 72.9655 70.7599 73.5565C70.2873 73.9497 70.2022 74.0208 69.8067 74.0208C69.4105 74.0208 69.3254 73.9497 68.8523 73.5562C68.1421 72.9652 67.069 72.0721 65.1235 72.0721C63.872 72.0721 62.8574 73.1627 62.8574 74.508C62.8574 75.8534 63.872 76.944 65.1235 76.944C65.5196 76.9436 65.6048 77.0148 66.0776 77.4082Z" fill="#32F4E9"/>
<path d="M31.5053 84.165C32.2155 84.7563 33.2887 85.6493 35.2344 85.6493C37.1799 85.6493 38.2527 84.756 38.9629 84.165C39.4354 83.7718 39.5205 83.7007 39.9161 83.7007C40.3125 83.7007 40.3973 83.7718 40.8704 84.1653C41.5806 84.7563 42.6541 85.6493 44.5995 85.6493C46.5453 85.6493 47.6185 84.756 48.3286 84.1653C48.802 83.7718 48.8869 83.7007 49.2833 83.7007C49.6797 83.7007 49.7648 83.7718 50.2383 84.1653C50.9484 84.7563 52.0219 85.6493 53.9677 85.6493C55.9131 85.6493 56.9866 84.756 57.6967 84.1653C58.1702 83.7718 58.2553 83.7007 58.652 83.7007C59.9036 83.7007 60.9181 82.6101 60.9181 81.2648C60.9181 79.9194 59.9036 78.8289 58.652 78.8289C56.7063 78.8289 55.6328 79.7222 54.9226 80.3129C54.4492 80.7064 54.3641 80.7775 53.9677 80.7775C53.5712 80.7775 53.4858 80.7064 53.0124 80.3129C52.3022 79.7219 51.2288 78.8289 49.2833 78.8289C47.3378 78.8289 46.2647 79.7222 45.5545 80.3129C45.0814 80.7064 44.996 80.7775 44.5995 80.7775C44.2034 80.7775 44.1183 80.7064 43.6449 80.3129C42.935 79.7219 41.8615 78.8289 39.9161 78.8289C37.9706 78.8289 36.8977 79.7222 36.1876 80.3132C35.7151 80.7064 35.6299 80.7775 35.2344 80.7775C34.8383 80.7775 34.7532 80.7064 34.28 80.3129C33.5699 79.7219 32.4967 78.8289 30.5512 78.8289C29.2997 78.8289 28.2852 79.9194 28.2852 81.2648C28.2852 82.6101 29.2997 83.7007 30.5512 83.7007C30.9474 83.7003 31.0325 83.7715 31.5053 84.165Z" fill="#32F4E9"/>
<path d="M130.973 55.7426C129.907 55.0368 128.511 55.3927 127.855 56.5383C127.198 57.6835 127.53 59.1843 128.595 59.8898C142.055 68.8067 149.468 80.5449 149.468 92.9433C149.468 105.321 142.076 117.046 128.654 125.958C114.892 135.095 96.5472 140.128 77 140.128C57.4528 140.128 39.1085 135.095 25.3462 125.958C11.9242 117.046 4.53247 105.322 4.53247 92.9436C4.53247 80.5656 11.9242 68.841 25.3462 59.9289C32.4254 55.2288 40.7195 51.6186 49.764 49.2173V56.4885C43.1173 58.3721 36.9829 60.9545 31.6214 64.1803C19.0485 71.745 12.1242 81.9601 12.1242 92.9433C12.1242 95.3055 12.4526 97.6712 13.1002 99.9755C13.4627 101.263 14.7262 101.99 15.9252 101.603C17.1232 101.214 17.8008 99.8543 17.439 98.5662C16.9195 96.7194 16.6564 94.8276 16.6564 92.9433C16.6564 83.802 22.7574 75.0969 33.8349 68.4313C38.5608 65.5877 43.9366 63.2711 49.764 61.5271V66.5147C49.764 67.86 50.7785 68.9506 52.03 68.9506H61.979C63.2305 68.9506 64.2451 67.86 64.2451 66.5147V63.2291H89.7546V66.5147C89.7546 67.86 90.7691 68.9506 92.0207 68.9506H101.97C103.221 68.9506 104.236 67.86 104.236 66.5147V61.5307C110.062 63.2743 115.44 65.5884 120.165 68.4317C131.243 75.0969 137.344 83.802 137.344 92.9436C137.344 102.085 131.243 110.79 120.165 117.456C108.672 124.37 93.3426 128.179 77 128.179C55.4996 128.179 35.4218 121.326 24.6018 110.296C23.6934 109.371 22.2596 109.41 21.3979 110.387C20.5367 111.364 20.5749 112.905 21.4827 113.831C27.1657 119.624 35.223 124.461 44.7842 127.818C54.5331 131.241 65.6732 133.051 76.9997 133.051C94.1045 133.051 110.22 129.022 122.379 121.707C134.952 114.142 141.876 103.927 141.876 92.944C141.876 81.9607 134.952 71.7457 122.379 64.1809C117.016 60.9545 110.883 58.3696 104.236 56.4859V49.237C108.396 50.3425 112.412 51.7011 116.226 53.3118C117.391 53.8043 118.706 53.1874 119.164 51.9351C119.621 50.6832 119.048 49.2694 117.883 48.7773C113.553 46.9486 108.979 45.4328 104.236 44.2297V6.60546C104.236 2.96324 101.479 0 98.0908 0H95.8996C92.5113 0 89.7543 2.96324 89.7543 6.60546V17.8861H64.2448V6.60546C64.2448 2.96324 61.4881 0 58.0998 0H55.9086C52.5203 0 49.7634 2.96324 49.7634 6.60546V44.2087C39.8367 46.7277 30.7206 50.6338 22.964 55.784C8.15568 65.6168 0 78.8135 0 92.9436C0 107.074 8.15568 120.27 22.9643 130.103C37.4328 139.71 56.6227 145 77 145C97.3773 145 116.567 139.71 131.036 130.103C145.844 120.27 154 107.074 154 92.9436C154 78.7912 145.822 65.5793 130.973 55.7426ZM94.2868 6.60546C94.2868 5.64972 95.0102 4.87213 95.8996 4.87213H98.0908C98.9799 4.87213 99.7033 5.64972 99.7033 6.60546V64.0788H94.2865L94.2868 6.60546ZM64.2451 22.7583H89.7546V26.0132H64.2451V22.7583ZM64.2451 30.8853H89.7546V34.0584H64.2451V30.8853ZM64.2451 38.9302H89.7546V42.1851H64.2451V38.9302ZM64.2451 47.0572H89.7546V50.2303H64.2451V47.0572ZM64.2451 55.1024H89.7546V58.3573H64.2451V55.1024ZM54.2961 6.60546C54.2961 5.64972 55.0198 4.87213 55.9089 4.87213H58.1001C58.9892 4.87213 59.7126 5.64972 59.7126 6.60546V64.0788H54.2958L54.2961 6.60546Z" fill="#21263D"/>
</svg>
