<?xml version="1.0" encoding="utf-8"?>
<!-- Generator: Adobe Illustrator 26.0.1, SVG Export Plug-In . SVG Version: 6.00 Build 0)  -->
<svg version="1.1" id="Layer_1" xmlns="http://www.w3.org/2000/svg" xmlns:xlink="http://www.w3.org/1999/xlink" x="0px" y="0px"
	 viewBox="0 0 90 90" style="enable-background:new 0 0 90 90;" xml:space="preserve">
<style type="text/css">
	.st0{fill:#70CBD0;}
	.st1{fill:#010101;}
</style>
<g>
	<path class="st0" d="M38.85,51.29c-1.1,0-1.71,0.47-2.11,0.78c-0.27,0.21-0.32,0.24-0.54,0.24s-0.27-0.04-0.54-0.24
		c-0.4-0.31-1.01-0.78-2.11-0.78s-1.71,0.47-2.11,0.78c-0.27,0.21-0.32,0.24-0.54,0.24c-0.22,0-0.27-0.04-0.54-0.24
		c-0.4-0.31-1.01-0.78-2.11-0.78s-1.71,0.47-2.11,0.78c-0.27,0.21-0.32,0.24-0.54,0.24c-0.22,0-0.27-0.04-0.54-0.24
		c-0.4-0.31-1.01-0.78-2.11-0.78c-0.71,0-1.28,0.57-1.28,1.28c0,0.71,0.57,1.28,1.28,1.28c0.22,0,0.27,0.04,0.54,0.24
		c0.4,0.31,1.01,0.78,2.11,0.78c1.1,0,1.71-0.47,2.11-0.78c0.27-0.21,0.32-0.24,0.54-0.24c0.22,0,0.27,0.04,0.54,0.24
		c0.4,0.31,1.01,0.78,2.11,0.78c1.1,0,1.71-0.47,2.11-0.78c0.27-0.21,0.32-0.24,0.54-0.24c0.22,0,0.27,0.04,0.54,0.24
		c0.4,0.31,1.01,0.78,2.11,0.78c1.1,0,1.71-0.47,2.11-0.78c0.27-0.21,0.32-0.24,0.54-0.24c0.71,0,1.28-0.57,1.28-1.28
		S39.56,51.29,38.85,51.29L38.85,51.29z"/>
	<path class="st0" d="M39.17,64.37c-0.4-0.31-1.01-0.78-2.11-0.78c-0.71,0-1.28,0.57-1.28,1.28c0,0.71,0.57,1.28,1.28,1.28
		c0.22,0,0.27,0.04,0.54,0.24c0.4,0.31,1.01,0.78,2.11,0.78c1.1,0,1.71-0.47,2.11-0.78c0.27-0.21,0.32-0.24,0.54-0.24
		c0.22,0,0.27,0.04,0.54,0.24c0.4,0.31,1.01,0.78,2.11,0.78c1.1,0,1.71-0.47,2.11-0.78c0.27-0.21,0.32-0.24,0.54-0.24
		s0.27,0.04,0.54,0.24c0.4,0.31,1.01,0.78,2.11,0.78c1.1,0,1.71-0.47,2.11-0.78c0.27-0.21,0.32-0.24,0.54-0.24
		c0.71,0,1.28-0.57,1.28-1.28c0-0.71-0.57-1.28-1.28-1.28c-1.1,0-1.71,0.47-2.11,0.78c-0.27,0.21-0.32,0.24-0.54,0.24
		c-0.22,0-0.27-0.04-0.54-0.24c-0.4-0.31-1.01-0.78-2.11-0.78c-1.1,0-1.71,0.47-2.11,0.78c-0.27,0.21-0.32,0.24-0.54,0.24
		c-0.22,0-0.27-0.04-0.54-0.24c-0.4-0.31-1.01-0.78-2.11-0.78s-1.71,0.47-2.11,0.78c-0.27,0.21-0.32,0.24-0.54,0.24
		C39.48,64.62,39.43,64.58,39.17,64.37z"/>
	<path class="st0" d="M57.41,56.76c0.4,0.31,1.01,0.78,2.11,0.78c1.1,0,1.71-0.47,2.11-0.78c0.27-0.21,0.32-0.24,0.54-0.24
		c0.22,0,0.27,0.04,0.54,0.24c0.4,0.31,1.01,0.78,2.11,0.78c1.1,0,1.71-0.47,2.11-0.78c0.27-0.21,0.32-0.24,0.54-0.24
		s0.27,0.04,0.54,0.24c0.4,0.31,1.01,0.78,2.11,0.78c1.1,0,1.71-0.47,2.11-0.78c0.27-0.21,0.32-0.24,0.54-0.24
		c0.71,0,1.28-0.57,1.28-1.28c0-0.71-0.57-1.28-1.28-1.28c-1.1,0-1.71,0.47-2.11,0.78c-0.27,0.21-0.32,0.24-0.54,0.24
		s-0.27-0.04-0.54-0.24c-0.4-0.31-1.01-0.78-2.11-0.78s-1.71,0.47-2.11,0.78c-0.27,0.21-0.32,0.24-0.54,0.24
		c-0.22,0-0.27-0.04-0.54-0.24c-0.4-0.31-1.01-0.78-2.11-0.78s-1.71,0.47-2.11,0.78c-0.27,0.21-0.32,0.24-0.54,0.24
		c-0.22,0-0.27-0.04-0.54-0.24c-0.4-0.31-1.01-0.78-2.11-0.78c-0.71,0-1.28,0.57-1.28,1.28c0,0.71,0.57,1.28,1.28,1.28
		C57.09,56.52,57.14,56.56,57.41,56.76L57.41,56.76z"/>
	<path class="st1" d="M75.51,36.19c-0.6-0.37-1.39-0.18-1.76,0.42c-0.37,0.6-0.18,1.39,0.42,1.76c7.61,4.69,11.8,10.86,11.8,17.38
		c0,6.51-4.18,12.67-11.76,17.36c-7.78,4.8-18.15,7.45-29.2,7.45s-21.42-2.65-29.2-7.45C8.22,68.42,4.04,62.26,4.04,55.75
		S8.22,43.08,15.8,38.39c4-2.47,8.69-4.37,13.8-5.63v3.82c-3.76,0.99-7.22,2.35-10.25,4.04C12.24,44.6,8.33,49.97,8.33,55.75
		c0,1.24,0.19,2.49,0.55,3.7c0.2,0.68,0.92,1.06,1.6,0.86c0.68-0.2,1.06-0.92,0.86-1.6c-0.29-0.97-0.44-1.97-0.44-2.96
		c0-4.81,3.45-9.38,9.71-12.89c2.67-1.5,5.71-2.71,9-3.63v2.62c0,0.71,0.57,1.28,1.28,1.28h5.62c0.71,0,1.28-0.57,1.28-1.28v-1.73
		h14.42v1.73c0,0.71,0.57,1.28,1.28,1.28h5.62c0.71,0,1.28-0.57,1.28-1.28v-2.62c3.29,0.92,6.33,2.13,9,3.63
		c6.26,3.5,9.71,8.08,9.71,12.89c0,4.81-3.45,9.38-9.71,12.89c-6.5,3.64-15.16,5.64-24.4,5.64c-12.15,0-23.5-3.6-29.62-9.4
		c-0.51-0.49-1.32-0.47-1.81,0.05c-0.49,0.51-0.47,1.32,0.05,1.81c3.21,3.05,7.77,5.59,13.17,7.36c5.51,1.8,11.81,2.75,18.21,2.75
		c9.67,0,18.78-2.12,25.65-5.96c7.11-3.98,11.02-9.35,11.02-15.12S77.76,44.6,70.65,40.63c-3.03-1.7-6.5-3.06-10.26-4.05v-3.81
		c2.35,0.58,4.62,1.3,6.78,2.14c0.66,0.26,1.4-0.07,1.66-0.72c0.26-0.66-0.07-1.4-0.72-1.66c-2.45-0.96-5.03-1.76-7.71-2.39V10.35
		c0-1.92-1.56-3.47-3.47-3.47h-1.24c-1.92,0-3.47,1.56-3.47,3.47v5.93H37.79v-5.93c0-1.92-1.56-3.47-3.47-3.47h-1.24
		c-1.92,0-3.47,1.56-3.47,3.47v19.77c-5.61,1.32-10.76,3.38-15.15,6.09C6.09,41.38,1.48,48.32,1.48,55.75s4.61,14.37,12.98,19.54
		c8.18,5.05,19.03,7.83,30.54,7.83s22.37-2.78,30.54-7.83c8.37-5.17,12.98-12.11,12.98-19.54C88.52,48.31,83.9,41.36,75.51,36.19
		L75.51,36.19z M54.77,10.35c0-0.5,0.41-0.91,0.91-0.91h1.24c0.5,0,0.91,0.41,0.91,0.91v30.22h-3.06L54.77,10.35L54.77,10.35z
		 M37.79,18.84h14.42v1.71H37.79V18.84z M37.79,23.12h14.42v1.67H37.79V23.12z M37.79,27.35h14.42v1.71H37.79V27.35z M37.79,31.62
		h14.42v1.67H37.79V31.62z M37.79,35.85h14.42v1.71H37.79V35.85z M32.17,10.35c0-0.5,0.41-0.91,0.91-0.91h1.24
		c0.5,0,0.91,0.41,0.91,0.91v30.22h-3.06L32.17,10.35L32.17,10.35z"/>
</g>
</svg>
