<?xml version="1.0" encoding="utf-8"?>
<!-- Generator: Adobe Illustrator 26.0.1, SVG Export Plug-In . SVG Version: 6.00 Build 0)  -->
<svg version="1.1" id="Layer_1" xmlns="http://www.w3.org/2000/svg" xmlns:xlink="http://www.w3.org/1999/xlink" x="0px" y="0px"
	 viewBox="0 0 90 90" style="enable-background:new 0 0 90 90;" xml:space="preserve">
<style type="text/css">
	.st0{clip-path:url(#SVGID_00000067931706693888722150000018229310578149661866_);}
	.st1{fill:#010101;}
</style>
<g>
	<g>
		<defs>
			<rect id="SVGID_1_" x="2.65" y="2.65" width="84.69" height="84.69"/>
		</defs>
		<clipPath id="SVGID_00000144307355084760427980000008457453326018529463_">
			<use xlink:href="#SVGID_1_"  style="overflow:visible;"/>
		</clipPath>
		<g style="clip-path:url(#SVGID_00000144307355084760427980000008457453326018529463_);">
			<path class="st1" d="M74.64,25.24h-2.82v-7.06c0-1.12-0.45-2.2-1.24-2.99c-0.79-0.79-1.87-1.24-2.99-1.24h-4.25
				c0-0.18-0.03-0.37-0.1-0.54c-0.07-0.17-0.17-0.33-0.3-0.46l-9.88-9.88c-0.13-0.13-0.29-0.23-0.46-0.3
				c-0.17-0.07-0.35-0.1-0.54-0.1V2.65H29.47c-0.75,0-1.47,0.3-2,0.83c-0.53,0.53-0.83,1.25-0.83,2v8.47h-4.23
				c-1.12,0-2.2,0.45-2.99,1.24c-0.79,0.79-1.24,1.87-1.24,2.99v7.06h-2.82c-3.37,0-6.6,1.34-8.98,3.73s-3.72,5.61-3.72,8.98v24
				c0,1.5,0.59,2.93,1.65,3.99s2.49,1.65,3.99,1.65h14.33l-2.88,17.3c-0.05,0.3-0.03,0.61,0.05,0.91c0.08,0.3,0.23,0.57,0.43,0.8
				c0.2,0.23,0.45,0.42,0.72,0.55c0.28,0.13,0.58,0.2,0.89,0.2h46.32c0.31,0,0.61-0.07,0.89-0.2c0.28-0.13,0.53-0.32,0.72-0.55
				c0.2-0.23,0.34-0.51,0.43-0.8c0.08-0.3,0.1-0.61,0.05-0.91l-2.88-17.3H81.7c1.5,0,2.93-0.59,3.99-1.65
				c1.06-1.06,1.65-2.49,1.65-3.99v-24c0-3.37-1.34-6.6-3.73-8.98C81.24,26.58,78.01,25.24,74.64,25.24z M67.58,16.77
				c0.37,0,0.73,0.15,1,0.41c0.26,0.26,0.41,0.62,0.41,1v7.06h-5.65v-8.47H67.58z M53.47,7.47l5.06,5.06H53.7
				c-0.06,0-0.12-0.02-0.17-0.07c-0.04-0.04-0.07-0.1-0.07-0.17V7.47z M50.65,5.48v6.82c0,0.81,0.32,1.59,0.9,2.16
				c0.57,0.57,1.35,0.9,2.16,0.9h6.82v9.88H29.47V5.48H50.65z M21,18.18c0-0.37,0.15-0.73,0.41-1c0.26-0.26,0.62-0.41,1-0.41h4.23
				v8.47H21V18.18z M22.68,84.52l4.47-26.82h35.71l4.47,26.82H22.68z M65.64,57.24c-0.11-0.66-0.45-1.26-0.96-1.69
				c-0.51-0.43-1.16-0.67-1.83-0.67H27.15c-0.67,0-1.32,0.23-1.83,0.67c-0.51,0.43-0.85,1.03-0.96,1.69l-1.26,7.52H21v-9.88
				c0-0.75,0.3-1.47,0.83-2c0.53-0.53,1.25-0.83,2-0.83h42.35c0.75,0,1.47,0.3,2,0.83c0.53,0.53,0.83,1.25,0.83,2v9.88h-2.1
				L65.64,57.24z M81.7,64.76h-9.88v-9.88c0-1.5-0.59-2.93-1.65-3.99c-1.06-1.06-2.49-1.65-3.99-1.65H23.83
				c-1.5,0-2.93,0.59-3.99,1.65c-1.06,1.06-1.65,2.49-1.65,3.99v9.88H8.3c-0.75,0-1.47-0.3-2-0.83c-0.53-0.53-0.83-1.25-0.83-2
				V42.18h79.05v19.76c0,0.75-0.3,1.47-0.83,2C83.17,64.46,82.45,64.76,81.7,64.76z M84.52,39.35H5.48v-1.41
				c0-2.62,1.05-5.13,2.9-6.98c1.85-1.85,4.36-2.89,6.98-2.9h59.28c2.62,0,5.13,1.05,6.98,2.9c1.85,1.85,2.89,4.36,2.9,6.98V39.35z"
				/>
			<path class="st1" d="M63.35,32.3h-4.23c-0.37,0-0.73,0.15-1,0.41c-0.26,0.26-0.41,0.62-0.41,1s0.15,0.73,0.41,1
				c0.26,0.26,0.62,0.41,1,0.41h4.23c0.37,0,0.73-0.15,1-0.41c0.26-0.26,0.41-0.62,0.41-1s-0.15-0.73-0.41-1
				C64.08,32.44,63.72,32.3,63.35,32.3z"/>
			<path class="st1" d="M74.64,32.3h-4.23c-0.37,0-0.73,0.15-1,0.41c-0.26,0.26-0.41,0.62-0.41,1s0.15,0.73,0.41,1
				c0.26,0.26,0.62,0.41,1,0.41h4.23c0.37,0,0.73-0.15,1-0.41c0.26-0.26,0.41-0.62,0.41-1s-0.15-0.73-0.41-1
				C75.38,32.44,75.02,32.3,74.64,32.3z"/>
		</g>
	</g>
</g>
</svg>
