<svg width="119" height="119" viewBox="0 0 119 119" fill="none" xmlns="http://www.w3.org/2000/svg">
<g clip-path="url(#clip0_886_7095)">
<path d="M101.15 31.7333H97.1833V21.8167C97.1833 20.2386 96.5565 18.7252 95.4406 17.6094C94.3248 16.4935 92.8114 15.8667 91.2333 15.8667H85.2655C85.2688 15.6073 85.2207 15.3499 85.124 15.1093C85.0273 14.8686 84.884 14.6495 84.7022 14.4645L70.8189 0.581117C70.6339 0.399359 70.4147 0.256014 70.1741 0.159341C69.9334 0.0626687 69.676 0.0145811 69.4167 0.01785V0H37.6833C36.6313 0 35.6224 0.417916 34.8785 1.16181C34.1346 1.9057 33.7167 2.91464 33.7167 3.96667V15.8667H27.7667C26.1886 15.8667 24.6752 16.4935 23.5594 17.6094C22.4435 18.7252 21.8167 20.2386 21.8167 21.8167V31.7333H17.85C13.1175 31.7386 8.58033 33.6209 5.23394 36.9673C1.88755 40.3137 0.00524959 44.8508 0 49.5833L0 83.3C0 85.4041 0.835831 87.4219 2.32362 88.9097C3.81141 90.3975 5.82928 91.2333 7.93333 91.2333H28.0721L24.0221 115.545C23.9526 115.971 23.9763 116.406 24.0918 116.822C24.2073 117.237 24.4117 117.623 24.6909 117.951C24.9701 118.28 25.3175 118.544 25.7088 118.725C26.1002 118.906 26.5262 119 26.9575 119H92.0425C92.4738 119 92.8998 118.906 93.2912 118.725C93.6825 118.544 94.0299 118.28 94.3091 117.951C94.5883 117.623 94.7927 117.237 94.9082 116.822C95.0237 116.406 95.0474 115.971 94.9779 115.545L90.9279 91.2333H111.067C113.171 91.2333 115.189 90.3975 116.676 88.9097C118.164 87.4219 119 85.4041 119 83.3V49.5833C118.995 44.8508 117.112 40.3137 113.766 36.9673C110.42 33.6209 105.883 31.7386 101.15 31.7333ZM91.2333 19.8333C91.7593 19.8333 92.2638 20.0423 92.6358 20.4142C93.0077 20.7862 93.2167 21.2907 93.2167 21.8167V31.7333H85.2833V19.8333H91.2333ZM71.4 6.7711L78.5122 13.8833H71.7312C71.6434 13.8833 71.5591 13.8484 71.497 13.7863C71.4349 13.7242 71.4 13.64 71.4 13.5521V6.7711ZM67.4333 3.96667V13.5521C67.4344 14.6917 67.8875 15.7842 68.6933 16.59C69.4991 17.3958 70.5917 17.8489 71.7312 17.85H81.3167V31.7333H37.6833V3.96667H67.4333ZM25.7833 21.8167C25.7833 21.2907 25.9923 20.7862 26.3642 20.4142C26.7362 20.0423 27.2407 19.8333 27.7667 19.8333H33.7167V31.7333H25.7833V21.8167ZM28.1316 115.033L34.4069 77.35H84.5852L90.8605 115.033H28.1316ZM88.5062 76.6995C88.3549 75.7717 87.8778 74.9283 87.1606 74.3205C86.4434 73.7128 85.5332 73.3805 84.5931 73.3833H34.4148C33.4748 73.3805 32.5645 73.7128 31.8473 74.3205C31.1302 74.9283 30.6531 75.7717 30.5017 76.6995L28.7326 87.2667H25.7833V73.3833C25.7833 72.3313 26.2013 71.3224 26.9451 70.5785C27.689 69.8346 28.698 69.4167 29.75 69.4167H89.25C90.302 69.4167 91.311 69.8346 92.0549 70.5785C92.7988 71.3224 93.2167 72.3313 93.2167 73.3833V87.2667H90.2655L88.5062 76.6995ZM111.067 87.2667H97.1833V73.3833C97.1833 71.2793 96.3475 69.2614 94.8597 67.7736C93.3719 66.2858 91.354 65.45 89.25 65.45H29.75C27.6459 65.45 25.6281 66.2858 24.1403 67.7736C22.6525 69.2614 21.8167 71.2793 21.8167 73.3833V87.2667H7.93333C6.88131 87.2667 5.87237 86.8488 5.12848 86.1049C4.38458 85.361 3.96667 84.352 3.96667 83.3V55.5333H115.033V83.3C115.033 84.352 114.615 85.361 113.872 86.1049C113.128 86.8488 112.119 87.2667 111.067 87.2667ZM115.033 51.5667H3.96667V49.5833C3.97139 45.9027 5.43561 42.3742 8.03822 39.7716C10.6408 37.1689 14.1694 35.7047 17.85 35.7H101.15C104.831 35.7047 108.359 37.1689 110.962 39.7716C113.564 42.3742 115.029 45.9027 115.033 49.5833V51.5667Z" fill="black"/>
<path d="M85.2839 41.6499H79.3339C78.8079 41.6499 78.3034 41.8589 77.9315 42.2308C77.5595 42.6028 77.3506 43.1072 77.3506 43.6332C77.3506 44.1592 77.5595 44.6637 77.9315 45.0357C78.3034 45.4076 78.8079 45.6166 79.3339 45.6166H85.2839C85.8099 45.6166 86.3144 45.4076 86.6863 45.0357C87.0583 44.6637 87.2673 44.1592 87.2673 43.6332C87.2673 43.1072 87.0583 42.6028 86.6863 42.2308C86.3144 41.8589 85.8099 41.6499 85.2839 41.6499Z" fill="black"/>
<path d="M101.15 41.6499H95.2001C94.6741 41.6499 94.1696 41.8589 93.7977 42.2308C93.4258 42.6028 93.2168 43.1072 93.2168 43.6332C93.2168 44.1592 93.4258 44.6637 93.7977 45.0357C94.1696 45.4076 94.6741 45.6166 95.2001 45.6166H101.15C101.676 45.6166 102.181 45.4076 102.553 45.0357C102.925 44.6637 103.133 44.1592 103.133 43.6332C103.133 43.1072 102.925 42.6028 102.553 42.2308C102.181 41.8589 101.676 41.6499 101.15 41.6499Z" fill="black"/>
</g>
<defs>
<clipPath id="clip0_886_7095">
<rect width="119" height="119" fill="white"/>
</clipPath>
</defs>
</svg>
