<svg width="23" height="23" viewBox="0 0 23 23" fill="none" xmlns="http://www.w3.org/2000/svg">
<circle cx="11.6374" cy="11.6979" r="10.8473" fill="#D6D6D6"/>
<path d="M12.3701 16.312C12.3701 16.5754 12.2655 16.8281 12.0792 17.0144C11.8929 17.2006 11.6403 17.3053 11.3769 17.3053C11.1134 17.3053 10.8608 17.2006 10.6745 17.0144C10.4882 16.8281 10.3836 16.5754 10.3836 16.312C10.3836 16.0486 10.4882 15.7959 10.6745 15.6097C10.8608 15.4234 11.1134 15.3187 11.3769 15.3187C11.6403 15.3187 11.8929 15.4234 12.0792 15.6097C12.2655 15.7959 12.3701 16.0486 12.3701 16.312ZM11.4134 14.6123C10.8532 14.6123 10.3983 14.1924 10.3983 13.6747V12.5662C10.3983 11.8816 10.9291 11.2944 11.6578 11.1701C12.2772 11.0648 12.7237 10.563 12.7237 9.97973V9.48548C12.7237 8.81244 12.1508 8.25264 11.4432 8.23674C11.0958 8.2263 10.7577 8.35041 10.4996 8.5832C10.2469 8.81244 10.1079 9.11956 10.1079 9.44655C10.1079 9.96384 9.65294 10.3842 9.09273 10.3842C8.53253 10.3842 8.07324 9.96384 8.07324 9.44257C8.07324 8.60664 8.43122 7.82076 9.07565 7.23752C9.72445 6.65347 10.5795 6.33881 11.4853 6.35827C13.2879 6.39324 14.754 7.79732 14.754 9.48151V9.97973C14.754 11.3135 13.831 12.4784 12.5 12.8987C12.4794 12.9051 12.4614 12.9178 12.4485 12.9351C12.4357 12.9524 12.4287 12.9733 12.4285 12.9949V13.6711C12.4285 14.1924 11.974 14.6123 11.4134 14.6123Z" fill="black"/>
</svg>
