<svg width="11" height="11" viewBox="0 0 11 11" fill="none" xmlns="http://www.w3.org/2000/svg">
<ellipse cx="5.42394" cy="5.78543" rx="5.19152" ry="4.88143" fill="#C22032"/>
<path d="M5.77426 7.86184C5.77426 7.98038 5.72417 8.09407 5.63502 8.1779C5.54587 8.26173 5.42496 8.30882 5.29888 8.30882C5.1728 8.30882 5.05189 8.26173 4.96274 8.1779C4.87359 8.09407 4.8235 7.98038 4.8235 7.86184C4.8235 7.74329 4.87359 7.6296 4.96274 7.54577C5.05189 7.46194 5.1728 7.41485 5.29888 7.41485C5.42496 7.41485 5.54587 7.46194 5.63502 7.54577C5.72417 7.6296 5.77426 7.74329 5.77426 7.86184ZM5.31637 7.09696C5.04826 7.09696 4.83054 6.90797 4.83054 6.675V6.17617C4.83054 5.86811 5.08458 5.60385 5.43332 5.54789C5.72976 5.50051 5.94349 5.27469 5.94349 5.01223V4.78981C5.94349 4.48693 5.66929 4.23501 5.33063 4.22786C5.16435 4.22316 5.00257 4.27901 4.87903 4.38377C4.75809 4.48693 4.69154 4.62514 4.69154 4.77229C4.69154 5.00507 4.47381 5.19424 4.2057 5.19424C3.93759 5.19424 3.71777 5.00507 3.71777 4.7705C3.71777 4.39432 3.8891 4.04066 4.19752 3.77819C4.50804 3.51537 4.91725 3.37376 5.35079 3.38252C6.21351 3.39826 6.91516 4.03011 6.91516 4.78802V5.01223C6.91516 5.61244 6.47344 6.13666 5.83644 6.32582C5.82658 6.32867 5.81795 6.33441 5.81179 6.34219C5.80563 6.34997 5.80228 6.35939 5.80221 6.36909V6.6734C5.80221 6.90797 5.58468 7.09696 5.31637 7.09696Z" fill="white"/>
</svg>
