<svg width="266" height="195" viewBox="0 0 266 195" fill="none" xmlns="http://www.w3.org/2000/svg">
<path opacity="0.5" d="M208.756 194.095C185.949 194.095 169.425 185.949 159.185 169.658C154.531 162.676 150.807 154.065 148.015 143.825C145.222 133.585 143.825 122.88 143.825 111.709C143.825 87.5055 149.876 65.6291 161.978 46.08C174.545 26.5309 192.931 11.1709 217.135 0L223.418 12.5673C209.92 18.1527 198.051 26.7637 187.811 38.4C178.036 50.0364 172.218 61.9055 170.356 74.0073C168.96 79.5927 168.262 84.9455 168.262 90.0655C168.262 94.72 168.96 99.1419 170.356 103.331C180.596 92.16 194.095 86.5746 210.851 86.5746C227.142 86.5746 240.407 91.4618 250.647 101.236C260.887 110.545 266.007 123.578 266.007 140.335C266.007 156.16 260.655 169.193 249.949 179.433C239.244 189.207 225.513 194.095 208.756 194.095ZM64.9309 194.095C42.1236 194.095 25.6 185.949 15.36 169.658C10.7055 162.676 6.98182 154.065 4.18909 143.825C1.39636 133.585 0 122.88 0 111.709C0 87.5055 6.05091 65.6291 18.1527 46.08C30.72 26.5309 49.1055 11.1709 73.3091 0L79.5927 12.5673C66.0946 18.1527 54.2255 26.7637 43.9855 38.4C34.2109 50.0364 28.3927 61.9055 26.5309 74.0073C25.1345 79.5927 24.4364 84.9455 24.4364 90.0655C24.4364 94.72 25.1345 99.1419 26.5309 103.331C36.7709 92.16 50.2691 86.5746 67.0255 86.5746C83.3164 86.5746 96.5818 91.4618 106.822 101.236C117.062 110.545 122.182 123.578 122.182 140.335C122.182 156.16 116.829 169.193 106.124 179.433C95.4182 189.207 81.6873 194.095 64.9309 194.095Z" fill="#FFDEE2"/>
</svg>
