<svg width="266" height="195" viewBox="0 0 266 195" fill="none" xmlns="http://www.w3.org/2000/svg">
<path opacity="0.5" d="M57.2515 0.000149597C80.0587 0.00015159 96.5824 8.14558 106.822 24.4365C111.477 31.4183 115.201 40.0292 117.993 50.2692C120.786 60.5092 122.182 71.2147 122.182 82.3856C122.182 106.589 116.131 128.466 104.03 148.015C91.4624 167.564 73.0769 182.924 48.8733 194.095L42.5896 181.527C56.0878 175.942 67.9569 167.331 78.1969 155.695C87.9714 144.058 93.7896 132.189 95.6514 120.087C97.0478 114.502 97.746 109.149 97.746 104.029C97.746 99.3747 97.0478 94.9529 95.6515 90.7638C85.4115 101.935 71.9133 107.52 55.1569 107.52C38.866 107.52 25.6005 102.633 15.3605 92.8583C5.12055 83.5492 0.000529602 70.5165 0.000531067 53.7601C0.000532451 37.9347 5.35329 24.9019 16.0587 14.662C26.7642 4.8874 40.4951 0.000148132 57.2515 0.000149597ZM201.077 0.00016217C223.884 0.000164164 240.408 8.1456 250.648 24.4365C255.302 31.4183 259.026 40.0292 261.819 50.2692C264.611 60.5092 266.008 71.2147 266.008 82.3856C266.008 106.589 259.957 128.466 247.855 148.015C235.288 167.564 216.902 182.924 192.699 194.095L186.415 181.527C199.913 175.942 211.782 167.331 222.022 155.695C231.797 144.058 237.615 132.189 239.477 120.087C240.873 114.502 241.571 109.149 241.571 104.029C241.571 99.3747 240.873 94.9529 239.477 90.7638C229.237 101.935 215.739 107.52 198.982 107.52C182.691 107.52 169.426 102.633 159.186 92.8583C148.946 83.5492 143.826 70.5165 143.826 53.7601C143.826 37.9347 149.179 24.902 159.884 14.662C170.59 4.88741 184.321 0.000160705 201.077 0.00016217Z" fill="#FFDEE2"/>
</svg>
