<svg width="42" height="44" viewBox="0 0 42 44" fill="none" xmlns="http://www.w3.org/2000/svg">
<g clip-path="url(#clip0_17_51)">
<path d="M26.9156 30.2528C26.9156 29.9019 27.1991 29.6184 27.55 29.6184H32.625C32.9759 29.6184 33.2594 29.9019 33.2594 30.2528C33.2594 30.6037 32.9759 30.8872 32.625 30.8872H31.5109C31.7012 31.1726 31.842 31.4938 31.9213 31.8387H32.625C32.9759 31.8387 33.2594 32.1222 33.2594 32.4731C33.2594 32.824 32.9759 33.1075 32.625 33.1075H31.9193C31.6576 34.2633 30.6921 35.1534 29.4967 35.306L32.3594 37.3499C32.6449 37.5541 32.7103 37.9506 32.5061 38.2341C32.3019 38.5176 31.9054 38.585 31.6219 38.3808L27.1812 35.2089C26.9572 35.0503 26.8621 34.7628 26.9453 34.4992C27.0286 34.2355 27.2744 34.0591 27.55 34.0591H29.1359C29.7862 34.0591 30.3452 33.6685 30.5891 33.1075H27.55C27.1991 33.1075 26.9156 32.824 26.9156 32.4731C26.9156 32.1222 27.1991 31.8387 27.55 31.8387H30.5891C30.3452 31.2777 29.7862 30.8872 29.1359 30.8872H27.55C27.1991 30.8872 26.9156 30.6037 26.9156 30.2528Z" fill="white"/>
</g>
<path d="M10.5837 17.743C14.1457 17.743 17.0435 14.8452 17.0435 11.2832C17.0435 7.72119 14.1457 4.82337 10.5837 4.82337C7.02165 4.82337 4.12383 7.72119 4.12383 11.2832C4.12383 14.8452 7.02165 17.743 10.5837 17.743ZM10.5837 6.18936C13.3917 6.18936 15.6766 8.47428 15.6766 11.2823C15.6766 14.0904 13.3917 16.3753 10.5837 16.3753C7.7756 16.3753 5.49068 14.0904 5.49068 11.2823C5.49068 8.47428 7.7756 6.18936 10.5837 6.18936ZM7.47385 10.9567C7.20715 10.69 7.20715 10.2574 7.47385 9.99072C7.74055 9.72402 8.17309 9.72402 8.43979 9.99072L10.2469 11.7978L12.7275 9.31969C12.9942 9.05299 13.4268 9.05299 13.6935 9.31969C13.9602 9.58639 13.9602 10.0189 13.6935 10.2856L10.7298 13.2467C10.5965 13.3801 10.4213 13.4467 10.2469 13.4467C10.0716 13.4467 9.89725 13.3801 9.7639 13.2467L7.47385 10.9567ZM19.5789 5.50636C19.5789 5.12854 19.8849 4.82337 20.2619 4.82337H26.2157C26.5926 4.82337 26.8987 5.12939 26.8987 5.50636C26.8987 5.88334 26.5926 6.18936 26.2157 6.18936H20.2619C19.884 6.18936 19.5789 5.88334 19.5789 5.50636ZM19.5789 11.0037C19.5789 10.6258 19.8849 10.3207 20.2619 10.3207H26.2157C26.5926 10.3207 26.8987 10.6267 26.8987 11.0037C26.8987 11.3806 26.5926 11.6867 26.2157 11.6867H20.2619C19.884 11.6875 19.5789 11.3815 19.5789 11.0037ZM19.5789 16.5018C19.5789 16.124 19.8849 15.8188 20.2619 15.8188H26.2157C26.5926 15.8188 26.8987 16.1249 26.8987 16.5018C26.8987 16.8788 26.5926 17.1848 26.2157 17.1848H20.2619C19.884 17.1857 19.5789 16.8797 19.5789 16.5018ZM26.8987 22C26.8987 22.3778 26.5926 22.683 26.2157 22.683H5.9728C5.59497 22.683 5.2898 22.377 5.2898 22C5.2898 21.623 5.59582 21.317 5.9728 21.317H26.2157C26.5926 21.317 26.8987 21.6222 26.8987 22ZM19.125 27.4982C19.125 27.876 18.8189 28.1812 18.442 28.1812H5.9728C5.59582 28.1812 5.2898 27.8751 5.2898 27.4982C5.2898 27.1212 5.59582 26.8152 5.9728 26.8152H18.442C18.8198 26.8143 19.125 27.1203 19.125 27.4982ZM19.125 32.9963C19.125 33.3742 18.8189 33.6793 18.442 33.6793H5.9728C5.59582 33.6793 5.2898 33.3733 5.2898 32.9963C5.2898 32.6194 5.59582 32.3133 5.9728 32.3133H18.442C18.8198 32.3125 19.125 32.6185 19.125 32.9963ZM19.125 38.4936C19.125 38.8715 18.8189 39.1766 18.442 39.1766H5.9728C5.59582 39.1766 5.2898 38.8706 5.2898 38.4936C5.2898 38.1167 5.59582 37.8106 5.9728 37.8106H18.442C18.8198 37.8106 19.125 38.1167 19.125 38.4936ZM31.4446 22.9198V2.40937C31.4446 1.1451 30.4162 0.11676 29.1519 0.11676H3.03565C1.77224 0.11676 0.743896 1.1451 0.743896 2.40937V41.5906C0.743896 42.8549 1.77224 43.8832 3.03651 43.8832H29.1528C29.2682 43.8832 29.3768 43.8542 29.4716 43.8038C29.8948 43.8559 30.3247 43.8832 30.7616 43.8832C36.5478 43.8832 41.2561 39.1758 41.2561 33.3887C41.2553 27.8333 36.9137 23.2728 31.4446 22.9198ZM3.03565 42.5164C2.52533 42.5164 2.10989 42.101 2.10989 41.5906V2.40937C2.10989 1.89905 2.52533 1.48361 3.03565 1.48361H29.1519C29.6623 1.48361 30.0777 1.89905 30.0777 2.40937V22.9198C24.6095 23.2728 20.2687 27.8333 20.2687 33.3887C20.2687 37.2952 22.4143 40.7102 25.5882 42.5164H3.03565ZM30.7607 42.5164C25.7293 42.5164 21.6356 38.4218 21.6356 33.3887C21.6356 28.3573 25.7293 24.2636 30.7607 24.2636C35.7938 24.2636 39.8884 28.3573 39.8884 33.3887C39.8893 38.4218 35.7938 42.5164 30.7607 42.5164Z" fill="white"/>
<defs>
<clipPath id="clip0_17_51">
<rect width="6.34381" height="10.1501" fill="white" transform="translate(26.9158 28.9841)"/>
</clipPath>
</defs>
</svg>
