<?xml version="1.0" encoding="utf-8"?>
<!-- Generator: Adobe Illustrator 26.0.1, SVG Export Plug-In . SVG Version: 6.00 Build 0)  -->
<svg version="1.1" id="Layer_1" xmlns="http://www.w3.org/2000/svg" xmlns:xlink="http://www.w3.org/1999/xlink" x="0px" y="0px"
	 width="70" height="70" viewBox="0 0 70 70" style="enable-background:new 0 0 70 70;" xml:space="preserve">
<style type="text/css">
	.st0{clip-path:url(#SVGID_00000078766292982445734110000003047510377554799016_);}
	.st1{fill:#B47CA8;}
	.st2{fill:none;stroke:#B47CA8;stroke-width:1.5;stroke-miterlimit:10;}
	.st3{fill:none;stroke:#B47CA8;stroke-width:1.5;stroke-linecap:round;stroke-miterlimit:10;}
</style>
<g>
	<g>
		<defs>
			<rect id="SVGID_1_" x="44.2" y="47.4" width="9" height="14.4"/>
		</defs>
		<clipPath id="SVGID_00000150078192136249033230000007045659034270516099_">
			<use xlink:href="#SVGID_1_"  style="overflow:visible;"/>
		</clipPath>
		<g style="clip-path:url(#SVGID_00000150078192136249033230000007045659034270516099_);">
			<path class="st1" d="M44.2,49.2c0-0.5,0.4-0.9,0.9-0.9h7.2c0.5,0,0.9,0.4,0.9,0.9c0,0.5-0.4,0.9-0.9,0.9h-1.6
				c0.3,0.4,0.5,0.9,0.6,1.4h1c0.5,0,0.9,0.4,0.9,0.9c0,0.5-0.4,0.9-0.9,0.9h-1c-0.4,1.6-1.7,2.9-3.4,3.1l4.1,2.9
				c0.4,0.3,0.5,0.9,0.2,1.3c-0.3,0.4-0.9,0.5-1.3,0.2l-6.3-4.5c-0.3-0.2-0.5-0.6-0.3-1c0.1-0.4,0.5-0.6,0.9-0.6h2.3
				c0.9,0,1.7-0.6,2.1-1.4h-4.3c-0.5,0-0.9-0.4-0.9-0.9c0-0.5,0.4-0.9,0.9-0.9h4.3c-0.3-0.8-1.1-1.4-2.1-1.4h-2.3
				C44.6,50.1,44.2,49.7,44.2,49.2z"/>
		</g>
	</g>
	<g>
		<path class="st2" d="M41.5,63.3H15.4c-1.4,0-2.6-1.2-2.6-2.6V9.8c0-1.4,1.2-2.6,2.6-2.6h35.7c1.4,0,2.6,1.2,2.6,2.6v32.3"/>
		<circle class="st2" cx="25.3" cy="23.4" r="7.7"/>
		<polyline class="st2" points="29.5,21.3 25.3,25.5 21.2,21.3 		"/>
		<line class="st3" x1="39.2" y1="15.6" x2="47" y2="15.6"/>
		<line class="st3" x1="39.2" y1="22.6" x2="47" y2="22.6"/>
		<line class="st3" x1="39.2" y1="29.5" x2="47" y2="29.5"/>
		<line class="st3" x1="20" y1="42.5" x2="32.4" y2="42.5"/>
		<line class="st3" x1="20" y1="49.4" x2="32.4" y2="49.4"/>
		<line class="st3" x1="20" y1="56.3" x2="32.4" y2="56.3"/>
		<line class="st3" x1="19.5" y1="36.4" x2="47" y2="36.4"/>
		<circle class="st3" cx="49.3" cy="53.9" r="12.5"/>
	</g>
</g>
</svg>
