<?xml version="1.0" encoding="utf-8"?>
<!-- Generator: Adobe Illustrator 26.0.1, SVG Export Plug-In . SVG Version: 6.00 Build 0)  -->
<svg version="1.1" id="Layer_1" xmlns="http://www.w3.org/2000/svg" xmlns:xlink="http://www.w3.org/1999/xlink" x="0px" y="0px"
	 width="70" height="70" viewBox="0 0 70 70" style="enable-background:new 0 0 70 70;" xml:space="preserve">
<style type="text/css">
	.st0{fill:none;stroke:#629F43;stroke-width:1.5;stroke-miterlimit:10;}
</style>
<rect x="3.2" y="3.2" class="st0" width="63.6" height="63.6"/>
<line class="st0" x1="3.3" y1="11.9" x2="66.8" y2="11.9"/>
<line class="st0" x1="3.3" y1="58" x2="66.8" y2="58"/>
<g>
	<line class="st0" x1="26.4" y1="7.7" x2="36.1" y2="7.7"/>
	<line class="st0" x1="36.8" y1="7.7" x2="40.9" y2="7.7"/>
	<line class="st0" x1="41.5" y1="7.7" x2="43.6" y2="7.7"/>
</g>
<g>
	<path class="st0" d="M36,38.5l-5.5-7.8c-2.3-3.2-1.3-7.7,2.1-9.7l0,0c2.1-1.3,4.8-1.3,6.9,0l0,0c3.4,2,4.4,6.5,2.1,9.7L36,38.5z"/>
	<circle class="st0" cx="36" cy="26.6" r="2.6"/>
	<path class="st0" d="M36.2,37.6v4.6c0,0.8-0.6,1.5-1.5,1.5h-4.3c-0.8,0-1.5,0.6-1.5,1.5l0,0c0,0.8,0.6,1.5,1.5,1.5h13.1
		c0.8,0,1.5,0.6,1.5,1.5v1.1c0,0.8-0.6,1.5-1.5,1.5H26.4c-0.8,0-1.5,0.6-1.5,1.5v0.5c0,0.8,0.6,1.5,1.5,1.5h7.9
		c0.8,0,1.5,0.6,1.5,1.5V58"/>
</g>
</svg>
