<svg width="56" height="54" viewBox="0 0 56 54" fill="none" xmlns="http://www.w3.org/2000/svg">
<path d="M28.1 14.3999C30.0882 14.3999 31.7 16.0117 31.7 17.9999C31.7 19.9881 30.0882 21.5999 28.1 21.5999C26.1117 21.5999 24.5 19.9881 24.5 17.9999C24.5 16.0117 26.1117 14.3999 28.1 14.3999ZM28.1 19.7999C29.0941 19.7999 29.9 18.9941 29.9 17.9999C29.9 17.0057 29.0941 16.1999 28.1 16.1999C27.1058 16.1999 26.3 17.0057 26.3 17.9999C26.3 18.9941 27.1058 19.7999 28.1 19.7999Z" fill="#619E12"/>
<path d="M56 0V54H0V0H56ZM1.8 52.2H54.2V46.8H1.8V52.2ZM1.8 45H27.2V44.1C27.2 43.603 26.797 43.2 26.2999 43.2H19.1C17.6088 43.2 16.3999 41.9912 16.3999 40.5C16.3999 39.0088 17.6088 37.8 19.1 37.8H35.2999C35.797 37.8 36.2 37.397 36.2 36.9C36.2 36.403 35.797 36 35.2999 36H22.7C21.2088 36 20 34.7912 20 33.3C20 31.8088 21.2088 30.6 22.7 30.6H26.2999C26.797 30.6 27.2 30.197 27.2 29.7V27.3726L23.0087 23.1813C21.6538 21.834 20.8945 20.0007 20.8999 18.09V18C20.8999 14.0236 24.1235 10.8 28.1 10.8C32.0764 10.8 35.2999 14.0236 35.2999 18V18.09C35.3053 20.0007 34.5461 21.834 33.1912 23.1813L29 27.3726V29.7C29 31.1912 27.7911 32.4 26.2999 32.4H22.7C22.2029 32.4 21.7999 32.803 21.7999 33.3C21.7999 33.797 22.2029 34.2 22.7 34.2H35.2999C36.7911 34.2 38 35.4088 38 36.9C38 38.3912 36.7911 39.6 35.2999 39.6H19.1C18.6029 39.6 18.2 40.003 18.2 40.5C18.2 40.997 18.6029 41.4 19.1 41.4H26.2999C27.7911 41.4 29 42.6088 29 44.1V45H54.2V9H1.8V45ZM28.1 25.7274L31.9187 21.9087C32.9346 20.8981 33.504 19.523 33.5 18.09V18C33.5 15.0176 31.0823 12.6 28.1 12.6C25.1176 12.6 22.7 15.0176 22.7 18V18.09C22.6959 19.523 23.2653 20.8981 24.2812 21.9087L28.1 25.7274ZM1.8 7.2H54.2V1.8H1.8V7.2Z" fill="#619E12"/>
<path d="M21.7999 3.6001H28.0999V5.4001H21.7999V3.6001Z" fill="#619E12"/>
<path d="M29.9 3.6001H31.7V5.4001H29.9V3.6001Z" fill="#619E12"/>
<path d="M33.4998 3.6001H35.2998V5.4001H33.4998V3.6001Z" fill="#619E12"/>
</svg>
