<svg width="53" height="51" viewBox="0 0 53 51" fill="none" xmlns="http://www.w3.org/2000/svg">
<path d="M14.5523 27.9276C14.164 28.5865 13.4285 28.7335 12.8814 28.4452C11.7871 27.8685 10.7929 27.18 9.78693 26.2797C8.33388 24.9792 13.2548 6.43511 14.0495 3.52289C14.2261 2.87573 14.9498 2.51693 15.5969 2.69351C18.1973 3.61167 21.6388 6.2891 23.1919 7.47776C23.5272 7.77786 23.7743 8.40154 23.4859 8.94867C22.0793 12.3197 16.3825 24.5331 14.5523 27.9276ZM18.8059 29.9227C20.3712 27.4989 24.2903 21.5453 28.3917 16.9626C29.4921 15.7331 33.3689 18.5988 34.1513 19.2991C34.7102 19.7992 34.6454 20.5464 34.2453 20.9935C32.1328 23.129 25.9368 28.2527 23.8183 32.1944C23.5299 32.7415 23.1063 32.765 22.5709 32.6884C21.712 32.5236 20.5177 32.0586 19.4352 31.6937C18.6762 31.4171 18.4175 30.5816 18.8059 29.9227ZM26.4947 36.4014C29.3896 34.9662 37.4857 31.543 43.4576 30.0435C43.9813 29.9083 44.3166 30.2084 44.6519 30.5085C45.5461 31.3087 47.4932 33.8565 48.4813 36.3513C48.7284 36.9749 48.2399 37.7456 47.5045 37.8926C43.9155 38.304 34.3842 38.8323 29.2947 40.9203C28.9829 41.0438 28.4475 40.9672 28.1121 40.6671C27.5533 40.167 26.7591 39.2549 25.9532 38.1311C25.4944 37.5191 25.771 36.7602 26.4947 36.4014Z" fill="#C22032"/>
</svg>
