<?xml version="1.0" encoding="utf-8"?>
<!-- Generator: Adobe Illustrator 26.0.1, SVG Export Plug-In . SVG Version: 6.00 Build 0)  -->
<svg version="1.1" id="Layer_1" xmlns="http://www.w3.org/2000/svg" xmlns:xlink="http://www.w3.org/1999/xlink" x="0px" y="0px"
	 viewBox="0 0 90 90" style="enable-background:new 0 0 90 90;" xml:space="preserve">
<style type="text/css">
	.st0{fill:none;stroke:#0EA2F4;stroke-width:2;stroke-linecap:round;stroke-linejoin:round;}
	.st1{fill:none;stroke:#0EA2F4;stroke-width:2;stroke-linejoin:round;}
	.st2{fill:none;stroke:#818181;stroke-width:2;stroke-linecap:round;stroke-linejoin:round;}
</style>
<path id="rect7692" class="st0" d="M42.29,55.83h3.87c1.29,0,2.32,1.03,2.32,2.32v6.96c0,1.29-1.03,2.32-2.32,2.32h-3.87
	c-1.29,0-2.32-1.03-2.32-2.32v-6.96C39.97,56.86,41.01,55.83,42.29,55.83z"/>
<path id="rect7694" class="st0" d="M46.55,67.43v9.28h-4.64v-9.28"/>
<path id="path7698" class="st0" d="M43.84,55.83v-3.09l-7.73-2.32"/>
<path id="path7705" class="st0" d="M36.11,66.65H21.41L17.16,9.43h54.14l-4.25,57.23H52.35"/>
<path id="path7726" class="st1" d="M65.03,38.04c-2.58-0.13-6.93-3.87-6.93-3.87s-4.35,3.87-6.93,3.87c-2.58,0-6.93-3.87-6.93-3.87
	s-4.35,3.87-6.93,3.87c-2.58,0-6.93-3.87-6.93-3.87s-4.35,3.74-6.93,3.87"/>
<path id="path7690" class="st2" d="M58.92,1.69h20.11l-4.64,80.43l-9.28,6.19H23.35l-9.28-6.19L9.43,1.69h40.21"/>
<path id="path7728" class="st2" d="M74.62,77.48h4.64v4.64"/>
<path id="path7730" class="st2" d="M75.93,71.29h4.64v-4.64"/>
<path id="path10218" class="st2" d="M52.73,1.69h3.09"/>
</svg>
