<svg width="206" height="206" viewBox="0 0 206 206" fill="none" xmlns="http://www.w3.org/2000/svg">
<path d="M67.5807 88.5917C67.034 86.815 66.4418 84.8106 65.7585 82.6922C65.5535 82.1 65.0296 81.7128 64.4146 81.7128H47.4907C46.8757 81.7128 46.329 82.1 46.124 82.6694C45.4407 84.7878 44.8257 86.7695 44.2562 88.5461C44.0285 89.275 44.4612 90.0722 45.1901 90.3C45.3268 90.3456 45.4635 90.3456 45.6229 90.3456H66.1685C66.9657 90.3456 67.5807 89.7306 67.5807 88.9333C67.649 88.8422 67.6262 88.7056 67.5807 88.5917ZM47.6046 87.5439C47.9235 86.5644 48.2196 85.585 48.5612 84.5144H63.3668C63.7085 85.585 64.0273 86.5872 64.3007 87.5439H47.6046Z" fill="#C22032" stroke="#C22032" stroke-width="0.721831" stroke-miterlimit="10"/>
<path d="M71.9765 101.347C71.9538 101.302 71.9538 101.256 71.931 101.211L69.5849 95.3566C69.5621 95.3111 69.5621 95.2655 69.4938 95.22C69.266 94.7644 68.7649 94.4911 68.241 94.4911H43.5271C42.9577 94.4911 42.4793 94.81 42.2288 95.3111C42.206 95.3339 42.206 95.3566 42.206 95.3566L39.8371 101.188V101.211C39.5638 101.917 39.9282 102.737 40.6343 103.01C40.7938 103.056 40.976 103.124 41.1354 103.124H70.5643C71.3615 103.124 71.9765 102.509 71.9765 101.712C72.0449 101.598 72.0449 101.484 71.9765 101.347ZM43.2993 100.322L43.6638 99.4111L44.5065 97.3155H67.3071L68.446 100.14L68.5371 100.345H43.2993V100.322Z" fill="#C22032" stroke="#C22032" stroke-width="0.721831" stroke-miterlimit="10"/>
<path d="M75.9333 115.113C75.9037 115.066 75.9037 115.018 75.8741 114.971L72.8217 108.868C72.792 108.82 72.792 108.773 72.7031 108.725C72.4068 108.251 71.7548 107.966 71.0732 107.966H38.9193C38.1784 107.966 37.5561 108.298 37.2301 108.82C37.2004 108.844 37.2004 108.868 37.2004 108.868L34.1184 114.947V114.971C33.7628 115.707 34.237 116.562 35.1556 116.847C35.3631 116.894 35.6002 116.966 35.8076 116.966H74.096C75.1332 116.966 75.9333 116.324 75.9333 115.493C76.0222 115.375 76.0222 115.256 75.9333 115.113ZM38.6229 114.045L39.0971 113.095L40.1936 110.91H69.8582L71.3399 113.855L71.4584 114.068H38.6229V114.045Z" fill="#C22032" stroke="#C22032" stroke-width="0.721831" stroke-miterlimit="10"/>
<path d="M180.581 72.9434C180.581 72.9434 177.802 72.9662 164.614 75.2667C151.016 77.6356 137.509 89.3662 137.03 89.799C115.118 92.0995 97.6475 101.302 97.6475 101.302C97.2147 101.53 96.9186 101.985 96.9186 102.463L96.0075 117.679L95.9619 118.545C95.9619 118.75 95.9847 118.977 96.0758 119.137C96.5769 120.458 97.6702 121.278 98.8775 122.075C100.107 122.872 101.542 123.556 102.909 124.148C105.665 125.31 108.239 126.107 108.239 126.107C108.968 126.335 109.765 125.902 109.993 125.15C110.039 124.945 110.084 124.763 110.039 124.558C109.788 122.485 109.674 120.093 109.925 117.725C110.152 115.401 110.654 113.078 111.633 111.073C113.592 106.996 117.1 103.967 124.297 103.967C127.782 103.967 130.288 105.106 132.179 106.791C134.115 108.477 135.436 110.846 136.37 113.237C136.962 114.763 137.372 116.29 137.645 117.679C138.237 120.686 138.26 122.963 138.26 122.963C138.26 123.738 138.921 124.376 139.672 124.376H180.559C181.356 124.376 181.971 123.761 181.971 122.963V74.3556C181.994 73.604 181.379 72.9434 180.581 72.9434ZM179.146 121.574H140.811C140.789 120.959 140.789 119.592 140.47 117.725C140.219 116.221 139.786 114.353 138.989 112.303C137.964 109.616 136.415 106.837 134.024 104.718C131.632 102.6 128.375 101.188 124.229 101.188C116.166 101.188 111.314 105.037 108.991 109.889C107.806 112.395 107.237 115.082 107.055 117.747C106.941 119.433 106.964 121.141 107.077 122.713C106.144 122.394 105.551 122.257 103.934 121.574C102.659 121.027 101.36 120.39 100.335 119.729C99.4014 119.137 98.8775 118.545 98.7408 118.248L98.7636 117.702L99.5836 103.511C100.609 102.965 116.849 94.5823 137.691 92.5095C137.964 92.4867 138.26 92.3729 138.488 92.1679C138.488 92.1679 152.519 80.2095 165.001 78.0229C176.914 75.9273 178.6 75.9956 179.055 75.9501V121.506H179.146V121.574Z" fill="black" stroke="black" stroke-width="0.721831" stroke-miterlimit="10"/>
<path d="M134.638 117.77C134.502 111.802 129.559 106.973 123.523 106.973C117.487 106.973 112.544 111.779 112.407 117.77C112.407 117.861 112.407 117.952 112.407 118.043C112.407 124.125 117.396 129.113 123.523 129.113C129.65 129.113 134.638 124.148 134.638 118.043C134.638 117.952 134.638 117.861 134.638 117.77ZM123.523 126.744C118.694 126.744 114.776 122.872 114.776 118.066C114.776 117.975 114.776 117.884 114.776 117.793C114.913 113.101 118.762 109.365 123.523 109.365C128.283 109.365 132.133 113.101 132.269 117.793C132.269 117.884 132.269 117.975 132.269 118.066C132.269 122.872 128.374 126.744 123.523 126.744Z" fill="#B3B4B4" stroke="black" stroke-width="0.721831" stroke-miterlimit="10"/>
<path d="M80.5642 122.553L80.1998 121.688L78.6053 117.747L71.9998 101.37L69.517 95.2656L69.3803 94.924V94.9012C69.3803 94.8784 67.3303 87.2706 64.802 79.6856C63.5264 75.9045 62.137 72.1006 60.7703 69.2306C60.087 67.7956 59.4037 66.5656 58.6976 65.6317C58.3559 65.1762 57.9914 64.789 57.5131 64.4473C57.0576 64.1284 56.4426 63.8551 55.7364 63.9462C54.3926 64.1056 53.7776 64.994 53.0942 65.9506C52.4109 66.9073 51.7276 68.1601 51.0442 69.6179C49.6776 72.5334 48.2881 76.2917 47.0126 80.0273C44.4842 87.4529 42.4798 94.719 42.4342 94.8101L42.2292 95.3112L39.8376 101.256V101.279L33.1864 117.77L31.6376 121.688L31.2959 122.553C31.0226 123.282 31.3414 124.102 32.0931 124.398C32.2526 124.444 32.4348 124.512 32.5942 124.512H79.2431C80.0403 124.512 80.6553 123.897 80.6553 123.1C80.6781 122.895 80.6326 122.713 80.5642 122.553ZM34.6898 121.642L36.2842 117.702L42.1609 103.147L43.2998 100.322L43.6642 99.4112L45.1448 95.7667C45.1676 95.7212 45.1676 95.6529 45.1903 95.6301C45.1903 95.6301 45.3042 95.2429 45.5092 94.4912C45.7598 93.5573 46.1926 92.1451 46.6937 90.414C47.4226 87.954 48.402 84.879 49.4498 81.7356C49.5409 81.4623 49.6092 81.189 49.7231 80.9384C50.9759 77.2712 52.3653 73.5584 53.6409 70.8251C54.3014 69.4356 54.8937 68.3195 55.3948 67.5906C55.7364 67.1123 55.9642 66.9756 55.987 66.9073C55.987 66.9073 55.987 66.8845 55.9642 66.8845C55.987 66.8845 55.987 66.8845 55.987 66.9073C56.1009 66.9984 56.2376 67.1351 56.4198 67.3629C56.8981 68.0234 57.5359 69.094 58.1737 70.4379C59.4492 73.1256 60.8159 76.8612 62.0914 80.5967C62.2281 80.984 62.342 81.3712 62.4787 81.7584C63.5037 84.9017 64.4376 87.9767 65.1437 90.4367C65.6448 92.1678 66.0548 93.6028 66.3053 94.514C66.5103 95.2201 66.6242 95.6529 66.6242 95.6529C66.647 95.6984 66.647 95.7667 66.6698 95.8123L67.2848 97.3612L68.4237 100.186L68.5148 100.391L69.6537 103.215L75.5303 117.77L77.1248 121.711H34.6898V121.642Z" fill="black"/>
<path d="M55.987 66.9073C55.9642 66.9756 55.7364 67.1123 55.3948 67.5906C54.8937 68.3195 54.3014 69.4356 53.6409 70.8251C52.3653 73.5584 50.9759 77.2712 49.7231 80.9384C49.6092 81.189 49.5409 81.4623 49.4498 81.7356C48.402 84.879 47.4226 87.954 46.6937 90.414C46.1926 92.1451 45.7598 93.5573 45.5092 94.4912C45.3042 95.2429 45.1903 95.6301 45.1903 95.6301C45.1676 95.6529 45.1676 95.7212 45.1448 95.7667L43.6642 99.4112L43.2998 100.322L42.1609 103.147L36.2842 117.702L34.6898 121.642V121.711H77.1248L75.5303 117.77L69.6537 103.215L68.5148 100.391L68.4237 100.186L67.2848 97.3612L66.6698 95.8123C66.647 95.7667 66.647 95.6984 66.6242 95.6529C66.6242 95.6529 66.5103 95.2201 66.3053 94.514C66.0548 93.6029 65.6448 92.1678 65.1437 90.4367C64.4376 87.9767 63.5037 84.9017 62.4787 81.7584C62.342 81.3712 62.2281 80.984 62.0914 80.5967C60.8159 76.8612 59.4492 73.1256 58.1737 70.4379C57.5359 69.094 56.8981 68.0234 56.4198 67.3629C56.2376 67.1351 56.1009 66.9984 55.987 66.9073ZM55.987 66.9073C55.987 66.9073 55.987 66.8845 55.9642 66.8845C55.987 66.8845 55.987 66.8845 55.987 66.9073ZM80.5642 122.553L80.1998 121.688L78.6053 117.747L71.9998 101.37L69.517 95.2656L69.3803 94.924V94.9012C69.3803 94.8784 67.3303 87.2706 64.802 79.6856C63.5264 75.9045 62.137 72.1006 60.7703 69.2306C60.087 67.7956 59.4037 66.5656 58.6976 65.6317C58.3559 65.1762 57.9914 64.789 57.5131 64.4473C57.0576 64.1284 56.4426 63.8551 55.7364 63.9462C54.3926 64.1056 53.7776 64.994 53.0942 65.9506C52.4109 66.9073 51.7276 68.1601 51.0442 69.6179C49.6776 72.5334 48.2881 76.2917 47.0126 80.0273C44.4842 87.4529 42.4798 94.719 42.4342 94.8101L42.2292 95.3112L39.8376 101.256V101.279L33.1864 117.77L31.6376 121.688L31.2959 122.553C31.0226 123.282 31.3414 124.102 32.0931 124.398C32.2526 124.444 32.4348 124.512 32.5942 124.512H79.2431C80.0403 124.512 80.6553 123.897 80.6553 123.1C80.6781 122.895 80.6326 122.713 80.5642 122.553Z" stroke="black" stroke-width="0.721831" stroke-miterlimit="10"/>
<path d="M81.2706 121.642H30.59C28.0161 121.642 25.875 123.761 25.875 126.335C25.875 128.908 27.9933 131.027 30.59 131.027H81.2478C83.8217 131.027 85.9628 128.908 85.9628 126.335C85.9856 123.761 83.8444 121.642 81.2706 121.642ZM81.2706 128.225H30.59C29.5422 128.225 28.7222 127.405 28.7222 126.357C28.7222 125.31 29.5422 124.49 30.59 124.49H81.2478C82.2956 124.49 83.1156 125.287 83.1156 126.357C83.1156 127.405 82.3183 128.225 81.2706 128.225Z" fill="#F8FD13" stroke="#F8FD13" stroke-width="0.721831" stroke-miterlimit="10"/>
<path d="M128.761 78.9795L117.486 59.1628L106.211 39.3234C105.961 38.8906 105.505 38.6173 105.004 38.6173C104.503 38.6173 104.047 38.8906 103.774 39.3234L92.2483 59.0261L80.7227 78.6834C80.3127 79.3667 80.5405 80.2323 81.2239 80.6423C81.4516 80.7561 81.6794 80.8473 81.93 80.8473L127.531 81.1434C128.328 81.1434 128.943 80.5284 128.966 79.7311C128.966 79.4578 128.921 79.2073 128.761 78.9795ZM84.39 78L94.6855 60.4384L104.958 42.8539L115.026 60.5523L125.071 78.2278L84.39 78Z" fill="#C22032" stroke="#C22032" stroke-width="0.721831" stroke-miterlimit="10"/>
<path d="M104.685 50.2112C102.248 50.2112 100.221 52.2156 100.221 54.6756V65.2445C100.221 67.6817 102.225 69.709 104.685 69.709C107.122 69.709 109.15 67.7045 109.15 65.2445V54.6756C109.172 52.2156 107.145 50.2112 104.685 50.2112ZM106.325 65.2217C106.325 66.1556 105.619 66.8617 104.708 66.8617C103.797 66.8617 103.091 66.1556 103.091 65.2217V54.6528C103.091 53.7189 103.797 53.0128 104.708 53.0128C105.619 53.0128 106.325 53.7189 106.325 54.6528V65.2217Z" fill="#C22032"/>
<path d="M107.601 70.8478C106.781 70.3467 105.778 70.0733 104.685 70.0733C103.615 70.0733 102.612 70.3239 101.792 70.8478C100.972 71.3489 100.221 72.26 100.221 73.3989C100.221 74.5378 100.95 75.4261 101.792 75.95C102.612 76.4511 103.615 76.7244 104.685 76.7244C105.756 76.7244 106.758 76.4739 107.601 75.95C108.421 75.4489 109.172 74.5378 109.172 73.3989C109.172 72.26 108.421 71.3717 107.601 70.8478ZM106.28 73.3989C106.257 73.4217 106.188 73.49 106.12 73.5128C105.824 73.6722 105.3 73.8544 104.685 73.8544C104.093 73.8544 103.546 73.695 103.296 73.5128C103.205 73.4672 103.159 73.4217 103.136 73.3989C103.091 73.4444 103.091 73.4444 103.091 73.3989C103.091 73.3533 103.068 73.3533 103.136 73.3989C103.159 73.3761 103.227 73.3078 103.296 73.285C103.569 73.1256 104.093 72.9433 104.685 72.9433C105.277 72.9433 105.824 73.1028 106.097 73.285C106.188 73.3078 106.234 73.3761 106.28 73.3989C106.325 73.3533 106.325 73.3533 106.325 73.3989C106.325 73.4672 106.325 73.4672 106.28 73.3989Z" fill="#C22032"/>
<path d="M174.363 81.9406C174.272 81.9406 174.135 81.9406 174.044 81.9634C174.044 81.9634 162.222 84.8561 159.375 85.4028C158.282 85.6078 157.166 86.1773 155.89 86.9289C154.615 87.635 153.271 88.5461 152.018 89.4345C149.512 91.1884 147.417 92.8511 147.417 92.8511C147.417 92.8511 147.394 92.8511 147.394 92.8739L144.797 95.0606C144.251 95.5161 144.182 96.3361 144.638 96.8828C144.888 97.1789 145.253 97.3384 145.617 97.3384H174.431C175.137 97.3384 175.73 96.7461 175.73 96.04V83.2389C175.661 82.51 175.069 81.9406 174.363 81.9406ZM173.019 94.7189H149.148C149.353 94.5595 151.13 93.17 153.43 91.53C154.66 90.6872 155.958 89.7989 157.097 89.1384C158.259 88.455 159.33 87.9995 159.762 87.9311C162.61 87.3845 170.969 85.3345 172.973 84.8561V94.7189H173.019Z" fill="#CCCBCA" stroke="black" stroke-width="0.721831" stroke-miterlimit="10"/>
<path d="M189.852 156.561H16.1484" stroke="black" stroke-width="5.77465" stroke-miterlimit="10"/>
<path d="M42.8203 141.527H59.4025" stroke="black" stroke-width="5.77465" stroke-miterlimit="10"/>
<path d="M66.9199 141.527H83.4794" stroke="black" stroke-width="5.77465" stroke-miterlimit="10"/>
<path d="M91.0186 141.527H107.578" stroke="black" stroke-width="5.77465" stroke-miterlimit="10"/>
<path d="M115.095 141.527H131.654" stroke="black" stroke-width="5.77465" stroke-miterlimit="10"/>
<path d="M139.193 141.527H155.798" stroke="black" stroke-width="5.77465" stroke-miterlimit="10"/>
</svg>
