<?xml version="1.0" encoding="utf-8"?>
<!-- Generator: Adobe Illustrator 26.0.1, SVG Export Plug-In . SVG Version: 6.00 Build 0)  -->
<svg version="1.1" id="Layer_1" xmlns="http://www.w3.org/2000/svg" xmlns:xlink="http://www.w3.org/1999/xlink" x="0px" y="0px"
	 viewBox="0 0 90 90" style="enable-background:new 0 0 90 90;" xml:space="preserve">
<style type="text/css">
	.st0{fill:#C22133;}
	.st1{fill:#010101;}
	.st2{fill:#CCCBCA;}
	.st3{fill:#F1E91F;}
</style>
<g id="rect4134">
	<path class="st0" d="M26.64,42.73c-0.27-0.93-0.59-1.96-0.94-3.06c-0.1-0.3-0.38-0.51-0.7-0.51h-8.76c-0.32,0-0.6,0.2-0.7,0.5
		c-0.36,1.1-0.68,2.13-0.97,3.05c-0.12,0.39,0.1,0.8,0.49,0.92c0.07,0.02,0.14,0.03,0.22,0.03h10.65c0.41,0,0.74-0.33,0.74-0.73
		C26.67,42.86,26.66,42.79,26.64,42.73z M16.29,42.19c0.16-0.51,0.32-1.02,0.5-1.57h7.67c0.17,0.55,0.33,1.06,0.49,1.57H16.29z"/>
</g>
<g id="rect4142">
	<path class="st0" d="M28.93,49.34C28.93,49.34,28.93,49.34,28.93,49.34c-0.01-0.03-0.02-0.05-0.02-0.07l-1.22-3.04
		c-0.01-0.03-0.02-0.05-0.04-0.07c-0.13-0.24-0.38-0.38-0.65-0.38H14.2c-0.29,0-0.55,0.17-0.67,0.42c-0.01,0.01-0.01,0.02-0.02,0.03
		l-1.22,3.04c0,0.01-0.01,0.01-0.01,0.02c-0.14,0.37,0.04,0.79,0.42,0.94c0.09,0.03,0.18,0.05,0.27,0.05h15.26
		c0.41,0,0.74-0.33,0.74-0.73C28.96,49.48,28.95,49.41,28.93,49.34z M14.06,48.81l0.19-0.48l0.44-1.09h11.81l0.59,1.46l0.04,0.11
		H14.06z"/>
</g>
<g id="rect4142_00000027593721761859409100000007985056900177968793_">
	<path class="st0" d="M31.29,56.38C31.29,56.38,31.29,56.38,31.29,56.38c-0.01-0.03-0.02-0.05-0.03-0.07l-1.57-3.04
		c-0.01-0.03-0.03-0.05-0.05-0.07c-0.16-0.24-0.48-0.38-0.83-0.38H12.38c-0.37,0-0.71,0.17-0.86,0.42
		c-0.01,0.01-0.01,0.02-0.02,0.03l-1.57,3.04c0,0.01-0.01,0.01-0.01,0.02c-0.18,0.37,0.06,0.79,0.53,0.94
		c0.11,0.03,0.23,0.05,0.35,0.05h19.58c0.52,0,0.95-0.33,0.95-0.73C31.33,56.52,31.32,56.45,31.29,56.38z M12.21,55.85l0.25-0.48
		l0.57-1.09h15.16l0.75,1.46l0.05,0.11H12.21z"/>
</g>
<g id="path4063">
	<path class="st1" d="M85.21,34.63C85.21,34.63,85.21,34.63,85.21,34.63c0,0-1.44,0.01-8.28,1.2c-7.04,1.23-14.05,7.32-14.3,7.54
		c-11.35,1.19-20.42,5.96-20.42,5.96c-0.23,0.12-0.38,0.35-0.39,0.6l-0.47,7.89l-0.03,0.45c-0.01,0.11,0.01,0.21,0.05,0.31
		c0.27,0.68,0.83,1.11,1.46,1.52c0.63,0.41,1.38,0.76,2.09,1.06c1.43,0.61,2.76,1,2.76,1c0.39,0.12,0.8-0.1,0.92-0.49
		c0.03-0.1,0.04-0.2,0.03-0.31c-0.14-1.07-0.19-2.31-0.07-3.55c0.11-1.2,0.38-2.4,0.88-3.44c1.01-2.12,2.83-3.67,6.56-3.67
		c1.81,0,3.1,0.58,4.09,1.47c1,0.88,1.7,2.1,2.17,3.35c0.3,0.79,0.51,1.58,0.66,2.3c0.32,1.55,0.33,2.74,0.33,2.74
		c0,0.4,0.33,0.73,0.74,0.73h21.2c0.41,0,0.74-0.33,0.74-0.74c0,0,0,0,0,0V35.37C85.94,34.96,85.61,34.63,85.21,34.63z M84.46,59.82
		H64.6c-0.01-0.33-0.01-1.02-0.17-2c-0.13-0.78-0.35-1.74-0.77-2.82c-0.54-1.4-1.34-2.83-2.58-3.93c-1.24-1.1-2.93-1.84-5.07-1.84
		c-4.17,0-6.69,1.99-7.9,4.51c-0.62,1.3-0.9,2.7-0.99,4.07c-0.06,0.88-0.04,1.76,0.02,2.58c-0.49-0.16-0.8-0.24-1.64-0.59
		c-0.67-0.28-1.35-0.61-1.87-0.95c-0.48-0.31-0.75-0.62-0.83-0.76l0.02-0.28l0.43-7.35c0.53-0.28,8.95-4.63,19.76-5.7
		c0.15-0.01,0.3-0.07,0.41-0.17c0,0,7.27-6.19,13.74-7.32c6.18-1.08,7.05-1.06,7.29-1.07V59.82z"/>
</g>
<g id="path4065">
	<path class="st2" d="M62.04,57.84c-0.09-3.44-2.92-6.22-6.4-6.22c-3.47,0-6.32,2.78-6.4,6.22c0,0.05,0,0.1,0,0.16
		c0,3.51,2.88,6.37,6.41,6.37c3.53,0,6.4-2.86,6.4-6.37C62.04,57.94,62.04,57.89,62.04,57.84z M55.64,63.01
		c-2.79,0-5.04-2.23-5.04-5.01c0-0.05,0-0.1,0-0.16c0.08-2.7,2.3-4.85,5.03-4.85c2.74,0,4.95,2.15,5.03,4.85c0,0.05,0,0.1,0,0.16
		C60.68,60.77,58.43,63.01,55.64,63.01z"/>
</g>
<g id="path4123">
	<path class="st1" d="M33.37,60.32l-0.19-0.46l-0.82-2.04l-3.43-8.49c0,0,0,0,0-0.01l-1.28-3.17l-0.07-0.18l0-0.01
		c0-0.01-1.06-3.95-2.37-7.88c-0.66-1.97-1.38-3.93-2.09-5.42c-0.35-0.75-0.7-1.38-1.07-1.86c-0.18-0.24-0.38-0.44-0.61-0.61
		c-0.24-0.17-0.56-0.31-0.92-0.26c-0.69,0.08-1.02,0.54-1.38,1.04c-0.35,0.5-0.7,1.15-1.05,1.9c-0.71,1.51-1.43,3.46-2.09,5.39
		c-1.31,3.85-2.35,7.62-2.36,7.67l-0.11,0.27l-1.24,3.07c0,0.01-0.01,0.01-0.01,0.02l-3.45,8.54l-0.82,2.04l-0.18,0.46
		c-0.15,0.38,0.03,0.8,0.41,0.96c0.09,0.03,0.18,0.05,0.27,0.05h24.18c0.41,0,0.74-0.33,0.74-0.73
		C33.43,60.5,33.41,60.41,33.37,60.32z M9.6,59.86l0.82-2.04l3.04-7.55l0.59-1.47l0.19-0.48l0.76-1.89
		c0.01-0.03,0.02-0.05,0.03-0.08c0,0,0.06-0.21,0.17-0.59c0.14-0.48,0.35-1.22,0.62-2.12c0.38-1.28,0.88-2.88,1.43-4.5
		c0.05-0.14,0.09-0.28,0.14-0.42c0.65-1.91,1.36-3.83,2.03-5.25c0.33-0.71,0.65-1.3,0.92-1.68c0.18-0.26,0.29-0.33,0.31-0.35
		c0,0-0.01-0.01-0.01-0.01c0.01,0,0.01,0.01,0.01,0.01c0.06,0.05,0.13,0.11,0.23,0.24c0.26,0.33,0.58,0.9,0.91,1.59
		c0.66,1.39,1.37,3.32,2.02,5.26c0.07,0.2,0.13,0.4,0.2,0.6c0.53,1.63,1.01,3.23,1.39,4.5c0.26,0.9,0.47,1.64,0.6,2.12
		c0.1,0.37,0.16,0.58,0.16,0.58c0.01,0.03,0.02,0.06,0.03,0.08l0.32,0.8l0.59,1.46l0.04,0.11l0.59,1.47l3.05,7.55l0.82,2.04H9.6z"/>
</g>
<g id="rect4125">
	<path class="st3" d="M33.73,59.86H7.47c-1.34,0-2.45,1.1-2.45,2.44c0,1.34,1.1,2.44,2.45,2.44h26.26c1.34,0,2.45-1.1,2.45-2.44
		C36.18,60.97,35.07,59.86,33.73,59.86z M33.73,63.27H7.47c-0.55,0-0.97-0.42-0.97-0.97c0-0.55,0.42-0.97,0.97-0.97h26.26
		c0.55,0,0.97,0.42,0.97,0.97C34.7,62.85,34.28,63.27,33.73,63.27z"/>
</g>
<g id="path4160">
	<path class="st0" d="M58.42,37.68l-5.91-10.23L46.6,17.2c-0.13-0.22-0.37-0.37-0.63-0.37c-0.26,0-0.51,0.14-0.64,0.37l-5.91,10.24
		l-5.91,10.23c-0.2,0.35-0.08,0.8,0.27,1.01c0.11,0.06,0.24,0.1,0.37,0.1h23.64c0.4,0,0.74-0.33,0.74-0.74
		C58.52,37.92,58.49,37.79,58.42,37.68z M35.42,37.31l5.27-9.13l5.27-9.14l5.27,9.14l5.27,9.13H35.42z"/>
</g>
<g id="rect4162">
	<path class="st0" d="M45.87,22.84c-1.27,0-2.31,1.04-2.31,2.31v5.48c0,1.27,1.04,2.31,2.31,2.31c1.27,0,2.32-1.05,2.32-2.31v-5.48
		C48.19,23.89,47.14,22.84,45.87,22.84z M46.72,30.63c0,0.48-0.37,0.85-0.85,0.85c-0.48,0-0.84-0.37-0.84-0.85v-5.48
		c0-0.48,0.36-0.85,0.84-0.85c0.48,0,0.85,0.36,0.85,0.85V30.63z"/>
</g>
<g id="path14593">
	<path class="st2" d="M82.74,36.91c-0.06,0-0.12,0.01-0.18,0.02c0,0-6.7,1.64-8.32,1.94c-0.62,0.12-1.25,0.45-1.97,0.86
		c-0.72,0.41-1.48,0.92-2.2,1.42c-1.42,0.99-2.62,1.94-2.62,1.94c-0.01,0-0.01,0.01-0.02,0.01l-1.48,1.22
		c-0.31,0.26-0.35,0.72-0.09,1.04c0.14,0.17,0.34,0.26,0.56,0.26h16.3c0.41,0,0.74-0.33,0.74-0.74v-7.24
		C83.47,37.24,83.14,36.91,82.74,36.91z M82,44.15H68.49c0.11-0.08,1.12-0.88,2.43-1.79c0.69-0.48,1.43-0.98,2.08-1.36
		c0.66-0.38,1.27-0.64,1.51-0.68c1.62-0.31,6.34-1.47,7.48-1.75V44.15z"/>
</g>
<g>
	<rect x="0" y="70.96" class="st1" width="90" height="2.21"/>
</g>
<g>
	<rect x="13.81" y="65.89" class="st1" width="8.59" height="2.21"/>
</g>
<g>
	<rect x="26.3" y="65.89" class="st1" width="8.59" height="2.21"/>
</g>
<g>
	<rect x="38.78" y="65.89" class="st1" width="8.59" height="2.21"/>
</g>
<g>
	<rect x="51.27" y="65.89" class="st1" width="8.59" height="2.21"/>
</g>
<g>
	<rect x="63.76" y="65.89" class="st1" width="8.59" height="2.21"/>
</g>
<g>
	<path class="st0" d="M45.96,37.01c-1.07,0-1.94-0.87-1.94-1.94s0.87-1.94,1.94-1.94S47.9,34,47.9,35.07S47.03,37.01,45.96,37.01z
		 M45.96,34.38c-0.38,0-0.69,0.31-0.69,0.69s0.31,0.69,0.69,0.69s0.69-0.31,0.69-0.69S46.34,34.38,45.96,34.38z"/>
</g>
</svg>
