<svg width="149" height="149" viewBox="0 0 149 149" fill="none" xmlns="http://www.w3.org/2000/svg">
<path d="M88.7191 146.176C88.7191 147.117 89.482 147.88 90.4232 147.88C91.3643 147.88 92.1273 147.117 92.1273 146.176V110.43C92.1273 109.489 91.3643 108.726 90.4232 108.726C89.482 108.726 88.7191 109.489 88.7191 110.43V146.176Z" fill="#EC2317" stroke="black" stroke-width="0.878296"/>
<path d="M16.4209 147.88H128.293C131.558 147.88 134.214 145.225 134.214 141.96V112.937C134.214 111.996 133.451 111.233 132.51 111.233C131.569 111.233 130.806 111.996 130.806 112.937V141.96C130.806 143.345 129.678 144.472 128.293 144.472H16.4209C15.0359 144.472 13.9085 143.345 13.9085 141.96V110.43C13.9085 109.489 13.1455 108.726 12.2044 108.726C11.2633 108.726 10.5003 109.489 10.5003 110.43V141.96C10.5003 145.225 13.1559 147.88 16.4209 147.88Z" fill="#EC2317" stroke="black" stroke-width="0.878296"/>
<path d="M18.678 94.0518C18.678 94.9929 19.4409 95.7559 20.3821 95.7559C21.3233 95.7559 22.0862 94.993 22.0862 94.0518C22.0862 94.0518 22.0862 94.0518 22.0862 94.0518L22.0862 68.0221C22.0862 67.081 21.3232 66.318 20.3821 66.318C19.441 66.318 18.678 67.0809 18.678 68.0221V94.0518Z" fill="#C22032" stroke="black" stroke-width="0.878296"/>
<path d="M36.3284 82.3881C36.3284 83.3292 37.0913 84.0922 38.0325 84.0922C38.9736 84.0922 39.7366 83.3292 39.7366 82.3881V68.0221C39.7366 67.081 38.9736 66.318 38.0325 66.318C37.0914 66.318 36.3284 67.081 36.3284 68.0221V82.3881Z" fill="#C22032" stroke="black" stroke-width="0.878296"/>
<path d="M19.3373 69.7262H39.0493C40.9193 69.7262 42.44 68.2056 42.44 66.3355V64.1869C42.44 62.3169 40.9193 60.7962 39.0493 60.7962H19.3373C17.4672 60.7962 15.9466 62.3169 15.9466 64.1869V66.3355C15.9466 68.2056 17.4673 69.7262 19.3373 69.7262ZM19.3548 64.2045H39.0318V66.3181H19.3548V64.2045Z" fill="#C22032" stroke="black" stroke-width="0.878296"/>
<path d="M8.79875 111.131L8.5581 110.763C7.87937 111.208 7.03227 111.345 6.23482 111.137L6.23477 111.137C5.42908 110.926 4.77759 110.406 4.39379 109.667L4.00411 109.87L4.39379 109.667C4.08735 109.077 4.05039 108.324 4.26694 107.595C4.48306 106.867 4.94031 106.204 5.56341 105.796L5.32509 105.432L5.56342 105.796L44.7072 80.1549L44.4666 79.7875L44.7072 80.1549C47.5799 78.2731 50.9128 77.2787 54.347 77.2787H57.0059C57.9471 77.2787 58.71 76.5157 58.71 75.5746C58.71 74.6334 57.9471 73.8704 57.0059 73.8704H54.347C50.248 73.8704 46.2685 75.0578 42.8397 77.3039L3.69594 102.945C2.43031 103.774 1.45455 105.119 1.00457 106.634C0.532425 108.224 0.654016 109.862 1.36955 111.239C2.19058 112.819 3.64925 113.983 5.37236 114.434C7.09851 114.886 8.94003 114.587 10.4257 113.614L10.1851 113.247L10.4257 113.614L51.2797 86.8527L87.9073 110.782C88.2815 111.101 89.5278 112.103 91.4269 113.012C93.7783 114.138 96.2883 114.718 98.783 114.718C99.3893 114.718 99.9945 114.684 100.596 114.615L137.51 114.611C140.024 114.699 142.349 113.296 143.437 111.027C143.994 109.864 144.166 108.569 143.936 107.283C143.716 106.056 143.147 104.918 142.292 103.992C141.654 103.3 140.575 103.257 139.884 103.895C139.192 104.534 139.149 105.612 139.787 106.303C140.653 107.241 140.86 108.517 140.364 109.553C139.86 110.604 138.779 111.253 137.612 111.205L137.611 111.205C137.589 111.204 137.566 111.203 137.542 111.203L100.496 111.207C100.428 111.207 100.359 111.211 100.291 111.219L100.291 111.219C97.825 111.518 95.3654 111.103 92.9742 109.974C91.1834 109.129 90.106 108.178 90.0816 108.157C90.0815 108.157 90.0814 108.157 90.0814 108.157L90.0813 108.157L89.7883 108.484C89.7385 108.439 89.6853 108.397 89.6291 108.361M8.79875 111.131L89.8693 107.993L89.6291 108.361M8.79875 111.131L8.55812 110.763L50.3447 83.3909L50.3447 83.3908C50.9112 83.0199 51.6435 83.0194 52.2104 83.3897L52.2105 83.3897L89.8692 107.993M8.79875 111.131L89.8692 107.993M89.6291 108.361L89.8692 107.993M89.6291 108.361L89.8692 107.993" fill="#F96512" stroke="black" stroke-width="0.878296"/>
<path d="M57.9164 101.155L58.2269 100.845C60.2604 102.878 61.3812 105.584 61.3812 108.46C61.3812 111.336 60.2604 114.042 58.2268 116.075C56.1933 118.109 53.4875 119.229 50.6117 119.229C47.7359 119.229 45.0299 118.109 42.9964 116.075C40.9629 114.042 39.8421 111.336 39.8421 108.46C39.8421 105.584 40.9629 102.878 42.9964 100.845C42.9964 100.845 42.9964 100.845 42.9965 100.845M57.9164 101.155H43.307L42.9965 100.845M57.9164 101.155L58.2269 100.845C56.1934 98.8112 53.4875 97.6904 50.6117 97.6904C47.7358 97.6904 45.0299 98.8112 42.9965 100.845M57.9164 101.155L42.9965 100.845M43.2503 108.46C43.2503 104.401 46.553 101.099 50.6117 101.099C54.6703 101.099 57.973 104.401 57.973 108.46C57.973 112.519 54.6703 115.821 50.6117 115.821C46.553 115.821 43.2503 112.519 43.2503 108.46Z" fill="#C22032" stroke="black" stroke-width="0.878296"/>
<path d="M89.1371 68.7546L89.1377 68.7552C90.1924 69.6798 91.5213 70.1787 92.9125 70.1787C93.04 70.1787 93.168 70.1745 93.2963 70.166C94.8247 70.0656 96.2246 69.3749 97.2343 68.2232L97.2343 68.2232C98.2441 67.0714 98.7457 65.5931 98.6452 64.0647C98.5448 62.5368 97.8546 61.137 96.7063 60.13C96.706 60.1298 96.7058 60.1296 96.7056 60.1294L77.2837 42.9865L77.2837 42.9865V42.9865C76.5781 42.3637 75.5012 42.4309 74.8784 43.1364L74.8784 43.1364C74.2557 43.842 74.3227 44.9189 75.0283 45.5417L94.4545 62.6884L94.4556 62.6894C94.9241 63.1001 95.2036 63.6665 95.2444 64.2882L95.2444 64.2882C95.2852 64.9099 95.0823 65.508 94.6716 65.9765C94.2608 66.445 93.6944 66.7244 93.0727 66.7652L93.0726 66.7653C92.4515 66.8063 91.853 66.6031 91.3866 66.1943C91.3865 66.1942 91.3865 66.1942 91.3864 66.1941L71.5413 48.7256C71.5413 48.7256 71.5413 48.7256 71.5413 48.7256C70.8348 48.1037 69.7581 48.1723 69.1362 48.8788C68.5144 49.5852 68.5829 50.662 69.2894 51.2839L89.1371 68.7546ZM95.0018 66.266C95.4893 65.7099 95.7311 64.9973 95.6826 64.2594L91.0969 66.5243C91.651 67.0102 92.3642 67.2521 93.1015 67.2034C93.8394 67.155 94.5142 66.822 95.0018 66.266Z" fill="#818181" stroke="black" stroke-width="0.878296"/>
<path d="M46.0132 30.958L46.0132 30.958C46.3414 31.2636 46.7589 31.415 47.1743 31.415C47.6299 31.415 48.086 31.2327 48.4216 30.8724L48.4216 30.8723C49.0631 30.1836 49.0246 29.1053 48.3359 28.4639L48.0366 28.7853L48.3359 28.4639L40.4712 21.1397C40.4712 21.1397 40.4712 21.1397 40.4712 21.1397C39.7825 20.4983 38.7043 20.5367 38.0628 21.2254L38.0628 21.2254C37.4214 21.9141 37.4598 22.9924 38.1485 23.6338L38.1485 23.6338L46.0132 30.958Z" fill="#818181" stroke="black" stroke-width="0.878296"/>
<path d="M43.7414 17.893L43.7414 17.893L51.704 25.2722C51.704 25.2722 51.704 25.2722 51.704 25.2722C52.0318 25.5761 52.4481 25.7265 52.862 25.7265C53.319 25.7265 53.7764 25.543 54.1122 25.1806C54.7519 24.4904 54.7109 23.4122 54.0206 22.7725L54.0206 22.7725L46.058 15.3933C46.058 15.3933 46.058 15.3933 46.058 15.3933C45.3677 14.7535 44.2895 14.7945 43.6498 15.4848C43.0101 16.1751 43.0511 17.2533 43.7414 17.893Z" fill="#818181" stroke="black" stroke-width="0.878296"/>
<path d="M78.344 73.9712L78.344 73.9712L91.7701 86.1842L91.5149 86.5417C91.5149 86.5417 91.5149 86.5417 91.5149 86.5417C91.8146 86.7556 92.1611 86.8589 92.5039 86.8589C93.0345 86.8589 93.5592 86.6109 93.892 86.1447L93.892 86.1447C94.4388 85.3787 94.261 84.3144 93.495 83.7677C92.2554 82.8828 91.0803 81.8877 90.0028 80.8102L89.6923 81.1207L90.0028 80.8102L80.7539 71.5613C80.7539 71.5613 80.7539 71.5613 80.7539 71.5613C80.4235 71.2308 80.2424 70.7937 80.2424 70.3265C80.2424 69.8661 80.4181 69.4352 80.739 69.1067L86.1166 64.0375C86.1166 64.0375 86.1166 64.0375 86.1166 64.0375C86.8015 63.392 86.8333 62.3135 86.1877 61.6286C85.5421 60.9437 84.4636 60.912 83.7788 61.5575L83.7788 61.5575L78.38 66.6468L78.38 66.6468C78.3676 66.6585 78.3557 66.6701 78.344 66.6818C77.371 67.6547 76.8343 68.9505 76.8343 70.3265C76.8343 71.7024 77.3711 72.9983 78.344 73.9712Z" fill="#818181" stroke="black" stroke-width="0.878296"/>
<path d="M113.447 69.0074L113.447 69.0074C113.779 69.3408 114.217 69.5076 114.653 69.5076C115.088 69.5076 115.524 69.3415 115.857 69.0096C116.523 68.3448 116.524 67.2658 115.859 66.5997L115.548 66.9099L115.859 66.5997L101.656 52.3698L101.655 52.3695C99.6453 50.3595 96.3758 50.3596 94.3659 52.3695L90.2465 56.4889L90.2465 56.489C89.581 57.1545 89.581 58.2334 90.2465 58.8989L90.2465 58.8989C90.912 59.5644 91.991 59.5644 92.6565 58.8989L96.7759 54.7794L96.7759 54.7794C97.4565 54.0988 98.5648 54.099 99.2445 54.7784C99.2445 54.7785 99.2446 54.7785 99.2446 54.7786L113.447 69.0074Z" fill="#818181" stroke="black" stroke-width="0.878296"/>
<path d="M24.9085 11.3024L24.9085 11.3024C23.2575 12.9535 23.2575 15.6391 24.9085 17.2901L29.1849 21.5665C31.1897 23.5713 33.8234 24.5734 36.4552 24.5734C39.087 24.5734 41.7207 23.5713 43.7255 21.5665L43.415 21.256L43.7255 21.5665L44.0027 21.2893C48.0119 17.2802 48.0119 10.7579 44.0027 6.74883L39.7263 2.47244C38.9272 1.67335 37.8626 1.23231 36.7325 1.23231C35.6023 1.23231 34.5377 1.6733 33.7386 2.4724L24.9085 11.3024ZM37.3162 4.88233L37.3163 4.8824L41.5927 9.15878C44.2724 11.8385 44.2724 16.1997 41.5927 18.8794L41.3155 19.1566C38.6357 21.8363 34.2745 21.8363 31.5948 19.1566L27.3185 14.8803C27.3185 14.8803 27.3185 14.8803 27.3184 14.8802C26.9968 14.5585 26.9968 14.034 27.3185 13.7123L36.1485 4.88238C36.1485 4.88237 36.1485 4.88236 36.1485 4.88235C36.3051 4.72581 36.511 4.6405 36.7324 4.6405C36.9538 4.6405 37.1597 4.72583 37.3162 4.88233Z" fill="#818181" stroke="black" stroke-width="0.878296"/>
<path d="M63.9089 23.3886L63.9089 23.3885C63.2434 22.7231 62.1645 22.723 61.4989 23.3885L47.2517 37.6358C45.1431 39.7444 45.1431 43.1744 47.2517 45.283C48.2725 46.3038 49.6318 46.8669 51.0754 46.8669C52.5189 46.8669 53.8783 46.3038 54.899 45.283C55.5645 44.6175 55.5645 43.5385 54.899 42.873C54.2335 42.2075 53.1546 42.2076 52.4891 42.873C52.1108 43.2513 51.6102 43.4586 51.0754 43.4586C50.5405 43.4586 50.0399 43.2513 49.6617 42.873C48.8824 42.0938 48.8824 40.8249 49.6617 40.0457L63.9089 25.7985L63.9089 25.7985C64.5743 25.133 64.5743 24.0541 63.9089 23.3886Z" fill="#F4C9B6" stroke="black" stroke-width="0.878296"/>
<path d="M52.0597 51.0068L52.0597 51.0068C51.6796 50.6306 51.4695 50.1311 51.4667 49.5962C51.4639 49.0614 51.6686 48.5597 52.0449 48.1794L69.4366 30.6033C70.0986 29.9343 70.0929 28.8554 69.4239 28.1934C68.7549 27.5314 67.6759 27.5371 67.014 28.2061L49.6222 45.7822L49.9344 46.0911L49.6222 45.7822C47.5247 47.9019 47.5428 51.3319 49.6625 53.4294L49.9714 53.1172L49.6625 53.4294C50.7153 54.4711 52.0916 54.9907 53.4657 54.9907C54.8588 54.9907 56.2536 54.4564 57.3097 53.3892L56.9976 53.0803L57.3097 53.3892L75.1733 35.3362C75.1733 35.3362 75.1733 35.3362 75.1733 35.3362C75.8353 34.6672 75.8296 33.5882 75.1606 32.9262C74.4916 32.2643 73.4126 32.2699 72.7507 32.9389L54.8871 50.9919C54.112 51.7752 52.8431 51.782 52.0597 51.0068Z" fill="#F4C9B6" stroke="black" stroke-width="0.878296"/>
<path d="M55.1562 55.6468L54.7192 55.6904C54.5131 53.6236 55.0184 51.5306 56.1436 49.7953C56.6555 49.0056 57.7109 48.7805 58.5005 49.2926C59.2902 49.8046 59.5153 50.8598 59.0032 51.6495C57.538 53.9092 57.8593 56.9387 59.7683 58.8477C59.7683 58.8477 59.7683 58.8477 59.7683 58.8477M55.1562 55.6468L68.2188 59.1607C65.8025 61.5742 61.873 61.5735 59.4577 59.1582L59.7683 58.8477M55.1562 55.6468L54.7192 55.6904C54.9284 57.7882 55.8656 59.7648 57.3584 61.2576C59.1456 63.0448 61.4935 63.9381 63.8395 63.9381C66.1856 63.9381 68.5335 63.0448 70.3208 61.2577L70.3207 61.2576L70.3291 61.2493L70.3291 61.2493L70.3305 61.2479L76.2087 55.2876C76.8696 54.6175 76.862 53.5385 76.192 52.8777C75.5219 52.2168 74.4429 52.2243 73.7821 52.8944L73.782 52.8944L67.9085 58.85C67.9081 58.8504 67.9077 58.8508 67.9074 58.8511M55.1562 55.6468L67.9074 58.8511M59.7683 58.8477C62.0117 61.0911 65.6625 61.0922 67.9074 58.8511M59.7683 58.8477L67.9074 58.8511" fill="#F4C9B6" stroke="black" stroke-width="0.878296"/>
<path d="M84.1335 51.2579L83.823 50.9474L84.7781 49.9923L85.0886 50.3028L84.7781 49.9923C90.8973 43.8731 92.6016 34.8003 89.1209 26.8726L89.523 26.696L89.1209 26.8726C88.8406 26.2342 88.9775 25.4895 89.4664 24.9924L108.48 5.66513C108.833 5.30534 108.709 4.9024 108.652 4.76695L108.652 4.76686C108.596 4.63137 108.395 4.26024 107.891 4.26024H84.4673C83.7976 4.26024 83.1695 4.51953 82.6949 4.992L82.6949 4.99202L73.7228 13.9229C73.7228 13.9229 73.7228 13.923 73.7228 13.923C73.3155 14.3284 72.731 14.5015 72.1684 14.3825C68.4155 13.5904 64.565 14.7298 61.8652 17.4296L47.1336 32.1611C46.3319 32.9629 46.2588 34.1932 46.8851 34.9514L46.5465 35.2311L46.8851 34.9514C47.2551 35.3994 47.7693 35.6573 48.3386 35.6844C48.9007 35.7112 49.4513 35.4983 49.8484 35.1011L50.159 35.4116L49.8484 35.1011C50.514 34.4356 51.5929 34.4357 52.2584 35.1011L52.2584 35.1011C52.9238 35.7666 52.9238 36.8455 52.2584 37.511L51.9479 37.2005L52.2584 37.5111C51.1832 38.5862 49.6957 39.1612 48.1766 39.0887C48.1766 39.0887 48.1766 39.0887 48.1765 39.0887L48.1975 38.6501C46.8027 38.5837 45.4899 37.9247 44.5958 36.842C43.7965 35.8741 43.4123 34.6339 43.5141 33.3499C43.6123 32.1115 44.1522 30.9437 45.0342 30.0616L84.1335 51.2579ZM84.1335 51.2579L83.823 50.9474C83.1575 51.6129 83.1575 52.6919 83.823 53.3574C84.1557 53.69 84.5925 53.8565 85.0279 53.8565C85.4634 53.8565 85.9003 53.6899 86.2329 53.3574L86.233 53.3574L87.1881 52.4022C90.7083 48.882 93.0317 44.4384 93.9055 39.5537C94.3261 37.2021 94.3984 34.8055 94.1205 32.4307C93.8855 30.4225 93.4035 28.4599 92.6845 26.5811L110.909 8.05524C112.125 6.81903 112.466 5.04902 111.796 3.4497C111.126 1.85032 109.625 0.852005 107.891 0.852005H84.4673C82.8918 0.852005 81.4071 1.46498 80.2905 2.57647L71.9462 10.8825L84.1335 51.2579Z" fill="#F4C9B6" stroke="black" stroke-width="0.878296"/>
<path d="M81.5768 38.8426L81.5767 38.8426C80.9112 38.1771 79.8323 38.1771 79.1668 38.8426L65.3578 52.6516C64.6923 53.3171 64.6923 54.396 65.3578 55.0615C65.6905 55.3942 66.1274 55.5606 66.5628 55.5606C66.9982 55.5606 67.4351 55.3941 67.7678 55.0616L67.7678 55.0615L81.5768 41.2525L81.5768 41.2525C82.2422 40.587 82.2422 39.5081 81.5768 38.8426Z" fill="#F4C9B6" stroke="black" stroke-width="0.878296"/>
<path d="M140.51 89.1764C140.604 88.6545 140.651 88.1243 140.651 87.5882C140.651 85.0933 139.633 82.7621 137.891 81.0815C138.261 80.705 138.593 80.2898 138.88 79.8414C139.671 78.6088 140.088 77.1804 140.088 75.7119C140.088 71.4781 136.645 68.0344 132.411 68.0344H122.53C121.589 68.0344 120.826 68.7974 120.826 69.7385C120.826 70.6797 121.589 71.4426 122.53 71.4426H132.411C134.765 71.4426 136.68 73.3582 136.68 75.7119C136.68 77.3576 135.758 78.8267 134.268 79.5498C133.69 79.8304 133.319 80.4125 133.308 81.0552C133.298 81.6978 133.65 82.2918 134.219 82.5911C136.085 83.5729 137.242 85.4873 137.242 87.5883C137.242 88.4228 137.058 89.2353 136.691 90.006C136.44 90.534 136.477 91.1539 136.789 91.6482C137.101 92.1425 137.645 92.4423 138.23 92.4423H138.905C142.018 92.4423 144.551 94.9753 144.551 98.088C144.551 101.201 142.018 103.734 138.905 103.734H95.9799C92.8672 103.734 90.3342 101.201 90.3342 98.088C90.3342 97.2536 90.519 96.441 90.8856 95.6703L140.51 89.1764ZM140.51 89.1764C144.74 89.936 147.959 93.6423 147.959 98.088C147.959 103.081 143.898 107.142 138.905 107.142H95.9799C90.9871 107.142 86.9259 103.081 86.9259 98.0881C86.9259 97.6008 86.9649 97.1181 87.0426 96.6423M140.51 89.1764L87.0426 96.6423M87.0426 96.6423H80.8006C75.8079 96.6423 71.7466 92.5811 71.7466 87.5884C71.7466 87.1009 71.7856 86.6183 71.8632 86.1425H68.4323C63.4395 86.1425 59.3782 82.0813 59.3782 77.0885C59.3782 72.0957 63.4395 68.0345 68.4323 68.0345H78.5903C79.5315 68.0345 80.2944 68.7975 80.2944 69.7386C80.2944 70.6798 79.5314 71.4426 78.5903 71.4426H68.4323C65.3195 71.4426 62.7864 73.9757 62.7864 77.0884C62.7864 80.2012 65.3195 82.7342 68.4323 82.7342H74.1675C74.7523 82.7342 75.2961 83.034 75.6083 83.5283L75.6084 83.5283C75.9206 84.0227 75.9575 84.6426 75.7063 85.1705C75.3396 85.9411 75.1548 86.7537 75.1548 87.5882C75.1548 90.7009 77.6879 93.234 80.8006 93.234H89.3469C89.9316 93.234 90.4754 93.5338 90.7876 94.0281L90.7876 94.0281C91.0998 94.5224 91.1369 95.1423 90.8857 95.6702L87.0426 96.6423Z" fill="#FCBC50" stroke="black" stroke-width="0.878296"/>
<path d="M107.851 75.7394L107.851 75.7394L108.513 74.5416L108.927 74.6879C108.927 74.6879 108.927 74.6879 108.927 74.6879C110.059 71.4853 113.097 69.3338 116.485 69.3338C120.909 69.3338 124.509 72.9338 124.509 77.3578V86.5276C124.509 88.7093 122.733 90.4849 120.551 90.4849H97.9058C95.7242 90.4849 93.9486 88.7093 93.9486 86.5276C93.9486 84.346 95.7241 82.5704 97.9058 82.5704L99.681 82.5703C100.275 82.5703 100.825 82.2616 101.135 81.7553C101.444 81.2491 101.468 80.6181 101.198 80.0899L101.198 80.0898C100.937 79.5804 100.806 79.038 100.806 78.4741C100.806 76.5123 102.403 74.9155 104.365 74.9155C105.082 74.9155 105.772 75.1277 106.362 75.5292L106.362 75.5292C106.799 75.8264 107.349 75.904 107.851 75.7394ZM97.9058 93.8931H120.551C124.613 93.8931 127.917 90.5894 127.917 86.5275V77.3577C127.917 74.305 126.727 71.4327 124.568 69.274C122.41 67.1154 119.537 65.9256 116.485 65.9256C112.288 65.9256 108.471 68.2387 106.484 71.8361C105.804 71.6189 105.091 71.5073 104.365 71.5073C100.523 71.5073 97.3978 74.6322 97.3978 78.4741C97.3978 78.7103 97.4095 78.9447 97.4329 79.1772C93.5907 79.4217 90.5403 82.6248 90.5403 86.5276C90.5403 90.5894 93.8441 93.8931 97.9058 93.8931Z" fill="#FCBC50" stroke="black" stroke-width="0.878296"/>
<path d="M108.682 102.181L108.682 102.181C109.014 102.513 109.451 102.68 109.887 102.68C110.322 102.68 110.759 102.513 111.091 102.181L111.092 102.181C111.757 101.515 111.757 100.436 111.092 99.7707L111.092 99.7707L102.305 90.9841L102.305 90.984C101.639 90.3187 100.56 90.3187 99.8949 90.984L99.8949 90.9841C99.2295 91.6496 99.2294 92.7285 99.8949 93.3941L99.8949 93.3941L108.682 102.181Z" fill="#FCBC50" stroke="black" stroke-width="0.878296"/>
<path d="M120.348 102.181L120.348 102.181C120.68 102.513 121.117 102.68 121.553 102.68C121.988 102.68 122.425 102.513 122.757 102.181L122.758 102.181C123.423 101.515 123.423 100.436 122.758 99.7707L122.758 99.7706L113.971 90.9841L113.971 90.984C113.305 90.3187 112.226 90.3186 111.561 90.984L111.561 90.9841C110.895 91.6496 110.895 92.7285 111.561 93.394L111.561 93.3941L120.348 102.181Z" fill="#FCBC50" stroke="black" stroke-width="0.878296"/>
<path d="M131.802 102.181L131.802 102.181C132.135 102.513 132.571 102.68 133.007 102.68C133.442 102.68 133.879 102.513 134.212 102.181L134.212 102.181C134.877 101.515 134.877 100.436 134.212 99.7706L134.212 99.7706L124.655 90.2133L124.654 90.2133C123.989 89.5479 122.91 89.5479 122.245 90.2133L122.244 90.2134C121.579 90.8789 121.579 91.9578 122.245 92.6233L122.245 92.6233L131.802 102.181Z" fill="#FCBC50" stroke="black" stroke-width="0.878296"/>
</svg>
