<?xml version="1.0" encoding="utf-8"?>
<!-- Generator: Adobe Illustrator 26.0.1, SVG Export Plug-In . SVG Version: 6.00 Build 0)  -->
<svg version="1.1" id="Layer_1" xmlns="http://www.w3.org/2000/svg" xmlns:xlink="http://www.w3.org/1999/xlink" x="0px" y="0px"
	 viewBox="0 0 90 90" style="enable-background:new 0 0 90 90;" xml:space="preserve">
<style type="text/css">
	.st0{fill:#FCBC51;}
	.st1{fill:#F26622;}
	.st2{fill:#C22033;}
	.st3{fill:#828282;}
	.st4{fill:#F4CAB7;}
</style>
<g>
	<g>
		<path class="st0" d="M87.65,58.82c0,2.77-2.25,5.02-5.02,5.02H57.61c-2.77,0-5.02-2.25-5.02-5.02c0-0.37,0.04-0.74,0.12-1.1h-3.95
			c-2.77,0-5.02-2.25-5.02-5.02c0-0.37,0.04-0.74,0.12-1.1h-2.31c-2.77,0-5.02-2.25-5.02-5.02c0-2.77,2.25-5.02,5.02-5.02h5.92
			c0.41,0,0.74,0.33,0.74,0.74c0,0.03,0,0.06-0.01,0.09c-0.01,0.02-0.01,0.04-0.01,0.07c-0.08,0.33-0.37,0.58-0.72,0.58h-5.92
			c-1.96,0-3.55,1.59-3.55,3.54c0,1.96,1.59,3.55,3.55,3.55h3.34c0.25,0,0.49,0.13,0.62,0.34c0.13,0.21,0.15,0.48,0.04,0.71
			c-0.23,0.48-0.34,0.99-0.34,1.52c0,1.95,1.59,3.54,3.54,3.54h4.98c0.25,0,0.49,0.13,0.62,0.34c0.13,0.21,0.15,0.48,0.04,0.71
			c-0.23,0.48-0.35,1-0.35,1.52c0,1.96,1.59,3.55,3.54,3.55h25.02c1.96,0,3.55-1.59,3.55-3.55c0-1.95-1.59-3.54-3.55-3.54h-0.39
			c-0.25,0-0.49-0.13-0.62-0.34c-0.13-0.21-0.15-0.48-0.04-0.71c0.23-0.48,0.35-0.99,0.35-1.52c0-1.32-0.73-2.52-1.9-3.14
			c-0.25-0.13-0.4-0.39-0.4-0.66c0.01-0.28,0.17-0.53,0.42-0.65c0.96-0.46,1.55-1.41,1.55-2.47c0-1.51-1.23-2.74-2.74-2.74h-4.05
			c-0.21-0.29-0.44-0.57-0.7-0.83c-0.24-0.24-0.49-0.45-0.76-0.65h5.51c2.33,0,4.22,1.89,4.22,4.22c0,0.81-0.23,1.59-0.66,2.27
			c-0.21,0.32-0.45,0.61-0.73,0.86c1.08,0.94,1.73,2.31,1.73,3.79c0,0.38-0.05,0.77-0.13,1.14C85.73,54.15,87.65,56.27,87.65,58.82z
			"/>
	</g>
	<g>
		<g>
			<path class="st0" d="M74.79,43.04c-0.21-0.29-0.44-0.57-0.7-0.83c-0.24-0.24-0.49-0.45-0.76-0.65c-1.09-0.8-2.4-1.23-3.77-1.23
				c-0.27,0-0.54,0.02-0.81,0.05c-0.57,0.07-1.12,0.22-1.64,0.44c-1.39,0.58-2.55,1.64-3.25,3.01c-0.43-0.16-0.89-0.25-1.36-0.25
				c-2.1,0-3.8,1.71-3.8,3.8c0,0.22,0.02,0.44,0.06,0.66h-0.02c-1.5,0-2.81,0.82-3.51,2.04c-0.26,0.45-0.43,0.95-0.49,1.48
				c-0.02,0.17-0.03,0.34-0.03,0.52c0,2.23,1.81,4.04,4.04,4.04h13.2c0.54,0,1.06-0.11,1.53-0.3c0.47-0.19,0.9-0.48,1.26-0.82
				c0.77-0.74,1.24-1.77,1.24-2.91v-5.34C75.97,45.4,75.55,44.12,74.79,43.04z M74.49,52.09c0,1.41-1.15,2.56-2.56,2.56h-13.2
				c-1.41,0-2.56-1.15-2.56-2.56c0-0.13,0.01-0.27,0.03-0.4c0.03-0.16,0.07-0.32,0.12-0.47c0.36-0.99,1.3-1.7,2.41-1.7h1.03
				c0.26,0,0.5-0.13,0.63-0.35c0.13-0.22,0.14-0.49,0.03-0.72c-0.17-0.33-0.26-0.69-0.26-1.06c0-1.28,1.05-2.33,2.33-2.33
				c0.47,0,0.92,0.14,1.31,0.4c0.19,0.13,0.43,0.16,0.64,0.09c0.22-0.07,0.39-0.24,0.47-0.46c0.58-1.66,2.01-2.86,3.69-3.2
				c0.01,0,0.02,0,0.03-0.01c0.3-0.06,0.61-0.09,0.93-0.09c2.72,0,4.93,2.21,4.93,4.93V52.09z"/>
		</g>
		<g>
			<g>
				<path class="st0" d="M66.24,61.03c-0.14,0.14-0.33,0.22-0.52,0.22c-0.19,0-0.38-0.07-0.52-0.22l-4.91-4.91h2.09l3.86,3.86
					C66.52,60.27,66.52,60.74,66.24,61.03z"/>
			</g>
			<g>
				<path class="st0" d="M73.03,61.03c-0.14,0.14-0.33,0.22-0.52,0.22c-0.19,0-0.38-0.07-0.52-0.22l-4.91-4.91h2.09l3.86,3.86
					C73.32,60.27,73.32,60.74,73.03,61.03z"/>
			</g>
			<g>
				<path class="st0" d="M79.71,61.03c-0.14,0.14-0.33,0.22-0.52,0.22s-0.38-0.07-0.52-0.22l-5.21-5.21
					c0.47-0.19,0.9-0.48,1.26-0.82l4.99,4.99C80,60.27,80,60.74,79.71,61.03z"/>
			</g>
		</g>
	</g>
	<g>
		<g>
			<path class="st1" d="M54.37,87.59c-0.41,0-0.74-0.33-0.74-0.74V66.02c0-0.41,0.33-0.74,0.74-0.74s0.74,0.33,0.74,0.74v20.83
				C55.11,87.26,54.78,87.59,54.37,87.59z"/>
		</g>
		<g>
			<path class="st1" d="M76.44,87.59H11.25c-1.76,0-3.19-1.43-3.19-3.19V66.02c0-0.41,0.33-0.74,0.74-0.74
				c0.41,0,0.74,0.33,0.74,0.74v18.37c0,0.95,0.77,1.72,1.72,1.72h65.19c0.95,0,1.72-0.77,1.72-1.72V67.48
				c0-0.41,0.33-0.74,0.74-0.74c0.41,0,0.74,0.33,0.74,0.74v16.91C79.64,86.15,78.2,87.59,76.44,87.59L76.44,87.59z"/>
		</g>
	</g>
	<g>
		<g>
			<path class="st2" d="M13.56,57.21c-0.41,0-0.74-0.33-0.74-0.74V41.3c0-0.41,0.33-0.74,0.74-0.74s0.74,0.33,0.74,0.74v15.17
				C14.29,56.88,13.96,57.21,13.56,57.21z"/>
		</g>
		<g>
			<path class="st2" d="M23.84,50.41c-0.41,0-0.74-0.33-0.74-0.74V41.3c0-0.41,0.33-0.74,0.74-0.74s0.74,0.33,0.74,0.74v8.37
				C24.58,50.08,24.25,50.41,23.84,50.41z"/>
		</g>
		<g>
			<path class="st2" d="M24.43,42.04H12.95c-0.95,0-1.72-0.77-1.72-1.72v-1.25c0-0.95,0.77-1.72,1.72-1.72h11.49
				c0.95,0,1.72,0.77,1.72,1.72v1.25C26.15,41.27,25.38,42.04,24.43,42.04z M12.95,38.82c-0.14,0-0.25,0.11-0.25,0.25v1.25
				c0,0.14,0.11,0.25,0.25,0.25h11.49c0.14,0,0.25-0.11,0.25-0.25v-1.25c0-0.14-0.11-0.25-0.25-0.25H12.95z"/>
		</g>
	</g>
	<g>
		<path class="st1" d="M59.24,68.26c-1.41,0-2.84-0.33-4.18-0.97c-1.1-0.53-1.82-1.11-2.01-1.27l-21.5-14.05L7.61,67.66
			c-0.8,0.53-1.8,0.69-2.74,0.44c-0.93-0.24-1.73-0.88-2.17-1.73c-0.38-0.74-0.45-1.62-0.19-2.49c0.25-0.83,0.78-1.56,1.46-2.01
			l22.81-14.94c1.96-1.28,4.23-1.96,6.57-1.96h1.55c0.41,0,0.74,0.33,0.74,0.74s-0.33,0.74-0.74,0.74h-1.55
			c-2.05,0-4.04,0.59-5.76,1.72L4.78,63.1c-0.84,0.55-1.2,1.76-0.77,2.59c0.26,0.49,0.7,0.84,1.24,0.99
			c0.53,0.14,1.1,0.05,1.56-0.25l24.35-15.95c0.25-0.16,0.56-0.16,0.81,0l21.95,14.34c0.03,0.02,0.06,0.05,0.09,0.07
			c0,0,0.66,0.59,1.75,1.1c1.43,0.68,2.92,0.93,4.4,0.75c0.03,0,0.06-0.01,0.09-0.01l21.59,0c0.01,0,0.02,0,0.03,0
			c0.78,0.03,1.51-0.4,1.84-1.11c0.34-0.71,0.19-1.56-0.38-2.18c-0.28-0.3-0.26-0.77,0.04-1.04c0.3-0.28,0.77-0.26,1.04,0.04
			c0.47,0.5,0.77,1.12,0.89,1.79c0.12,0.7,0.03,1.4-0.27,2.03c-0.59,1.23-1.85,1.99-3.22,1.94l-21.53,0
			C59.94,68.24,59.59,68.26,59.24,68.26L59.24,68.26z"/>
	</g>
	<g>
		<path class="st2" d="M31.17,70.89c-1.61,0-3.12-0.63-4.26-1.76c-1.14-1.14-1.76-2.65-1.76-4.26c0-1.61,0.63-3.12,1.76-4.26
			c1.14-1.14,2.65-1.76,4.26-1.76c1.61,0,3.12,0.63,4.26,1.76c1.14,1.14,1.76,2.65,1.76,4.26c0,1.61-0.63,3.12-1.76,4.26
			C34.29,70.26,32.78,70.89,31.17,70.89L31.17,70.89z M31.17,60.32c-2.51,0-4.55,2.04-4.55,4.55c0,2.51,2.04,4.55,4.55,4.55
			s4.55-2.04,4.55-4.55C35.72,62.36,33.68,60.32,31.17,60.32L31.17,60.32z"/>
	</g>
	<g>
		<g>
			<g>
				<path class="st3" d="M55.82,42.3c-0.75,0-1.46-0.27-2.03-0.77L42.23,31.36c-0.31-0.27-0.34-0.73-0.07-1.04s0.73-0.34,1.04-0.07
					l11.57,10.18c0.32,0.28,0.74,0.42,1.17,0.4c0.43-0.03,0.82-0.22,1.11-0.55s0.43-0.74,0.4-1.17c-0.03-0.43-0.22-0.82-0.55-1.11
					l-11.32-9.99c-0.31-0.27-0.33-0.74-0.06-1.04c0.27-0.31,0.74-0.33,1.04-0.06l11.32,9.99c0.62,0.54,0.99,1.29,1.04,2.12
					c0.05,0.82-0.22,1.62-0.76,2.24c-0.54,0.62-1.3,0.99-2.12,1.05C55.96,42.3,55.89,42.3,55.82,42.3L55.82,42.3z"/>
			</g>
			<g>
				<path class="st3" d="M29.17,19.71c-0.18,0-0.36-0.07-0.5-0.2l-4.58-4.27c-0.3-0.28-0.31-0.74-0.04-1.04
					c0.28-0.3,0.74-0.31,1.04-0.04l4.58,4.27c0.3,0.28,0.31,0.74,0.04,1.04C29.56,19.63,29.37,19.71,29.17,19.71z"/>
			</g>
			<g>
				<path class="st3" d="M32.48,16.4c-0.18,0-0.36-0.06-0.5-0.2l-4.64-4.3c-0.3-0.28-0.32-0.74-0.04-1.04
					c0.28-0.3,0.74-0.32,1.04-0.04l4.64,4.3c0.3,0.28,0.32,0.74,0.04,1.04C32.88,16.32,32.68,16.4,32.48,16.4L32.48,16.4z"/>
			</g>
			<g>
				<path class="st3" d="M53.95,48.94c0.41,0.41,0.83,0.79,1.28,1.15c-0.26,0.45-0.43,0.95-0.49,1.48
					c-0.64-0.49-1.26-1.02-1.83-1.59l-5.39-5.39c-0.43-0.42-0.69-0.96-0.78-1.55c-0.02-0.13-0.03-0.26-0.03-0.4
					c0-0.38,0.07-0.74,0.22-1.08c0.14-0.32,0.33-0.61,0.58-0.86c0.01-0.01,0.01-0.01,0.02-0.02l2.56-2.41l0.59-0.56
					c0.27-0.26,0.7-0.26,0.98-0.02c0,0,0.01,0.01,0.01,0.01l0.02,0.02l0.03,0.03c0.28,0.3,0.26,0.76-0.03,1.04l-0.49,0.46l-2.65,2.5
					c-0.18,0.18-0.29,0.4-0.34,0.65c-0.01,0.02-0.01,0.04-0.01,0.07c-0.01,0.06-0.01,0.12-0.01,0.18c0,0.34,0.13,0.66,0.37,0.9
					L53.95,48.94z"/>
				<path class="st3" d="M56.2,51.69c0.03-0.16,0.07-0.32,0.12-0.47C56.33,51.38,56.3,51.55,56.2,51.69z"/>
			</g>
			<g>
				<path class="st3" d="M68.75,40.39c-0.57,0.07-1.12,0.22-1.64,0.44l-7.41-7.42c-0.5-0.5-1.31-0.5-1.8,0l-1.87,1.87l-0.53,0.53
					c-0.29,0.29-0.76,0.29-1.04,0c-0.29-0.29-0.29-0.76,0-1.04l2.4-2.4c1.07-1.07,2.81-1.07,3.89,0L68.75,40.39z"/>
			</g>
		</g>
		<g>
			<path class="st3" d="M22.92,15.73c-1.47,0-2.94-0.56-4.06-1.68l-2.49-2.49c-0.86-0.86-0.86-2.27,0-3.13l5.15-5.15
				c0.42-0.42,0.97-0.65,1.56-0.65c0.59,0,1.15,0.23,1.56,0.65l2.49,2.49c2.24,2.24,2.24,5.88,0,8.11l-0.16,0.16
				C25.86,15.17,24.39,15.73,22.92,15.73L22.92,15.73z M23.08,4.11c-0.2,0-0.38,0.08-0.52,0.22l-5.15,5.15
				c-0.29,0.29-0.29,0.76,0,1.04l2.49,2.49c1.66,1.66,4.37,1.66,6.03,0l0.16-0.16c1.66-1.66,1.66-4.37,0-6.03L23.6,4.33
				C23.47,4.19,23.28,4.11,23.08,4.11L23.08,4.11z"/>
		</g>
	</g>
	<g>
		<g>
			<path class="st4" d="M31.44,28.72c-0.77,0-1.5-0.3-2.05-0.85c-1.13-1.13-1.13-2.97,0-4.09l8.3-8.3c0.29-0.29,0.75-0.29,1.04,0
				c0.29,0.29,0.29,0.75,0,1.04l-8.3,8.3c-0.55,0.55-0.55,1.46,0,2.01c0.27,0.27,0.63,0.42,1,0.42s0.74-0.15,1-0.42
				c0.29-0.29,0.75-0.29,1.04,0c0.29,0.29,0.29,0.75,0,1.04C32.94,28.42,32.22,28.72,31.44,28.72L31.44,28.72z"/>
		</g>
		<g>
			<path class="st4" d="M32.84,33.45c-0.74,0-1.47-0.28-2.04-0.84c-1.13-1.12-1.14-2.96-0.02-4.09l10.14-10.24
				c0.29-0.29,0.75-0.29,1.04-0.01c0.29,0.29,0.29,0.75,0.01,1.04L31.83,29.56c-0.27,0.27-0.41,0.63-0.41,1.01
				c0,0.38,0.15,0.74,0.42,1c0.56,0.55,1.46,0.55,2.01-0.01l10.41-10.52c0.29-0.29,0.75-0.29,1.04-0.01
				c0.29,0.29,0.29,0.75,0.01,1.04L34.89,32.6C34.33,33.17,33.58,33.45,32.84,33.45z"/>
		</g>
		<g>
			<path class="st4" d="M38.88,38.67c-1.3,0-2.6-0.5-3.6-1.49c-0.83-0.83-1.35-1.93-1.46-3.09c-0.11-1.15,0.17-2.31,0.79-3.27
				c0.22-0.34,0.68-0.44,1.02-0.22c0.34,0.22,0.44,0.68,0.22,1.02c-0.92,1.42-0.72,3.32,0.48,4.52c1.41,1.41,3.7,1.41,5.11,0
				l3.42-3.47c0.29-0.29,0.75-0.29,1.04-0.01c0.29,0.29,0.29,0.75,0.01,1.04l-3.43,3.47c0,0,0,0,0,0
				C41.49,38.17,40.18,38.67,38.88,38.67L38.88,38.67z"/>
		</g>
		<g>
			<path class="st4" d="M51.23,32.79c-0.19,0-0.38-0.07-0.52-0.22c-0.29-0.29-0.29-0.75,0-1.04l0.56-0.56
				c3.64-3.64,4.66-9.04,2.58-13.76c-0.12-0.28-0.06-0.6,0.15-0.81L65.08,5.14c0.32-0.32,0.2-0.7,0.15-0.8
				c-0.04-0.11-0.22-0.45-0.68-0.45H50.9c-0.46,0-0.89,0.18-1.21,0.5l-5.23,5.2c-0.18,0.18-0.43,0.25-0.67,0.2
				c-2.27-0.48-4.6,0.21-6.24,1.85l-8.59,8.58c-0.55,0.55-0.62,1.41-0.16,1.97c0.26,0.32,0.63,0.5,1.03,0.52
				c0.4,0.02,0.79-0.13,1.07-0.41c0.29-0.29,0.75-0.29,1.04,0c0.29,0.29,0.29,0.75,0,1.04c-0.58,0.58-1.37,0.88-2.19,0.84
				c-0.81-0.04-1.58-0.42-2.1-1.05c-0.47-0.56-0.69-1.29-0.63-2.04c0.06-0.72,0.37-1.4,0.89-1.92l8.58-8.58
				c1.89-1.89,4.55-2.74,7.19-2.32l4.95-4.93c0.6-0.6,1.4-0.93,2.25-0.93h13.65c0.91,0,1.69,0.52,2.04,1.36
				c0.35,0.84,0.17,1.76-0.46,2.41L55.39,17.09c0.44,1.12,0.74,2.3,0.88,3.5c0.16,1.36,0.12,2.73-0.12,4.08
				c-0.5,2.79-1.83,5.34-3.84,7.35l-0.56,0.56C51.61,32.72,51.42,32.79,51.23,32.79L51.23,32.79z"/>
		</g>
		<g>
			<path class="st4" d="M40.47,33.78c-0.19,0-0.38-0.07-0.52-0.22c-0.29-0.29-0.29-0.75,0-1.04l8.05-8.05
				c0.29-0.29,0.75-0.29,1.04,0c0.29,0.29,0.29,0.75,0,1.04l-8.05,8.05C40.85,33.71,40.66,33.78,40.47,33.78z"/>
		</g>
	</g>
</g>
</svg>
