<svg width="40" height="46" viewBox="0 0 40 46" fill="none" xmlns="http://www.w3.org/2000/svg">
<path d="M38.3737 27.2643H37.3149V6.79206C37.314 6.00669 37.0016 5.25374 36.4463 4.6984C35.8909 4.14306 35.138 3.83068 34.3526 3.82979H30.3409V2.76095C30.3409 2.14325 30.0955 1.55085 29.6587 1.11407C29.222 0.677294 28.6296 0.431914 28.0119 0.431914C27.3942 0.431914 26.8018 0.677294 26.365 1.11407C25.9282 1.55085 25.6828 2.14325 25.6828 2.76095V3.82979H21.1084V2.76095C21.1105 2.45381 21.0517 2.1493 20.9356 1.86495C20.8195 1.58061 20.6482 1.32204 20.4318 1.10414C20.2153 0.886237 19.9579 0.713304 19.6743 0.595296C19.3907 0.477287 19.0866 0.416534 18.7795 0.416534C18.4723 0.416534 18.1682 0.477287 17.8846 0.595296C17.6011 0.713304 17.3436 0.886237 17.1272 1.10414C16.9107 1.32204 16.7395 1.58061 16.6233 1.86495C16.5072 2.1493 16.4485 2.45381 16.4505 2.76095V3.82979H11.8764V2.76095C11.8784 2.45381 11.8197 2.1493 11.7036 1.86495C11.5874 1.58061 11.4162 1.32204 11.1997 1.10414C10.9833 0.886237 10.7258 0.713304 10.4423 0.595296C10.1587 0.477287 9.85459 0.416534 9.54744 0.416534C9.24029 0.416534 8.93618 0.477287 8.65261 0.595296C8.36903 0.713304 8.1116 0.886237 7.89514 1.10414C7.67867 1.32204 7.50744 1.58061 7.39131 1.86495C7.27517 2.1493 7.21643 2.45381 7.21846 2.76095V3.82979H3.20674C2.42144 3.83078 1.66859 4.14321 1.11334 4.69854C0.558085 5.25387 0.24576 6.00676 0.244873 6.79206V37.9374C0.245787 38.7228 0.558165 39.4757 1.11348 40.031C1.6688 40.5863 2.42171 40.8987 3.20704 40.8996H15.7417V43.421C15.7423 43.9943 15.9704 44.544 16.3758 44.9494C16.7812 45.3548 17.3309 45.5828 17.9043 45.5835H36.6324C37.2057 45.5828 37.7553 45.3548 38.1607 44.9494C38.5661 44.544 38.7941 43.9943 38.7947 43.421V35.9946C39.3229 35.6627 39.7551 35.2204 39.7551 34.6287V28.5654C39.7553 27.8481 39.1355 27.2643 38.3737 27.2643ZM38.5535 28.5656V34.621C38.5319 34.6756 38.1416 35.4601 33.6528 36.4175C31.1898 36.9429 28.4893 37.3076 27.3422 37.4347C26.4209 37.3318 23.6841 36.9689 21.0228 36.4025C16.5227 35.4448 16.0274 34.6999 15.9832 34.6104V28.5656C15.9832 28.5367 16.0463 28.4661 16.1631 28.4661H38.3737C38.4906 28.4661 38.5535 28.5367 38.5535 28.5656ZM34.2805 27.2643H33.0712V26.4856C33.0712 25.6942 32.3837 25.0503 31.5387 25.0503H22.6187C21.7736 25.0503 21.0861 25.6942 21.0861 26.4856V27.2643H19.8766V26.3122C19.8773 25.7092 20.1171 25.1312 20.5434 24.7048C20.9698 24.2784 21.5478 24.0386 22.1508 24.0379H32.0063C32.6093 24.0386 33.1873 24.2784 33.6137 24.7048C34.04 25.1312 34.2798 25.7092 34.2805 26.3122V27.2643ZM31.8691 27.2643H22.2879V26.4856C22.2879 26.3753 22.4293 26.2521 22.6187 26.2521H31.5384C31.7277 26.2521 31.8691 26.3754 31.8691 26.4856V27.2643ZM18.6748 26.3122V27.2643H17.0397V24.6165C17.0402 24.5963 17.0484 24.577 17.0627 24.5627C17.0771 24.5484 17.0963 24.5402 17.1165 24.5397H19.1626C18.8428 25.0756 18.6743 25.6881 18.6748 26.3122ZM26.885 2.76095C26.8853 2.46205 27.0042 2.17547 27.2155 1.96412C27.4269 1.75277 27.7135 1.6339 28.0124 1.6336C28.3113 1.6339 28.5978 1.75277 28.8092 1.96412C29.0205 2.17547 29.1394 2.46205 29.1397 2.76095V5.76791C29.1397 6.0669 29.0209 6.35364 28.8095 6.56506C28.5981 6.77648 28.3114 6.89525 28.0124 6.89525C27.7134 6.89525 27.4266 6.77648 27.2152 6.56506C27.0038 6.35364 26.885 6.0669 26.885 5.76791V2.76095ZM17.653 2.76095C17.6533 2.46205 17.7722 2.1755 17.9835 1.96415C18.1949 1.7528 18.4814 1.63392 18.7803 1.6336C19.0792 1.6339 19.3658 1.75277 19.5772 1.96412C19.7885 2.17547 19.9074 2.46205 19.9077 2.76095V5.76791C19.9077 5.91595 19.8785 6.06255 19.8219 6.19932C19.7652 6.3361 19.6822 6.46038 19.5775 6.56506C19.4728 6.66974 19.3485 6.75278 19.2117 6.80944C19.075 6.86609 18.9284 6.89525 18.7803 6.89525C18.6323 6.89525 18.4857 6.86609 18.3489 6.80944C18.2121 6.75278 18.0879 6.66974 17.9832 6.56506C17.8785 6.46038 17.7955 6.3361 17.7388 6.19932C17.6821 6.06255 17.653 5.91595 17.653 5.76791V2.76095ZM8.42096 2.76095C8.42128 2.46205 8.54016 2.1755 8.75151 1.96415C8.96285 1.7528 9.24941 1.63392 9.5483 1.6336C9.8472 1.6339 10.1338 1.75277 10.3451 1.96412C10.5565 2.17547 10.6754 2.46205 10.6756 2.76095V5.76791C10.6756 6.0669 10.5569 6.35364 10.3455 6.56506C10.134 6.77648 9.84729 6.89525 9.5483 6.89525C9.24931 6.89525 8.96257 6.77648 8.75115 6.56506C8.53973 6.35364 8.42096 6.0669 8.42096 5.76791V2.76095ZM3.20704 5.03117H7.21876V5.7676C7.21673 6.07474 7.27548 6.37925 7.39161 6.6636C7.50774 6.94794 7.67897 7.20651 7.89544 7.42441C8.11191 7.64231 8.36934 7.81524 8.65291 7.93325C8.93648 8.05126 9.2406 8.11201 9.54774 8.11201C9.85489 8.11201 10.159 8.05126 10.4426 7.93325C10.7261 7.81524 10.9836 7.64231 11.2 7.42441C11.4165 7.20651 11.5877 6.94794 11.7039 6.6636C11.82 6.37925 11.8788 6.07474 11.8767 5.7676V5.03117H16.4512V5.7676C16.4492 6.07474 16.5079 6.37925 16.624 6.6636C16.7402 6.94794 16.9114 7.20651 17.1279 7.42441C17.3443 7.64231 17.6018 7.81524 17.8853 7.93325C18.1689 8.05126 18.473 8.11201 18.7802 8.11201C19.0873 8.11201 19.3914 8.05126 19.675 7.93325C19.9586 7.81524 20.216 7.64231 20.4325 7.42441C20.649 7.20651 20.8202 6.94794 20.9363 6.6636C21.0524 6.37925 21.1112 6.07474 21.1092 5.7676V5.03117H25.6835V5.7676C25.6835 6.07346 25.7438 6.37631 25.8608 6.65888C25.9779 6.94146 26.1494 7.19821 26.3657 7.41448C26.582 7.63075 26.8387 7.8023 27.1213 7.91935C27.4039 8.03639 27.7067 8.09663 28.0126 8.09663C28.3184 8.09663 28.6213 8.03639 28.9038 7.91935C29.1864 7.8023 29.4432 7.63075 29.6594 7.41448C29.8757 7.19821 30.0473 6.94146 30.1643 6.65888C30.2814 6.37631 30.3416 6.07346 30.3416 5.7676V5.03117H34.3533C34.8201 5.03171 35.2676 5.21738 35.5976 5.54744C35.9277 5.8775 36.1133 6.325 36.1138 6.79176V11.8712H1.44666V6.79206C1.44709 6.32527 1.63268 5.8777 1.96271 5.54758C2.29274 5.21746 2.74025 5.03174 3.20704 5.03117ZM3.20704 39.6977C2.74034 39.6972 2.29291 39.5115 1.9629 39.1815C1.63288 38.8515 1.44723 38.4041 1.44666 37.9374V13.0732H36.1131V27.2643H35.4823V26.3122C35.4812 25.3906 35.1147 24.5071 34.463 23.8554C33.8114 23.2038 32.9279 22.8372 32.0063 22.8362H22.1508C21.5169 22.8353 20.895 23.0089 20.3531 23.3379H17.1162C16.7772 23.3382 16.4521 23.473 16.2124 23.7127C15.9727 23.9524 15.8379 24.2775 15.8376 24.6165V27.3024C15.5445 27.3623 15.2804 27.5198 15.0885 27.7493C14.8966 27.9788 14.7883 28.2666 14.7813 28.5656V34.6289C14.7813 35.0327 14.95 35.4779 15.7416 35.9594V39.6984L3.20704 39.6977ZM36.6326 44.3815H17.9045C17.6497 44.3812 17.4055 44.2799 17.2254 44.0998C17.0453 43.9197 16.944 43.6755 16.9437 43.4208V36.5247C17.7772 36.8425 18.9222 37.1737 20.4901 37.5169C23.3393 38.1406 26.3556 38.5365 27.2774 38.6366C27.3204 38.6413 27.3639 38.6413 27.4069 38.6366C28.5876 38.5085 31.5101 38.1159 34.1194 37.5463C35.5558 37.2329 36.7223 36.9045 37.5935 36.5693V43.4211C37.5932 43.6758 37.4919 43.9201 37.3117 44.1002C37.1316 44.2803 36.8873 44.3816 36.6326 44.3818V44.3815ZM27.2685 33.4258C26.2401 33.4258 25.4034 34.204 25.4034 35.1603C25.4034 36.1166 26.2401 36.8949 27.2685 36.8949C28.2969 36.8949 29.1338 36.1168 29.1338 35.1603C29.1338 34.2038 28.2968 33.4261 27.2683 33.4261L27.2685 33.4258ZM27.2685 35.6932C26.9089 35.6932 26.6051 35.4495 26.6051 35.1603C26.6051 34.8712 26.9089 34.6276 27.2685 34.6276C27.6282 34.6276 27.932 34.8714 27.932 35.1603C27.932 35.4492 27.6279 35.6935 27.2683 35.6935L27.2685 35.6932ZM11.3411 15.2734H8.0139C7.67484 15.2737 7.34974 15.4085 7.11 15.6483C6.87026 15.8881 6.73547 16.2132 6.73522 16.5522V19.8796C6.73549 20.2187 6.8703 20.5437 7.11003 20.7835C7.34977 21.0232 7.67485 21.158 8.0139 21.1583H11.3411C11.6801 21.158 12.0052 21.0232 12.2449 20.7835C12.4847 20.5437 12.6195 20.2187 12.6198 19.8796V16.5524C12.6196 16.2133 12.4848 15.8882 12.2451 15.6484C12.0053 15.4086 11.6802 15.2737 11.3411 15.2734ZM11.4181 19.8796C11.4175 19.8999 11.4092 19.9191 11.3949 19.9335C11.3806 19.9478 11.3613 19.9561 11.3411 19.9566H8.0139C7.99366 19.9561 7.9744 19.9478 7.96009 19.9334C7.94579 19.9191 7.93753 19.8999 7.93701 19.8796V16.5524C7.9375 16.5322 7.94576 16.5129 7.96007 16.4986C7.97438 16.4842 7.99365 16.476 8.0139 16.4754H11.3411C11.3613 16.476 11.3806 16.4842 11.395 16.4986C11.4093 16.5129 11.4176 16.5322 11.4181 16.5524V19.8796ZM17.1163 21.1583H20.4435C20.7826 21.158 21.1076 21.0232 21.3474 20.7835C21.5871 20.5437 21.7219 20.2187 21.7222 19.8796V16.5524C21.7219 16.2134 21.5872 15.8883 21.3474 15.6485C21.1077 15.4087 20.7826 15.2739 20.4435 15.2737H17.1163C16.7773 15.2739 16.4521 15.4087 16.2124 15.6485C15.9726 15.8882 15.8378 16.2133 15.8376 16.5524V19.8796C15.8379 20.2186 15.9727 20.5437 16.2125 20.7834C16.4522 21.0231 16.7773 21.1578 17.1163 21.1581V21.1583ZM17.0393 16.5524C17.0399 16.5322 17.0481 16.5129 17.0625 16.4986C17.0768 16.4842 17.0961 16.476 17.1163 16.4754H20.4435C20.4638 16.476 20.4831 16.4842 20.4974 16.4986C20.5117 16.5129 20.52 16.5322 20.5205 16.5524V19.8796C20.52 19.8999 20.5117 19.9191 20.4974 19.9335C20.483 19.9478 20.4638 19.9561 20.4435 19.9566H17.1163C17.0961 19.9561 17.0768 19.9478 17.0625 19.9335C17.0481 19.9192 17.0399 19.8999 17.0393 19.8796V16.5524ZM26.2188 21.1583H29.5459C29.8849 21.158 30.21 21.0233 30.4498 20.7835C30.6895 20.5438 30.8244 20.2187 30.8246 19.8796V16.5524C30.8244 16.2133 30.6896 15.8882 30.4498 15.6485C30.2101 15.4087 29.8849 15.2739 29.5459 15.2737H26.2188C25.8797 15.2739 25.5546 15.4087 25.3148 15.6485C25.075 15.8882 24.9402 16.2133 24.94 16.5524V19.8796C24.9403 20.2186 25.0752 20.5437 25.3149 20.7834C25.5547 21.0231 25.8797 21.1578 26.2188 21.1581V21.1583ZM26.1418 16.5524C26.1423 16.5322 26.1506 16.5129 26.1649 16.4986C26.1792 16.4842 26.1985 16.476 26.2188 16.4754H29.5459C29.5661 16.4759 29.5854 16.4842 29.5998 16.4985C29.6141 16.5129 29.6224 16.5322 29.6229 16.5524V19.8796C29.6224 19.8999 29.6141 19.9192 29.5998 19.9335C29.5854 19.9478 29.5661 19.9561 29.5459 19.9566H26.2188C26.1985 19.9561 26.1792 19.9478 26.1649 19.9335C26.1506 19.9192 26.1423 19.8999 26.1418 19.8796V16.5524ZM11.3412 23.3379H8.01379C7.67479 23.3382 7.34975 23.473 7.11003 23.7127C6.87032 23.9524 6.73552 24.2775 6.73522 24.6165V27.9437C6.73552 28.2827 6.87032 28.6077 7.11003 28.8474C7.34975 29.0871 7.67479 29.222 8.01379 29.2222H11.3412C11.6802 29.222 12.0052 29.0871 12.2449 28.8474C12.4847 28.6077 12.6195 28.2827 12.6198 27.9437V24.6165C12.6195 24.2775 12.4847 23.9524 12.2449 23.7127C12.0052 23.473 11.6802 23.3382 11.3412 23.3379ZM11.4181 27.9437C11.4175 27.9639 11.4093 27.9831 11.395 27.9974C11.3806 28.0117 11.3614 28.02 11.3412 28.0206H8.01379C7.99358 28.02 7.97433 28.0118 7.96004 27.9975C7.94574 27.9832 7.9375 27.9639 7.93701 27.9437V24.6165C7.9375 24.5963 7.94575 24.577 7.96004 24.5627C7.97434 24.5484 7.99359 24.5402 8.01379 24.5397H11.3412C11.3614 24.5402 11.3806 24.5485 11.3949 24.5628C11.4093 24.577 11.4175 24.5963 11.4181 24.6165V27.9437ZM11.3411 31.4021H8.0139C7.67484 31.4024 7.34974 31.5372 7.11 31.7769C6.87026 32.0167 6.73547 32.3418 6.73522 32.6809V36.0077C6.73549 36.3468 6.8703 36.6719 7.11003 36.9116C7.34977 37.1513 7.67485 37.2861 8.0139 37.2864H11.3411C11.6801 37.2861 12.0052 37.1513 12.2449 36.9116C12.4847 36.6719 12.6195 36.3468 12.6198 36.0077V32.6811C12.6195 32.342 12.4847 32.0169 12.245 31.7771C12.0052 31.5374 11.6801 31.4026 11.3411 31.4023V31.4021ZM11.4181 36.0077C11.4176 36.028 11.4093 36.0473 11.395 36.0616C11.3806 36.0759 11.3613 36.0842 11.3411 36.0847H8.0139C7.99365 36.0842 7.97438 36.0759 7.96007 36.0616C7.94576 36.0473 7.9375 36.028 7.93701 36.0077V32.6811C7.9375 32.6608 7.94576 32.6415 7.96007 32.6272C7.97438 32.6129 7.99365 32.6046 8.0139 32.6041H11.3411C11.3613 32.6046 11.3806 32.6129 11.395 32.6272C11.4093 32.6415 11.4176 32.6608 11.4181 32.6811V36.0077Z" fill="white"/>
</svg>
