<svg xmlns="http://www.w3.org/2000/svg" viewBox="0 0 84.51 109.5"><defs><style>.cls-1{fill:#64b346;}.cls-2{fill:#64863a;}.cls-3{fill:#96cb60;}</style></defs><g id="Layer_2" data-name="Layer 2"><g id="Layer_2-2" data-name="Layer 2"><path class="cls-1" d="M22.77,30.41a9.87,9.87,0,0,0-4.06-1.29,20.33,20.33,0,0,0-5,.21c-2.74.45-4.25.83-4.25.81s1.42-.5,4.11-1.16a20,20,0,0,1,5.08-.58,11.1,11.1,0,0,1,3,.51,45.09,45.09,0,0,0-4.83-5.39,15,15,0,0,0-2.92-1.05,13.41,13.41,0,0,0-3.37-.4,5.48,5.48,0,0,0-2.82.72,5.16,5.16,0,0,1,2.74-1.08,12.11,12.11,0,0,1,3.54.05c.34.06.7.12,1.07.2l-.29-.25a37.44,37.44,0,0,0-7.23-4.66c-1.79-.88-2.79-1.22-2.78-1.24s1,.26,2.82,1a35.32,35.32,0,0,1,7.6,4.09c.42.28.83.59,1.25.91a8.87,8.87,0,0,1-.22-.93,10,10,0,0,1,0-3.11,25.24,25.24,0,0,1,.55-2.55s-.12.9-.18,2.54a8.26,8.26,0,0,0,1.52,5.35,1.69,1.69,0,0,1,.34.35,44,44,0,0,1,3.89,3.86,13.83,13.83,0,0,1-.11-2.09A18.33,18.33,0,0,1,22.9,21a18.6,18.6,0,0,1,1.26-3.39A21.09,21.09,0,0,0,23.28,21a18.49,18.49,0,0,0-.3,4.11,11.84,11.84,0,0,0,.71,3.7c.46.57.92,1.15,1.37,1.76s.74,1,1.1,1.54c6.18-1.17,9.07-9.51,2.23-14.75C21.28,11.93,11.82,14.92,0,12.76c7.44,8,6.3,22,11,25.52,6.29,4.82,13,.94,14.26-4-.49-.85-1-1.67-1.5-2.45C23.4,31.31,23.08,30.86,22.77,30.41Z"/><path class="cls-2" d="M46.48,19a77.62,77.62,0,0,0-4.14,10.48,138.64,138.64,0,0,0-3.46,13.53l-1.55,7.84c-.3,1.74-.54,3.53-.76,5.34A61.83,61.83,0,0,0,29,37.35c-5.93-9.86-11.21-13.76-11.12-13.77-.08,0,4.71,4.19,9.91,14.13a62.34,62.34,0,0,1,6.45,19.18c.52,3.31,1,6.86,1.32,10.6.61,12.25,2.12,34.42-1.75,34.42l9.16.68c-6.68-9.69-3.91-51.4-2.68-58,2.11-11.34,6.53-22.48,7.79-25.71a7,7,0,0,0,1.66-.05C48.45,18.08,47.19,19.28,46.48,19Z"/><path class="cls-1" d="M52.8,8.92c-.64.8-1.44,1.87-2.36,3.21a57.34,57.34,0,0,0-4,6.91,7.34,7.34,0,0,0,3.3.17c3.55-.54,5.68-4.92,6.42-9.55A20,20,0,0,1,61.77,0C59.5,1.16,54.35,6.31,52.8,8.92Z"/><path class="cls-1" d="M46.63,16.63C49.1,12.92,52.3,7.8,56.2,3.48c-1.86,1.51-6,4.16-7.52,6-1.74,2.09-3.35,4.3-2.23,7.34Z"/><path class="cls-3" d="M76.42,106.17c.55-.13-9.83-1-9.24-1.09,2.13-.51,4.36-1,6.65-1.33l.7-.11.15,0,.18,0h0a.72.72,0,0,0,.23,0h-.06l.37-.06c.8-.13,1.29-.23,1.19-.38s0,0-.08-.06c1.52-.18,3.06-.33,4.63-.45l.65,0,.25,0H81.9l-.51,0c-1,0-3.33-.05-6.58.13l-.49,0-.76,0c2-.47,4-.82,5.71-1,3-.41,5.27-.45,5.24-.47a47.2,47.2,0,0,0-6.36-.37,43.82,43.82,0,0,0-8.47.87c.9-.32,1.35-.56,1.1-.71a11.37,11.37,0,0,0-4.21.1c1.51-.4,3-.73,4.26-1,2.58-.46,4.47-.61,4.45-.62a41.41,41.41,0,0,0-5.56-.15l-1.55.09c-1.08,0-2.38,0-3.77.17,2-.67,7.42-2.13,7-2.34-.54-.3-9.08,1.12-13.71,2.53.79-.45,1.61-.89,2.45-1.32,0,0-.62.09-1.63.29.66-.39.94-.68.62-.79a5,5,0,0,0-1.88.11l.57-.28a56.52,56.52,0,0,1,5.71-2.47,57.55,57.55,0,0,0-6.77,2.07l-.63.25c1-.55,1.92-1.06,2.84-1.5A57,57,0,0,1,67,93a58.9,58.9,0,0,0-9,2.73c-.86.33-1.75.7-2.66,1.12l-.37.18c-.75.34-1.49.71-2.25,1.1l.93-.7c.46-.2.92-.38,1.34-.55l.19-.07.23-.09c2.26-.89,3.78-1.39,3.4-1.58s-2.8.06-5.85.88a41.51,41.51,0,0,0-4.75,1.6,32.38,32.38,0,0,1,5-3.29,33.78,33.78,0,0,1,6.45-2.64A40.17,40.17,0,0,0,52,93.93a36.81,36.81,0,0,0-6.69,3.54,28.36,28.36,0,0,0-2.83,2.21l-.26.23c.1-.16.22-.3.33-.45a23.45,23.45,0,0,1,5.38-5.11,45,45,0,0,1,5.37-3.18,47.47,47.47,0,0,0-4.95,2c.72-.68,1-1,1-1S48.2,93,46,94.47c-.79.46-3.63,3.64-4.46,4.21.07-.23,7.38-8.43,4.59-5.75-.16.15-3.65,2.81-4.36,3.15a39.81,39.81,0,0,1,4.07-5.25l.45-.5.09-.1L47,89.5l.41-.44,1.1-1.2c2-2.2,2.9-3.41,2.9-3.41s-1.15,1-3.39,2.88l-.95.8-.73.62-.37.31L44.89,90l-.11.1a38.61,38.61,0,0,0-6.19,6.62A23.35,23.35,0,0,0,35.44,92a3.84,3.84,0,0,0-.27-.29,12,12,0,0,0-1.05-1.14s0,.08.1.22A16.13,16.13,0,0,0,32.6,89.5a14.86,14.86,0,0,1,1.29,2.61c.27.61,1.88,4.85,2.09,5.67-.29.35-3.64-4.14-5.25-7.32-.08,1.92,2.83,6.19,3.12,7.32.1.42-4.73-4.84-4.62-4.35,0,0,2.86,5,2.84,5-.24.21,1.19,2.43.92,2.7-.17-.13-1-1.14-1.18-1.27s-1-1.42-1.08-1.58c-.19-.93-2.86-4.35-3.45-4.31-.24,0,1.69,3,1.47,3.2-.65-.52-.07,0-.65-.52-.38-.78-3.74-5.18-3.74-5.17s1.09,3.39,1.11,3.83c-1.4-1.2-1.78-2.43-2.82-3.35l-.44-.38L20.65,90.2c-1.48-1.36-2.26-2.1-2.28-2.1a29,29,0,0,0,2.26,3.77A45.21,45.21,0,0,0,26.4,98.5c0,.18,0,.37,0,.57-.71-.52-1.29-.81-1.27-.82s0,0-.07.09a1.62,1.62,0,0,0-1.34-.67,24.22,24.22,0,0,1-3.44-3.82,32.13,32.13,0,0,0,2.06,3.89,20.36,20.36,0,0,0-1.75-1.56c.33.7.65,1.41,1,2.12.08.19.17.38.26.57s.27.61.41.94l.23.54c-.05.3-.09.63-.12,1l-.73-1.11c-.44-.67-.88-1.29-1.28-1.86l-.2-.28h0c-.84-1.16-1.57-2.1-2.12-2.77l-.12-.15c-.6-.73-1-1.12-1-1.12l.08.47c0,.07,0,.15.05.24.15.71.43,2,.95,3.65.13.41.26.84.42,1.3a4,4,0,0,0,0,.42c0,.14,0,.29,0,.46l-.2-.13-1.18-.78c-.87-.57-1.67-1.1-2.42-1.56L14.48,98l-.43-.25-.29-.18-.07,0a38.65,38.65,0,0,0-4.16-2.22l1.62,1.51.93.88.21.2c.55.54,1.18,1.16,1.9,1.84l.49.47.63.59a4.82,4.82,0,0,0,.29.45.53.53,0,0,0,.06.1l-.11,0a27.27,27.27,0,0,0-4.38-1.59,30.79,30.79,0,0,0-5.26-.88c-1.46-.12-2.37-.09-2.33-.11s.8.07,2.1.3A23.83,23.83,0,0,1,10,100.18a23.11,23.11,0,0,1,5,2.69l.19.13a0,0,0,0,1,0,0c.88.61,1.75,1.29,2.68,2,.43.34-7.6-1.55-7.13-1.19.08.06,8.65,2.35,8.73,2.41a4.08,4.08,0,0,0,.47.36,50.08,50.08,0,0,0-8.08-.28,105.94,105.94,0,0,0,11,1.22c.2-.06,1.46.52,1.5.33,0,0-7.48-.23-6.4.2,1.78.73,14.43,1.42,14.42,1.42A11.55,11.55,0,0,1,29,107.75c-.29-.29-5.66-2.4-6-2.75-.1-.26,3.85,1.84,3.71,1.42,0-.1-2.56-1.68-2.59-1.79.2,0,2.87,1.36,3.07,1.32.11.23-2.24-2.53-2.24-2.53s2.66,2.71,3,2.38l.25,0,.13.15c.87.85,3.64,2.7,4.06,2.6.12,0-1.61-1.54-1.56-1.63l0,0c.28-.1-2.31-2.65-2-2.74,1,1.41,6.68,4.5,6.69,4.49S33.85,106,32.34,104c.43,0,2.2,2.17,2.63,2.15A6.5,6.5,0,0,0,36.44,108q.31-.6.66-1.2h.42c.12.46.41.72.66.69s.32-.14.51-.36c.29.67.52,1.08.51,1.08a13.07,13.07,0,0,0,1.69-3.47c.23-.21.48-.42.76-.65a6,6,0,0,0-.81,2.49c.81-2.49.4,1.94.65,1.76,0,1.13,2.35-2.08,5-5.24.36-.37-2.1,4.78-1.74,4.43h0s10-4.28,10.82-4.49a18.89,18.89,0,0,0-2.86,2.17A13.49,13.49,0,0,0,51,107l.94-.41s4.25-2.4,4.22-2.38c-2.07,1.75-5.06,4.08,2.7.64-.74.4-6.8,3.3-6.12,3.19,3.84-.62,3.84-.62,8-1.34-.91.12,0,0,.07,0s-3.72.82-3.69.82c-3.7,1.23-3,1.49-3,1.48a37.19,37.19,0,0,1,7.64-.87c4.25-.14,11.1-.08,11.31,0,.85-.48-7.49-1.51-9.43-1.38C64.17,106.7,75.85,106.31,76.42,106.17Zm-12.61-5.72-.1,0,.22-.09Z"/></g></g></svg>