<svg xmlns="http://www.w3.org/2000/svg" xmlns:xlink="http://www.w3.org/1999/xlink" viewBox="0 0 74.61 114.56"><defs><style>.cls-1{fill:#e8b592;}.cls-2{fill:url(#linear-gradient);}.cls-3{fill:#81421c;}.cls-4{fill:#b37d4f;}.cls-5{fill:#834e2c;}.cls-6{fill:#96cb60;}</style><linearGradient id="linear-gradient" y1="25.1" x2="44.69" y2="25.1" gradientUnits="userSpaceOnUse"><stop offset="0" stop-color="#fff"/><stop offset="0.24" stop-color="#feefe3"/><stop offset="0.56" stop-color="#fdddc4"/><stop offset="0.73" stop-color="#fdd6b8"/></linearGradient></defs><g id="Layer_2" data-name="Layer 2"><g id="Layer_1-2" data-name="Layer 1"><path class="cls-1" d="M36.75,17.58c.33-.73,2.63,1.55,3.23,2.45.8,1.2,1.93,2.2,2.63,3.43,1,1.82,3.46,4.72,3.36,6.73-.46,9.15-1.28,11.82-.56,18.19-2.11.89-3.16-1.27-4.45-3.22s.09-11.42-.91-13.72c-1.44-3.31-3.89-3.3-5.2-6.63Z"/><path class="cls-2" d="M0,13.87C3.07,22.23,3.84,28.7,9.43,36c3,4,8.05,9.27,12.92,9.27,3.36,0,10.55,2.3,10.55,2.3.91-8.17-10.17-9.11-10.17-9.11-2.55-2.46-1.87-1.85-2.24-5.71-.34-3.56-.44-5.73,4-6.7a28.42,28.42,0,0,1,8.35-.19,63,63,0,0,0,4.75,8.35c-.94,9.27-.62,15,5,15.94.58-4.55,2.37-9.48,2.15-14.14S41.7,24.63,40,20.31C37,12.66,8.25,4.4,0,0V13.87Z"/><path class="cls-3" d="M38,46.31c.83,2.75-.38,7.31-.38,7.31s-3.52-3.15-4.34-5.89-.43-5.28.87-5.67S37.13,43.57,38,46.31Z"/><path class="cls-4" d="M36.72,45c.56,1.86-.26,5-.26,5s-2.39-2.13-3-4-.3-3.59.59-3.85S36.16,43.08,36.72,45Z"/><path class="cls-5" d="M7.13,90.81l0,0H7A.6.6,0,0,1,7.13,90.81Z"/><path class="cls-5" d="M6.89,91.14H7Z"/><path class="cls-5" d="M69.83,91.52l.4-.21h0a6,6,0,0,1-2,.43c.16-.11.31-.26.48-.37h0a14.75,14.75,0,0,1-2.19.8,3.24,3.24,0,0,1,.71-.5c-.74.13-1.45.53-2.15.67a6.13,6.13,0,0,1,.72-.82h0a13.84,13.84,0,0,0-1.88,1.07c.17-.41.57-.7.8-1.09-.58.17-1,.74-1.53.92a8.08,8.08,0,0,1,.87-1.15c-.77.09-1.22,1-1.9,1.32.23-.48.75-.73,1.06-1.17-.7.36-1.29.88-2,1.25a2.67,2.67,0,0,0,.4-.63,4.58,4.58,0,0,1-1.08.8c.07-.36.33-.68.41-1a2.23,2.23,0,0,1-1,.64c.23-.33.62-.58.72-1-.59.19-1,.76-1.49,1.08a3.59,3.59,0,0,1,.51-1c-.55.34-1.12.66-1.6,1a3.46,3.46,0,0,0,.19-.54l-.16,0a3.68,3.68,0,0,1-.95.66c.08-.2.08-.5.17-.71a1.79,1.79,0,0,1-.65.37,2,2,0,0,0,.23-.52l-.06,0,0-.15a5.78,5.78,0,0,0-.64.4,3.09,3.09,0,0,0,.14-.46h0a8.81,8.81,0,0,0-.85.62c.14-.21.3-.43.42-.65h-.1c-.39.26-.73.61-1.14.83a3.22,3.22,0,0,0,.52-1,4.59,4.59,0,0,1-1.13.8,5.77,5.77,0,0,1,.47-.74l-.13-.16A14,14,0,0,0,53,92.33a6.64,6.64,0,0,1,.64-1.58h-.17c-.46.38-.89.79-1.31,1.16a2.45,2.45,0,0,0,.33-1h0a4.18,4.18,0,0,0-1.12,1.34,1.47,1.47,0,0,1,.15-.65l-.21-.24a8.89,8.89,0,0,0-.78,1.05c.09-.32.23-.71.31-1-.27.24-.47.53-.73.79a2.86,2.86,0,0,0,.32-1c-.44.26-.69.81-1.13,1,.08-.26.17-.51.24-.76l-.06.13-.11-.09c-.33.31-.56.78-.86,1.12,0-.53.38-.92.52-1.4l-.08-.06c-.28.32-.47.71-.76,1a4.94,4.94,0,0,1,.29-1.49H48.4c-.39.47-.78.94-1.19,1.41h0s0,0,0,0h0a6,6,0,0,0,.19-1,7.25,7.25,0,0,0-.76,1.11,10.21,10.21,0,0,1,.46-1.35H47c-.43.47-.82,1-1.21,1.43.09-.41.27-.83.38-1.24l-.31,0a6.77,6.77,0,0,0-.82,1.21,1.65,1.65,0,0,1,.15-.92L45,91.18a4.45,4.45,0,0,0-.89,1.35,3.33,3.33,0,0,1,.07-1.12l-.21,0c-.23.41-.41.8-.55,1.12a4.59,4.59,0,0,1,.3-1.1H43.7a3.94,3.94,0,0,0-.74,1.1,3,3,0,0,1,.28-1.16h0a6.35,6.35,0,0,1-.85,1.34,4.29,4.29,0,0,1,.2-1.37c-1.55,1.47-1.3,7.21-1.5,12.37-.08,2.13.23,8.79-3,8.69-3.42-.11-3.52-10.49-3.4-16.59A5.43,5.43,0,0,0,34,93v.29c-.05-.2-.14-.41-.21-.61a4.47,4.47,0,0,0-.32-.41,1.39,1.39,0,0,1-.12.83,14.51,14.51,0,0,0-.51-1.39l-.06,0a4.1,4.1,0,0,1,.05.91c-.1-.23-.24-.54-.39-.84l-.43.56-.11-.18c0,.11.07.22.09.33-.33-.33-.7-.75-1.07-1.19v0s0,0,0,0-.26-.32-.38-.49A12.46,12.46,0,0,1,31,92.33a7.83,7.83,0,0,0-.89-1.21c0,.15-.05.28-.07.38a3.75,3.75,0,0,1,.12,1,6.94,6.94,0,0,0-.63-1.13l-.31.21a3.26,3.26,0,0,1,.08.82c-.12-.16-.28-.36-.45-.56l-.3.2c-.09-.31-.17-.58-.26-.86-.08-.1-.17-.19-.24-.29A5.16,5.16,0,0,1,28.22,92l-.61-.81c0,.29-.05.46,0,.47l-.13-.51,0,.35,0,0q.06.42.12.81a12.3,12.3,0,0,1-1-1.44l-.08,0,0,.12a4.53,4.53,0,0,1,.15.44l-.07,0a3,3,0,0,1,0,.73l-.44-.5-.27.15a3.2,3.2,0,0,1,.13.75,2.57,2.57,0,0,0-.39-.62l0,0,0-.11-.54-.62,0,.14a4.39,4.39,0,0,1,.08,1,7,7,0,0,0-1.11-1.26c.18.43.35.87.53,1.29-.28-.28-.58-.61-.88-1l-.09.06c0,.29,0,.57,0,.82s.07.23.1.35l-.1-.12v.22a6.32,6.32,0,0,1-1.07-1.16c.06.3.11.59.15.82A16.61,16.61,0,0,1,21.61,91c0,.32-.08.68-.1,1a3,3,0,0,0-.51-.78h0c.16.38.31.77.48,1.13-.24-.24-.49-.47-.74-.7a8.84,8.84,0,0,0,.4,1,6.5,6.5,0,0,0-.83-.91l-.08.06a5.78,5.78,0,0,0,.56,1.08,13.48,13.48,0,0,1-1.61-1.79h0a10.15,10.15,0,0,1,.56,1.66c-.29-.34-.7-.74-1.08-1.15h0l-.19.18c.14.35.28.71.45,1A15.15,15.15,0,0,1,17.05,91l-.16-.12,0,.08c0,.1,0,.21.08.32a4.87,4.87,0,0,0,.88,1.34,6.16,6.16,0,0,0-1.17-1.29l-.21.37c.16.3.31.61.46.92-.19-.21-.41-.42-.63-.63l0,.07-.29-.34-.06.49a4.63,4.63,0,0,1-.92-.36l0,.15c.11.21.22.42.35.62L14.57,92l-.1,0-.06.11-.31-.33-.28-.15-.14,0a11,11,0,0,1,.62,1.24c-.3-.36-.73-.78-1.15-1.22l-.28,0a7.83,7.83,0,0,0,.57,1.2c-.31-.38-.73-.78-1.14-1.2h-.14a7.52,7.52,0,0,0,.43.79c-.37-.32-.76-.62-1.13-.92a2,2,0,0,1-.59-.33l-.08.19a7.11,7.11,0,0,0,1.08,1.29,10.19,10.19,0,0,0-1.18-.86l-.08.34-.71-.33a7.42,7.42,0,0,0,.85,1,14.36,14.36,0,0,1-1.91-1.48l-.6-.21.37.35.11,0H8.63c.31.29.62.58.95.85a5.67,5.67,0,0,0-.89-.55l0,0-.85-.32c-.22,0-.44-.06-.65-.1l.13.11a10.2,10.2,0,0,0,1.14.75L8,92.14l.89.86c-.36-.14-.89-.36-1.44-.62l.2.12c.28.14.54.3.8.45a10.35,10.35,0,0,0,2.81,1.13c.53,0-.51,0,.53,0,8,.07,9.31.06,12.79,0,3.82-.08,7.43-1.75,8,5,.25,3.24.15,15.54,5.5,15.54,4.94,0,4.94-9,4.94-12.33,0-7-.2-8,4.07-8,1.54,0,7.77.12,16.5,0,1.52,0,6.15-1.14,7.31-3l-.49,0Z"/><path class="cls-6" d="M72,90.73a5.6,5.6,0,0,1,1.08-.22,7.87,7.87,0,0,0-2.82-.36L71,90c1.53-.32,2.4-.39,2.39-.4A17.81,17.81,0,0,0,71,89.48c-.48,0-1,0-1.65.11l1.6-.39s-1,0-2.71.14l-.27,0-.09,0,1.46-1.06a8.77,8.77,0,0,0-2.63.87,3.92,3.92,0,0,0-.59,0,6.91,6.91,0,0,1,1.49-.75c-.67.24-1.49.44-2.29.68l.23-.1a3.46,3.46,0,0,1-1,.13c.78-.68,1.66-1.31,2.23-1.74a13.57,13.57,0,0,0-2.19.94,20,20,0,0,0,1.77-1.46l-.28,0c.77-.29,1.2-.39,1.2-.41a14.23,14.23,0,0,0-3,.64c-.34.11-.72.25-1.12.4,0,0,0,0,0,0a6,6,0,0,0,.71-1s-.4.12-1,.35c-.27.11-.58.23-.91.39.26-.25.45-.45.56-.58l1.66-.55s-1,.11-2.92.45l-.45.09c.26-.33.53-.67.81-1A21,21,0,0,0,59.45,87a14.12,14.12,0,0,0-1.58.54h0c.9-.82,1.49-1.43,1.5-1.44a6,6,0,0,0-1.81.46,6.55,6.55,0,0,1,1.06-1.1c-.93.77-2.07,1.37-3,2.16a6.65,6.65,0,0,1,.27-.61A2.05,2.05,0,0,0,55,87a16.77,16.77,0,0,1,1.72-1.69A11.67,11.67,0,0,1,59,83.75a8.89,8.89,0,0,0-2.52,1.13c-.15.09-.31.2-.48.32l.25-.28L56,85a21.32,21.32,0,0,1,1.56-1.84,11.56,11.56,0,0,0-4,3.08,10.21,10.21,0,0,0-1.15,1.07c-.2.21-.38.43-.55.64.15-.42.29-.87.43-1.17-.13.08-.24.18-.36.27a17.49,17.49,0,0,1,2.63-3,14,14,0,0,1,2.6-1.82,10.77,10.77,0,0,0-2.76,1.36,15.91,15.91,0,0,0-3.66,3.51h0a14.49,14.49,0,0,1-1.31,1l.46-.49c1.79-2,3.27-3.79,3.29-3.8A8.41,8.41,0,0,0,49.63,86s0-.1,0-.15c-.8.57-1.48,1.53-2.26,2.11a21.48,21.48,0,0,1,2.2-3c.57-.55,1.06-1,1.43-1.35a6.54,6.54,0,0,1,2.83-1.41,5.74,5.74,0,0,0-3,1l-.16.11-.49.19a11,11,0,0,0-3.35,2.34,13.83,13.83,0,0,0-1.39,1.65,5.67,5.67,0,0,0,.41-1.06l1.6-2.25a4.48,4.48,0,0,0-1.14.49A7.86,7.86,0,0,0,44,86.76c-.07.1-.13.2-.2.29.3-.55.61-1.08.93-1.56A27,27,0,0,1,47.64,82a26.34,26.34,0,0,1,2.85-2.53,19.45,19.45,0,0,0-3,2.08,22.53,22.53,0,0,0-3.25,3.22,13.91,13.91,0,0,0-1.71,2.58,7.18,7.18,0,0,0-.81,3.88,6.46,6.46,0,0,0-.22,1.69,4.94,4.94,0,0,1,1-1.81l.15,0-.09.3a4.29,4.29,0,0,0-.2,1.37,6.35,6.35,0,0,0,.85-1.34h0A3,3,0,0,0,43,92.57a3.94,3.94,0,0,1,.74-1.1h.06a4.59,4.59,0,0,0-.3,1.1c.14-.32.32-.71.55-1.12l.21,0a3.33,3.33,0,0,0-.07,1.12A4.45,4.45,0,0,1,45,91.18l.18.14a1.65,1.65,0,0,0-.15.92A6.77,6.77,0,0,1,45.89,91l.31,0c-.11.41-.29.83-.38,1.24.39-.48.78-1,1.21-1.43h.07a10.21,10.21,0,0,0-.46,1.35A7.25,7.25,0,0,1,47.4,91a6,6,0,0,1-.19,1c.41-.47.8-.94,1.19-1.41h.05a4.94,4.94,0,0,0-.29,1.49c.29-.32.48-.71.76-1l.08.06c-.14.48-.56.87-.52,1.4.3-.34.53-.81.86-1.12l.11.09.06-.13c-.07.25-.16.5-.24.76.44-.16.69-.71,1.13-1a2.86,2.86,0,0,1-.32,1c.26-.26.46-.55.73-.79-.08.32-.22.71-.31,1a8.89,8.89,0,0,1,.78-1.05l.21.24a1.47,1.47,0,0,0-.15.65,4.18,4.18,0,0,1,1.12-1.34h0a2.45,2.45,0,0,1-.33,1c.42-.37.85-.78,1.31-1.16h.17A6.64,6.64,0,0,0,53,92.33a14,14,0,0,1,1.25-1.06l.13.16a5.77,5.77,0,0,0-.47.74,4.59,4.59,0,0,0,1.13-.8,3.22,3.22,0,0,1-.52,1c.41-.22.75-.57,1.14-.83h.1c-.12.22-.28.44-.42.65a8.81,8.81,0,0,1,.85-.62h0a3.09,3.09,0,0,1-.14.46,5.78,5.78,0,0,1,.64-.4l0,.15.06,0a2,2,0,0,1-.23.52,1.79,1.79,0,0,0,.65-.37c-.09.21-.09.51-.17.71a3.68,3.68,0,0,0,.95-.66l.16,0a3.46,3.46,0,0,1-.19.54c.48-.3,1-.62,1.6-1a3.59,3.59,0,0,0-.51,1c.48-.32.9-.89,1.49-1.08-.1.42-.49.67-.72,1a2.23,2.23,0,0,0,1-.64c-.08.37-.34.69-.41,1a4.58,4.58,0,0,0,1.08-.8,2.67,2.67,0,0,1-.4.63c.67-.37,1.26-.89,2-1.25-.31.44-.83.69-1.06,1.17.68-.31,1.13-1.23,1.9-1.32a8.08,8.08,0,0,0-.87,1.15c.54-.18,1-.75,1.53-.92-.23.39-.63.68-.8,1.09a13.84,13.84,0,0,1,1.88-1.07h0a6.13,6.13,0,0,0-.72.82c.7-.14,1.41-.54,2.15-.67a3.24,3.24,0,0,0-.71.5,14.75,14.75,0,0,0,2.19-.8h0c-.17.11-.32.26-.48.37a6,6,0,0,0,2-.43h0l-.4.21.56-.22.49,0,1-.06c1.75-.09,2.73-.07,2.73-.07A24.08,24.08,0,0,0,72,90.73Z"/><path class="cls-6" d="M7.24,92.3h.07l.16.08c.55.26,1.08.48,1.44.62L8,92.14l.47.13a10.2,10.2,0,0,1-1.14-.75l-.13-.11c.21,0,.43.08.65.1l.85.32,0,0a5.67,5.67,0,0,1,.89.55c-.33-.27-.64-.56-.95-.85h.09l-.11,0-.37-.35.6.21a14.36,14.36,0,0,0,1.91,1.48,7.42,7.42,0,0,1-.85-1l.71.33.08-.34a10.19,10.19,0,0,1,1.18.86,7.11,7.11,0,0,1-1.08-1.29l.08-.19a2,2,0,0,0,.59.33c.37.3.76.6,1.13.92a7.52,7.52,0,0,1-.43-.79h.14c.41.42.83.82,1.14,1.2a7.83,7.83,0,0,1-.57-1.2l.28,0c.42.44.85.86,1.15,1.22a11,11,0,0,0-.62-1.24l.14,0,.28.15.31.33.06-.11.1,0,.69.63c-.13-.2-.24-.41-.35-.62l0-.15a4.63,4.63,0,0,0,.92.36l.06-.49.29.34,0-.07c.22.21.44.42.63.63-.15-.31-.3-.62-.46-.92l.21-.37a6.16,6.16,0,0,1,1.17,1.29,4.87,4.87,0,0,1-.88-1.34c0-.11-.06-.22-.08-.32l0-.08.16.12a15.15,15.15,0,0,0,1.83,1.78c-.17-.33-.31-.69-.45-1l.19-.18h0c.38.41.79.81,1.08,1.15a10.15,10.15,0,0,0-.56-1.66h0a13.48,13.48,0,0,0,1.61,1.79,5.78,5.78,0,0,1-.56-1.08l.08-.06a6.5,6.5,0,0,1,.83.91,8.84,8.84,0,0,1-.4-1c.25.23.5.46.74.7-.17-.36-.32-.75-.48-1.13h0a3,3,0,0,1,.51.78c0-.29.08-.65.1-1a16.61,16.61,0,0,0,.94,1.42c0-.23-.09-.52-.15-.82a6.32,6.32,0,0,0,1.07,1.16v-.22l.1.12c0-.12-.07-.23-.1-.35s0-.53,0-.82l.09-.06c.3.34.6.67.88,1-.18-.42-.35-.86-.53-1.29A7,7,0,0,1,25,92.34a4.39,4.39,0,0,0-.08-1l0-.14.54.62,0,.11,0,0a2.57,2.57,0,0,1,.39.62,3.2,3.2,0,0,0-.13-.75l.27-.15.44.5a3,3,0,0,0,0-.73l.07,0a4.53,4.53,0,0,0-.15-.44l0-.12.08,0a12.3,12.3,0,0,0,1,1.44q-.06-.39-.12-.81l0,0,0-.35.13.51s0-.18,0-.47l.61.81a5.16,5.16,0,0,0-.15-1.11c.07.1.16.19.24.29.09.28.17.55.26.86l.3-.2c.17.2.33.4.45.56a3.26,3.26,0,0,0-.08-.82l.31-.21a6.94,6.94,0,0,1,.63,1.13,3.75,3.75,0,0,0-.12-1c0-.1,0-.23.07-.38A7.83,7.83,0,0,1,31,92.33a12.46,12.46,0,0,0-.46-1.58c.12.17.25.33.38.49s0,0,0,0v0c.37.44.74.86,1.07,1.19,0-.11-.06-.22-.09-.33l.11.18.43-.56c.15.3.29.61.39.84a4.1,4.1,0,0,0-.05-.91c0-.1,0-.19-.06-.29h0a3.4,3.4,0,0,1,.12.34,14.51,14.51,0,0,1,.51,1.39,1.39,1.39,0,0,0,.12-.83,5.3,5.3,0,0,0-.1-.55s0-.07,0-.14c.14.36.26.73.37,1.1.07.2.16.41.21.61V93a11.67,11.67,0,0,0-.32-2.74,1.23,1.23,0,0,0,0-.2,8.08,8.08,0,0,0-.62-3,37.63,37.63,0,0,0-1.26-4.94c.24,1.19.44,2.38.58,3.57a11.59,11.59,0,0,0-2.85-3.26,39.51,39.51,0,0,0,2.16,4.68l.17.32c-.34-.41-.69-.8-1-1.17,0,.11.07.22.1.33-.21-.45-.43-.89-.67-1.32A13.08,13.08,0,0,0,29,82.06L30.15,85a8,8,0,0,0-.41-.7l.64,1.28.08.18,0-.1.63,1.25c.06.24.11.49.16.73l-.76-1.88a23.27,23.27,0,0,0,1,2.85l0,.13a1.78,1.78,0,0,0-.22-.26c-.29-.59-.56-1.18-.82-1.74a29.74,29.74,0,0,0-1.84-3.61,9.42,9.42,0,0,0-2.07-2.46A11,11,0,0,1,28,82.85a7.06,7.06,0,0,0-.88-1.14l2.06,4.47-1.1-1.81c.56,1.07,1.09,2.2,1.73,3.17l.31.69c0,.11.05.21.08.32l-.32-.31a7.36,7.36,0,0,0-.62-1.48,10.23,10.23,0,0,0-1.87-2.34c-.53-.51-.89-.81-.89-.81A11.18,11.18,0,0,0,26.93,85a21.33,21.33,0,0,0,1,2.15c.19.46.39.91.59,1.35l-.18-.13a27.22,27.22,0,0,0-1.62-3.14c0-.08-.05-.16-.08-.24a11.94,11.94,0,0,0-2.27-3.68,7,7,0,0,0-1.21-1.1s1.19,2.41,2.37,5.38c-.63-1-1.29-2-1.95-3l2.55,4.53.32.87L25,85.86c.36.7.72,1.41,1.11,2.08a12.15,12.15,0,0,1-1.54-2.06c0,.13.09.27.14.4a16.87,16.87,0,0,0-1.93-3.7l2.05,4.07c.22.55.47,1.07.72,1.61a2.92,2.92,0,0,1,.14.31c.12.25.24.51.35.77a4,4,0,0,1-.34-.27A12.92,12.92,0,0,0,24,85.92a12,12,0,0,0-2.67-3.66l.21.69a6.65,6.65,0,0,0-.41-.62l.45.76a41.38,41.38,0,0,0,1.54,4c.33.74.65,1.42.92,2l-.15-.15-.83-1.19C22.33,86,21.58,84,20.39,83.17L21,84.32a4.77,4.77,0,0,0-.9-.84l.31.44.37,1a23.13,23.13,0,0,0-1.31-2,17.17,17.17,0,0,0-2.09-2.42s.47.59,1.21,1.79a25.5,25.5,0,0,0,1.21,3.86,9.72,9.72,0,0,0-1-1.17,9.6,9.6,0,0,0-1.68-2.3l1.34,2c-.1-.08-.19-.17-.29-.24A5,5,0,0,1,19.11,86c-.17-.22-.34-.43-.52-.63l-.64-1,.22.61a5.3,5.3,0,0,0-1.28-.94l0,0-.48-.59a26.84,26.84,0,0,0-2.11-2.21s.68.85,1.8,2.56c.57.9,1.25,2,2,3.43a14.27,14.27,0,0,0-2.3-2.59s.12.48.36,1.2c-.83-1.22-1.59-2.23-2.25-3a28.79,28.79,0,0,0-2.3-2.48s1.06,1.28,2.66,3.9c-.52-.48-1-.88-1.4-1.21-.78-.63-1.29-1-1.29-1a16.5,16.5,0,0,0,.91,1.63,27.8,27.8,0,0,0,1.74,2.45c.16.36.4.86.7,1.39a7.3,7.3,0,0,1-1.8-2A16.35,16.35,0,0,1,14,87.32l-.26-.24a8.23,8.23,0,0,0-1.73-2.16l.79,1.25c-1.14-1.4-2.15-2.61-3-3.54A27.32,27.32,0,0,0,7,79.89,36.92,36.92,0,0,1,9.53,83c.78,1.05,1.7,2.39,2.78,4l.49.7c-.29-.36-.59-.72-.85-1.07v0a17.3,17.3,0,0,0-2.83-2.68l2.68,3.43c-1-1-2.17-1.74-3.22-2.81l2.86,3.33-.59-.4A12.63,12.63,0,0,0,9,86.26a.12.12,0,0,1,0,0c-.88-.77-1.68-1.46-2.39-2a13.31,13.31,0,0,0-3.38-2,16.56,16.56,0,0,1,3.12,2.38c.31.29.64.62,1,1a13.55,13.55,0,0,0-2.93-.8,17.45,17.45,0,0,1,2.85,1.34c.46.26,1,.58,1.52,1l1,1,.64.64-.06,0a15.73,15.73,0,0,0-5.6-3.73l4.74,3.36L8.4,87.94l0,.07L6.93,86.73a7.57,7.57,0,0,0,2.34,2.52L8.85,89l.19.19c-.45-.3-.89-.58-1.32-.82a14.35,14.35,0,0,0-3.19-2L6.19,87.6a16.21,16.21,0,0,0-2.71-1,12.87,12.87,0,0,0-3-.48,16.77,16.77,0,0,1,2.84,1A23.33,23.33,0,0,1,7.7,89.72l-.24,0L1.56,87.9c.21.48,2,1.17,3.77,1.6-.6,0-1.15,0-1.63,0H3.65a3.46,3.46,0,0,0-2.46-.12,6.51,6.51,0,0,1,1.26.25c-.9.12-1.41.26-1.41.24s.93,0,2.61.17h.1L4,90.2a.74.74,0,0,0,.21.37,9.84,9.84,0,0,0-1.82-.15c.88.39,1.9.93,2.93,1.34a4.75,4.75,0,0,0,2.77,1l.92.51c-.17-.12-.37-.21-.55-.32s-.52-.31-.8-.45Zm-.35-1.16.06,0H6.89Zm.24-.33A.6.6,0,0,0,7,90.75h.07Zm26.23.82c0-.13-.07-.26-.09-.39a3,3,0,0,1-.06-.32c0,.13.09.25.13.37A2.31,2.31,0,0,1,33.36,91.63Zm-3.09-3,0,0,0-.1A.5.5,0,0,1,30.27,88.63Zm-1.72-.44c.09.16.17.32.26.47h0l-.08,0Zm-5,.4-.22-.24-.2-.47ZM20.44,84l1.69,2.45L23,88c-.48-.57-1-1.17-1.45-1.72l-.55-1Q20.71,84.58,20.44,84Z"/><path class="cls-6" d="M47.21,92.08h0S47.07,94.2,47.21,92.08Z"/></g></g></svg>