<svg xmlns="http://www.w3.org/2000/svg" viewBox="0 0 124.57 171.78"><defs><style>.cls-1{fill:#66bc46;}.cls-2{fill:#603a17;}.cls-3{fill:#8d633a;}.cls-4{fill:#754d25;}.cls-5{fill:#96cb60;}</style></defs><g id="Layer_2" data-name="Layer 2"><g id="Layer_3" data-name="Layer 3"><path class="cls-1" d="M36,99.09,35,98.6a6.33,6.33,0,0,0-2.59.47,12.72,12.72,0,0,0-2.67,1.56c-1.37,1-2.09,1.68-2.09,1.67s.63-.69,1.92-1.83a12.24,12.24,0,0,1,2.61-1.78A6.72,6.72,0,0,1,34,98.1a27.11,27.11,0,0,0-4.2-1.56,9.16,9.16,0,0,0-1.91.27,8.3,8.3,0,0,0-2,.75,3.45,3.45,0,0,0-1.34,1.22,3.3,3.3,0,0,1,1.19-1.39,7.58,7.58,0,0,1,2-1l.65-.2-.23,0a23.54,23.54,0,0,0-5.32-.47c-1.24,0-1.88.14-1.88.13s.61-.15,1.82-.28a21.73,21.73,0,0,1,5.36,0c.31,0,.63.08.95.14a3.91,3.91,0,0,1-.39-.45,6.18,6.18,0,0,1-.9-1.71c-.33-1-.43-1.56-.44-1.56s.2.53.64,1.45a5.1,5.1,0,0,0,2.38,2.49,1.11,1.11,0,0,1,.29.1,29.59,29.59,0,0,1,3.26,1,6.63,6.63,0,0,1-.67-1.12,11.13,11.13,0,0,1-.87-2.49,11.37,11.37,0,0,1-.29-2.22,13.82,13.82,0,0,0,.5,2.13,12.07,12.07,0,0,0,1,2.34,7.63,7.63,0,0,0,1.46,1.83c.42.17.84.36,1.27.56s.69.34,1,.53c3.06-2.43,2.23-7.84-3-8.74-5.47-.93-9.79,3.45-16.91,5.68,6.42,2.26,9.82,10.23,13.4,10.84,4.84.82,7.38-3.24,6.65-6.35C37,99.68,36.46,99.37,36,99.09Z"/><path class="cls-1" d="M42.2,23.24c-.43-.88-.86-1.73-1.31-2.55-.27-.49-.55-1-.83-1.44a10,10,0,0,0-3.93-1.58,20.28,20.28,0,0,0-5-.17c-2.74.24-4.28.5-4.28.48s1.45-.38,4.18-.83a19.68,19.68,0,0,1,5.08-.2,10.93,10.93,0,0,1,2.93.73A43.28,43.28,0,0,0,34.71,12a14,14,0,0,0-2.83-1.27,13,13,0,0,0-3.32-.65,5.39,5.39,0,0,0-2.85.5,5.26,5.26,0,0,1,2.8-.87A12,12,0,0,1,32,10l1.06.28L32.81,10A37.72,37.72,0,0,0,26,4.83c-1.71-1-2.67-1.42-2.66-1.43s1,.32,2.72,1.17a35.54,35.54,0,0,1,7.25,4.64c.39.31.78.64,1.17,1a8.13,8.13,0,0,1-.15-1,9.56,9.56,0,0,1,.25-3.08c.39-1.64.75-2.49.73-2.5s-.18.89-.37,2.52A8.25,8.25,0,0,0,36,11.62a1.47,1.47,0,0,1,.31.38,44.7,44.7,0,0,1,3.58,4.13A13,13,0,0,1,40,14a17.88,17.88,0,0,1,1-4.13,17.81,17.81,0,0,1,1.5-3.27A21.92,21.92,0,0,0,41.27,10a19.33,19.33,0,0,0-.6,4.07,11.52,11.52,0,0,0,.43,3.73c.41.59.82,1.21,1.23,1.84s.65,1.07,1,1.61c6.23-.69,9.73-8.76,3.33-14.48C40,.78,30.36,3.05,18.78,0c6.78,8.56,4.6,22.29,9,26.18C33.61,31.44,40.53,28.09,42.2,23.24Z"/><path class="cls-1" d="M30.82,67.71C37,66.36,38,60.31,35.67,57c-.77-.13-1.53-.26-2.26-.35l-1.32-.13a8,8,0,0,0-2.86,1.8,16,16,0,0,0-2.42,3.13c-1.13,1.89-1.68,3-1.69,3s.42-1.12,1.41-3.1a16,16,0,0,1,2.25-3.38,8.74,8.74,0,0,1,1.84-1.56,36.69,36.69,0,0,0-5.75.17,11.79,11.79,0,0,0-2.14,1.24,9.91,9.91,0,0,0-2,1.85,4.27,4.27,0,0,0-1,2.08,4.12,4.12,0,0,1,.75-2.22,9.64,9.64,0,0,1,1.84-2.13l.68-.55-.3,0a29.49,29.49,0,0,0-6.55,2c-1.45.64-2.17,1.06-2.17,1s.66-.47,2-1.22a28.46,28.46,0,0,1,6.39-2.52c.38-.11.78-.2,1.19-.29a6.19,6.19,0,0,1-.68-.35A7.42,7.42,0,0,1,21.05,54a19.13,19.13,0,0,1-1.27-1.64s.49.54,1.45,1.41a6.5,6.5,0,0,0,4,1.82,1.43,1.43,0,0,1,.39,0A33.64,33.64,0,0,1,30,55.13a12.13,12.13,0,0,1-1.33-1,14.61,14.61,0,0,1-2.23-2.55A14.13,14.13,0,0,1,25,49.08a16.92,16.92,0,0,0,1.62,2.28A14.74,14.74,0,0,0,29,53.66a9.37,9.37,0,0,0,2.61,1.46c.58,0,1.17,0,1.77.07s1,.07,1.5.12c2.47-4.36-1.12-10.39-7.82-8.92-7,1.53-10,8.81-17.37,14.88C18.39,60.88,26.27,68.71,30.82,67.71Z"/><path class="cls-1" d="M76.62,42.9c.29-.43.58-.85.87-1.25s.73-1,1.09-1.42a9.33,9.33,0,0,0,.55-3,15.68,15.68,0,0,0-.27-3.3,17.79,17.79,0,0,0-.73-2.74,14.93,14.93,0,0,1,1,2.71,14.48,14.48,0,0,1,.54,3.38A9.72,9.72,0,0,1,79.63,39a35.36,35.36,0,0,1,3.1-3.13,1.23,1.23,0,0,1,.27-.29,6.61,6.61,0,0,0,1.18-4.3c-.06-1.31-.17-2-.16-2a19,19,0,0,1,.46,2.05,8.13,8.13,0,0,1,0,2.49,5.11,5.11,0,0,1-.18.75c.34-.26.67-.51,1-.74a28.31,28.31,0,0,1,6.08-3.33c1.46-.59,2.26-.79,2.25-.8s-.79.3-2.22,1a30.1,30.1,0,0,0-5.77,3.8l-.23.2c.29-.07.58-.12.86-.17a9.53,9.53,0,0,1,2.84-.07,4.28,4.28,0,0,1,2.21.85,4.43,4.43,0,0,0-2.27-.56,10.7,10.7,0,0,0-2.71.35,12.42,12.42,0,0,0-2.34.86,35.32,35.32,0,0,0-3.83,4.36,9,9,0,0,1,2.4-.43,15.69,15.69,0,0,1,4.08.44c2.16.5,3.3.91,3.31.89s-1.22-.28-3.42-.61a16.31,16.31,0,0,0-4-.14,8.07,8.07,0,0,0-3.25,1.06c-.25.36-.5.73-.74,1.12-.41.63-.8,1.29-1.19,2,1.07,4,6.46,7.07,11.48,3.15,3.7-2.89,2.69-14,8.61-20.57C88,29,80.4,26.64,74.73,31.07,69.27,35.32,71.65,42,76.62,42.9Z"/><path class="cls-1" d="M89.14,109.72c-4.44-3-8.77.37-8.23,4.24.38.1.76.22,1.12.33s.89.3,1.31.46a7.34,7.34,0,0,0,2.31-.31,11.61,11.61,0,0,0,2.36-1,12.46,12.46,0,0,0,1.83-1.19,11.56,11.56,0,0,1-1.74,1.41,11.21,11.21,0,0,1-2.34,1.21,8.52,8.52,0,0,1-1.26.35,27.08,27.08,0,0,1,3,1.52.87.87,0,0,1,.27.13,5.09,5.09,0,0,0,3.45-.17c1-.36,1.45-.62,1.45-.61a14,14,0,0,1-1.39.83,5.85,5.85,0,0,1-1.82.62,5.61,5.61,0,0,1-.59.06c.27.18.53.37.78.55a22.28,22.28,0,0,1,3.92,3.66,18.19,18.19,0,0,1,1.12,1.46s-.4-.51-1.27-1.39a24,24,0,0,0-4.18-3.32l-.21-.12.34.59a7.84,7.84,0,0,1,.73,2.07,3.17,3.17,0,0,1-.09,1.82,3.5,3.5,0,0,0-.14-1.79,8.1,8.1,0,0,0-.91-1.91,8.78,8.78,0,0,0-1.19-1.5A27.11,27.11,0,0,0,83.69,116a7,7,0,0,1,.9,1.66,12.57,12.57,0,0,1,.66,3.09c.15,1.72.13,2.65.14,2.66s-.09-1-.37-2.66a12.64,12.64,0,0,0-.86-3,6.39,6.39,0,0,0-1.56-2.13l-1-.28c-.56-.15-1.15-.28-1.74-.39-2.67,1.75-3.62,6.44.45,9.18,3,2,11-1.41,17.18,1.36C93.87,119,93.75,112.81,89.14,109.72Z"/><path class="cls-1" d="M97.06,70.46c-8.4,1.79-9.38,10.52-4.32,14.22.55-.32,1.1-.62,1.65-.91s1.33-.68,2-1a11.86,11.86,0,0,0,2.23-3,18.48,18.48,0,0,0,1.49-3.83,19.77,19.77,0,0,0,.67-3.44,18,18,0,0,1-.32,3.58,18.16,18.16,0,0,1-1.22,4.06,14.54,14.54,0,0,1-1,1.83,44.89,44.89,0,0,1,5.15-1.8,1.65,1.65,0,0,1,.46-.17,8.2,8.2,0,0,0,3.65-4.16c.65-1.5.92-2.37.94-2.37s-.14.92-.6,2.53a9.7,9.7,0,0,1-1.33,2.8,6.57,6.57,0,0,1-.6.75c.52-.11,1-.21,1.52-.29a35.88,35.88,0,0,1,8.59-.42c2,.14,3,.35,3,.34s-1-.1-3-.08a37.3,37.3,0,0,0-8.5,1.1l-.37.1c.36.08.72.18,1.06.27a12.64,12.64,0,0,1,3.2,1.47,5.25,5.25,0,0,1,2,2.15,5.56,5.56,0,0,0-2.23-1.85,12.31,12.31,0,0,0-3.2-1.08,14.16,14.16,0,0,0-3.08-.31,43.59,43.59,0,0,0-6.64,2.78,10.91,10.91,0,0,1,2.9.82,19.77,19.77,0,0,1,4.31,2.7c2.15,1.74,3.19,2.81,3.21,2.8s-1.21-1-3.48-2.54a19.82,19.82,0,0,0-4.37-2.32,9.9,9.9,0,0,0-4.2-.58c-.48.27-1,.54-1.44.84-.79.48-1.59,1-2.4,1.56-1,5,3.38,11.38,11.1,9.74,5.7-1.21,10.63-14.22,20.78-18.27C113,75.35,105.78,68.6,97.06,70.46Z"/><path class="cls-2" d="M46.31,105a32.84,32.84,0,0,0-11.08-7.19,32,32,0,0,0-4.4-1.34A35.5,35.5,0,0,1,35,98.09a32.64,32.64,0,0,1,10.17,7.61A48.43,48.43,0,0,1,55,123.24a72.5,72.5,0,0,1,2.39,9.17c-.1,6.33,0,16.87-5,19.63l3.11,5.74c1.46-2.88,2.39-11.6,2.89-14.63.14-1.63.29-3.26.43-4.91.17-9.54-3.42-19.36-8.11-28.25A38.63,38.63,0,0,0,46.31,105Z"/><path class="cls-2" d="M58.35,143.15a33.55,33.55,0,0,0,.43-4.91C58.64,139.89,58.49,141.52,58.35,143.15Z"/><path class="cls-3" d="M55.46,152h2.15q.33-4.39.74-8.89A30.63,30.63,0,0,1,55.46,152Z"/><path class="cls-2" d="M57.34,86.62c.12,2.26.2,4.57.21,6.95.09,6.19.1,12.74.05,19.59a91.22,91.22,0,0,0,1.71-16.3A82.67,82.67,0,0,0,57.34,86.62Z"/><path class="cls-4" d="M60.11,112.47c0-.29.08-.57.12-.86a121.69,121.69,0,0,0-.92-14.75,91.22,91.22,0,0,1-1.71,16.3c0,3.1-.05,6.25-.09,9.47A56,56,0,0,0,50.67,110c4.69,8.89,8.28,18.71,8.11,28.25.78-8.8,1.49-17.8,1.45-26.63C60.19,111.9,60.16,112.18,60.11,112.47Z"/><path class="cls-3" d="M85.68,89.64C74,94.42,66.35,104.45,62.87,116c0,.67,0,1.33,0,2,0-.67,0-1.33,0-2a50.83,50.83,0,0,0-1.23,5q-.26,4.44-.61,8.86.36-4.42.61-8.86a51.21,51.21,0,0,0-.59,15.43,29.39,29.39,0,0,1,1.68-9.82C61.62,110.72,71.5,96.73,85.68,89.64Z"/><path class="cls-4" d="M61.64,121a50.83,50.83,0,0,1,1.23-5c.19-17.53,2.82-34.25,5.46-51C62.8,83.16,62.74,102,61.64,121Z"/><path class="cls-4" d="M97.81,82.86a88.8,88.8,0,0,0-12.59,6,79.87,79.87,0,0,0-8.53,5.61,53,53,0,0,0-9,8.47,32.82,32.82,0,0,0-2.08,2.83c-.45.71-.83,1.36-1.22,2,.83-16.21,2.41-30,4.74-40.95,2.08-9.92,4.86-17.37,7.56-22a25.43,25.43,0,0,1,5-6.46,25.08,25.08,0,0,0-5.37,6c-3,4.4-6.31,11.67-9,21.5a201.12,201.12,0,0,0-4.86,23.91c-.23-2.81-.5-5.57-.87-8.24-.54-4-1.2-7.81-1.93-11.44-1.45-7.27-3.15-13.82-4.9-19.64-1.07-3.57-2.16-6.85-3.25-9.87,5.35,22.84,12,46.51,8.76,71,0,8.83-.67,17.83-1.45,26.63a33.55,33.55,0,0,1-.43,4.91q-.41,4.5-.74,8.89h5.71a55,55,0,0,1-2.27-15.65A51.21,51.21,0,0,1,61.64,121c1.1-18.95,1.16-37.8,6.69-56-2.64,16.72-5.27,33.44-5.46,51C66.35,104.45,74,94.42,85.68,89.64c-14.18,7.09-24.06,21.08-23,36.93a18.64,18.64,0,0,1,5.43-7.93,20.9,20.9,0,0,1,2.91-2.52,20.9,20.9,0,0,0-2.91,2.52A19.1,19.1,0,0,1,72,116.12a19.1,19.1,0,0,0-3.83,2.52c-8.28,8.64-9.37,29.26-3.56,39.5l4.65-6.1c-5.48-2.76-4.82-15.88-5-23.38a24,24,0,0,1,2.28-5.81,16.1,16.1,0,0,1,8-7.26,13.23,13.23,0,0,1,7-.86,7,7,0,0,1,2.41.82,6.91,6.91,0,0,0-2.27-1.17,13.25,13.25,0,0,0-7.43-.09,17.38,17.38,0,0,0-9.79,7c-.14.2-.27.42-.4.63,0-.5,0-1,0-1.49a22.05,22.05,0,0,1,.76-3.23,36.89,36.89,0,0,1,2.69-6.11l1.53-3a28.83,28.83,0,0,1,1.59-2.61,50.31,50.31,0,0,1,7.73-8.61A85.4,85.4,0,0,1,86,90.67a99,99,0,0,1,11.9-7.25c2.85-1.47,4.42-2.12,4.42-2.13S100.77,81.74,97.81,82.86Z"/><path class="cls-2" d="M51.28,40.05a124.22,124.22,0,0,0-6.83-15.66,48.06,48.06,0,0,0-5.29-8.22,49,49,0,0,1,4.51,8.36,148.38,148.38,0,0,1,8.33,26c1.37,5.8,2.66,12.31,3.7,19.49.23,1.6.44,3.22.64,4.87-.43-.91-.88-1.81-1.36-2.66A36.16,36.16,0,0,0,44,60a24.33,24.33,0,0,0-9.56-4.12,7.18,7.18,0,0,0-3.61.11,7.28,7.28,0,0,1,3.5.06,24,24,0,0,1,9.11,4.36A35.68,35.68,0,0,1,53.73,72.67a43.59,43.59,0,0,1,3.2,8q.26,2.91.41,5.94a82.67,82.67,0,0,1,2,10.24C59.66,77.68,54.79,58.62,51.28,40.05Z"/><path class="cls-4" d="M51.47,40.58c-.07-.17-.13-.35-.19-.53,3.51,18.57,8.38,37.63,8,56.81a121.69,121.69,0,0,1,.92,14.75C63.5,87.09,56.82,63.42,51.47,40.58Z"/><path class="cls-3" d="M62.73,126.57c0,.47.07,1,.13,1.43-.06-.48-.1-1-.13-1.43a29.39,29.39,0,0,0-1.68,9.82,49.24,49.24,0,0,0,.89,5.3,49.24,49.24,0,0,1-.89-5.3A55,55,0,0,0,63.32,152h3c-5.81-10.24-6.43-24.76,1.85-33.4A18.64,18.64,0,0,0,62.73,126.57Z"/><path class="cls-5" d="M82.17,160.55c.37-.34,10.63-8.47,11-8.83l-5,3.25c.16-.15-.34.3-.2.17l.09-.08.11-.09h0l.14-.12h0a2.13,2.13,0,0,1,.22-.21c.49-.48.76-.8.63-1l-.08,0,2.77-2.42.38-.33.14-.12-.09.06L92,151c-.66.4-2.1,1.28-4.21,2.66l-.31.21-.53.2c1.19-1.34,2.31-2.53,3.28-3.49,1.74-1.73,3-2.75,3-2.75a25,25,0,0,0-4.06,2,31.22,31.22,0,0,0-5.27,4c.51-.71.72-1.2.5-1.34s-1.41.31-2.87,1.3c.93-1,1.8-1.83,2.6-2.54,1.57-1.41,2.69-2.26,2.68-2.27a23.52,23.52,0,0,0-3.68,1.48c-.33.16-.67.35-1,.54-.73.3-1.61.68-2.54,1.15,1.24-1.43,2.8-3.55,2.49-3.75a57.82,57.82,0,0,0-7.19,5.26l1.49-2.34s-.42.24-1.09.69c.39-.68.53-1.15.28-1.27s-.67.08-1.29.45l.35-.51c2.07-3,3.36-4.61,3.35-4.62s-1.59,1.41-4.16,4.19l-.4.44c.59-.94,1.17-1.83,1.71-2.62,2.68-4,4.48-6.09,4.46-6.1a73.66,73.66,0,0,0-5.26,5.66c-.53.61-1.08,1.29-1.65,2l-.24.3c-.47.59-.95,1.22-1.45,1.87.22-.42.42-.8.58-1.14l.87-1,.12-.12.15-.16A20.18,20.18,0,0,0,75.34,145s-2.45,2.11-4.46,3.61a36.71,36.71,0,0,0-3.2,2.67,58.69,58.69,0,0,1,3.22-5.24,32.17,32.17,0,0,1,3.81-4.68,30.58,30.58,0,0,0-4.62,4.24,56.41,56.41,0,0,0-4.43,5.57c-.69,1-1.41,2.11-2.1,3.29l-.2.34c.08-.23.18-.44.26-.66a52.5,52.5,0,0,1,3.79-7.69c2-3.3,3.3-5.09,3.28-5.09s-1.16,1.14-3,3.38c.45-1.06.64-1.63.64-1.63s-.7,1.28-2.19,3.56c-.53.69-1.1,1.45-1.68,2.29,0-.34,0-.54-.15-.59s-.58.18-1.09.65c1-2.95,1.94-5.56,2.77-7.83.1-.25.19-.52.28-.76l.06-.15c.14-.39.26-.74.4-1.11.08-.22.16-.45.24-.66.23-.65.44-1.27.63-1.84,1.12-3.37,1.53-5.25,1.54-5.25s-.58,1.59-1.85,4.47c-.17.39-.35.8-.55,1.23l-.43.94-.22.47c-.21.46-.42.91-.66,1.4,0,.05,0,.1-.07.14-1.24,2.66-2.83,5.89-4.36,9.73a73.16,73.16,0,0,0-1.63-7.35l-.15-.46a17.26,17.26,0,0,0-.53-1.8,2.08,2.08,0,0,0,0,.33c-.49-1.36-.85-2.08-.84-2.08s.27,1.43.48,4.05c.09.94.13,2.05.16,3.3-.24.49-.73,1.55-1.33,3.14-.5-3-.92-4.65-.92-4.65v5.14c0,.63,0,1.34,0,2.09a1.42,1.42,0,0,0-.07.22,11.25,11.25,0,0,0-.7,1c-.1-.22-.18-.44-.27-.65s0-.52,0-.75c.05-1.42-.2-2.32-.6-2.35-.17,0-.35.13-.54.37-.33-.88-.64-1.75-.91-2.57-.08-1.22-.16-1.89-.16-1.88s0,.35-.12,1c-.65-2-1.14-3.85-1.55-5.42-.06-.22-.11-.45-.17-.66-.22-.9-.41-1.7-.58-2.42-.54-2.32-.78-3.6-.79-3.6s0,2.13.37,6a65.52,65.52,0,0,0,2,11q-.06.4-.12.84c-.36-.9-.68-1.47-.66-1.48a.86.86,0,0,0-.07.12c-.16-.8-.44-1.27-.72-1.28A12.28,12.28,0,0,0,49,145.49a13.62,13.62,0,0,1,.69,3.28c-.39-1.74-.69-2.7-.69-2.7v4.21c0,.46,0,1,0,1.47,0,.28,0,.55,0,.84s-.26.88-.39,1.36c-.05-.62-.1-1.22-.14-1.8-.09-1.08-.18-2.1-.27-3,0-.15,0-.3,0-.45h0c-.18-1.91-.35-3.45-.48-4.57l0-.25c-.14-1.21-.23-1.87-.23-1.87s0,.25-.09.69c0,.11,0,.23-.05.36-.13,1.07-.35,2.92-.59,5.5q-.09.93-.18,2c-.05.15-.11.36-.18.59s-.11.41-.16.66c0-.09-.06-.17-.09-.25l-.5-1.47-1-3a1.59,1.59,0,0,1-.07-.2c-.06-.17-.11-.34-.17-.5l-.12-.35,0-.08c-1-2.92-1.64-4.53-1.64-4.53l.38,2.67.22,1.56,0,.35c.13.94.27,2,.46,3.22,0,.28.08.55.13.83s.11.68.17,1,0,.48,0,.74V152l-.05-.1a27.82,27.82,0,0,0-2.14-3.75A21.5,21.5,0,0,0,39,144.85c-.79-.75-1.31-1.11-1.28-1.11s.41.43,1.06,1.28a20.52,20.52,0,0,1,2,3.29,32,32,0,0,1,2,5.55l.08.25v0c.33,1.16.63,2.41,1,3.75.16.62.34,1.26.53,1.91,0,.11-1.45,3-.68,1.67.35-.6,1.18,0,1.42.69l.31-.07c.37.64,1.16,3.51,1.48,3.46s-.08-2.72,0-3A15.23,15.23,0,0,0,49.13,166a15.07,15.07,0,0,0,2.28,2.28s-.41-1-.9-2.67c-.15-.49-.3-1-.45-1.62,0-.39,0-.92,0-1.56,0-.17,0-.36,0-.54l.51,0c0,.37,0,.58,0,.58a6.5,6.5,0,0,0,.64-.63l.22,0c0,.08,0,.17.05.25.44,1.43,1.12,2.22,1.5,2.16a.4.4,0,0,0,.26-.22.14.14,0,0,0,0,.06l.79-.26a14.57,14.57,0,0,0,1.34,3.92,12.86,12.86,0,0,0,1.09-3l1.12.07a14.62,14.62,0,0,0,.2,1.76l.78-1.7.36,0c0,.7.24,1.12.47,1.1s.3-.18.49-.5c.16,1,.32,1.66.31,1.67A21.34,21.34,0,0,0,62,162c.21-.3.43-.61.67-.93a15.25,15.25,0,0,0-.85,3.68l3.61-4-2.15,5.52c.31-.54,2.07-2.17,2.38-2.7a27.75,27.75,0,0,0-1.44,4.66s4.72-7.66,6.56-10c1-.68-4.4,9.06-2.49,7.07l3.77-5.22,1.7-1.25a29.43,29.43,0,0,0-1.94,3.57,28.19,28.19,0,0,0-1.17,2.91s.29-.25.76-.7c0,0,0,.09,0,.11.53.28,2.71-1.29,5.33-3.64a7.84,7.84,0,0,0-1,2,5.72,5.72,0,0,0-.29,2.22s.25-.31.7-.79a.23.23,0,0,0,.11.2s.06,0,.09,0a20.72,20.72,0,0,0-.9,2.92s1.23-1.52,3.12-3.83l-.17,2c.55-.89,8.42-7.88,9.06-8.67C87.89,156.89,81.78,160.9,82.17,160.55ZM57.84,151.7c-.05.28-.09.58-.14.87l-.09-.68c.11-.83.22-1.58.32-2.25.23-1.54.43-2.66.56-3.36,0,.32,0,.64,0,1C58.34,148.57,58.11,150,57.84,151.7Z"/><path class="cls-5" d="M117.26,164.79c-1.72,0-3.78,0-6.13,0l-1.87,0,.76-.3.89-.34.47-.18.77-.3a2,2,0,0,0,.32-.13,8.47,8.47,0,0,0-1.73-.46,9,9,0,0,0-4.36.38,6.56,6.56,0,0,0-2,1.11l-1.83.17A14.16,14.16,0,0,0,104,164a12.77,12.77,0,0,0,1.51-1.1l.79-.27.6-.2,1.54-.51c1.65-.52,3.16-.95,4.48-1.27,3.74-.91,6-1.13,6-1.16a49.2,49.2,0,0,0-6.12.44c-1.76.23-3.88.62-6.24,1.17l-.27.06.19-.08c.75-.34,1.46-.65,2.08-.95,3.13-1.45,4.73-2.4,4.74-2.39s-1.79.66-5.13,1.72l-1.81.58L102,161.42c-1.36.44-2.83.94-4.37,1.53,1.47-.87,2.77-1.68,3.83-2.28,1.27-.72,2.16-1.15,2.16-1.16a14.24,14.24,0,0,0-2.78.19l-.11,0c.87-.83,1.71-1.56,2.47-2.19.56-.46,1.07-.86,1.55-1.22,1.78-1.37,2.9-2.05,2.89-2.06a43.62,43.62,0,0,0-4.71,2.5l-.36.21a48.49,48.49,0,0,0-4.09,2.86l-.38.31c-.2.15-.4.3-.6.47s1.08-.81,1-.78-1.57.86-1.75.86-2.26,1.5-2.59,1.55c-1.15.14,4.56-4.43,3.34-3.82-.95.48-7.11,4.46-7.71,5l-.82.33c-.82.35-1.57.71-2.27,1.07l.1-.16a36,36,0,0,0,4.34-2.83l1.14-.84c.94-.7,1.79-1.33,2.48-1.88l.08-.06.33-.15c2.19-1,3.67-1.66,3.65-1.68s-.38,0-1,0l2.6-1.51,0,0,5.62-3.2s-1.39.55-3.91,1.62l-2.18.93c-1.32.59-2.87,1.28-4.57,2.08a11.08,11.08,0,0,0-2.23.76c-.33.07-.65.13-1,.22h0l0,0c.73-.77,1.43-1.49,2.12-2.17,1.22-1.22,2.36-2.31,3.36-3.26l5.18-4.81s-1.51,1-4.19,3L97,152.1c-1.34,1-2.9,2.23-4.59,3.64,0-.13.06-.25,0-.32-.38-.39-6.53,3.47-3.85,2A15.45,15.45,0,0,0,94,151.63c-.4.29-8.4,7.13-8.79,7.47l-.38.35c-2.89,2.56-4.3,5-3.65,5.32a.93.93,0,0,0,.64-.09,7.33,7.33,0,0,0-.64,1.26s.93-.64,2.44-1.53l.48-.27c-.35.45-.7.88-1,1.36l1.47.49c-1.59,1-2.56,1.7-2.56,1.7a30.52,30.52,0,0,0,8.35-2.06c-.75.89-1.1,1.49-1.12,1.48s1-.34,2.38-1l-.4.41.84.38c-1.28.43-2,.76-2,.76s1.22.05,3.11,0a54.67,54.67,0,0,0,6.75-.42l.06.25c.63-.11,1.22-.2,1.83-.29l1.11-.17h0l.07,0c2.61-.39,5-.66,7.26-.89,2.72-.27,5.11-.47,7.07-.68,4.17-.41,6.48-.75,6.48-.75Z"/><path class="cls-5" d="M48.2,169.1a19.65,19.65,0,0,1-4.68-5c.19-.18.25-.6.19-1.2a3.18,3.18,0,0,1,.47.73l1.27.23-.81-2.5-.26-.33c0-.26-.05-.53-.08-.82,0-.08,0-.17,0-.25-.09-.63,2.38,1.6,2.15.89,0-.16-2.73-3.23-2.79-3.39s0,0,0-.06c-.08-.22,2.9,3.67,2.81,3.45-.28-.67-4.64-8.87-5-9.46,0-.09.85,3.31.79,3.23a14.82,14.82,0,0,0-1.77-2.27,9.38,9.38,0,0,0-1.87-1.57s.13.46.32,1.22l-.08-.13a18.58,18.58,0,0,0-2.65-3.43A21.09,21.09,0,0,1,37.84,152c.13.35.27.73.4,1.13a.67.67,0,0,0-.48-.07c-.34.13-.29.78,0,1.73q.1.36.27.78a.25.25,0,0,0,0,.07c0,.06,0,.11.06.18.18.46.39,1,.63,1.5.16.38.33.77.52,1.18.05.09.09.19.13.28l0,.1a22,22,0,0,0,2.32,4l-.24-.15a9.36,9.36,0,0,0-.9-1.21c-.07-.2-.15-.38-.22-.57-.17-.42-.37-.81-.56-1.18s-.35-.64-.53-1l-.12-.21c-.18-.31-.36-.6-.54-.89l-.09-.15-.18-.28-.11-.16c-.09-.15-.19-.29-.28-.43l-.59-.9c-.31-.45-.6-.88-.87-1.26-1.23-1.72-2-2.65-2-2.65l1,2.87.75,2-.53-.28c-.14-.16-.28-.3-.43-.46l-.17-.18a22.25,22.25,0,0,0-6.75-5l-.24-.12-.08,0,.08.07.22.17A24.41,24.41,0,0,1,31,153.37a17.8,17.8,0,0,1,1.85,2.24q.24.33.48.69c.19.27.37.54.55.82a2.54,2.54,0,0,0-.63-.06h0c-.22-.28-.44-.53-.66-.78s-.51-.59-.75-.85a30.51,30.51,0,0,0-2.94-2.93s.81,1.11,2,3.22l.68,1.23a26.15,26.15,0,0,0-5.92-3.86,31,31,0,0,0,2.9,4.17l.11.15c.3.35.61.72,1,1.1a1.11,1.11,0,0,0,.31.67,5.19,5.19,0,0,0,.53.57c.14.14.3.29.48.44.64.57,1.47,1.22,2.41,1.91l.18.13c1,.82,1.85,1.47,2.47,1.91-.3-.13-1.27-.54-2.53-1.23-.85-.46-1.84-1.08-2.89-1.76,0,0,4.3,3,4.27,3s.22-2.44-4.64-3.26c-.6-.63,3.84,1.9,3.32,1.33-1.13-1.24-7.11-5.47-7.95-6.39-2-2.17-3.14-3.34-3.14-3.34l2.23,3.64c.33.53.7,1.12,1.11,1.76-3.16-2.11-5.71-3.67-5.75-3.65a17.39,17.39,0,0,0,3.2,4.4l.49.49c.25.23.52.46.8.69s.5.44.78.66a.75.75,0,0,0-.33.11c-.76-.63-1.49-1.19-2.19-1.71-.95-.69-1.85-1.3-2.65-1.79-.4-.25-.77-.47-1.12-.67l-.17-.1c-1.76-1-2.83-1.48-2.82-1.49s1.27.92,3.34,2.72l.13.12.16.15c.9.8,1.91,1.76,3,2.91-.2-.11-.4-.2-.6-.3-.7-.34-1.37-.65-2-.9-1-.44-1.89-.76-2.46-.95l0,0c-.45-.15-.74-.23-.74-.23a28.88,28.88,0,0,0,4.85,4.4.1.1,0,0,1,.05,0l-1.21-.38-.11-.07c-.52-.3-1.05-.6-1.63-.9a24.3,24.3,0,0,0-5.29-2l-1.06-.65c-1.15-.7-2-1.15-2.44-1.38l-.39-.2s.39.29,1.09.85c.36.28.79.63,1.3,1.07l-.18,0a12.1,12.1,0,0,0-1.41-.14l2,1.31c.83.55,1.84,1.26,3,2,.34.33.7.7,1.06,1.07l.43.44-1.29-.61c-1.19-.57-2.28-1.07-3.25-1.5-1.91-.88-3.36-1.46-4.23-1.79-.59-.23-.93-.34-.93-.34s.59.32,1.65.94c.73.43,1.69,1,2.85,1.73l3.34,2.08a19.71,19.71,0,0,0-5.43-.66l.14.14c.11.11.28.27.51.46H9.64l.83.14a10.89,10.89,0,0,0,1.19.82c-1.26-.25-2-.38-2-.38s.62.38,1.73,1c-1.65-.27-3.17-.46-4.5-.54-1-.07-2-.09-2.8-.09a30.48,30.48,0,0,0-4.07.26s1.16-.05,3.24.12c.94.08,2.06.2,3.37.41a49.79,49.79,0,0,1,5,1.1c.78.2,1.58.43,2.41.69,2.83.86,5.94,2,9.5,3.31l-5-3.48c6.27,1.42,16.88,4.26,16.86,4.27s-3.09-1.2-7.56-2.59l4.24.12A50.16,50.16,0,0,0,23.75,166c-.37-.32-3.07-1.16-3.43-1.47a17.7,17.7,0,0,0,2.33.59,7.56,7.56,0,0,0,2.29,1l.17,0c.45.2.9.39,1.37.57a73.22,73.22,0,0,0,7.87,2.44c2.07.53,3.4.83,3.41.83a29.84,29.84,0,0,0-2.69-1.77c-1.11-.65-2.56-1.39-4.2-2.14l-.74-.56-.9-.67.15-.06c-.76-.85-2.34-1.36-3.1-2.09.84.48,2.67.73,3.75,1.33l.26.14c.46.58.95,1.16,1.47,1.76l1-.5a56.84,56.84,0,0,0,6.44,2.81c.18.05-2.88-2.11-3-2.42a6,6,0,0,0-1.21-1.7c.67,0,1.09,0,1.21,0,.15.19.28.38.44.58l.23-.11.17.11a1.08,1.08,0,0,0-.05-.17l.26-.12c.64.3,3.29,1.87,3.55,1.73s-1.91-1.92-2.15-2.41l0,0C44.33,167.11,48.21,169.08,48.2,169.1Z"/></g></g></svg>