<svg width="152" height="139" viewBox="0 0 152 139" fill="none" xmlns="http://www.w3.org/2000/svg">
<path fill-rule="evenodd" clip-rule="evenodd" d="M79.4233 49.615H13.3812C6.00248 49.615 0 43.6121 0 36.2338V21.6271C0 14.2485 6.00289 8.24597 13.3812 8.24597H79.4233C86.8019 8.24597 92.8044 14.2489 92.8044 21.6275V36.2342C92.8048 43.6121 86.8019 49.615 79.4233 49.615ZM13.3812 12.9879C8.61778 12.9879 4.74237 16.8633 4.74237 21.6271V36.2338C4.74237 40.9976 8.61778 44.8726 13.3812 44.8726H79.4233C84.187 44.8726 88.062 40.9972 88.062 36.2338V21.6271C88.062 16.8633 84.1866 12.9883 79.4233 12.9883L13.3812 12.9879Z" fill="black"/>
<path fill-rule="evenodd" clip-rule="evenodd" d="M27.5987 59.804C26.2892 59.804 25.2275 58.7424 25.2275 57.4329V47.2437C25.2275 45.9342 26.2892 44.8726 27.5987 44.8726C28.9082 44.8726 29.9699 45.9342 29.9699 47.2437V57.4324C29.9699 58.7424 28.9082 59.804 27.5987 59.804Z" fill="black"/>
<path fill-rule="evenodd" clip-rule="evenodd" d="M65.2052 59.8042C63.8957 59.8042 62.834 58.7425 62.834 57.433V47.2439C62.834 45.9344 63.8957 44.8727 65.2052 44.8727C66.5147 44.8727 67.5764 45.9344 67.5764 47.2439V57.4326C67.5764 58.7425 66.5147 59.8042 65.2052 59.8042Z" fill="black"/>
<path fill-rule="evenodd" clip-rule="evenodd" d="M70.9839 39.4621C66.4905 39.4621 62.835 35.8065 62.835 31.3131C62.835 24.8261 69.1532 19.2213 69.422 18.9859C70.3161 18.2033 71.6516 18.2033 72.5453 18.9859C72.8141 19.2213 79.1323 24.8261 79.1323 31.3131C79.1323 35.8065 75.4768 39.4621 70.9839 39.4621ZM70.9835 24.1642C69.429 25.9685 67.5769 28.7345 67.5769 31.3127C67.5769 33.1912 69.105 34.7193 70.9835 34.7193C72.8619 34.7193 74.39 33.1912 74.39 31.3127C74.3904 28.7349 72.5391 25.9697 70.9835 24.1642Z" fill="black"/>
<path fill-rule="evenodd" clip-rule="evenodd" d="M41.2296 59.8039C39.9201 59.8039 38.8584 58.7422 38.8584 57.4327V6.13889C38.8584 4.82938 39.9201 3.7677 41.2296 3.7677C42.5391 3.7677 43.6008 4.82938 43.6008 6.13889V57.4327C43.6008 58.7422 42.5391 59.8039 41.2296 59.8039Z" fill="black"/>
<path fill-rule="evenodd" clip-rule="evenodd" d="M51.5753 59.8039C50.2658 59.8039 49.2041 58.7422 49.2041 57.4327V6.13889C49.2041 4.82938 50.2658 3.7677 51.5753 3.7677C52.8848 3.7677 53.9465 4.82938 53.9465 6.13889V57.4327C53.9465 58.7422 52.8848 59.8039 51.5753 59.8039Z" fill="black"/>
<path fill-rule="evenodd" clip-rule="evenodd" d="M33.2503 12.9879C31.9408 12.9879 30.8791 11.9262 30.8791 10.6167V5.55072H24.3205V10.6167C24.3205 11.9262 23.2588 12.9879 21.9493 12.9879C20.6398 12.9879 19.5781 11.9262 19.5781 10.6167V3.17953C19.5781 1.87003 20.6398 0.80835 21.9493 0.80835H33.2503C34.5598 0.80835 35.6215 1.87003 35.6215 3.17953V10.6167C35.6215 11.9262 34.5602 12.9879 33.2503 12.9879Z" fill="black"/>
<path fill-rule="evenodd" clip-rule="evenodd" d="M51.5747 40.4582H41.2296C39.9201 40.4582 38.8584 39.3965 38.8584 38.087C38.8584 36.7775 39.9201 35.7158 41.2296 35.7158H51.5747C52.8842 35.7158 53.9459 36.7775 53.9459 38.087C53.9459 39.3969 52.8842 40.4582 51.5747 40.4582Z" fill="black"/>
<path fill-rule="evenodd" clip-rule="evenodd" d="M51.5747 31.3016H41.2296C39.9201 31.3016 38.8584 30.2399 38.8584 28.9304C38.8584 27.6209 39.9201 26.5592 41.2296 26.5592H51.5747C52.8842 26.5592 53.9459 27.6209 53.9459 28.9304C53.9459 30.2399 52.8842 31.3016 51.5747 31.3016Z" fill="black"/>
<path fill-rule="evenodd" clip-rule="evenodd" d="M51.5747 22.1445H41.2296C39.9201 22.1445 38.8584 21.0828 38.8584 19.7733C38.8584 18.4638 39.9201 17.4021 41.2296 17.4021H51.5747C52.8842 17.4021 53.9459 18.4638 53.9459 19.7733C53.9459 21.0828 52.8842 22.1445 51.5747 22.1445Z" fill="black"/>
<path fill-rule="evenodd" clip-rule="evenodd" d="M27.3081 22.3846H19.3136C18.0041 22.3846 16.9424 21.3229 16.9424 20.0134C16.9424 18.7039 18.0041 17.6422 19.3136 17.6422H27.3081C28.6176 17.6422 29.6793 18.7039 29.6793 20.0134C29.6793 21.3229 28.618 22.3846 27.3081 22.3846Z" fill="black"/>
<path fill-rule="evenodd" clip-rule="evenodd" d="M124.982 59.8039C123.672 59.8039 122.61 58.7423 122.61 57.4327V45.7369C122.61 35.1621 114.007 26.5591 103.433 26.5591H90.4347C89.1252 26.5591 88.0635 25.4975 88.0635 24.188C88.0635 22.8785 89.1252 21.8168 90.4347 21.8168H103.433C109.822 21.8168 115.829 24.3049 120.347 28.8229C124.865 33.3409 127.353 39.3475 127.353 45.7369V57.4327C127.353 58.7423 126.291 59.8039 124.982 59.8039Z" fill="#4B2524"/>
<path fill-rule="evenodd" clip-rule="evenodd" d="M115.497 59.8041C114.188 59.8041 113.126 58.7424 113.126 57.4329V45.4839C113.126 40.2784 108.891 36.0436 103.686 36.0436H90.4347C89.1252 36.0436 88.0635 34.982 88.0635 33.6725C88.0635 32.3629 89.1252 31.3013 90.4347 31.3013H103.686C111.506 31.3013 117.868 37.6635 117.868 45.4839V57.4329C117.868 58.7424 116.807 59.8041 115.497 59.8041Z" fill="black"/>
<path fill-rule="evenodd" clip-rule="evenodd" d="M124.981 138.873H115.496C114.187 138.873 113.125 137.811 113.125 136.502V66.9175C113.125 65.608 114.187 64.5463 115.496 64.5463C116.806 64.5463 117.867 65.608 117.867 66.9175V134.13H122.61V66.9175C122.61 65.608 123.671 64.5463 124.981 64.5463C126.29 64.5463 127.352 65.608 127.352 66.9175V136.502C127.352 137.811 126.291 138.873 124.981 138.873Z" fill="#4B2524"/>
<path fill-rule="evenodd" clip-rule="evenodd" d="M149.385 69.2886H2.37119C1.06168 69.2886 0 68.227 0 66.9175V57.4327C0 56.1232 1.06168 55.0615 2.37119 55.0615H149.385C150.694 55.0615 151.756 56.1232 151.756 57.4327V66.9175C151.756 68.227 150.694 69.2886 149.385 69.2886ZM4.74237 64.5463H147.014V59.8039H4.74237V64.5463Z" fill="black"/>
<path fill-rule="evenodd" clip-rule="evenodd" d="M11.1499 89.0263H2.37119C1.06168 89.0263 0 87.9646 0 86.6551C0 85.3456 1.06168 84.2839 2.37119 84.2839H11.1499C12.4594 84.2839 13.5211 85.3456 13.5211 86.6551C13.5211 87.965 12.4594 89.0263 11.1499 89.0263Z" fill="#4B2524"/>
<path fill-rule="evenodd" clip-rule="evenodd" d="M49.9741 124.141H16.5255C15.216 124.141 14.1543 123.079 14.1543 121.769C14.1543 120.46 15.216 119.398 16.5255 119.398H49.9745C51.284 119.398 52.3456 120.46 52.3456 121.769C52.3456 123.079 51.2836 124.141 49.9741 124.141Z" fill="#4B2524"/>
<path fill-rule="evenodd" clip-rule="evenodd" d="M74.943 107.693H69.3028C67.9933 107.693 66.9316 106.632 66.9316 105.322C66.9316 104.013 67.9933 102.951 69.3028 102.951H74.943C76.2525 102.951 77.3142 104.013 77.3142 105.322C77.3142 106.632 76.2525 107.693 74.943 107.693Z" fill="black"/>
<path fill-rule="evenodd" clip-rule="evenodd" d="M90.4349 92.3564H63.6339C62.3244 92.3564 61.2627 91.2947 61.2627 89.9852C61.2627 88.6757 62.3244 87.614 63.6339 87.614H90.4349C91.7444 87.614 92.8061 88.6757 92.8061 89.9852C92.8061 91.2947 91.7444 92.3564 90.4349 92.3564Z" fill="#4B2524"/>
<path fill-rule="evenodd" clip-rule="evenodd" d="M35.8528 110.065C31.2458 110.065 27.498 106.316 27.498 101.71C27.498 97.1029 31.2458 93.3551 35.8528 93.3551C40.4597 93.3551 44.2075 97.1029 44.2075 101.71C44.2075 106.317 40.4597 110.065 35.8528 110.065ZM35.8528 98.0971C33.8607 98.0971 32.2404 99.7178 32.2404 101.709C32.2404 103.701 33.8611 105.322 35.8528 105.322C37.8448 105.322 39.4651 103.701 39.4651 101.709C39.4655 99.7178 37.8448 98.0971 35.8528 98.0971Z" fill="#4B2524"/>
<path fill-rule="evenodd" clip-rule="evenodd" d="M83.4606 137.459C78.8985 137.459 75.1865 133.747 75.1865 129.185C75.1865 124.623 78.8981 120.912 83.4606 120.912C88.0226 120.912 91.7342 124.623 91.7342 129.185C91.7342 133.747 88.023 137.459 83.4606 137.459ZM83.4606 125.654C81.5134 125.654 79.9289 127.238 79.9289 129.185C79.9289 131.132 81.513 132.717 83.4606 132.717C85.4077 132.717 86.9918 131.133 86.9918 129.185C86.9922 127.238 85.4077 125.654 83.4606 125.654Z" fill="#4B2524"/>
<path d="M6.76084 134.18C8.07041 134.18 9.13203 133.118 9.13203 131.809C9.13203 130.499 8.07041 129.438 6.76084 129.438C5.45127 129.438 4.38965 130.499 4.38965 131.809C4.38965 133.118 5.45127 134.18 6.76084 134.18Z" fill="#4B2524"/>
<path d="M11.8204 104.817C13.13 104.817 14.1916 103.756 14.1916 102.446C14.1916 101.137 13.13 100.075 11.8204 100.075C10.5108 100.075 9.44922 101.137 9.44922 102.446C9.44922 103.756 10.5108 104.817 11.8204 104.817Z" fill="#4B2524"/>
<path d="M102.966 110.065C104.275 110.065 105.337 109.003 105.337 107.693C105.337 106.384 104.275 105.322 102.966 105.322C101.656 105.322 100.595 106.384 100.595 107.693C100.595 109.003 101.656 110.065 102.966 110.065Z" fill="black"/>
<path d="M98.2228 82.7974C99.5323 82.7974 100.594 81.7358 100.594 80.4262C100.594 79.1167 99.5323 78.0551 98.2228 78.0551C96.9132 78.0551 95.8516 79.1167 95.8516 80.4262C95.8516 81.7358 96.9132 82.7974 98.2228 82.7974Z" fill="black"/>
<path d="M51.5753 82.7975C52.8849 82.7975 53.9465 81.7359 53.9465 80.4264C53.9465 79.1168 52.8849 78.0552 51.5753 78.0552C50.2657 78.0552 49.2041 79.1168 49.2041 80.4264C49.2041 81.7359 50.2657 82.7975 51.5753 82.7975Z" fill="#4B2524"/>
</svg>
