<?xml version="1.0" encoding="utf-8"?>
<!-- Generator: Adobe Illustrator 26.0.1, SVG Export Plug-In . SVG Version: 6.00 Build 0)  -->
<svg version="1.1" id="Layer_1" xmlns="http://www.w3.org/2000/svg" xmlns:xlink="http://www.w3.org/1999/xlink" x="0px" y="0px"
	 viewBox="0 0 90 90" style="enable-background:new 0 0 90 90;" xml:space="preserve">
<style type="text/css">
	.st0{fill-rule:evenodd;clip-rule:evenodd;fill:#010101;}
</style>
<g id="Layer_1_00000001629259131607543600000006395210142719462801_">
	<g>
		<g>
			<g>
				<g>
					<path class="st0" d="M47.02,33.46H9.34c-4.21,0-7.64-3.43-7.64-7.64v-8.33c0-4.21,3.43-7.64,7.64-7.64h37.69
						c4.21,0,7.64,3.43,7.64,7.64v8.33C54.66,30.03,51.23,33.46,47.02,33.46L47.02,33.46z M9.34,12.56c-2.72,0-4.93,2.21-4.93,4.93
						v8.33c0,2.72,2.21,4.93,4.93,4.93h37.69c2.72,0,4.93-2.21,4.93-4.93v-8.33c0-2.72-2.21-4.93-4.93-4.93L9.34,12.56z"/>
				</g>
				<g>
					<g>
						<path class="st0" d="M17.45,39.27c-0.75,0-1.35-0.61-1.35-1.35v-5.81c0-0.75,0.61-1.35,1.35-1.35s1.35,0.61,1.35,1.35v5.81
							C18.8,38.67,18.2,39.27,17.45,39.27z"/>
					</g>
					<g>
						<path class="st0" d="M38.91,39.27c-0.75,0-1.35-0.61-1.35-1.35v-5.81c0-0.75,0.61-1.35,1.35-1.35c0.75,0,1.35,0.61,1.35,1.35
							v5.81C40.26,38.67,39.66,39.27,38.91,39.27z"/>
					</g>
				</g>
				<g>
					<path class="st0" d="M42.21,27.67c-2.56,0-4.65-2.09-4.65-4.65c0-3.7,3.61-6.9,3.76-7.03c0.51-0.45,1.27-0.45,1.78,0
						c0.15,0.13,3.76,3.33,3.76,7.03C46.86,25.58,44.77,27.67,42.21,27.67z M42.21,18.94c-0.89,1.03-1.94,2.61-1.94,4.08
						c0,1.07,0.87,1.94,1.94,1.94s1.94-0.87,1.94-1.94C44.15,21.54,43.09,19.97,42.21,18.94z"/>
				</g>
				<g>
					<path class="st0" d="M25.23,39.27c-0.75,0-1.35-0.61-1.35-1.35V8.65c0-0.75,0.61-1.35,1.35-1.35s1.35,0.61,1.35,1.35v29.27
						C26.58,38.67,25.98,39.27,25.23,39.27z"/>
				</g>
				<g>
					<path class="st0" d="M31.13,39.27c-0.75,0-1.35-0.61-1.35-1.35V8.65c0-0.75,0.61-1.35,1.35-1.35s1.35,0.61,1.35,1.35v29.27
						C32.49,38.67,31.88,39.27,31.13,39.27z"/>
				</g>
				<g>
					<path class="st0" d="M20.68,12.56c-0.75,0-1.35-0.61-1.35-1.35V8.31h-3.74v2.89c0,0.75-0.61,1.35-1.35,1.35
						c-0.75,0-1.35-0.61-1.35-1.35V6.96c0-0.75,0.61-1.35,1.35-1.35h6.45c0.75,0,1.35,0.61,1.35,1.35v4.24
						C22.03,11.95,21.42,12.56,20.68,12.56z"/>
				</g>
				<g>
					<path class="st0" d="M31.13,28.23h-5.9c-0.75,0-1.35-0.61-1.35-1.35c0-0.75,0.61-1.35,1.35-1.35h5.9
						c0.75,0,1.35,0.61,1.35,1.35C32.49,27.63,31.88,28.23,31.13,28.23z"/>
				</g>
				<g>
					<path class="st0" d="M31.13,23.01h-5.9c-0.75,0-1.35-0.61-1.35-1.35s0.61-1.35,1.35-1.35h5.9c0.75,0,1.35,0.61,1.35,1.35
						S31.88,23.01,31.13,23.01z"/>
				</g>
				<g>
					<path class="st0" d="M31.13,17.78h-5.9c-0.75,0-1.35-0.61-1.35-1.35c0-0.75,0.61-1.35,1.35-1.35h5.9
						c0.75,0,1.35,0.61,1.35,1.35S31.88,17.78,31.13,17.78z"/>
				</g>
				<g>
					<path class="st0" d="M17.29,17.92h-4.56c-0.75,0-1.35-0.61-1.35-1.35c0-0.75,0.61-1.35,1.35-1.35h4.56
						c0.75,0,1.35,0.61,1.35,1.35C18.64,17.31,18.03,17.92,17.29,17.92z"/>
				</g>
				<g>
					<path class="st0" d="M73.02,39.27c-0.75,0-1.35-0.61-1.35-1.35v-6.67c0-6.03-4.91-10.94-10.94-10.94h-7.42
						c-0.75,0-1.35-0.61-1.35-1.35s0.61-1.35,1.35-1.35h7.42c3.65,0,7.07,1.42,9.65,4s4,6.01,4,9.65v6.67
						C74.37,38.67,73.77,39.27,73.02,39.27L73.02,39.27z"/>
				</g>
				<g>
					<path class="st0" d="M67.61,39.27c-0.75,0-1.35-0.61-1.35-1.35V31.1c0-2.97-2.42-5.39-5.39-5.39h-7.56
						c-0.75,0-1.35-0.61-1.35-1.35c0-0.75,0.61-1.35,1.35-1.35h7.56c4.46,0,8.09,3.63,8.09,8.09v6.82
						C68.96,38.67,68.35,39.27,67.61,39.27L67.61,39.27z"/>
				</g>
				<g>
					<path class="st0" d="M73.02,84.39h-5.41c-0.75,0-1.35-0.61-1.35-1.35V43.33c0-0.75,0.61-1.35,1.35-1.35
						c0.75,0,1.35,0.61,1.35,1.35v38.35h2.71V43.33c0-0.75,0.61-1.35,1.35-1.35s1.35,0.61,1.35,1.35v39.71
						C74.37,83.79,73.77,84.39,73.02,84.39L73.02,84.39z"/>
				</g>
				<g>
					<path class="st0" d="M86.94,44.68H3.06c-0.75,0-1.35-0.61-1.35-1.35v-5.41c0-0.75,0.61-1.35,1.35-1.35h83.89
						c0.75,0,1.35,0.61,1.35,1.35v5.41C88.3,44.08,87.69,44.68,86.94,44.68z M4.41,41.98h81.18v-2.71H4.41V41.98z"/>
				</g>
			</g>
			<g>
				<path class="st0" d="M8.06,55.95H3.06c-0.75,0-1.35-0.61-1.35-1.35c0-0.75,0.61-1.35,1.35-1.35h5.01c0.75,0,1.35,0.61,1.35,1.35
					C9.42,55.34,8.81,55.95,8.06,55.95z"/>
			</g>
			<g>
				<path class="st0" d="M30.22,75.98H11.13c-0.75,0-1.35-0.61-1.35-1.35s0.61-1.35,1.35-1.35h19.09c0.75,0,1.35,0.61,1.35,1.35
					S30.97,75.98,30.22,75.98z"/>
			</g>
			<g>
				<path class="st0" d="M44.47,66.6h-3.22c-0.75,0-1.35-0.61-1.35-1.35s0.61-1.35,1.35-1.35h3.22c0.75,0,1.35,0.61,1.35,1.35
					C45.82,65.99,45.21,66.6,44.47,66.6z"/>
			</g>
			<g>
				<path class="st0" d="M53.31,57.85H38.01c-0.75,0-1.35-0.61-1.35-1.35c0-0.75,0.61-1.35,1.35-1.35h15.29
					c0.75,0,1.35,0.61,1.35,1.35C54.66,57.24,54.05,57.85,53.31,57.85z"/>
			</g>
			<g>
				<path class="st0" d="M22.16,67.95c-2.63,0-4.77-2.14-4.77-4.77c0-2.63,2.14-4.77,4.77-4.77s4.77,2.14,4.77,4.77
					S24.79,67.95,22.16,67.95z M22.16,61.12c-1.14,0-2.06,0.92-2.06,2.06c0,1.14,0.92,2.06,2.06,2.06c1.14,0,2.06-0.92,2.06-2.06
					C24.22,62.05,23.3,61.12,22.16,61.12z"/>
			</g>
			<g>
				<path class="st0" d="M49.33,83.58c-2.6,0-4.72-2.12-4.72-4.72s2.12-4.72,4.72-4.72c2.6,0,4.72,2.12,4.72,4.72
					S51.93,83.58,49.33,83.58z M49.33,76.85c-1.11,0-2.02,0.9-2.02,2.02s0.9,2.02,2.02,2.02c1.11,0,2.02-0.9,2.02-2.02
					C51.34,77.75,50.44,76.85,49.33,76.85z"/>
			</g>
			<g>
				<circle class="st0" cx="5.56" cy="80.36" r="1.35"/>
			</g>
			<g>
				<circle class="st0" cx="8.45" cy="63.61" r="1.35"/>
			</g>
			<g>
				<circle class="st0" cx="60.46" cy="66.6" r="1.35"/>
			</g>
			<g>
				<circle class="st0" cx="57.75" cy="51.04" r="1.35"/>
			</g>
			<g>
				<circle class="st0" cx="31.13" cy="51.04" r="1.35"/>
			</g>
		</g>
	</g>
</g>
</svg>
