<svg width="66" height="42" viewBox="0 0 66 42" fill="none" xmlns="http://www.w3.org/2000/svg">
<path d="M65.3179 17.7392L62.6588 16.7157C62.2718 15.296 61.7075 13.9345 60.9756 12.6552L62.1329 10.0496C62.3116 9.64718 62.2242 9.17613 61.9128 8.86476L58.2483 5.20029C57.9368 4.88892 57.4662 4.80123 57.0635 4.98021L54.4569 6.13787C53.1778 5.40615 51.8167 4.84195 50.3978 4.455L49.374 1.79517C49.2159 1.38414 48.821 1.11308 48.3805 1.11308H43.1983C42.7579 1.11308 42.3631 1.38427 42.2049 1.79517L41.1809 4.45513C39.7621 4.84195 38.401 5.40628 37.1218 6.138L34.5152 4.98034C34.1126 4.80137 33.6419 4.88906 33.3304 5.20043L29.6659 8.86502C29.3546 9.17639 29.2671 9.64731 29.4458 10.0498L30.6035 12.656C29.8717 13.9352 29.3075 15.2962 28.9205 16.7156L26.2609 17.7394C25.85 17.8976 25.5789 18.2924 25.5789 18.7328V23.915C25.5789 24.3555 25.85 24.7503 26.2609 24.9085L28.92 25.932C29.3071 27.3517 29.8715 28.7135 30.6032 29.9925L29.4458 32.598C29.2671 33.0005 29.3546 33.4714 29.6659 33.7828L33.3304 37.4473C33.6419 37.7587 34.1127 37.8462 34.5152 37.6675L37.1219 36.5098C38.4012 37.2416 39.7623 37.8059 41.1811 38.1927L42.2049 40.8525C42.363 41.2636 42.7579 41.5346 43.1983 41.5346H48.3805C48.821 41.5346 49.2158 41.2634 49.374 40.8525L50.3975 38.1934C51.8172 37.8063 53.1786 37.242 54.458 36.5101L57.0637 37.6674C57.4663 37.8462 57.937 37.7587 58.2485 37.4473L61.9128 33.7828C62.2242 33.4714 62.3116 33.0005 62.1329 32.598L60.9752 29.9913C61.7069 28.7121 62.2711 27.3511 62.658 25.9323L65.3179 24.9085C65.7288 24.7504 66 24.3555 66 23.915V18.7328C66 18.2922 65.7288 17.8973 65.3179 17.7392ZM63.871 23.184L61.3801 24.1427C61.0525 24.2687 60.8082 24.5481 60.7271 24.8897C60.3509 26.4703 59.7269 27.9752 58.8725 29.3627C58.6885 29.6617 58.6638 30.032 58.8061 30.3528L59.8902 32.794L57.2595 35.4248L54.8193 34.341C54.4987 34.1985 54.1281 34.2233 53.829 34.4076C52.4417 35.262 50.9363 35.886 49.3547 36.2623C49.0134 36.3436 48.7338 36.588 48.6078 36.9156L47.6493 39.4055H43.929L42.9703 36.9148C42.8442 36.5872 42.5647 36.3428 42.2232 36.2615C40.643 35.8855 39.1379 35.2616 37.7503 34.4072C37.4511 34.223 37.0807 34.1984 36.7601 34.3406L34.3188 35.4248L31.688 32.794L32.7719 30.3539C32.9143 30.0329 32.8896 29.6625 32.7054 29.3635C31.8511 27.9764 31.2272 26.4711 30.8506 24.8892C30.7694 24.5477 30.525 24.2683 30.1975 24.1423L27.7076 23.184V19.4635L30.1981 18.5047C30.5257 18.3786 30.77 18.0992 30.8511 17.7577C31.2274 16.1767 31.8514 14.6717 32.7058 13.2845C32.89 12.9855 32.9147 12.615 32.7723 12.2941L31.6883 9.85329L34.3191 7.22248L36.7603 8.30669C37.081 8.44893 37.4515 8.42431 37.7504 8.24015C39.138 7.38588 40.6428 6.76194 42.2235 6.38577C42.5648 6.30446 42.8444 6.06016 42.9704 5.73255L43.9293 3.24185H47.6496L48.6083 5.73255C48.7344 6.06016 49.0139 6.30446 49.3552 6.38577C50.936 6.76194 52.4409 7.38588 53.8283 8.24015C54.1275 8.42431 54.4979 8.44893 54.8185 8.30669L57.2597 7.22248L59.8905 9.85329L58.8067 12.2934C58.6643 12.6143 58.689 12.9848 58.8732 13.2837C59.7276 14.671 60.3515 16.1764 60.7279 17.7579C60.809 18.0993 61.0533 18.3789 61.3809 18.5049L63.871 19.4635V23.184ZM45.7892 10.3647C39.7464 10.3647 34.8302 15.2809 34.8302 21.3237C34.8302 27.3666 39.7464 32.2828 45.7892 32.2828C51.832 32.2828 56.7482 27.3666 56.7482 21.3237C56.7482 15.2809 51.832 10.3647 45.7892 10.3647ZM40.0584 28.0332C40.5968 25.3248 42.9733 23.3424 45.7892 23.3424C48.6051 23.3424 50.9817 25.3248 51.5201 28.0331C49.9764 29.3536 47.9751 30.1537 45.7892 30.1537C43.6034 30.1537 41.6021 29.3536 40.0584 28.0332ZM45.7894 21.2134C44.4501 21.2134 43.3603 20.1237 43.3603 18.7845C43.3603 17.4452 44.4499 16.3555 45.7894 16.3555C47.1288 16.3555 48.2183 17.445 48.2183 18.7845C48.2183 20.1239 47.1288 21.2134 45.7894 21.2134ZM53.1715 26.1601C52.3995 24.2675 50.9279 22.757 49.0891 21.924C49.8679 21.1059 50.3475 20.0004 50.3475 18.7845C50.3475 16.2711 48.3028 14.2265 45.7895 14.2265C43.2762 14.2265 41.2314 16.2711 41.2314 18.7845C41.2314 20.0004 41.7109 21.1058 42.4898 21.9238C40.6508 22.757 39.1791 24.2675 38.4071 26.1602C37.4931 24.7698 36.9593 23.1084 36.9593 21.3237C36.9593 16.4549 40.9205 12.4937 45.7894 12.4937C50.6582 12.4937 54.6193 16.4549 54.6193 21.3237C54.6193 23.1082 54.0854 24.7697 53.1715 26.1601ZM3.17598 18.9149L2.51186 20.4102C2.33315 20.8126 2.42058 21.2837 2.73195 21.595L5.08094 23.944C5.39244 24.2554 5.86309 24.343 6.26574 24.1642L7.76192 23.4997C8.50336 23.9076 9.28484 24.2316 10.096 24.4674L10.6835 25.9939C10.8416 26.4048 11.2365 26.676 11.6769 26.676H14.999C15.4395 26.676 15.8343 26.4048 15.9925 25.9939L16.5798 24.4679C17.3915 24.232 18.1734 23.9078 18.9149 23.5L20.4101 24.1641C20.8122 24.3428 21.2834 24.2555 21.5949 23.944L23.9439 21.5949C24.2553 21.2835 24.3427 20.8126 24.164 20.4101L23.4996 18.9141C23.9074 18.1724 24.2314 17.3909 24.4672 16.58L25.9938 15.9924C26.4048 15.8343 26.676 15.4393 26.676 14.9989V11.6769C26.676 11.2365 26.4048 10.8417 25.9939 10.6835L24.4678 10.096C24.232 9.28458 23.9077 8.50282 23.4999 7.76112L24.164 6.26574C24.3427 5.86336 24.2553 5.39231 23.9439 5.08094L21.595 2.73208C21.2835 2.42071 20.8129 2.33315 20.4102 2.51186L18.9142 3.17625C18.1729 2.76854 17.3913 2.4444 16.5801 2.2086L15.9926 0.682089C15.8345 0.271185 15.4396 0 14.9992 0H11.6771C11.2366 0 10.8418 0.271185 10.6836 0.682089L10.096 2.2086C9.28498 2.44453 8.50336 2.76854 7.76192 3.17638L6.26588 2.51186C5.86322 2.33315 5.39231 2.42071 5.08107 2.73208L2.73195 5.0812C2.42058 5.39257 2.33315 5.86349 2.51186 6.26601L3.17625 7.76179C2.76841 8.50336 2.44426 9.28498 2.20847 10.096L0.682089 10.6836C0.271186 10.8417 0 11.2366 0 11.6771V14.9992C0 15.4396 0.271186 15.8344 0.682089 15.9926L2.20807 16.58C2.44413 17.3915 2.76827 18.1734 3.17598 18.9149ZM2.12903 12.4079L3.4807 11.8876C3.80831 11.7614 4.05261 11.482 4.13392 11.1406C4.36545 10.1671 4.74987 9.23987 5.27627 8.38506C5.46044 8.08607 5.48519 7.71561 5.34281 7.39479L4.75426 6.06987L6.0696 4.75453L7.39479 5.34307C7.71548 5.48545 8.0858 5.4607 8.38493 5.27667C9.24 4.75014 10.1671 4.36585 11.1406 4.13418C11.4819 4.05288 11.7614 3.80857 11.8875 3.48097L12.4079 2.12917H14.268L14.7883 3.48097C14.9143 3.80857 15.1938 4.05288 15.5352 4.13418C16.5088 4.36585 17.4358 4.75027 18.2908 5.27654C18.5896 5.4607 18.9604 5.48532 19.2809 5.34307L20.6061 4.75453L21.9214 6.06987L21.3332 7.3944C21.1908 7.71521 21.2155 8.08567 21.3997 8.38466C21.9262 9.23973 22.3107 10.1671 22.5422 11.1408C22.6234 11.4823 22.8678 11.7618 23.1954 11.888L24.5468 12.4081V14.2682L23.1949 14.7885C22.8673 14.9147 22.623 15.1941 22.5417 15.5357C22.3103 16.5089 21.9258 17.436 21.3993 18.2912C21.2153 18.5902 21.1905 18.9605 21.3329 19.2813L21.9214 20.6064L20.6061 21.9218L19.2816 21.3336C18.961 21.1911 18.5904 21.2158 18.2913 21.4001C17.4368 21.9265 16.5094 22.3108 15.5352 22.5426C15.1937 22.6239 14.9141 22.8682 14.7881 23.1958L14.268 24.5471H12.4079L11.8876 23.1953C11.7616 22.8677 11.482 22.6234 11.1406 22.5421C10.1672 22.3104 9.24 21.9261 8.38506 21.3997C8.08593 21.2155 7.71548 21.1909 7.39493 21.3332L6.0696 21.9217L4.75426 20.6062L5.34254 19.2817C5.48492 18.9609 5.46017 18.5904 5.27601 18.2914C4.74974 17.4368 4.36531 16.5094 4.13338 15.5351C4.05221 15.1937 3.80791 14.9141 3.4803 14.7881L2.12903 14.2682V12.4079ZM13.338 20.1961C17.1195 20.1961 20.1961 17.1197 20.1961 13.3381C20.1961 9.55656 17.1195 6.47984 13.338 6.47984C9.55643 6.47984 6.47984 9.55643 6.47984 13.3381C6.47984 17.1197 9.55643 20.1961 13.338 20.1961ZM13.338 8.60901C15.9457 8.60901 18.0671 10.7305 18.0671 13.3383C18.0671 15.9458 15.9457 18.0672 13.338 18.0672C10.7303 18.0672 8.60888 15.9458 8.60888 13.3383C8.60888 10.7305 10.7305 8.60901 13.338 8.60901Z" fill="#5755D7"/>
</svg>
