<?xml version="1.0" encoding="utf-8"?>
<!-- Generator: Adobe Illustrator 26.0.1, SVG Export Plug-In . SVG Version: 6.00 Build 0)  -->
<svg version="1.1" id="Layer_1" xmlns="http://www.w3.org/2000/svg" xmlns:xlink="http://www.w3.org/1999/xlink" x="0px" y="0px"
	 viewBox="0 0 50 50" style="enable-background:new 0 0 50 50;" xml:space="preserve">
<style type="text/css">
	.st0{fill:none;stroke:#008000;stroke-width:1.5;stroke-miterlimit:10;}
	.st1{fill:none;stroke:#008000;stroke-width:1.5;stroke-linecap:round;stroke-miterlimit:10;}
	.st2{fill:none;stroke:#008000;stroke-miterlimit:10;}
</style>
<g>
	<line class="st0" x1="31.9" y1="6.5" x2="15.7" y2="6.5"/>
	<path class="st1" d="M9.8,6.5H7.4c-1.2,0-2.3,1-2.3,2.3v33.7c0,1.2,1,2.3,2.3,2.3h23.3"/>
	<path class="st1" d="M37.9,6.5h2.5c1.2,0,2.3,1,2.3,2.3v19.1"/>
	<path class="st0" d="M14.6,9.7h-3.8c-0.6,0-1.1-0.5-1.1-1.1V4.3c0-0.6,0.5-1.1,1.1-1.1h3.8c0.6,0,1.1,0.5,1.1,1.1v4.4
		C15.7,9.3,15.2,9.7,14.6,9.7z"/>
	<path class="st0" d="M17.6,24.6h-4.6c-0.6,0-1.1-0.5-1.1-1.1v-5.3c0-0.6,0.5-1.1,1.1-1.1h4.6c0.6,0,1.1,0.5,1.1,1.1v5.3
		C18.6,24.1,18.2,24.6,17.6,24.6z"/>
	<path class="st2" d="M17.5,33h-3.9c-0.6,0-1.1-0.5-1.1-1.1v-4.5c0-0.6,0.5-1.1,1.1-1.1h3.9c0.6,0,1.1,0.5,1.1,1.1v4.5
		C18.5,32.5,18.1,33,17.5,33z"/>
	<path class="st2" d="M17.5,41.4h-3.9c-0.6,0-1.1-0.5-1.1-1.1v-4.5c0-0.6,0.5-1.1,1.1-1.1h3.9c0.6,0,1.1,0.5,1.1,1.1v4.5
		C18.5,40.9,18.1,41.4,17.5,41.4z"/>
	<path class="st2" d="M27.4,33h-3.9c-0.6,0-1.1-0.5-1.1-1.1v-4.5c0-0.6,0.5-1.1,1.1-1.1h3.9c0.6,0,1.1,0.5,1.1,1.1v4.5
		C28.4,32.5,28,33,27.4,33z"/>
	<path class="st2" d="M27.4,41.4h-3.9c-0.6,0-1.1-0.5-1.1-1.1v-4.5c0-0.6,0.5-1.1,1.1-1.1h3.9c0.6,0,1.1,0.5,1.1,1.1v4.5
		C28.4,40.9,28,41.4,27.4,41.4z"/>
	<path class="st2" d="M27.4,24.1h-3.9c-0.6,0-1.1-0.5-1.1-1.1v-4.5c0-0.6,0.5-1.1,1.1-1.1h3.9c0.6,0,1.1,0.5,1.1,1.1v4.5
		C28.4,23.7,28,24.1,27.4,24.1z"/>
	<path class="st2" d="M37.3,24.1h-3.9c-0.6,0-1.1-0.5-1.1-1.1v-4.5c0-0.6,0.5-1.1,1.1-1.1h3.9c0.6,0,1.1,0.5,1.1,1.1v4.5
		C38.3,23.7,37.9,24.1,37.3,24.1z"/>
	<path class="st0" d="M36.8,9.7H33c-0.6,0-1.1-0.5-1.1-1.1V4.3c0-0.6,0.5-1.1,1.1-1.1h3.8c0.6,0,1.1,0.5,1.1,1.1v4.4
		C37.9,9.3,37.4,9.7,36.8,9.7z"/>
	<line class="st0" x1="5" y1="13.8" x2="43.1" y2="13.8"/>
	<path class="st0" d="M44.6,36.6l-1.6,1c-0.5,0.3-0.6,0.9-0.3,1.4l3.5,5.5c0.3,0.5,0.2,1.1-0.3,1.4l-2.1,1.4
		c-0.5,0.3-1.1,0.2-1.4-0.3l-3.5-5.5c-0.3-0.5-0.9-0.6-1.4-0.3l-1.6,1.1c-0.7,0.4-1.5,0-1.6-0.8L33.7,31c0-0.8,0.8-1.3,1.5-1
		l9.4,4.8C45.3,35.2,45.3,36.2,44.6,36.6z"/>
</g>
</svg>
