<?xml version="1.0" encoding="utf-8"?>
<!-- Generator: Adobe Illustrator 26.0.1, SVG Export Plug-In . SVG Version: 6.00 Build 0)  -->
<svg version="1.1" id="Layer_1" xmlns="http://www.w3.org/2000/svg" xmlns:xlink="http://www.w3.org/1999/xlink" x="0px" y="0px"
	 width="70" height="70" viewBox="0 0 70 70" style="enable-background:new 0 0 70 70;" xml:space="preserve">
<style type="text/css">
	.st0{fill:#5A5EAA;}
	.st1{fill:none;stroke:#5A5EAA;stroke-miterlimit:10;}
</style>
<g>
	<path class="st1" d="M64.5,39.8h-0.9c-0.5,0-0.9-0.3-1-0.8c-0.2-1-0.6-2-1-2.9c-0.1-0.2,0-0.5,0.2-0.6l1.7-1
		c0.2-0.1,0.3-0.4,0.2-0.6l-1.9-3.3c-0.1-0.2-0.4-0.3-0.6-0.2l-1.5,0.9c-0.4,0.2-0.9,0.2-1.2-0.2c-0.6-0.6-1.2-1.2-1.8-1.7
		c-0.4-0.3-0.5-0.9-0.2-1.3l0.9-1.5c0.1-0.2,0.1-0.5-0.2-0.6l-3.3-1.9C53.4,24,53.1,24,53,24.3l-1.1,2c-0.1,0.2-0.3,0.3-0.6,0.2
		c-0.9-0.3-1.8-0.6-2.8-0.8c-0.5-0.1-0.8-0.5-0.8-1V23c0-0.3-0.2-0.5-0.5-0.5h-3.7c-0.3,0-0.5,0.2-0.5,0.5v2.2
		c0,0.2-0.2,0.4-0.4,0.5c-1.1,0.2-2.2,0.5-3.2,0.8c-0.2,0.1-0.5,0-0.6-0.2l-1-1.8c-0.1-0.2-0.4-0.3-0.6-0.2l-3.3,1.9
		c-0.2,0.1-0.3,0.4-0.2,0.6l1,1.7c0.1,0.2,0.1,0.5-0.1,0.6c-0.9,0.7-1.8,1.5-2.5,2.4c-0.1,0.2-0.4,0.2-0.6,0.1l-1.6-0.9
		c-0.2-0.1-0.5-0.1-0.6,0.2l-1.9,3.3c-0.1,0.2-0.1,0.5,0.2,0.6l1.5,0.8c0.2,0.1,0.3,0.4,0.2,0.6c-0.5,1.1-0.8,2.3-1,3.5
		c0,0.2-0.2,0.4-0.5,0.4h-0.9c-0.6,0-1,0.5-1,1v3.3c0,0.3,0.2,0.5,0.5,0.5h1.4c0.2,0,0.4,0.2,0.5,0.4c0.2,1.1,0.4,2.2,0.8,3.3
		c0.2,0.5,0,1-0.5,1.2l-0.6,0.3c-0.2,0.1-0.3,0.4-0.2,0.6l1.9,3.3c0.1,0.2,0.4,0.3,0.6,0.2l0.9-0.5c0.2-0.1,0.5-0.1,0.6,0.1
		c0.8,1,1.7,2,2.8,2.8c0.2,0.1,0.2,0.4,0.1,0.6L34,58.2c-0.1,0.2-0.1,0.5,0.2,0.6l3.3,1.9c0.2,0.1,0.5,0.1,0.6-0.2l0.3-0.4
		c0.2-0.4,0.7-0.6,1.2-0.5c1.1,0.4,2.3,0.7,3.5,0.8c0.2,0,0.4,0.2,0.4,0.5v0.4c0,0.6,0.5,1,1,1h2.7c0.6,0,1-0.5,1-1v-0.5
		c0-0.2,0.2-0.4,0.4-0.5c1.3-0.2,2.6-0.6,3.8-1.1c0.2-0.1,0.5,0,0.6,0.2l0.5,0.9c0.1,0.2,0.4,0.3,0.6,0.2l3.3-1.9
		c0.2-0.1,0.3-0.4,0.2-0.6l-0.4-0.7c-0.2-0.4-0.2-0.9,0.2-1.2c0.8-0.8,1.6-1.6,2.3-2.5c0.1-0.2,0.4-0.3,0.6-0.1l1.1,0.7
		c0.2,0.1,0.5,0.1,0.6-0.2l1.9-3.3c0.1-0.2,0.1-0.5-0.2-0.6l-1-0.6c-0.4-0.2-0.6-0.7-0.5-1.2c0.3-1,0.5-2.1,0.6-3.2
		c0-0.2,0.2-0.4,0.5-0.4H65c0.3,0,0.5-0.2,0.5-0.5v-3.3C65.5,40.3,65,39.8,64.5,39.8z"/>
	<g>
		<circle class="st1" cx="45.5" cy="42.9" r="9.5"/>
		<circle class="st1" cx="45.5" cy="40.4" r="3.4"/>
		<path class="st1" d="M52.5,49.4c-0.7-3.2-3.6-5.5-7-5.5s-6.2,2.4-7,5.5"/>
	</g>
	<path class="st1" d="M30.9,19.4h-0.6c-0.3,0-0.6-0.2-0.7-0.5c-0.2-0.7-0.4-1.4-0.6-2c-0.1-0.1,0-0.3,0.1-0.4l1.2-0.7
		c0.2-0.1,0.2-0.3,0.1-0.4l-1.3-2.3C29,13,28.8,13,28.7,13.1l-1,0.6c-0.3,0.2-0.6,0.1-0.8-0.1c-0.4-0.4-0.8-0.8-1.2-1.2
		c-0.3-0.2-0.3-0.6-0.2-0.9l0.6-1c0.1-0.2,0-0.3-0.1-0.4l-2.3-1.3c-0.2-0.1-0.3,0-0.4,0.1l-0.8,1.4c-0.1,0.1-0.2,0.2-0.4,0.1
		c-0.6-0.2-1.2-0.4-1.9-0.5c-0.3-0.1-0.6-0.3-0.6-0.7l0-1.1c0-0.2-0.2-0.4-0.4-0.4h-2.5c-0.2,0-0.4,0.2-0.4,0.4v1.5
		c0,0.2-0.1,0.3-0.3,0.3c-0.8,0.1-1.5,0.3-2.2,0.6c-0.1,0.1-0.3,0-0.4-0.1L12.7,9c-0.1-0.2-0.3-0.2-0.4-0.1l-2.3,1.3
		c-0.2,0.1-0.2,0.3-0.1,0.4l0.7,1.2c0.1,0.1,0,0.3-0.1,0.4c-0.6,0.5-1.2,1-1.7,1.6C8.7,14,8.6,14,8.4,13.9l-1.1-0.6
		c-0.2-0.1-0.3,0-0.4,0.1l-1.3,2.3c-0.1,0.2,0,0.3,0.1,0.4l1,0.6c0.1,0.1,0.2,0.3,0.1,0.4c-0.3,0.8-0.5,1.6-0.7,2.4
		c0,0.2-0.2,0.3-0.3,0.3H5.2c-0.4,0-0.7,0.3-0.7,0.7v2.2c0,0.2,0.1,0.3,0.3,0.3h0.9c0.2,0,0.3,0.1,0.3,0.3c0.1,0.8,0.3,1.5,0.5,2.2
		c0.1,0.3,0,0.6-0.3,0.8l-0.4,0.2c-0.2,0.1-0.2,0.3-0.1,0.4l1.3,2.3c0.1,0.2,0.3,0.2,0.4,0.1L8.2,29c0.1-0.1,0.3,0,0.4,0.1
		c0.6,0.7,1.2,1.3,1.9,1.9c0.1,0.1,0.2,0.3,0.1,0.4l-0.3,0.6c-0.1,0.2,0,0.3,0.1,0.4l2.3,1.3c0.2,0.1,0.3,0,0.4-0.1l0.2-0.3
		c0.2-0.3,0.5-0.4,0.8-0.3c0.8,0.3,1.5,0.5,2.4,0.6c0.2,0,0.3,0.2,0.3,0.3v0.2c0,0.4,0.3,0.7,0.7,0.7h1.9c0.4,0,0.7-0.3,0.7-0.7
		v-0.3c0-0.2,0.1-0.3,0.3-0.3c0.9-0.2,1.7-0.4,2.6-0.8c0.1-0.1,0.3,0,0.4,0.1l0.4,0.6c0.1,0.2,0.3,0.2,0.4,0.1l2.3-1.3
		c0.2-0.1,0.2-0.3,0.1-0.4L26,31.3c-0.2-0.3-0.1-0.6,0.1-0.8c0.6-0.5,1.1-1.1,1.5-1.7c0.1-0.1,0.3-0.2,0.4-0.1l0.8,0.5
		c0.2,0.1,0.3,0,0.4-0.1l1.3-2.3c0.1-0.2,0-0.3-0.1-0.4l-0.7-0.4c-0.3-0.2-0.4-0.5-0.3-0.8c0.2-0.7,0.4-1.4,0.4-2.2
		c0-0.2,0.2-0.3,0.3-0.3h1.1c0.2,0,0.3-0.1,0.3-0.3v-2.2C31.6,19.7,31.3,19.4,30.9,19.4z"/>
	<circle class="st1" cx="18.1" cy="21.5" r="6.5"/>
</g>
</svg>
