<?xml version="1.0" encoding="utf-8"?>
<!-- Generator: Adobe Illustrator 26.0.1, SVG Export Plug-In . SVG Version: 6.00 Build 0)  -->
<svg version="1.1" id="Layer_1" xmlns="http://www.w3.org/2000/svg" xmlns:xlink="http://www.w3.org/1999/xlink" x="0px" y="0px"
	 width="70" height="70" viewBox="0 0 70 70" style="enable-background:new 0 0 70 70;" xml:space="preserve">
<style type="text/css">
	.st0{fill:none;stroke:#2C7C3D;stroke-width:1.5;stroke-miterlimit:10;}
	.st1{fill:none;stroke:#257C3E;stroke-width:1.5;stroke-miterlimit:10;}
	.st2{fill:#2C7C3D;}
	.st3{font-family:'ArialMT';}
	.st4{font-size:12px;}
</style>
<path class="st0" d="M22.4,45.6v15.5c0,2.6,2.1,4.6,4.6,4.6h34.1c2.6,0,4.6-2.1,4.6-4.6V17.5L50.5,4.4H27c-2.6,0-4.6,2.1-4.6,4.6
	v16.8"/>
<path class="st1" d="M50.3,4.2v11.4c0,1.3,1,2.3,2.3,2.3h13.1"/>
<path class="st0" d="M42.1,28.1v15.2c0,1.3-0.9,2.3-2.1,2.3H5.9c-1.1,0-2.1-1-2.1-2.3V28.1c0-1.3,0.9-2.3,2.1-2.3h34.1
	C41.2,25.8,42.1,26.8,42.1,28.1z"/>
<text transform="matrix(1 0 0 1 11.6676 39.7285)" class="st2 st3 st4">XLS</text>
</svg>
