<svg width="62" height="52" viewBox="0 0 62 52" fill="none" xmlns="http://www.w3.org/2000/svg">
<g clip-path="url(#clip0_1137_1573)">
<path d="M59.878 14.0722L44.0826 0.306516C43.8577 0.110703 43.5475 0 43.2235 0H19.6816C17.047 0 14.9035 1.79705 14.9035 4.00583V18H5.36289C3.39173 18 1.78809 19.3446 1.78809 20.9974V36.0027C1.78809 37.6554 3.39173 39 5.36289 39H14.9035V48.0012C14.9035 50.2061 17.047 52 19.6816 52H55.4331C58.0677 52 60.2112 50.2071 60.2112 48.0034V14.7657C60.2112 14.5071 60.0917 14.2586 59.878 14.0722ZM43.5189 2.69963L56.4855 14H43.5189V2.69963ZM5.36289 37C4.70657 37 4.17279 36.5527 4.17279 36.0027V20.9974C4.17279 20.4475 4.70669 20 5.36289 20H37.5594C38.2156 20 38.7496 20.4475 38.7496 20.9974V36.0027C38.7496 36.5527 38.2156 37 37.5594 37H5.36289ZM57.8265 48.0034C57.8265 49.1044 56.7528 50 55.433 50H19.6816C18.3618 50 17.2881 49.1034 17.2881 48.0013V39H37.5593C39.5306 39 41.1342 37.6554 41.1342 36.0027V20.9974C41.1342 19.3446 39.5306 18 37.5593 18H17.2881V4.00583C17.2881 2.89971 18.3618 1.99997 19.6816 1.99997H41.1342V15C41.1342 15.5523 41.6681 16 42.3265 16H57.8265V48.0034Z" fill="#297B1D"/>
<path d="M34.4686 29.1302C34.1961 28.7609 33.8188 28.4699 33.3369 28.2569C32.8548 28.0442 32.1109 27.8382 31.1049 27.6389C30.0988 27.4397 29.4655 27.2482 29.2047 27.0647C28.9995 26.9202 28.8971 26.7461 28.8971 26.5432C28.8971 26.3205 29.0064 26.1426 29.2256 26.0099C29.5656 25.8029 30.0361 25.6994 30.6367 25.6994C31.2188 25.6994 31.6556 25.7962 31.9467 25.9894C32.2377 26.1826 32.4275 26.5001 32.516 26.9416L34.5838 26.8653C34.5513 26.0763 34.2103 25.4454 33.5605 24.9729C32.9106 24.5002 31.9432 24.2639 30.6579 24.2639C29.8707 24.2639 29.1989 24.3633 28.6423 24.5627C28.0858 24.762 27.6595 25.0519 27.3638 25.4327C27.0681 25.8137 26.92 26.223 26.92 26.6605C26.92 27.3399 27.2345 27.9162 27.8634 28.389C28.3105 28.7247 29.0882 29.008 30.1968 29.2384C31.0582 29.4182 31.6103 29.5432 31.8523 29.6134C32.2065 29.7189 32.4543 29.8429 32.5963 29.9854C32.7384 30.1282 32.8094 30.3009 32.8094 30.5042C32.8094 30.8205 32.6406 31.0969 32.303 31.3332C31.9652 31.5694 31.4635 31.6876 30.7974 31.6876C30.1687 31.6876 29.6692 31.5549 29.299 31.2891C28.9288 31.0236 28.6832 30.6076 28.5619 30.0411L26.5498 30.2051C26.6848 31.1661 27.0994 31.8977 27.7934 32.3996C28.4874 32.9013 29.4817 33.1524 30.7766 33.1524C31.666 33.1524 32.4092 33.0479 33.0053 32.8388C33.6015 32.6301 34.0622 32.3106 34.3883 31.8808C34.7144 31.4513 34.8775 30.9903 34.8775 30.498C34.8773 29.9552 34.7411 29.4992 34.4686 29.1302Z" fill="#297B1D"/>
<path d="M20.4581 31.5529V24.4807H18.3899V33.0002H25.5999V31.5529H20.4581Z" fill="#297B1D"/>
<path d="M13.772 28.5817L16.9578 24.4099H14.5616L12.5497 27.1697L10.4956 24.4099H8.07853L11.25 28.5172L7.75 32.9997H10.23L12.5077 30.0289L14.778 32.9997H17.2721L13.772 28.5817Z" fill="#297B1D"/>
</g>
<defs>
<clipPath id="clip0_1137_1573">
<rect width="62" height="52" fill="white"/>
</clipPath>
</defs>
</svg>
