<?xml version="1.0" encoding="utf-8"?>
<!-- Generator: Adobe Illustrator 26.0.1, SVG Export Plug-In . SVG Version: 6.00 Build 0)  -->
<svg version="1.1" id="Layer_1" xmlns="http://www.w3.org/2000/svg" xmlns:xlink="http://www.w3.org/1999/xlink" x="0px" y="0px"
	 width="90" height="90" viewBox="0 0 90 90" style="enable-background:new 0 0 90 90;" xml:space="preserve">
<style type="text/css">
	.st0{fill:none;stroke:#5A5EAA;stroke-width:1.5;stroke-miterlimit:10;}
	.st1{fill:none;stroke:#5A5EAA;stroke-width:1.5;stroke-linecap:round;stroke-miterlimit:10;}
</style>
<g>
	<circle class="st0" cx="47.8" cy="18.7" r="4.3"/>
	<line class="st1" x1="43.7" y1="17.8" x2="54.7" y2="17.8"/>
	<line class="st1" x1="12.5" y1="36.4" x2="24.1" y2="36.4"/>
	<line class="st1" x1="7.6" y1="36.4" x2="10.5" y2="36.4"/>
	<line class="st1" x1="6.1" y1="43.3" x2="24.1" y2="43.3"/>
	<line class="st1" x1="2.6" y1="49.2" x2="16.3" y2="49.2"/>
	<line class="st1" x1="18.5" y1="49.2" x2="22.6" y2="49.2"/>
	<line class="st1" x1="6.8" y1="55.4" x2="10.5" y2="55.4"/>
	<line class="st1" x1="12.1" y1="62.7" x2="25.5" y2="62.7"/>
	<line class="st1" x1="13.7" y1="55.4" x2="29.7" y2="55.4"/>
	<path class="st1" d="M39,49.6H25.7c-0.9,0-1.6-0.7-1.6-1.6V34.3c0-0.9,0.7-1.6,1.6-1.6H39c0.9,0,1.6,0.7,1.6,1.6V48
		C40.7,48.9,39.9,49.6,39,49.6z"/>
	<line class="st1" x1="32.9" y1="49.8" x2="29.7" y2="59.4"/>
	<path class="st1" d="M43.6,68.7H26h-2.2v-0.2c0-5.5,4.4-9.9,9.9-9.9h0c5.5,0,9.9,4.4,9.9,9.9V68.7z"/>
	<path class="st1" d="M30.5,68.7c0.3,1.4,1.6,2.4,3.1,2.4c1.5,0,2.8-1,3.1-2.4"/>
	<path class="st1" d="M41.1,68.7c-0.2,1.8-1,3.4-2.2,4.6c-1.4,1.4-3.3,2.2-5.4,2.2s-4-0.8-5.4-2.2c-1.2-1.2-2-2.7-2.2-4.5"/>
	<line class="st1" x1="43" y1="68.7" x2="70.5" y2="68.7"/>
	<path class="st1" d="M81.8,64.8c1.1,0.5,1.9,1.7,1.9,3.1c0,1.9-1.5,3.4-3.4,3.4c-1.6,0-2.9-1.1-3.3-2.5"/>
	<path class="st1" d="M85.3,61.8c1.7,1.4,2.8,3.6,2.8,6c0,4.3-3.5,7.8-7.8,7.8c-2.9,0-5.5-1.6-6.8-4"/>
	<path class="st1" d="M86.8,60.6L72.3,72.6c-0.2,0.1-0.4,0.1-0.5-0.1l-1-1.8c-0.5-0.9-0.4-1.9,0-2.7l5.6-9.5v0
		c0.7-1.2,2.1-1.8,3.4-1.6C81.7,57.2,84.2,58.1,86.8,60.6z"/>
	<path class="st1" d="M33.5,49.6h16.6L56,63.7h8.8c0,0,3-3.3,2.2-10c-0.4-4-1.4-9.7-1.8-11.6c-0.1-0.6,0.3-1.2,0.9-1.3c0,0,0,0,0,0
		c0.9-0.1,1.8-2.1,0.4-2.9c-1.4-0.9-0.3-2.1,2.1-2.1l1.8,0c0.3,0,0.6,0.2,0.6,0.5l1.2,4.9c0.1,0.2-0.1,0.5-0.4,0.5h-2
		c-0.2,0-0.3,0.2-0.2,0.4l8.6,13.3l-1.6,2.5"/>
	<path class="st1" d="M56.2,63.7V50.5c0-0.5-0.4-0.9-0.9-0.9h-6.5"/>
	<path class="st1" d="M60.9,64V43.6h-8.8c-0.7,0-1.2-0.5-1.2-1.2v-9.8c0-0.4,0.4-0.5,0.7-0.3l4,3.9c0.3,0.3,0.6,0.5,1,0.7l7.8,3.6
		c0.8,0.4,1.8,0.1,2.2-0.7l0,0c0.4-0.8,0.2-1.8-0.6-2.3l-4.6-2.9c-2-1.3-3.8-2.8-5.4-4.6l-2.3-2.7c-1.6-1.8-3.9-3-6.3-3
		c0,0-0.1,0-0.1,0c-1.7,0-3.3,1.2-3.7,2.9c-1,3.3-1.8,9.6-0.4,22.1"/>
</g>
</svg>
