<svg width="144" height="104" viewBox="0 0 144 104" fill="none" xmlns="http://www.w3.org/2000/svg">
<path d="M37.985 81.6689C37.2464 81.6689 36.6614 81.6689 36.0764 81.6689C30.0629 81.6689 24.0469 81.6689 18.0334 81.6615C17.6096 81.6615 17.1659 81.6764 16.7717 81.5573C16.2735 81.4059 16.0405 80.994 16.1347 80.4482C16.2165 79.9817 16.4445 79.6567 16.9676 79.6418C17.3096 79.6344 17.6492 79.6319 17.9913 79.6319C24.4757 79.6294 30.9602 79.5575 37.4397 79.6815C38.9319 79.7088 40.035 79.2473 40.8406 78.2201C41.8767 76.8952 43.2326 76.064 44.6306 75.2725C45.2429 74.9251 45.5949 74.4959 45.7857 73.8508C46.745 70.5955 48.2224 67.504 48.8049 64.1222C48.9759 63.1297 49.4642 62.1943 49.7964 61.2292C50.3392 59.6536 50.3367 59.6512 48.6165 59.6512C44.9479 59.6487 41.2793 59.6536 37.6107 59.6487C35.9624 59.6462 35.8087 59.475 35.8161 57.7853C35.8236 55.6069 35.7765 53.4284 35.8434 51.2549C35.8781 50.0888 35.5782 49.6571 34.2892 49.667C25.7598 49.734 17.2278 49.7042 8.69591 49.7067C8.3117 49.7067 7.92502 49.7216 7.54576 49.6844C6.93103 49.6248 6.65341 49.2278 6.65093 48.6423C6.64597 48.0791 7.00787 47.7863 7.50858 47.692C7.83826 47.63 8.18776 47.6672 8.52983 47.6672C16.9329 47.6672 25.3359 47.6721 33.7389 47.6672C36.178 47.6647 35.7988 47.8533 35.8136 45.655C35.8285 43.6055 35.7789 41.5561 35.8136 39.5067C35.8285 38.611 35.4889 38.3777 34.6139 38.3852C29.2399 38.4249 23.866 38.4075 18.492 38.4001C17.9169 38.4001 17.2749 38.5465 17.1882 37.6111C17.0989 36.6409 17.4683 36.3432 18.4127 36.3531C22.2523 36.3879 26.0894 36.3655 29.929 36.3655C31.5502 36.3655 33.1713 36.3432 34.7924 36.3854C35.5608 36.4052 35.8756 36.1521 35.8384 35.3607C35.7889 34.2962 35.883 33.2219 35.8012 32.16C35.7095 30.9591 36.2078 30.6241 37.3579 30.6291C45.6742 30.6663 53.9929 30.6465 62.3117 30.6465C65.0705 30.6465 64.7979 30.3562 64.8004 33.0854C64.8053 40.8564 64.8128 48.6274 64.7805 56.3959C64.7756 57.304 64.9416 57.7307 65.9629 57.634C66.652 57.567 66.8082 57.3412 66.7561 56.6837C66.1191 48.806 65.772 40.9234 66.3496 33.0259C66.6892 28.3911 67.4155 23.8159 68.6697 19.3399C69.2869 17.1416 70.8411 16.1218 73.134 16.0846C76.4853 16.03 79.7597 16.1491 82.7268 18.0695C84.8908 19.4714 86.4276 21.4588 88.0462 23.3742C89.8334 25.4906 91.3579 27.8527 93.3062 29.7979C94.6447 31.1353 96.5112 31.9441 98.1423 32.9887C100.219 34.3235 102.408 35.4847 104.374 36.9908C104.748 37.2786 104.996 37.3332 105.338 36.9709C107.487 34.7007 110.268 34.8049 112.985 35.1746C116.396 35.6361 115.709 34.9686 116.426 38.4125C116.904 40.7026 117.301 43.0076 117.737 45.3051C117.933 46.3298 117.549 46.8707 116.473 46.8558C115.962 46.8484 115.447 46.8286 114.938 46.8658C114.626 46.8881 114.18 46.6648 114.024 47.0568C113.895 47.3794 114.22 47.6746 114.408 47.9426C116.036 50.2848 117.591 52.6791 119.182 55.0437C120.285 56.6837 121.289 58.4255 122.387 60.0878C123.84 62.2911 125.317 64.4795 126.881 66.6009C127.61 67.5859 127.674 68.4146 126.933 69.3574C126.296 70.1663 126.484 70.4541 127.533 70.4367C132.857 70.34 137.173 72.5308 140.71 76.4014C141.657 77.4361 141.603 77.7239 140.418 78.5352C139.054 79.4706 139.069 79.4781 140.182 80.7906C146.027 87.6783 143.806 97.8039 135.641 101.672C132.766 103.034 129.593 103.133 126.403 102.357C124.048 101.784 122.048 100.734 120.369 99.0171C120.28 98.9253 120.193 98.8286 120.097 98.7467C119.507 98.2405 119.517 97.0918 118.785 96.9652C118.067 96.8412 117.645 97.846 116.976 98.2058C116.198 98.6226 115.734 98.1314 115.357 97.6277C114.282 96.1936 113.29 94.6875 112.675 93.0003C112.373 92.1716 111.969 91.9359 111.109 91.926C96.8657 91.7722 82.6202 91.5811 68.3772 91.4025C67.527 91.3926 66.5826 91.1792 65.8464 91.4744C64.9863 91.8193 65.2465 92.9582 65.0135 93.7397C63.97 97.2506 61.8035 99.8707 58.5638 101.416C55.2943 102.977 51.8339 103.262 48.267 102.2C46.7277 101.744 45.3544 101.114 44.0729 100.176C41.5297 98.31 40.2903 95.6328 39.4748 92.7324C39.1922 91.725 38.8799 91.2462 37.7248 91.333C35.9723 91.4645 35.8136 91.2164 35.826 89.4945C35.8409 87.2317 36.5449 85.1425 37.3926 83.0881C37.5661 82.6688 37.7446 82.247 37.985 81.6689ZM48.0364 73.8012C48.5223 73.6796 48.8396 73.5853 49.1643 73.5208C49.4989 73.4538 49.836 73.4141 50.1731 73.3695C55.852 72.6226 60.6509 74.6299 64.4508 78.6369C66.9172 81.2372 68.3623 84.6041 68.7416 88.2812C68.8259 89.1049 69.1134 89.43 70.0058 89.4076C72.0929 89.3555 74.185 89.4275 76.2746 89.4548C88.0859 89.6061 99.8972 89.755 111.709 89.9088C112.142 89.9138 112.484 89.8915 112.757 89.4126C113.706 87.7552 114.762 86.1573 115.719 84.5049C117.549 81.3464 119.321 78.1556 121.153 74.9996C122.328 72.9774 123.537 70.9751 124.792 69.0001C125.248 68.2806 125.186 67.7596 124.737 67.0475C122.858 64.0676 120.679 61.3011 118.877 58.2567C116.542 54.3167 113.6 50.7562 111.275 46.7913C111.007 46.3348 110.705 45.9006 110.982 45.3771C111.26 44.8511 111.783 44.8163 112.316 44.8238C113.126 44.8337 113.939 44.7692 114.745 44.8213C115.439 44.866 115.548 44.5509 115.437 43.9827C115.055 42.0201 114.683 40.0525 114.299 38.0899C114.234 37.7624 114.2 37.3803 113.756 37.3208C111.815 37.0603 109.849 36.698 107.976 37.5292C106.773 38.0626 106.803 38.3256 107.844 39.0725C108.08 39.2412 108.273 39.4918 108.429 39.7399C109.718 41.767 108.905 44.4218 106.644 45.2481C105.817 45.5508 105.626 45.8634 105.831 46.702C107.881 55.0784 109.436 63.5118 108.585 72.2008C108.209 76.0466 107.108 79.6269 104.639 82.6837C104.329 83.0658 104.081 83.5323 103.457 83.5397C99.3271 83.5943 95.1975 83.6836 91.0679 83.7283C89.3402 83.7481 88.2445 83.3015 87.5901 81.2595C86.259 77.0986 84.3529 73.1263 82.7442 69.0522C81.6361 66.2461 80.6322 63.4002 79.5738 60.5766C79.3953 60.1002 79.2417 59.6859 78.5377 59.6859C70.0925 59.6958 61.6498 59.671 53.2047 59.6437C52.6544 59.6412 52.3817 59.8174 52.1983 60.3682C50.7284 64.7524 49.1197 69.0944 48.0364 73.8012ZM96.2658 69.1689C96.4121 69.1689 96.5608 69.1689 96.7071 69.1689C96.7071 65.4149 96.6971 61.6584 96.7095 57.9044C96.7195 55.0561 94.9025 52.9223 92.104 52.5278C88.48 52.0166 84.8635 51.4435 81.2296 51.0192C80.1191 50.8902 79.8911 50.389 79.9109 49.4561C80.0547 42.757 80.248 36.0579 80.1613 29.3563C80.1563 28.9047 80.2009 28.5003 80.657 28.272C81.1553 28.0239 81.5891 28.1802 81.9237 28.5573C83.9488 30.84 86.5044 32.5818 88.3363 35.0753C89.2038 36.2539 90.297 37.2786 91.7768 37.8294C93.0831 38.3157 94.4266 38.7251 95.7007 39.271C98.6678 40.5388 101.57 41.958 104.503 43.3078C105.489 43.7618 106.255 43.4492 106.771 42.5436C107.284 41.6405 106.984 40.911 106.178 40.3403C105.97 40.1939 105.762 40.0401 105.541 39.9136C101.362 37.5342 97.3664 34.8619 93.331 32.2493C92.2106 31.5248 91.2339 30.6787 90.4085 29.6242C88.1875 26.7833 86.2268 23.7315 83.5076 21.2925C81.4106 19.4118 79.1252 18.0794 76.1977 18.1663C75.2608 18.1936 74.3213 18.1266 73.3843 18.1018C71.8177 18.0621 70.8758 18.7072 70.4866 20.2157C69.4307 24.2997 68.7119 28.4457 68.3871 32.6537C67.817 40.0749 68.0649 47.4885 68.6152 54.8997C68.8234 57.7084 68.7912 57.691 71.6393 57.6886C77.5239 57.6836 83.4085 57.701 89.2955 57.7059C90.1755 57.7059 90.8869 57.8052 90.929 58.9763C91.1596 65.4149 91.457 71.851 91.6776 78.2896C91.7966 81.7359 91.747 81.7012 95.1306 81.7161C96.0428 81.7185 96.2906 81.4431 96.2807 80.5623C96.2435 76.7637 96.2658 72.9675 96.2658 69.1689ZM37.7867 45.0694C37.7818 45.0694 37.7793 45.0694 37.7743 45.0694C37.7743 48.9078 37.7942 52.7486 37.757 56.5869C37.7496 57.366 37.9652 57.6241 38.7609 57.6216C46.517 57.5992 54.273 57.5992 62.0291 57.629C62.8396 57.6315 63.033 57.3486 63.0305 56.5944C63.0107 48.8308 63.0107 41.0673 63.038 33.3038C63.0404 32.4924 62.7306 32.2989 61.9845 32.3014C54.3127 32.3237 46.6434 32.3386 38.9716 32.2989C37.9726 32.294 37.7694 32.6636 37.7768 33.5519C37.8041 37.3927 37.7867 41.2311 37.7867 45.0694ZM82.3029 31.5595C82.1914 31.5943 82.0823 31.629 81.9708 31.6613C81.9708 33.0532 81.9931 34.4426 81.9658 35.8346C81.8915 39.8863 81.7923 43.938 81.713 47.9897C81.7031 48.5058 81.5196 49.0616 82.4244 49.1732C85.503 49.5504 88.5618 50.0764 91.638 50.451C95.6833 50.9448 98.6306 53.8031 98.6355 57.5074C98.6405 61.3458 98.5042 65.1841 98.4372 69.0225C98.3728 72.8608 98.3133 76.7016 98.2662 80.54C98.2612 80.9221 98.0803 81.5052 98.7471 81.52C100.15 81.5523 101.558 81.5325 102.961 81.5027C103.333 81.4952 103.593 81.1901 103.712 80.8749C104.297 79.3267 105.311 77.9869 105.747 76.3592C107.341 70.4218 106.882 64.4571 106.139 58.4701C105.631 54.3737 104.483 50.4014 103.928 46.315C103.814 45.4714 103.472 44.8486 102.562 44.5384C101.439 44.1563 100.366 43.6155 99.2775 43.1292C96.3278 41.8117 93.3905 40.4743 90.4333 39.1767C89.6748 38.8442 88.8221 38.7623 88.2693 37.9932C86.554 35.6013 84.2215 33.7752 82.3029 31.5595ZM52.3346 89.3506C56.8138 89.3506 61.2904 89.3357 65.7696 89.3655C66.5801 89.3704 66.9842 89.224 66.766 88.301C65.7696 84.0434 64.2278 80.3192 60.2692 77.6767C53.7921 73.3496 44.4274 75.2824 40.5134 81.6664C39.274 83.6861 38.3569 85.8075 37.9305 88.1472C37.757 89.1 38.0272 89.3903 39.0286 89.3754C43.4606 89.3183 47.8976 89.3506 52.3346 89.3506ZM127.471 72.4762C125.741 72.1264 124.541 72.965 123.547 74.8284C121.795 78.1159 119.757 81.2496 118.029 84.557C117.164 86.2119 116.242 87.8693 115.104 89.3357C113.939 90.8343 114.282 92.1468 115.065 93.5437C115.397 94.1342 115.848 94.6602 116.175 95.2532C116.507 95.8561 116.78 95.7718 117.239 95.3723C118.513 94.2657 119.829 93.2112 121.128 92.1344C123.802 89.9237 126.445 87.6708 129.157 85.5097C132.203 83.0832 134.907 80.2472 138.127 78.0365C138.831 77.5527 138.702 77.183 138.14 76.6669C135.205 73.9798 131.839 72.3844 127.471 72.4762ZM141.476 89.6781C141.476 86.4848 140.224 83.8201 138.095 81.5002C137.607 80.9692 137.27 81.0982 136.838 81.5052C135.946 82.3487 135.083 83.2345 134.122 83.9888C133.512 84.4677 133.626 84.7431 134.129 85.1227C135.423 86.1027 135.827 87.5418 135.867 89.0305C135.911 90.6805 135.849 92.4322 134.573 93.6851C131.705 96.5013 127.134 96.0149 124.787 92.7076C124.536 92.3552 124.422 92.0749 123.941 92.4644C122.92 93.2931 121.867 94.0821 120.793 94.8438C120.149 95.3029 120.196 95.6577 120.657 96.2705C123.649 100.248 128.805 102.032 133.366 100.56C137.468 99.2355 141.481 94.6826 141.476 89.6781ZM43.8498 91.3553C43.2103 91.3553 42.5708 91.3926 41.9362 91.3454C41.1058 91.2834 40.8877 91.5588 41.1083 92.385C41.4553 93.6851 42.1295 94.8091 42.8608 95.8983C46.46 101.268 53.1576 102.647 58.534 99.1114C60.9632 97.5136 62.5769 95.2656 63.5064 92.5165C63.7841 91.6953 63.6676 91.2561 62.6389 91.333C61.5383 91.4124 60.4253 91.4025 59.3198 91.3479C58.4547 91.3032 57.9837 91.5588 57.5896 92.4123C56.6179 94.5188 54.7514 95.4071 52.5329 95.4989C50.2475 95.5932 48.3215 94.6702 47.2457 92.6555C46.6483 91.5389 45.9915 91.2065 44.8711 91.3479C44.5364 91.3876 44.1919 91.3529 43.8498 91.3553ZM89.8161 81.0883C89.7814 80.5028 89.7368 79.9147 89.7145 79.3292C89.4666 73.1164 89.2063 66.906 88.9907 60.6932C88.9634 59.9266 88.7651 59.6611 87.9719 59.6834C86.0583 59.738 84.1397 59.7479 82.2286 59.6809C81.247 59.6462 81.1801 59.9142 81.5271 60.7478C83.287 64.9782 84.9775 69.2383 86.735 73.4687C87.7785 75.9846 88.3834 78.6692 89.8161 81.0883ZM129.9 93.7496C131.606 93.6802 132.907 92.9358 133.685 91.3826C134.436 89.8815 134.32 88.4127 133.351 87.048C132.597 85.9836 131.702 85.8621 130.666 86.6535C129.211 87.7626 127.858 88.9883 126.561 90.2785C126.202 90.6358 126.133 90.9856 126.393 91.4149C127.198 92.7349 128.14 93.8439 129.9 93.7496ZM56.0206 91.3256C53.636 91.3256 51.4373 91.3231 49.2362 91.333C49.085 91.333 48.8743 91.3801 48.7974 91.4844C48.5917 91.7622 48.8668 91.9384 49.0106 92.1319C50.7804 94.5238 54.4614 94.2335 56.0206 91.3256Z" fill="#5755D7" stroke="#5755D7" stroke-width="0.880514" stroke-miterlimit="10"/>
<path d="M86.1301 7.22686C86.0459 7.22686 85.9591 7.22686 85.8748 7.22686C83.6588 7.21445 83.7505 7.23679 83.2523 9.35321C81.9881 14.7274 77.6949 16.7173 73.305 14.8787C67.9384 12.6283 67.4427 6.30883 71.0146 2.67642C74.3337 -0.697943 79.9233 -0.104948 82.3798 4.29414C82.8309 5.10299 83.3242 5.35111 84.1793 5.31389C85.4138 5.25931 86.6507 5.31885 87.8876 5.30645C88.5221 5.299 89.0303 5.49501 89.06 6.18478C89.0923 6.91175 88.6461 7.25167 87.9198 7.23927C87.3224 7.22686 86.725 7.23678 86.1301 7.23678C86.1301 7.23182 86.1301 7.22934 86.1301 7.22686ZM76.0093 7.2343C76.0093 7.23678 76.0093 7.23927 76.0093 7.23927C74.5196 7.23927 73.0298 7.2616 71.5426 7.22934C70.9303 7.21694 70.675 7.45016 70.7147 8.04564C70.8337 9.88914 71.6541 11.4523 73.067 12.5216C74.7501 13.797 76.691 13.8491 78.6071 12.8715C80.4686 11.9237 81.071 10.1844 81.4353 8.3136C81.5766 7.59407 81.2941 7.20205 80.4785 7.2219C78.9888 7.25911 77.4991 7.2343 76.0093 7.2343ZM71.6244 5.31141C74.5022 5.31141 77.1991 5.30893 79.896 5.31389C80.3001 5.31389 80.4389 5.18735 80.2951 4.78044C80.1489 4.37105 79.9159 4.05843 79.5812 3.76565C77.6676 2.08591 73.3769 1.84772 71.6244 5.31141Z" fill="#5755D7" stroke="#5755D7" stroke-width="0.880514" stroke-miterlimit="10"/>
<path d="M32.9458 67.5685C36.9962 67.5685 41.0465 67.5735 45.0968 67.5636C45.8255 67.5611 46.5642 67.5785 46.5369 68.5411C46.5097 69.4418 45.8131 69.5584 45.0645 69.5584C36.9218 69.5535 28.7766 69.5559 20.6338 69.5609C19.9224 69.5609 19.1614 69.546 19.0647 68.6454C18.9631 67.705 19.6473 67.5685 20.4132 67.571C24.5924 67.5809 28.7691 67.576 32.9483 67.576C32.9459 67.571 32.9458 67.5685 32.9458 67.5685Z" fill="#5755D7" stroke="#5755D7" stroke-width="0.880514" stroke-miterlimit="10"/>
<path d="M12.6074 59.6586C9.16187 59.6586 5.71391 59.6537 2.26842 59.6636C1.48761 59.6661 0.719187 59.5966 0.724145 58.6016C0.729102 57.5769 1.53718 57.6017 2.29569 57.6017C9.10486 57.6092 15.9116 57.6117 22.7207 57.6042C23.4768 57.6042 24.3171 57.5744 24.3419 58.5644C24.3666 59.6189 23.5139 59.6636 22.696 59.6611C19.3298 59.6512 15.9686 59.6561 12.6074 59.6586Z" fill="#5755D7" stroke="#5755D7" stroke-width="0.880514" stroke-miterlimit="10"/>
<path d="M31.0098 57.6043C31.8154 57.6043 32.621 57.6043 33.429 57.6043C34.1157 57.6018 34.6164 57.8573 34.599 58.6166C34.5817 59.351 34.0983 59.6438 33.4092 59.6438C31.7113 59.6463 30.0158 59.6562 28.3178 59.6463C27.6015 59.6413 27.1826 59.2369 27.2073 58.5372C27.2296 57.8772 27.6932 57.6018 28.3377 57.6067C29.2275 57.6142 30.1199 57.6092 31.0098 57.6092C31.0098 57.6092 31.0098 57.6067 31.0098 57.6043Z" fill="#5755D7" stroke="#5755D7" stroke-width="0.880514" stroke-miterlimit="10"/>
<path d="M11.2591 67.5785C12.149 67.5785 13.0388 67.5834 13.9312 67.576C14.541 67.571 14.888 67.8514 14.9401 68.4692C14.9996 69.1639 14.6129 69.5386 13.9783 69.5485C12.1564 69.5783 10.332 69.5733 8.51014 69.5262C7.88301 69.5113 7.47153 69.0994 7.5335 68.437C7.58803 67.8514 7.9772 67.5661 8.58698 67.576C9.47686 67.5934 10.3667 67.581 11.2591 67.5785Z" fill="#5755D7" stroke="#5755D7" stroke-width="0.880514" stroke-miterlimit="10"/>
<path d="M11.6855 38.41C11.217 38.41 10.7411 38.3604 10.2825 38.4224C9.49925 38.5291 9.14974 38.1346 9.13239 37.4423C9.11256 36.6881 9.45959 36.2911 10.3098 36.3506C11.284 36.4201 12.2656 36.3655 13.2447 36.3705C13.9288 36.373 14.4196 36.6285 14.4146 37.3977C14.4097 38.1768 13.8792 38.3926 13.2174 38.4075C12.7068 38.4199 12.1961 38.41 11.6855 38.41Z" fill="#5755D7" stroke="#5755D7" stroke-width="0.880514" stroke-miterlimit="10"/>
</svg>
