<svg width="145" height="145" viewBox="0 0 145 145" fill="none" xmlns="http://www.w3.org/2000/svg">
<g clip-path="url(#clip0_477_3615)">
<path d="M139.821 113.221C139.046 112.347 137.709 112.266 136.835 113.041C135.961 113.816 135.88 115.153 136.655 116.027C139.115 118.802 140.443 122.374 140.395 126.086C140.293 134.178 133.509 140.761 125.273 140.761H57.5752C54.072 140.761 50.806 139.369 48.3781 136.84C43.2586 131.507 43.7454 123.049 49.3629 118.287C52.1112 115.958 55.5946 114.92 59.1695 115.363C62.6947 115.803 66.2295 114.563 68.6249 112.047C72.7709 107.692 78.9919 105.844 84.8578 107.223C87.9513 107.956 91.1739 107.407 93.6982 105.721C101.119 100.777 111.164 101.693 117.582 107.898C119.661 109.909 122.483 111.017 125.528 111.017C126.806 111.017 128.073 111.179 129.294 111.5C130.424 111.798 131.58 111.122 131.877 109.992C132.174 108.862 131.498 107.706 130.369 107.409C128.797 106.996 127.169 106.786 125.528 106.786C123.558 106.786 121.828 106.119 120.522 104.857C116.28 100.756 110.408 98.2284 104.051 98.2975C103.089 92.9121 99.842 88.1477 95.106 85.305L91.6423 83.226L97.7691 75.4099C99.4452 73.2716 99.6005 70.2475 98.0187 67.9246L107.897 51.4618C109.699 51.1192 111.224 50.0483 112.157 48.493L116.742 40.8504C125.126 41.4206 133.652 37.4301 138.373 29.5595L139.476 27.7228C141.276 24.7221 140.301 20.8167 137.301 19.0169C135.693 18.049 133.83 17.8663 132.133 18.3922L111.132 5.79057C110.805 4.07648 109.779 2.5031 108.169 1.53748C105.157 -0.270535 101.239 0.697065 99.4347 3.69688C97.8577 6.32923 95.8675 9.35442 95.1977 14.5325C95.0477 15.6911 95.8655 16.7517 97.024 16.9015C98.1823 17.0524 99.2432 16.2337 99.393 15.0751C99.9438 10.8178 101.554 8.39134 103.062 5.87377C103.598 4.98231 104.841 4.47327 105.993 5.16478C106.992 5.76406 107.317 7.06642 106.717 8.06673L105.617 9.89956C101.402 16.9229 103.686 26.0673 110.713 30.2849C117.74 34.4943 126.884 32.2074 131.095 25.1874L132.194 23.3563C132.796 22.3551 134.097 22.0288 135.095 22.6292C136.177 23.2784 136.425 24.5864 135.85 25.5456L134.746 27.3826C129.312 36.4433 117.58 39.378 108.519 33.9387C104.713 31.6555 101.806 28.0995 100.333 23.9262C99.9446 22.8244 98.7362 22.2468 97.6349 22.6352C96.5333 23.0238 95.9552 24.2319 96.3438 25.3335C96.9129 26.9466 97.6583 28.4834 98.5571 29.9199L93.9664 37.5736C93.062 39.0737 92.7856 40.8944 93.3516 42.7213L83.4672 59.1944C80.671 58.8924 78.0787 60.4539 76.9817 62.9365L72.9669 72.0211L69.502 69.9413C60.4814 64.5277 48.7977 67.4471 43.3841 76.4705L36.455 88.0191C35.854 89.0208 36.1789 90.3201 37.1803 90.9211C38.184 91.5232 39.4824 91.1952 40.0823 90.1957L47.0114 78.6468C51.2211 71.6303 60.3069 69.3566 67.3248 73.5683L71.2435 75.9203L67.6534 84.0441C65.7551 88.3395 67.3601 93.4008 71.3873 95.8172C75.4311 98.2439 80.6482 97.2521 83.5323 93.5726L89.0119 86.5817L92.9286 88.9326C96.5209 91.0889 99.0134 94.6674 99.8287 98.7293C96.817 99.3161 93.9252 100.487 91.3507 102.202C89.7974 103.24 87.7866 103.57 85.8294 103.106C78.5043 101.384 70.7387 103.693 65.5617 109.13C64.087 110.679 61.8932 111.44 59.6915 111.166C58.886 111.066 58.0846 111.027 57.2901 111.038L61.1803 104.557C63.5842 100.547 62.2784 95.3248 58.2684 92.9166C54.2562 90.5088 49.0341 91.8156 46.6271 95.8276L35.6964 114.042L33.841 112.929C30.8454 111.13 29.8552 107.232 31.6638 104.223L35.0029 98.6588C35.6039 97.657 35.279 96.3578 34.2775 95.7565C33.2755 95.1553 31.9763 95.4804 31.3753 96.4819L28.0371 102.045C26.9668 103.826 26.4578 105.835 26.5353 107.864C26.0832 108.264 25.641 108.685 25.2158 109.129C23.7411 110.678 21.5467 111.44 19.3459 111.165C9.18252 109.904 0.65715 117.754 0.26853 127.302C-0.129396 137.04 7.64553 144.992 17.2302 144.992H125.274C135.812 144.992 144.494 136.535 144.626 126.14C144.686 121.374 142.98 116.785 139.821 113.221ZM126.184 24.7308L108.33 14.017C108.772 12.7643 109.218 12.1204 110.34 10.2495L128.563 21.1842C127.458 23.0269 127.092 23.7412 126.184 24.7308ZM107.788 18.6249L122.371 27.3759C115.8 30.0483 108.52 25.7024 107.788 18.6249ZM96.145 46.2868L103.441 50.6651L94.6923 65.246L87.396 60.8676L96.145 46.2868ZM97.5912 39.7536L101.332 33.5162C104.376 36.7606 108.184 38.9857 112.263 40.0946L108.53 46.3164C107.925 47.3235 106.619 47.6419 105.628 47.044L98.3162 42.6564C97.3235 42.0597 96.982 40.7635 97.5912 39.7536ZM80.2031 90.9625C78.6193 92.9832 75.7653 93.5108 73.5639 92.1896C71.3625 90.8686 70.4851 88.1017 71.5227 85.754L80.8506 64.6461C81.367 63.478 82.7833 63.033 83.8736 63.6875L93.8632 69.6821C94.9447 70.331 95.233 71.7885 94.4394 72.8006L80.2031 90.9625ZM50.2544 98.0042C51.4614 95.9923 54.0805 95.3372 56.0915 96.5436C58.1026 97.7515 58.7577 100.371 57.5527 102.382L51.7389 112.068C48.4305 113.29 45.4857 115.562 43.4231 118.678L39.3239 116.219L50.2544 98.0042ZM17.2299 140.761C9.97471 140.761 4.19844 134.733 4.49512 127.474C4.78644 120.322 11.1927 114.416 18.8244 115.364C22.124 115.775 25.4304 114.715 27.8016 112.518C28.6925 114.173 30.0129 115.565 31.6641 116.556L41.5378 122.48C39.3612 128.725 40.9419 135.97 46.3676 140.761H17.2299Z" fill="#1D465C"/>
<path d="M51.4677 46.836C51.6214 46.9271 51.6975 47.1053 51.6569 47.279C50.744 51.209 54.9325 54.3464 58.447 52.372C58.603 52.2843 58.795 52.3074 58.9253 52.4295C61.8727 55.1857 66.6845 53.1258 66.731 49.0952C66.733 48.9167 66.8492 48.7619 67.0201 48.71C70.8795 47.5354 71.5027 42.339 68.0353 40.2831C67.8816 40.192 67.8055 40.0137 67.8461 39.84C68.7587 35.9101 64.5696 32.7727 61.0557 34.7473C60.9 34.835 60.7077 34.8116 60.5771 34.6895C57.6295 31.9337 52.8182 33.9938 52.7717 38.0238C52.7697 38.2026 52.6536 38.3574 52.4826 38.4093C48.6227 39.5842 48.0006 44.7807 51.4677 46.836ZM53.428 42.7975C53.4598 42.5335 53.6513 42.4755 53.7145 42.4563C55.6573 41.8649 56.9786 40.1034 57.002 38.0726C57.0028 38.0069 57.0051 37.8067 57.2496 37.7023C57.493 37.5982 57.6402 37.7347 57.6881 37.7793C59.1715 39.1663 61.3577 39.4302 63.1282 38.435C63.1858 38.4028 63.3603 38.3047 63.5732 38.4643C63.7856 38.6237 63.7405 38.8188 63.7255 38.8828C63.2661 40.8609 64.1311 42.8861 65.8779 43.9219C65.9346 43.9555 66.1066 44.0576 66.0747 44.3215C66.0429 44.5855 65.8514 44.6439 65.7885 44.6628C63.8454 45.2542 62.5241 47.0156 62.5007 49.0462C62.5002 49.1119 62.4976 49.3121 62.2528 49.4167C62.0083 49.5205 61.862 49.384 61.8143 49.3395C60.3306 47.9522 58.1447 47.6888 56.3739 48.6841C56.3164 48.7159 56.1418 48.8141 55.9292 48.6547C55.7168 48.4954 55.7619 48.3002 55.7769 48.2362C56.2363 46.2579 55.3713 44.233 53.6245 43.1971C53.5684 43.1639 53.3964 43.0618 53.428 42.7975Z" fill="#CDCDCD"/>
<path d="M17.2313 18.2874H24.185L20.708 24.3093C19.8913 25.7236 20.9232 27.4823 22.5378 27.4823C23.2688 27.4823 23.9797 27.103 24.3714 26.4244L27.8484 20.4022L31.3254 26.4244C31.7171 27.103 32.4281 27.4823 33.1591 27.4823C34.7717 27.4823 35.8064 25.7248 34.9888 24.3093L31.5118 18.2871H38.4655C39.6336 18.2871 40.5807 17.3401 40.5807 16.172C40.5807 15.0039 39.6336 14.0569 38.4655 14.0569H31.5121L34.9888 8.03496C35.5729 7.02337 35.2263 5.72975 34.2147 5.1457C33.2031 4.56164 31.9095 4.90824 31.3254 5.91983L27.8484 11.942L24.3714 5.92011C23.7874 4.90824 22.4938 4.56192 21.4822 5.14598C20.4706 5.73004 20.124 7.02365 20.708 8.03524L24.1847 14.0571H17.2313C16.0632 14.0571 15.1162 15.0042 15.1162 16.1723C15.1162 17.3404 16.0632 18.2874 17.2313 18.2874Z" fill="#CDCDCD"/>
<path d="M140.382 84.1217C140.382 82.9536 139.435 82.0066 138.267 82.0066H131.314L134.79 75.9844C135.374 74.9728 135.028 73.6792 134.016 73.0952C133.004 72.5108 131.711 72.8574 131.127 73.8693L127.65 79.8915L124.173 73.8693C123.589 72.8574 122.296 72.5111 121.284 73.0952C120.273 73.6792 119.926 74.9728 120.51 75.9844L123.987 82.0066H117.033C115.865 82.0066 114.918 82.9536 114.918 84.1217C114.918 85.2899 115.865 86.2369 117.033 86.2369H123.987L120.51 92.2588C119.926 93.2704 120.273 94.564 121.284 95.148C122.292 95.7298 123.587 95.3894 124.173 94.3739L127.65 88.3517L131.127 94.3739C131.713 95.3886 133.007 95.7307 134.016 95.148C135.028 94.564 135.374 93.2704 134.79 92.2588L131.314 86.2369H138.267C139.435 86.2369 140.382 85.2899 140.382 84.1217Z" fill="#CDCDCD"/>
<path d="M129.782 51.5697C129.782 55.0777 132.636 57.9317 136.144 57.9317C139.652 57.9317 142.506 55.0777 142.506 51.5697C142.506 48.0617 139.652 45.2076 136.144 45.2076C132.636 45.2076 129.782 48.0617 129.782 51.5697ZM138.276 51.5697C138.276 52.7451 137.32 53.7014 136.144 53.7014C134.969 53.7014 134.012 52.7451 134.012 51.5697C134.012 50.3942 134.969 49.4379 136.144 49.4379C137.32 49.4379 138.276 50.3942 138.276 51.5697Z" fill="#CDCDCD"/>
<path d="M10.863 57.9314C14.371 57.9314 17.225 55.0774 17.225 51.5693C17.225 48.0613 14.371 45.2073 10.863 45.2073C7.35499 45.2073 4.50098 48.0613 4.50098 51.5693C4.50098 55.0774 7.35499 57.9314 10.863 57.9314ZM10.863 49.4379C12.0384 49.4379 12.9948 50.3942 12.9948 51.5696C12.9948 52.7451 12.0384 53.7014 10.863 53.7014C9.68755 53.7014 8.73123 52.7451 8.73123 51.5696C8.73123 50.3942 9.68755 49.4379 10.863 49.4379Z" fill="#CDCDCD"/>
<path d="M75.2403 115.28C71.9333 115.28 69.2432 117.971 69.2432 121.277C69.2432 122.446 70.1902 123.393 71.3583 123.393C72.5264 123.393 73.4734 122.446 73.4734 121.277C73.4734 120.303 74.2662 119.511 75.2403 119.511C76.2143 119.511 77.0071 120.303 77.0071 121.277C77.0071 122.446 77.9541 123.393 79.1222 123.393C80.2903 123.393 81.2373 122.446 81.2373 121.277C81.2373 117.971 78.5472 115.28 75.2403 115.28Z" fill="black"/>
<path d="M103.944 121.277C103.944 122.446 104.891 123.393 106.059 123.393C107.228 123.393 108.175 122.446 108.175 121.277C108.175 120.303 108.967 119.511 109.941 119.511C110.916 119.511 111.708 120.303 111.708 121.277C111.708 122.446 112.655 123.393 113.823 123.393C114.992 123.393 115.939 122.446 115.939 121.277C115.939 117.971 113.248 115.28 109.941 115.28C106.635 115.28 103.944 117.971 103.944 121.277Z" fill="black"/>
<path d="M92.789 117.467C91.6208 117.467 90.6738 118.414 90.6738 119.582C90.6738 120.75 91.6208 121.697 92.789 121.697C93.3426 121.697 93.7929 122.148 93.7929 122.701C93.7929 123.255 93.3426 123.705 92.789 123.705C91.6208 123.705 90.6738 124.652 90.6738 125.82C90.6738 126.989 91.6208 127.936 92.789 127.936C93.3426 127.936 93.7929 128.386 93.7929 128.94C93.7929 129.493 93.3426 129.944 92.789 129.944C91.6208 129.944 90.6738 130.891 90.6738 132.059C90.6738 133.227 91.6208 134.174 92.789 134.174C97.0779 134.174 99.5512 129.265 96.9823 125.82C99.5545 122.371 97.0697 117.467 92.789 117.467Z" fill="black"/>
</g>
<defs>
<clipPath id="clip0_477_3615">
<rect width="144.373" height="144.373" fill="white" transform="translate(0.25293 0.622742)"/>
</clipPath>
</defs>
</svg>
