<?xml version="1.0" encoding="utf-8"?>
<!-- Generator: Adobe Illustrator 26.0.1, SVG Export Plug-In . SVG Version: 6.00 Build 0)  -->
<svg version="1.1" id="Layer_1" xmlns="http://www.w3.org/2000/svg" xmlns:xlink="http://www.w3.org/1999/xlink" x="0px" y="0px"
	 viewBox="0 0 90 90" style="enable-background:new 0 0 90 90;" xml:space="preserve">
<style type="text/css">
	.st0{fill:#1F475D;}
	.st1{fill:#CECECD;}
	.st2{fill:#010101;}
</style>
<g>
	<path class="st0" d="M85.35,69.2c-0.46-0.52-1.26-0.57-1.79-0.11c-0.52,0.46-0.57,1.26-0.11,1.79c1.47,1.66,2.27,3.8,2.24,6.02
		c-0.06,4.85-4.12,8.79-9.06,8.79H36.1c-2.1,0-4.05-0.83-5.51-2.35c-3.07-3.19-2.77-8.26,0.59-11.11c1.65-1.39,3.73-2.02,5.87-1.75
		c2.11,0.26,4.23-0.48,5.66-1.99c2.48-2.61,6.21-3.71,9.72-2.89c1.85,0.44,3.78,0.11,5.29-0.9c4.44-2.96,10.46-2.41,14.3,1.3
		c1.25,1.2,2.94,1.87,4.76,1.87c0.77,0,1.52,0.1,2.26,0.29c0.68,0.18,1.37-0.23,1.55-0.9c0.18-0.68-0.23-1.37-0.9-1.55
		c-0.94-0.25-1.92-0.37-2.9-0.37c-1.18,0-2.22-0.4-3-1.16c-2.54-2.46-6.06-3.97-9.86-3.93c-0.58-3.23-2.52-6.08-5.36-7.78
		l-2.07-1.25l3.67-4.68c1-1.28,1.1-3.09,0.15-4.48l5.92-9.86c1.08-0.21,1.99-0.85,2.55-1.78l2.75-4.58
		c5.02,0.34,10.13-2.05,12.96-6.76l0.66-1.1c1.08-1.8,0.49-4.14-1.3-5.21c-0.96-0.58-2.08-0.69-3.1-0.37L68.17,4.86
		c-0.2-1.03-0.81-1.97-1.77-2.55c-1.8-1.08-4.15-0.5-5.23,1.29C60.22,5.18,59.03,7,58.63,10.1c-0.09,0.69,0.4,1.33,1.09,1.42
		c0.69,0.09,1.33-0.4,1.42-1.09c0.33-2.55,1.29-4,2.2-5.51c0.32-0.53,1.07-0.84,1.76-0.42c0.6,0.36,0.79,1.14,0.43,1.74l-0.66,1.1
		c-2.52,4.21-1.16,9.68,3.05,12.21c4.21,2.52,9.69,1.15,12.21-3.05l0.66-1.1c0.36-0.6,1.14-0.8,1.74-0.44
		c0.65,0.39,0.8,1.17,0.45,1.75l-0.66,1.1c-3.25,5.43-10.28,7.18-15.71,3.93c-2.28-1.37-4.02-3.5-4.9-6
		c-0.23-0.66-0.96-1.01-1.62-0.77c-0.66,0.23-1.01,0.96-0.77,1.62c0.34,0.97,0.79,1.89,1.33,2.75l-2.75,4.58
		c-0.54,0.9-0.71,1.99-0.37,3.08l-5.92,9.87c-1.67-0.18-3.23,0.75-3.88,2.24l-2.4,5.44l-2.08-1.25c-5.4-3.24-12.4-1.49-15.64,3.91
		l-4.15,6.92c-0.36,0.6-0.17,1.38,0.43,1.74c0.6,0.36,1.38,0.16,1.74-0.43l4.15-6.92c2.52-4.2,7.96-5.56,12.17-3.04l2.35,1.41
		l-2.15,4.87c-1.14,2.57-0.18,5.6,2.24,7.05c2.42,1.45,5.55,0.86,7.27-1.34l3.28-4.19l2.35,1.41c2.15,1.29,3.64,3.43,4.13,5.87
		c-1.8,0.35-3.54,1.05-5.08,2.08c-0.93,0.62-2.13,0.82-3.31,0.54c-4.39-1.03-9.04,0.35-12.14,3.61c-0.88,0.93-2.2,1.38-3.52,1.22
		c-0.48-0.06-0.96-0.08-1.44-0.08l2.33-3.88c1.44-2.4,0.66-5.53-1.74-6.97c-2.4-1.44-5.53-0.66-6.97,1.74L22.99,69.7l-1.11-0.67
		c-1.79-1.08-2.39-3.41-1.3-5.21l2-3.33c0.36-0.6,0.17-1.38-0.43-1.74c-0.6-0.36-1.38-0.17-1.74,0.43l-2,3.33
		c-0.64,1.07-0.95,2.27-0.9,3.48c-0.27,0.24-0.54,0.49-0.79,0.76c-0.88,0.93-2.2,1.38-3.52,1.22c-6.09-0.76-11.19,3.95-11.43,9.66
		c-0.24,5.83,4.42,10.59,10.16,10.59h64.71c6.31,0,11.51-5.06,11.59-11.29C88.27,74.09,87.25,71.34,85.35,69.2L85.35,69.2z
		 M77.19,16.21L66.49,9.79c0.26-0.75,0.53-1.14,1.2-2.26l10.91,6.55C77.95,15.18,77.73,15.61,77.19,16.21L77.19,16.21z M66.17,12.55
		l8.73,5.24C70.97,19.39,66.61,16.79,66.17,12.55z M59.2,29.12l4.37,2.62l-5.24,8.73l-4.37-2.62L59.2,29.12z M60.06,25.2l2.24-3.74
		c1.82,1.94,4.1,3.28,6.55,3.94l-2.24,3.73c-0.36,0.6-1.14,0.79-1.74,0.44l-4.38-2.63C59.9,26.58,59.7,25.81,60.06,25.2L60.06,25.2z
		 M49.65,55.87c-0.95,1.21-2.66,1.53-3.98,0.73c-1.32-0.79-1.84-2.45-1.22-3.85l5.59-12.64c0.31-0.7,1.16-0.97,1.81-0.57l5.98,3.59
		c0.65,0.39,0.82,1.26,0.35,1.87L49.65,55.87z M31.71,60.09c0.72-1.2,2.29-1.6,3.5-0.87c1.2,0.72,1.6,2.29,0.88,3.5l-3.48,5.8
		c-1.98,0.73-3.75,2.09-4.98,3.96L25.17,71L31.71,60.09z M11.93,85.7c-4.35,0-7.8-3.61-7.63-7.96c0.17-4.28,4.01-7.82,8.58-7.25
		c1.98,0.25,3.96-0.39,5.38-1.7c0.53,0.99,1.32,1.82,2.31,2.42l5.91,3.55c-1.3,3.74-0.36,8.08,2.89,10.95H11.93z"/>
	<path class="st1" d="M32.44,29.44c0.09,0.05,0.14,0.16,0.11,0.27c-0.55,2.35,1.96,4.23,4.07,3.05c0.09-0.05,0.21-0.04,0.29,0.03
		c1.77,1.65,4.65,0.42,4.67-2c0-0.11,0.07-0.2,0.17-0.23c2.31-0.7,2.68-3.82,0.61-5.05c-0.09-0.05-0.14-0.16-0.11-0.27
		c0.55-2.35-1.96-4.23-4.07-3.05c-0.09,0.05-0.21,0.04-0.29-0.03c-1.77-1.65-4.65-0.42-4.67,2c0,0.11-0.07,0.2-0.17,0.23
		C30.74,25.1,30.36,28.21,32.44,29.44L32.44,29.44z M33.61,27.03c0.02-0.16,0.13-0.19,0.17-0.2c1.16-0.35,1.95-1.41,1.97-2.63
		c0-0.04,0-0.16,0.15-0.22c0.15-0.06,0.23,0.02,0.26,0.05c0.89,0.83,2.2,0.99,3.26,0.39c0.03-0.02,0.14-0.08,0.27,0.02
		c0.13,0.1,0.1,0.21,0.09,0.25c-0.28,1.18,0.24,2.4,1.29,3.02c0.03,0.02,0.14,0.08,0.12,0.24c-0.02,0.16-0.13,0.19-0.17,0.2
		c-1.16,0.35-1.96,1.41-1.97,2.63c0,0.04,0,0.16-0.15,0.22c-0.15,0.06-0.23-0.02-0.26-0.05c-0.89-0.83-2.2-0.99-3.26-0.39
		c-0.03,0.02-0.14,0.08-0.27-0.02c-0.13-0.1-0.1-0.21-0.09-0.25c0.28-1.18-0.24-2.4-1.29-3.02C33.7,27.24,33.59,27.18,33.61,27.03
		L33.61,27.03z"/>
	<path class="st1" d="M11.93,12.35h4.16l-2.08,3.61c-0.49,0.85,0.13,1.9,1.1,1.9c0.44,0,0.86-0.23,1.1-0.63l2.08-3.61l2.08,3.61
		c0.23,0.41,0.66,0.63,1.1,0.63c0.97,0,1.59-1.05,1.1-1.9l-2.08-3.61h4.16c0.7,0,1.27-0.57,1.27-1.27c0-0.7-0.57-1.27-1.27-1.27
		h-4.16l2.08-3.61c0.35-0.61,0.14-1.38-0.46-1.73c-0.61-0.35-1.38-0.14-1.73,0.46l-2.08,3.61l-2.08-3.61
		c-0.35-0.61-1.12-0.81-1.73-0.46c-0.61,0.35-0.81,1.12-0.46,1.73l2.08,3.61h-4.16c-0.7,0-1.27,0.57-1.27,1.27
		C10.67,11.78,11.23,12.35,11.93,12.35L11.93,12.35z"/>
	<path class="st1" d="M85.69,51.78c0-0.7-0.57-1.27-1.27-1.27h-4.16l2.08-3.61c0.35-0.61,0.14-1.38-0.46-1.73
		c-0.61-0.35-1.38-0.14-1.73,0.46l-2.08,3.61l-2.08-3.61c-0.35-0.61-1.12-0.81-1.73-0.46s-0.81,1.12-0.46,1.73l2.08,3.61h-4.16
		c-0.7,0-1.27,0.57-1.27,1.27s0.57,1.27,1.27,1.27h4.16l-2.08,3.61c-0.35,0.61-0.14,1.38,0.46,1.73c0.6,0.35,1.38,0.14,1.73-0.46
		l2.08-3.61l2.08,3.61c0.35,0.61,1.13,0.81,1.73,0.46c0.61-0.35,0.81-1.12,0.46-1.73l-2.08-3.61h4.16
		C85.12,53.04,85.69,52.47,85.69,51.78z"/>
	<path class="st1" d="M79.34,32.28c0,2.1,1.71,3.81,3.81,3.81c2.1,0,3.81-1.71,3.81-3.81s-1.71-3.81-3.81-3.81
		C81.05,28.47,79.34,30.18,79.34,32.28z M84.43,32.28c0,0.7-0.57,1.28-1.28,1.28c-0.7,0-1.28-0.57-1.28-1.28S82.45,31,83.15,31
		C83.86,31,84.43,31.58,84.43,32.28z"/>
	<path class="st1" d="M8.12,36.09c2.1,0,3.81-1.71,3.81-3.81s-1.71-3.81-3.81-3.81s-3.81,1.71-3.81,3.81S6.02,36.09,8.12,36.09z
		 M8.12,31c0.7,0,1.28,0.57,1.28,1.28c0,0.7-0.57,1.28-1.28,1.28s-1.28-0.57-1.28-1.28C6.84,31.58,7.42,31,8.12,31z"/>
	<path class="st2" d="M46.68,70.44c-1.98,0-3.59,1.61-3.59,3.59c0,0.7,0.57,1.27,1.27,1.27c0.7,0,1.27-0.57,1.27-1.27
		c0-0.58,0.47-1.06,1.06-1.06c0.58,0,1.06,0.47,1.06,1.06c0,0.7,0.57,1.27,1.27,1.27s1.27-0.57,1.27-1.27
		C50.27,72.05,48.66,70.44,46.68,70.44L46.68,70.44z"/>
	<path class="st2" d="M63.87,74.03c0,0.7,0.57,1.27,1.27,1.27s1.27-0.57,1.27-1.27c0-0.58,0.47-1.06,1.06-1.06s1.06,0.47,1.06,1.06
		c0,0.7,0.57,1.27,1.27,1.27s1.27-0.57,1.27-1.27c0-1.98-1.61-3.59-3.59-3.59S63.87,72.05,63.87,74.03z"/>
	<path class="st2" d="M57.19,71.75c-0.7,0-1.27,0.57-1.27,1.27s0.57,1.27,1.27,1.27c0.33,0,0.6,0.27,0.6,0.6s-0.27,0.6-0.6,0.6
		c-0.7,0-1.27,0.57-1.27,1.27s0.57,1.27,1.27,1.27c0.33,0,0.6,0.27,0.6,0.6s-0.27,0.6-0.6,0.6c-0.7,0-1.27,0.57-1.27,1.27
		c0,0.7,0.57,1.27,1.27,1.27c2.57,0,4.05-2.94,2.51-5C61.24,74.68,59.75,71.75,57.19,71.75z"/>
</g>
</svg>
