<?xml version="1.0" encoding="utf-8"?>
<!-- Generator: Adobe Illustrator 26.0.1, SVG Export Plug-In . SVG Version: 6.00 Build 0)  -->
<svg version="1.1" id="Layer_1" xmlns="http://www.w3.org/2000/svg" xmlns:xlink="http://www.w3.org/1999/xlink" x="0px" y="0px"
	 viewBox="0 0 90 90" style="enable-background:new 0 0 90 90;" xml:space="preserve">
<style type="text/css">
	.st0{fill:#C22032;}
	.st1{fill:#CCCBCA;}
	.st2{fill:#EEA416;}
	.st3{fill:#E6F300;}
</style>
<path class="st0" d="M45,81.6h-7.79c-0.72,0-1.3-0.58-1.3-1.3s0.58-1.3,1.3-1.3H45c0.72,0,1.3,0.58,1.3,1.3S45.72,81.6,45,81.6z"/>
<path d="M33.32,86.79H4.76c-0.72,0-1.3-0.58-1.3-1.3V67.32c0-0.72,0.58-1.3,1.3-1.3h28.56c0.72,0,1.3,0.58,1.3,1.3v18.17
	C34.62,86.21,34.04,86.79,33.32,86.79z M6.06,84.19h25.96V68.62H6.06V84.19z"/>
<path d="M12.55,68.62H8.66c-0.72,0-1.3-0.58-1.3-1.3v-3.89c0-0.72,0.58-1.3,1.3-1.3h3.89c0.72,0,1.3,0.58,1.3,1.3v3.89
	C13.85,68.04,13.27,68.62,12.55,68.62z M9.95,66.02h1.3v-1.3h-1.3V66.02z"/>
<path d="M29.42,68.62h-3.89c-0.72,0-1.3-0.58-1.3-1.3v-3.89c0-0.72,0.58-1.3,1.3-1.3h3.89c0.72,0,1.3,0.58,1.3,1.3v3.89
	C30.72,68.04,30.14,68.62,29.42,68.62z M26.83,66.02h1.3v-1.3h-1.3V66.02z"/>
<path class="st0" d="M17.74,77.7c-0.13,0-0.27-0.02-0.41-0.07c-0.68-0.23-1.05-0.96-0.82-1.64l1.3-3.89
	c0.23-0.68,0.96-1.05,1.64-0.82c0.68,0.23,1.05,0.96,0.82,1.64l-1.3,3.89C18.79,77.36,18.29,77.7,17.74,77.7L17.74,77.7z"/>
<path class="st0" d="M20.34,77.7h-2.6c-0.72,0-1.3-0.58-1.3-1.3c0-0.72,0.58-1.3,1.3-1.3h2.6c0.72,0,1.3,0.58,1.3,1.3
	C21.64,77.12,21.06,77.7,20.34,77.7z"/>
<path class="st0" d="M17.74,81.6c-0.25,0-0.5-0.07-0.72-0.22c-0.6-0.4-0.76-1.2-0.36-1.8l2.6-3.89c0.4-0.6,1.2-0.76,1.8-0.36
	c0.6,0.4,0.76,1.2,0.36,1.8l-2.6,3.89C18.57,81.4,18.16,81.6,17.74,81.6z"/>
<path class="st0" d="M8.66,82.9c-0.72,0-1.3-0.58-1.3-1.3V71.22c0-0.72,0.58-1.3,1.3-1.3s1.3,0.58,1.3,1.3V81.6
	C9.95,82.32,9.37,82.9,8.66,82.9z"/>
<path class="st0" d="M29.42,82.9c-0.72,0-1.3-0.58-1.3-1.3V71.22c0-0.72,0.58-1.3,1.3-1.3s1.3,0.58,1.3,1.3V81.6
	C30.72,82.32,30.14,82.9,29.42,82.9z"/>
<path d="M37.21,85.49h-3.89c-0.72,0-1.3-0.58-1.3-1.3V77.7c0-0.72,0.58-1.3,1.3-1.3h3.89c0.72,0,1.3,0.58,1.3,1.3v6.49
	C38.51,84.91,37.93,85.49,37.21,85.49z M34.62,82.9h1.3V79h-1.3V82.9z"/>
<path class="st0" d="M45,81.6c-0.72,0-1.3-0.58-1.3-1.3v-7.79c0-0.72,0.58-1.3,1.3-1.3s1.3,0.58,1.3,1.3v7.79
	C46.3,81.02,45.72,81.6,45,81.6z"/>
<path class="st0" d="M63.17,73.81H45c-0.72,0-1.3-0.58-1.3-1.3s0.58-1.3,1.3-1.3h18.17c0.72,0,1.3,0.58,1.3,1.3
	S63.89,73.81,63.17,73.81z"/>
<path d="M70.96,77.7h-7.79c-0.72,0-1.3-0.58-1.3-1.3V55.64c0-0.72,0.58-1.3,1.3-1.3h7.79c0.72,0,1.3,0.58,1.3,1.3v20.77
	C72.26,77.12,71.68,77.7,70.96,77.7z M64.47,75.11h5.19V56.94h-5.19V75.11z"/>
<path d="M56.68,58.24H17.74c-0.49,0-0.94-0.28-1.16-0.71c-0.22-0.44-0.18-0.96,0.11-1.35l28.56-38.94c0.24-0.33,0.63-0.53,1.05-0.53
	h38.94c0.49,0,0.94,0.28,1.16,0.71c0.22,0.44,0.18,0.96-0.11,1.35L57.73,57.7C57.48,58.04,57.1,58.24,56.68,58.24z M20.3,55.64
	h35.72L82.67,19.3H46.95L20.3,55.64z"/>
<path d="M69.66,56.94h-5.19c-0.72,0-1.3-0.58-1.3-1.3v-9.32c0-0.72,0.58-1.3,1.3-1.3s1.3,0.58,1.3,1.3v8.02h2.6V39.23
	c0-0.72,0.58-1.3,1.3-1.3s1.3,0.58,1.3,1.3v16.41C70.96,56.36,70.38,56.94,69.66,56.94z"/>
<path d="M74.85,82.9H59.28c-0.72,0-1.3-0.58-1.3-1.3v-5.19c0-0.72,0.58-1.3,1.3-1.3h15.58c0.72,0,1.3,0.58,1.3,1.3v5.19
	C76.15,82.32,75.57,82.9,74.85,82.9z M60.58,80.3h12.98v-2.6H60.58V80.3z"/>
<path d="M80.05,86.79H54.09c-0.72,0-1.3-0.58-1.3-1.3V81.6c0-0.72,0.58-1.3,1.3-1.3h25.96c0.72,0,1.3,0.58,1.3,1.3v3.89
	C81.34,86.21,80.76,86.79,80.05,86.79z M55.38,84.19h23.36v-1.3H55.38V84.19z"/>
<path d="M30.72,58.24c-0.27,0-0.53-0.08-0.77-0.25c-0.58-0.42-0.7-1.24-0.28-1.81l28.56-38.94c0.42-0.58,1.24-0.7,1.81-0.28
	c0.58,0.42,0.7,1.24,0.28,1.81L31.77,57.71C31.51,58.05,31.12,58.24,30.72,58.24L30.72,58.24z"/>
<path d="M43.7,58.24c-0.27,0-0.53-0.08-0.77-0.25c-0.58-0.42-0.7-1.24-0.28-1.81l28.56-38.94c0.42-0.58,1.24-0.7,1.81-0.28
	c0.58,0.42,0.7,1.24,0.28,1.81L44.75,57.71C44.49,58.05,44.1,58.24,43.7,58.24L43.7,58.24z"/>
<path class="st1" d="M78.75,27.08H41.11c-0.72,0-1.3-0.58-1.3-1.3s0.58-1.3,1.3-1.3h37.64c0.72,0,1.3,0.58,1.3,1.3
	S79.47,27.08,78.75,27.08z"/>
<path class="st1" d="M73.56,34.87H35.91c-0.72,0-1.3-0.58-1.3-1.3s0.58-1.3,1.3-1.3h37.64c0.72,0,1.3,0.58,1.3,1.3
	S74.27,34.87,73.56,34.87z"/>
<path class="st1" d="M68.36,42.66H30.72c-0.72,0-1.3-0.58-1.3-1.3s0.58-1.3,1.3-1.3h37.64c0.72,0,1.3,0.58,1.3,1.3
	S69.08,42.66,68.36,42.66z"/>
<path class="st1" d="M63.17,50.45H25.53c-0.72,0-1.3-0.58-1.3-1.3s0.58-1.3,1.3-1.3h37.64c0.72,0,1.3,0.58,1.3,1.3
	S63.89,50.45,63.17,50.45z"/>
<path class="st2" d="M16.44,23.19c-3.58,0-6.49-2.91-6.49-6.49s2.91-6.49,6.49-6.49s6.49,2.91,6.49,6.49S20.02,23.19,16.44,23.19z
	 M16.44,12.81c-2.15,0-3.89,1.75-3.89,3.89s1.75,3.89,3.89,3.89s3.89-1.75,3.89-3.89S18.59,12.81,16.44,12.81z"/>
<path class="st3" d="M16.44,33.96c-0.72,0-1.3-0.58-1.3-1.3v-6.23c0-0.72,0.58-1.3,1.3-1.3c0.72,0,1.3,0.58,1.3,1.3v6.23
	C17.74,33.38,17.16,33.96,16.44,33.96z"/>
<path class="st3" d="M16.44,8.26c-0.72,0-1.3-0.58-1.3-1.3V5.02c0-0.72,0.58-1.3,1.3-1.3c0.72,0,1.3,0.58,1.3,1.3v1.95
	C17.74,7.68,17.16,8.26,16.44,8.26z"/>
<path class="st3" d="M6.71,18H4.76c-0.72,0-1.3-0.58-1.3-1.3s0.58-1.3,1.3-1.3h1.95c0.72,0,1.3,0.58,1.3,1.3S7.43,18,6.71,18z"/>
<path class="st3" d="M32.93,18h-6.75c-0.72,0-1.3-0.58-1.3-1.3s0.58-1.3,1.3-1.3h6.75c0.72,0,1.3,0.58,1.3,1.3S33.65,18,32.93,18z"
	/>
<path class="st3" d="M28.83,30.11c-0.33,0-0.66-0.13-0.92-0.38l-5.51-5.23c-0.51-0.51-0.51-1.33,0-1.84c0.51-0.51,1.33-0.51,1.84,0
	l5.51,5.23c0.51,0.51,0.51,1.33,0,1.84C29.5,29.99,29.17,30.11,28.83,30.11z"/>
<path class="st3" d="M9.56,11.11c-0.33,0-0.66-0.13-0.92-0.38L7.26,9.36c-0.51-0.51-0.51-1.33,0-1.84s1.33-0.51,1.84,0l1.38,1.38
	c0.51,0.51,0.51,1.33,0,1.84C10.22,10.99,9.89,11.11,9.56,11.11z"/>
<path class="st3" d="M8.18,26.26c-0.33,0-0.66-0.13-0.92-0.38c-0.51-0.51-0.51-1.33,0-1.84l1.38-1.38c0.51-0.51,1.33-0.51,1.84,0
	c0.51,0.51,0.51,1.33,0,1.84L9.1,25.88C8.85,26.13,8.52,26.26,8.18,26.26L8.18,26.26z"/>
<path class="st3" d="M23.33,11.11c-0.33,0-0.66-0.13-0.92-0.38c-0.51-0.51-0.51-1.33,0-1.84l1.38-1.38c0.51-0.51,1.33-0.51,1.84,0
	s0.51,1.33,0,1.84l-1.38,1.38C23.99,10.99,23.66,11.11,23.33,11.11z"/>
</svg>
