<svg width="200" height="191" viewBox="0 0 200 191" fill="none" xmlns="http://www.w3.org/2000/svg">
<path d="M100 153.012H87.2222C86.0444 153.012 85.0889 152.1 85.0889 150.975C85.0889 149.85 86.0444 148.938 87.2222 148.938H100C101.178 148.938 102.133 149.85 102.133 150.975C102.133 152.1 101.178 153.012 100 153.012Z" fill="#C22032"/>
<path d="M80.8223 161.14H33.9556C32.7778 161.14 31.8223 160.228 31.8223 159.103V130.623C31.8223 129.498 32.7778 128.585 33.9556 128.585H80.8223C82 128.585 82.9556 129.498 82.9556 130.623V159.103C82.9556 160.228 82 161.14 80.8223 161.14ZM36.0889 157.087H78.6889V132.681H36.0889V157.087Z" fill="black"/>
<path d="M46.7335 132.66H40.3335C39.1557 132.66 38.2002 131.747 38.2002 130.623V124.511C38.2002 123.386 39.1557 122.473 40.3335 122.473H46.7335C47.9113 122.473 48.8669 123.386 48.8669 124.511V130.623C48.8669 131.747 47.9113 132.66 46.7335 132.66ZM42.4669 128.585H44.6002V126.548H42.4669V128.585Z" fill="black"/>
<path d="M74.4445 132.66H68.0445C66.8667 132.66 65.9111 131.747 65.9111 130.623V124.511C65.9111 123.386 66.8667 122.473 68.0445 122.473H74.4445C75.6222 122.473 76.5778 123.386 76.5778 124.511V130.623C76.5556 131.747 75.6222 132.66 74.4445 132.66ZM70.1778 128.585H72.3111V126.548H70.1778V128.585Z" fill="black"/>
<path d="M55.2671 146.9C55.0449 146.9 54.8226 146.858 54.6004 146.794C53.4893 146.433 52.8893 145.287 53.2449 144.226L55.3782 138.114C55.756 137.053 56.956 136.48 58.0671 136.82C59.1782 137.18 59.7782 138.326 59.4226 139.387L57.2893 145.499C56.9782 146.37 56.156 146.9 55.2671 146.9Z" fill="#C22032"/>
<path d="M59.5113 146.9H55.2447C54.0669 146.9 53.1113 145.988 53.1113 144.863C53.1113 143.738 54.0669 142.826 55.2447 142.826H59.5113C60.6891 142.826 61.6447 143.738 61.6447 144.863C61.6447 145.988 60.6891 146.9 59.5113 146.9Z" fill="#C22032"/>
<path d="M55.2668 153.012C54.8668 153.012 54.4445 152.906 54.089 152.673C53.1112 152.057 52.8445 150.784 53.489 149.85L57.7556 143.738C58.4001 142.804 59.7334 142.55 60.7112 143.165C61.689 143.78 61.9556 145.054 61.3112 145.988L57.0445 152.1C56.6223 152.694 55.9556 153.012 55.2668 153.012Z" fill="#C22032"/>
<path d="M40.355 155.05C39.1772 155.05 38.2217 154.137 38.2217 153.012V136.735C38.2217 135.61 39.1772 134.698 40.355 134.698C41.5328 134.698 42.4883 135.61 42.4883 136.735V153.012C42.4661 154.137 41.5328 155.05 40.355 155.05Z" fill="#C22032"/>
<path d="M74.4439 155.05C73.2661 155.05 72.3105 154.137 72.3105 153.012V136.735C72.3105 135.61 73.2661 134.698 74.4439 134.698C75.6217 134.698 76.5772 135.61 76.5772 136.735V153.012C76.555 154.137 75.6217 155.05 74.4439 155.05Z" fill="#C22032"/>
<path d="M87.2228 159.103H80.8228C79.645 159.103 78.6895 158.191 78.6895 157.066V146.9C78.6895 145.776 79.645 144.863 80.8228 144.863H87.2228C88.4006 144.863 89.3561 145.776 89.3561 146.9V157.066C89.3561 158.212 88.4006 159.103 87.2228 159.103ZM82.9561 155.05H85.0895V148.938H82.9561V155.05Z" fill="black"/>
<path d="M100.001 153.012C98.8227 153.012 97.8672 152.1 97.8672 150.975V138.772C97.8672 137.647 98.8227 136.735 100.001 136.735C101.178 136.735 102.134 137.647 102.134 138.772V150.975C102.134 152.1 101.178 153.012 100.001 153.012Z" fill="#C22032"/>
<path d="M129.823 140.809H100.001C98.8227 140.809 97.8672 139.897 97.8672 138.772C97.8672 137.647 98.8227 136.735 100.001 136.735H129.823C131.001 136.735 131.956 137.647 131.956 138.772C131.956 139.897 131.001 140.809 129.823 140.809Z" fill="#C22032"/>
<path d="M142.601 146.9H129.823C128.645 146.9 127.689 145.988 127.689 144.863V112.308C127.689 111.183 128.645 110.271 129.823 110.271H142.601C143.778 110.271 144.734 111.183 144.734 112.308V144.863C144.734 145.988 143.778 146.9 142.601 146.9ZM131.956 142.847H140.467V114.345H131.956V142.847Z" fill="black"/>
<path d="M119.177 116.383H55.2663C54.4663 116.383 53.7329 115.958 53.3552 115.258C52.9996 114.579 53.0663 113.751 53.5329 113.136L100.4 52.1005C100.8 51.5699 101.444 51.2728 102.111 51.2728H166.022C166.822 51.2728 167.555 51.6973 167.933 52.3976C168.288 53.0767 168.222 53.9044 167.755 54.5198L120.888 115.555C120.488 116.085 119.844 116.383 119.177 116.383ZM59.4663 112.308H118.088L161.822 55.3475H103.2L59.4663 112.308Z" fill="black"/>
<path d="M140.467 114.345H131.956C130.778 114.345 129.822 113.433 129.822 112.308V97.7071C129.822 96.5823 130.778 95.6698 131.956 95.6698C133.133 95.6698 134.089 96.5823 134.089 97.7071V110.271H138.356V86.6079C138.356 85.4831 139.311 84.5706 140.489 84.5706C141.667 84.5706 142.622 85.4831 142.622 86.6079V112.329C142.6 113.433 141.667 114.345 140.467 114.345Z" fill="black"/>
<path d="M148.999 155.05H123.444C122.266 155.05 121.311 154.137 121.311 153.012V144.884C121.311 143.759 122.266 142.847 123.444 142.847H148.999C150.177 142.847 151.133 143.759 151.133 144.884V153.012C151.133 154.137 150.177 155.05 148.999 155.05ZM125.555 150.975H146.866V146.9H125.555V150.975Z" fill="black"/>
<path d="M157.511 161.14H114.911C113.733 161.14 112.777 160.228 112.777 159.103V153.012C112.777 151.887 113.733 150.975 114.911 150.975H157.511C158.688 150.975 159.644 151.887 159.644 153.012V159.124C159.644 160.228 158.688 161.14 157.511 161.14ZM117.044 157.087H155.4V155.05H117.044V157.087Z" fill="black"/>
<path d="M76.555 116.383C76.1105 116.383 75.6883 116.255 75.2883 115.979C74.3327 115.322 74.1327 114.048 74.8216 113.136L121.688 52.1006C122.377 51.188 123.711 50.997 124.666 51.6549C125.622 52.3128 125.822 53.5861 125.133 54.4987L78.2883 115.555C77.8661 116.107 77.2216 116.383 76.555 116.383Z" fill="black"/>
<path d="M97.8665 116.383C97.422 116.383 96.9998 116.255 96.5998 115.979C95.6443 115.322 95.4443 114.048 96.1331 113.136L143 52.1006C143.689 51.188 145.022 50.997 145.978 51.6549C146.933 52.3128 147.133 53.5861 146.444 54.4987L99.5776 115.555C99.1776 116.107 98.5109 116.383 97.8665 116.383Z" fill="black"/>
<path d="M155.399 67.5504H93.6216C92.4438 67.5504 91.4883 66.6378 91.4883 65.513C91.4883 64.3883 92.4438 63.4757 93.6216 63.4757H155.399C156.577 63.4757 157.533 64.3883 157.533 65.513C157.511 66.6378 156.577 67.5504 155.399 67.5504Z" fill="#CCCBCA"/>
<path d="M146.866 79.7744H85.0884C83.9106 79.7744 82.9551 78.8618 82.9551 77.737C82.9551 76.6123 83.9106 75.6997 85.0884 75.6997H146.866C148.044 75.6997 149 76.6123 149 77.737C149 78.8618 148.044 79.7744 146.866 79.7744Z" fill="#CCCBCA"/>
<path d="M138.355 91.977H76.5777C75.3999 91.977 74.4443 91.0645 74.4443 89.9397C74.4443 88.8149 75.3999 87.9023 76.5777 87.9023H138.355C139.533 87.9023 140.489 88.8149 140.489 89.9397C140.467 91.0645 139.533 91.977 138.355 91.977Z" fill="#CCCBCA"/>
<path d="M129.822 104.18H68.0445C66.8667 104.18 65.9111 103.267 65.9111 102.143C65.9111 101.018 66.8667 100.105 68.0445 100.105H129.822C131 100.105 131.956 101.018 131.956 102.143C131.956 103.267 131 104.18 129.822 104.18Z" fill="#CCCBCA"/>
<path d="M53.1337 61.4594C47.267 61.4594 42.4893 56.8967 42.4893 51.294C42.4893 45.6913 47.267 41.1285 53.1337 41.1285C59.0004 41.1285 63.7781 45.6913 63.7781 51.294C63.7781 56.8967 59.0004 61.4594 53.1337 61.4594ZM53.1337 45.182C49.6004 45.182 46.7337 47.9197 46.7337 51.294C46.7337 54.6683 49.6004 57.406 53.1337 57.406C56.667 57.406 59.5337 54.6683 59.5337 51.294C59.5115 47.9197 56.6448 45.182 53.1337 45.182Z" fill="#EEA416"/>
<path d="M53.1324 78.3312C51.9546 78.3312 50.999 77.4186 50.999 76.2938V66.5316C50.999 65.4068 51.9546 64.4943 53.1324 64.4943C54.3101 64.4943 55.2657 65.4068 55.2657 66.5316V76.2938C55.2657 77.4398 54.3101 78.3312 53.1324 78.3312Z" fill="#E6F300"/>
<path d="M53.1324 38.0514C51.9546 38.0514 50.999 37.1389 50.999 36.0141V32.9581C50.999 31.8333 51.9546 30.9208 53.1324 30.9208C54.3101 30.9208 55.2657 31.8333 55.2657 32.9581V36.0141C55.2657 37.1389 54.3101 38.0514 53.1324 38.0514Z" fill="#E6F300"/>
<path d="M37.1556 53.3103H33.9556C32.7778 53.3103 31.8223 52.3977 31.8223 51.2729C31.8223 50.1481 32.7778 49.2356 33.9556 49.2356H37.1556C38.3334 49.2356 39.2889 50.1481 39.2889 51.2729C39.2889 52.3977 38.3334 53.3103 37.1556 53.3103Z" fill="#E6F300"/>
<path d="M80.1775 53.3103H69.1109C67.9331 53.3103 66.9775 52.3977 66.9775 51.2729C66.9775 50.1481 67.9331 49.2356 69.1109 49.2356H80.1998C81.3775 49.2356 82.3331 50.1481 82.3331 51.2729C82.3109 52.3977 81.3553 53.3103 80.1775 53.3103Z" fill="#E6F300"/>
<path d="M73.4671 72.3042C72.9116 72.3042 72.3783 72.1132 71.956 71.7099L62.9116 63.5182C62.0894 62.7329 62.0894 61.4384 62.9116 60.6319C63.7338 59.8255 65.0894 59.8467 65.9338 60.6319L74.9783 68.8237C75.8005 69.6089 75.8005 70.9035 74.9783 71.7099C74.556 72.1132 74.0005 72.3042 73.4671 72.3042Z" fill="#E6F300"/>
<path d="M41.8222 42.5294C41.2666 42.5294 40.7333 42.3384 40.3111 41.9352L38.0444 39.7706C37.2222 38.9853 37.2222 37.6908 38.0444 36.8843C38.8666 36.0991 40.2222 36.0991 41.0666 36.8843L43.3333 39.049C44.1555 39.8342 44.1555 41.1288 43.3333 41.9352C42.9111 42.3172 42.3777 42.5294 41.8222 42.5294Z" fill="#E6F300"/>
<path d="M39.578 66.2556C39.0224 66.2556 38.4891 66.0646 38.0669 65.6614C37.2446 64.8762 37.2446 63.5816 38.0669 62.7752L40.3335 60.6105C41.1558 59.8253 42.5113 59.8253 43.3558 60.6105C44.178 61.3957 44.178 62.6903 43.3558 63.4967L41.0891 65.6614C40.6669 66.0646 40.1113 66.2556 39.578 66.2556Z" fill="#E6F300"/>
<path d="M64.4227 42.5294C63.8671 42.5294 63.3338 42.3384 62.9116 41.9352C62.0894 41.15 62.0894 39.8554 62.9116 39.049L65.1783 36.8843C66.0005 36.0991 67.356 36.0991 68.2005 36.8843C69.0227 37.6695 69.0227 38.9641 68.2005 39.7706L65.9338 41.9352C65.5116 42.3172 64.9783 42.5294 64.4227 42.5294Z" fill="#E6F300"/>
</svg>
