<svg width="62" height="52" viewBox="0 0 62 52" fill="none" xmlns="http://www.w3.org/2000/svg">
<mask id="mask0_180_8617" style="mask-type:luminance" maskUnits="userSpaceOnUse" x="0" y="31" width="7" height="21">
<path d="M0.21582 31.679H6.10589V51.1128H0.21582V31.679Z" fill="white"/>
</mask>
<g mask="url(#mask0_180_8617)">
<path d="M0.224609 33.7971V49.7881C0.224609 50.5813 0.756236 51.1045 1.55789 51.1045H4.23289C5.04299 51.1045 5.57461 50.5813 5.57461 49.7881V34.1937C3.03463 34.0672 1.43132 33.9321 1.16128 33.7971H0.224609Z" fill="#7BADAA"/>
</g>
<mask id="mask1_180_8617" style="mask-type:luminance" maskUnits="userSpaceOnUse" x="0" y="0" width="7" height="6">
<path d="M0.21582 0.887207H6.10589V5.75622H0.21582V0.887207Z" fill="white"/>
</mask>
<g mask="url(#mask1_180_8617)">
<path d="M5.57461 3.79849V2.21205C5.57461 1.41883 5.04299 0.887207 4.23289 0.887207H1.55789C0.756236 0.887207 0.224609 1.41883 0.224609 2.21205V3.40188L1.82792 3.52845C2.09795 3.53689 3.43124 3.67191 5.57461 3.79849Z" fill="#7BADAA"/>
</g>
<mask id="mask2_180_8617" style="mask-type:luminance" maskUnits="userSpaceOnUse" x="55" y="0" width="7" height="6">
<path d="M55.792 0.887207H61.7833V5.75622H55.792V0.887207Z" fill="white"/>
</mask>
<g mask="url(#mask2_180_8617)">
<path d="M60.4493 0.887207H57.7659C56.9642 0.887207 56.4326 1.41883 56.4326 2.21205V3.79849C58.5676 3.67191 59.9093 3.53689 60.0359 3.53689L61.7742 3.41031V2.21205C61.7826 1.41883 61.251 0.887207 60.4493 0.887207Z" fill="#7BADAA"/>
</g>
<mask id="mask3_180_8617" style="mask-type:luminance" maskUnits="userSpaceOnUse" x="55" y="31" width="7" height="21">
<path d="M55.792 31.679H61.7833V51.1128H55.792V31.679Z" fill="white"/>
</mask>
<g mask="url(#mask3_180_8617)">
<path d="M56.4326 34.1938V49.7882C56.4326 50.5814 56.9642 51.113 57.7659 51.113H60.4493C61.251 51.113 61.7826 50.5814 61.7826 49.7882V33.8057L60.7109 33.9322C60.5759 33.9322 58.9726 34.0588 56.4326 34.1938Z" fill="#7BADAA"/>
</g>
<path d="M29.126 19.3927H30.1977L29.666 18.3379L29.126 19.3927Z" fill="#7BADAA"/>
<path d="M39.0322 16.7515H41.7072V18.0679H39.0322V16.7515Z" fill="#7BADAA"/>
<mask id="mask4_180_8617" style="mask-type:luminance" maskUnits="userSpaceOnUse" x="0" y="5" width="62" height="29">
<path d="M0.21582 5.7561H61.783V33.8394H0.21582V5.7561Z" fill="white"/>
</mask>
<g mask="url(#mask4_180_8617)">
<path d="M30.9998 7.50283C17.8864 7.50283 1.82792 6.17798 1.69291 6.17798L0.224609 6.05141V31.1559L1.42288 31.2825C1.55789 31.2825 16.4181 32.6073 30.9998 32.6073C44.2566 32.6073 60.4501 31.2825 60.5767 31.2825L61.7834 31.1559V6.04297L60.3151 6.16955C60.1801 6.17799 44.1216 7.50283 30.9998 7.50283ZM12.2663 18.0678C13.068 18.0678 13.6081 18.5994 13.6081 19.3927V23.3588C13.6081 24.152 13.068 24.6836 12.2663 24.6836H8.24962C7.44796 24.6836 6.91633 24.152 6.91633 23.3588C6.91633 22.5655 7.44796 22.0339 8.24962 22.0339H10.9246V20.7175H8.24962C7.44796 20.7175 6.91633 20.1859 6.91633 19.3927V15.4266C6.91633 14.6334 7.44796 14.1102 8.24962 14.1102H12.2663C13.068 14.1102 13.6081 14.6334 13.6081 15.4266C13.6081 16.2198 13.068 16.7514 12.2663 16.7514H9.59133V18.0678H12.2663ZM22.9748 16.7514H20.9664V23.3588C20.9664 24.152 20.4264 24.6752 19.6247 24.6752C18.823 24.6752 18.283 24.152 18.283 23.3588V16.7514H16.2831C15.4814 16.7514 14.9413 16.2198 14.9413 15.4266C14.9413 14.6334 15.4814 14.1017 16.2831 14.1017H22.9748C23.7764 14.1017 24.3081 14.6334 24.3081 15.4266C24.3081 16.2198 23.7764 16.7514 22.9748 16.7514ZM34.2148 24.5486C34.0883 24.6752 33.8182 24.6752 33.6832 24.6752C33.1432 24.6752 32.7466 24.4136 32.4765 23.8819L31.5398 22.0339H27.7932L26.8565 23.8819C26.5865 24.5401 25.7848 24.8017 25.1182 24.4136C24.4431 24.1435 24.1815 23.3503 24.5781 22.6921L28.5948 14.7599C28.9999 13.8401 30.6032 13.8401 30.9998 14.7599L35.0165 22.7006C35.0925 23.0634 35.0503 23.4094 34.9068 23.7469C34.7634 24.0845 34.5271 24.3545 34.2148 24.5486ZM44.3832 19.3927C44.3832 20.1859 43.8516 20.7175 43.0499 20.7175H41.7082L43.8516 22.3039C44.3832 22.7006 44.5182 23.6203 44.1216 24.152C43.86 24.5233 43.5056 24.7005 43.0499 24.6752C42.7799 24.6752 42.5099 24.5486 42.2483 24.4136L39.0332 22.0339V23.3588C39.0332 24.152 38.4932 24.6836 37.6915 24.6836C36.8898 24.6836 36.3582 24.152 36.3582 23.3588V15.4266C36.3582 14.6334 36.8898 14.1102 37.6915 14.1102H43.0499C43.8516 14.1102 44.3832 14.6334 44.3832 15.4266V19.3927ZM53.7584 16.7514H51.75V23.3588C51.75 24.152 51.21 24.6836 50.4083 24.6836C49.6067 24.6836 49.0666 24.152 49.0666 23.3588V16.7514H47.0667C46.2566 16.7514 45.7249 16.2198 45.7249 15.4266C45.7249 14.6334 46.2566 14.1017 47.0667 14.1017H53.7584C54.56 14.1017 55.0917 14.6334 55.0917 15.4266C55.0917 16.2198 54.56 16.7514 53.7584 16.7514Z" fill="#7BADAA"/>
</g>
</svg>
