<svg width="60" height="60" viewBox="0 0 60 60" fill="none" xmlns="http://www.w3.org/2000/svg">
<mask id="mask0_180_8668" style="mask-type:luminance" maskUnits="userSpaceOnUse" x="20" y="0" width="21" height="19">
<path d="M20.4863 0H40.0419V18.7083H20.4863V0Z" fill="white"/>
</mask>
<g mask="url(#mask0_180_8668)">
<path d="M23.7158 15.2083L23.7644 15.2569C25.3547 16.8471 27.563 17.8333 30.0005 17.8333C32.438 17.8333 34.6394 16.8471 36.2297 15.2569L36.2783 15.2083L36.3269 15.1596C37.9172 13.5694 38.9033 11.361 38.9033 8.92353C38.9033 6.48603 37.9172 4.28464 36.3269 2.69436L36.2783 2.64575L36.2297 2.59714C34.6394 1.00686 32.438 0.020752 30.0005 0.020752C27.563 0.020752 25.3547 1.00686 23.7644 2.59714L23.7158 2.64575L23.6672 2.69436C22.0769 4.28464 21.0908 6.48603 21.0908 8.92353C21.0908 11.361 22.0769 13.5694 23.6672 15.1596C23.6672 15.1596 23.6672 15.2083 23.7158 15.2083ZM23.9033 7.98603H23.0144C23.2019 6.77075 23.6672 5.59714 24.3755 4.65964L24.9797 5.27075C25.1672 5.45825 25.4033 5.54853 25.6394 5.54853C25.8755 5.54853 26.1047 5.45825 26.2922 5.27075C26.6672 4.89575 26.6672 4.33325 26.2922 3.95825L25.688 3.34714C26.6255 2.64575 27.7505 2.13186 29.0144 1.98603V2.83325C29.0144 3.34714 29.438 3.77075 29.9519 3.77075C30.4658 3.77075 30.8894 3.34714 30.8894 2.83325V1.94436C32.1047 2.13186 33.2783 2.59714 34.2158 3.29853L33.6047 3.90964C33.2297 4.28464 33.2297 4.84714 33.6047 5.22214C33.7922 5.40964 34.0283 5.50686 34.2644 5.50686C34.5005 5.50686 34.7297 5.40964 34.9172 5.22214L35.5283 4.61103C36.2297 5.54853 36.7505 6.67353 36.8894 7.94436H36.0908C35.5769 7.94436 35.1533 8.36103 35.1533 8.88186C35.1533 9.39575 35.5769 9.81936 36.0908 9.81936H36.9797C36.7922 11.0346 36.3269 12.2083 35.6255 13.1458L35.0144 12.5346C34.6394 12.1596 34.0769 12.1596 33.7019 12.5346C33.3269 12.9096 33.3269 13.4721 33.7019 13.8471L34.313 14.4583C33.3755 15.1596 32.2505 15.6735 30.9797 15.8194V15.0208C30.9797 14.5069 30.563 14.0833 30.0422 14.0833C29.5283 14.0833 29.1047 14.5069 29.1047 15.0208V15.9096C27.8894 15.7221 26.7158 15.2569 25.7783 14.5485L26.3894 13.9444C26.7644 13.5694 26.7644 13.0069 26.3894 12.6319C26.0144 12.2569 25.4519 12.2569 25.0769 12.6319L24.4658 13.236C23.7644 12.2985 23.2505 11.1735 23.1047 9.90964H23.9033C24.4172 9.90964 24.8408 9.48603 24.8408 8.97214C24.8408 8.45825 24.4172 7.98603 23.9033 7.98603Z" fill="#7BADAA"/>
</g>
<path d="M27.6523 9.86133H29.9996C30.5135 9.86133 30.9371 9.44466 30.9371 8.92383V6.11133C30.9371 5.59744 30.5135 5.17383 29.9996 5.17383C29.4787 5.17383 29.0621 5.59744 29.0621 6.11133V7.98633H27.6523C27.1385 7.98633 26.7148 8.40994 26.7148 8.92383C26.7148 9.44466 27.1385 9.86133 27.6523 9.86133Z" fill="#7BADAA"/>
<mask id="mask1_180_8668" style="mask-type:luminance" maskUnits="userSpaceOnUse" x="0" y="18" width="23" height="24">
<path d="M0 18.7085H22.2639V41.8196H0V18.7085Z" fill="white"/>
</mask>
<g mask="url(#mask1_180_8668)">
<path d="M1.3125 33.2571C1.5 33.8196 1.72917 34.3821 2.01389 34.9446C1.72917 35.7362 1.875 36.6737 2.52778 37.2849L3.5625 38.3196C3.97917 38.7362 4.54167 38.9724 5.15278 38.9724C5.4375 38.9724 5.66667 38.9237 5.95139 38.8335C6.46528 39.1112 7.02778 39.3474 7.63889 39.5349C8.01389 40.2849 8.76389 40.8474 9.65278 40.8474H11.1042C12 40.8474 12.7917 40.3335 13.125 39.5349C13.6875 39.3474 14.25 39.1112 14.8125 38.8335C15.0417 38.9237 15.3264 38.9724 15.6042 38.9724C16.2153 38.9724 16.7778 38.7362 17.2014 38.3196L18.2292 37.2849C18.8889 36.6321 19.0278 35.7362 18.75 34.9446C19.0278 34.4237 19.2639 33.8612 19.4514 33.2571C20.2014 32.8821 20.7639 32.1321 20.7639 31.2362V29.7849C20.7639 28.896 20.25 28.0974 19.4514 27.771C19.2639 27.2085 19.0278 26.646 18.75 26.0835C18.8403 25.8474 18.8889 25.5696 18.8889 25.2849C18.8889 24.6737 18.6528 24.1112 18.2292 23.6946L17.2014 22.6599C16.7778 22.2362 16.2153 22.0071 15.6042 22.0071C15.3264 22.0071 15.0903 22.0487 14.8125 22.146C14.2917 21.8612 13.7292 21.6321 13.125 21.4446C12.75 20.6946 12 20.1321 11.1042 20.1321H9.65278C8.76389 20.1321 7.96528 20.646 7.63889 21.4446C7.07639 21.6321 6.51389 21.8612 5.95139 22.146C5.625 22.0974 5.38889 22.0487 5.10417 22.0487C4.5 22.0487 3.9375 22.2849 3.51389 22.7085L2.47917 23.7362C2.10417 24.1112 1.875 24.6737 1.875 25.2849C1.875 25.5696 1.91667 25.7987 2.01389 26.0835C1.72917 26.5974 1.5 27.1599 1.3125 27.771C0.51389 28.0974 0 28.8474 0 29.7849V31.2362C0 32.1321 0.51389 32.8821 1.3125 33.2571ZM1.875 29.7849C1.875 29.5974 2.01389 29.4099 2.25 29.4099H2.85417C3.04167 28.146 3.5625 26.9724 4.26389 25.9862L3.84028 25.5696C3.70139 25.4237 3.70139 25.1946 3.84028 25.0487L4.875 24.021C4.91667 23.9724 5.01389 23.9237 5.10417 23.9237C5.20139 23.9237 5.29167 23.9724 5.34028 24.021L5.76389 24.4446C6.75 23.6946 7.91667 23.2224 9.1875 23.0349V22.4237C9.1875 22.2362 9.32639 22.0487 9.5625 22.0487H11.0139C11.2014 22.0487 11.3889 22.1946 11.3889 22.4237V23.0349C12.6528 23.2224 13.8264 23.7362 14.8125 24.4446L15.2292 24.021C15.2778 23.9724 15.375 23.9237 15.4653 23.9237C15.5625 23.9237 15.6528 23.9724 15.7014 24.021L16.7292 25.0487C16.875 25.1946 16.875 25.4237 16.7292 25.5696L16.3125 25.9862C17.0625 26.9724 17.5278 28.146 17.7153 29.4099H18.3264C18.5139 29.4099 18.7014 29.5487 18.7014 29.7849V31.2362C18.7014 31.4237 18.5625 31.6112 18.3264 31.6112H17.7153C17.5278 32.8821 17.0139 34.0487 16.3125 35.0349L16.7292 35.4585C16.875 35.5974 16.875 35.8335 16.7292 35.9724L15.7014 37.0071C15.7014 37.0487 15.6042 37.0487 15.5139 37.0487C15.4167 37.0487 15.3264 37.0071 15.2778 36.9585L14.8542 36.5349C13.875 37.2849 12.7014 37.7571 11.4375 37.9446V38.5487C11.4375 38.7362 11.2917 38.9237 11.0625 38.9237H9.60417C9.41667 38.9237 9.22917 38.7849 9.22917 38.5487V37.9446C7.96528 37.7571 6.79167 37.2362 5.8125 36.5349L5.38889 36.9585C5.29167 37.0487 5.20139 37.0487 5.10417 37.0487C5.01389 37.0487 4.91667 37.0071 4.875 36.9585L3.84028 35.9237C3.70139 35.7849 3.70139 35.5487 3.84028 35.4099L4.26389 34.9862C3.51389 34.0071 3.04167 32.8335 2.85417 31.5696H2.25C2.01389 31.5696 1.875 31.4237 1.875 31.1946V29.7849Z" fill="#7BADAA"/>
</g>
<path d="M10.3125 36.1113C13.4028 36.1113 15.9375 33.5836 15.9375 30.4863C15.9375 27.3961 13.4028 24.8613 10.3125 24.8613C7.21528 24.8613 4.6875 27.3961 4.6875 30.4863C4.6875 33.5836 7.21528 36.1113 10.3125 36.1113ZM10.3125 26.7363C12.375 26.7363 14.0625 28.4238 14.0625 30.4863C14.0625 32.5488 12.375 34.2363 10.3125 34.2363C8.25 34.2363 6.5625 32.5488 6.5625 30.4863C6.5625 28.4238 8.25 26.7363 10.3125 26.7363Z" fill="#7BADAA"/>
<path d="M48.326 17.8337H50.5273C48.1871 13.9448 44.8121 10.7573 40.7287 8.69482C40.7287 8.7851 40.7287 8.83371 40.7287 8.92399C40.7287 9.5351 40.6871 10.1462 40.5898 10.7087C43.7287 12.4448 46.4023 14.8823 48.326 17.8337Z" fill="#7BADAA"/>
<mask id="mask2_180_8668" style="mask-type:luminance" maskUnits="userSpaceOnUse" x="40" y="18" width="20" height="24">
<path d="M40.041 18.7085H59.9993V41.8196H40.041V18.7085Z" fill="white"/>
</mask>
<g mask="url(#mask2_180_8668)">
<path d="M57.1865 21.5835H55.2629C55.0268 20.5071 54.0893 19.7085 52.9643 19.7085H48.2768C47.1518 19.7085 46.2143 20.5071 45.9782 21.5835H44.0615C42.5129 21.5835 41.249 22.8474 41.249 24.396V38.4585C41.249 40.0071 42.5129 41.271 44.0615 41.271H57.1865C58.7282 41.271 59.999 40.0071 59.999 38.4585V24.396C59.999 22.8474 58.7282 21.5835 57.1865 21.5835ZM47.8115 22.0488C47.8115 21.771 47.999 21.5835 48.2768 21.5835H52.9643C53.249 21.5835 53.4365 21.771 53.4365 22.0488V22.9863C53.4365 23.271 53.249 23.4585 52.9643 23.4585H48.2768C47.999 23.4585 47.8115 23.271 47.8115 22.9863V22.0488ZM58.124 38.4585C58.124 38.9724 57.7004 39.396 57.1865 39.396H44.0615C43.5407 39.396 43.124 38.9724 43.124 38.4585V24.396C43.124 23.8821 43.5407 23.4585 44.0615 23.4585H45.9782C46.2143 24.5349 47.1518 25.3335 48.2768 25.3335H52.9643C54.0893 25.3335 55.0268 24.5349 55.2629 23.4585H57.1865C57.7004 23.4585 58.124 23.8821 58.124 24.396V38.4585Z" fill="#7BADAA"/>
</g>
<path d="M54.375 27.2085H46.875C46.3542 27.2085 45.9375 27.6321 45.9375 28.146C45.9375 28.6599 46.3542 29.0835 46.875 29.0835H54.375C54.8889 29.0835 55.3125 28.6599 55.3125 28.146C55.3125 27.6321 54.8889 27.2085 54.375 27.2085Z" fill="#7BADAA"/>
<path d="M54.375 30.9585H46.875C46.3542 30.9585 45.9375 31.3821 45.9375 31.896C45.9375 32.4099 46.3542 32.8335 46.875 32.8335H54.375C54.8889 32.8335 55.3125 32.4099 55.3125 31.896C55.3125 31.3821 54.8889 30.9585 54.375 30.9585Z" fill="#7BADAA"/>
<path d="M54.375 34.7085H46.875C46.3542 34.7085 45.9375 35.1321 45.9375 35.646C45.9375 36.1599 46.3542 36.5835 46.875 36.5835H54.375C54.8889 36.5835 55.3125 36.1599 55.3125 35.646C55.3125 35.1321 54.8889 34.7085 54.375 34.7085Z" fill="#7BADAA"/>
<path d="M11.0137 18.299C11.1039 18.299 11.2012 18.299 11.2914 18.299C13.2637 15.1601 16.0276 12.5351 19.3123 10.7087C19.2637 10.1462 19.2151 9.5351 19.2151 8.92399C19.2151 8.83371 19.2151 8.7851 19.2151 8.69482C14.9998 10.8476 11.4789 14.2226 9.13867 18.3476C9.27756 18.3476 9.41645 18.299 9.56228 18.299H11.0137Z" fill="#7BADAA"/>
<mask id="mask3_180_8668" style="mask-type:luminance" maskUnits="userSpaceOnUse" x="8" y="24" width="43" height="37">
<path d="M8.04102 24.042H50.7077V60.0003H8.04102V24.042Z" fill="white"/>
</mask>
<g mask="url(#mask3_180_8668)">
<path d="M49.9651 43.1462H47.7151C46.2151 45.2087 44.3401 46.9449 42.1873 48.3962C40.8748 47.8337 39.5137 47.2226 38.4789 46.799C37.8748 46.5212 37.4026 46.3337 37.0762 46.1949L36.2776 43.6115C38.2012 41.174 39.3748 37.7574 39.3748 34.6115C39.3748 28.9865 35.3887 24.3962 30.4651 24.3962C25.5415 24.3962 21.5623 28.9865 21.5623 34.6115C21.5623 37.7574 22.729 41.174 24.6526 43.6115L23.8539 46.1462C23.5762 46.2851 23.0623 46.4726 22.4512 46.7574C21.2776 47.2712 19.6873 47.9726 18.1873 48.5837C15.7012 46.9865 13.5414 44.9726 11.9026 42.5351C11.6248 42.5837 11.3401 42.6324 11.0137 42.6324H9.70117C11.3887 45.299 13.5414 47.5976 16.1248 49.424C14.9998 49.8962 14.1526 50.2712 14.0137 50.3199C13.729 50.4101 13.4998 50.6462 13.4512 50.924L11.2498 58.7574C11.1526 59.0351 11.2498 59.3615 11.3887 59.5976C11.5276 59.8337 11.854 59.9726 12.1387 59.9726H48.7012C48.9789 59.9726 49.2637 59.8337 49.4512 59.5976C49.6387 59.3615 49.6873 59.0837 49.5901 58.7574L47.3887 50.924C47.2915 50.6462 47.1039 50.4101 46.8262 50.3199C46.6873 50.2712 45.5623 49.799 44.1526 49.1462C46.4512 47.549 48.4165 45.4865 49.9651 43.1462ZM23.4373 34.6115C23.4373 30.0212 26.5762 26.2712 30.4651 26.2712C34.3539 26.2712 37.4998 30.0212 37.4998 34.6115C37.4998 39.2087 34.3539 45.0212 30.4651 45.0212C26.5762 45.0212 23.4373 39.2574 23.4373 34.6115ZM45.7498 51.9587L47.4789 58.1462H13.4026L15.1387 51.9587C15.979 51.5837 18.0414 50.7365 23.1526 48.4865C25.0276 47.6949 25.0276 47.6462 25.1664 47.5976C25.3123 47.4587 25.4512 47.3199 25.4998 47.1324L26.1039 45.1601C27.3748 46.2365 28.8748 46.8962 30.4164 46.8962C31.9651 46.8962 33.4651 46.2365 34.7289 45.1601L35.3401 47.1324C35.3887 47.3199 35.5276 47.5074 35.6664 47.5976C35.7637 47.6949 35.8123 47.6949 37.6387 48.4865C42.8401 50.6949 44.9026 51.5837 45.7498 51.9587Z" fill="#7BADAA"/>
</g>
</svg>
