<svg width="68" height="68" viewBox="0 0 68 68" fill="none" xmlns="http://www.w3.org/2000/svg">
<path d="M34.0001 65.2909C51.2829 65.2909 65.2933 51.2816 65.2933 34.0002C65.2933 16.7188 51.2829 2.70947 34.0001 2.70947C16.7174 2.70947 2.70703 16.7188 2.70703 34.0002C2.70703 51.2816 16.7174 65.2909 34.0001 65.2909Z" stroke="white" stroke-width="5.08513" stroke-miterlimit="10"/>
<path d="M46.9588 20.8037C46.8681 20.3502 46.6866 19.806 46.5959 19.3526C46.5052 19.0805 46.3238 18.9897 46.1424 18.9897C45.6889 18.9897 45.1447 19.0804 44.6005 19.0804C43.9656 19.0804 43.3306 19.1712 42.6957 19.2619C38.7954 19.8967 35.6207 21.7107 33.3531 24.9758C32.2646 26.5177 31.4483 28.1502 30.4505 29.7828C30.2691 30.0549 30.0877 30.2363 29.7249 30.2363C26.4595 30.4177 23.6477 31.4153 21.5615 33.9549C21.1987 34.4084 20.8358 34.9526 20.3823 35.406C22.6499 34.9526 24.7361 34.9525 26.8223 35.8595C26.0967 37.1293 26.7317 37.9456 27.6387 38.6712C27.1852 39.4874 26.6409 40.213 26.2781 40.9386C25.5525 42.3898 25.0083 43.9316 25.1897 45.6549C25.3711 47.2875 26.4595 48.1037 28.0922 47.8316C29.09 47.6502 29.997 47.1061 30.8134 46.5619C32.0832 45.6549 32.9902 44.5665 33.8973 43.206C34.9857 44.113 36.0742 43.9316 36.8906 42.934C38.4326 44.6572 39.521 46.5619 39.521 49.0107C41.3351 46.834 43.3306 42.2991 41.1537 38.127C42.2421 36.7665 43.3306 35.406 44.4191 34.0456C46.0517 32.0502 47.1402 29.8735 47.4123 27.3339C47.8658 25.1572 47.503 22.9804 46.9588 20.8037ZM29.6342 45.3828C28.3643 45.6549 27.4573 44.9293 27.3666 43.6595C27.2759 42.1177 27.9108 40.8479 28.8178 39.5781C30.2691 40.6665 31.7204 41.7549 33.2624 42.8433C32.1739 44.0223 31.1762 45.02 29.6342 45.3828ZM39.2489 31.7781C37.2534 31.7781 35.6207 30.1456 35.6207 28.1502C35.6207 26.1549 37.2534 24.5223 39.2489 24.5223C41.2444 24.5223 42.8771 26.1549 42.7864 28.1502C42.7864 30.1456 41.2444 31.7781 39.2489 31.7781Z" fill="white"/>
</svg>
