<svg width="78" height="78" viewBox="0 0 78 78" fill="none" xmlns="http://www.w3.org/2000/svg">
<mask id="mask0_755_6268" style="mask-type:luminance" maskUnits="userSpaceOnUse" x="0" y="0" width="78" height="78">
<path d="M0.177734 0.118164H77.8543V77.7948H0.177734V0.118164Z" fill="white"/>
</mask>
<g mask="url(#mask0_755_6268)">
<path d="M76.8372 8.48862H71.1913C71.1913 8.03011 71.0115 7.5716 70.6699 7.22997C70.3282 6.88834 69.8877 6.71752 69.4472 6.70853V1.09855C69.4472 0.729949 69.2314 0.406297 68.8988 0.271441C68.5661 0.127595 68.1705 0.199517 67.9188 0.460237L61.8234 6.49276C61.6525 6.66358 61.5536 6.88834 61.5536 7.13108L61.5716 13.7839L58.7846 16.5709C52.5633 10.9789 44.3461 7.5716 35.3468 7.5716C15.9816 7.5716 0.230469 23.3227 0.230469 42.6789C0.230469 62.0441 15.9816 77.7952 35.3468 77.7952C54.703 77.7952 70.4541 62.0441 70.4541 42.6789C70.4541 33.6166 67.0018 25.3365 61.3379 19.0972L64.1159 16.3192L70.7598 16.3012C71.0025 16.3012 71.2273 16.2113 71.3981 16.0405L77.4755 10.026C77.7363 9.77424 77.8082 9.37866 77.6733 9.04602C77.5295 8.70439 77.2058 8.48862 76.8372 8.48862ZM64.1698 42.6789C64.1698 58.5739 51.2417 71.511 35.3468 71.511C19.4518 71.511 6.52371 58.5739 6.52371 42.6789C6.52371 26.793 19.4518 13.8559 35.3468 13.8559C42.611 13.8559 49.2548 16.5709 54.3344 21.0212L48.9222 26.4334C45.2362 23.3587 40.5072 21.4977 35.3468 21.4977C23.6593 21.4977 14.1565 31.0005 14.1565 42.6789C14.1565 54.3664 23.6593 63.8692 35.3468 63.8692C47.0252 63.8692 56.528 54.3664 56.528 42.6789C56.528 37.4555 54.6221 32.6637 51.4665 28.9686L56.8787 23.5564C61.4098 28.645 64.1698 35.3518 64.1698 42.6789ZM35.3468 50.8422C39.8419 50.8422 43.501 47.1831 43.501 42.6789C43.501 41.0517 43.0155 39.5323 42.1794 38.2557L47.6456 32.7985C49.8212 35.5046 51.1338 38.9389 51.1338 42.6789C51.1338 51.3906 44.0494 58.475 35.3468 58.475C26.6351 58.475 19.5507 51.3906 19.5507 42.6789C19.5507 33.9763 26.6351 26.8919 35.3468 26.8919C39.0148 26.8919 42.3952 28.1595 45.0833 30.2722L39.6082 35.7474C38.3675 34.9832 36.9111 34.5247 35.3468 34.5247C30.8516 34.5247 27.1925 38.1837 27.1925 42.6789C27.1925 47.1831 30.8516 50.8422 35.3468 50.8422Z" fill="#C22032"/>
</g>
</svg>
