<?xml version="1.0" encoding="utf-8"?>
<!-- Generator: Adobe Illustrator 26.0.1, SVG Export Plug-In . SVG Version: 6.00 Build 0)  -->
<svg version="1.1" id="Layer_1" xmlns="http://www.w3.org/2000/svg" xmlns:xlink="http://www.w3.org/1999/xlink" x="0px" y="0px"
	 width="70" height="70" viewBox="0 0 70 70" style="enable-background:new 0 0 70 70;" xml:space="preserve">
<style type="text/css">
	.st0{fill-rule:evenodd;clip-rule:evenodd;fill:none;stroke:#25B24B;stroke-width:1.5;stroke-linecap:round;stroke-miterlimit:10;}
	.st1{fill:none;stroke:#25B24B;stroke-width:1.5;stroke-linecap:round;stroke-miterlimit:10;}
	.st2{fill-rule:evenodd;clip-rule:evenodd;fill:none;stroke:#25B24B;stroke-width:1.5;stroke-miterlimit:10;}
</style>
<path class="st0" d="M44.8,9.7h12.4c1.4,0,2.6,1.2,2.6,2.6v49.4c0,1.4-1.2,2.6-2.6,2.6H12.8c-1.4,0-2.6-1.2-2.6-2.6V12.3
	c0-1.4,1.2-2.6,2.6-2.6h9.6"/>
<line class="st1" x1="17.6" y1="18.2" x2="36" y2="18.2"/>
<line class="st1" x1="17.6" y1="23" x2="28.1" y2="23"/>
<path class="st0" d="M50.5,21.4v3.2c0,0.6-0.5,1.1-1.1,1.1h-5.9c-0.6,0-1.1-0.5-1.1-1.1v-5.5c0-0.6,0.5-1.1,1.1-1.1h3.2"/>
<line class="st1" x1="53.2" y1="15.4" x2="46" y2="22.3"/>
<line class="st1" x1="17.6" y1="35.1" x2="36" y2="35.1"/>
<line class="st1" x1="17.6" y1="40" x2="28.1" y2="40"/>
<path class="st0" d="M50.5,38.4v3.2c0,0.6-0.5,1.1-1.1,1.1h-5.9c-0.6,0-1.1-0.5-1.1-1.1v-5.5c0-0.6,0.5-1.1,1.1-1.1h3.2"/>
<line class="st1" x1="53.2" y1="32.4" x2="46" y2="39.2"/>
<line class="st1" x1="17.6" y1="52.1" x2="36" y2="52.1"/>
<line class="st1" x1="17.6" y1="57" x2="28.1" y2="57"/>
<path class="st0" d="M50.5,55.4v3.2c0,0.6-0.5,1.1-1.1,1.1h-5.9c-0.6,0-1.1-0.5-1.1-1.1v-5.5c0-0.6,0.5-1.1,1.1-1.1h3.2"/>
<line class="st1" x1="53.2" y1="49.4" x2="46" y2="56.2"/>
<path class="st2" d="M41.9,6.3L41.9,6.3c0-0.4-0.3-0.7-0.7-0.7H28.7c-0.4,0-0.7,0.3-0.7,0.7v0c0,0.8-0.6,1.4-1.4,1.4h0
	c-0.7,0-1.2,0.5-1.2,1.2v3.5c0,0.7,0.5,1.2,1.2,1.2h16.8c0.7,0,1.2-0.5,1.2-1.2V8.9c0-0.7-0.5-1.2-1.2-1.2h-0.2
	C42.5,7.7,41.9,7.1,41.9,6.3z"/>
</svg>
