<svg width="52" height="61" viewBox="0 0 52 61" fill="none" xmlns="http://www.w3.org/2000/svg">
<path fill-rule="evenodd" clip-rule="evenodd" d="M36.5452 6.13941H48.4664C49.0364 6.13941 49.4977 6.56641 49.4977 7.09254V57.8236C49.4977 58.3497 49.0364 58.7767 48.4664 58.7767H3.53418C2.96424 58.7767 2.50293 58.3497 2.50293 57.8236V7.09254C2.50293 6.56641 2.96424 6.13941 3.53418 6.13941H13.0492C13.6177 6.13941 14.0804 5.71241 14.0804 5.18629C14.0804 4.6608 13.6177 4.23316 13.0492 4.23316H3.53418C1.82505 4.23316 0.44043 5.51353 0.44043 7.09254V57.8236C0.44043 59.4026 1.82505 60.6829 3.53418 60.6829H48.4664C50.1756 60.6829 51.5602 59.4026 51.5602 57.8236V7.09254C51.5602 5.51353 50.1756 4.23316 48.4664 4.23316H36.4702C36.2117 3.32452 35.3166 2.65352 34.2517 2.65352H34.2496C34.1224 2.65352 34.0186 2.5582 34.0186 2.44002V2.43811C34.0186 1.26767 32.9922 0.318359 31.7251 0.318359H20.2755C19.0084 0.318359 17.982 1.26767 17.982 2.43811V2.44002C17.982 2.5582 17.8782 2.65352 17.751 2.65352H17.7489C16.4819 2.65352 15.4554 3.60283 15.4554 4.77327V7.83089C15.4554 9.05915 16.5327 10.0549 17.8617 10.0549H34.1389C35.4679 10.0549 36.5452 9.05915 36.5452 7.83089V6.13941ZM37.3441 46.6504H34.9364C34.2984 46.6504 33.6859 46.8849 33.2349 47.3023C32.7839 47.7192 32.5302 48.2847 32.5302 48.8744V53.7162C32.5302 54.3059 32.7839 54.8714 33.2349 55.2889C33.6859 55.7057 34.2984 55.9402 34.9364 55.9402H40.1752C40.8132 55.9402 41.4251 55.7057 41.8761 55.2889C42.3277 54.8721 42.5814 54.3059 42.5814 53.7162V51.4916C42.5814 50.9655 42.1187 50.5385 41.5502 50.5385C40.9809 50.5385 40.5189 50.9655 40.5189 51.4916V53.7162C40.5189 53.8008 40.4825 53.8815 40.4179 53.9412C40.3532 54.0003 40.2659 54.034 40.1752 54.034H34.9364C34.845 54.034 34.7577 54.0003 34.6931 53.9412C34.6291 53.8815 34.5927 53.8008 34.5927 53.7162V48.8744C34.5927 48.7905 34.6291 48.7098 34.6931 48.6501C34.7577 48.5903 34.845 48.5567 34.9364 48.5567H37.3441C37.9133 48.5567 38.3753 48.1297 38.3753 47.6035C38.3753 47.0774 37.9133 46.6504 37.3441 46.6504ZM8.69524 53.4303H19.0346C19.6038 53.4303 20.0658 53.0033 20.0658 52.4772C20.0658 51.9511 19.6038 51.5241 19.0346 51.5241H8.69524C8.12599 51.5241 7.66399 51.9511 7.66399 52.4772C7.66399 53.0033 8.12599 53.4303 8.69524 53.4303ZM38.2846 51.9695L44.3971 46.32C44.8 45.9476 44.8 45.344 44.3971 44.9723C43.9949 44.5999 43.3418 44.5999 42.9389 44.9723L36.8264 50.6218C36.4242 50.9935 36.4242 51.5971 36.8264 51.9695C37.2292 52.3412 37.8824 52.3412 38.2846 51.9695ZM8.69524 48.5567H26.9972C27.5657 48.5567 28.0284 48.1297 28.0284 47.6035C28.0284 47.0774 27.5657 46.6504 26.9972 46.6504H8.69524C8.12599 46.6504 7.66399 47.0774 7.66399 47.6035C7.66399 48.1297 8.12599 48.5567 8.69524 48.5567ZM37.3441 31.178H34.9364C34.2984 31.178 33.6859 31.4125 33.2349 31.8299C32.7839 32.2468 32.5302 32.8123 32.5302 33.402V38.2438C32.5302 38.8335 32.7839 39.3997 33.2349 39.8165C33.6859 40.2333 34.2984 40.4678 34.9364 40.4678H40.1752C40.8132 40.4678 41.4251 40.2333 41.8761 39.8165C42.3277 39.3997 42.5814 38.8335 42.5814 38.2438V36.0192C42.5814 35.4931 42.1187 35.0661 41.5502 35.0661C40.9809 35.0661 40.5189 35.4931 40.5189 36.0192V38.2438C40.5189 38.3284 40.4825 38.4091 40.4179 38.4688C40.3532 38.5279 40.2659 38.5616 40.1752 38.5616H34.9364C34.845 38.5616 34.7577 38.5279 34.6931 38.4688C34.6291 38.4091 34.5927 38.3284 34.5927 38.2438V33.402C34.5927 33.3181 34.6291 33.2374 34.6931 33.1777C34.7577 33.1179 34.845 33.0843 34.9364 33.0843H37.3441C37.9133 33.0843 38.3753 32.6573 38.3753 32.1311C38.3753 31.6056 37.9133 31.178 37.3441 31.178ZM8.69524 37.9579H19.0346C19.6038 37.9579 20.0658 37.5309 20.0658 37.0048C20.0658 36.4793 19.6038 36.0517 19.0346 36.0517H8.69524C8.12599 36.0517 7.66399 36.4793 7.66399 37.0048C7.66399 37.5309 8.12599 37.9579 8.69524 37.9579ZM38.2846 36.4971L44.3971 30.8476C44.8 30.4759 44.8 29.8716 44.3971 29.4999C43.9949 29.1275 43.3418 29.1275 42.9389 29.4999L36.8264 35.1494C36.4242 35.5211 36.4242 36.1254 36.8264 36.4971C37.2292 36.8688 37.8824 36.8688 38.2846 36.4971ZM8.69524 33.0843H26.9972C27.5657 33.0843 28.0284 32.6573 28.0284 32.1311C28.0284 31.6056 27.5657 31.178 26.9972 31.178H8.69524C8.12599 31.178 7.66399 31.6056 7.66399 32.1311C7.66399 32.6573 8.12599 33.0843 8.69524 33.0843ZM37.3441 15.7056H34.9364C34.2984 15.7062 33.6859 15.9401 33.2349 16.3575C32.7839 16.7744 32.5302 17.3399 32.5302 17.9302V22.7714C32.5302 23.3611 32.7839 23.9273 33.2349 24.3441C33.6859 24.7609 34.2984 24.9954 34.9364 24.9954H40.1752C40.8132 24.9954 41.4251 24.7609 41.8761 24.3441C42.3277 23.9273 42.5814 23.3611 42.5814 22.7714V20.5469C42.5814 20.0207 42.1187 19.5937 41.5502 19.5937C40.9809 19.5937 40.5189 20.0207 40.5189 20.5469V22.7714C40.5189 22.856 40.4825 22.9367 40.4179 22.9964C40.3532 23.0555 40.2659 23.0892 40.1752 23.0892H34.9364C34.845 23.0892 34.7577 23.0555 34.6931 22.9964C34.6291 22.9367 34.5927 22.856 34.5927 22.7714V17.9302C34.5927 17.8457 34.6291 17.765 34.6931 17.7053C34.7577 17.6455 34.845 17.6125 34.9364 17.6119H37.3441C37.9133 17.6119 38.3753 17.1849 38.3753 16.6587C38.3753 16.1332 37.9133 15.7056 37.3441 15.7056ZM8.69524 22.4855H19.0346C19.6038 22.4855 20.0658 22.0585 20.0658 21.5324C20.0658 21.0069 19.6038 20.5793 19.0346 20.5793H8.69524C8.12599 20.5793 7.66399 21.0069 7.66399 21.5324C7.66399 22.0585 8.12599 22.4855 8.69524 22.4855ZM38.2846 21.0247L44.3971 15.3752C44.8 15.0035 44.8 14.3992 44.3971 14.0275C43.9949 13.6551 43.3418 13.6551 42.9389 14.0275L36.8264 19.677C36.4242 20.0487 36.4242 20.653 36.8264 21.0247C37.2292 21.3964 37.8824 21.3964 38.2846 21.0247ZM8.69524 17.6119H26.9972C27.5657 17.6119 28.0284 17.1849 28.0284 16.6587C28.0284 16.1332 27.5657 15.7056 26.9972 15.7056H8.69524C8.12599 15.7056 7.66399 16.1332 7.66399 16.6587C7.66399 17.1849 8.12599 17.6119 8.69524 17.6119ZM34.2496 4.55977H34.2517C34.3796 4.55977 34.4827 4.65571 34.4827 4.77327V7.83089C34.4827 8.00627 34.3294 8.1486 34.1389 8.1486H17.8617C17.6712 8.1486 17.5179 8.00627 17.5179 7.83089V4.77327C17.5179 4.65571 17.6211 4.55977 17.7489 4.55977H17.751C19.0174 4.55977 20.0445 3.61109 20.0445 2.44002V2.43811C20.0445 2.31992 20.1476 2.22461 20.2755 2.22461H31.7251C31.853 2.22461 31.9561 2.31992 31.9561 2.43811V2.44002C31.9561 3.61109 32.9832 4.55977 34.2496 4.55977Z" fill="#1FB112"/>
</svg>
