<svg width="111" height="111" viewBox="0 0 111 111" fill="none" xmlns="http://www.w3.org/2000/svg">
<mask id="mask0_621_782" style="mask-type:luminance" maskUnits="userSpaceOnUse" x="21" y="48" width="7" height="23">
<path d="M21.1343 48.4341H27.7846V70.3764H21.1343V48.4341Z" fill="white"/>
</mask>
<g mask="url(#mask0_621_782)">
<path d="M21.1436 50.8254V68.8805C21.1436 69.7761 21.7438 70.3668 22.6489 70.3668H25.6692C26.5839 70.3668 27.1841 69.7761 27.1841 68.8805V51.2732C24.3163 51.1303 22.506 50.9779 22.2011 50.8254H21.1436Z" fill="#7BADAA"/>
</g>
<mask id="mask1_621_782" style="mask-type:luminance" maskUnits="userSpaceOnUse" x="21" y="13" width="7" height="7">
<path d="M21.1343 13.6674H27.7846V19.1648H21.1343V13.6674Z" fill="white"/>
</mask>
<g mask="url(#mask1_621_782)">
<path d="M27.1841 16.9544V15.1632C27.1841 14.2676 26.5839 13.6674 25.6692 13.6674H22.6489C21.7438 13.6674 21.1436 14.2676 21.1436 15.1632V16.5066L22.9538 16.6495C23.2587 16.6591 24.7641 16.8115 27.1841 16.9544Z" fill="#7BADAA"/>
</g>
<mask id="mask2_621_782" style="mask-type:luminance" maskUnits="userSpaceOnUse" x="83" y="13" width="8" height="7">
<path d="M83.8843 13.6674H90.649V19.1648H83.8843V13.6674Z" fill="white"/>
</mask>
<g mask="url(#mask2_621_782)">
<path d="M89.1431 13.6674H86.1133C85.2082 13.6674 84.6079 14.2676 84.6079 15.1632V16.9544C87.0184 16.8115 88.5333 16.6591 88.6762 16.6591L90.639 16.5161V15.1632C90.6485 14.2676 90.0482 13.6674 89.1431 13.6674Z" fill="#7BADAA"/>
</g>
<mask id="mask3_621_782" style="mask-type:luminance" maskUnits="userSpaceOnUse" x="83" y="48" width="8" height="23">
<path d="M83.8843 48.4341H90.649V70.3764H83.8843V48.4341Z" fill="white"/>
</mask>
<g mask="url(#mask3_621_782)">
<path d="M84.6079 51.2734V68.8806C84.6079 69.7762 85.2082 70.3764 86.1133 70.3764H89.1431C90.0482 70.3764 90.6485 69.7762 90.6485 68.8806V50.8351L89.4385 50.978C89.286 50.978 87.4758 51.1209 84.6079 51.2734Z" fill="#7BADAA"/>
</g>
<path d="M53.7769 34.5617H54.9869L54.3866 33.3707L53.7769 34.5617Z" fill="#7BADAA"/>
<path d="M64.9624 31.5795H67.9827V33.0658H64.9624V31.5795Z" fill="#7BADAA"/>
<mask id="mask4_621_782" style="mask-type:luminance" maskUnits="userSpaceOnUse" x="21" y="19" width="70" height="32">
<path d="M21.1343 19.1649H90.6485V50.8731H21.1343V19.1649Z" fill="white"/>
</mask>
<g mask="url(#mask4_621_782)">
<path d="M55.8911 21.1369C41.0851 21.1369 22.9538 19.6411 22.8014 19.6411L21.1436 19.4982V47.8431L22.4965 47.986C22.6489 47.986 39.4272 49.4819 55.8911 49.4819C70.8592 49.4819 89.1428 47.986 89.2858 47.986L90.6482 47.8431V19.4886L88.9904 19.6316C88.838 19.6411 70.7067 21.1369 55.8911 21.1369ZM34.7396 33.0656C35.6447 33.0656 36.2545 33.6659 36.2545 34.5615V39.0395C36.2545 39.9351 35.6447 40.5354 34.7396 40.5354H30.2044C29.2993 40.5354 28.699 39.9351 28.699 39.0395C28.699 38.1439 29.2993 37.5437 30.2044 37.5437H33.2247V36.0573H30.2044C29.2993 36.0573 28.699 35.4571 28.699 34.5615V30.0835C28.699 29.1879 29.2993 28.5971 30.2044 28.5971H34.7396C35.6447 28.5971 36.2545 29.1879 36.2545 30.0835C36.2545 30.9791 35.6447 31.5793 34.7396 31.5793H31.7193V33.0656H34.7396ZM46.8303 31.5793H44.5627V39.0395C44.5627 39.9351 43.9529 40.5258 43.0478 40.5258C42.1426 40.5258 41.5329 39.9351 41.5329 39.0395V31.5793H39.2748C38.3697 31.5793 37.7599 30.9791 37.7599 30.0835C37.7599 29.1879 38.3697 28.5876 39.2748 28.5876H46.8303C47.7354 28.5876 48.3356 29.1879 48.3356 30.0835C48.3356 30.9791 47.7354 31.5793 46.8303 31.5793ZM59.5212 40.3829C59.3783 40.5258 59.0734 40.5258 58.9209 40.5258C58.3112 40.5258 57.8634 40.2305 57.5585 39.6302L56.5009 37.5437H52.2706L51.213 39.6302C50.9081 40.3734 50.003 40.6688 49.2503 40.2305C48.4881 39.9256 48.1927 39.03 48.6405 38.2868L53.1757 29.3308C53.6331 28.2923 55.4433 28.2923 55.8911 29.3308L60.4263 38.2964C60.5121 38.706 60.4644 39.0967 60.3025 39.4778C60.1405 39.8589 59.8737 40.1638 59.5212 40.3829ZM71.0021 34.5615C71.0021 35.4571 70.4018 36.0573 69.4967 36.0573H67.9818L70.4018 37.8486C71.0021 38.2964 71.1545 39.3349 70.7067 39.9351C70.4114 40.3543 70.0112 40.5544 69.4967 40.5258C69.1918 40.5258 68.8869 40.3829 68.5916 40.2305L64.9615 37.5437V39.0395C64.9615 39.9351 64.3517 40.5354 63.4466 40.5354C62.5415 40.5354 61.9412 39.9351 61.9412 39.0395V30.0835C61.9412 29.1879 62.5415 28.5971 63.4466 28.5971H69.4967C70.4018 28.5971 71.0021 29.1879 71.0021 30.0835V34.5615ZM81.5874 31.5793H79.3198V39.0395C79.3198 39.9351 78.71 40.5354 77.8049 40.5354C76.8997 40.5354 76.29 39.9351 76.29 39.0395V31.5793H74.0319C73.1172 31.5793 72.517 30.9791 72.517 30.0835C72.517 29.1879 73.1172 28.5876 74.0319 28.5876H81.5874C82.4925 28.5876 83.0928 29.1879 83.0928 30.0835C83.0928 30.9791 82.4925 31.5793 81.5874 31.5793Z" fill="#7BADAA"/>
</g>
</svg>
