<svg width="80" height="81" viewBox="0 0 80 81" fill="none" xmlns="http://www.w3.org/2000/svg">
<g clip-path="url(#clip0_982_456)">
<g clip-path="url(#clip1_982_456)">
<g clip-path="url(#clip2_982_456)">
<mask id="mask0_982_456" style="mask-type:luminance" maskUnits="userSpaceOnUse" x="14" y="45" width="6" height="17">
<path d="M14.708 45.2007H19.5552V61.1937H14.708V45.2007Z" fill="white"/>
</mask>
<g mask="url(#mask0_982_456)">
<path d="M14.7148 46.9437V60.1034C14.7148 60.7562 15.1523 61.1868 15.8121 61.1868H18.0135C18.6801 61.1868 19.1176 60.7562 19.1176 60.1034V47.2701C17.0273 47.1659 15.7079 47.0548 15.4857 46.9437H14.7148Z" fill="#7BADAA"/>
</g>
<mask id="mask1_982_456" style="mask-type:luminance" maskUnits="userSpaceOnUse" x="14" y="19" width="6" height="5">
<path d="M14.708 19.8606H19.5552V23.8675H14.708V19.8606Z" fill="white"/>
</mask>
<g mask="url(#mask1_982_456)">
<path d="M19.1176 22.2564V20.9509C19.1176 20.2981 18.6801 19.8606 18.0135 19.8606H15.8121C15.1523 19.8606 14.7148 20.2981 14.7148 20.9509V21.93L16.0343 22.0342C16.2565 22.0412 17.3537 22.1523 19.1176 22.2564Z" fill="#7BADAA"/>
</g>
<mask id="mask2_982_456" style="mask-type:luminance" maskUnits="userSpaceOnUse" x="60" y="19" width="6" height="5">
<path d="M60.4443 19.8606H65.3749V23.8675H60.4443V19.8606Z" fill="white"/>
</mask>
<g mask="url(#mask2_982_456)">
<path d="M64.2772 19.8606H62.0689C61.4092 19.8606 60.9717 20.2981 60.9717 20.9509V22.2564C62.7286 22.1523 63.8328 22.0412 63.937 22.0412L65.3675 21.937V20.9509C65.3745 20.2981 64.937 19.8606 64.2772 19.8606Z" fill="#7BADAA"/>
</g>
<mask id="mask3_982_456" style="mask-type:luminance" maskUnits="userSpaceOnUse" x="60" y="45" width="6" height="17">
<path d="M60.4443 45.2007H65.3749V61.1937H60.4443V45.2007Z" fill="white"/>
</mask>
<g mask="url(#mask3_982_456)">
<path d="M60.9717 47.2701V60.1035C60.9717 60.7562 61.4092 61.1937 62.0689 61.1937H64.2772C64.937 61.1937 65.3745 60.7562 65.3745 60.1035V46.9507L64.4925 47.0549C64.3814 47.0549 63.062 47.159 60.9717 47.2701Z" fill="#7BADAA"/>
</g>
<path d="M38.5 35.0897H39.3819L38.9444 34.2217L38.5 35.0897Z" fill="#7BADAA"/>
<path d="M46.6523 32.916H48.8537V33.9993H46.6523V32.916Z" fill="#7BADAA"/>
<mask id="mask4_982_456" style="mask-type:luminance" maskUnits="userSpaceOnUse" x="14" y="23" width="52" height="24">
<path d="M14.708 23.8674H65.3747V46.9785H14.708V23.8674Z" fill="white"/>
</mask>
<g mask="url(#mask4_982_456)">
<path d="M40.0412 25.3049C29.2496 25.3049 16.0343 24.2146 15.9232 24.2146L14.7148 24.1105V44.7702L15.701 44.8744C15.8121 44.8744 28.0412 45.9646 40.0412 45.9646C50.951 45.9646 64.2773 44.8744 64.3815 44.8744L65.3746 44.7702V24.1035L64.1662 24.2077C64.0551 24.2146 50.8398 25.3049 40.0412 25.3049ZM24.6246 33.9994C25.2843 33.9994 25.7287 34.4369 25.7287 35.0896V38.3535C25.7287 39.0063 25.2843 39.4438 24.6246 39.4438H21.319C20.6593 39.4438 20.2218 39.0063 20.2218 38.3535C20.2218 37.7007 20.6593 37.2632 21.319 37.2632H23.5204V36.1799H21.319C20.6593 36.1799 20.2218 35.7424 20.2218 35.0896V31.8257C20.2218 31.173 20.6593 30.7424 21.319 30.7424H24.6246C25.2843 30.7424 25.7287 31.173 25.7287 31.8257C25.7287 32.4785 25.2843 32.916 24.6246 32.916H22.4232V33.9994H24.6246ZM33.4371 32.916H31.7843V38.3535C31.7843 39.0063 31.3398 39.4369 30.6801 39.4369C30.0204 39.4369 29.576 39.0063 29.576 38.3535V32.916H27.9301C27.2704 32.916 26.826 32.4785 26.826 31.8257C26.826 31.173 27.2704 30.7355 27.9301 30.7355H33.4371C34.0968 30.7355 34.5343 31.173 34.5343 31.8257C34.5343 32.4785 34.0968 32.916 33.4371 32.916ZM42.6871 39.3327C42.5829 39.4369 42.3607 39.4369 42.2496 39.4369C41.8051 39.4369 41.4787 39.2216 41.2565 38.7841L40.4857 37.2632H37.4023L36.6315 38.7841C36.4093 39.3257 35.7496 39.541 35.201 39.2216C34.6454 38.9994 34.4301 38.3466 34.7565 37.8049L38.0621 31.2771C38.3954 30.5202 39.7148 30.5202 40.0412 31.2771L43.3468 37.8119C43.4093 38.1105 43.3746 38.3952 43.2565 38.673C43.1385 38.9507 42.944 39.173 42.6871 39.3327ZM51.0551 35.0896C51.0551 35.7424 50.6176 36.1799 49.9579 36.1799H48.8537L50.6176 37.4855C51.0551 37.8119 51.1662 38.5688 50.8398 39.0063C50.6246 39.3119 50.3329 39.4577 49.9579 39.4369C49.7357 39.4369 49.5135 39.3327 49.2982 39.2216L46.6523 37.2632V38.3535C46.6523 39.0063 46.2079 39.4438 45.5482 39.4438C44.8885 39.4438 44.451 39.0063 44.451 38.3535V31.8257C44.451 31.173 44.8885 30.7424 45.5482 30.7424H49.9579C50.6176 30.7424 51.0551 31.173 51.0551 31.8257V35.0896ZM58.7704 32.916H57.1176V38.3535C57.1176 39.0063 56.6732 39.4438 56.0135 39.4438C55.3537 39.4438 54.9093 39.0063 54.9093 38.3535V32.916H53.2635C52.5968 32.916 52.1593 32.4785 52.1593 31.8257C52.1593 31.173 52.5968 30.7355 53.2635 30.7355H58.7704C59.4301 30.7355 59.8676 31.173 59.8676 31.8257C59.8676 32.4785 59.4301 32.916 58.7704 32.916Z" fill="#7BADAA"/>
</g>
</g>
</g>
</g>
<defs>
<clipPath id="clip0_982_456">
<rect width="80" height="80" fill="white" transform="translate(0 0.527222)"/>
</clipPath>
<clipPath id="clip1_982_456">
<rect width="80" height="80" fill="white" transform="translate(0 0.527222)"/>
</clipPath>
<clipPath id="clip2_982_456">
<rect width="80" height="80" fill="white" transform="translate(0 0.527222)"/>
</clipPath>
</defs>
</svg>
