<svg width="34" height="32" viewBox="0 0 34 32" fill="none" xmlns="http://www.w3.org/2000/svg">
<path d="M23.5815 4.40671C22.3151 4.40646 21.0992 4.96542 20.1953 5.96335C19.2914 6.96129 18.7718 8.31846 18.7482 9.74296L18.7015 12.6961C18.699 12.8548 18.6667 13.0111 18.6067 13.1548C18.5466 13.2984 18.4603 13.4262 18.3532 13.5296C18.2462 13.633 18.1209 13.7098 17.9856 13.7549C17.8503 13.7999 17.708 13.8123 17.5682 13.7911L14.9649 13.3917C11.5432 12.8667 8.2632 11.0948 5.11487 8.14546C4.11987 14.3517 6.06487 18.6511 10.7532 21.968L13.6649 24.0267C13.803 24.1244 13.9177 24.2587 13.9991 24.4178C14.0805 24.5768 14.1261 24.7559 14.1318 24.9393C14.1376 25.1228 14.1034 25.305 14.0321 25.4701C13.9609 25.6353 13.8548 25.7783 13.7232 25.8867L11.0699 28.0692C12.6482 28.1817 14.1465 28.103 15.3899 27.8255C23.2532 26.0592 28.4815 19.403 28.4815 8.42296C28.4815 7.52671 26.7932 4.40671 23.5815 4.40671ZM15.4149 9.67546C15.444 7.86805 15.9464 6.11046 16.8591 4.62275C17.7719 3.13503 19.0545 1.98331 20.5464 1.31177C22.0382 0.640236 23.6731 0.478733 25.2461 0.847485C26.8192 1.21624 28.2606 2.09886 29.3899 3.38483C30.5749 3.37546 31.5832 3.71296 33.8365 2.17358C33.2799 5.24858 33.0032 6.58546 31.8149 8.42108C31.8149 22.748 23.9865 29.7173 16.0415 31.5005C10.5965 32.723 2.67487 30.7148 0.408203 28.0467C1.5632 27.9473 6.2632 27.3792 8.97987 25.1405C6.67987 23.4342 -2.4668 17.378 3.54487 1.09921C6.36654 4.80608 9.2282 7.32796 12.1282 8.66858C14.0565 9.55921 14.5315 9.54046 15.4165 9.67733L15.4149 9.67546Z" fill="black"/>
</svg>
