<svg width="133" height="132" viewBox="0 0 133 132" fill="none" xmlns="http://www.w3.org/2000/svg">
<g filter="url(#filter0_d_383_13537)">
<circle cx="66.5005" cy="62.4516" r="53.6484" fill="#D9D9D9"/>
</g>
<circle cx="66.5006" cy="62.4518" r="43.5982" fill="white"/>
<path d="M51.0137 82.1083V70.1015C51.0137 69.426 51.1744 68.7842 51.496 68.1763C51.8175 67.5684 52.2647 67.0786 52.8375 66.7071L55.0666 65.2379C55.303 68.075 55.6745 70.4899 56.1812 72.4826C56.6878 74.4752 57.4815 76.6875 58.5623 79.1192L51.0137 82.1083ZM61.602 78.0553C60.4199 75.8262 59.5417 73.462 58.9676 70.9627C58.3934 68.4634 58.1063 65.8796 58.1063 63.2115C58.1063 58.9897 58.9426 55.0124 60.6151 51.2796C62.2876 47.5469 64.491 44.7186 67.2254 42.7948C69.9611 44.7199 72.1653 47.5489 73.8378 51.2816C75.5103 55.0144 76.3459 58.991 76.3445 63.2115C76.3445 65.8459 76.0574 68.4046 75.4833 70.8877C74.9091 73.3708 74.031 75.76 72.8489 78.0553H61.602ZM67.2254 63.8701C68.34 63.8701 69.2944 63.4729 70.0888 62.6785C70.8832 61.8841 71.2797 60.9303 71.2784 59.8171C71.2784 58.7026 70.8812 57.7481 70.0868 56.9537C69.2924 56.1594 68.3386 55.7628 67.2254 55.7642C66.1109 55.7642 65.1564 56.1614 64.362 56.9558C63.5676 57.7501 63.1711 58.7039 63.1725 59.8171C63.1725 60.9317 63.5697 61.8862 64.364 62.6805C65.1584 63.4749 66.1122 63.8714 67.2254 63.8701ZM83.4372 82.1083L75.8886 79.1192C76.9693 76.6875 77.763 74.4752 78.2697 72.4826C78.7763 70.4899 79.1478 68.075 79.3842 65.2379L81.6133 66.7071C82.1875 67.0786 82.6354 67.5684 82.9569 68.1763C83.2784 68.7842 83.4385 69.426 83.4372 70.1015V82.1083Z" fill="#C22032"/>
<defs>
<filter id="filter0_d_383_13537" x="0.644277" y="0.0833838" width="131.712" height="131.712" filterUnits="userSpaceOnUse" color-interpolation-filters="sRGB">
<feFlood flood-opacity="0" result="BackgroundImageFix"/>
<feColorMatrix in="SourceAlpha" type="matrix" values="0 0 0 0 0 0 0 0 0 0 0 0 0 0 0 0 0 0 127 0" result="hardAlpha"/>
<feOffset dy="3.48794"/>
<feGaussianBlur stdDeviation="6.10389"/>
<feComposite in2="hardAlpha" operator="out"/>
<feColorMatrix type="matrix" values="0 0 0 0 0.839216 0 0 0 0 0.815686 0 0 0 0 0.945098 0 0 0 0.25 0"/>
<feBlend mode="normal" in2="BackgroundImageFix" result="effect1_dropShadow_383_13537"/>
<feBlend mode="normal" in="SourceGraphic" in2="effect1_dropShadow_383_13537" result="shape"/>
</filter>
</defs>
</svg>
