<svg width="19" height="21" viewBox="0 0 19 21" fill="none" xmlns="http://www.w3.org/2000/svg">
<path d="M9.28295 10.1103C10.2716 10.1103 11.238 9.81715 12.06 9.26791C12.882 8.71867 13.5227 7.938 13.901 7.02464C14.2793 6.11129 14.3783 5.10625 14.1854 4.13663C13.9926 3.16702 13.5165 2.27637 12.8174 1.57731C12.1184 0.878259 11.2277 0.402197 10.2581 0.209329C9.2885 0.0164598 8.28346 0.115447 7.3701 0.493773C6.45675 0.872098 5.67608 1.51277 5.12684 2.33477C4.5776 3.15677 4.28444 4.12318 4.28444 5.1118C4.28444 6.43748 4.81107 7.70888 5.74847 8.64628C6.68587 9.58368 7.95726 10.1103 9.28295 10.1103ZM9.28295 11.5385C6.18477 11.5385 0 13.4522 0 17.251V20.1073H18.5659V17.251C18.5659 13.4522 12.3811 11.5385 9.28295 11.5385Z" fill="black"/>
</svg>
