<svg width="20" height="21" viewBox="0 0 20 21" fill="none" xmlns="http://www.w3.org/2000/svg">
<path d="M10.1526 10.5783C11.1412 10.5783 12.1076 10.2852 12.9296 9.73593C13.7516 9.18668 14.3923 8.40602 14.7706 7.49266C15.1489 6.5793 15.2479 5.57427 15.055 4.60465C14.8622 3.63504 14.3861 2.74439 13.6871 2.04533C12.988 1.34628 12.0974 0.870215 11.1277 0.677346C10.1581 0.484477 9.15309 0.583465 8.23973 0.96179C7.32637 1.34012 6.54571 1.98079 5.99647 2.80279C5.44723 3.62479 5.15407 4.5912 5.15407 5.57981C5.15407 6.9055 5.6807 8.17689 6.6181 9.1143C7.5555 10.0517 8.82689 10.5783 10.1526 10.5783ZM10.1526 12.0065C7.0544 12.0065 0.869629 13.9202 0.869629 17.7191V20.5754H19.4355V17.7191C19.4355 13.9202 13.2508 12.0065 10.1526 12.0065Z" fill="white"/>
</svg>
