<svg id="Layer_1" data-name="Layer 1" xmlns="http://www.w3.org/2000/svg" viewBox="0 0 50 50"><defs><style>.cls-1{fill:#29abe2;}</style></defs><path class="cls-1" d="M.38,35.29V6.06a.37.37,0,0,0,.07-.12,5.09,5.09,0,0,1,5.3-4.33h30a5.84,5.84,0,0,1,1.56.18A5.09,5.09,0,0,1,41.07,7q0,8.63,0,17.25a1.08,1.08,0,0,0,.36.87,10.5,10.5,0,0,1,3.31,9c-.06.54-.17,1.06-.26,1.6A2.54,2.54,0,0,1,46,40.22c.67.67,1.32,1.34,2,2a4.78,4.78,0,0,1,1.57,2.41v1.06c0,.13-.1.26-.14.4A3.28,3.28,0,0,1,44,47.35l-2.54-2.54a2.52,2.52,0,0,1-4.48-1.56,2.86,2.86,0,0,0-.37.06A10.56,10.56,0,0,1,26.2,40.09a1.12,1.12,0,0,0-.91-.38H5.63a5.14,5.14,0,0,1-5-3.57C.54,35.87.47,35.58.38,35.29Zm24.44,3a8.73,8.73,0,0,1-.55-1.18.61.61,0,0,0-.7-.46H5.68a2,2,0,0,1-2.22-2.22v-23A1.91,1.91,0,0,1,5.27,9.35c1.87,0,3.74,0,5.62,0a.69.69,0,0,1,.71.83.75.75,0,0,1-.85.61H5.8c-.79,0-.9.1-.9.87v22.7c0,.76.1.86.86.86H23.62A10.8,10.8,0,0,1,36.55,22.43V11.66c0-.79-.1-.89-.88-.89H13.84a.71.71,0,0,1-.77-.68.72.72,0,0,1,.76-.76h.33c7.18,0,14.36,0,21.54,0A2.15,2.15,0,0,1,38,11.63c-.06,3.6,0,7.21,0,10.81,0,.18,0,.45.14.51.46.26,1,.47,1.49.71v-.48q0-8.1,0-16.2a3.67,3.67,0,0,0-3.94-3.93c-10,0-19.93,0-29.9,0a3.89,3.89,0,0,0-4,4c0,9.08,0,18.17,0,27.26a3.7,3.7,0,0,0,4,4h19Zm9.31,3.9c.52-.05,1-.07,1.57-.16a4.85,4.85,0,0,0,3-1.49c1.13-1.27,2.39-2.42,3.58-3.63a1.63,1.63,0,0,0,.4-.58A9,9,0,0,0,41.2,27a8.81,8.81,0,0,0-8.78-3.18A9.26,9.26,0,0,0,24.9,34,9.35,9.35,0,0,0,34.13,42.17Zm8.38,1.65c.87.88,1.74,1.82,2.67,2.7a1.79,1.79,0,0,0,2.45-.08,1.74,1.74,0,0,0,.15-2.4c-.89-1-1.86-1.84-2.77-2.72Zm3.07-5.57a1.13,1.13,0,0,0-.7-1,1,1,0,0,0-1.18.28Q41.22,40,38.77,42.48a1,1,0,0,0-.08,1.5,1,1,0,0,0,1.53,0q2.47-2.46,4.92-4.93A3.15,3.15,0,0,0,45.58,38.25Z"/><path class="cls-1" d="M24.08,16.2a2.63,2.63,0,0,1,1,1.92,2.44,2.44,0,0,1-2.33,2.51,22,22,0,0,1-2.3,0,.72.72,0,0,1-.77-.8c0-2.11,0-4.23,0-6.34,0-.52.29-.78.82-.8s1.12,0,1.68,0a2.22,2.22,0,0,1,2,3.3S24.12,16.12,24.08,16.2Zm-3,3h1.54a1,1,0,0,0,.95-1,1,1,0,0,0-.9-1c-.52-.05-1,0-1.59,0Zm0-3.52c.41,0,.79,0,1.16,0A.73.73,0,0,0,23,15a.75.75,0,0,0-.67-.8c-.41,0-.82,0-1.24,0Z"/><path class="cls-1" d="M18.68,16.71a4,4,0,1,1-3.94-4A4,4,0,0,1,18.68,16.71Zm-6.47,0a2.52,2.52,0,1,0,2.53-2.54A2.52,2.52,0,0,0,12.21,16.69Z"/><path class="cls-1" d="M12.36,28.56H7.74c-.59,0-.92-.28-.91-.74s.33-.7.9-.7H17c.56,0,.89.27.9.71s-.34.73-.89.73Z"/><path class="cls-1" d="M12.36,24h4.52c.63,0,1,.27,1,.74s-.35.7-1,.7H7.73c-.59,0-.92-.29-.9-.75s.33-.68.87-.69Z"/><path class="cls-1" d="M12.31,30.19h4.61c.6,0,.94.27.94.72s-.35.72-.95.72H7.73c-.58,0-.92-.29-.9-.75s.32-.69.82-.69Z"/><path class="cls-1" d="M9.81,16.16c0,.81,0,1.63,0,2.45A2,2,0,0,1,8.57,20.5a2,2,0,0,1-2.18-.44.7.7,0,0,1-.15-1,.74.74,0,0,1,1-.13c.24.13.62.28.79.18s.29-.5.3-.77c0-1.59,0-3.17,0-4.76,0-.67.6-1.08,1.08-.72a1.1,1.1,0,0,1,.35.72C9.84,14.43,9.81,15.29,9.81,16.16Z"/><path class="cls-1" d="M10.93,8.39a2.17,2.17,0,1,1,2.18-2.15A2.16,2.16,0,0,1,10.93,8.39Zm0-1.45a.69.69,0,0,0,.73-.67A.71.71,0,0,0,11,5.51a.74.74,0,0,0-.74.73A.71.71,0,0,0,10.93,6.94Z"/><path class="cls-1" d="M6.35,8.39A2.14,2.14,0,0,1,4.21,6.21,2.16,2.16,0,0,1,6.34,4.06,2.2,2.2,0,0,1,8.53,6.23,2.17,2.17,0,0,1,6.35,8.39Zm0-2.88a.72.72,0,0,0-.72.69.69.69,0,0,0,.7.74.72.72,0,0,0,.73-.67A.75.75,0,0,0,6.37,5.51Z"/><path class="cls-1" d="M26.9,32.87a7.21,7.21,0,0,1,14.37-.77,8.44,8.44,0,0,1,0,1,.71.71,0,0,1-.74.76c-.44,0-.69-.29-.69-.8a5.78,5.78,0,1,0-6.74,5.51,5.8,5.8,0,0,0,6-2.76,1.28,1.28,0,0,1,.74-.58c.56-.09.9.57.59,1.12a7,7,0,0,1-4.54,3.52A7.2,7.2,0,0,1,26.9,32.87Z"/></svg>