<svg width="50" height="51" viewBox="0 0 50 51" fill="none" xmlns="http://www.w3.org/2000/svg">
<g opacity="0.5">
<path d="M38.0795 29.9559C37.7677 29.7805 37.4142 29.5815 36.9882 29.3253C36.7505 29.1817 36.4516 28.9854 36.1349 28.7776C34.5094 27.7106 33.2776 26.9554 32.2291 26.9554C31.9835 26.9554 31.7512 26.997 31.5395 27.0787C30.6209 27.4324 29.8665 28.3775 29.137 29.2913C28.8697 29.6261 28.487 30.1054 28.2549 30.3196C27.3338 30.1522 25.3912 28.9488 23.2948 26.8524C21.1961 24.7537 19.9924 22.8088 19.8272 21.89C20.0411 21.6569 20.5242 21.2715 20.861 21.0024C21.7714 20.2756 22.7128 19.5241 23.0685 18.6083C23.5222 17.4317 22.6906 16.0245 21.3698 14.0123C21.162 13.6957 20.9656 13.3965 20.8231 13.1607C20.5659 12.7331 20.367 12.3794 20.1916 12.0676C19.4714 10.7878 18.9957 9.94189 17.2078 9.94189C16.0474 9.94189 14.4068 11.0384 13.2956 12.1258C11.6806 13.7065 10.791 15.5314 10.791 17.2679C10.7941 21.9845 13.4264 27.3902 18.013 32.1046C18.0208 32.1124 18.0287 32.1145 18.0368 32.1224C22.7511 36.7091 28.1599 39.3324 32.8763 39.3324H32.8781C34.6123 39.3324 36.4379 38.453 38.0184 36.8389C39.1067 35.7278 40.2047 34.0991 40.2047 32.9395C40.2048 31.1519 39.3594 30.6762 38.0795 29.9559ZM32.8768 36.8956C28.8593 36.8927 23.9586 34.458 19.765 30.3826C15.6891 26.1885 13.2545 21.2874 13.2519 17.2704C13.2519 14.8405 16.4051 12.5302 17.2297 12.4036C17.3981 12.4044 17.4865 12.4143 17.5286 12.4215C17.6376 12.547 17.8542 12.9321 18.0472 13.275C18.2218 13.5853 18.4392 13.9716 18.716 14.4317C18.8833 14.7089 19.092 15.0267 19.3129 15.3631C19.7308 15.9999 20.571 17.28 20.7127 17.8264C20.4758 18.1617 19.7409 18.7483 19.326 19.0795C18.2641 19.9274 17.347 20.6595 17.347 21.6941C17.3495 24.1932 20.5686 27.6063 21.5551 28.5928C22.5416 29.5793 25.9547 32.7984 28.4591 32.8008C29.4871 32.7975 30.2161 31.8842 31.0604 30.8267C31.3933 30.4097 31.9835 29.6704 32.3202 29.4348C32.866 29.5754 34.1476 30.4166 34.785 30.835C35.1214 31.0558 35.439 31.2643 35.718 31.4328C36.1764 31.7086 36.5626 31.926 36.873 32.1006C37.2158 32.2935 37.6011 32.5103 37.7266 32.6193C37.7337 32.6613 37.7435 32.7496 37.7444 32.918C37.6168 33.7418 35.3058 36.8927 32.8768 36.8956Z" fill="#B7B7B7"/>
<path d="M49.9614 25.226C49.875 18.577 47.2061 12.2939 42.4465 7.5342C37.599 2.68676 31.2004 0.0170898 24.4292 0.0170898C17.8928 0.0170898 11.7781 2.53223 7.21117 7.09902C3.15855 11.1516 0.672207 16.5567 0.209708 22.3187C-0.228921 27.7855 1.16276 33.3177 4.13449 37.9693L0.0764582 48.9384C-0.093826 49.3988 0.0257669 49.9164 0.380977 50.2554C0.614379 50.4782 0.920128 50.5957 1.23067 50.5957C1.39259 50.5957 1.55599 50.5488 1.71089 50.483L12.2797 45.9855C16.3144 48.4967 20.9278 49.7909 25.665 49.7909H25.6655C32.2007 49.7909 38.3153 47.3058 42.8816 42.7395C47.5335 38.0875 50.0479 31.8871 49.9614 25.226ZM41.1414 41.0294C37.0396 45.1312 31.5432 47.3901 25.6649 47.3899C21.1896 47.3898 16.8355 46.0799 13.0733 43.6017C12.8693 43.4674 12.6336 43.399 12.3965 43.399C12.2337 43.399 12.0703 43.4312 11.9161 43.4966L3.37288 47.1201L6.65799 38.2404C6.79542 37.8687 6.74547 37.4535 6.52388 37.1251C0.485682 28.1797 1.50653 16.2837 8.95117 8.83914C13.0532 4.73706 18.5501 2.47784 24.4292 2.47784C30.5431 2.47784 36.3237 4.89147 40.7063 9.2742C45.0098 13.5776 47.4227 19.254 47.5007 25.258C47.5786 31.2497 45.3201 36.8508 41.1414 41.0294Z" fill="#B7B7B7"/>
</g>
</svg>
