<?xml version="1.0" encoding="utf-8"?>
<!-- Generator: Adobe Illustrator 26.0.1, SVG Export Plug-In . SVG Version: 6.00 Build 0)  -->
<svg version="1.1" id="Layer_1" xmlns="http://www.w3.org/2000/svg" xmlns:xlink="http://www.w3.org/1999/xlink" x="0px" y="0px"
	 viewBox="0 0 70 70" style="enable-background:new 0 0 70 70;" xml:space="preserve">
<style type="text/css">
	.st0{fill-rule:evenodd;clip-rule:evenodd;fill:url(#SVGID_1_);}
	.st1{fill-rule:evenodd;clip-rule:evenodd;fill:#FFFFFF;}
</style>
<g>
	
		<linearGradient id="SVGID_1_" gradientUnits="userSpaceOnUse" x1="35" y1="68.6144" x2="35" y2="5.3787" gradientTransform="matrix(1 0 0 -1 0 72)">
		<stop  offset="0" style="stop-color:#61FD7D"/>
		<stop  offset="1" style="stop-color:#2BB826"/>
	</linearGradient>
	<path class="st0" d="M66.75,50.64c0,0.35-0.01,1.1-0.03,1.68c-0.05,1.43-0.16,3.26-0.34,4.1c-0.26,1.26-0.64,2.45-1.15,3.44
		c-1.18,2.32-3.07,4.21-5.39,5.38c-0.99,0.51-2.19,0.9-3.46,1.15c-0.83,0.17-2.65,0.28-4.07,0.33c-0.58,0.02-1.34,0.03-1.68,0.03
		l-31.27-0.01c-0.35,0-1.1-0.01-1.68-0.03c-1.43-0.05-3.26-0.16-4.1-0.34c-1.26-0.26-2.45-0.64-3.44-1.15
		c-2.32-1.18-4.21-3.07-5.38-5.39c-0.51-0.99-0.89-2.19-1.15-3.46c-0.17-0.83-0.28-2.66-0.33-4.07c-0.02-0.58-0.03-1.34-0.03-1.68
		l0.01-31.27c0-0.35,0.01-1.1,0.03-1.68c0.05-1.43,0.16-3.26,0.33-4.1c0.26-1.26,0.64-2.45,1.15-3.44c1.18-2.32,3.07-4.21,5.39-5.38
		c0.99-0.51,2.19-0.89,3.46-1.15c0.83-0.17,2.65-0.28,4.07-0.33c0.58-0.02,1.34-0.03,1.68-0.03l31.27,0.01
		c0.35,0,1.1,0.01,1.68,0.03c1.43,0.05,3.26,0.16,4.1,0.33c1.26,0.26,2.45,0.64,3.44,1.15c2.32,1.18,4.21,3.07,5.38,5.39
		c0.51,0.99,0.89,2.19,1.15,3.46c0.17,0.83,0.28,2.66,0.33,4.07c0.02,0.58,0.03,1.34,0.03,1.68L66.75,50.64z"/>
	<path class="st1" d="M51.21,18.27c-4.3-4.3-10.02-6.67-16.11-6.68c-12.55,0-22.77,10.21-22.77,22.77c0,4,1.04,7.92,3.04,11.38
		l-3.23,11.8l12.07-3.17c3.34,1.82,7.08,2.77,10.88,2.77h0.01c12.55,0,22.77-10.21,22.77-22.77C57.87,28.29,55.51,22.57,51.21,18.27
		L51.21,18.27z M35.1,53.3L35.1,53.3c-3.4,0-6.73-0.91-9.64-2.64l-0.69-0.41l-7.16,1.88l1.91-6.98l-0.45-0.72
		c-1.9-3.02-2.9-6.51-2.9-10.07c0.01-10.43,8.5-18.92,18.94-18.92c5.06,0,9.81,1.97,13.38,5.55c3.57,3.58,5.54,8.33,5.54,13.39
		C54.02,44.81,45.53,53.3,35.1,53.3L35.1,53.3z"/>
	<path class="st1" d="M26.91,45.39c0.16,0.1,0.49,0.1,1.24,0.1c3.2,0,5.97-0.01,7.94-0.01c9.19,0,8.95-9.67,4.65-10.88
		c0.63-1.11,3.5-3.21,1.72-7.54c-1.75-4.28-9.29-3.31-14.45-3.31c-1.91,0-1.62,1.41-1.61,3.6c0.02,3.47,0,12.87,0,16.93
		C26.41,45.11,26.65,45.23,26.91,45.39z M30.89,41.84c0.87,0,2.91,0,4.67,0c1.99,0,3.76-0.93,3.71-2.91
		c-0.03-1.86-1.27-2.47-2.99-2.65c-1.64,0.02-3.51,0.02-5.39,0.02V41.84z M30.89,32.56c3.46-0.05,4.79,0.14,6.68-0.33
		c1.3-0.74,1.86-3.47,0.01-4.39c-1.29-0.64-5.1-0.42-6.68-0.36V32.56z"/>
</g>
</svg>
