<svg width="17" height="15" viewBox="0 0 17 15" fill="none" xmlns="http://www.w3.org/2000/svg">
<path d="M10.1758 0.538355L17 7.39803L10.1758 14.2577C10.1142 14.3386 10.0359 14.4054 9.94623 14.4534C9.85656 14.5015 9.75761 14.5297 9.65609 14.5362C9.55457 14.5426 9.45284 14.5272 9.35779 14.491C9.26275 14.4547 9.1766 14.3985 9.10518 14.326C9.03376 14.2536 8.97874 14.1666 8.94385 14.0711C8.90896 13.9755 8.895 13.8736 8.90293 13.7722C8.91085 13.6707 8.94048 13.5722 8.9898 13.4832C9.03911 13.3943 9.10697 13.3169 9.18878 13.2564L14.2945 8.10814H0.710051C0.521719 8.10814 0.341099 8.03332 0.207928 7.90015C0.0747566 7.76698 -5.91278e-05 7.58636 -5.91278e-05 7.39803C-5.91278e-05 7.20969 0.0747566 7.02907 0.207928 6.8959C0.341099 6.76273 0.521719 6.68792 0.710051 6.68792L14.2945 6.68792L9.18878 1.53961C9.056 1.4059 8.98178 1.22491 8.98245 1.03647C8.98312 0.848034 9.05861 0.667579 9.19233 0.534803C9.32604 0.402029 9.50703 0.32781 9.69547 0.328477C9.88391 0.329143 10.0644 0.404638 10.1971 0.538355H10.1758Z" fill="white"/>
</svg>
