<svg width="103" height="138" viewBox="0 0 103 138" fill="none" xmlns="http://www.w3.org/2000/svg">
<path d="M24.4487 48.7289C25.9266 48.7289 27.1247 47.5306 27.1247 46.0529C27.1247 41.6261 30.7262 38.0247 35.1529 38.0247C36.6309 38.0247 37.8289 36.8263 37.8289 35.3486C37.8289 33.8709 36.6309 32.6726 35.1529 32.6726C30.7262 32.6726 27.1247 29.0711 27.1247 24.6444C27.1247 23.1667 25.9266 21.9683 24.4487 21.9683C22.9707 21.9683 21.7726 23.1667 21.7726 24.6444C21.7726 29.0711 18.1712 32.6726 13.7444 32.6726C12.2664 32.6726 11.0684 33.8709 11.0684 35.3486C11.0684 36.8263 12.2664 38.0247 13.7444 38.0247C18.1712 38.0247 21.7726 41.6261 21.7726 46.0529C21.7726 47.5306 22.9707 48.7289 24.4487 48.7289ZM21.7632 35.3486C22.7801 34.5849 23.6849 33.6801 24.4487 32.6632C25.2124 33.6801 26.1172 34.5849 27.1341 35.3486C26.1172 36.1124 25.2124 37.0171 24.4487 38.034C23.6849 37.0171 22.7801 36.1124 21.7632 35.3486Z" fill="#DFB446"/>
<path d="M88.6744 87.7993C84.2476 87.7993 80.6462 84.1979 80.6462 79.7712C80.6462 78.2934 79.4481 77.0951 77.9701 77.0951C76.4921 77.0951 75.2941 78.2934 75.2941 79.7712C75.2941 84.1979 71.6926 87.7993 67.2659 87.7993C65.7879 87.7993 64.5898 88.9977 64.5898 90.4754C64.5898 91.9531 65.7879 93.1514 67.2659 93.1514C71.6926 93.1514 75.2941 96.7529 75.2941 101.18C75.2941 102.657 76.4921 103.856 77.9701 103.856C79.4481 103.856 80.6462 102.657 80.6462 101.18C80.6462 96.7529 84.2476 93.1514 88.6744 93.1514C90.1524 93.1514 91.3504 91.9531 91.3504 90.4754C91.3504 88.9977 90.1524 87.7993 88.6744 87.7993ZM77.9701 93.1608C77.2064 92.1439 76.3016 91.2391 75.2847 90.4754C76.3016 89.7116 77.2064 88.8069 77.9701 87.79C78.7339 88.8069 79.6387 89.7116 80.6556 90.4754C79.6387 91.2391 78.7339 92.1439 77.9701 93.1608Z" fill="#DFB446"/>
<path d="M83.3221 27.3204C81.8441 27.3204 80.6461 28.5188 80.6461 29.9965V32.6726H77.97C76.492 32.6726 75.2939 33.8709 75.2939 35.3486C75.2939 36.8263 76.492 38.0247 77.97 38.0247H80.6461V40.7007C80.6461 42.1784 81.8441 43.3768 83.3221 43.3768C84.8001 43.3768 85.9982 42.1784 85.9982 40.7007V38.0247H88.6742C90.1522 38.0247 91.3503 36.8263 91.3503 35.3486C91.3503 33.8709 90.1522 32.6726 88.6742 32.6726H85.9982V29.9965C85.9982 28.5188 84.8001 27.3204 83.3221 27.3204Z" fill="#DFB446"/>
<path d="M24.4491 82.4473C22.9711 82.4473 21.773 83.6456 21.773 85.1233V87.7994H19.097C17.619 87.7994 16.4209 88.9977 16.4209 90.4754C16.4209 91.9532 17.619 93.1515 19.097 93.1515H21.773V95.8276C21.773 97.3053 22.9711 98.5036 24.4491 98.5036C25.9271 98.5036 27.1251 97.3053 27.1251 95.8276V93.1515H29.8012C31.2792 93.1515 32.4772 91.9532 32.4772 90.4754C32.4772 88.9977 31.2792 87.7994 29.8012 87.7994H27.1251V85.1233C27.1251 83.6456 25.9271 82.4473 24.4491 82.4473Z" fill="#DFB446"/>
<path d="M3.04032 60.236C4.51826 60.236 5.71637 59.0379 5.71637 57.5599C5.71637 56.082 4.51826 54.8839 3.04032 54.8839C1.56237 54.8839 0.364258 56.082 0.364258 57.5599C0.364258 59.0379 1.56237 60.236 3.04032 60.236Z" fill="black"/>
<path d="M99.3784 0.559875H3.04032C1.56233 0.559875 0.364258 1.75821 0.364258 3.23593V45.5177C0.364258 46.9954 1.56233 48.1937 3.04032 48.1937C4.5183 48.1937 5.71637 46.9954 5.71637 45.5177V5.91199H66.157L43.9647 28.1043C42.9197 29.1493 42.9197 30.8438 43.9647 31.889C45.01 32.934 46.7042 32.934 47.7495 31.889L73.7265 5.91199H81.2931L46.1805 41.0243C45.1355 42.0693 45.1355 43.7638 46.1805 44.809C47.2258 45.854 48.92 45.854 49.9653 44.809L88.8623 5.91199H96.7024V109.208H59.2375V95.8276C59.2375 94.3498 58.0395 93.1515 56.5615 93.1515H53.8854V82.4473H56.5615C60.9882 82.4473 64.5897 78.8458 64.5897 74.4191V71.743H77.97C79.448 71.743 80.646 70.5447 80.646 69.067V58.3627C80.646 56.885 79.448 55.6867 77.97 55.6867H24.4488C22.9708 55.6867 21.7727 56.885 21.7727 58.3627V69.067C21.7727 70.5447 22.9708 71.743 24.4488 71.743H37.8291V74.4191C37.8291 78.8458 41.4305 82.4473 45.8573 82.4473H48.5333V93.1515H45.8573C44.3793 93.1515 43.1812 94.3498 43.1812 95.8276V109.208H5.71637V69.6022C5.71637 68.1245 4.5183 66.9261 3.04032 66.9261C1.56233 66.9261 0.364258 68.1245 0.364258 69.6022V111.884C0.364258 113.362 1.56233 114.56 3.04032 114.56H43.1812V129.546C43.1812 133.973 46.7826 137.574 51.2094 137.574C55.6361 137.574 59.2375 133.973 59.2375 129.546V114.56H99.3784C100.856 114.56 102.054 113.362 102.054 111.884V3.23593C102.054 1.75821 100.856 0.559875 99.3784 0.559875ZM27.1248 61.0388H75.2939V66.3909H27.1248V61.0388ZM43.1812 74.4191V71.743H59.2375V74.4191C59.2375 75.8947 58.0371 77.0952 56.5615 77.0952H45.8573C44.3817 77.0952 43.1812 75.8947 43.1812 74.4191ZM53.8854 129.546C53.8854 131.021 52.685 132.222 51.2094 132.222C49.7338 132.222 48.5333 131.021 48.5333 129.546V98.5036H53.8854V129.546Z" fill="#1D465C"/>
</svg>
