<?xml version="1.0" encoding="utf-8"?>
<!-- Generator: Adobe Illustrator 26.0.1, SVG Export Plug-In . SVG Version: 6.00 Build 0)  -->
<svg version="1.1" id="Layer_1" xmlns="http://www.w3.org/2000/svg" xmlns:xlink="http://www.w3.org/1999/xlink" x="0px" y="0px"
	 viewBox="0 0 90 90" style="enable-background:new 0 0 90 90;" xml:space="preserve">
<style type="text/css">
	.st0{fill:#DFB446;}
	.st1{fill:#010101;}
	.st2{fill:#1F475D;}
</style>
<g>
	<path class="st0" d="M28.17,32.21c0.93,0,1.68-0.75,1.68-1.68c0-2.78,2.27-5.05,5.05-5.05c0.93,0,1.68-0.75,1.68-1.68
		s-0.75-1.68-1.68-1.68c-2.78,0-5.05-2.27-5.05-5.05c0-0.93-0.75-1.68-1.68-1.68c-0.93,0-1.68,0.75-1.68,1.68
		c0,2.78-2.27,5.05-5.05,5.05c-0.93,0-1.68,0.75-1.68,1.68s0.75,1.68,1.68,1.68c2.78,0,5.05,2.27,5.05,5.05
		C26.49,31.45,27.24,32.21,28.17,32.21z M26.48,23.79c0.64-0.48,1.21-1.05,1.69-1.69c0.48,0.64,1.05,1.21,1.69,1.69
		c-0.64,0.48-1.21,1.05-1.69,1.69C27.69,24.84,27.12,24.27,26.48,23.79z"/>
	<path class="st0" d="M68.56,56.78c-2.78,0-5.05-2.27-5.05-5.05c0-0.93-0.75-1.68-1.68-1.68s-1.68,0.75-1.68,1.68
		c0,2.78-2.27,5.05-5.05,5.05c-0.93,0-1.68,0.75-1.68,1.68c0,0.93,0.75,1.68,1.68,1.68c2.78,0,5.05,2.27,5.05,5.05
		c0,0.93,0.75,1.68,1.68,1.68s1.68-0.75,1.68-1.68c0-2.78,2.27-5.05,5.05-5.05c0.93,0,1.68-0.75,1.68-1.68
		C70.25,57.54,69.49,56.78,68.56,56.78z M61.83,60.15c-0.48-0.64-1.05-1.21-1.69-1.69c0.64-0.48,1.21-1.05,1.69-1.69
		c0.48,0.64,1.05,1.21,1.69,1.69C62.88,58.95,62.31,59.51,61.83,60.15z"/>
	<path class="st0" d="M65.2,18.74c-0.93,0-1.68,0.75-1.68,1.68v1.68h-1.68c-0.93,0-1.68,0.75-1.68,1.68s0.75,1.68,1.68,1.68h1.68
		v1.68c0,0.93,0.75,1.68,1.68,1.68s1.68-0.75,1.68-1.68v-1.68h1.68c0.93,0,1.68-0.75,1.68-1.68s-0.75-1.68-1.68-1.68h-1.68v-1.68
		C66.88,19.5,66.13,18.74,65.2,18.74z"/>
	<path class="st0" d="M28.17,53.42c-0.93,0-1.68,0.75-1.68,1.68v1.68H24.8c-0.93,0-1.68,0.75-1.68,1.68c0,0.93,0.75,1.68,1.68,1.68
		h1.68v1.68c0,0.93,0.75,1.68,1.68,1.68c0.93,0,1.68-0.75,1.68-1.68v-1.68h1.68c0.93,0,1.68-0.75,1.68-1.68
		c0-0.93-0.75-1.68-1.68-1.68h-1.68V55.1C29.85,54.17,29.1,53.42,28.17,53.42z"/>
	<circle class="st1" cx="14.7" cy="37.76" r="1.68"/>
	<path class="st2" d="M75.3,1.91H14.7c-0.93,0-1.68,0.75-1.68,1.68v26.59c0,0.93,0.75,1.68,1.68,1.68c0.93,0,1.68-0.75,1.68-1.68
		V5.28H54.4L40.44,19.24c-0.66,0.66-0.66,1.72,0,2.38c0.66,0.66,1.72,0.66,2.38,0L59.16,5.28h4.76L41.84,27.36
		c-0.66,0.66-0.66,1.72,0,2.38c0.66,0.66,1.72,0.66,2.38,0L68.68,5.28h4.93v64.97H50.05v-8.42c0-0.93-0.75-1.68-1.68-1.68h-1.68
		v-6.73h1.68c2.78,0,5.05-2.27,5.05-5.05v-1.68h8.42c0.93,0,1.68-0.75,1.68-1.68v-6.73c0-0.93-0.75-1.68-1.68-1.68H28.17
		c-0.93,0-1.68,0.75-1.68,1.68V45c0,0.93,0.75,1.68,1.68,1.68h8.42v1.68c0,2.78,2.27,5.05,5.05,5.05h1.68v6.73h-1.68
		c-0.93,0-1.68,0.75-1.68,1.68v8.42H16.39V45.34c0-0.93-0.75-1.68-1.68-1.68c-0.93,0-1.68,0.75-1.68,1.68v26.59
		c0,0.93,0.75,1.68,1.68,1.68h25.25v9.43c0,2.78,2.27,5.05,5.05,5.05s5.05-2.27,5.05-5.05v-9.43H75.3c0.93,0,1.68-0.75,1.68-1.68
		V3.6C76.98,2.67,76.23,1.91,75.3,1.91z M29.85,39.95h30.3v3.37h-30.3V39.95z M39.95,48.37v-1.68h10.1v1.68
		c0,0.93-0.76,1.68-1.68,1.68h-6.73C40.71,50.05,39.95,49.29,39.95,48.37z M46.68,83.04c0,0.93-0.76,1.68-1.68,1.68
		s-1.68-0.76-1.68-1.68V63.51h3.37V83.04z"/>
</g>
</svg>
