<svg width="56" height="56" viewBox="0 0 56 56" fill="none" xmlns="http://www.w3.org/2000/svg">
<path d="M28.4099 9.28601C29.649 9.29293 32.7489 9.3229 36.0437 9.45432L37.2132 9.50504C40.5289 9.65952 43.8423 9.92697 45.4874 10.3812C47.6801 10.9945 49.4018 12.779 49.9842 15.0432C50.9123 18.6399 51.0283 25.6537 51.0422 27.3529L51.0446 27.7034V28.1045C51.0283 29.8038 50.9123 36.8198 49.9842 40.4143C49.3948 42.6853 47.6708 44.4722 45.4874 45.0763C43.8423 45.5305 40.5289 45.7979 37.2132 45.9524L36.0437 46.0054C32.7489 46.1345 29.649 46.1668 28.4099 46.1714L27.8646 46.1737H27.273C24.651 46.1576 13.6852 46.04 10.1955 45.0763C8.00508 44.463 6.28109 42.6784 5.69869 40.4143C4.77056 36.8175 4.65455 29.8038 4.64062 28.1045V27.3529C4.65455 25.6537 4.77056 18.6376 5.69869 15.0432C6.28805 12.7721 8.01204 10.9853 10.1978 10.3835C13.6852 9.41743 24.6533 9.29984 27.2753 9.28601H28.4099ZM23.2008 19.6613V35.8007L37.1227 27.731L23.2008 19.6613Z" fill="white"/>
</svg>
