<svg width="56" height="56" viewBox="0 0 56 56" fill="none" xmlns="http://www.w3.org/2000/svg">
<path d="M28.4099 9.28613C29.649 9.29305 32.7489 9.32302 36.0437 9.45444L37.2132 9.50517C40.5289 9.65964 43.8423 9.9271 45.4874 10.3813C47.6801 10.9946 49.4018 12.7792 49.9842 15.0433C50.9123 18.6401 51.0283 25.6538 51.0422 27.353L51.0446 27.7035V28.1047C51.0283 29.8039 50.9123 36.8199 49.9842 40.4144C49.3948 42.6854 47.6708 44.4723 45.4874 45.0764C43.8423 45.5306 40.5289 45.798 37.2132 45.9525L36.0437 46.0056C32.7489 46.1347 29.649 46.1669 28.4099 46.1716L27.8646 46.1739H27.273C24.651 46.1577 13.6852 46.0401 10.1955 45.0764C8.00508 44.4631 6.28109 42.6785 5.69869 40.4144C4.77056 36.8176 4.65455 29.8039 4.64062 28.1047V27.353C4.65455 25.6538 4.77056 18.6378 5.69869 15.0433C6.28805 12.7722 8.01204 10.9854 10.1978 10.3836C13.6852 9.41755 24.6533 9.29997 27.2753 9.28613H28.4099ZM23.2008 19.6615V35.8008L37.1227 27.7311L23.2008 19.6615Z" fill="white"/>
</svg>
