<svg width="95" height="75" viewBox="0 0 95 75" fill="none" xmlns="http://www.w3.org/2000/svg">
<path d="M48.2017 0C50.7143 0.0140267 57.0007 0.074809 63.6823 0.341317L66.0538 0.444179C72.7778 0.757443 79.497 1.29981 82.8331 2.2209C87.2797 3.4646 90.771 7.0835 91.9521 11.6749C93.8342 18.9688 94.0695 33.1919 94.0977 36.6378L94.1024 37.3485V38.1621C94.0695 41.608 93.8342 55.8357 91.9521 63.125C90.7569 67.7304 87.2608 71.354 82.8331 72.579C79.497 73.5001 72.7778 74.0424 66.0538 74.3557L63.6823 74.4632C57.0007 74.7251 50.7143 74.7905 48.2017 74.7999L47.0959 74.8046H45.8961C40.579 74.7718 18.3415 74.5334 11.2646 72.579C6.82277 71.3353 3.32669 67.7164 2.14564 63.125C0.2635 55.8311 0.0282321 41.608 0 38.1621V36.6378C0.0282321 33.1919 0.2635 18.9641 2.14564 11.6749C3.3408 7.06947 6.83688 3.4459 11.2693 2.22557C18.3415 0.266507 40.5837 0.0280535 45.9008 0H48.2017ZM37.6381 21.0401V53.7691L65.8703 37.4046L37.6381 21.0401Z" fill="#FF0000"/>
</svg>
