<?xml version="1.0" encoding="utf-8"?>
<!-- Generator: Adobe Illustrator 26.0.1, SVG Export Plug-In . SVG Version: 6.00 Build 0)  -->
<svg version="1.1" id="Layer_1" xmlns="http://www.w3.org/2000/svg" xmlns:xlink="http://www.w3.org/1999/xlink" x="0px" y="0px"
	 viewBox="0 0 35 35" style="enable-background:new 0 0 35 35;" xml:space="preserve">
<style type="text/css">
	.st0{fill:none;stroke:#F79448;stroke-width:1.2;stroke-miterlimit:10;}
</style>
<g>
	<path class="st0" d="M32.7,15.41l-0.75,0c-0.37,0-0.71-0.25-0.79-0.61c-0.19-0.81-0.45-1.6-0.77-2.35
		c-0.07-0.18-0.01-0.38,0.16-0.47l1.37-0.79c0.18-0.1,0.24-0.33,0.14-0.51L30.51,8C30.41,7.82,30.18,7.76,30,7.86l-1.21,0.7
		c-0.33,0.19-0.74,0.13-1-0.15c-0.46-0.5-0.94-0.96-1.47-1.38c-0.31-0.25-0.38-0.69-0.18-1.03l0.68-1.18
		c0.11-0.18,0.04-0.41-0.14-0.51l-2.67-1.54c-0.18-0.11-0.41-0.04-0.51,0.14l-0.92,1.6c-0.09,0.16-0.28,0.22-0.45,0.16
		c-0.73-0.26-1.48-0.47-2.25-0.61c-0.38-0.07-0.65-0.41-0.65-0.79l0-1.35c0-0.24-0.2-0.44-0.44-0.44h-2.96
		c-0.24,0-0.44,0.2-0.44,0.44v1.73c0,0.19-0.14,0.34-0.32,0.37c-0.9,0.14-1.77,0.37-2.61,0.68c-0.17,0.06-0.36,0-0.46-0.16
		l-0.84-1.45c-0.1-0.18-0.33-0.24-0.51-0.14L8.01,4.49C7.83,4.59,7.76,4.82,7.87,5l0.81,1.4c0.09,0.16,0.05,0.37-0.09,0.48
		C7.85,7.47,7.17,8.11,6.56,8.82C6.44,8.97,6.25,9,6.09,8.91L4.83,8.18C4.65,8.08,4.42,8.14,4.32,8.32l-1.54,2.67
		c-0.11,0.18-0.04,0.41,0.14,0.51l1.17,0.67c0.16,0.1,0.23,0.3,0.16,0.47c-0.37,0.9-0.65,1.84-0.83,2.82
		c-0.03,0.18-0.19,0.31-0.37,0.31H2.3c-0.45,0-0.81,0.36-0.81,0.81v2.64c0,0.21,0.17,0.38,0.38,0.38h1.09
		c0.19,0,0.34,0.14,0.37,0.32c0.12,0.92,0.33,1.81,0.63,2.66c0.12,0.36-0.03,0.77-0.37,0.96l-0.49,0.28
		c-0.18,0.11-0.24,0.33-0.14,0.51L4.49,27c0.1,0.18,0.33,0.24,0.51,0.14l0.76-0.44c0.16-0.09,0.37-0.05,0.48,0.09
		c0.65,0.83,1.4,1.58,2.23,2.25c0.14,0.11,0.18,0.32,0.09,0.47l-0.38,0.66c-0.11,0.18-0.04,0.41,0.14,0.51l2.67,1.54
		c0.18,0.1,0.41,0.04,0.51-0.14l0.21-0.36c0.19-0.33,0.59-0.49,0.96-0.36c0.89,0.31,1.82,0.54,2.78,0.67
		c0.19,0.03,0.33,0.18,0.33,0.37v0.3c0,0.45,0.36,0.81,0.81,0.81h2.2c0.45,0,0.81-0.37,0.81-0.81v-0.39c0-0.18,0.13-0.33,0.31-0.37
		c1.05-0.19,2.07-0.5,3.02-0.91c0.18-0.08,0.38-0.01,0.47,0.15l0.42,0.73c0.11,0.18,0.33,0.24,0.51,0.14L27,30.51
		c0.18-0.11,0.24-0.33,0.14-0.51l-0.33-0.58c-0.19-0.32-0.13-0.74,0.14-0.99c0.67-0.62,1.28-1.3,1.82-2.03
		c0.11-0.16,0.32-0.2,0.49-0.11l0.92,0.53c0.18,0.1,0.41,0.04,0.51-0.14l1.54-2.66c0.11-0.18,0.04-0.41-0.14-0.51l-0.8-0.46
		c-0.32-0.19-0.48-0.57-0.37-0.93c0.25-0.82,0.42-1.67,0.52-2.54c0.02-0.19,0.18-0.33,0.37-0.33h1.33c0.21,0,0.37-0.17,0.37-0.38
		v-2.64C33.52,15.77,33.15,15.41,32.7,15.41z M17.5,27.28c-0.78,0-1.53-0.09-2.25-0.26c-0.2-0.05-0.33-0.23-0.33-0.43V22.1
		c0-0.15-0.08-0.29-0.22-0.37c-1.41-0.86-2.4-2.34-2.58-4.04c-0.21-1.99,0.67-3.79,2.11-4.89c0.29-0.22,0.7-0.01,0.7,0.35v4.01
		c0,0.69,0.56,1.25,1.25,1.25h2.85c0.57,0,1.04-0.46,1.04-1.04v-4.22c0-0.36,0.42-0.57,0.71-0.35c1.29,0.99,2.13,2.55,2.13,4.3
		c0,1.96-1.04,3.68-2.6,4.62c-0.13,0.08-0.22,0.22-0.22,0.37v4.49c0,0.2-0.14,0.38-0.33,0.43C19.03,27.19,18.28,27.28,17.5,27.28z"
		/>
	<path class="st0" d="M27.28,17.5c0,4.5-3.04,8.3-7.19,9.43v-5.08c1.68-0.92,2.82-2.7,2.82-4.75c0-2.06-1.15-3.84-2.84-4.76v5.46
		c0,0.33-0.27,0.6-0.6,0.6h-3.29c-0.69,0-1.25-0.56-1.25-1.25v-4.82c-1.85,1-3.05,3.04-2.81,5.34c0.18,1.79,1.27,3.34,2.79,4.17
		v5.08c-4.15-1.13-7.19-4.93-7.19-9.43c0-5.4,4.38-9.78,9.78-9.78C22.9,7.72,27.28,12.1,27.28,17.5z"/>
	<path class="st0" d="M22.91,17.1c0,2.05-1.14,3.83-2.82,4.75v5.08c-0.83,0.23-1.69,0.35-2.59,0.35c-0.9,0-1.76-0.12-2.58-0.35
		v-5.08c-1.52-0.83-2.61-2.38-2.79-4.17c-0.24-2.3,0.96-4.34,2.81-5.34v4.82c0,0.69,0.56,1.25,1.25,1.25h3.29
		c0.33,0,0.6-0.27,0.6-0.6v-5.46C21.76,13.26,22.91,15.05,22.91,17.1z"/>
	<path class="st0" d="M20.09,26.93c-0.83,0.23-1.69,0.35-2.59,0.35s-1.76-0.12-2.58-0.35"/>
</g>
</svg>
