<?xml version="1.0" encoding="utf-8"?>
<!-- Generator: Adobe Illustrator 26.0.1, SVG Export Plug-In . SVG Version: 6.00 Build 0)  -->
<svg version="1.1" id="Layer_1" xmlns="http://www.w3.org/2000/svg" xmlns:xlink="http://www.w3.org/1999/xlink" x="0px" y="0px"
	 viewBox="0 0 35 35" style="enable-background:new 0 0 35 35;" xml:space="preserve">
<style type="text/css">
	.st0{fill:none;stroke:#C22033;stroke-width:1.2;stroke-miterlimit:10;}
	.st1{fill:none;stroke:#C22033;stroke-width:1.2;stroke-linecap:round;stroke-miterlimit:10;}
</style>
<path class="st0" d="M21,29.6v0.3c0,1.8-1.4,3.2-3.2,3.2H6.4c-1.8,0-3.2-1.4-3.2-3.2v-2.3V6.3V5.2C3.2,3.4,4.7,2,6.4,2h11.3
	C19.6,2,21,3.4,21,5.2v1.1v2.8"/>
<line class="st0" x1="3.2" y1="6.3" x2="21" y2="6.3"/>
<line class="st1" x1="10.3" y1="30.5" x2="13.9" y2="30.5"/>
<g>
	<line class="st1" x1="5.3" y1="14.6" x2="11.2" y2="14.6"/>
	<line class="st1" x1="12.8" y1="14.6" x2="16.1" y2="14.6"/>
</g>
<g>
	<line class="st1" x1="5.2" y1="18.9" x2="8.7" y2="18.9"/>
	<line class="st1" x1="10.2" y1="18.9" x2="16.2" y2="18.9"/>
</g>
<line class="st1" x1="5.2" y1="23.2" x2="8.7" y2="23.2"/>
<line class="st1" x1="10.4" y1="23.2" x2="15.7" y2="23.2"/>
<line class="st1" x1="17.2" y1="23.2" x2="18.2" y2="23.2"/>
<line class="st1" x1="5.2" y1="10.3" x2="8.9" y2="10.3"/>
<line class="st1" x1="13.3" y1="10.3" x2="18.2" y2="10.3"/>
<line class="st1" x1="10.3" y1="10.3" x2="11.9" y2="10.3"/>
<line class="st0" x1="17.1" y1="27.5" x2="3.2" y2="27.5"/>
<g>
	<g>
		<path class="st0" d="M29.9,13.2c0.1,0,0.2,0.1,0.2,0.2c0,0.4-0.1,1.1-1.9,1.1c-1.5,0-4.4,0-5.9-1.2c-0.1-0.1-0.2-0.1-0.3,0.1
			c-0.3,0.6-1.1,2-2.1,2.1c-0.2,0-0.4-0.2-0.4-0.4v-2.4c0-0.9,0.2-1.9,0.8-2.7c0.4-0.6,1-1.2,1.9-1.5c2-0.6,3.9-0.3,5.1,1.1
			c0.3,0.3,0.6,0.7,0.8,1.2C28.6,11.8,29.1,13.2,29.9,13.2z"/>
		<path class="st0" d="M28.2,14.5C28.2,14.5,28.2,14.5,28.2,14.5c0.1,0.1,0.3,0.3,0.8,0.8c1.2,1.1,0.3,2-0.1,2.4
			c-0.1,0.1-0.2,0.2-0.2,0.4c-0.3,0.9-1.4,4.2-4.6,4c-3.7-0.3-4.2-2.9-4.9-4.6c-1-1-0.3-1.8,0.2-2.2"/>
	</g>
	<path class="st0" d="M26.6,21.3V23c-0.3,0.2-1.1,0.5-2.1,0.5c-1.1,0-1.9-0.4-2.2-0.5c0-0.5,0-1,0-1.5"/>
</g>
<path class="st0" d="M26.5,23.1l3.2,1.1c1.3,0.5,2.1,1.6,2.1,3v2.4h-6.2c0,0-0.6,0-1.2,0s-1.2,0-1.2,0h-6.2v-2.4
	c0-1.3,0.8-2.5,2.1-3l3.2-1.1"/>
</svg>
