<?xml version="1.0" encoding="utf-8"?>
<!-- Generator: Adobe Illustrator 26.0.1, SVG Export Plug-In . SVG Version: 6.00 Build 0)  -->
<svg version="1.1" id="Layer_1" xmlns="http://www.w3.org/2000/svg" xmlns:xlink="http://www.w3.org/1999/xlink" x="0px" y="0px"
	 viewBox="0 0 35 35" style="enable-background:new 0 0 35 35;" xml:space="preserve">
<style type="text/css">
	.st0{fill:none;stroke:#6467AF;stroke-width:1.1;stroke-linecap:round;stroke-miterlimit:10;}
	.st1{fill:#6467AF;}
	.st2{fill:none;stroke:#6467AF;stroke-width:1.1;stroke-miterlimit:10;}
</style>
<path class="st0" d="M13.6,33.2H5.3c-0.9,0-1.6-0.7-1.6-1.6V4.3c0-0.9,0.7-1.6,1.6-1.6h2.2"/>
<path class="st1" d="M10,4.9c0.3,0,0.6-0.2,0.6-0.6S10.3,3.8,10,3.8C9.7,3.8,9.5,4,9.5,4.3S9.7,4.9,10,4.9z"/>
<path class="st1" d="M18.6,4.9c0.3,0,0.6-0.2,0.6-0.6s-0.2-0.6-0.6-0.6C18.3,3.8,18,4,18,4.3S18.3,4.9,18.6,4.9z"/>
<path class="st2" d="M22.3,33.2h-5.4c-0.7,0-1.2-0.5-1.2-1.2v-5.7c0-0.7,0.5-1.2,1.2-1.2h5.4c0.7,0,1.2,0.5,1.2,1.2V32
	C23.5,32.7,23,33.2,22.3,33.2z"/>
<path class="st2" d="M30.6,33.2h-5.4c-0.7,0-1.2-0.5-1.2-1.2v-5.7c0-0.7,0.5-1.2,1.2-1.2h5.4c0.7,0,1.2,0.5,1.2,1.2V32
	C31.8,32.7,31.3,33.2,30.6,33.2z"/>
<line class="st2" x1="15.7" y1="31.2" x2="23.5" y2="31.2"/>
<line class="st2" x1="23.9" y1="31.2" x2="31.7" y2="31.2"/>
<line class="st0" x1="19.8" y1="25.1" x2="19.8" y2="27.3"/>
<path class="st0" d="M21.9,25.1v2.1c0,1.2-1,2.2-2.2,2.2h0c-1.2,0-2.2-1-2.2-2.2v-2.1"/>
<line class="st0" x1="27.8" y1="25.1" x2="27.8" y2="27.3"/>
<path class="st0" d="M30,25.1v2.1c0,1.2-1,2.2-2.2,2.2h0c-1.2,0-2.2-1-2.2-2.2v-2.1"/>
<path class="st2" d="M26.7,25.1h-5.4c-0.7,0-1.2-0.5-1.2-1.2v-5.7c0-0.7,0.5-1.2,1.2-1.2h5.4c0.7,0,1.2,0.5,1.2,1.2v5.7
	C27.9,24.5,27.3,25.1,26.7,25.1z"/>
<line class="st2" x1="19.9" y1="23.1" x2="27.7" y2="23.1"/>
<line class="st0" x1="23.8" y1="17" x2="23.8" y2="19.2"/>
<path class="st0" d="M26,17v2.1c0,1.2-1,2.2-2.2,2.2h0c-1.2,0-2.2-1-2.2-2.2V17"/>
<circle class="st2" cx="8.8" cy="19.3" r="1.1"/>
<circle class="st2" cx="8.8" cy="23.3" r="1.1"/>
<circle class="st2" cx="8.8" cy="27.3" r="1.1"/>
<line class="st0" x1="11.3" y1="18.3" x2="18.4" y2="18.3"/>
<line class="st0" x1="12.1" y1="4.3" x2="16.5" y2="4.3"/>
<line class="st0" x1="11.3" y1="19.9" x2="18.4" y2="19.9"/>
<line class="st0" x1="11.3" y1="21.5" x2="18.4" y2="21.5"/>
<line class="st0" x1="11.3" y1="25.2" x2="13.6" y2="25.2"/>
<line class="st0" x1="11.3" y1="26.8" x2="13.6" y2="26.8"/>
<line class="st0" x1="11.3" y1="28.4" x2="13.6" y2="28.4"/>
<circle class="st0" cx="14.3" cy="13.5" r="3.1"/>
<path class="st0" d="M12.8,13l1,1c0.1,0.1,0.3,0.1,0.4,0l1.7-1.6"/>
<path class="st0" d="M19.2,6.6H9.3c-1,0-1.8-0.8-1.8-1.8V3.6c0-1,0.8-1.8,1.8-1.8h9.9c1,0,1.8,0.8,1.8,1.8v1.2
	C21.1,5.8,20.2,6.6,19.2,6.6z"/>
<path class="st0" d="M19.8,6.6v1.5c0,0.3-0.3,0.6-0.6,0.6h-10c-0.3,0-0.6-0.3-0.6-0.6V6.6"/>
<path class="st0" d="M13.6,31.2H5.8c-0.4,0-0.7-0.3-0.7-0.7V5.9c0-0.4,0.3-0.7,0.7-0.7h1.4"/>
<path class="st0" d="M21.2,3.3H24c0.8,0,1.5,0.7,1.5,1.5V15"/>
<path class="st0" d="M21.1,5.2h1.5c0.4,0,0.8,0.3,0.8,0.8v8.9"/>
</svg>
