<?xml version="1.0" encoding="utf-8"?>
<!-- Generator: Adobe Illustrator 26.0.1, SVG Export Plug-In . SVG Version: 6.00 Build 0)  -->
<svg version="1.1" id="Layer_1" xmlns="http://www.w3.org/2000/svg" xmlns:xlink="http://www.w3.org/1999/xlink" x="0px" y="0px"
	 viewBox="0 0 35 35" style="enable-background:new 0 0 35 35;" xml:space="preserve">
<style type="text/css">
	.st0{fill:none;stroke:#4BB967;stroke-width:1.2;stroke-linecap:round;stroke-miterlimit:10;}
</style>
<g>
	<path class="st0" d="M28.6,22.4v8.9c0,0.8-0.7,1.5-1.5,1.5H7.9c-0.8,0-1.5-0.7-1.5-1.5V3.7c0-0.8,0.7-1.5,1.5-1.5H21l7.6,7.6v8.4"
		/>
	<path class="st0" d="M19.5,8.4H10c-0.4,0-0.8-0.3-0.8-0.7V5.6c0-0.4,0.3-0.7,0.8-0.7h11"/>
	<path class="st0" d="M28.6,9.7h-5.9c-0.9,0-1.6-0.7-1.6-1.6V2.5"/>
	<path class="st0" d="M12.9,15.7h-2.5c-0.5,0-1-0.4-1-1v-2.3c0-0.5,0.4-1,1-1h2.5c0.5,0,1,0.4,1,1v2.3
		C13.8,15.3,13.4,15.7,12.9,15.7z"/>
	<path class="st0" d="M12.9,22.7h-2.5c-0.5,0-1-0.4-1-1v-2.3c0-0.5,0.4-1,1-1h2.5c0.5,0,1,0.4,1,1v2.3
		C13.8,22.3,13.4,22.7,12.9,22.7z"/>
	<path class="st0" d="M12.9,29.8h-2.5c-0.5,0-1-0.4-1-1v-2.3c0-0.5,0.4-1,1-1h2.5c0.5,0,1,0.4,1,1v2.3
		C13.8,29.3,13.4,29.8,12.9,29.8z"/>
	<line class="st0" x1="16.1" y1="11.5" x2="26" y2="11.5"/>
	<line class="st0" x1="16.1" y1="13.4" x2="26" y2="13.4"/>
	<line class="st0" x1="16.1" y1="18.5" x2="26" y2="18.5"/>
	<line class="st0" x1="16.1" y1="20.4" x2="26" y2="20.4"/>
	<line class="st0" x1="16.1" y1="25.5" x2="26" y2="25.5"/>
	<line class="st0" x1="16.1" y1="27.4" x2="26" y2="27.4"/>
</g>
</svg>
