<?xml version="1.0" encoding="utf-8"?>
<!-- Generator: Adobe Illustrator 26.0.1, SVG Export Plug-In . SVG Version: 6.00 Build 0)  -->
<svg version="1.1" id="Layer_1" xmlns="http://www.w3.org/2000/svg" xmlns:xlink="http://www.w3.org/1999/xlink" x="0px" y="0px"
	 viewBox="0 0 35 35" style="enable-background:new 0 0 35 35;" xml:space="preserve">
<style type="text/css">
	.st0{fill:none;stroke:#C95D6A;stroke-width:1.2;stroke-miterlimit:10;}
</style>
<g>
	<path class="st0" d="M27.1,29.9H6.2c-1.2,0-2.3-1-2.3-2.3V6.7c0-1.2,1-2.3,2.3-2.3h20.9c1.2,0,2.3,1,2.3,2.3v20.9
		C29.4,28.9,28.3,29.9,27.1,29.9z"/>
	<path class="st0" d="M10.3,7.1L10.3,7.1c-0.8,0-1.5-0.7-1.5-1.5V3.4c0-0.8,0.7-1.5,1.5-1.5h0c0.8,0,1.5,0.7,1.5,1.5v2.2
		C11.7,6.4,11.1,7.1,10.3,7.1z"/>
	<path class="st0" d="M16.4,7.1L16.4,7.1c-0.8,0-1.5-0.7-1.5-1.5V3.4c0-0.8,0.7-1.5,1.5-1.5h0c0.8,0,1.5,0.7,1.5,1.5v2.2
		C17.9,6.4,17.2,7.1,16.4,7.1z"/>
	<path class="st0" d="M22.6,7.1L22.6,7.1c-0.8,0-1.5-0.7-1.5-1.5V3.4c0-0.8,0.7-1.5,1.5-1.5h0c0.8,0,1.5,0.7,1.5,1.5v2.2
		C24.1,6.4,23.4,7.1,22.6,7.1z"/>
	<line class="st0" x1="3.9" y1="10.2" x2="29.4" y2="10.2"/>
	<path class="st0" d="M11,16.1H9.5c-0.6,0-1.1-0.5-1.1-1.1v-1.5c0-0.6,0.5-1.1,1.1-1.1H11c0.6,0,1.1,0.5,1.1,1.1V15
		C12.1,15.6,11.6,16.1,11,16.1z"/>
	<path class="st0" d="M11,21.7H9.5c-0.6,0-1.1-0.5-1.1-1.1v-1.5c0-0.6,0.5-1.1,1.1-1.1H11c0.6,0,1.1,0.5,1.1,1.1v1.5
		C12.1,21.2,11.6,21.7,11,21.7z"/>
	<path class="st0" d="M11,27.4H9.5c-0.6,0-1.1-0.5-1.1-1.1v-1.5c0-0.6,0.5-1.1,1.1-1.1H11c0.6,0,1.1,0.5,1.1,1.1v1.5
		C12.1,26.9,11.6,27.4,11,27.4z"/>
	<path class="st0" d="M17.4,16.1h-1.5c-0.6,0-1.1-0.5-1.1-1.1v-1.5c0-0.6,0.5-1.1,1.1-1.1h1.5c0.6,0,1.1,0.5,1.1,1.1V15
		C18.4,15.6,18,16.1,17.4,16.1z"/>
	<path class="st0" d="M23.7,16.1h-1.5c-0.6,0-1.1-0.5-1.1-1.1v-1.5c0-0.6,0.5-1.1,1.1-1.1h1.5c0.6,0,1.1,0.5,1.1,1.1V15
		C24.8,15.6,24.3,16.1,23.7,16.1z"/>
	<polyline class="st0" points="30.1,26.6 30.3,26.6 30.3,33.1 14.7,33.1 14.7,26.6 15.1,26.6 	"/>
	<path class="st0" d="M30.3,26.5l-7.4,1.9c-0.2,0-0.3,0-0.5,0l-7.6-1.9c-0.5-0.1-0.8-0.5-0.8-1V21h17.1v4.5
		C31.1,26,30.8,26.4,30.3,26.5z"/>
	<circle class="st0" cx="22.6" cy="26.2" r="0.9"/>
	<path class="st0" d="M18.7,21v-1c0-0.3,0.2-0.5,0.5-0.5h6.6c0.3,0,0.5,0.2,0.5,0.5v1"/>
	<path class="st0" d="M28,21H16.8v-2.4c0-0.5,0.4-1,1-1H27c0.5,0,1,0.4,1,1V21z"/>
	<path class="st0" d="M17.2,18.2h-1.7c-0.3,0-0.6,0.3-0.6,0.6V21h1.9h0.7"/>
</g>
</svg>
