<?xml version="1.0" encoding="utf-8"?>
<!-- Generator: Adobe Illustrator 26.0.1, SVG Export Plug-In . SVG Version: 6.00 Build 0)  -->
<svg version="1.1" id="Layer_1" xmlns="http://www.w3.org/2000/svg" xmlns:xlink="http://www.w3.org/1999/xlink" x="0px" y="0px"
	 viewBox="0 0 35 35" style="enable-background:new 0 0 35 35;" xml:space="preserve">
<style type="text/css">
	.st0{fill:none;stroke:#692B86;stroke-width:1.2;}
	.st1{fill:none;stroke:#692B86;stroke-width:1.2;stroke-linecap:round;}
</style>
<g>
	<path class="st0" d="M21.3,12.6c0,2.1-1.8,3.8-4.1,3.8s-4.1-1.7-4.1-3.8c0-2.1,1.8-3.8,4.1-3.8S21.3,10.6,21.3,12.6z"/>
	<circle class="st0" cx="26.3" cy="16.3" r="2.3"/>
	<path class="st1" d="M24.8,26.2v-2.6c0-2.6-2.1-4.7-4.7-4.7h-4.7c-2.6,0-4.7,2.1-4.7,4.7v2.6"/>
	<path class="st1" d="M32.1,26.2v-1.8c0-1.9-1.5-3.4-3.4-3.4h-1.8"/>
	<path class="st0" d="M5.8,16.3c0,1.2,1.1,2.3,2.6,2.3c1.5,0,2.6-1.1,2.6-2.3s-1.1-2.3-2.6-2.3C6.9,13.9,5.8,15,5.8,16.3z"/>
	<path class="st1" d="M2.9,26.2v-1.8c0-1.9,1.5-3.4,3.4-3.4h1.8"/>
</g>
</svg>
