<?xml version="1.0" encoding="utf-8"?>
<!-- Generator: Adobe Illustrator 26.0.1, SVG Export Plug-In . SVG Version: 6.00 Build 0)  -->
<svg version="1.1" id="Layer_1" xmlns="http://www.w3.org/2000/svg" xmlns:xlink="http://www.w3.org/1999/xlink" x="0px" y="0px"
	 viewBox="0 0 35 35" style="enable-background:new 0 0 35 35;" xml:space="preserve">
<style type="text/css">
	.st0{clip-path:url(#SVGID_00000168802975863762364200000014023008408785405330_);}
	.st1{fill:#B47CA8;}
	.st2{fill:none;stroke:#B47CA8;stroke-width:1.2;stroke-miterlimit:10;}
	.st3{fill:none;stroke:#B47CA8;stroke-width:1.2;stroke-linecap:round;stroke-miterlimit:10;}
</style>
<g>
	<g>
		<defs>
			<rect id="SVGID_1_" x="22.2" y="23.2" width="4.9" height="7.8"/>
		</defs>
		<clipPath id="SVGID_00000054231704914849795110000001462184765240043935_">
			<use xlink:href="#SVGID_1_"  style="overflow:visible;"/>
		</clipPath>
		<g style="clip-path:url(#SVGID_00000054231704914849795110000001462184765240043935_);">
			<path class="st1" d="M22.2,24.2c0-0.3,0.2-0.5,0.5-0.5h3.9c0.3,0,0.5,0.2,0.5,0.5c0,0.3-0.2,0.5-0.5,0.5h-0.9
				c0.1,0.2,0.3,0.5,0.3,0.7h0.5c0.3,0,0.5,0.2,0.5,0.5c0,0.3-0.2,0.5-0.5,0.5H26c-0.2,0.9-0.9,1.6-1.9,1.7l2.2,1.6
				c0.2,0.2,0.3,0.5,0.1,0.7c-0.2,0.2-0.5,0.3-0.7,0.1L22.4,28c-0.2-0.1-0.2-0.3-0.2-0.5c0.1-0.2,0.3-0.3,0.5-0.3h1.2
				c0.5,0,0.9-0.3,1.1-0.7h-2.3c-0.3,0-0.5-0.2-0.5-0.5c0-0.3,0.2-0.5,0.5-0.5H25c-0.2-0.4-0.6-0.7-1.1-0.7h-1.2
				C22.4,24.7,22.2,24.5,22.2,24.2z"/>
		</g>
	</g>
	<g>
		<path class="st2" d="M20.7,31.8H6.6c-0.8,0-1.4-0.6-1.4-1.4V2.9c0-0.8,0.6-1.4,1.4-1.4h19.3c0.8,0,1.4,0.6,1.4,1.4v17.5"/>
		<circle class="st2" cx="12" cy="10.2" r="4.2"/>
		<polyline class="st2" points="14.3,9.1 12,11.4 9.8,9.1 		"/>
		<line class="st3" x1="19.5" y1="6.1" x2="23.7" y2="6.1"/>
		<line class="st3" x1="19.5" y1="9.8" x2="23.7" y2="9.8"/>
		<line class="st3" x1="19.5" y1="13.5" x2="23.7" y2="13.5"/>
		<line class="st3" x1="9.1" y1="20.6" x2="15.8" y2="20.6"/>
		<line class="st3" x1="9.1" y1="24.3" x2="15.8" y2="24.3"/>
		<line class="st3" x1="9.1" y1="28.1" x2="15.8" y2="28.1"/>
		<line class="st3" x1="8.8" y1="17.3" x2="23.7" y2="17.3"/>
		<circle class="st3" cx="25" cy="26.7" r="6.7"/>
	</g>
</g>
</svg>
