<?xml version="1.0" encoding="utf-8"?>
<!-- Generator: Adobe Illustrator 26.0.1, SVG Export Plug-In . SVG Version: 6.00 Build 0)  -->
<svg version="1.1" id="Layer_1" xmlns="http://www.w3.org/2000/svg" xmlns:xlink="http://www.w3.org/1999/xlink" x="0px" y="0px"
	 viewBox="0 0 35 35" style="enable-background:new 0 0 35 35;" xml:space="preserve">
<style type="text/css">
	.st0{fill:none;stroke:#629F43;stroke-width:1.2;stroke-miterlimit:10;}
</style>
<rect x="3" y="3" class="st0" width="29" height="29"/>
<line class="st0" x1="3" y1="7" x2="32" y2="7"/>
<line class="st0" x1="3" y1="28" x2="32" y2="28"/>
<g>
	<line class="st0" x1="13.6" y1="5.1" x2="18" y2="5.1"/>
	<line class="st0" x1="18.3" y1="5.1" x2="20.2" y2="5.1"/>
	<line class="st0" x1="20.5" y1="5.1" x2="21.4" y2="5.1"/>
</g>
<g>
	<path class="st0" d="M18,19.1l-2.5-3.5c-1-1.5-0.6-3.5,0.9-4.4l0,0c1-0.6,2.2-0.6,3.1,0l0,0c1.6,0.9,2,3,0.9,4.4L18,19.1z"/>
	<circle class="st0" cx="18" cy="13.7" r="1.2"/>
	<path class="st0" d="M18.1,18.7v2.1c0,0.4-0.3,0.7-0.7,0.7h-2c-0.4,0-0.7,0.3-0.7,0.7l0,0c0,0.4,0.3,0.7,0.7,0.7h6
		c0.4,0,0.7,0.3,0.7,0.7v0.5c0,0.4-0.3,0.7-0.7,0.7h-7.8c-0.4,0-0.7,0.3-0.7,0.7v0.2c0,0.4,0.3,0.7,0.7,0.7h3.6
		c0.4,0,0.7,0.3,0.7,0.7V28"/>
</g>
</svg>
