<?xml version="1.0" encoding="utf-8"?>
<!-- Generator: Adobe Illustrator 26.0.1, SVG Export Plug-In . SVG Version: 6.00 Build 0)  -->
<svg version="1.1" id="Layer_1" xmlns="http://www.w3.org/2000/svg" xmlns:xlink="http://www.w3.org/1999/xlink" x="0px" y="0px"
	 viewBox="0 0 35 35" style="enable-background:new 0 0 35 35;" xml:space="preserve">
<style type="text/css">
	.st0{fill:none;stroke:#5A5EAA;stroke-width:1.2;stroke-miterlimit:10;}
</style>
<g>
	<path class="st0" d="M32.4,19.9h-0.5c-0.2,0-0.4-0.2-0.5-0.4c-0.1-0.5-0.3-1-0.5-1.5c0-0.1,0-0.2,0.1-0.3l0.9-0.5
		C32,17.2,32,17.1,32,17l-1-1.7c-0.1-0.1-0.2-0.2-0.3-0.1l-0.8,0.4c-0.2,0.1-0.5,0.1-0.6-0.1c-0.3-0.3-0.6-0.6-0.9-0.9
		c-0.2-0.2-0.2-0.4-0.1-0.6l0.4-0.7c0.1-0.1,0-0.3-0.1-0.3l-1.7-1c-0.1-0.1-0.3,0-0.3,0.1l-0.6,1c-0.1,0.1-0.2,0.1-0.3,0.1
		c-0.5-0.2-0.9-0.3-1.4-0.4c-0.2,0-0.4-0.3-0.4-0.5l0-0.8c0-0.2-0.1-0.3-0.3-0.3h-1.9c-0.2,0-0.3,0.1-0.3,0.3v1.1
		c0,0.1-0.1,0.2-0.2,0.2c-0.6,0.1-1.1,0.2-1.6,0.4c-0.1,0-0.2,0-0.3-0.1l-0.5-0.9c-0.1-0.1-0.2-0.2-0.3-0.1l-1.7,1
		c-0.1,0.1-0.2,0.2-0.1,0.3l0.5,0.9c0.1,0.1,0,0.2-0.1,0.3c-0.5,0.4-0.9,0.8-1.3,1.2c-0.1,0.1-0.2,0.1-0.3,0.1l-0.8-0.5
		c-0.1-0.1-0.3,0-0.3,0.1l-1,1.7c-0.1,0.1,0,0.3,0.1,0.3l0.7,0.4c0.1,0.1,0.1,0.2,0.1,0.3c-0.2,0.6-0.4,1.2-0.5,1.8
		c0,0.1-0.1,0.2-0.2,0.2h-0.5c-0.3,0-0.5,0.2-0.5,0.5v1.7c0,0.1,0.1,0.2,0.2,0.2h0.7c0.1,0,0.2,0.1,0.2,0.2c0.1,0.6,0.2,1.1,0.4,1.7
		c0.1,0.2,0,0.5-0.2,0.6l-0.3,0.2c-0.1,0.1-0.2,0.2-0.1,0.3l1,1.7c0.1,0.1,0.2,0.2,0.3,0.1l0.5-0.3c0.1-0.1,0.2,0,0.3,0.1
		c0.4,0.5,0.9,1,1.4,1.4c0.1,0.1,0.1,0.2,0.1,0.3L17,29.2c-0.1,0.1,0,0.3,0.1,0.3l1.7,1c0.1,0.1,0.3,0,0.3-0.1l0.1-0.2
		c0.1-0.2,0.4-0.3,0.6-0.2c0.6,0.2,1.1,0.3,1.7,0.4c0.1,0,0.2,0.1,0.2,0.2v0.2c0,0.3,0.2,0.5,0.5,0.5h1.4c0.3,0,0.5-0.2,0.5-0.5
		v-0.2c0-0.1,0.1-0.2,0.2-0.2c0.7-0.1,1.3-0.3,1.9-0.6c0.1,0,0.2,0,0.3,0.1l0.3,0.5c0.1,0.1,0.2,0.2,0.3,0.1l1.7-1
		c0.1-0.1,0.2-0.2,0.1-0.3l-0.2-0.4c-0.1-0.2-0.1-0.5,0.1-0.6c0.4-0.4,0.8-0.8,1.1-1.3c0.1-0.1,0.2-0.1,0.3-0.1l0.6,0.3
		c0.1,0.1,0.3,0,0.3-0.1l1-1.7c0.1-0.1,0-0.3-0.1-0.3l-0.5-0.3c-0.2-0.1-0.3-0.4-0.2-0.6c0.2-0.5,0.3-1,0.3-1.6
		c0-0.1,0.1-0.2,0.2-0.2h0.8c0.1,0,0.2-0.1,0.2-0.2v-1.7C32.9,20.2,32.7,19.9,32.4,19.9z"/>
	<g>
		<circle class="st0" cx="22.8" cy="21.5" r="4.8"/>
		<circle class="st0" cx="22.8" cy="20.2" r="1.7"/>
		<path class="st0" d="M26.3,24.8C26,23.2,24.5,22,22.8,22c-1.7,0-3.1,1.2-3.5,2.8"/>
	</g>
	<path class="st0" d="M15.1,8.6h-0.3c-0.2,0-0.3-0.1-0.3-0.3c-0.1-0.3-0.2-0.7-0.3-1c0-0.1,0-0.2,0.1-0.2l0.6-0.3
		c0.1,0,0.1-0.1,0.1-0.2l-0.7-1.1c0-0.1-0.1-0.1-0.2-0.1l-0.5,0.3c-0.1,0.1-0.3,0.1-0.4-0.1c-0.2-0.2-0.4-0.4-0.6-0.6
		c-0.1-0.1-0.2-0.3-0.1-0.4L12.5,4c0-0.1,0-0.2-0.1-0.2l-1.1-0.7c-0.1,0-0.2,0-0.2,0.1l-0.4,0.7C10.7,4,10.6,4,10.5,4
		c-0.3-0.1-0.6-0.2-1-0.3c-0.2,0-0.3-0.2-0.3-0.3l0-0.6c0-0.1-0.1-0.2-0.2-0.2H7.9c-0.1,0-0.2,0.1-0.2,0.2v0.7
		c0,0.1-0.1,0.1-0.1,0.2C7.1,3.8,6.8,3.9,6.4,4C6.3,4,6.3,4,6.2,3.9L5.9,3.3c0-0.1-0.1-0.1-0.2-0.1L4.5,3.9C4.4,3.9,4.4,4,4.4,4.1
		l0.3,0.6c0,0.1,0,0.2,0,0.2C4.4,5.2,4.1,5.4,3.9,5.7c0,0.1-0.1,0.1-0.2,0L3.1,5.5c-0.1,0-0.2,0-0.2,0.1L2.3,6.7
		c0,0.1,0,0.2,0.1,0.2l0.5,0.3c0.1,0,0.1,0.1,0.1,0.2C2.7,7.8,2.6,8.2,2.5,8.6c0,0.1-0.1,0.1-0.2,0.1H2.1c-0.2,0-0.3,0.2-0.3,0.3
		v1.1c0,0.1,0.1,0.2,0.2,0.2h0.5c0.1,0,0.1,0.1,0.2,0.1c0.1,0.4,0.1,0.8,0.3,1.1c0.1,0.2,0,0.3-0.2,0.4l-0.2,0.1
		c-0.1,0-0.1,0.1-0.1,0.2L3,13.5c0,0.1,0.1,0.1,0.2,0.1l0.3-0.2c0.1,0,0.2,0,0.2,0c0.3,0.4,0.6,0.7,1,1c0.1,0,0.1,0.1,0,0.2
		l-0.2,0.3c0,0.1,0,0.2,0.1,0.2l1.1,0.7c0.1,0,0.2,0,0.2-0.1l0.1-0.2c0.1-0.1,0.3-0.2,0.4-0.2c0.4,0.1,0.8,0.2,1.2,0.3
		c0.1,0,0.1,0.1,0.1,0.2v0.1c0,0.2,0.2,0.3,0.3,0.3h0.9c0.2,0,0.3-0.2,0.3-0.3v-0.2c0-0.1,0.1-0.1,0.1-0.2c0.5-0.1,0.9-0.2,1.3-0.4
		c0.1,0,0.2,0,0.2,0.1l0.2,0.3c0,0.1,0.1,0.1,0.2,0.1l1.1-0.7c0.1,0,0.1-0.1,0.1-0.2l-0.1-0.2c-0.1-0.1-0.1-0.3,0.1-0.4
		c0.3-0.3,0.5-0.6,0.8-0.9c0-0.1,0.1-0.1,0.2,0l0.4,0.2c0.1,0,0.2,0,0.2-0.1l0.7-1.1c0-0.1,0-0.2-0.1-0.2l-0.3-0.2
		c-0.1-0.1-0.2-0.2-0.2-0.4c0.1-0.3,0.2-0.7,0.2-1.1c0-0.1,0.1-0.1,0.2-0.1h0.6c0.1,0,0.2-0.1,0.2-0.2V8.9
		C15.4,8.7,15.2,8.6,15.1,8.6z"/>
	<circle class="st0" cx="8.6" cy="9.6" r="3.3"/>
</g>
</svg>
