<svg width="110" height="110" viewBox="0 0 110 110" fill="none" xmlns="http://www.w3.org/2000/svg">
<rect width="110" height="110" fill="white"/>
<g clip-path="url(#clip0_95_1110)">
<path d="M75.6714 97.3162H34.3318C32.5749 97.3162 31.1519 95.8931 31.1519 94.1362C31.1519 92.3794 32.5749 90.9563 34.3318 90.9563H75.6712C77.428 90.9563 78.8511 92.3794 78.8511 94.1362C78.8513 95.8932 77.4282 97.3162 75.6714 97.3162Z" fill="#E7ECED"/>
<path d="M62.9495 78.2363V75.0564H47.0497V78.2363C47.0497 85.2673 44.5407 90.9562 37.5098 90.9562H72.4893C65.4585 90.9562 62.9495 85.2673 62.9495 78.2363Z" fill="#AFB6BB"/>
<path d="M96.3388 78.2363H13.6632C11.0285 78.2363 8.8916 76.0994 8.8916 73.4648V63.9265H101.11V73.4648C101.11 76.0994 98.9735 78.2363 96.3388 78.2363Z" fill="#E7ECED"/>
<path d="M59.7701 73.4667H50.2302C49.3525 73.4667 48.6401 72.7544 48.6401 71.8767C48.6401 70.999 49.3525 70.2866 50.2302 70.2866H59.7701C60.6478 70.2866 61.3602 70.999 61.3602 71.8767C61.3602 72.7544 60.6478 73.4667 59.7701 73.4667Z" fill="#AFB6BB"/>
<path d="M88.3905 8.27752H21.6115H13.6632C11.0285 8.27752 8.8916 10.4144 8.8916 13.0489V65.5167H21.6115H45.4612H64.5409H88.3906H101.11V13.0489C101.11 10.4144 98.9735 8.27734 96.3388 8.27734H88.3905V8.27752Z" fill="#495D72"/>
<path d="M94.7498 14.6375H51.8203V65.5168H94.7498V14.6375Z" fill="#28384C"/>
<path d="M55.002 14.6375H15.2524V65.5168H55.002V14.6375Z" fill="#EBBA16"/>
<path d="M32.7391 60.7467C32.5007 60.7467 32.2573 60.6926 32.0284 60.5797C31.2429 60.187 30.925 59.2314 31.3177 58.4459L36.0877 48.9061C36.4803 48.1206 37.4376 47.8027 38.2215 48.1954C39.007 48.588 39.3249 49.5437 38.9322 50.3292L34.1622 59.869C33.8839 60.4255 33.3227 60.7467 32.7391 60.7467Z" fill="white"/>
<path d="M21.6099 55.9769C21.2029 55.9769 20.7958 55.8211 20.4858 55.5111C19.8641 54.8893 19.8641 53.8845 20.4858 53.2629L25.2558 48.4929C25.876 47.8712 26.8839 47.8712 27.504 48.4929C28.1258 49.1147 28.1258 50.1195 27.504 50.7411L22.734 55.5111C22.4239 55.8211 22.017 55.9769 21.6099 55.9769Z" fill="white"/>
<path d="M26.3797 60.7469C25.9727 60.7469 25.5656 60.5911 25.2556 60.2811L20.4858 55.5111C19.8641 54.8894 19.8641 53.8845 20.4858 53.2629C21.106 52.6412 22.1139 52.6412 22.734 53.2629L27.504 58.0329C28.1258 58.6547 28.1258 59.6595 27.504 60.2811C27.1939 60.5911 26.7868 60.7469 26.3797 60.7469Z" fill="white"/>
<path d="M48.6402 55.9769C48.2331 55.9769 47.8261 55.8211 47.5161 55.5111L42.7461 50.7411C42.1243 50.1194 42.1243 49.1145 42.7461 48.4929C43.3662 47.8712 44.3742 47.8712 44.9943 48.4929L49.7643 53.2629C50.386 53.8847 50.386 54.8895 49.7643 55.5111C49.4541 55.8211 49.0472 55.9769 48.6402 55.9769Z" fill="white"/>
<path d="M43.8702 60.7469C43.4631 60.7469 43.0561 60.5911 42.7461 60.2811C42.1243 59.6594 42.1243 58.6545 42.7461 58.0329L47.5161 53.2629C48.1362 52.6412 49.1441 52.6412 49.7643 53.2629C50.386 53.8847 50.386 54.8896 49.7643 55.5111L44.9943 60.2811C44.6843 60.5911 44.2773 60.7469 43.8702 60.7469Z" fill="white"/>
<path d="M35.9201 33.7172C35.0424 33.7172 34.3301 33.0048 34.3301 32.1271V20.9973C34.3301 20.1196 35.0424 19.4072 35.9201 19.4072C36.7978 19.4072 37.5102 20.1196 37.5102 20.9973V32.1271C37.5102 33.0048 36.7978 33.7172 35.9201 33.7172Z" fill="white"/>
<path d="M35.9201 43.257C35.0424 43.257 34.3301 42.5446 34.3301 41.6669V38.487C34.3301 37.6093 35.0424 36.897 35.9201 36.897C36.7978 36.897 37.5102 37.6093 37.5102 38.487V41.6669C37.5102 42.5448 36.7978 43.257 35.9201 43.257Z" fill="white"/>
<path d="M77.2599 22.5873H61.3601C60.4824 22.5873 59.77 21.875 59.77 20.9973C59.77 20.1196 60.4824 19.4072 61.3601 19.4072H77.2599C78.1376 19.4072 78.8499 20.1196 78.8499 20.9973C78.8499 21.875 78.1376 22.5873 77.2599 22.5873Z" fill="#DD352E"/>
<path d="M88.3903 22.5873H83.6203C82.7426 22.5873 82.0303 21.875 82.0303 20.9973C82.0303 20.1196 82.7426 19.4072 83.6203 19.4072H88.3903C89.268 19.4072 89.9804 20.1196 89.9804 20.9973C89.9804 21.875 89.268 22.5873 88.3903 22.5873Z" fill="#366DB6"/>
<path d="M88.3903 28.9472H72.4904C71.6127 28.9472 70.9004 28.2348 70.9004 27.3571C70.9004 26.4794 71.6127 25.7671 72.4904 25.7671H88.3903C89.268 25.7671 89.9803 26.4794 89.9803 27.3571C89.9803 28.2348 89.268 28.9472 88.3903 28.9472Z" fill="#75348B"/>
<path d="M66.1301 28.9472H61.3601C60.4824 28.9472 59.77 28.2348 59.77 27.3571C59.77 26.4794 60.4824 25.7671 61.3601 25.7671H66.1301C67.0078 25.7671 67.7201 26.4794 67.7201 27.3571C67.7201 28.2348 67.0078 28.9472 66.1301 28.9472Z" fill="#57ABC1"/>
<path d="M77.2599 35.3073H61.3601C60.4824 35.3073 59.77 34.5949 59.77 33.7173C59.77 32.8396 60.4824 32.1272 61.3601 32.1272H77.2599C78.1376 32.1272 78.8499 32.8396 78.8499 33.7173C78.8499 34.5949 78.1376 35.3073 77.2599 35.3073Z" fill="#25AE88"/>
<path d="M88.3903 35.3073H83.6203C82.7426 35.3073 82.0303 34.5949 82.0303 33.7173C82.0303 32.8396 82.7426 32.1272 83.6203 32.1272H88.3903C89.268 32.1272 89.9804 32.8396 89.9804 33.7173C89.9804 34.5949 89.268 35.3073 88.3903 35.3073Z" fill="#F76363"/>
<path d="M88.3903 41.6672H72.4904C71.6127 41.6672 70.9004 40.9548 70.9004 40.0771C70.9004 39.1994 71.6127 38.4871 72.4904 38.4871H88.3903C89.268 38.4871 89.9803 39.1994 89.9803 40.0771C89.9803 40.9548 89.268 41.6672 88.3903 41.6672Z" fill="#BF5A45"/>
<path d="M66.1301 41.6672H61.3601C60.4824 41.6672 59.77 40.9548 59.77 40.0771C59.77 39.1994 60.4824 38.4871 61.3601 38.4871H66.1301C67.0078 38.4871 67.7201 39.1994 67.7201 40.0771C67.7201 40.9548 67.0078 41.6672 66.1301 41.6672Z" fill="#F2ECBF"/>
<path d="M88.3903 60.7468H72.4904C71.6127 60.7468 70.9004 60.0344 70.9004 59.1567C70.9004 58.279 71.6127 57.5667 72.4904 57.5667H88.3903C89.268 57.5667 89.9803 58.279 89.9803 59.1567C89.9803 60.0344 89.268 60.7468 88.3903 60.7468Z" fill="#25AE88"/>
<path d="M66.1301 60.7468H61.3601C60.4824 60.7468 59.77 60.0344 59.77 59.1567C59.77 58.279 60.4824 57.5667 61.3601 57.5667H66.1301C67.0078 57.5667 67.7201 58.279 67.7201 59.1567C67.7201 60.0344 67.0078 60.7468 66.1301 60.7468Z" fill="#DD352E"/>
<path d="M77.2599 48.0268H61.3601C60.4824 48.0268 59.77 47.3144 59.77 46.4367C59.77 45.559 60.4824 44.8467 61.3601 44.8467H77.2599C78.1376 44.8467 78.8499 45.559 78.8499 46.4367C78.8499 47.3144 78.1376 48.0268 77.2599 48.0268Z" fill="#75348B"/>
<path d="M88.3903 48.0268H83.6203C82.7426 48.0268 82.0303 47.3144 82.0303 46.4367C82.0303 45.559 82.7426 44.8467 83.6203 44.8467H88.3903C89.268 44.8467 89.9804 45.559 89.9804 46.4367C89.9804 47.3144 89.268 48.0268 88.3903 48.0268Z" fill="#EBBA16"/>
<path d="M88.3903 54.3869H72.4904C71.6127 54.3869 70.9004 53.6745 70.9004 52.7968C70.9004 51.9191 71.6127 51.2068 72.4904 51.2068H88.3903C89.268 51.2068 89.9803 51.9191 89.9803 52.7968C89.9803 53.6745 89.268 54.3869 88.3903 54.3869Z" fill="#ED8A19"/>
<path d="M66.1301 54.3869H61.3601C60.4824 54.3869 59.77 53.6745 59.77 52.7968C59.77 51.9191 60.4824 51.2068 61.3601 51.2068H66.1301C67.0078 51.2068 67.7201 51.9191 67.7201 52.7968C67.7201 53.6745 67.0078 54.3869 66.1301 54.3869Z" fill="#C5411E"/>
</g>
<defs>
<clipPath id="clip0_95_1110">
<rect width="92.2188" height="92.2188" fill="white" transform="translate(8.89062 6.6875)"/>
</clipPath>
</defs>
</svg>
