<svg width="110" height="110" viewBox="0 0 110 110" fill="none" xmlns="http://www.w3.org/2000/svg">
<rect width="110" height="110" fill="white"/>
<path d="M13.8354 57.375H58.1699V92.2092H13.8354V57.375Z" fill="#AAE1F9"/>
<path d="M9.08496 92.2095H62.9196V95.3762C62.9196 97.056 62.2523 98.6669 61.0646 99.8547C59.8768 101.042 58.2659 101.71 56.5861 101.71H15.4184C13.7387 101.71 12.1278 101.042 10.94 99.8547C9.75224 98.6669 9.08496 97.056 9.08496 95.3762V92.2095Z" fill="#F9E109"/>
<path d="M20.1689 70.042V57.375H13.8354V92.2092H58.1699V85.8757H36.0027C31.8033 85.8757 27.7759 84.2075 24.8065 81.2381C21.8371 78.2687 20.1689 74.2413 20.1689 70.042Z" fill="#57B7EB"/>
<path d="M18.5852 96.9596C17.3254 96.9596 16.1172 96.4591 15.2264 95.5683C14.3355 94.6775 13.8351 93.4693 13.8351 92.2095H9.08496V95.3762C9.08496 97.056 9.75224 98.6669 10.94 99.8547C12.1278 101.042 13.7387 101.71 15.4184 101.71H56.5861C57.9867 101.705 59.3463 101.236 60.4521 100.377C61.558 99.5175 62.3478 98.3157 62.6979 96.9596H18.5852Z" fill="#FCBC04"/>
<path d="M97.7536 58.9585H78.7532C77.0042 58.9585 75.5864 60.3763 75.5864 62.1252V81.1257C75.5864 82.8746 77.0042 84.2924 78.7532 84.2924H97.7536C99.5026 84.2924 100.92 82.8746 100.92 81.1257V62.1252C100.92 60.3763 99.5026 58.9585 97.7536 58.9585Z" fill="#C4F236"/>
<path d="M88.2521 76.3757C90.8755 76.3757 93.0022 74.249 93.0022 71.6256C93.0022 69.0022 90.8755 66.8755 88.2521 66.8755C85.6287 66.8755 83.502 69.0022 83.502 71.6256C83.502 74.249 85.6287 76.3757 88.2521 76.3757Z" fill="#57B7EB"/>
<path d="M80.3365 66.8754V58.9585H78.7532C77.9133 58.9585 77.1078 59.2921 76.5139 59.886C75.9201 60.4799 75.5864 61.2854 75.5864 62.1252V81.1257C75.5864 81.9656 75.9201 82.771 76.5139 83.3649C77.1078 83.9588 77.9133 84.2924 78.7532 84.2924H97.7536C98.5935 84.2924 99.399 83.9588 99.9929 83.3649C100.587 82.771 100.92 81.9656 100.92 81.1257V79.5423H93.0035C89.644 79.5423 86.4221 78.2078 84.0466 75.8323C81.6711 73.4567 80.3365 70.2348 80.3365 66.8754Z" fill="#A1D51C"/>
<path d="M89.8363 71.6255C90.7108 71.6255 91.4197 70.9166 91.4197 70.0421C91.4197 69.1676 90.7108 68.4587 89.8363 68.4587C88.9618 68.4587 88.2529 69.1676 88.2529 70.0421C88.2529 70.9166 88.9618 71.6255 89.8363 71.6255Z" fill="#AAE1F9"/>
<path d="M9.08496 24.1245H28.0854V49.4585H9.08496V24.1245Z" fill="#C4F236"/>
<path d="M47.0849 33.6247C54.0807 33.6247 59.7519 27.9535 59.7519 20.9577C59.7519 13.962 54.0807 8.29077 47.0849 8.29077C40.0892 8.29077 34.418 13.962 34.418 20.9577C34.418 27.9535 40.0892 33.6247 47.0849 33.6247Z" fill="#F89C8D"/>
<path d="M43.9199 25.708V16.2078L53.4202 20.9579L43.9199 25.708Z" fill="#AAE1F9"/>
<path d="M51.8358 28.8747C48.4764 28.8747 45.2545 27.5401 42.8789 25.1646C40.5034 22.7891 39.1689 19.5672 39.1689 16.2077C39.1648 14.0132 39.7382 11.8562 40.8314 9.95337C39.1631 10.9334 37.7415 12.2827 36.6757 13.8975C35.6098 15.5124 34.9281 17.3499 34.6828 19.2692C34.4375 21.1885 34.6351 23.1384 35.2605 24.9695C35.8859 26.8005 36.9225 28.4639 38.2906 29.8321C39.6588 31.2002 41.3222 32.2368 43.1532 32.8622C44.9843 33.4876 46.9342 33.6852 48.8535 33.4399C50.7728 33.1946 52.6103 32.5129 54.2252 31.447C55.84 30.3812 57.1893 28.9596 58.1693 27.2913C56.2355 28.3704 54.0499 28.9168 51.8358 28.8747Z" fill="#F8664F"/>
<path d="M97.7536 9.87427H78.7532C77.0042 9.87427 75.5864 11.2921 75.5864 13.041V32.0415C75.5864 33.7904 77.0042 35.2082 78.7532 35.2082H97.7536C99.5026 35.2082 100.92 33.7904 100.92 32.0415V13.041C100.92 11.2921 99.5026 9.87427 97.7536 9.87427Z" fill="#AAE1F9"/>
<path d="M80.3365 17.7911V9.87427H78.7532C77.9133 9.87427 77.1078 10.2079 76.5139 10.8018C75.9201 11.3957 75.5864 12.2011 75.5864 13.041V32.0415C75.5864 32.8813 75.9201 33.6868 76.5139 34.2807C77.1078 34.8746 77.9133 35.2082 78.7532 35.2082H97.7536C98.5935 35.2082 99.399 34.8746 99.9929 34.2807C100.587 33.6868 100.92 32.8813 100.92 32.0415V30.4581H93.0035C89.644 30.4581 86.4221 29.1235 84.0466 26.748C81.6711 24.3725 80.3365 21.1506 80.3365 17.7911Z" fill="#57B7EB"/>
<path d="M13.8351 35.2081V24.1245H9.08496V49.4585H28.0854V44.7083H23.3353C20.8157 44.7083 18.3993 43.7074 16.6176 41.9258C14.836 40.1442 13.8351 37.7277 13.8351 35.2081Z" fill="#A1D51C"/>
<path d="M34.5161 73.4709L40.0009 70.3042L46.3344 81.2738C46.7543 82.0011 46.8681 82.8655 46.6508 83.6767C46.4334 84.488 45.9027 85.1796 45.1754 85.5996C44.448 86.0195 43.5837 86.1333 42.7724 85.916C41.9612 85.6986 41.2695 85.1679 40.8496 84.4405L34.5161 73.4709Z" fill="#F8664F"/>
<path d="M44.0139 77.2464L40.008 70.2954L34.5137 73.4622L38.2663 79.954L41.0055 78.3706L44.0139 77.2464Z" fill="#CC5144"/>
<path d="M68.0655 65.0705L41.0057 75.2041L33.0889 61.4921L55.3986 43.125L68.0655 65.0705Z" fill="#C4F236"/>
<path d="M26.2381 65.4526L33.0941 61.4941L41.011 75.2061L34.155 79.1646C33.064 79.7945 31.7674 79.9652 30.5506 79.6392C29.3337 79.3131 28.2962 78.517 27.6663 77.426L24.4996 71.9412C23.8697 70.8502 23.699 69.5537 24.025 68.3368C24.351 67.12 25.1471 66.0825 26.2381 65.4526Z" fill="#F89C8D"/>
<path d="M21.7468 73.5214L24.4892 71.938L27.6559 77.4228L24.9135 79.0062C24.1862 79.4261 23.3219 79.5399 22.5106 79.3225C21.6994 79.1052 21.0077 78.5745 20.5878 77.8471C20.1678 77.1198 20.054 76.2554 20.2714 75.4442C20.4887 74.633 21.0195 73.9413 21.7468 73.5214Z" fill="#CC5144"/>
<path d="M42.843 70.3589C42.6791 70.4202 42.5202 70.4943 42.368 70.5806L39.3438 72.3223L41.0063 75.2041L68.0661 65.0705L66.0869 61.6504L42.843 70.3589Z" fill="#A1D51C"/>
<path d="M38.4712 72.8289C37.2111 73.5498 35.7772 73.9104 34.326 73.8713C32.8748 73.8321 31.4624 73.3947 30.2431 72.6069C29.0237 71.8191 28.0445 70.7112 27.4124 69.4044C26.7804 68.0975 26.5198 66.642 26.6592 65.197L26.2317 65.4504C25.6908 65.762 25.2167 66.1772 24.8364 66.6722C24.456 67.1672 24.177 67.7324 24.0153 68.3353C23.8535 68.9382 23.8122 69.5671 23.8936 70.186C23.9751 70.8049 24.1777 71.4017 24.49 71.9422L27.6567 77.4207C27.9684 77.9615 28.3836 78.4357 28.8786 78.816C29.3736 79.1963 29.9387 79.4753 30.5416 79.6371C31.1446 79.7988 31.7734 79.8402 32.3923 79.7587C33.0112 79.6773 33.608 79.4746 34.1485 79.1624L41.0045 75.2039L39.342 72.3222L38.4712 72.8289Z" fill="#F8664F"/>
<path d="M62.917 90.6262H59.7503V75.1091C59.7503 74.6892 59.5835 74.2865 59.2865 73.9895C58.9896 73.6926 58.5869 73.5258 58.1669 73.5258C57.747 73.5258 57.3442 73.6926 57.0473 73.9895C56.7504 74.2865 56.5835 74.6892 56.5835 75.1091V90.6262H15.4159V58.9587H28.5895C29.0095 58.9587 29.4122 58.7919 29.7091 58.495C30.0061 58.198 30.1729 57.7953 30.1729 57.3754C30.1729 56.9554 30.0061 56.5527 29.7091 56.2557C29.4122 55.9588 29.0095 55.792 28.5895 55.792H13.8325C13.4126 55.792 13.0098 55.9588 12.7129 56.2557C12.416 56.5527 12.2491 56.9554 12.2491 57.3754V90.6262H9.0824C8.66246 90.6262 8.25972 90.793 7.96278 91.0899C7.66584 91.3869 7.49902 91.7896 7.49902 92.2095V95.3763C7.49902 97.476 8.33312 99.4896 9.81782 100.974C11.3025 102.459 13.3162 103.293 15.4159 103.293H56.5835C58.6832 103.293 60.6969 102.459 62.1816 100.974C63.6663 99.4896 64.5004 97.476 64.5004 95.3763V92.2095C64.5004 91.7896 64.3336 91.3869 64.0366 91.0899C63.7397 90.793 63.337 90.6262 62.917 90.6262ZM61.3337 95.3763C61.3337 96.6361 60.8332 97.8443 59.9424 98.7351C59.0516 99.6259 57.8434 100.126 56.5835 100.126H53.4168V98.543C53.4168 98.1231 53.25 97.7204 52.953 97.4234C52.6561 97.1265 52.2534 96.9597 51.8334 96.9597C51.4135 96.9597 51.0108 97.1265 50.7138 97.4234C50.4169 97.7204 50.2501 98.1231 50.2501 98.543V100.126H21.7494V98.543C21.7494 98.1231 21.5825 97.7204 21.2856 97.4234C20.9887 97.1265 20.5859 96.9597 20.166 96.9597C19.7461 96.9597 19.3433 97.1265 19.0464 97.4234C18.7494 97.7204 18.5826 98.1231 18.5826 98.543V100.126H15.4159C14.1561 100.126 12.9479 99.6259 12.057 98.7351C11.1662 97.8443 10.6658 96.6361 10.6658 95.3763V93.7929H61.3337V95.3763Z" fill="#39519D"/>
<path d="M89.8358 17.791H93.0025C93.4225 17.791 93.8252 17.6242 94.1222 17.3273C94.4191 17.0303 94.5859 16.6276 94.5859 16.2076C94.5859 15.7877 94.4191 15.385 94.1222 15.088C93.8252 14.7911 93.4225 14.6243 93.0025 14.6243H89.8358C88.576 14.6243 87.3678 15.1247 86.477 16.0155C85.5861 16.9064 85.0857 18.1146 85.0857 19.3744V20.9578H83.5023C83.0824 20.9578 82.6796 21.1246 82.3827 21.4215C82.0858 21.7185 81.9189 22.1212 81.9189 22.5411C81.9189 22.9611 82.0858 23.3638 82.3827 23.6607C82.6796 23.9577 83.0824 24.1245 83.5023 24.1245H85.0857V28.8746C85.0857 29.2946 85.2525 29.6973 85.5494 29.9942C85.8464 30.2912 86.2491 30.458 86.6691 30.458C87.089 30.458 87.4917 30.2912 87.7887 29.9942C88.0856 29.6973 88.2524 29.2946 88.2524 28.8746V24.1245H89.8358C90.2557 24.1245 90.6585 23.9577 90.9554 23.6607C91.2524 23.3638 91.4192 22.9611 91.4192 22.5411C91.4192 22.1212 91.2524 21.7185 90.9554 21.4215C90.6585 21.1246 90.2557 20.9578 89.8358 20.9578H88.2524V19.3744C88.2524 18.9544 88.4193 18.5517 88.7162 18.2548C89.0131 17.9578 89.4159 17.791 89.8358 17.791Z" fill="#39519D"/>
<path d="M97.7506 8.29077H78.7501C77.4903 8.29077 76.2821 8.79123 75.3913 9.68205C74.5005 10.5729 74 11.7811 74 13.0409V16.2076C74 16.6276 74.1668 17.0303 74.4638 17.3272C74.7607 17.6242 75.1634 17.791 75.5834 17.791C76.0033 17.791 76.406 17.6242 76.703 17.3272C76.9999 17.0303 77.1667 16.6276 77.1667 16.2076V13.0409C77.1667 12.621 77.3336 12.2182 77.6305 11.9213C77.9274 11.6243 78.3302 11.4575 78.7501 11.4575H97.7506C98.1705 11.4575 98.5733 11.6243 98.8702 11.9213C99.1671 12.2182 99.3339 12.621 99.3339 13.0409V32.0413C99.3339 32.4613 99.1671 32.864 98.8702 33.161C98.5733 33.4579 98.1705 33.6247 97.7506 33.6247H78.7501C78.3302 33.6247 77.9274 33.4579 77.6305 33.161C77.3336 32.864 77.1667 32.4613 77.1667 32.0413V22.5411C77.1667 22.1212 76.9999 21.7184 76.703 21.4215C76.406 21.1246 76.0033 20.9577 75.5834 20.9577C75.1634 20.9577 74.7607 21.1246 74.4638 21.4215C74.1668 21.7184 74 22.1212 74 22.5411V32.0413C74 33.3012 74.5005 34.5094 75.3913 35.4002C76.2821 36.291 77.4903 36.7915 78.7501 36.7915H97.7506C99.0104 36.7915 100.219 36.291 101.109 35.4002C102 34.5094 102.501 33.3012 102.501 32.0413V13.0409C102.501 11.7811 102 10.5729 101.109 9.68205C100.219 8.79123 99.0104 8.29077 97.7506 8.29077Z" fill="#39519D"/>
<path d="M81.9189 71.6255C81.9189 72.8781 82.2904 74.1026 82.9863 75.1442C83.6823 76.1857 84.6714 76.9975 85.8287 77.4769C86.986 77.9562 88.2595 78.0816 89.488 77.8373C90.7166 77.5929 91.8451 76.9897 92.7309 76.1039C93.6166 75.2182 94.2198 74.0897 94.4642 72.8611C94.7086 71.6325 94.5832 70.3591 94.1038 69.2018C93.6244 68.0445 92.8127 67.0553 91.7711 66.3594C90.7296 65.6634 89.5051 65.292 88.2524 65.292C86.5727 65.292 84.9617 65.9593 83.774 67.147C82.5862 68.3348 81.9189 69.9457 81.9189 71.6255ZM91.4192 71.6255C91.4192 72.2518 91.2335 72.8641 90.8855 73.3848C90.5375 73.9056 90.0429 74.3115 89.4643 74.5512C88.8856 74.7909 88.2489 74.8536 87.6346 74.7314C87.0203 74.6092 86.4561 74.3076 86.0132 73.8647C85.5703 73.4218 85.2687 72.8576 85.1465 72.2433C85.0243 71.629 85.0871 70.9923 85.3267 70.4136C85.5664 69.835 85.9723 69.3404 86.4931 68.9924C87.0139 68.6445 87.6261 68.4587 88.2524 68.4587C89.0923 68.4587 89.8978 68.7924 90.4917 69.3863C91.0855 69.9801 91.4192 70.7856 91.4192 71.6255Z" fill="#39519D"/>
<path d="M97.7506 57.375H78.7501C77.4903 57.375 76.2821 57.8755 75.3913 58.7663C74.5005 59.6571 74 60.8653 74 62.1251V81.1256C74 82.3854 74.5005 83.5936 75.3913 84.4844C76.2821 85.3752 77.4903 85.8757 78.7501 85.8757H97.7506C99.0104 85.8757 100.219 85.3752 101.109 84.4844C102 83.5936 102.501 82.3854 102.501 81.1256V77.9588C102.501 77.5389 102.334 77.1362 102.037 76.8392C101.74 76.5423 101.337 76.3755 100.917 76.3755C100.497 76.3755 100.095 76.5423 99.7977 76.8392C99.5008 77.1362 99.3339 77.5389 99.3339 77.9588V81.1256C99.3339 81.5455 99.1671 81.9483 98.8702 82.2452C98.5733 82.5421 98.1705 82.7089 97.7506 82.7089H78.7501C78.3302 82.7089 77.9274 82.5421 77.6305 82.2452C77.3336 81.9483 77.1667 81.5455 77.1667 81.1256V62.1251C77.1667 61.7052 77.3336 61.3024 77.6305 61.0055C77.9274 60.7086 78.3302 60.5417 78.7501 60.5417H97.7506C98.1705 60.5417 98.5733 60.7086 98.8702 61.0055C99.1671 61.3024 99.3339 61.7052 99.3339 62.1251V71.6253C99.3339 72.0453 99.5008 72.448 99.7977 72.745C100.095 73.0419 100.497 73.2087 100.917 73.2087C101.337 73.2087 101.74 73.0419 102.037 72.745C102.334 72.448 102.501 72.0453 102.501 71.6253V62.1251C102.501 60.8653 102 59.6571 101.109 58.7663C100.219 57.8755 99.0104 57.375 97.7506 57.375Z" fill="#39519D"/>
<path d="M43.0777 27.0538C43.3297 27.21 43.6204 27.2923 43.9169 27.2913C44.1647 27.2898 44.4088 27.2302 44.6294 27.1172L54.1296 22.367C54.389 22.2342 54.6066 22.0323 54.7586 21.7837C54.9106 21.535 54.991 21.2493 54.991 20.9578C54.991 20.6664 54.9106 20.3807 54.7586 20.132C54.6066 19.8834 54.389 19.6815 54.1296 19.5486L44.6294 14.7985C44.3884 14.6771 44.1203 14.6192 43.8506 14.6305C43.5809 14.6418 43.3186 14.7219 43.0886 14.8631C42.8585 15.0043 42.6684 15.2019 42.5363 15.4373C42.4041 15.6726 42.3343 15.9378 42.3335 16.2077V25.708C42.333 25.977 42.401 26.2418 42.5312 26.4773C42.6614 26.7128 42.8495 26.9112 43.0777 27.0538ZM45.5002 18.7728L49.8703 20.9578L45.5002 23.1429V18.7728Z" fill="#39519D"/>
<path d="M47.0824 35.208C49.9008 35.208 52.656 34.3722 54.9994 32.8064C57.3429 31.2405 59.1694 29.0149 60.248 26.411C61.3266 23.8071 61.6088 20.9418 61.0589 18.1775C60.5091 15.4132 59.1518 12.8741 57.1589 10.8811C55.1659 8.88816 52.6268 7.53095 49.8625 6.9811C47.0982 6.43125 44.2329 6.71345 41.629 7.79202C39.0251 8.8706 36.7995 10.6971 35.2336 13.0406C33.6678 15.384 32.832 18.1392 32.832 20.9576C32.832 24.7371 34.3334 28.3617 37.0059 31.0341C39.6783 33.7066 43.303 35.208 47.0824 35.208ZM47.0824 9.87403C49.2745 9.87403 51.4174 10.5241 53.2401 11.7419C55.0628 12.9598 56.4834 14.6909 57.3223 16.7161C58.1612 18.7414 58.3807 20.9699 57.953 23.1199C57.5253 25.2699 56.4697 27.2448 54.9197 28.7949C53.3696 30.345 51.3947 31.4006 49.2447 31.8283C47.0947 32.2559 44.8661 32.0364 42.8409 31.1975C40.8156 30.3586 39.0846 28.938 37.8667 27.1153C36.6488 25.2927 35.9988 23.1498 35.9988 20.9576C35.9988 18.0181 37.1665 15.1989 39.2451 13.1203C41.3237 11.0418 44.1428 9.87403 47.0824 9.87403Z" fill="#39519D"/>
<path d="M62.9169 41.5415C63.1627 41.5415 63.4051 41.4843 63.625 41.3743C63.8448 41.2644 64.0361 41.1048 64.1836 40.9081L68.9337 34.5747C69.1856 34.2387 69.2938 33.8164 69.2344 33.4007C69.1751 32.985 68.953 32.6099 68.617 32.3579C68.2811 32.106 67.8588 31.9978 67.4431 32.0572C67.0273 32.1166 66.6523 32.3387 66.4003 32.6746L61.6502 39.0081C61.3982 39.3441 61.29 39.7663 61.3494 40.1821C61.4088 40.5978 61.6309 40.9729 61.9669 41.2248C62.2409 41.4304 62.5743 41.5415 62.9169 41.5415Z" fill="#39519D"/>
<path d="M66.4012 47.2418C66.5486 47.4384 66.7399 47.598 66.9597 47.708C67.1796 47.8179 67.422 47.8751 67.6678 47.8751C68.0104 47.8751 68.3438 47.764 68.6179 47.5584L74.9514 42.8083C75.2873 42.5564 75.5094 42.1813 75.5688 41.7656C75.6282 41.3498 75.52 40.9276 75.268 40.5916C75.0161 40.2557 74.641 40.0336 74.2253 39.9742C73.8095 39.9148 73.3873 40.023 73.0513 40.2749L66.7178 45.025C66.3819 45.277 66.1598 45.6521 66.1004 46.0678C66.041 46.4835 66.1492 46.9058 66.4012 47.2418Z" fill="#39519D"/>
<path d="M81.9173 50.7251C81.8797 50.5152 81.8 50.315 81.6831 50.1367C81.5663 49.9583 81.4145 49.8054 81.2371 49.6871C81.0596 49.5688 80.8601 49.4875 80.6505 49.4482C80.4409 49.409 80.2255 49.4124 80.0173 49.4584L72.1004 51.0418C71.8925 51.0626 71.6907 51.1241 71.5065 51.2229C71.3224 51.3217 71.1595 51.4558 71.0272 51.6175C70.7599 51.9441 70.6334 52.3636 70.6754 52.7835C70.7174 53.2034 70.9245 53.5895 71.2511 53.8567C71.5777 54.124 71.9972 54.2505 72.4171 54.2085H72.7338L80.6506 52.6252C80.8605 52.5875 81.0607 52.5079 81.2391 52.391C81.4174 52.2741 81.5704 52.1224 81.6887 51.9449C81.807 51.7675 81.8882 51.568 81.9275 51.3584C81.9668 51.1487 81.9633 50.9334 81.9173 50.7251Z" fill="#39519D"/>
<path d="M9.0824 51.042H28.0829C28.5028 51.042 28.9055 50.8751 29.2025 50.5782C29.4994 50.2813 29.6662 49.8785 29.6662 49.4586V24.1246C29.6662 23.7047 29.4994 23.302 29.2025 23.005C28.9055 22.7081 28.5028 22.5413 28.0829 22.5413H9.0824C8.66246 22.5413 8.25972 22.7081 7.96278 23.005C7.66584 23.302 7.49902 23.7047 7.49902 24.1246V49.4586C7.49902 49.8785 7.66584 50.2813 7.96278 50.5782C8.25972 50.8751 8.66246 51.042 9.0824 51.042ZM10.6658 25.708H26.4995V47.8752H10.6658V25.708Z" fill="#39519D"/>
<path d="M21.7501 28.8745H18.5834C18.1634 28.8745 17.7607 29.0413 17.4638 29.3383C17.1668 29.6352 17 30.0379 17 30.4579C17 30.8778 17.1668 31.2806 17.4638 31.5775C17.7607 31.8744 18.1634 32.0413 18.5834 32.0413H21.7501C22.1701 32.0413 22.5728 31.8744 22.8697 31.5775C23.1667 31.2806 23.3335 30.8778 23.3335 30.4579C23.3335 30.0379 23.1667 29.6352 22.8697 29.3383C22.5728 29.0413 22.1701 28.8745 21.7501 28.8745Z" fill="#39519D"/>
<path d="M21.7489 35.2083H15.4154C14.9955 35.2083 14.5927 35.3751 14.2958 35.672C13.9989 35.9689 13.832 36.3717 13.832 36.7916C13.832 37.2116 13.9989 37.6143 14.2958 37.9112C14.5927 38.2082 14.9955 38.375 15.4154 38.375H21.7489C22.1688 38.375 22.5716 38.2082 22.8685 37.9112C23.1654 37.6143 23.3323 37.2116 23.3323 36.7916C23.3323 36.3717 23.1654 35.9689 22.8685 35.672C22.5716 35.3751 22.1688 35.2083 21.7489 35.2083Z" fill="#39519D"/>
<path d="M21.7489 41.5417H15.4154C14.9955 41.5417 14.5927 41.7086 14.2958 42.0055C13.9989 42.3024 13.832 42.7052 13.832 43.1251C13.832 43.5451 13.9989 43.9478 14.2958 44.2447C14.5927 44.5417 14.9955 44.7085 15.4154 44.7085H21.7489C22.1688 44.7085 22.5716 44.5417 22.8685 44.2447C23.1654 43.9478 23.3323 43.5451 23.3323 43.1251C23.3323 42.7052 23.1654 42.3024 22.8685 42.0055C22.5716 41.7086 22.1688 41.5417 21.7489 41.5417Z" fill="#39519D"/>
<path d="M61.5225 50.5666C61.4186 50.3857 61.28 50.2271 61.1147 50.0997C60.9494 49.9724 60.7607 49.8788 60.5593 49.8244C60.3578 49.77 60.1476 49.7558 59.9407 49.7826C59.7338 49.8095 59.5342 49.8768 59.3533 49.9808C59.1724 50.0847 59.0138 50.2233 58.8864 50.3886C58.7591 50.5539 58.6655 50.7426 58.6111 50.944C58.5567 51.1455 58.5425 51.3556 58.5694 51.5625C58.5962 51.7695 58.6635 51.9691 58.7675 52.15L65.7501 64.2311L40.4162 73.7313C40.4162 73.7313 40.4162 73.7313 40.3053 73.7313H40.1787L36.0619 76.1064L33.3227 77.6898C32.9621 77.8982 32.5639 78.0335 32.1509 78.0879C31.7379 78.1422 31.3182 78.1145 30.916 78.0064C30.1078 77.7881 29.419 77.2587 29.0001 76.5339L25.8333 71.0554C25.4608 70.3387 25.3762 69.5066 25.597 68.7296C25.8177 67.9525 26.3271 67.2892 27.0209 66.8753L32.4993 63.7086L36.4578 70.5646C36.5973 70.8062 36.7981 71.0067 37.04 71.1457C37.2819 71.2847 37.5563 71.3574 37.8353 71.3563C38.1138 71.3574 38.3876 71.285 38.6292 71.1465C38.8708 71.008 39.0715 70.8082 39.2113 70.5673C39.351 70.3264 39.4247 70.053 39.425 69.7745C39.4252 69.496 39.3521 69.2224 39.2128 68.9812L35.1277 61.9194L54.999 45.5315L55.6482 46.6557C55.7522 46.8366 55.8908 46.9952 56.056 47.1226C56.2213 47.2499 56.4101 47.3435 56.6115 47.3979C56.8129 47.4523 57.0231 47.4665 57.23 47.4396C57.4369 47.4128 57.6365 47.3455 57.8174 47.2415C57.9983 47.1376 58.157 46.999 58.2843 46.8337C58.4117 46.6684 58.5052 46.4797 58.5596 46.2782C58.614 46.0768 58.6282 45.8666 58.6014 45.6597C58.5746 45.4528 58.5073 45.2532 58.4033 45.0723L56.8199 42.3331C56.7039 42.1347 56.546 41.9639 56.3574 41.8327C56.1687 41.7015 55.9537 41.6129 55.7274 41.5731C55.4998 41.5302 55.2656 41.5377 55.0413 41.5952C54.817 41.6526 54.608 41.7586 54.429 41.9056L32.2618 60.1777L25.5167 64.0728C24.3062 64.7778 23.3636 65.8643 22.8365 67.1621C22.3093 68.46 22.2273 69.896 22.6033 71.2454L21.0199 72.148C20.2041 72.6165 19.5457 73.3166 19.1283 74.1598C18.711 75.0029 18.5533 75.9509 18.6754 76.8838C18.7976 77.8166 19.1939 78.6921 19.8143 79.3994C20.4346 80.1067 21.251 80.6138 22.1599 80.8565C22.5629 80.9632 22.9781 81.0165 23.3949 81.0148C24.2279 81.0114 25.0459 80.7933 25.77 80.3815L27.3534 79.479C28.114 80.2647 29.0705 80.8332 30.1243 81.1257C30.6653 81.277 31.225 81.3516 31.7868 81.3473C32.8998 81.3499 33.9931 81.0547 34.9536 80.4923L36.3311 79.7006L39.4978 85.1949C40.1272 86.283 41.1621 87.0773 42.376 87.4038C43.5898 87.7302 44.8836 87.5622 45.9738 86.9366C46.5147 86.625 46.9888 86.2098 47.3692 85.7148C47.7495 85.2198 48.0285 84.6547 48.1902 84.0517C48.352 83.4488 48.3933 82.8199 48.3119 82.201C48.2304 81.5821 48.0278 80.9854 47.7155 80.4448L44.8338 75.4255L68.5844 66.5112C68.7998 66.4302 68.9949 66.3033 69.1563 66.1392C69.3176 65.9751 69.4412 65.7779 69.5186 65.5611C69.5956 65.347 69.6256 65.1187 69.6065 64.8919C69.5874 64.6652 69.5196 64.4452 69.4077 64.2469L61.5225 50.5666ZM24.1233 77.6264C23.943 77.7307 23.7439 77.7983 23.5374 77.8255C23.3309 77.8526 23.1211 77.8388 22.9199 77.7848C22.5143 77.6794 22.1669 77.4175 21.9541 77.0564C21.8498 76.8761 21.7822 76.677 21.755 76.4705C21.7278 76.264 21.7417 76.0542 21.7957 75.853C21.8498 75.6509 21.9434 75.4614 22.0711 75.2956C22.1989 75.1298 22.3582 74.991 22.5399 74.8872L23.9174 74.0955L25.5008 76.8347L24.1233 77.6264ZM44.9605 82.0599C45.0647 82.2402 45.1323 82.4393 45.1595 82.6458C45.1867 82.8523 45.1728 83.0621 45.1188 83.2632C45.0059 83.6657 44.7384 84.0072 44.3746 84.2133C44.013 84.421 43.5839 84.4777 43.1807 84.3709C42.7775 84.2642 42.4327 84.0027 42.2212 83.6432L39.0545 78.1489L41.6829 76.6447H41.8096L44.9605 82.0599Z" fill="#39519D"/>
</svg>
