<svg width="110" height="110" viewBox="0 0 110 110" fill="none" xmlns="http://www.w3.org/2000/svg">
<rect width="110" height="110" fill="white"/>
<g clip-path="url(#clip0_95_1110)">
<path d="M45.3758 49.4035C45.3758 52.9162 48.5838 52.9162 48.5838 56.4454C48.5838 59.9746 45.3758 59.9746 45.3758 63.503C45.3758 67.0322 48.5838 67.0322 48.5838 70.577C48.5838 70.8018 48.5682 71.0102 48.5517 71.2185L45.5363 72.2288C44.2691 72.662 43.1303 73.3355 42.1677 74.2018V69.6145H13.295V96.8831C13.295 97.765 14.0172 98.4871 14.8991 98.4871H48.5838C48.5838 102.032 45.7125 104.903 42.1677 104.903H13.295C9.75019 104.903 6.87891 102.032 6.87891 98.4871V53.5741C6.87891 50.0292 9.75019 47.158 13.295 47.158H42.1677C43.4028 47.158 44.5737 47.5112 45.552 48.1205C45.44 48.4894 45.3758 48.9061 45.3758 49.4035Z" fill="#CCD1D9"/>
<path d="M13.2949 69.6147V96.8833C13.2949 97.7653 14.0171 98.4874 14.899 98.4874H38.9595V81.356C38.9595 80.6347 39.0394 79.9125 39.1999 79.239C39.6331 77.266 40.692 75.5014 42.1676 74.2021V69.6147H13.2949Z" fill="#FCD770"/>
<path d="M13.2949 53.574H42.1676V63.1982H13.2949V53.574Z" fill="#69D6F4"/>
<path d="M27.7318 47.158H16.2787C13.4396 44.2711 11.6914 40.3087 11.6914 35.9298C11.6914 27.0755 18.8775 19.8894 27.7318 19.8894C36.5861 19.8894 43.7721 27.0755 43.7721 35.9298C43.7721 40.3087 42.024 44.2711 39.1848 47.158H27.7318Z" fill="#FCD770"/>
<path d="M90.2889 98.4872H75.8526L74.2485 82.4468L77.0235 77.8109L80.6647 80.8428L83.8727 68.0105L93.5447 71.2342L96.5445 72.2289C100.475 73.5447 103.121 77.218 103.121 81.3558V98.4872H90.2889Z" fill="#E6E9ED"/>
<path d="M51.7918 98.4872H38.9595V81.3558C38.9595 80.6344 39.0394 79.9123 39.1999 79.2387C39.633 77.2658 40.692 75.5012 42.1675 74.2019C43.1301 73.3356 44.2689 72.662 45.5362 72.2289L48.5516 71.2186L58.2079 68.0105L61.416 80.8428L65.0572 77.8109L67.8321 82.4468L66.2281 98.4872H51.7918Z" fill="#E6E9ED"/>
<path d="M83.8728 68.0105L80.6647 80.8428L77.0235 77.811L71.0405 72.8226L79.0607 66.4065L83.8728 68.0105Z" fill="#AAB2BD"/>
<path d="M71.0403 72.8226L65.0573 77.811L61.4161 80.8428L58.208 68.0105L63.0201 66.4065L71.0403 72.8226Z" fill="#AAB2BD"/>
<path d="M77.0232 77.8108L71.0401 72.8225L65.0571 77.8108L67.8321 82.4467L66.228 98.4871H75.8523L74.2482 82.4467L77.0232 77.8108Z" fill="#FF826E"/>
<path d="M84.6586 37.5338C80.2953 37.5338 76.0283 36.6675 72.0668 35.0314C68.1209 33.3952 64.4954 30.9892 61.4158 27.9096C57.7104 28.84 55.096 32.128 55.0153 35.9297H54.9996C51.4548 35.9297 48.5835 38.801 48.5835 42.3459V31.1176C48.5835 18.7185 58.6408 8.66113 71.04 8.66113C77.2314 8.66113 82.8455 11.1792 86.9198 15.2378C90.9784 19.3121 93.4965 24.9263 93.4965 31.1176V42.3459C93.4965 40.5813 92.7744 38.9772 91.6199 37.8063C90.449 36.6519 88.8449 35.9297 87.0803 35.9297V37.5338H84.6586Z" fill="#B27946"/>
<path d="M93.4969 42.3459C93.4969 45.8751 96.7049 45.8751 96.7049 49.4035C96.7049 52.9163 93.4969 52.9163 93.4969 56.4455C93.4969 59.9747 96.7049 59.9747 96.7049 63.5031C96.7049 67.0323 93.4969 67.0323 93.4969 70.5771C93.4969 70.8019 93.5125 71.0259 93.5446 71.2342L83.8727 68.0105L79.0605 66.4065V61.0493C83.4239 58.5304 86.4714 54.023 87.0008 48.7621H87.0807C90.6256 48.7621 93.4969 45.8908 93.4969 42.3459Z" fill="#B27946"/>
<path d="M63.0199 61.0493V66.4065L58.2078 68.0105L48.5514 71.2186C48.5679 71.0102 48.5836 70.8019 48.5836 70.5771C48.5836 67.0323 45.3755 67.0323 45.3755 63.5031C45.3755 59.9747 48.5836 59.9747 48.5836 56.4455C48.5836 52.9163 45.3755 52.9163 45.3755 49.4035C45.3755 48.9062 45.4397 48.4895 45.5517 48.1206C46.2096 45.8109 48.5836 45.3778 48.5836 42.3459C48.5836 44.1105 49.3057 45.7146 50.4602 46.8855C51.6311 48.04 53.2351 48.7621 54.9997 48.7621H55.0796C55.4485 52.5474 57.1489 55.9481 59.6998 58.4983C60.6937 59.493 61.8012 60.3436 63.0199 61.0493Z" fill="#B27946"/>
<path d="M79.0604 61.0491V66.4063L71.0402 72.8224L63.02 66.4063V61.0491C65.3783 62.4119 68.1211 63.1982 71.0402 63.1982C73.9593 63.1982 76.7021 62.4119 79.0604 61.0491Z" fill="#F0D0B4"/>
<path d="M91.6204 37.8063C92.7749 38.9772 93.497 40.5812 93.497 42.3458C93.497 45.8907 90.6257 48.762 87.0809 48.762H87.001C87.0488 48.2325 87.0809 47.7031 87.0809 47.1579V35.9297C88.8455 35.9297 90.4495 36.6518 91.6204 37.8063Z" fill="#F0D0B4"/>
<path d="M72.0672 35.0315C76.0287 36.6676 80.2957 37.5339 84.659 37.5339H87.0807V47.1581C87.0807 47.7032 87.0486 48.2327 87.0008 48.7621C86.4714 54.023 83.4239 58.5305 79.0605 61.0493C76.7023 62.4121 73.9594 63.1984 71.0404 63.1984C68.1213 63.1984 65.3785 62.4121 63.0202 61.0493C61.8015 60.3436 60.694 59.493 59.7001 58.4983C57.1492 55.9482 55.4488 52.5474 55.0799 48.7621C55.0321 48.2327 55 47.7032 55 47.1581V36.1225C55 36.0583 55 35.9941 55.0157 35.9298C55.0963 32.1281 57.7107 28.8401 61.4161 27.9097C64.4958 30.9893 68.1213 33.3953 72.0672 35.0315Z" fill="#F0D0B4"/>
<path d="M54.9996 36.1224V47.1579C54.9996 47.7031 55.0317 48.2325 55.0795 48.762H54.9996C53.235 48.762 51.631 48.0398 50.4601 46.8854C49.3056 45.7145 48.5835 44.1104 48.5835 42.3458C48.5835 38.801 51.4548 35.9297 54.9996 35.9297H55.0153C54.9996 35.9939 54.9996 36.0581 54.9996 36.1224Z" fill="#F0D0B4"/>
<path d="M64.6246 40.742C64.6246 41.6278 63.9064 42.346 63.0205 42.346C62.1347 42.346 61.4165 41.6278 61.4165 40.742C61.4165 39.8562 62.1347 39.1379 63.0205 39.1379C63.9064 39.1379 64.6246 39.8562 64.6246 40.742Z" fill="black"/>
<path d="M80.6646 40.742C80.6646 41.6278 79.9464 42.346 79.0606 42.346C78.1748 42.346 77.4565 41.6278 77.4565 40.742C77.4565 39.8562 78.1748 39.1379 79.0606 39.1379C79.9464 39.1379 80.6646 39.8562 80.6646 40.742Z" fill="black"/>
<path d="M71.0407 53.5743C69.2714 53.5743 67.8326 52.1355 67.8326 50.3662H64.6245C64.6245 53.9048 67.5021 56.7824 71.0407 56.7824C74.5792 56.7824 77.4568 53.9048 77.4568 50.3662H74.2487C74.2487 52.1355 72.8099 53.5743 71.0407 53.5743Z" fill="black"/>
<path d="M97.048 70.7134L95.1541 70.0813C95.2724 69.2777 95.6672 68.8 96.2883 68.1178C97.1396 67.1795 98.309 65.895 98.309 63.5093C98.309 61.126 97.1396 59.8391 96.2883 58.9008C95.5465 58.0847 95.1009 57.5952 95.1009 56.4501C95.1009 55.3082 95.5465 54.8156 96.2859 54.0041C97.1396 53.0658 98.309 51.7821 98.309 49.3972C98.309 47.0123 97.1396 45.7302 96.2859 44.7919C95.5465 43.9805 95.1009 43.4878 95.1009 42.3459V31.1177C95.1009 17.8507 84.3073 7.05713 71.0404 7.05713C57.7734 7.05713 46.9798 17.8507 46.9798 31.1177V42.3459C46.9798 43.4878 46.5342 43.9805 45.7948 44.7919C45.4784 45.1389 45.1205 45.5344 44.7939 46.0129C44.0592 45.7576 43.2924 45.6104 42.5076 45.5767C44.3733 42.7328 45.3758 39.4041 45.3758 35.9298C45.3758 26.2014 37.4598 18.2854 27.7314 18.2854C18.003 18.2854 10.087 26.2014 10.087 35.9298C10.087 39.4073 11.0911 42.7407 12.9599 45.5877C8.69601 45.767 5.2749 49.2672 5.2749 53.5742V98.4872C5.2749 102.909 8.87302 106.507 13.2951 106.507H42.1677C46.0415 106.507 49.2817 103.746 50.0258 100.091H104.725V81.3628C104.725 76.5233 101.639 72.2422 97.048 70.7134ZM93.9159 46.9512C94.6552 47.7642 95.1009 48.2569 95.1009 49.3972C95.1009 50.5376 94.6552 51.0318 93.9159 51.8432C93.0622 52.7831 91.8928 54.0668 91.8928 56.4501C91.8928 58.8335 93.0622 60.1203 93.9135 61.0586C94.6552 61.8732 95.1009 62.3627 95.1009 63.5077C95.1009 64.6536 94.6552 65.1455 93.9135 65.9592C93.2642 66.6759 92.4332 67.5985 92.0737 69.0529L80.6646 65.2496V61.9264C84.6668 59.3105 87.535 55.1155 88.3989 50.2314C90.6287 49.8593 92.5523 48.5843 93.7585 46.775C93.8094 46.8338 93.8642 46.8949 93.9159 46.9512ZM71.0404 61.5943C63.0797 61.5943 56.604 55.1187 56.604 47.158V36.1271C56.604 33.2621 58.3671 30.7409 60.983 29.7267C67.4054 35.8029 75.7726 39.1378 84.6504 39.1378H85.4767V47.158C85.4767 55.1187 79.001 61.5943 71.0404 61.5943ZM71.0404 64.8024C73.3054 64.8024 75.464 64.3583 77.4565 63.5767V65.635L71.0404 70.7698L64.6242 65.635V63.5767C66.6167 64.3583 68.7753 64.8024 71.0404 64.8024ZM62.6991 68.2047L68.5043 72.8484L62.3529 77.9746L60.123 69.0623L62.6991 68.2047ZM69.2836 84.0508H72.7971L74.08 96.8831H68.0007L69.2836 84.0508ZM73.3407 80.8428H68.7416L67.1344 78.1657L71.0404 74.9107L74.9463 78.1657L73.3407 80.8428ZM73.5764 72.8484L79.3817 68.2047L81.9561 69.0623L79.7263 77.9746L73.5764 72.8484ZM88.6847 37.8291C90.5472 38.4932 91.8928 40.2578 91.8928 42.3459C91.8928 44.434 90.5472 46.1986 88.6847 46.8627V37.8291ZM71.0404 10.2652C82.538 10.2652 91.8928 19.62 91.8928 31.1177V35.9713C90.9561 35.2625 89.8768 34.7314 88.6847 34.4894V29.5136H85.4767V35.9298H84.6504C76.3012 35.9298 68.4534 32.6802 62.5502 26.7755L61.9088 26.134L61.0277 26.3549C57.0787 27.3418 54.1823 30.5655 53.5354 34.4745C52.2908 34.7056 51.1599 35.2351 50.1879 35.9713V31.1177C50.1879 19.62 59.5427 10.2652 71.0404 10.2652ZM50.1879 42.3459C50.1879 40.2578 51.5335 38.4932 53.396 37.8291V46.8612C51.5335 46.1986 50.1879 44.434 50.1879 42.3459ZM48.1648 46.9512C48.2165 46.8949 48.2729 46.8322 48.3254 46.7727C49.5253 48.5694 51.4403 49.8413 53.6795 50.2282C54.541 55.114 57.4108 59.3105 61.4146 61.928V65.2512L50.0054 69.0545C49.6459 67.6001 48.8149 66.6774 48.1648 65.9608C47.4255 65.1455 46.9798 64.6536 46.9798 63.5077C46.9798 62.3627 47.4255 61.8716 48.1672 61.0586C49.0185 60.1203 50.1879 58.8335 50.1879 56.4501C50.1879 54.0668 49.0185 52.7831 48.1648 51.8448C47.4255 51.0318 46.9798 50.5392 46.9798 49.3972C46.9798 48.2553 47.4255 47.7642 48.1648 46.9512ZM27.7314 21.4934C35.6921 21.4934 42.1677 27.9691 42.1677 35.9298C42.1677 39.5161 40.8496 42.9028 38.4701 45.554H29.3354V43.6547C31.1979 42.9905 32.5435 41.2259 32.5435 39.1378C32.5435 36.4851 30.3842 34.3257 27.7314 34.3257C26.8464 34.3257 26.1274 33.6067 26.1274 32.7217C26.1274 31.8367 26.8464 31.1177 27.7314 31.1177C28.6164 31.1177 29.3354 31.8367 29.3354 32.7217H32.5435C32.5435 30.6336 31.1979 28.869 29.3354 28.2049V24.7015H26.1274V28.2049C24.2649 28.869 22.9193 30.6336 22.9193 32.7217C22.9193 35.3745 25.0786 37.5338 27.7314 37.5338C28.6164 37.5338 29.3354 38.2528 29.3354 39.1378C29.3354 40.0229 28.6164 40.7419 27.7314 40.7419C26.8464 40.7419 26.1274 40.0229 26.1274 39.1378H22.9193C22.9193 41.2259 24.2649 42.9905 26.1274 43.6547V45.554H16.9927C14.6132 42.9028 13.2951 39.5161 13.2951 35.9298C13.2951 27.9691 19.7707 21.4934 27.7314 21.4934ZM46.9798 96.8831V98.4872C46.9798 101.14 44.8205 103.299 42.1677 103.299H13.2951C10.6423 103.299 8.48297 101.14 8.48297 98.4872V53.5742C8.48297 50.9214 10.6423 48.7621 13.2951 48.7621H42.1677C42.7277 48.7621 43.2744 48.8694 43.7929 49.0558C43.7874 49.1709 43.7718 49.2766 43.7718 49.3972C43.7718 51.7806 44.9411 53.0643 45.7948 54.0026C46.5342 54.8156 46.9798 55.3082 46.9798 56.4501C46.9798 57.5952 46.5342 58.0863 45.7925 58.8993C44.9411 59.8376 43.7718 61.1244 43.7718 63.5077C43.7718 65.8934 44.9411 67.1779 45.7925 68.1162C46.4136 68.8 46.8083 69.2777 46.9266 70.0797L45.0327 70.7118C44.5934 70.8575 44.1822 71.0517 43.7718 71.246V68.0105H11.691V96.8831C11.691 98.6524 13.1298 100.091 14.8991 100.091H43.7718V96.8831H40.5637V81.3628C40.5637 77.9057 42.7677 74.8472 46.0478 73.7546L57.0724 70.0797L60.4794 83.7109L64.6399 80.2444L66.1836 82.8173L64.7769 96.8831H53.396V96.2189L51.9862 94.8091C50.8427 93.6656 50.1879 92.0835 50.1879 90.467C50.1879 88.8504 50.8427 87.2683 51.9862 86.1248L53.396 84.715V80.8428H50.1879V83.3867L49.718 83.8566C47.9776 85.5969 46.9798 88.0061 46.9798 90.467C46.9798 92.8409 47.915 95.1585 49.5433 96.8831H46.9798ZM37.3556 96.8831H34.1475V90.467H37.3556V96.8831ZM24.5233 77.6347V71.2185H30.9395V77.6347H24.5233ZM30.9395 80.8428V87.2589H24.5233V80.8428H30.9395ZM21.3153 77.6347H14.8991V71.2185H21.3153V77.6347ZM14.8991 80.8428H21.3153V87.2589H14.8991V80.8428ZM14.8991 90.467H21.3153V96.8831H14.8991V90.467ZM24.5233 90.467H30.9395V96.8831H24.5233V90.467ZM37.3556 81.3628V87.2589H34.1475V80.8428H37.3971C37.3893 81.0174 37.3556 81.1858 37.3556 81.3628ZM38.0088 77.6347H34.1475V71.2185H40.5637V73.504C39.4202 74.6702 38.5539 76.0839 38.0088 77.6347ZM101.517 96.8831H92.5374C94.1657 95.1585 95.1009 92.8409 95.1009 90.467C95.1009 88.0061 94.1031 85.5969 92.3628 83.8566L91.8928 83.3867V80.8428H88.6847V84.715L90.0945 86.1248C91.238 87.2683 91.8928 88.8504 91.8928 90.467C91.8928 92.0835 91.238 93.6656 90.0945 94.8091L88.6847 96.2189V96.8831H77.3038L75.8971 82.8157L77.4408 80.2428L81.6013 83.7093L85.0083 70.0782L96.0329 73.7531C99.313 74.8488 101.517 77.9057 101.517 81.3628V96.8831Z" fill="black"/>
<path d="M11.6914 51.97V64.8023H43.7721V51.97H11.6914ZM40.564 61.5942H14.8995V55.178H40.564V61.5942Z" fill="black"/>
</g>
<defs>
<clipPath id="clip0_95_1110">
<rect width="99.4502" height="99.4502" fill="white" transform="translate(5.2749 7.05713)"/>
</clipPath>
</defs>
</svg>
