<svg width="110" height="110" viewBox="0 0 110 110" fill="none" xmlns="http://www.w3.org/2000/svg">
<rect width="110" height="110" fill="white"/>
<g clip-path="url(#clip0_95_1110)">
<mask id="mask0_95_1110" style="mask-type:luminance" maskUnits="userSpaceOnUse" x="4" y="4" width="102" height="102">
<path d="M4.94434 4.94288H105.059V105.057H4.94434V4.94288Z" fill="white"/>
</mask>
<g mask="url(#mask0_95_1110)">
<path d="M54.8976 5.13809C33.8259 5.14121 15.8022 18.1895 8.46315 36.6469C8.44046 36.704 8.41778 36.7611 8.39529 36.8182C4.6459 46.3507 8.08381 57.211 16.5802 62.9329L45.2152 85.4905C57.5706 95.2233 74.5124 97.0107 88.4775 89.7755C91.39 88.2665 93.7992 86.5525 95.2571 84.559C101.328 76.2577 104.9 66.0126 104.864 54.9316C104.775 27.4954 82.334 5.13417 54.8976 5.13809Z" fill="#00B7F0"/>
<path d="M66.0693 85.5991C66.0693 86.6843 66.9492 87.5642 68.0345 87.5642C69.1199 87.5642 69.9998 86.6843 69.9998 85.5991C69.9998 84.5137 69.1199 83.6339 68.0345 83.6339C66.9492 83.6339 66.0693 84.5137 66.0693 85.5991Z" fill="#0091C8"/>
<path d="M68.519 65.4594C68.8686 65.8099 76.7178 73.6812 77.0739 73.9528C80.163 76.38 84.8732 74.918 85.926 70.9787L90.8206 52.6639C94.9193 48.2436 98.7168 43.06 101.786 37.7989C97.8936 27.2542 90.5451 18.3853 81.1154 12.5621C77.1488 14.6576 73.1763 17.2008 69.5047 19.9823C66.0484 22.6001 63.91 24.6256 63.6871 24.8179L44.8101 29.8629C40.6276 30.9806 39.2583 36.1982 42.2955 39.2359L46.4407 43.381L50.5204 47.4607C50.5135 48.743 50.6494 49.9448 50.9257 51.1465L44.8815 57.1907C40.8959 56.9555 36.8317 58.3575 33.7866 61.4026C32.3629 62.8265 29.9764 62.3443 29.1675 60.5006C29.1155 60.3827 29.0619 60.2657 29.0063 60.1498C28.9891 60.1142 28.9706 60.0808 28.9514 60.0483C28.1691 58.4564 27.0381 57.067 25.6523 55.986C24.2951 54.9278 23.7384 53.1081 24.3237 51.4897C24.7816 50.2224 24.9918 48.8365 24.894 47.3899C24.2681 38.1139 11.9597 34.4325 6.54615 42.506C-1.69314 75.8286 47.1323 112.257 73.7089 101.425C81.3993 98.2906 88.5137 93.1059 94.0394 86.1241C97.7473 81.4389 91.2559 75.5406 86.9426 79.675C84.7985 81.7301 82.4699 83.5957 79.9843 85.246C78.9739 85.9169 77.7002 85.9194 76.6169 85.3743C75.7235 84.9247 74.6778 85.5366 74.5837 86.4904C74.4647 87.7043 73.7564 88.7844 72.6417 89.2795C70.6308 90.1727 68.5483 90.9353 66.4055 91.5594C65.2211 91.9046 63.9538 91.5061 63.1699 90.5536C63.1654 90.5483 63.161 90.5431 63.1567 90.5376C61.2854 88.2766 58.6046 86.6699 55.6221 86.1277C53.6135 85.7626 52.8169 83.3202 54.2606 81.8765C57.3056 78.8314 58.7078 74.7672 58.4726 70.7816L64.3254 64.9287C65.662 65.2828 67.0605 65.467 68.519 65.4594Z" fill="#0091C8"/>
<path d="M32.6825 54.3198C34.0833 54.3198 35.219 53.1842 35.219 51.7835C35.219 50.3827 34.0833 49.247 32.6825 49.247C31.2817 49.247 30.146 50.3827 30.146 51.7835C30.146 53.1842 31.2817 54.3198 32.6825 54.3198Z" fill="#0091C8"/>
<path d="M31.4142 43.5959C32.1146 43.5959 32.6825 43.0281 32.6825 42.3277C32.6825 41.6273 32.1146 41.0595 31.4142 41.0595C30.7138 41.0595 30.146 41.6273 30.146 42.3277C30.146 43.0281 30.7138 43.5959 31.4142 43.5959Z" fill="#0091C8"/>
<path d="M62.5797 91.7413C60.7752 92.0794 58.9495 91.3006 57.8506 89.8299C55.9162 87.2408 53.0672 85.4977 49.9279 84.9271C47.9192 84.5618 47.1228 82.1196 48.5662 80.6759C54.2201 75.0222 54.2201 65.8557 48.5662 60.202C42.9125 54.5483 33.746 54.5483 28.0922 60.202C26.6685 61.6257 24.2822 61.1435 23.4731 59.3C22.6824 57.4985 21.4491 55.9358 19.9108 54.7487C18.5497 53.6987 18.048 51.9005 18.6314 50.2834C19.088 49.0175 19.2972 47.6337 19.1999 46.1893C18.8663 41.2479 14.8906 37.243 9.95161 36.8783C9.41506 36.8386 8.88692 36.8423 8.36953 36.8842C6.159 42.5275 4.94434 48.6705 4.94434 55.0975C4.94434 82.6894 27.3119 105.057 54.9037 105.057C61.5521 105.057 67.8957 103.755 73.6976 101.397C73.7197 100.931 73.7092 100.459 73.6597 99.981C73.0807 94.3918 67.7578 90.7709 62.5797 91.7413Z" fill="white"/>
<path d="M23.3112 58.9494C22.6929 57.6607 20.7199 58.5406 21.2651 59.8618C21.4225 60.2435 21.6292 60.5636 21.8988 60.7718C23.4373 61.9587 24.6705 63.5217 25.4611 65.3229C26.2702 67.1664 28.6567 67.6486 30.0804 66.2249C35.7341 60.5712 44.9006 60.5712 50.5544 66.2249C51.4122 67.0829 52.1378 68.0225 52.7354 69.0176C52.4198 65.7996 51.0301 62.6672 48.5654 60.2022C42.9117 54.5485 33.7451 54.5485 28.0914 60.2022C26.6677 61.6259 24.2814 61.1437 23.4723 59.3002C23.4205 59.1821 23.3667 59.0652 23.3112 58.9494Z" fill="#F5F0F0"/>
<path d="M50.553 86.699C49.1094 88.1426 49.906 90.5849 51.9147 90.9501C55.0787 91.5252 57.948 93.2913 59.883 95.9142C60.9588 97.3723 62.7857 98.0979 64.5667 97.7642C66.8122 97.3436 69.0841 97.787 70.9847 98.8797C72.1308 99.5387 73.4448 98.3629 72.9053 97.156C71.1799 93.2975 66.9149 90.947 62.615 91.7346C60.8149 92.0643 58.9804 91.3637 57.8938 89.8911C56.7478 88.3376 55.2734 87.0854 53.6045 86.2027C52.6024 85.6728 51.368 85.8828 50.5671 86.6849L50.553 86.699Z" fill="#F5F0F0"/>
<path d="M9.3003 36.853C9.19412 36.8518 9.08834 36.8528 8.98294 36.8548C8.92037 36.8561 8.85741 36.8569 8.79503 36.8593C8.6521 36.8647 8.50975 36.8729 8.36818 36.8843C7.44095 39.2516 6.69146 41.7078 6.13086 44.2349C7.81599 43.2521 9.8128 42.7441 11.9392 42.9011C12.8053 42.9651 13.6414 43.141 14.4335 43.4144C16.4002 44.0927 17.9788 41.6626 16.5926 40.1237C16.5328 40.0582 16.4708 39.9947 16.409 39.9307C16.3681 39.8881 16.328 39.8447 16.2864 39.8029C16.2262 39.7426 16.164 39.6842 16.1022 39.6255C16.0541 39.5796 16.0066 39.533 15.9575 39.4882C15.8986 39.4341 15.8378 39.3817 15.7776 39.3291C15.7234 39.2816 15.6695 39.2338 15.6143 39.1875C15.5565 39.1392 15.4972 39.0923 15.4382 39.0452C15.3779 38.9969 15.3175 38.9486 15.2561 38.9018C15.1996 38.8584 15.1419 38.8166 15.0846 38.7747C15.0183 38.7264 14.9519 38.6781 14.8846 38.6316C14.8291 38.5931 14.7729 38.5557 14.7168 38.5184C14.6451 38.4707 14.5731 38.4237 14.5 38.3778C14.4458 38.3438 14.3911 38.3105 14.3361 38.2775C14.2591 38.2309 14.1813 38.1854 14.1028 38.1412C14.0499 38.1113 13.9965 38.0816 13.9429 38.0526C13.8608 38.0082 13.7781 37.965 13.6948 37.9228C13.6426 37.8962 13.59 37.87 13.5372 37.8444C13.4507 37.8025 13.3635 37.7622 13.2757 37.7229C13.2241 37.6997 13.1725 37.6764 13.1205 37.6541C13.0299 37.6152 12.9384 37.5784 12.8467 37.5423C12.7955 37.5221 12.7445 37.5016 12.6928 37.4822C12.599 37.447 12.5041 37.4142 12.4091 37.3817C12.3579 37.3643 12.3069 37.3461 12.2552 37.3295C12.1588 37.2984 12.0613 37.2699 11.9637 37.2417C11.9119 37.2267 11.8604 37.2108 11.8084 37.1968C11.7095 37.17 11.6096 37.1461 11.5097 37.1223C11.4574 37.1097 11.406 37.0962 11.3534 37.0847C11.2515 37.0622 11.1483 37.0429 11.0451 37.0235C10.9938 37.0139 10.943 37.0028 10.8916 36.994C10.7819 36.9752 10.671 36.96 10.5603 36.9449C10.5146 36.9385 10.4694 36.9306 10.4235 36.925C10.2666 36.906 10.109 36.89 9.95026 36.8784C9.78796 36.8663 9.62665 36.8598 9.46572 36.8555C9.41038 36.854 9.35544 36.8536 9.3003 36.853Z" fill="#F5F0F0"/>
<path d="M86.0106 48.1473L77.7227 39.8593L66.0693 60.2332L70.8566 72.2928C73.9072 75.3432 79.1159 73.9457 80.2296 69.7782L86.0106 48.1473Z" fill="#8757F3"/>
<path d="M71.3304 72.7168C73.2278 74.2406 75.5137 71.4577 73.7159 69.8172C73.6498 69.757 73.5847 69.6946 73.5206 69.6305C72.1673 68.2772 72.4875 66.0162 74.1523 65.0719C74.1934 65.0487 74.2345 65.0252 74.2755 65.0017C79.7734 61.8558 83.752 56.6031 85.3876 50.4832L86.012 48.1474L77.724 39.8594L60.7366 56.8467L58.0742 59.5091L66.7128 68.1477L70.8579 72.2929C71.0103 72.4452 71.1681 72.5864 71.3304 72.7168Z" fill="#6A2BC2"/>
<path d="M60.7448 22.8814L69.0328 31.1694L47.2366 39.8594L36.5993 38.0352C33.5489 34.9849 34.9464 29.7762 39.1138 28.6622L60.7448 22.8814Z" fill="#8757F3"/>
<path d="M36.1785 37.5629C34.6547 35.6655 37.4375 33.3797 39.0781 35.1774C39.1383 35.2435 39.2007 35.3088 39.2648 35.3729C40.6181 36.7263 42.8791 36.4058 43.8235 34.741C43.8466 34.6999 43.8701 34.659 43.8935 34.618C47.0395 29.1199 52.2922 25.1414 58.412 23.5057L60.7479 22.8815L69.0361 31.1693L52.0487 48.1567L49.3861 50.8191L40.7475 42.1805L36.6024 38.0354C36.4501 37.883 36.3089 37.7252 36.1785 37.5629Z" fill="#6A2BC2"/>
<path d="M83.2769 53.3873C69.2689 67.3953 57.9517 66.3652 50.3364 58.7497C42.7207 51.1341 44.0679 44.0558 58.0759 30.0478C72.0839 16.0398 93.4483 0.406522 101.064 8.02225C108.679 15.6376 97.2849 39.3793 83.2769 53.3873Z" fill="#FEC502"/>
<path d="M84.0464 29.308C83.4297 28.2869 82.7056 27.3994 81.9021 26.645C79.7734 24.6465 81.768 21.1 84.5517 21.9815C86.2796 22.5286 87.8834 23.4867 89.2087 24.8119L89.4248 25.0279C93.7315 29.3346 101.115 27.3423 102.622 21.4414C103.777 16.9222 104.022 12.4198 102.071 9.29535C97.4728 1.94458 83.8049 7.0373 76.1053 11.002C75.9506 11.0818 75.796 11.1619 75.6411 11.2431L75.6403 11.2435C68.5398 14.9651 61.3316 20.1749 55.6976 25.8089C41.6897 39.8169 42.7197 51.1339 50.3355 58.7494C51.5896 60.0038 52.9449 61.0779 54.3954 61.9373C51.671 57.3377 51.1219 51.7743 53.9523 45.3908C55.9139 40.9666 61.8036 39.9158 65.1193 43.4413C65.2036 43.5311 65.2896 43.6197 65.3772 43.7075C70.6197 48.95 79.5436 48.2674 83.8274 41.66C86.2438 37.9333 86.3428 33.1098 84.0464 29.308Z" fill="#FFA50A"/>
<path d="M99.5109 30.0476C103.777 20.734 105.125 12.0839 101.063 8.02189C97.0006 3.96002 91.0675 8.02423 81.7539 12.2906L99.5109 30.0476Z" fill="#8757F3"/>
<path d="M96.3711 23.2487L93.688 20.5658C91.3703 18.2481 92.3429 14.2932 95.4729 13.32C96.9456 12.862 98.373 12.5034 99.7371 12.2553C101.701 11.8982 102.496 9.47283 101.093 8.05285C101.083 8.04268 101.073 8.03251 101.063 8.02234C97.0008 3.96029 88.3507 5.30753 79.0371 9.57392L96.3711 26.908C97.3815 25.8976 97.3815 24.2592 96.3711 23.2487Z" fill="#6A2BC2"/>
<path d="M84.0995 41.7846C79.4608 46.4231 71.9403 46.4231 67.3016 41.7846C62.6631 37.1459 62.6631 29.6254 67.3016 24.9867C71.9403 20.3482 79.4608 20.3482 84.0995 24.9867C88.738 29.6254 88.738 37.1459 84.0995 41.7846Z" fill="white"/>
<path d="M32.4064 85.9396L27.5244 86.5665C26.5823 86.6874 25.7803 85.8855 25.9013 84.9434L26.5282 80.0614C27.1543 75.1842 29.3801 70.6525 32.8571 67.1754C36.2911 63.7416 41.8584 63.7416 45.2924 67.1754C48.7262 70.6094 48.7262 76.1767 45.2924 79.6105C41.8154 83.0875 37.2834 85.3133 32.4064 85.9396Z" fill="#F5F0F0"/>
<path d="M33.0811 81.5673L26.3369 82.4331C26.3369 82.4331 31.4818 68.0771 34.9589 64.6001C34.9589 64.6001 40.3891 59.5069 43.6817 61.1533C44.5063 61.5655 45.2794 62.1154 45.9669 62.8031C49.4007 66.2369 49.4009 71.8044 45.9671 75.2382C42.4903 78.7152 37.9582 80.941 33.0811 81.5673Z" fill="#FEC502"/>
<path d="M81.6364 39.325C78.3565 42.6049 73.0385 42.6049 69.7586 39.325C66.4785 36.0451 67.9405 32.6169 71.2205 29.3368C74.0905 26.4669 77.0588 24.2185 80.3189 26.3709C80.7847 26.6785 81.2264 27.0371 81.6364 27.4472C84.9164 30.7271 84.9164 36.0451 81.6364 39.325Z" fill="#00B7F0"/>
<path d="M47.9219 64.7588L39.1709 56.0078L45.2327 49.946L53.9837 58.697L47.9219 64.7588Z" fill="#6A2BC2"/>
<path d="M52.7588 69.5986L46.11 62.9498C44.436 61.2759 44.436 58.5618 46.11 56.888C47.7838 55.2141 50.4978 55.2141 52.1718 56.888L58.8206 63.5368L52.7588 69.5986Z" fill="#8757F3"/>
<path d="M75.9056 38.0405C76.6037 37.3422 76.6037 36.2103 75.9056 35.512L73.3598 32.9663C72.7999 32.4065 72.7696 31.4973 73.3105 30.9193C73.3259 30.9029 73.3412 30.8864 73.3566 30.8702C73.9221 30.2756 74.8765 30.2867 75.4569 30.8671L76.2271 31.6373C76.9003 32.3107 77.9965 32.3905 78.712 31.762C79.4959 31.0734 79.5248 29.8782 78.7988 29.152C78.4767 28.8302 78.6979 28.2833 79.1531 28.2678C79.1693 28.2672 79.1857 28.2666 79.2022 28.2662C80.4176 28.2318 80.8216 26.6161 79.7548 26.0326C76.6958 24.3598 72.744 24.701 70.0314 27.1871C66.4822 30.4396 66.3917 35.9567 69.7598 39.3248C69.9907 39.5555 70.2314 39.7698 70.4809 39.9677C70.9695 40.3552 71.6588 39.8779 71.4644 39.2855C71.4586 39.2679 71.4529 39.2503 71.4472 39.2329C71.0714 38.0626 72.508 37.1713 73.3772 38.0405C74.0754 38.7387 75.2074 38.7387 75.9056 38.0405Z" fill="#0091C8"/>
<path d="M33.5318 62.8031C30.0548 66.2801 27.829 70.8118 27.2027 75.6889L26.3369 82.4331C27.6935 82.2589 28.7623 81.1958 28.9463 79.8403C29.0625 78.9844 29.2152 78.0922 29.5118 76.982C29.8964 75.542 31.6917 75.0532 32.7454 76.1071L33.7919 77.1536C34.6212 77.9827 35.9653 77.9827 36.7946 77.1536C37.6236 76.3244 37.6236 74.9803 36.7946 74.1512L33.9333 71.2897C33.2075 70.5641 33.1498 69.4063 33.7999 68.6121L33.8144 68.5945C34.5566 67.6878 35.9191 67.6199 36.7478 68.4486L37.73 69.4308C38.5591 70.2598 39.9034 70.2598 40.7326 69.4308C41.5617 68.6017 41.5617 67.2574 40.7326 66.4283C39.9875 65.6831 40.515 64.3989 41.5688 64.4078C41.6034 64.408 41.6382 64.4086 41.6728 64.4092C43.9189 64.455 44.4777 61.3027 42.3319 60.6375C39.4143 59.7332 36.0365 60.2983 33.5318 62.8031Z" fill="#FFA50A"/>
<path d="M64.305 84.3984C64.305 85.4838 63.4251 86.3635 62.3398 86.3635C61.2544 86.3635 60.3745 85.4838 60.3745 84.3984C60.3745 83.3132 61.2544 82.4333 62.3398 82.4333C63.4251 82.4333 64.305 83.3132 64.305 84.3984Z" fill="white"/>
<path d="M68.8833 85.1938C68.8833 84.5478 69.4071 84.0241 70.053 84.0241C70.6992 84.0241 71.2229 84.5478 71.2229 85.1938C71.2229 85.8399 70.6992 86.3635 70.053 86.3635C69.4071 86.3635 68.8833 85.8399 68.8833 85.1938Z" fill="white"/>
<path d="M29.5274 50.5831C29.5274 51.984 28.3917 53.1196 26.9909 53.1196C25.5901 53.1196 24.4546 51.984 24.4546 50.5831C24.4546 49.1823 25.5901 48.0467 26.9909 48.0467C28.3917 48.0467 29.5274 49.1823 29.5274 50.5831Z" fill="white"/>
<path d="M26.9877 41.1275C26.9877 41.8279 26.4198 42.3955 25.7194 42.3955C25.019 42.3955 24.4512 41.8279 24.4512 41.1275C24.4512 40.4271 25.019 39.8592 25.7194 39.8592C26.4198 39.8592 26.9877 40.4271 26.9877 41.1275Z" fill="white"/>
</g>
</g>
<defs>
<clipPath id="clip0_95_1110">
<rect width="100.114" height="100.114" fill="white" transform="translate(4.94287 4.94287)"/>
</clipPath>
</defs>
</svg>
