<svg width="110" height="110" viewBox="0 0 110 110" fill="none" xmlns="http://www.w3.org/2000/svg">
<rect width="110" height="110" fill="white"/>
<path d="M93.4985 33.2388L81.6637 45.0736C80.2576 41.2905 78.0815 37.8924 75.3028 35.0634C75.2358 34.9965 75.1856 34.9462 75.1187 34.8793L85.1288 24.8691L93.4985 33.2388Z" fill="#5CD6B3"/>
<path d="M43.617 83.1223L29.8907 96.8486L21.521 88.4789L36.1847 73.8152C39.0136 76.5772 41.8259 79.3392 43.617 83.1223Z" fill="#5CD6B3"/>
<path d="M36.1838 73.8152L21.5201 88.4789L13.1504 80.1092L28.6678 64.5918C30.0739 67.4208 32.0491 69.6806 34.1583 71.8232C34.8279 72.4928 35.4975 73.1624 36.1838 73.8152Z" fill="#FF826E"/>
<path d="M85.1297 24.8692L75.1196 34.8793C72.2571 32.0169 68.7921 29.7571 64.9253 28.3342L76.76 16.4995L85.1297 24.8692Z" fill="#FF826E"/>
<path d="M105.222 16.6167C105.222 19.7637 103.984 22.7601 101.757 24.9864L98.5265 28.2171L81.7871 11.4777L85.0178 8.24703C87.2441 6.0207 90.2405 4.78198 93.3875 4.78198C96.6517 4.78198 99.6145 6.10439 101.757 8.24703C103.9 10.3897 105.222 13.3525 105.222 16.6167Z" fill="#AAB2BD"/>
<path d="M29.8913 96.8485L8.61554 105.034C8.29749 105.151 7.94597 105.218 7.61118 105.218C6.05442 105.218 4.78223 103.946 4.78223 102.389C4.78223 102.054 4.84918 101.703 4.96636 101.385L13.1519 80.1091L21.5216 88.4788L29.8913 96.8485Z" fill="#CCD1D9"/>
<path d="M98.521 28.2172L93.4991 33.239L85.1295 24.8693L76.7598 16.4996L81.7816 11.4778L98.521 28.2172Z" fill="#E6E9ED"/>
<path d="M86.8072 56.7576C86.8072 58.7496 87.9957 60.524 89.8203 61.2773C89.837 61.2773 89.8705 61.294 89.8872 61.294C91.7118 62.064 93.821 61.6623 95.2271 60.2562L96.4825 59.0007L101.22 63.738L99.9643 64.9934C98.5582 66.3995 98.1565 68.5087 98.9265 70.3333C98.9265 70.35 98.9432 70.3835 98.9432 70.4002C99.6965 72.2248 101.471 73.4133 103.463 73.4133H105.22V80.1091H103.463C101.471 80.1091 99.6965 81.2976 98.9432 83.1221C98.9432 83.1389 98.9265 83.1724 98.9265 83.1891C98.1565 85.0137 98.5582 87.1229 99.9643 88.529L101.22 89.7844L96.4825 94.5217L95.2271 93.2662C93.821 91.8601 91.7118 91.4584 89.8872 92.2284C89.8705 92.2284 89.837 92.2451 89.8203 92.2451C87.9957 92.9984 86.8072 94.7728 86.8072 96.7647V98.5224H80.1114V96.7647C80.1114 94.7728 78.9229 92.9984 77.0984 92.2451C77.0816 92.2451 77.0481 92.2284 77.0314 92.2284C75.2068 91.4584 73.0976 91.8601 71.6915 93.2662L70.4361 94.5217L66.201 90.2866C66.5358 89.7677 66.7199 89.1483 66.7199 88.4787C66.7199 87.374 66.1675 86.3696 65.3306 85.767C66.9543 80.5443 70.4026 77.1462 73.8677 73.7816C73.5831 74.7357 73.4157 75.7233 73.4157 76.7612C73.4157 82.3019 77.9186 86.8048 83.4593 86.8048C89 86.8048 93.5029 82.3019 93.5029 76.7612C93.5029 71.2205 89 66.7176 83.4593 66.7176C82.0867 66.7176 80.781 67.0021 79.5925 67.4876C81.8523 64.3238 83.4593 60.457 83.4593 55H86.8072V56.7576Z" fill="#FFC729"/>
<path d="M83.4567 66.7178C88.9974 66.7178 93.5003 71.2207 93.5003 76.7614C93.5003 82.3021 88.9974 86.805 83.4567 86.805C77.916 86.805 73.4131 82.3021 73.4131 76.7614C73.4131 75.7236 73.5805 74.7359 73.865 73.7818V73.765C75.8905 71.8065 77.916 69.8313 79.5899 67.4878C80.7784 67.0023 82.0841 66.7178 83.4567 66.7178ZM86.8046 76.7614C86.8046 74.9201 85.298 73.4135 83.4567 73.4135C81.6154 73.4135 80.1088 74.9201 80.1088 76.7614C80.1088 78.6027 81.6154 80.1093 83.4567 80.1093C85.298 80.1093 86.8046 78.6027 86.8046 76.7614Z" fill="#FCD770"/>
<path d="M55.003 105.218C51.0692 105.218 47.6377 102.54 46.6835 98.7233L46.6333 98.5225H63.3727L63.3225 98.7233C62.837 100.632 61.749 102.255 60.2759 103.41C58.8196 104.549 56.9782 105.218 55.003 105.218Z" fill="#AAB2BD"/>
<path d="M63.37 91.8267C65.2113 91.8267 66.7178 93.3332 66.7178 95.1745C66.7178 96.0952 66.3496 96.9322 65.7302 97.5348C65.1276 98.1541 64.2906 98.5224 63.37 98.5224H46.6306C44.7893 98.5224 43.2827 97.0159 43.2827 95.1745C43.2827 94.2539 43.651 93.4169 44.2703 92.8143C44.873 92.1949 45.7099 91.8267 46.6306 91.8267H63.37Z" fill="#CCD1D9"/>
<path d="M66.7178 88.479C66.7178 89.1486 66.5337 89.7679 66.1989 90.2868C66.065 90.4877 65.8976 90.6718 65.7302 90.8392C65.1276 91.4586 64.2906 91.8269 63.37 91.8269H46.6306C44.7893 91.8269 43.2827 90.3203 43.2827 88.479C43.2827 87.5583 43.651 86.7213 44.2703 86.1187C44.3875 85.9848 44.5214 85.8676 44.6721 85.7672C45.2245 85.3655 45.8941 85.1311 46.6306 85.1311H55.0003H63.37C64.1065 85.1311 64.7761 85.3655 65.3285 85.7672C66.1654 86.3698 66.7178 87.3742 66.7178 88.479Z" fill="#CCD1D9"/>
<path d="M81.6652 45.0737C80.2591 41.2906 78.083 37.8925 75.3043 35.0636C75.2373 34.9966 75.1871 34.9464 75.1201 34.8794C72.2577 32.017 68.7927 29.7572 64.9259 28.3343C61.9965 27.2295 58.8495 26.6102 55.5518 26.5432H55.5351C56.2716 28.0665 56.6734 29.7572 56.6734 31.565C56.6734 32.8707 56.4557 34.1429 56.054 35.3146V35.3314C56.7738 35.0636 57.5438 34.9129 58.3473 34.9129C62.0467 34.9129 65.043 37.9092 65.043 41.6086C65.043 45.3081 62.0467 48.3044 58.3473 48.3044H48.3037H27.3292C26.8103 50.447 26.5425 52.6901 26.5425 55.0001C26.5425 58.9172 27.3627 61.9972 28.6684 64.5918C30.0745 67.4208 32.0497 69.6806 34.1589 71.8232C34.8285 72.4928 35.498 73.1624 36.1844 73.8152C39.0133 76.5772 41.8255 79.3392 43.6166 83.1223C44.0351 83.9425 44.3867 84.8297 44.6712 85.7671C45.2236 85.3654 45.8932 85.131 46.6297 85.131H54.9994H63.3691C64.1056 85.131 64.7752 85.3654 65.3276 85.7671C66.9513 80.5444 70.3996 77.1463 73.8647 73.7817V73.765C75.8902 71.8065 77.9156 69.8312 79.5896 67.4877C81.8494 64.324 83.4564 60.4572 83.4564 55.0001C83.4564 51.5016 82.8203 48.1537 81.6652 45.0737Z" fill="#FFEAA7"/>
<path d="M40.4371 20.7514C41.8265 20.1655 43.3497 19.8475 44.9567 19.8475C49.6437 19.8475 53.6612 22.576 55.536 26.5432C56.2725 28.0665 56.6743 29.7572 56.6743 31.565C56.6743 32.8707 56.4567 34.1429 56.0549 35.3147V35.3314C56.7747 35.0636 57.5447 34.9129 58.3482 34.9129C62.0476 34.9129 65.044 37.9093 65.044 41.6087C65.044 45.3081 62.0476 48.3044 58.3482 48.3044H48.3046H27.3302H13.1519C8.53185 48.3044 4.78223 44.5548 4.78223 39.9347C4.78223 35.5825 8.09662 32.017 12.3484 31.6153V31.5985C11.7793 30.025 11.478 28.3176 11.478 26.5432C11.478 18.2238 18.2239 11.4778 26.5434 11.4778C32.7872 11.4778 38.1438 15.2776 40.4204 20.6844L40.4371 20.7514Z" fill="#E6E9ED"/>
<path d="M83.4588 81.7831C86.2275 81.7831 88.4806 79.53 88.4806 76.7613C88.4806 73.9926 86.2275 71.7395 83.4588 71.7395C80.6901 71.7395 78.437 73.9926 78.437 76.7613C78.437 79.53 80.6901 81.7831 83.4588 81.7831ZM83.4588 75.0874C84.3812 75.0874 85.1328 75.8373 85.1328 76.7613C85.1328 77.6853 84.3812 78.4353 83.4588 78.4353C82.5365 78.4353 81.7849 77.6853 81.7849 76.7613C81.7849 75.8373 82.5365 75.0874 83.4588 75.0874Z" fill="black"/>
<path d="M100.464 69.6938C99.9569 68.4785 100.226 67.0975 101.149 66.1735L103.584 63.7363L96.4801 56.6321L94.0412 59.0693C93.1189 59.9933 91.7362 60.2612 90.4573 59.7255C89.2554 59.23 88.4787 58.0683 88.4787 56.766V53.326H85.0455C84.8931 50.626 84.3926 48.0163 83.5624 45.5439L102.933 26.1731C105.486 23.6203 106.892 20.2273 106.892 16.6183C106.892 9.16924 100.831 3.10791 93.3817 3.10791C89.7727 3.10791 86.3796 4.51402 83.8285 7.0651L64.4778 26.4175C61.9753 25.5772 59.3221 25.0884 56.5818 24.9427C54.2718 20.9069 49.9313 18.1733 44.9563 18.1733C43.6825 18.1733 42.4538 18.3642 41.2837 18.6973C38.3945 13.2654 32.7818 9.80366 26.543 9.80366C17.3129 9.80366 9.80366 17.3129 9.80366 26.543C9.80366 27.8253 9.96101 29.0874 10.2473 30.3228C6.121 31.5715 3.10791 35.4065 3.10791 39.9345C3.10791 45.4736 7.61248 49.9782 13.1515 49.9782H25.2943C25.0164 51.6337 24.8691 53.3143 24.8691 55C24.8691 58.6843 25.5504 61.6823 26.6502 64.2435L11.717 79.1783L3.40754 100.782C3.20835 101.298 3.10791 101.84 3.10791 102.394C3.10791 104.875 5.12668 106.892 7.60578 106.892C8.15985 106.892 8.70221 106.79 9.21946 106.592L30.8233 98.283L41.7424 87.3622C41.6604 87.7221 41.6085 88.0937 41.6085 88.4787C41.6085 89.7693 42.1123 90.9361 42.9141 91.8266C42.1107 92.7171 41.6085 93.8839 41.6085 95.1745C41.6085 97.5012 43.2071 99.4464 45.3581 100.012C46.7843 104.097 50.6042 106.892 55 106.892C59.3957 106.892 63.2157 104.097 64.6418 100.012C66.7929 99.4464 68.3915 97.5012 68.3915 95.1745C68.3915 95.0489 68.363 94.9318 68.3546 94.8096L70.4337 96.8886L72.8726 94.4513C73.7949 93.5273 75.1726 93.2578 76.4548 93.7918C77.6567 94.2923 78.4351 95.454 78.4351 96.7563V100.196H88.4787V96.7563C88.4787 95.454 89.2571 94.2906 90.5243 93.7667C91.7395 93.2612 93.1206 93.5273 94.0429 94.4513L96.4801 96.8886L103.584 89.7844L101.149 87.3471C100.226 86.4231 99.9569 85.0421 100.491 83.7632C100.988 82.5613 102.15 81.783 103.452 81.783H106.892V71.7393H103.452C102.15 71.7393 100.988 70.961 100.464 69.6938ZM75.3818 74.6286C77.2081 72.8458 79.0377 71.0246 80.6162 68.9188C81.5269 68.5873 82.4743 68.3915 83.4569 68.3915C88.072 68.3915 91.8266 72.1461 91.8266 76.7612C91.8266 81.3762 88.072 85.1308 83.4569 85.1308C78.8419 85.1308 75.0872 81.3762 75.0872 76.7612C75.0872 76.0363 75.1994 75.3232 75.3818 74.6286ZM77.3922 34.9763L85.1308 27.236L91.1336 33.2388L82.1931 42.1793C80.9393 39.5479 79.3189 37.1273 77.3922 34.9763ZM79.1281 16.4994L81.783 13.8445L96.1554 28.217L93.5005 30.8718L79.1281 16.4994ZM93.3817 6.45579C98.9844 6.45579 103.544 11.0156 103.544 16.6183C103.544 19.3317 102.488 21.8845 100.568 23.8045L98.5223 25.85L84.1499 11.4776L86.1955 9.43205C88.1155 7.51371 90.6666 6.45579 93.3817 6.45579ZM76.7612 18.8664L82.7639 24.8691L75.0286 32.6044C72.8793 30.676 70.4605 29.0539 67.829 27.7985L76.7612 18.8664ZM81.783 55C81.783 63.7095 77.3973 67.9881 72.7537 72.5161C69.5565 75.6346 66.2723 78.8586 64.3606 83.5573C64.0409 83.4921 63.7095 83.4569 63.3697 83.4569H56.6739V75.0872C56.6739 72.3185 54.4208 70.0654 51.6521 70.0654H48.3042C47.3819 70.0654 46.6303 69.3155 46.6303 68.3915C46.6303 67.4675 47.3819 66.7175 48.3042 66.7175H65.0436C67.8123 66.7175 70.0654 64.4644 70.0654 61.6957C70.0654 58.927 67.8123 56.6739 65.0436 56.6739H51.6521C50.7298 56.6739 49.9782 55.924 49.9782 55V49.9782H58.3478C62.9629 49.9782 66.7175 46.2235 66.7175 41.6085C66.7175 36.9934 62.9629 33.2388 58.3478 33.2388C58.301 33.2388 58.2575 33.2522 58.2106 33.2522C58.2826 32.6931 58.3478 32.134 58.3478 31.5648C58.3478 30.4701 58.2005 29.4105 57.9528 28.3911C71.2974 29.8775 81.783 41.3306 81.783 55ZM44.9563 88.4787C44.9563 87.5547 45.7079 86.8048 46.6303 86.8048H63.3697C64.292 86.8048 65.0436 87.5547 65.0436 88.4787C65.0436 89.4027 64.292 90.1527 63.3697 90.1527H46.6303C45.7079 90.1527 44.9563 89.4027 44.9563 88.4787ZM23.8882 88.4787L36.1933 76.1736C38.2522 78.2158 40.1639 80.2814 41.5733 82.7974L29.8909 94.4815L23.8882 88.4787ZM6.45579 39.9345C6.45579 36.2418 9.45883 33.2388 13.1515 33.2388C16.8442 33.2388 19.8473 36.2418 19.8473 39.9345H23.1952C23.1952 34.5411 18.9182 30.1387 13.5801 29.9127C13.2955 28.8179 13.1515 27.688 13.1515 26.543C13.1515 19.1593 19.1593 13.1515 26.543 13.1515C31.4393 13.1515 35.8585 15.8131 38.2087 20.0164C34.6399 22.1104 32.1189 25.7981 31.6485 30.1018C28.7258 30.8216 26.543 33.4447 26.543 36.5867H29.8909C29.8909 34.7403 31.3924 33.2388 33.2388 33.2388C35.0851 33.2388 36.5867 34.7403 36.5867 36.5867H39.9345C39.9345 33.515 37.8455 30.9488 35.0215 30.1621C35.7078 25.2876 39.8944 21.5212 44.9563 21.5212C50.4954 21.5212 55 26.0258 55 31.5648C55 32.4453 54.856 33.3074 54.6317 34.1477C51.8864 35.522 49.9782 38.3342 49.9782 41.6085H53.326C53.326 38.8398 55.5792 36.5867 58.3478 36.5867C61.1165 36.5867 63.3697 38.8398 63.3697 41.6085C63.3697 44.3772 61.1165 46.6303 58.3478 46.6303H13.1515C9.45883 46.6303 6.45579 43.6272 6.45579 39.9345ZM46.6303 49.9782V55C46.6303 57.7687 48.8834 60.0218 51.6521 60.0218H65.0436C65.9659 60.0218 66.7175 60.7717 66.7175 61.6957C66.7175 62.6197 65.9659 63.3697 65.0436 63.3697H48.3042C45.5355 63.3697 43.2824 65.6228 43.2824 68.3915C43.2824 71.1602 45.5355 73.4133 48.3042 73.4133H51.6521C52.5744 73.4133 53.326 74.1632 53.326 75.0872V83.4569H46.6303C46.2905 83.4569 45.959 83.4921 45.6393 83.5573C43.7277 78.8586 40.4434 75.6346 37.2462 72.5161C32.6027 67.9881 28.217 63.7095 28.217 55C28.217 53.3076 28.4195 51.6303 28.7325 49.9782H46.6303ZM33.8029 73.8301L21.5212 86.1118L15.5185 80.109L28.2906 67.3369C29.8625 69.8043 31.8109 71.8632 33.8029 73.8301ZM13.7893 83.1137L26.8862 96.2106L15.798 100.476L9.52411 94.2019L13.7893 83.1137ZM8.01924 103.467C7.29443 103.748 6.45579 103.171 6.45579 102.394C6.45579 102.252 6.48257 102.113 6.53111 101.982L8.2084 97.6201L12.3782 101.79L8.01924 103.467ZM55 103.544C52.5276 103.544 50.323 102.228 49.101 100.196H60.8989C59.6769 102.228 57.4724 103.544 55 103.544ZM63.3697 96.8484H46.6303C45.7079 96.8484 44.9563 96.0985 44.9563 95.1745C44.9563 94.2505 45.7079 93.5005 46.6303 93.5005H63.3697C64.292 93.5005 65.0436 94.2505 65.0436 95.1745C65.0436 96.0985 64.292 96.8484 63.3697 96.8484ZM103.544 78.4351H103.452C100.789 78.4351 98.4119 80.0253 97.374 82.5396C96.3429 85.012 96.8953 87.8276 98.7801 89.7141L98.8504 89.7844L96.4801 92.1547L96.4098 92.0844C94.5216 90.1962 91.7027 89.6421 89.1801 90.7C86.7211 91.7178 85.1308 94.0931 85.1308 96.7563V96.8484H81.783V96.7563C81.783 94.0931 80.1927 91.7161 77.6785 90.6766C75.2027 89.6438 72.3872 90.1979 70.5023 92.0844L70.432 92.1547L68.1638 89.8865C68.2977 89.4362 68.3915 88.9709 68.3915 88.4787C68.3915 87.2902 67.9596 86.2122 67.2666 85.3501C68.3078 82.5396 69.9399 80.2915 71.8398 78.2158C72.5596 83.9909 77.4893 88.4787 83.4569 88.4787C89.9183 88.4787 95.1745 83.2209 95.1745 76.7612C95.1745 70.3014 89.9183 65.0436 83.4569 65.0436C83.2929 65.0436 83.1338 65.0603 82.9715 65.067C84.1047 62.7151 84.8831 59.9883 85.079 56.6739H85.1308V56.766C85.1308 59.4292 86.7211 61.8079 89.2337 62.844C91.7044 63.8785 94.5233 63.3261 96.4098 61.4379L96.4801 61.3676L98.8504 63.7379L98.7801 63.8082C96.8953 65.6948 96.3429 68.512 97.3958 71.0363C98.4119 73.497 100.789 75.0872 103.452 75.0872H103.544V78.4351Z" fill="black"/>
</svg>
