<?xml version="1.0" encoding="utf-8"?>
<!-- Generator: Adobe Illustrator 26.0.1, SVG Export Plug-In . SVG Version: 6.00 Build 0)  -->
<svg version="1.1" id="Layer_1" xmlns="http://www.w3.org/2000/svg" xmlns:xlink="http://www.w3.org/1999/xlink" x="0px" y="0px"
	 viewBox="0 0 35 35" style="enable-background:new 0 0 35 35;" xml:space="preserve">
<style type="text/css">
	.st0{fill:#FFFFFF;filter:url(#Adobe_OpacityMaskFilter);}
	.st1{fill:#FFFFFF;}
	.st2{mask:url(#mask0_1528_4669_00000055694577316218355450000017722530224031595140_);}
	.st3{fill:#FFFFFF;filter:url(#Adobe_OpacityMaskFilter_00000072978215695331344650000005614174263777015968_);}
	.st4{mask:url(#mask1_1528_4669_00000181797600243083663100000014995634598587917458_);}
	.st5{fill:none;stroke:#719AD1;stroke-width:1.2;stroke-linecap:round;stroke-linejoin:round;stroke-miterlimit:10;}
	.st6{fill:#719AD1;}
</style>
<defs>
	<filter id="Adobe_OpacityMaskFilter" filterUnits="userSpaceOnUse" x="2.5" y="1.3" width="29.9" height="29.9">
		<feColorMatrix  type="matrix" values="1 0 0 0 0  0 1 0 0 0  0 0 1 0 0  0 0 0 1 0"/>
	</filter>
</defs>
<mask maskUnits="userSpaceOnUse" x="2.5" y="1.3" width="29.9" height="29.9" id="mask0_1528_4669_00000055694577316218355450000017722530224031595140_">
	<path class="st0" d="M33.1,0.7H1.9v31.2h31.2V0.7z"/>
	<path class="st1" d="M9.5,12.2c-0.7,0-1.2,0.5-1.2,1.2c0,0.7,0.5,1.2,1.2,1.2c0.7,0,1.2-0.5,1.2-1.2C10.7,12.8,10.2,12.2,9.5,12.2z
		"/>
	<path class="st1" d="M14.8,12.2c-0.7,0-1.2,0.5-1.2,1.2c0,0.7,0.5,1.2,1.2,1.2c0.7,0,1.2-0.5,1.2-1.2C16,12.8,15.5,12.2,14.8,12.2z
		"/>
	<path class="st1" d="M20.1,12.2c-0.7,0-1.2,0.5-1.2,1.2c0,0.7,0.5,1.2,1.2,1.2s1.2-0.5,1.2-1.2C21.3,12.8,20.8,12.2,20.1,12.2z"/>
	<path class="st1" d="M25.4,12.2c-0.7,0-1.2,0.5-1.2,1.2c0,0.7,0.5,1.2,1.2,1.2c0.7,0,1.2-0.5,1.2-1.2
		C26.6,12.8,26.1,12.2,25.4,12.2z"/>
	<path class="st1" d="M10.7,18.8c0-0.7-0.5-1.2-1.2-1.2c-0.7,0-1.2,0.5-1.2,1.2S8.8,20,9.5,20C10.2,20,10.7,19.4,10.7,18.8z"/>
	<path class="st1" d="M10.7,24.1c0-0.7-0.5-1.2-1.2-1.2c-0.7,0-1.2,0.5-1.2,1.2c0,0.7,0.5,1.2,1.2,1.2
		C10.2,25.3,10.7,24.7,10.7,24.1z"/>
	<path class="st1" d="M16,18.8c0-0.7-0.5-1.2-1.2-1.2c-0.7,0-1.2,0.5-1.2,1.2s0.5,1.2,1.2,1.2C15.5,20,16,19.4,16,18.8z"/>
	<path class="st1" d="M16,24.1c0-0.7-0.5-1.2-1.2-1.2c-0.7,0-1.2,0.5-1.2,1.2c0,0.7,0.5,1.2,1.2,1.2C15.5,25.3,16,24.7,16,24.1z"/>
	<path class="st1" d="M14.8,12.2c-0.7,0-1.2,0.5-1.2,1.2c0,0.7,0.5,1.2,1.2,1.2c0.7,0,1.2-0.5,1.2-1.2C16,12.8,15.5,12.2,14.8,12.2z
		"/>
	<path class="st1" d="M16,18.8c0-0.7-0.5-1.2-1.2-1.2c-0.7,0-1.2,0.5-1.2,1.2s0.5,1.2,1.2,1.2C15.5,20,16,19.4,16,18.8z"/>
	<path class="st1" d="M16,24.1c0-0.7-0.5-1.2-1.2-1.2c-0.7,0-1.2,0.5-1.2,1.2c0,0.7,0.5,1.2,1.2,1.2C15.5,25.3,16,24.7,16,24.1z"/>
	<path class="st1" d="M21.3,18.8c0-0.7-0.5-1.2-1.2-1.2s-1.2,0.5-1.2,1.2s0.5,1.2,1.2,1.2S21.3,19.4,21.3,18.8z"/>
	<path class="st1" d="M26.6,18.8c0-0.7-0.5-1.2-1.2-1.2c-0.7,0-1.2,0.5-1.2,1.2s0.5,1.2,1.2,1.2C26.1,20,26.6,19.4,26.6,18.8z"/>
</mask>
<g class="st2">
	<defs>
		
			<filter id="Adobe_OpacityMaskFilter_00000127754859064168301160000009537331758694211749_" filterUnits="userSpaceOnUse" x="2.5" y="1.3" width="29.9" height="29.9">
			<feColorMatrix  type="matrix" values="1 0 0 0 0  0 1 0 0 0  0 0 1 0 0  0 0 0 1 0"/>
		</filter>
	</defs>
	
		<mask maskUnits="userSpaceOnUse" x="2.5" y="1.3" width="29.9" height="29.9" id="mask1_1528_4669_00000181797600243083663100000014995634598587917458_">
		<path style="fill:#FFFFFF;filter:url(#Adobe_OpacityMaskFilter_00000127754859064168301160000009537331758694211749_);" d="
			M1.9,0.7h31.2v31.2H1.9V0.7z"/>
	</mask>
	<g class="st4">
		<path class="st5" d="M16,30.6H6.8c-2,0-3.7-1.6-3.7-3.7V8c0-2,1.6-3.7,3.7-3.7h21.4c2,0,3.7,1.6,3.7,3.7v8.6"/>
		<path class="st6" d="M9.5,12.2c-0.7,0-1.2,0.5-1.2,1.2c0,0.7,0.5,1.2,1.2,1.2c0.7,0,1.2-0.5,1.2-1.2C10.7,12.8,10.2,12.2,9.5,12.2
			z"/>
		<path class="st6" d="M14.8,12.2c-0.7,0-1.2,0.5-1.2,1.2c0,0.7,0.5,1.2,1.2,1.2s1.2-0.5,1.2-1.2C16,12.8,15.5,12.2,14.8,12.2z"/>
		<path class="st6" d="M20.1,12.2c-0.7,0-1.2,0.5-1.2,1.2c0,0.7,0.5,1.2,1.2,1.2c0.7,0,1.2-0.5,1.2-1.2
			C21.3,12.8,20.8,12.2,20.1,12.2z"/>
		<path class="st6" d="M25.4,12.2c-0.7,0-1.2,0.5-1.2,1.2c0,0.7,0.5,1.2,1.2,1.2c0.7,0,1.2-0.5,1.2-1.2
			C26.6,12.8,26.1,12.2,25.4,12.2z"/>
		<path class="st6" d="M10.7,18.8c0-0.7-0.5-1.2-1.2-1.2c-0.7,0-1.2,0.5-1.2,1.2S8.8,20,9.5,20C10.2,20,10.7,19.4,10.7,18.8z"/>
		<path class="st6" d="M10.7,24.1c0-0.7-0.5-1.2-1.2-1.2c-0.7,0-1.2,0.5-1.2,1.2c0,0.7,0.5,1.2,1.2,1.2
			C10.2,25.3,10.7,24.7,10.7,24.1z"/>
		<path class="st6" d="M16,18.8c0-0.7-0.5-1.2-1.2-1.2s-1.2,0.5-1.2,1.2s0.5,1.2,1.2,1.2S16,19.4,16,18.8z"/>
		<path class="st6" d="M16,24.1c0-0.7-0.5-1.2-1.2-1.2s-1.2,0.5-1.2,1.2c0,0.7,0.5,1.2,1.2,1.2S16,24.7,16,24.1z"/>
		<path class="st6" d="M14.8,12.2c-0.7,0-1.2,0.5-1.2,1.2c0,0.7,0.5,1.2,1.2,1.2s1.2-0.5,1.2-1.2C16,12.8,15.5,12.2,14.8,12.2z"/>
		<path class="st6" d="M16,18.8c0-0.7-0.5-1.2-1.2-1.2s-1.2,0.5-1.2,1.2s0.5,1.2,1.2,1.2S16,19.4,16,18.8z"/>
		<path class="st6" d="M16,24.1c0-0.7-0.5-1.2-1.2-1.2s-1.2,0.5-1.2,1.2c0,0.7,0.5,1.2,1.2,1.2S16,24.7,16,24.1z"/>
		<path class="st5" d="M9.5,1.9v4.9"/>
		<path class="st5" d="M25,1.9v4.9"/>
	</g>
</g>
<path class="st6" d="M26.3,28.3c-0.1,0-0.2,0.1-0.2,0.2c0,0.1,0.1,0.2,0.2,0.2c0.1,0,0.2-0.1,0.2-0.2C26.5,28.4,26.4,28.3,26.3,28.3
	z"/>
<g>
	<path class="st6" d="M26.6,23.9c-0.1,0-0.3,0.1-0.3,0.3c0,0.1,0.1,0.3,0.3,0.3c0.1,0,0.3-0.1,0.3-0.3C26.9,24,26.8,23.9,26.6,23.9z
		"/>
	<path class="st6" d="M30.6,21.5c-0.1,0-0.2,0-0.2,0.1l-1.1,1.1h-0.5L28.2,22v-0.5l1.1-1.1c0.1-0.1,0.1-0.2,0.1-0.2
		c0-0.1-0.1-0.2-0.2-0.2c-0.3-0.1-0.5-0.1-0.8-0.1c-0.8,0-1.6,0.4-2.1,1.1c-0.5,0.6-0.6,1.4-0.4,2.2L23.9,25l-3.2-3.2v-0.6
		c0-0.1,0-0.2-0.1-0.2l-1.8-1.1c-0.1-0.1-0.2,0-0.3,0l-0.7,0.7c-0.1,0.1-0.1,0.2,0,0.3l1.1,1.8c0,0.1,0.1,0.1,0.2,0.1l0.6,0l3.2,3.2
		L20.9,28c-0.8-0.2-1.5-0.1-2.2,0.4c-0.7,0.5-1.1,1.3-1.1,2.1c0,0.3,0,0.6,0.1,0.8c0,0.1,0.1,0.1,0.2,0.2c0.1,0,0.2,0,0.2-0.1
		l1.1-1.1h0.5l0.6,0.6v0.5l-1.1,1.1c-0.1,0.1-0.1,0.2-0.1,0.2c0,0.1,0.1,0.2,0.2,0.2c0.3,0.1,0.5,0.1,0.8,0.1c0.8,0,1.6-0.4,2.1-1.1
		c0.5-0.6,0.6-1.4,0.4-2.2l1.5-1.5l0.3,0.4l-0.2,0.2c-0.1,0.1-0.1,0.3,0,0.4c0.1,0.1,0.3,0.1,0.4,0l0.1-0.1l3.3,3.6c0,0,0,0,0,0
		c0.6,0.6,1.6,0.6,2.2,0c0.6-0.6,0.6-1.6,0-2.2c0,0,0,0,0,0l-3.6-3.3L27,27c0.1-0.1,0.1-0.3,0-0.4c-0.1-0.1-0.3-0.1-0.4,0l-0.2,0.2
		l-0.4-0.3l1.5-1.5c0.2,0.1,0.4,0.1,0.7,0.1c1.4,0,2.6-1.2,2.6-2.6c0-0.3,0-0.6-0.1-0.8C30.7,21.6,30.6,21.5,30.6,21.5z M19.9,22.5
		c0,0-0.1-0.1-0.2-0.1l-0.6,0l-0.9-1.5l0.4-0.4l1.5,0.9V22c0,0.1,0,0.1,0.1,0.2l3.2,3.3l-0.4,0.4L19.9,22.5z M26.5,27.6l3.6,3.3
		c0.4,0.4,0.4,1.1,0,1.5c-0.4,0.4-1.1,0.4-1.5,0l-3.3-3.6L26.5,27.6z M26.1,27.2L25,28.3L24.6,28l1.1-1.1L26.1,27.2z M28.3,24.5
		c-0.2,0-0.4,0-0.7-0.1c-0.1,0-0.2,0-0.3,0.1c-1.3,1.3-4.1,4.1-5.1,5.1c-0.1,0.1-0.1,0.2-0.1,0.3c0.2,0.6,0.1,1.3-0.3,1.9
		c-0.4,0.5-1,0.9-1.7,0.9c-0.1,0-0.2,0-0.2,0l0.8-0.8c0,0,0.1-0.1,0.1-0.2v-0.7c0-0.1,0-0.1-0.1-0.2l-0.7-0.7c0,0-0.1-0.1-0.2-0.1
		h-0.7c-0.1,0-0.1,0-0.2,0.1l-0.8,0.8c0-0.1,0-0.1,0-0.2c0-0.7,0.3-1.3,0.9-1.7c0.5-0.4,1.2-0.5,1.9-0.3c0.1,0,0.2,0,0.3-0.1
		c0,0,5.1-5.1,5.1-5.1c0.1-0.1,0.1-0.2,0.1-0.3c-0.2-0.6-0.1-1.3,0.3-1.9c0.4-0.5,1-0.9,1.7-0.9c0.1,0,0.2,0,0.2,0l-0.8,0.8
		c0,0-0.1,0.1-0.1,0.2v0.7c0,0.1,0,0.1,0.1,0.2l0.7,0.7c0,0.1,0.1,0.1,0.2,0.1h0.7c0.1,0,0.1,0,0.2-0.1l0.8-0.8c0,0.1,0,0.1,0,0.2
		C30.4,23.6,29.4,24.5,28.3,24.5z"/>
	<path class="st6" d="M25.7,24.7l-3.2,3.2c-0.1,0.1-0.1,0.3,0,0.4c0.1,0.1,0.3,0.1,0.4,0l3.2-3.2c0.1-0.1,0.1-0.3,0-0.4
		C26,24.6,25.8,24.6,25.7,24.7z"/>
	<path class="st6" d="M29,31.6c0.1,0.1,0.3,0.1,0.4,0c0.1-0.1,0.1-0.3,0-0.4L27,28.9c-0.1-0.1-0.3-0.1-0.4,0c-0.1,0.1-0.1,0.3,0,0.4
		L29,31.6z"/>
</g>
</svg>
