<?xml version="1.0" encoding="utf-8"?>
<!-- Generator: Adobe Illustrator 26.0.1, SVG Export Plug-In . SVG Version: 6.00 Build 0)  -->
<svg version="1.1" id="Layer_1" xmlns="http://www.w3.org/2000/svg" xmlns:xlink="http://www.w3.org/1999/xlink" x="0px" y="0px"
	 viewBox="0 0 35 35" style="enable-background:new 0 0 35 35;" xml:space="preserve">
<style type="text/css">
	.st0{fill:none;stroke:#709AD1;stroke-width:1.2;stroke-linecap:round;stroke-miterlimit:10;}
	.st1{fill:#709AD1;}
</style>
<g>
	<path class="st0" d="M17.9,32.3h-12c-1.5,0-2.7-1.2-2.7-2.7V7.4c0-1.5,1.2-2.7,2.7-2.7h22.3c1.5,0,2.7,1.2,2.7,2.7V19"/>
	<circle class="st1" cx="8.2" cy="13.1" r="1.2"/>
	<circle class="st1" cx="14.1" cy="13.1" r="1.2"/>
	<circle class="st1" cx="20" cy="13.1" r="1.2"/>
	<circle class="st1" cx="25.9" cy="13.1" r="1.2"/>
	<circle class="st1" cx="8.2" cy="19.2" r="1.2"/>
	<circle class="st1" cx="14.1" cy="19.2" r="1.2"/>
	<circle class="st1" cx="20" cy="19.2" r="1.2"/>
	<circle class="st1" cx="25.9" cy="19.2" r="1.2"/>
	<circle class="st1" cx="8.2" cy="25.2" r="1.2"/>
	<circle class="st1" cx="14.1" cy="25.2" r="1.2"/>
	<line class="st0" x1="8.2" y1="2.7" x2="8.2" y2="6.6"/>
	<line class="st0" x1="16.6" y1="2.7" x2="16.6" y2="6.6"/>
	<line class="st0" x1="24.9" y1="2.7" x2="24.9" y2="6.6"/>
	<g>
		<path class="st0" d="M28.3,29.9l1.2,1.3c0.1,0.1,0.4,0.1,0.5,0l1.9-2.7"/>
		<circle class="st0" cx="26.2" cy="23.3" r="2.3"/>
		<path class="st0" d="M28.8,32.3h-7.9v-1.5c0-1.9,1.6-3.5,3.5-3.5h3.4c0.9,0,1.7,0.3,2.3,0.9"/>
	</g>
</g>
</svg>
