<?xml version="1.0" encoding="utf-8"?>
<!-- Generator: Adobe Illustrator 26.0.1, SVG Export Plug-In . SVG Version: 6.00 Build 0)  -->
<svg version="1.1" id="Layer_1" xmlns="http://www.w3.org/2000/svg" xmlns:xlink="http://www.w3.org/1999/xlink" x="0px" y="0px"
	 viewBox="0 0 35 35" style="enable-background:new 0 0 35 35;" xml:space="preserve">
<style type="text/css">
	.st0{fill:none;stroke:#25B24B;stroke-width:1.2;stroke-miterlimit:10;}
</style>
<path class="st0" d="M9.6,3.2l4.1,6.3c0.3,0.4,0.2,1-0.2,1.3l-2.4,2.1c-0.9,0.8-1.1,2.1-0.6,3.1c0.7,1.2,1.5,2.6,2.7,4
	c2.4,2.8,5.1,4.5,7.1,5.4c0.6,0.3,1.3,0.2,1.7-0.3l2.8-3.2c0.3-0.4,0.8-0.4,1.2-0.2L32,25c0.4,0.2,0.6,0.7,0.5,1.1
	c-0.4,1.6-1.7,5.4-6.4,6.1c-6,0.9-21-7.5-23.5-20.5c0,0,0-0.1,0-0.2c-0.5-5.2,4-7.9,5.8-8.7C8.8,2.6,9.4,2.8,9.6,3.2z"/>
</svg>
