<?xml version="1.0" encoding="utf-8"?>
<!-- Generator: Adobe Illustrator 26.0.1, SVG Export Plug-In . SVG Version: 6.00 Build 0)  -->
<svg version="1.1" id="Layer_1" xmlns="http://www.w3.org/2000/svg" xmlns:xlink="http://www.w3.org/1999/xlink" x="0px" y="0px"
	 viewBox="0 0 35 35" style="enable-background:new 0 0 35 35;" xml:space="preserve">
<style type="text/css">
	.st0{fill:none;stroke:#25B24B;stroke-width:1.2;stroke-miterlimit:10;}
</style>
<g>
	<path class="st0" d="M33,17.5c0,8.2-6.7,14.9-14.9,14.9c-3.2,0-6.2-1-8.7-2.8c-0.3-0.2-0.6-0.2-0.9-0.1L2.3,32
		C2.1,32,2,31.9,2,31.7l2.6-6.8c0,0,0-0.1,0-0.1l0.1-0.1c0.1-0.3,0.1-0.6,0-0.8c-1-2.2-1.6-4.7-1.4-7.3C3.8,8.9,10.3,2.7,18,2.6
		C26.3,2.6,33,9.3,33,17.5z"/>
	<path class="st0" d="M13,9.4l2.3,3.6c0.2,0.2,0.1,0.5-0.1,0.7l-1.4,1.2c-0.5,0.4-0.6,1.2-0.3,1.8c0.4,0.7,0.9,1.5,1.5,2.3
		c1.4,1.6,2.9,2.5,4,3.1c0.3,0.2,0.7,0.1,1-0.2l1.6-1.8c0.2-0.2,0.5-0.3,0.7-0.1l3.3,1.9c0.2,0.1,0.3,0.4,0.3,0.6
		c-0.2,0.9-1,3.1-3.6,3.5C19,26.4,10.4,21.6,9,14.2c0,0,0-0.1,0-0.1c-0.3-3,2.3-4.5,3.3-5C12.6,9,12.9,9.1,13,9.4z"/>
</g>
</svg>
