<?xml version="1.0" encoding="utf-8"?>
<!-- Generator: Adobe Illustrator 26.0.1, SVG Export Plug-In . SVG Version: 6.00 Build 0)  -->
<svg version="1.1" id="Layer_1" xmlns="http://www.w3.org/2000/svg" xmlns:xlink="http://www.w3.org/1999/xlink" x="0px" y="0px"
	 viewBox="0 0 35 35" style="enable-background:new 0 0 35 35;" xml:space="preserve">
<style type="text/css">
	.st0{fill:none;stroke:#9E7DB8;stroke-width:1.2;stroke-miterlimit:10;}
	.st1{fill:none;stroke:#9E7DB8;stroke-width:1.2;stroke-linecap:round;stroke-miterlimit:10;}
	.st2{fill:none;stroke:#9E7DB8;stroke-width:1.2;stroke-linecap:round;stroke-linejoin:round;stroke-miterlimit:10;}
</style>
<g>
	<polygon class="st0" points="33,25.9 13.5,25.9 13.5,3.3 28.6,3.3 33,7.2 	"/>
	<path class="st0" d="M28.6,3.3v3.1c0,0.3,0.3,0.6,0.6,0.6h3.7"/>
	<line class="st1" x1="16.7" y1="9.6" x2="30" y2="9.6"/>
	<line class="st1" x1="16.7" y1="12.7" x2="30" y2="12.7"/>
	<line class="st1" x1="16.7" y1="15.8" x2="30" y2="15.8"/>
	<line class="st1" x1="16.7" y1="18.8" x2="30" y2="18.8"/>
	<line class="st1" x1="16.7" y1="21.9" x2="30" y2="21.9"/>
	<polyline class="st1" points="13.4,6.3 7.3,7.3 11.2,28.9 27.5,25.9 	"/>
	<polyline class="st1" points="7.7,9.5 2,11.4 5.5,20.4 	"/>
	<polyline class="st2" points="6,21.7 9.9,31.7 27,25.9 	"/>
</g>
</svg>
