<?xml version="1.0" encoding="utf-8"?>
<!-- Generator: Adobe Illustrator 26.0.1, SVG Export Plug-In . SVG Version: 6.00 Build 0)  -->
<svg version="1.1" id="Layer_1" xmlns="http://www.w3.org/2000/svg" xmlns:xlink="http://www.w3.org/1999/xlink" x="0px" y="0px"
	 viewBox="0 0 35 35" style="enable-background:new 0 0 35 35;" xml:space="preserve">
<style type="text/css">
	.st0{fill:none;stroke:#309B6F;stroke-width:1.2;stroke-miterlimit:10;}
	.st1{fill:none;stroke:#309B6F;stroke-width:1.2;stroke-linecap:round;stroke-miterlimit:10;}
</style>
<g>
	<path class="st0" d="M18.8,5.5V4.3c0-1.3-1-2.3-2.3-2.3h0c-1.3,0-2.3,1-2.3,2.3v1.1h-4c-0.2,0-0.3,0.1-0.3,0.3v2.7
		c0,0.2,0.1,0.3,0.3,0.3h12.7c0.2,0,0.3-0.1,0.3-0.3V5.7c0-0.2-0.1-0.3-0.3-0.3H18.8z"/>
	<path class="st0" d="M28.6,15.8v16.1c0,0.6-0.5,1.1-1.1,1.1h-22c-0.6,0-1.1-0.5-1.1-1.1V4.7c0-0.6,0.5-1.1,1.1-1.1h8.8"/>
	<path class="st0" d="M18.7,3.6h8.7c0.6,0,1.1,0.5,1.1,1.1v7.2"/>
	<path class="st0" d="M26,17.4v8.3L22,29.4H7.8c-0.4,0-0.7-0.3-0.7-0.7V8c0-0.4,0.3-0.7,0.7-0.7h2.1"/>
	<path class="st0" d="M23.2,7.2h2C25.6,7.2,26,7.6,26,8v5.5"/>
	<line class="st1" x1="9.6" y1="12.7" x2="13" y2="12.7"/>
	<line class="st1" x1="10" y1="16.2" x2="10.7" y2="16.2"/>
	<line class="st1" x1="10" y1="19.8" x2="14.7" y2="19.8"/>
	<line class="st1" x1="12" y1="16.2" x2="19" y2="16.2"/>
	<line class="st1" x1="14.6" y1="12.7" x2="19.9" y2="12.7"/>
	<line class="st1" x1="21.4" y1="12.7" x2="23.1" y2="12.7"/>
	<line class="st1" x1="10" y1="23.2" x2="12.6" y2="23.2"/>
	<path class="st0" d="M22,29.2v-2c0-0.8,0.7-1.5,1.5-1.5H26"/>
	<g>
		<path class="st0" d="M18.3,22.3l-1.8-2.8l14.2-9.1c0.8-0.5,1.8-0.3,2.3,0.5v0c0.5,0.8,0.3,1.8-0.5,2.3L18.3,22.3z"/>
		<line class="st0" x1="30.4" y1="10.7" x2="32.1" y2="13.4"/>
		<path class="st0" d="M15.8,20.5l-1.1,2c-0.1,0.1,0,0.3,0.2,0.3l2.3-0.2L15.8,20.5z"/>
		<line class="st0" x1="31.3" y1="12" x2="17.5" y2="20.9"/>
		<line class="st1" x1="14.8" y1="22.6" x2="14" y2="23.1"/>
	</g>
</g>
</svg>
