<?xml version="1.0" encoding="utf-8"?>
<!-- Generator: Adobe Illustrator 26.0.1, SVG Export Plug-In . SVG Version: 6.00 Build 0)  -->
<svg version="1.1" id="Layer_1" xmlns="http://www.w3.org/2000/svg" xmlns:xlink="http://www.w3.org/1999/xlink" x="0px" y="0px"
	 viewBox="0 0 35 35" style="enable-background:new 0 0 35 35;" xml:space="preserve">
<style type="text/css">
	.st0{fill:#F26B6C;}
	.st1{fill:none;stroke:#F26B6C;stroke-width:1.2;stroke-miterlimit:10;}
	.st2{fill:none;stroke:#F26B6C;stroke-width:1.2;stroke-linecap:round;stroke-miterlimit:10;}
</style>
<g>
	<path class="st0" d="M8.3,10.7c0-0.2,0.2-0.3,0.4-0.3h3.2c0.2,0,0.4,0.1,0.4,0.3s-0.2,0.3-0.4,0.3h-0.7c0.1,0.1,0.2,0.3,0.3,0.5
		h0.4c0.2,0,0.4,0.1,0.4,0.3s-0.2,0.3-0.4,0.3h-0.4c-0.2,0.6-0.8,1-1.5,1.1l1.8,1c0.2,0.1,0.2,0.3,0.1,0.4c-0.1,0.1-0.4,0.2-0.5,0.1
		l-2.8-1.6c-0.1-0.1-0.2-0.2-0.1-0.4c0.1-0.1,0.2-0.2,0.4-0.2h1c0.4,0,0.8-0.2,0.9-0.5H8.7c-0.2,0-0.4-0.1-0.4-0.3s0.2-0.3,0.4-0.3
		h1.9c-0.2-0.3-0.5-0.5-0.9-0.5h-1C8.5,11.1,8.3,10.9,8.3,10.7z"/>
	<path class="st1" d="M17.4,28.6l-0.8-0.9c-0.3-0.4-0.8-0.6-1.3-0.6l-10,0c-0.7,0-1.2-0.5-1.2-1.2V5.7c0-0.7,0.5-1.2,1.2-1.2h10.2
		c1.1,0,1.9,0.9,1.9,1.9v22.1C17.5,28.6,17.4,28.6,17.4,28.6z"/>
	<path class="st1" d="M17.6,28.6l0.8-0.9c0.3-0.4,0.8-0.6,1.3-0.6l10,0c0.7,0,1.2-0.5,1.2-1.2V5.7c0-0.7-0.5-1.2-1.2-1.2H19.4
		c-1.1,0-1.9,0.9-1.9,1.9v22.1C17.5,28.6,17.5,28.6,17.6,28.6z"/>
	<path class="st1" d="M30.7,5.5h1.9c0.5,0,0.9,0.4,0.9,0.9v20.9c0,0.9-0.7,1.6-1.6,1.6l-11.4,0c-0.3,0-0.6,0.2-0.7,0.4
		c-0.5,0.8-1.4,1.3-2.4,1.3c-1,0-1.9-0.5-2.4-1.3c-0.2-0.2-0.4-0.4-0.7-0.4L3,28.9c-0.9,0-1.6-0.7-1.6-1.6V6.5
		c0-0.5,0.4-0.9,0.9-0.9h1.5"/>
	<line class="st2" x1="19.5" y1="7.7" x2="29" y2="7.7"/>
	<line class="st2" x1="19.5" y1="18.4" x2="29" y2="18.4"/>
	<line class="st2" x1="19.5" y1="21.1" x2="20.5" y2="21.1"/>
	<line class="st2" x1="19.5" y1="23.8" x2="20.5" y2="23.8"/>
	<line class="st2" x1="22.2" y1="21.1" x2="26.4" y2="21.1"/>
	<line class="st2" x1="19.5" y1="15.7" x2="20.5" y2="15.7"/>
	<line class="st2" x1="22.2" y1="15.7" x2="26.4" y2="15.7"/>
	<line class="st2" x1="19.5" y1="13" x2="20.5" y2="13"/>
	<line class="st2" x1="22.2" y1="13" x2="26.4" y2="13"/>
	<line class="st2" x1="19.5" y1="10.3" x2="20.5" y2="10.3"/>
	<line class="st2" x1="22.2" y1="10.3" x2="26.4" y2="10.3"/>
	<line class="st2" x1="22.2" y1="23.8" x2="26.4" y2="23.8"/>
	<line class="st2" x1="5.9" y1="18.4" x2="15.4" y2="18.4"/>
	<line class="st2" x1="5.9" y1="21.1" x2="6.8" y2="21.1"/>
	<line class="st2" x1="5.9" y1="23.8" x2="6.8" y2="23.8"/>
	<line class="st2" x1="8.6" y1="21.1" x2="12.8" y2="21.1"/>
	<line class="st2" x1="8.6" y1="23.8" x2="12.8" y2="23.8"/>
</g>
</svg>
