<?xml version="1.0" encoding="utf-8"?>
<!-- Generator: Adobe Illustrator 26.0.1, SVG Export Plug-In . SVG Version: 6.00 Build 0)  -->
<svg version="1.1" id="Layer_1" xmlns="http://www.w3.org/2000/svg" xmlns:xlink="http://www.w3.org/1999/xlink" x="0px" y="0px"
	 viewBox="0 0 35 35" style="enable-background:new 0 0 35 35;" xml:space="preserve">
<style type="text/css">
	.st0{fill:none;stroke:#2BB24B;stroke-width:1.2;stroke-miterlimit:10;}
	.st1{fill:none;stroke:#2BB24B;stroke-width:1.2;stroke-linecap:round;stroke-miterlimit:10;}
</style>
<g>
	<path class="st0" d="M22.6,7.2h4.5c1.1,0,2,0.9,2,2v21.6c0,1.1-0.9,2-2,2H7.9c-1.1,0-2-0.9-2-2V9.2c0-1.1,0.9-2,2-2h4.5"/>
	<path class="st0" d="M20.3,4.7h1.9c0.2,0,0.4,0.2,0.4,0.4v2.1v1.3c0,0.2-0.2,0.4-0.4,0.4h-9.5c-0.2,0-0.4-0.2-0.4-0.4V5.1
		c0-0.2,0.2-0.4,0.4-0.4h1.9c0.2,0,0.4-0.1,0.4-0.3c0.2-1.2,1.2-2.1,2.4-2.1s2.3,0.9,2.4,2.1C20,4.5,20.1,4.7,20.3,4.7z"/>
	<g>
		<g>
			<polyline class="st1" points="8.8,14.3 10.6,16.2 13.9,13.3 			"/>
			<line class="st1" x1="17.1" y1="15.3" x2="26.2" y2="15.3"/>
		</g>
		<g>
			<polyline class="st1" points="8.8,19.3 10.6,21.2 13.9,18.3 			"/>
			<line class="st1" x1="17.1" y1="20.4" x2="26.2" y2="20.4"/>
		</g>
		<g>
			<polyline class="st1" points="8.8,24.4 10.6,26.3 13.9,23.3 			"/>
			<line class="st1" x1="17.1" y1="25.4" x2="26.2" y2="25.4"/>
		</g>
	</g>
</g>
</svg>
