<?xml version="1.0" encoding="utf-8"?>
<!-- Generator: Adobe Illustrator 26.0.1, SVG Export Plug-In . SVG Version: 6.00 Build 0)  -->
<svg version="1.1" id="Layer_1" xmlns="http://www.w3.org/2000/svg" xmlns:xlink="http://www.w3.org/1999/xlink" x="0px" y="0px"
	 viewBox="0 0 35 35" style="enable-background:new 0 0 35 35;" xml:space="preserve">
<style type="text/css">
	.st0{fill:none;stroke:#2C7C3D;stroke-width:1.2;stroke-miterlimit:10;}
	.st1{fill:none;stroke:#257C3E;stroke-width:1.2;stroke-miterlimit:10;}
	.st2{fill:#2C7C3D;}
	.st3{font-family:'Arial-BoldMT';}
	.st4{font-size:5.8635px;}
</style>
<g>
	<path class="st0" d="M11.4,22.7v7.6c0,1.3,1,2.3,2.3,2.3h16.7c1.2,0,2.3-1,2.3-2.3V9l-7.5-6.4H13.7c-1.3,0-2.3,1-2.3,2.3V13"/>
	<path class="st1" d="M25.1,2.5V8c0,0.6,0.5,1.1,1.1,1.1h6.4"/>
	<path class="st0" d="M21.1,14.1v7.4c0,0.6-0.5,1.1-1,1.1H3.4c-0.6,0-1-0.5-1-1.1v-7.4c0-0.6,0.5-1.1,1-1.1h16.7
		C20.6,13,21.1,13.5,21.1,14.1z"/>
	<text transform="matrix(1 0 0 1 6.1823 19.8105)" class="st2 st3 st4">XLS</text>
</g>
</svg>
