<?xml version="1.0" encoding="utf-8"?>
<!-- Generator: Adobe Illustrator 26.0.1, SVG Export Plug-In . SVG Version: 6.00 Build 0)  -->
<svg version="1.1" id="Layer_1" xmlns="http://www.w3.org/2000/svg" xmlns:xlink="http://www.w3.org/1999/xlink" x="0px" y="0px"
	 viewBox="0 0 35 35" style="enable-background:new 0 0 35 35;" xml:space="preserve">
<style type="text/css">
	.st0{fill-rule:evenodd;clip-rule:evenodd;fill:none;stroke:#25B24B;stroke-width:1.2;stroke-linecap:round;stroke-miterlimit:10;}
	.st1{fill:none;stroke:#25B24B;stroke-width:1.2;stroke-linecap:round;stroke-miterlimit:10;}
	.st2{fill-rule:evenodd;clip-rule:evenodd;fill:none;stroke:#25B24B;stroke-width:1.2;stroke-miterlimit:10;}
</style>
<g>
	<path class="st0" d="M24.1,4.4H29c0.7,0,1.3,0.6,1.3,1.3v25.6c0,0.7-0.6,1.3-1.3,1.3H6c-0.7,0-1.3-0.6-1.3-1.3V5.8
		C4.7,5,5.3,4.4,6,4.4h5"/>
	<line class="st1" x1="8.5" y1="8.8" x2="18" y2="8.8"/>
	<line class="st1" x1="8.5" y1="11.3" x2="13.9" y2="11.3"/>
	<path class="st0" d="M25.5,10.5v1.7c0,0.3-0.2,0.6-0.6,0.6h-3.1c-0.3,0-0.6-0.2-0.6-0.6V9.3c0-0.3,0.2-0.6,0.6-0.6h1.7"/>
	<line class="st1" x1="27" y1="7.4" x2="23.2" y2="10.9"/>
	<line class="st1" x1="8.5" y1="17.6" x2="18" y2="17.6"/>
	<line class="st1" x1="8.5" y1="20.1" x2="13.9" y2="20.1"/>
	<path class="st0" d="M25.5,19.3V21c0,0.3-0.2,0.6-0.6,0.6h-3.1c-0.3,0-0.6-0.2-0.6-0.6v-2.9c0-0.3,0.2-0.6,0.6-0.6h1.7"/>
	<line class="st1" x1="27" y1="16.2" x2="23.2" y2="19.7"/>
	<line class="st1" x1="8.5" y1="26.4" x2="18" y2="26.4"/>
	<line class="st1" x1="8.5" y1="28.9" x2="13.9" y2="28.9"/>
	<path class="st0" d="M25.5,28.1v1.7c0,0.3-0.2,0.6-0.6,0.6h-3.1c-0.3,0-0.6-0.2-0.6-0.6v-2.9c0-0.3,0.2-0.6,0.6-0.6h1.7"/>
	<line class="st1" x1="27" y1="25" x2="23.2" y2="28.5"/>
	<path class="st2" d="M21.1,2.7L21.1,2.7c0-0.2-0.2-0.4-0.4-0.4h-6.4c-0.2,0-0.4,0.2-0.4,0.4v0c0,0.4-0.3,0.7-0.7,0.7h0
		c-0.3,0-0.6,0.3-0.6,0.6v1.8c0,0.3,0.3,0.6,0.6,0.6h8.7c0.3,0,0.6-0.3,0.6-0.6V4c0-0.3-0.3-0.6-0.6-0.6h-0.1
		C21.4,3.4,21.1,3.1,21.1,2.7z"/>
</g>
</svg>
